<?xml version="1.0" encoding="iso-8859-1"?>
<!-- Generator: Adobe Illustrator 24.1.0, SVG Export Plug-In . SVG Version: 6.00 Build 0)  -->
<svg version="1.1" id="Capa_1" xmlns="http://www.w3.org/2000/svg" xmlns:xlink="http://www.w3.org/1999/xlink" x="0px" y="0px"
	 width="116px" height="20.657px" viewBox="0 0 116 20.657" enable-background="new 0 0 116 20.657" xml:space="preserve">
<g>
	<path fill="#333333" d="M20.514,7.513l-0.302,0.355V6.021h-3.055v14.245h3.073v-7.371c0-2.806,1.599-4.369,4.511-4.44V5.826
		C22.841,5.861,21.456,6.412,20.514,7.513"/>
	<path fill="#333333" d="M71.525,1.439h3.073v18.845h-3.073V1.439z"/>
	<path fill="#333333" d="M7.513,8.348c2.558,0,4.494,2.06,4.494,4.796s-1.936,4.796-4.494,4.796c-2.522,0-4.423-2.06-4.423-4.796
		C3.073,10.408,4.991,8.348,7.513,8.348 M0,13.143c0,4.281,3.233,7.495,7.495,7.495c2.806,0,4.494-1.972,4.494-1.972v1.581h3.073
		v-7.122c0-4.281-3.25-7.495-7.566-7.495C3.233,5.648,0,8.881,0,13.143"/>
	<path fill="#333333" d="M35.185,6.021h3.073v14.245h-3.073V6.021z"/>
	<path fill="#333333" d="M38.862,2.078C38.862,0.941,37.938,0,36.784,0c-1.137,0-2.043,0.924-2.043,2.078
		c0,1.137,0.924,2.043,2.043,2.043C37.938,4.121,38.862,3.215,38.862,2.078"/>
	<path fill="#333333" d="M47.388,17.957c-2.522,0-4.423-2.06-4.423-4.796s1.9-4.796,4.423-4.796c1.812,0,3.321,0.995,4.05,2.664
		h3.215c-0.906-3.268-3.73-5.364-7.264-5.364c-4.281,0-7.495,3.233-7.495,7.495c0,4.281,3.215,7.495,7.495,7.495
		c3.41,0,6.217-1.989,7.193-5.098h-3.268C50.549,17.051,49.093,17.957,47.388,17.957"/>
	<path fill="#333333" d="M104.153,11.758l0.071-0.213c0.604-1.972,2.22-3.179,4.192-3.179c2.007,0,3.641,1.226,4.245,3.179
		l0.071,0.213H104.153z M108.416,5.648c-4.281,0-7.495,3.233-7.495,7.495s3.215,7.495,7.495,7.495c3.144,0,5.772-1.687,6.945-4.423
		h-3.428c-0.835,1.119-2.078,1.723-3.499,1.723c-2.149,0-3.89-1.51-4.334-3.748l-0.036-0.195h8.81h3.073
		c0.036-0.32,0.053-0.586,0.053-0.853C115.982,8.881,112.732,5.648,108.416,5.648"/>
	<path fill="#333333" d="M76.641,1.439h14.476V3.89H76.641V1.439z"/>
	<path fill="#333333" d="M29.662,1.439h-3.073v14.245c0,2.948,1.634,4.796,4.263,4.796c0.941,0,2.078-0.124,2.487-0.178v-2.664
		c-0.391,0.053-1.314,0.178-1.972,0.178c-0.959,0-1.705-0.817-1.705-1.865V8.543h3.677V6.021h-3.677L29.662,1.439"/>
	<path fill="#333333" d="M96.267,15.932V8.525h3.677V6.021h-3.677V1.439h-3.073v14.245c0,2.948,1.634,4.796,4.263,4.796
		c0.941,0,2.078-0.142,2.487-0.178v-2.664c-0.391,0.053-1.314,0.178-1.972,0.178C97.031,17.815,96.267,16.998,96.267,15.932"/>
	<path fill="#333333" d="M83.852,8.348c2.558,0,4.494,2.06,4.494,4.796s-1.936,4.796-4.494,4.796c-2.522,0-4.423-2.06-4.423-4.796
		S81.33,8.348,83.852,8.348 M76.356,13.143c0,4.281,3.233,7.495,7.495,7.495c2.806,0,4.494-1.972,4.494-1.972v1.581h3.073v-7.122
		c0-4.281-3.25-7.495-7.566-7.495C79.571,5.648,76.356,8.881,76.356,13.143"/>
	<path fill="#333333" d="M62.591,17.921c-2.824,0-3.233-2.327-3.233-4.796V6.021h-3.055v7.868c0,3.481,1.812,6.732,5.968,6.732
		c2.717,0,4.103-1.954,4.103-1.954v1.581h3.073V6.021h-3.073v7.034C66.375,16.358,64.456,17.921,62.591,17.921"/>
</g>
</svg>
