<?xml version="1.0" encoding="UTF-8"?><svg id="Layer_2" xmlns="http://www.w3.org/2000/svg" xmlns:xlink="http://www.w3.org/1999/xlink" viewBox="0 0 391.57 369.37"><defs><style>.cls-1,.cls-2,.cls-3{fill:#fff;}.cls-1,.cls-4,.cls-5,.cls-6,.cls-7,.cls-8{stroke-miterlimit:10;}.cls-1,.cls-4,.cls-9,.cls-3,.cls-6,.cls-10,.cls-11,.cls-7,.cls-12{stroke:#263238;}.cls-13{fill:#9bd2a5;}.cls-4,.cls-12,.cls-14{fill:#263238;}.cls-5{stroke:#cbdad5;}.cls-5,.cls-15,.cls-16,.cls-17{fill:#cbdad5;}.cls-9{fill:#d94f04;}.cls-9,.cls-3,.cls-10,.cls-11,.cls-12{stroke-linecap:round;stroke-linejoin:round;}.cls-16{opacity:.5;}.cls-16,.cls-17{isolation:isolate;}.cls-6,.cls-18,.cls-11{fill:none;}.cls-19{clip-path:url(#clippath);}.cls-10,.cls-7,.cls-8{fill:#007172;}.cls-17{opacity:.3;}.cls-8{stroke:#000;}</style><clipPath id="clippath"><path class="cls-18" d="M222.79,272.38v-19.5h-58.68v19.5c-.02,6.38-2.22,12.55-6.24,17.5l-2.57,3.18h76.28l-2.56-3.18c-4.02-4.95-6.22-11.13-6.23-17.5Z"/></clipPath></defs><g id="Layer_1-2"><g><polygon class="cls-3" points="291.97 303 99.19 303 114.41 288.31 276.75 288.31 291.97 303"/><path class="cls-13" d="M270.55,293.98c0,3-34.91,5.47-78,5.47s-78-2.45-78-5.47,34.91-5.48,78-5.48,78,2.45,78,5.48Z"/><path class="cls-16" d="M270.55,293.98c0,3-34.91,5.47-78,5.47s-78-2.45-78-5.47,34.91-5.48,78-5.48,78,2.45,78,5.48Z"/><rect class="cls-12" x="99.19" y="303" width="192.78" height="13.61"/><polygon class="cls-3" points="305.61 331.29 85.55 331.29 99.19 316.61 291.97 316.61 305.61 331.29"/><rect class="cls-12" x="85.59" y="331.29" width="219.98" height="14.32"/><polyline class="cls-6" points="193.45 157.81 193.45 66.28 228.28 66.28 228.28 27.77"/><line class="cls-6" x1="207.06" y1="65.85" x2="207.06" y2="27.77"/><polyline class="cls-6" points="196.05 172.4 356.41 172.4 356.41 149.6 387.06 149.6"/><polyline class="cls-6" points="188.19 171.61 35.7 171.61 35.7 147.25 2.69 147.25"/><polyline class="cls-6" points="162.25 3.4 162.25 37.99 142.6 37.99 142.6 59.99 166.97 59.99 166.97 133.88"/><polyline class="cls-6" points="269.94 105.58 269.94 56.06 283.3 56.06 283.3 34.84 294.31 34.84"/><polyline class="cls-6" points="108.02 100.87 108.02 63.14 97.01 52.13 97.01 24.62"/><polyline class="cls-6" points="299.81 122.88 327.32 122.88 327.32 104.8 345.4 104.8 345.4 94.58 361.12 94.58"/><polyline class="cls-6" points="80.5 129.17 51.42 129.17 51.42 106.37 10.55 106.37"/><polyline class="cls-6" points="107.23 252.57 107.23 273.01 93.87 273.01 93.87 295.81 55.35 295.81"/><polyline class="cls-6" points="254.22 255.72 254.22 276.94 284.87 276.94 284.87 268.3 293.52 268.3 293.52 286.37 320.25 286.37"/><path class="cls-12" d="M230.52,27.77c0,1.24-1.01,2.24-2.25,2.23-1.24,0-2.24-1.01-2.23-2.25,0-1.23,1.01-2.23,2.24-2.23,1.24,0,2.24,1,2.24,2.24h0Z"/><path class="cls-12" d="M209.38,27.77c0,1.24-1.01,2.24-2.25,2.23-1.24,0-2.24-1.01-2.23-2.25,0-1.23,1.01-2.23,2.24-2.23,1.24,0,2.24,1,2.24,2.24h0Z"/><path class="cls-12" d="M164.51,2.75c0,1.24-1.01,2.25-2.25,2.25-1.24,0-2.25-1.01-2.25-2.25,0-1.24,1.01-2.25,2.25-2.25h0c1.24,0,2.24,1,2.24,2.24h0Z"/><path class="cls-12" d="M99.27,23.49c0,1.24-1.01,2.24-2.25,2.23-1.24,0-2.24-1.01-2.23-2.25,0-1.23,1.01-2.23,2.24-2.23,1.24,0,2.24,1,2.24,2.24h0Z"/><path class="cls-12" d="M12.79,106.37c0,1.24-1,2.25-2.24,2.26s-2.25-1-2.26-2.24c0-1.24,1-2.25,2.24-2.26,0,0,.01,0,.02,0,1.24,0,2.24,1,2.24,2.24h0Z"/><path class="cls-12" d="M5,147.18c0,1.24-1.01,2.25-2.25,2.25s-2.25-1.01-2.25-2.25,1.01-2.25,2.25-2.25h0c1.24,0,2.25,1.01,2.25,2.25Z"/><path class="cls-12" d="M57.79,295.38c0,1.24-1.01,2.25-2.25,2.25-1.24,0-2.25-1.01-2.25-2.25,0-1.24,1.01-2.25,2.25-2.25h0c1.24,0,2.24,1,2.24,2.24h0Z"/><path class="cls-12" d="M323.63,285.93c0,1.24-1,2.25-2.24,2.26-1.24,0-2.25-1-2.26-2.24,0-1.24,1-2.25,2.24-2.26h0c1.24,0,2.24,.99,2.25,2.23h0Z"/><path class="cls-12" d="M390.44,149.16c0,1.24-1,2.24-2.24,2.24s-2.24-1-2.24-2.24,1-2.24,2.24-2.24h0c1.24,0,2.24,1,2.24,2.24Z"/><path class="cls-12" d="M364.42,94.1c0,1.24-1,2.24-2.24,2.24s-2.24-1-2.24-2.24,1-2.24,2.24-2.24h0c1.24,0,2.24,1,2.24,2.24Z"/><path class="cls-12" d="M298,34.78c0,1.24-1,2.24-2.24,2.24-1.24,0-2.24-1-2.24-2.24s1-2.24,2.24-2.24h0c1.24,0,2.24,1,2.24,2.24Z"/><path class="cls-2" d="M222.79,272.38v-19.5h-58.68v19.5c-.02,6.38-2.22,12.55-6.24,17.5l-2.57,3.18h76.28l-2.56-3.18c-4.02-4.95-6.22-11.13-6.23-17.5Z"/><g class="cls-19"><g><path class="cls-15" d="M160.51,286.04h65.88c-2.36-4.17-3.6-8.87-3.6-13.66v-19.5h-58.68v19.5c0,4.79-1.24,9.49-3.6,13.66Z"/><path class="cls-17" d="M160.51,286.04h65.88c-2.36-4.17-3.6-8.87-3.6-13.66v-19.5h-58.68v19.5c0,4.79-1.24,9.49-3.6,13.66Z"/><path class="cls-15" d="M160.51,265.48h65.88c-2.36-4.17-3.6-8.87-3.6-13.66v-19.5h-58.68v19.5c0,4.79-1.24,9.49-3.6,13.66Z"/></g></g><path class="cls-11" d="M222.79,272.38v-19.5h-58.68v19.5c-.02,6.38-2.22,12.55-6.24,17.5l-2.57,3.18h76.28l-2.56-3.18c-4.02-4.95-6.22-11.13-6.23-17.5Z"/><rect class="cls-12" x="75.54" y="85.87" width="235.82" height="173.15" rx="8.48" ry="8.48"/><path class="cls-3" d="M75.54,232.11h235.82v18.43c0,4.68-3.8,8.48-8.48,8.48H84.02c-4.68,0-8.48-3.8-8.48-8.48h0v-18.43h0Z"/><rect class="cls-3" x="87.4" y="96.65" width="212.09" height="122.33"/><path class="cls-12" d="M197.8,249.88c.05-2.4-1.86-4.39-4.26-4.44-2.4-.05-4.39,1.86-4.44,4.26-.05,2.4,1.86,4.39,4.26,4.44,.03,0,.06,0,.09,0,2.38,.02,4.32-1.88,4.35-4.26Z"/><rect class="cls-3" x="155.31" y="293.09" width="76.29" height="3.48"/><path class="cls-10" d="M193.77,90.3c-10.66,10-38,20-69.81,41.29,0,0,2,72,69.81,111.31V90.3Z"/><path class="cls-9" d="M193.77,90.3c10.67,10,38,20,69.82,41.29,0,0-2,72-69.82,111.31V90.3Z"/><path class="cls-9" d="M193.77,96.43c-12.9,8.94-35.19,17.45-64.69,37.19,0,0,1.85,66.7,64.69,103.16,62.85-36.46,64.7-103.16,64.7-103.16-29.5-19.74-51.72-28.25-64.7-37.19Z"/><path class="cls-10" d="M258.47,133.62c-29.5-19.73-51.72-28.25-64.7-37.19V236.78c62.85-36.46,64.7-103.16,64.7-103.16Z"/><rect class="cls-12" x="74.81" y="168.93" width="237.28" height="15.36"/><path class="cls-2" d="M79.48,171.37c.02,.88-.68,1.6-1.56,1.62-.88,.02-1.6-.68-1.62-1.56-.02-.88,.68-1.6,1.56-1.62h.03c.87-.01,1.58,.68,1.59,1.55h0Z"/><path class="cls-14" d="M76.98,172.23c.48,.51,1.29,.53,1.8,.04,.25-.24,.39-.56,.39-.9,0-.3-.12-.59-.32-.81-.66,.51-1.29,1.07-1.87,1.67Z"/><path class="cls-2" d="M85.72,171.37c.02,.88-.68,1.62-1.56,1.64-.88,.02-1.62-.68-1.64-1.56s.68-1.62,1.56-1.64h.04c.87-.01,1.59,.69,1.6,1.56h0Z"/><path class="cls-14" d="M83.21,172.23c.48,.51,1.29,.53,1.8,.04,.25-.24,.39-.56,.39-.9,0-.3-.12-.59-.32-.81-.66,.52-1.28,1.07-1.87,1.67Z"/><path class="cls-2" d="M91.95,171.37c-.07,.88-.84,1.54-1.72,1.47-.78-.06-1.41-.68-1.47-1.47,.07-.88,.84-1.54,1.72-1.47,.78,.06,1.41,.68,1.47,1.47Z"/><path class="cls-14" d="M89.44,172.23c.24,.25,.57,.39,.92,.39,.7,0,1.26-.55,1.27-1.25h0c0-.3-.11-.59-.32-.81-.66,.52-1.28,1.07-1.87,1.67Z"/><path class="cls-2" d="M98.18,171.37c.02,.88-.68,1.6-1.56,1.62-.88,.02-1.6-.68-1.62-1.56-.02-.88,.68-1.6,1.56-1.62h.03c.87-.01,1.58,.68,1.59,1.55h0Z"/><path class="cls-14" d="M95.67,172.23c.49,.51,1.3,.52,1.81,.03,.24-.23,.38-.55,.39-.89,0-.3-.12-.59-.32-.81-.66,.51-1.29,1.07-1.88,1.67Z"/><path class="cls-2" d="M104.41,171.37c.02,.88-.68,1.6-1.56,1.62-.88,.02-1.6-.68-1.62-1.56-.02-.88,.68-1.6,1.56-1.62h.03c.87-.01,1.58,.68,1.59,1.55h0Z"/><path class="cls-14" d="M101.87,172.23c.24,.25,.57,.39,.92,.39,.7,.01,1.27-.54,1.28-1.24h0c0-.31-.12-.6-.32-.82-.66,.52-1.29,1.07-1.88,1.67Z"/><path class="cls-2" d="M110.64,171.37c.02,.88-.68,1.6-1.56,1.62-.88,.02-1.6-.68-1.62-1.56-.02-.88,.68-1.6,1.56-1.62h.03c.87-.01,1.58,.68,1.59,1.55h0Z"/><path class="cls-14" d="M108.14,172.23c.48,.51,1.29,.53,1.8,.04,.25-.24,.39-.56,.39-.9,0-.3-.12-.59-.32-.81-.66,.51-1.29,1.07-1.87,1.67Z"/><path class="cls-2" d="M116.87,171.37c.02,.88-.68,1.62-1.56,1.64-.88,.02-1.62-.68-1.64-1.56s.68-1.62,1.56-1.64h.04c.87-.01,1.59,.69,1.6,1.56h0Z"/><path class="cls-14" d="M114.37,172.23c.48,.51,1.29,.53,1.8,.04,.25-.24,.39-.56,.39-.9,0-.3-.12-.59-.32-.81-.66,.52-1.28,1.07-1.87,1.67Z"/><path class="cls-2" d="M123.11,171.37c.02,.88-.68,1.6-1.56,1.62-.88,.02-1.6-.68-1.62-1.56-.02-.88,.68-1.6,1.56-1.62h.03c.87-.01,1.58,.68,1.59,1.55h0Z"/><path class="cls-14" d="M120.6,172.23c.24,.25,.57,.39,.92,.39,.7,0,1.26-.55,1.27-1.25h0c0-.3-.11-.59-.32-.81-.66,.52-1.28,1.07-1.87,1.67Z"/><path class="cls-2" d="M129.34,171.37c.02,.88-.68,1.6-1.56,1.62-.88,.02-1.6-.68-1.62-1.56-.02-.88,.68-1.6,1.56-1.62h.03c.87-.01,1.58,.68,1.59,1.55h0Z"/><path class="cls-14" d="M126.87,172.23c.49,.51,1.3,.52,1.81,.03,.24-.23,.38-.55,.39-.89,0-.3-.12-.59-.32-.81-.66,.52-1.29,1.07-1.88,1.67Z"/><path class="cls-2" d="M135.57,171.37c.02,.88-.68,1.6-1.56,1.62-.88,.02-1.6-.68-1.62-1.56-.02-.88,.68-1.6,1.56-1.62h.03c.87-.01,1.58,.68,1.59,1.55h0Z"/><path class="cls-14" d="M133.06,172.23c.24,.25,.57,.39,.92,.39,.7,.01,1.27-.54,1.28-1.24h0c0-.31-.12-.6-.32-.82-.66,.52-1.29,1.07-1.88,1.67Z"/><path class="cls-2" d="M141.8,171.37c.02,.88-.68,1.6-1.56,1.62-.88,.02-1.6-.68-1.62-1.56-.02-.88,.68-1.6,1.56-1.62h.03c.87-.01,1.58,.68,1.59,1.55h0Z"/><path class="cls-14" d="M139.3,172.23c.48,.51,1.29,.53,1.8,.04,.25-.24,.39-.56,.39-.9,0-.3-.12-.59-.32-.81-.66,.52-1.28,1.07-1.87,1.67Z"/><path class="cls-2" d="M148.04,171.37c.02,.88-.68,1.62-1.56,1.64-.88,.02-1.62-.68-1.64-1.56-.02-.88,.68-1.62,1.56-1.64,.02,0,.03,0,.05,0,.87-.01,1.58,.68,1.59,1.55h0Z"/><path class="cls-14" d="M145.53,172.23c.48,.51,1.29,.53,1.8,.04,.25-.24,.39-.56,.39-.9,0-.3-.11-.59-.32-.81-.66,.52-1.28,1.07-1.87,1.67Z"/><path class="cls-2" d="M154.27,171.37c.02,.88-.68,1.6-1.56,1.62-.88,.02-1.6-.68-1.62-1.56-.02-.88,.68-1.6,1.56-1.62h.03c.87-.01,1.58,.68,1.59,1.55h0Z"/><path class="cls-14" d="M151.76,172.23c.49,.51,1.3,.52,1.81,.03,.24-.23,.38-.55,.39-.89,0-.3-.12-.59-.32-.81-.66,.51-1.29,1.07-1.88,1.67Z"/><path class="cls-2" d="M160.5,171.37c.02,.88-.68,1.6-1.56,1.62-.88,.02-1.6-.68-1.62-1.56-.02-.88,.68-1.6,1.56-1.62h.03c.87-.01,1.58,.68,1.59,1.55h0Z"/><path class="cls-14" d="M157.99,172.23c.24,.25,.57,.39,.92,.39,.7,.01,1.27-.54,1.28-1.24h0c0-.31-.12-.6-.32-.82-.66,.52-1.29,1.07-1.88,1.67Z"/><path class="cls-2" d="M79.48,181.28c.02,.88-.67,1.61-1.55,1.63-.88,.02-1.61-.67-1.63-1.55-.02-.88,.67-1.61,1.55-1.63h.04c.87-.01,1.58,.68,1.59,1.55h0Z"/><path class="cls-14" d="M76.98,182.15c.24,.25,.57,.39,.91,.39,.7,0,1.27-.56,1.28-1.26h0c0-.3-.12-.58-.32-.8-.66,.51-1.29,1.07-1.87,1.67Z"/><path class="cls-2" d="M85.72,181.28c.03,.88-.67,1.62-1.55,1.65s-1.62-.67-1.65-1.55c-.03-.88,.67-1.62,1.55-1.65h.05c.87-.01,1.58,.68,1.6,1.55Z"/><path class="cls-14" d="M83.21,182.15c.24,.25,.57,.39,.91,.39,.7,0,1.27-.56,1.28-1.26h0c0-.3-.12-.58-.32-.8-.66,.52-1.28,1.07-1.87,1.67Z"/><path class="cls-2" d="M91.95,181.28c.03,.88-.67,1.62-1.55,1.65-.88,.03-1.62-.67-1.65-1.55s.67-1.62,1.55-1.65c.02,0,.04,0,.06,0,.87-.01,1.58,.68,1.59,1.55h0Z"/><path class="cls-14" d="M89.44,182.15c.48,.51,1.29,.53,1.8,.04,.25-.24,.39-.57,.39-.91,0-.3-.12-.58-.32-.8-.66,.52-1.28,1.07-1.87,1.67Z"/><path class="cls-2" d="M98.18,181.28c.02,.88-.67,1.61-1.55,1.63-.88,.02-1.61-.67-1.63-1.55-.02-.88,.67-1.61,1.55-1.63h.04c.87-.01,1.58,.68,1.59,1.55h0Z"/><path class="cls-14" d="M95.67,182.15c.49,.51,1.3,.52,1.81,.03,.24-.24,.38-.56,.39-.9,0-.3-.12-.58-.32-.8-.66,.51-1.29,1.07-1.88,1.67Z"/><path class="cls-2" d="M104.41,181.28c.02,.88-.67,1.61-1.55,1.63-.88,.02-1.61-.67-1.63-1.55-.02-.88,.67-1.61,1.55-1.63h.04c.87-.01,1.58,.68,1.59,1.55h0Z"/><path class="cls-14" d="M101.87,182.15c.24,.25,.57,.39,.92,.39,.7,0,1.27-.56,1.28-1.26h0c0-.3-.12-.58-.32-.8-.66,.52-1.29,1.07-1.88,1.67Z"/><path class="cls-2" d="M110.64,181.28c.02,.88-.67,1.61-1.55,1.63-.88,.02-1.61-.67-1.63-1.55-.02-.88,.67-1.61,1.55-1.63h.04c.87-.01,1.58,.68,1.59,1.55h0Z"/><path class="cls-14" d="M108.14,182.15c.24,.25,.57,.39,.91,.39,.7,0,1.27-.56,1.28-1.26h0c0-.3-.12-.58-.32-.8-.66,.51-1.29,1.07-1.87,1.67Z"/><path class="cls-2" d="M116.87,181.28c.03,.88-.67,1.62-1.55,1.65s-1.62-.67-1.65-1.55c-.03-.88,.67-1.62,1.55-1.65h.05c.87-.01,1.58,.68,1.6,1.55Z"/><path class="cls-14" d="M114.37,182.15c.24,.25,.57,.39,.91,.39,.7,0,1.27-.56,1.28-1.26h0c0-.3-.12-.58-.32-.8-.66,.52-1.28,1.07-1.87,1.67Z"/><path class="cls-2" d="M123.11,181.28c.02,.88-.67,1.61-1.55,1.63-.88,.02-1.61-.67-1.63-1.55-.02-.88,.67-1.61,1.55-1.63h.04c.87-.01,1.58,.68,1.59,1.55h0Z"/><path class="cls-14" d="M120.6,182.15c.48,.51,1.29,.53,1.8,.04,.25-.24,.39-.57,.39-.91,0-.3-.12-.58-.32-.8-.66,.52-1.28,1.07-1.87,1.67Z"/><path class="cls-2" d="M129.34,181.28c.02,.88-.67,1.61-1.55,1.63-.88,.02-1.61-.67-1.63-1.55-.02-.88,.67-1.61,1.55-1.63h.04c.87-.01,1.58,.68,1.59,1.55h0Z"/><path class="cls-14" d="M126.87,182.15c.49,.51,1.3,.52,1.81,.03,.24-.24,.38-.56,.39-.9,0-.3-.12-.58-.32-.8-.66,.52-1.29,1.07-1.88,1.67Z"/><path class="cls-2" d="M135.57,181.28c.02,.88-.67,1.61-1.55,1.63-.88,.02-1.61-.67-1.63-1.55-.02-.88,.67-1.61,1.55-1.63h.04c.87-.01,1.58,.68,1.59,1.55h0Z"/><path class="cls-14" d="M133.06,182.15c.24,.25,.57,.39,.92,.39,.7,0,1.27-.56,1.28-1.26h0c0-.3-.12-.58-.32-.8-.66,.52-1.29,1.07-1.88,1.67Z"/><path class="cls-2" d="M141.8,181.28c.02,.88-.67,1.61-1.55,1.63-.88,.02-1.61-.67-1.63-1.55-.02-.88,.67-1.61,1.55-1.63h.04c.87-.01,1.58,.68,1.59,1.55h0Z"/><path class="cls-14" d="M139.3,182.15c.24,.25,.57,.39,.91,.39,.7,0,1.27-.56,1.28-1.26h0c0-.3-.12-.58-.32-.8-.66,.52-1.28,1.07-1.87,1.67Z"/><path class="cls-2" d="M148.04,181.28c.03,.88-.67,1.62-1.55,1.65-.88,.03-1.62-.67-1.65-1.55s.67-1.62,1.55-1.65c.02,0,.04,0,.06,0,.87-.01,1.58,.68,1.59,1.55h0Z"/><path class="cls-14" d="M145.53,182.15c.48,.51,1.29,.53,1.8,.04,.25-.24,.39-.57,.39-.91,0-.3-.12-.58-.32-.8-.66,.52-1.28,1.07-1.87,1.67Z"/><path class="cls-2" d="M154.27,181.28c.02,.88-.67,1.61-1.55,1.63-.88,.02-1.61-.67-1.63-1.55-.02-.88,.67-1.61,1.55-1.63h.04c.87-.01,1.58,.68,1.59,1.55h0Z"/><path class="cls-14" d="M151.76,182.15c.49,.51,1.3,.52,1.81,.03,.24-.24,.38-.56,.39-.9,0-.3-.12-.58-.32-.8-.66,.51-1.29,1.07-1.88,1.67Z"/><path class="cls-2" d="M160.5,181.28c.02,.88-.67,1.61-1.55,1.63-.88,.02-1.61-.67-1.63-1.55-.02-.88,.67-1.61,1.55-1.63h.04c.87-.01,1.58,.68,1.59,1.55h0Z"/><path class="cls-14" d="M157.99,182.15c.24,.25,.57,.39,.92,.39,.7,0,1.27-.56,1.28-1.26h0c0-.3-.12-.58-.32-.8-.66,.52-1.29,1.07-1.88,1.67Z"/><path class="cls-2" d="M229.55,171.37c.02,.88-.68,1.6-1.56,1.62-.88,.02-1.6-.68-1.62-1.56-.02-.88,.68-1.6,1.56-1.62h.03c.87-.01,1.58,.68,1.59,1.55h0Z"/><path class="cls-14" d="M227.05,172.23c.48,.51,1.29,.53,1.8,.04,.25-.24,.39-.56,.39-.9,0-.3-.12-.59-.32-.81-.66,.52-1.28,1.07-1.87,1.67Z"/><path class="cls-2" d="M235.79,171.37c.02,.88-.68,1.62-1.56,1.64-.88,.02-1.62-.68-1.64-1.56-.02-.88,.68-1.62,1.56-1.64,.02,0,.03,0,.05,0,.87-.01,1.58,.68,1.59,1.55h0Z"/><path class="cls-14" d="M233.28,172.23c.48,.51,1.29,.53,1.8,.04,.25-.24,.39-.56,.39-.9,0-.3-.11-.59-.32-.81-.66,.52-1.28,1.07-1.87,1.67Z"/><path class="cls-2" d="M242.02,171.37c.02,.88-.68,1.6-1.56,1.62-.88,.02-1.6-.68-1.62-1.56-.02-.88,.68-1.6,1.56-1.62h.03c.87-.01,1.58,.68,1.59,1.55h0Z"/><path class="cls-14" d="M239.51,172.23c.49,.51,1.3,.52,1.81,.03,.24-.23,.38-.55,.39-.89,0-.3-.12-.59-.32-.81-.66,.51-1.29,1.07-1.88,1.67Z"/><path class="cls-2" d="M248.25,171.37c.02,.88-.68,1.6-1.56,1.62-.88,.02-1.6-.68-1.62-1.56-.02-.88,.68-1.6,1.56-1.62h.03c.87-.01,1.58,.68,1.59,1.55h0Z"/><path class="cls-14" d="M245.74,172.23c.24,.25,.57,.39,.92,.39,.7,.01,1.27-.54,1.28-1.24h0c0-.31-.12-.6-.32-.82-.66,.52-1.29,1.07-1.88,1.67Z"/><path class="cls-2" d="M254.48,171.37c.02,.88-.68,1.6-1.56,1.62-.88,.02-1.6-.68-1.62-1.56-.02-.88,.68-1.6,1.56-1.62h.03c.87-.01,1.58,.68,1.59,1.55h0Z"/><path class="cls-14" d="M251.98,172.23c.48,.51,1.29,.53,1.8,.04,.25-.24,.39-.56,.39-.9,0-.3-.12-.59-.32-.81-.66,.51-1.29,1.07-1.87,1.67Z"/><path class="cls-2" d="M260.72,171.37c.02,.88-.68,1.62-1.56,1.64-.88,.02-1.62-.68-1.64-1.56s.68-1.62,1.56-1.64h.04c.87-.01,1.59,.69,1.6,1.56h0Z"/><path class="cls-14" d="M258.21,172.23c.48,.51,1.29,.53,1.8,.04,.25-.24,.39-.56,.39-.9,0-.3-.12-.59-.32-.81-.66,.52-1.28,1.07-1.87,1.67Z"/><path class="cls-2" d="M266.95,171.37c.02,.88-.68,1.62-1.56,1.64-.88,.02-1.62-.68-1.64-1.56-.02-.88,.68-1.62,1.56-1.64,.02,0,.03,0,.05,0,.87-.01,1.58,.68,1.59,1.55h0Z"/><path class="cls-14" d="M264.44,172.23c.48,.51,1.29,.53,1.8,.04,.25-.24,.39-.56,.39-.9,0-.3-.11-.59-.32-.81-.66,.52-1.28,1.07-1.87,1.67Z"/><path class="cls-2" d="M273.18,171.37c.02,.88-.68,1.6-1.56,1.62-.88,.02-1.6-.68-1.62-1.56-.02-.88,.68-1.6,1.56-1.62h.03c.87-.01,1.58,.68,1.59,1.55h0Z"/><path class="cls-14" d="M270.67,172.23c.49,.51,1.3,.52,1.81,.03,.24-.23,.38-.55,.39-.89,0-.3-.12-.59-.32-.81-.66,.51-1.29,1.07-1.88,1.67Z"/><path class="cls-2" d="M279.41,171.37c.02,.88-.68,1.6-1.56,1.62-.88,.02-1.6-.68-1.62-1.56-.02-.88,.68-1.6,1.56-1.62h.03c.87-.01,1.58,.68,1.59,1.55h0Z"/><path class="cls-14" d="M276.87,172.23c.24,.25,.57,.39,.92,.39,.7,.01,1.27-.54,1.28-1.24h0c0-.31-.12-.6-.32-.82-.66,.52-1.29,1.07-1.88,1.67Z"/><path class="cls-2" d="M285.64,171.37c.02,.88-.68,1.6-1.56,1.62-.88,.02-1.6-.68-1.62-1.56-.02-.88,.68-1.6,1.56-1.62h.03c.87-.01,1.58,.68,1.59,1.55h0Z"/><path class="cls-14" d="M283.14,172.23c.48,.51,1.29,.53,1.8,.04,.25-.24,.39-.56,.39-.9,0-.3-.12-.59-.32-.81-.66,.51-1.29,1.07-1.87,1.67Z"/><path class="cls-2" d="M291.87,171.37c.02,.88-.68,1.62-1.56,1.64-.88,.02-1.62-.68-1.64-1.56s.68-1.62,1.56-1.64h.04c.87-.01,1.59,.69,1.6,1.56h0Z"/><path class="cls-14" d="M289.37,172.23c.48,.51,1.29,.53,1.8,.04,.25-.24,.39-.56,.39-.9,0-.3-.12-.59-.32-.81-.66,.52-1.28,1.07-1.87,1.67Z"/><path class="cls-2" d="M298.11,171.37c.02,.88-.68,1.6-1.56,1.62-.88,.02-1.6-.68-1.62-1.56-.02-.88,.68-1.6,1.56-1.62h.03c.87-.01,1.58,.68,1.59,1.55h0Z"/><path class="cls-14" d="M295.6,172.23c.24,.25,.57,.39,.92,.39,.7,0,1.26-.55,1.27-1.25h0c0-.3-.11-.59-.32-.81-.66,.52-1.28,1.07-1.87,1.67Z"/><path class="cls-2" d="M304.34,171.37c.02,.88-.68,1.6-1.56,1.62-.88,.02-1.6-.68-1.62-1.56-.02-.88,.68-1.6,1.56-1.62h.03c.87-.01,1.58,.68,1.59,1.55h0Z"/><path class="cls-14" d="M301.87,172.23c.49,.51,1.3,.52,1.81,.03,.24-.23,.38-.55,.39-.89,0-.3-.12-.59-.32-.81-.66,.52-1.29,1.07-1.88,1.67Z"/><path class="cls-2" d="M310.57,171.37c.02,.88-.68,1.6-1.56,1.62-.88,.02-1.6-.68-1.62-1.56-.02-.88,.68-1.6,1.56-1.62h.03c.87-.01,1.58,.68,1.59,1.55h0Z"/><path class="cls-14" d="M308.06,172.23c.24,.25,.57,.39,.92,.39,.7,.01,1.27-.54,1.28-1.24h0c0-.31-.12-.6-.32-.82-.66,.52-1.29,1.07-1.88,1.67Z"/><path class="cls-2" d="M229.55,181.28c.02,.88-.67,1.61-1.55,1.63-.88,.02-1.61-.67-1.63-1.55-.02-.88,.67-1.61,1.55-1.63h.04c.87-.01,1.58,.68,1.59,1.55h0Z"/><path class="cls-14" d="M227.05,182.15c.24,.25,.57,.39,.91,.39,.7,0,1.27-.56,1.28-1.26h0c0-.3-.12-.58-.32-.8-.66,.52-1.28,1.07-1.87,1.67Z"/><path class="cls-2" d="M235.79,181.28c.03,.88-.67,1.62-1.55,1.65-.88,.03-1.62-.67-1.65-1.55-.03-.88,.67-1.62,1.55-1.65,.02,0,.04,0,.06,0,.87-.01,1.58,.68,1.59,1.55h0Z"/><path class="cls-14" d="M233.28,182.15c.48,.51,1.29,.53,1.8,.04,.25-.24,.39-.57,.39-.91,0-.3-.12-.58-.32-.8-.66,.52-1.28,1.07-1.87,1.67Z"/><path class="cls-2" d="M242.02,181.28c.02,.88-.67,1.61-1.55,1.63-.88,.02-1.61-.67-1.63-1.55-.02-.88,.67-1.61,1.55-1.63h.04c.87-.01,1.58,.68,1.59,1.55h0Z"/><path class="cls-14" d="M239.51,182.15c.49,.51,1.3,.52,1.81,.03,.24-.24,.38-.56,.39-.9,0-.3-.12-.58-.32-.8-.66,.51-1.29,1.07-1.88,1.67Z"/><path class="cls-2" d="M248.25,181.28c.02,.88-.67,1.61-1.55,1.63-.88,.02-1.61-.67-1.63-1.55-.02-.88,.67-1.61,1.55-1.63h.04c.87-.01,1.58,.68,1.59,1.55h0Z"/><path class="cls-14" d="M245.74,182.15c.24,.25,.57,.39,.92,.39,.7,0,1.27-.56,1.28-1.26h0c0-.3-.12-.58-.32-.8-.66,.52-1.29,1.07-1.88,1.67Z"/><path class="cls-2" d="M254.48,181.28c.02,.88-.67,1.61-1.55,1.63-.88,.02-1.61-.67-1.63-1.55-.02-.88,.67-1.61,1.55-1.63h.04c.87-.01,1.58,.68,1.59,1.55h0Z"/><path class="cls-14" d="M251.98,182.15c.24,.25,.57,.39,.91,.39,.7,0,1.27-.56,1.28-1.26h0c0-.3-.12-.58-.32-.8-.66,.51-1.29,1.07-1.87,1.67Z"/><path class="cls-2" d="M260.72,181.28c.03,.88-.67,1.62-1.55,1.65-.88,.03-1.62-.67-1.65-1.55-.03-.88,.67-1.62,1.55-1.65h.05c.87-.01,1.58,.68,1.6,1.55Z"/><path class="cls-14" d="M258.21,182.15c.24,.25,.57,.39,.91,.39,.7,0,1.27-.56,1.28-1.26h0c0-.3-.12-.58-.32-.8-.66,.52-1.28,1.07-1.87,1.67Z"/><path class="cls-2" d="M266.95,181.28c.03,.88-.67,1.62-1.55,1.65-.88,.03-1.62-.67-1.65-1.55-.03-.88,.67-1.62,1.55-1.65,.02,0,.04,0,.06,0,.87-.01,1.58,.68,1.59,1.55h0Z"/><path class="cls-14" d="M264.44,182.15c.48,.51,1.29,.53,1.8,.04,.25-.24,.39-.57,.39-.91,0-.3-.12-.58-.32-.8-.66,.52-1.28,1.07-1.87,1.67Z"/><path class="cls-2" d="M273.18,181.28c.02,.88-.67,1.61-1.55,1.63-.88,.02-1.61-.67-1.63-1.55-.02-.88,.67-1.61,1.55-1.63h.04c.87-.01,1.58,.68,1.59,1.55h0Z"/><path class="cls-14" d="M270.67,182.15c.49,.51,1.3,.52,1.81,.03,.24-.24,.38-.56,.39-.9,0-.3-.12-.58-.32-.8-.66,.51-1.29,1.07-1.88,1.67Z"/><path class="cls-2" d="M279.41,181.28c.02,.88-.67,1.61-1.55,1.63-.88,.02-1.61-.67-1.63-1.55-.02-.88,.67-1.61,1.55-1.63h.04c.87-.01,1.58,.68,1.59,1.55h0Z"/><path class="cls-14" d="M276.87,182.15c.24,.25,.57,.39,.92,.39,.7,0,1.27-.56,1.28-1.26h0c0-.3-.12-.58-.32-.8-.66,.52-1.29,1.07-1.88,1.67Z"/><path class="cls-2" d="M285.64,181.28c.02,.88-.67,1.61-1.55,1.63-.88,.02-1.61-.67-1.63-1.55-.02-.88,.67-1.61,1.55-1.63h.04c.87-.01,1.58,.68,1.59,1.55h0Z"/><path class="cls-14" d="M283.14,182.15c.24,.25,.57,.39,.91,.39,.7,0,1.27-.56,1.28-1.26h0c0-.3-.12-.58-.32-.8-.66,.51-1.29,1.07-1.87,1.67Z"/><path class="cls-2" d="M291.87,181.28c.03,.88-.67,1.62-1.55,1.65-.88,.03-1.62-.67-1.65-1.55-.03-.88,.67-1.62,1.55-1.65h.05c.87-.01,1.58,.68,1.6,1.55Z"/><path class="cls-14" d="M289.37,182.15c.24,.25,.57,.39,.91,.39,.7,0,1.27-.56,1.28-1.26h0c0-.3-.12-.58-.32-.8-.66,.52-1.28,1.07-1.87,1.67Z"/><path class="cls-2" d="M298.11,181.28c.02,.88-.67,1.61-1.55,1.63-.88,.02-1.61-.67-1.63-1.55-.02-.88,.67-1.61,1.55-1.63h.04c.87-.01,1.58,.68,1.59,1.55h0Z"/><path class="cls-14" d="M295.6,182.15c.48,.51,1.29,.53,1.8,.04,.25-.24,.39-.57,.39-.91,0-.3-.12-.58-.32-.8-.66,.52-1.28,1.07-1.87,1.67Z"/><path class="cls-2" d="M304.34,181.28c.02,.88-.67,1.61-1.55,1.63-.88,.02-1.61-.67-1.63-1.55-.02-.88,.67-1.61,1.55-1.63h.04c.87-.01,1.58,.68,1.59,1.55h0Z"/><path class="cls-14" d="M301.87,182.15c.49,.51,1.3,.52,1.81,.03,.24-.24,.38-.56,.39-.9,0-.3-.12-.58-.32-.8-.66,.52-1.29,1.07-1.88,1.67Z"/><path class="cls-2" d="M310.57,181.28c.02,.88-.67,1.61-1.55,1.63-.88,.02-1.61-.67-1.63-1.55-.02-.88,.67-1.61,1.55-1.63h.04c.87-.01,1.58,.68,1.59,1.55h0Z"/><path class="cls-14" d="M308.06,182.15c.24,.25,.57,.39,.92,.39,.7,0,1.27-.56,1.28-1.26h0c0-.3-.12-.58-.32-.8-.66,.52-1.29,1.07-1.88,1.67Z"/><path class="cls-3" d="M218.28,163.68h-48.21c-2.18,0-3.96-1.74-4-3.92v-22.24c0-15.17,12.61-27.52,28.11-27.52s28.12,12.35,28.12,27.52v22.24c-.04,2.19-1.83,3.93-4.02,3.92Zm-44.21-7.8h40.2v-18.36c0-11.1-9.01-20.1-20.11-20.09-11.09,0-20.09,9-20.09,20.09v18.36Z"/><rect class="cls-10" x="163.08" y="152.96" width="61.38" height="50.78"/><path class="cls-9" d="M200.16,174.05c-.14-3.69-3.25-6.57-6.94-6.43-3.49,.14-6.29,2.93-6.43,6.43,.01,2.42,1.36,4.64,3.51,5.76l-1.12,11.53h8.59l-1.12-11.53c2.15-1.12,3.5-3.34,3.51-5.76Z"/><path class="cls-7" d="M307.53,355.17s-11.52,6.4-11.52,9.49,7.11,1.19,11.76-.99,8.34-3.8,8.34-8.06-8.58-.43-8.58-.43Z"/><path class="cls-7" d="M362.68,355.17s11.52,6.4,11.52,9.49-7.11,1.19-11.76-.99-8.34-3.8-8.34-8.06,8.58-.43,8.58-.43Z"/><path class="cls-4" d="M312.19,250.34l-4.91,106.05c1.37,1.12,3.15,1.63,4.91,1.42,1.52-.22,2.92-.98,3.92-2.13l16.67-86.57h3.43l17.66,88.19c1.05,.58,2.23,.91,3.43,.99,1.71,0,4.41-2.13,4.41-2.13l-5.64-105.75-43.88-.07Z"/><polygon class="cls-8" points="329.35 186.07 307.04 195.07 312.92 246.31 355.57 246.31 363.42 193.17 339.15 185.59 329.35 186.07"/><polygon class="cls-5" points="331.8 193.41 334.49 197.68 330.08 234.45 335.47 242.27 340.13 233.73 336.45 197.21 339.64 192.24 334.98 190.22 331.8 193.41"/><polygon class="cls-7" points="334.98 190.22 331.4 196.28 325.02 187.88 328.59 183.68 334.98 190.22"/><polygon class="cls-7" points="334.98 190.22 339.32 196.89 344.55 187.38 341.49 183.55 334.98 190.22"/><polygon class="cls-8" points="326.32 204.56 311.29 204.56 311.29 209.62 318.81 212.47 326.32 209.3 326.32 204.56"/><polygon class="cls-8" points="356.39 204.56 341.36 204.56 341.36 209.62 348.87 212.47 356.39 209.3 356.39 204.56"/><rect class="cls-4" x="312.19" y="245.36" width="43.88" height="4.98"/><path class="cls-4" d="M311.45,249.39l-7.6,3.08c-.12,2.15,.04,4.3,.49,6.4,.74,2.85,1.72,9.01,2.45,10.2s4.42,3.56,4.91,2.85,2.94-21.58,2.94-21.58l-3.19-.95Z"/><polygon class="cls-1" points="328.59 175.03 328.59 183.68 334.98 190.22 341.49 183.55 341.49 174.9 328.59 175.03"/><path class="cls-1" d="M324.13,167s-1.15-2.6-1.92-.99,.13,4.07,1.28,5.06c.85,.61,1.89,.87,2.93,.74l-.64-3.71-1.65-1.11Z"/><path class="cls-1" d="M344.93,167s1.15-2.6,1.92-.99-.13,4.07-1.28,5.06c-.85,.61-1.9,.87-2.94,.74l.64-3.71,1.66-1.11Z"/><path class="cls-4" d="M326.3,149.84s-5.37,2.22-5.37,5.93,.77,7.91,2.05,9.52,2.29,2.72,2.29,2.72l.26-5.32,3.7-6.3s6.13,3.82,9.19,3.82c1.71,.02,3.42-.11,5.11-.37l1.15,6.3,1.66-4.57v-4.2s3.06-2.85,2.42-4.69-11-7.66-17.36-6.18-5.1,3.33-5.1,3.33Z"/><path class="cls-1" d="M323.74,162.31s1.53,9.26,2.81,11.73c1.68,2.74,3.75,5.24,6.13,7.41,.89,.61,4.21,.12,5.49,.12s5-7.41,5.61-8.77,1-12.97,1-12.97l-1.12-2.1s-5.49,1.36-9.83-.37c-2.36-.83-4.46-2.24-6.13-4.08,0,0-.38,4.2-1.92,6.67s-2.04,2.34-2.04,2.34Z"/><path class="cls-4" d="M333.57,163.3c-1.54-.8-3.26-1.22-5-1.24-1.5-.06-2.98,.24-4.34,.86,0,0,0,4.2,1.41,5.81s5.49,1.11,6.64-.25,1.29-5.19,1.29-5.19Z"/><path class="cls-4" d="M335.36,163.3c1.54-.8,3.26-1.22,5-1.24,1.5-.06,2.98,.24,4.34,.86,0,0,0,4.2-1.41,5.81s-5.49,1.11-6.63-.25-1.3-5.19-1.3-5.19Z"/><line class="cls-6" x1="333.57" y1="163.3" x2="335.36" y2="163.3"/><path class="cls-1" d="M307.28,241.56l8.09-.24,6.13,5.46c0,.7-.27,1.37-.73,1.9-.74,.71-2.7,.24-2.7,.24,0,0-1.47,3.56-4.17,3.56s-10-4.94-10-4.94l3.38-5.97Z"/><polygon class="cls-7" points="307.04 195.07 279.83 230.41 303.85 247.49 307.28 241.56 299.93 227.57 309.98 218.55 307.04 195.07"/><line class="cls-11" x1="305.32" y1="237.53" x2="301.16" y2="244.88"/><line class="cls-11" x1="299.93" y1="227.57" x2="296.74" y2="219.5"/><path class="cls-1" d="M363.42,241.56l-8.09-.24-6.13,5.46c.01,.7,.27,1.37,.74,1.9,.73,.71,2.69,.24,2.69,.24,0,0,1.47,3.56,4.17,3.56s10.05-4.94,10.05-4.94l-3.43-5.97Z"/><polygon class="cls-8" points="363.42 193.17 390.87 230.41 366.85 247.49 363.42 241.56 370.77 227.57 359.25 218.32 363.42 193.17"/><line class="cls-11" x1="365.38" y1="237.53" x2="369.54" y2="244.88"/><line class="cls-11" x1="370.77" y1="227.57" x2="373.96" y2="219.5"/><path class="cls-7" d="M29.69,357.64s-11.52,6.48-11.52,9.6,7.11,1.2,11.77-1,8.33-3.84,8.33-8.16-8.58-.44-8.58-.44Z"/><path class="cls-7" d="M84.87,357.64s11.52,6.48,11.52,9.6-7.1,1.2-11.76-1-8.34-3.84-8.34-8.16,8.58-.44,8.58-.44Z"/><path class="cls-4" d="M34.35,251.57l-4.9,107.31c1.37,1.13,3.14,1.65,4.9,1.44,1.52-.23,2.92-.99,3.92-2.16l16.67-87.59h3.43l17.65,89.27c1.05,.58,2.23,.93,3.43,1,1.72,0,4.41-2.16,4.41-2.16l-5.64-107-43.87-.11Z"/><polygon class="cls-7" points="51.51 186.54 29.2 195.65 35.08 247.49 77.74 247.49 85.58 193.73 61.31 186.06 51.51 186.54"/><rect class="cls-4" x="34.35" y="246.53" width="43.88" height="5.04"/><path class="cls-4" d="M33.61,250.61l-7.6,3.12c-.12,2.17,.04,4.35,.49,6.48,.74,2.88,1.72,9.12,2.46,10.32s4.41,3.6,4.9,2.88,2.94-21.84,2.94-21.84l-3.19-.96Z"/><polygon class="cls-1" points="50.76 175.37 50.76 184.12 57.14 190.74 63.65 183.99 63.65 175.24 50.76 175.37"/><path class="cls-1" d="M46.29,167.25s-1.15-2.63-1.92-1,.13,4.12,1.28,5.12c.85,.61,1.9,.88,2.94,.75l-.64-3.75-1.66-1.12Z"/><path class="cls-1" d="M67.09,167.25s1.15-2.63,1.92-1-.13,4.12-1.28,5.12c-.85,.61-1.89,.88-2.93,.75l.63-3.75,1.66-1.12Z"/><path class="cls-4" d="M48.46,149.88s-5.36,2.25-5.36,6,.76,8,2,9.63,2.3,2.75,2.3,2.75l.25-5.38,3.7-6.37s6.13,3.87,9.19,3.87c1.71,.02,3.42-.11,5.11-.37l1.15,6.37,1.66-4.62v-4.25s3.06-2.88,2.42-4.75-11-7.75-17.36-6.25-5.06,3.37-5.06,3.37Z"/><path class="cls-1" d="M45.87,162.5s1.54,9.37,2.81,11.87c1.7,2.78,3.79,5.31,6.19,7.51,.89,.62,4.21,.12,5.49,.12s5-7.5,5.62-8.87,1-13.12,1-13.12l-1.11-2.13s-5.49,1.38-9.83-.37c-2.36-.84-4.46-2.26-6.13-4.13,0,0-.38,4.25-1.91,6.75s-2.13,2.37-2.13,2.37Z"/><path class="cls-4" d="M55.73,163.5c-1.54-.81-3.26-1.24-5-1.25-1.5-.06-2.98,.24-4.34,.87,0,0,0,4.25,1.4,5.88s5.49,1.12,6.64-.25,1.3-5.25,1.3-5.25Z"/><path class="cls-4" d="M57.52,163.5c1.54-.81,3.26-1.24,5-1.25,1.5-.06,2.98,.24,4.34,.87,0,0,0,4.25-1.41,5.88s-5.48,1.12-6.63-.25-1.3-5.25-1.3-5.25Z"/><line class="cls-6" x1="55.73" y1="163.5" x2="57.52" y2="163.5"/><polygon class="cls-5" points="53.96 193.97 56.65 198.29 52.24 235.49 57.64 243.41 62.29 234.77 58.62 197.81 61.8 192.78 57.14 190.74 53.96 193.97"/><polygon class="cls-7" points="57.14 190.74 53.56 196.87 47.18 188.37 50.76 184.12 57.14 190.74"/><polygon class="cls-7" points="57.14 190.74 61.48 197.49 66.71 187.87 63.65 183.99 57.14 190.74"/><polygon class="cls-7" points="29.2 195.65 1.99 231.41 26.01 248.69 29.45 242.69 22.09 228.53 32.14 219.41 29.2 195.65"/><path class="cls-1" d="M29.45,242.69l8.08-.24,6.13,5.52c0,.71-.27,1.39-.73,1.92-.74,.72-2.7,.24-2.7,.24,0,0-1.47,3.6-4.17,3.6s-10-5-10-5l3.39-6.04Z"/><line class="cls-11" x1="27.49" y1="238.61" x2="23.32" y2="246.05"/><line class="cls-11" x1="22.09" y1="228.53" x2="18.91" y2="220.37"/><polygon class="cls-7" points="85.58 193.73 113.03 231.41 89.01 248.69 85.58 242.69 92.93 228.53 81.41 219.17 85.58 193.73"/><path class="cls-1" d="M85.58,242.69l-8.09-.24-6.13,5.52c.01,.71,.27,1.39,.74,1.92,.73,.72,2.69,.24,2.69,.24,0,0,1.47,3.6,4.17,3.6s10-5,10-5l-3.38-6.04Z"/><line class="cls-11" x1="87.54" y1="238.61" x2="91.71" y2="246.05"/><line class="cls-11" x1="92.93" y1="228.53" x2="96.12" y2="220.37"/><polygon class="cls-7" points="48.48 205.25 33.45 205.25 33.45 210.37 40.97 213.25 48.48 210.05 48.48 205.25"/><polygon class="cls-7" points="78.55 205.25 63.52 205.25 63.52 210.37 71.04 213.25 78.55 210.05 78.55 205.25"/></g></g></svg>