<svg xmlns="http://www.w3.org/2000/svg" width="74.798" height="56.098" viewBox="0 0 74.798 56.098">
  <path id="Icon_awesome-chart-area" data-name="Icon awesome-chart-area" d="M73.044,51.248A1.758,1.758,0,0,1,74.8,53v5.844A1.758,1.758,0,0,1,73.044,60.6H1.753A1.758,1.758,0,0,1,0,58.845V6.253A1.758,1.758,0,0,1,1.753,4.5H7.6A1.758,1.758,0,0,1,9.35,6.253v45Zm-18.6-32.8L42.074,26.706,29.612,10.1a1.756,1.756,0,0,0-2.907.146L14.025,31.38V46.574h56.1L56.989,19.138a1.753,1.753,0,0,0-2.542-.687Z" transform="translate(0 -4.5)"/>
</svg>
