<?xml version="1.0" encoding="utf-8"?>
<!-- Generator: Adobe Illustrator 26.2.1, SVG Export Plug-In . SVG Version: 6.00 Build 0)  -->
<svg version="1.1" id="Layer_1" xmlns="http://www.w3.org/2000/svg" xmlns:xlink="http://www.w3.org/1999/xlink" x="0px" y="0px"
	 viewBox="0 0 403.4 260" style="enable-background:new 0 0 403.4 260;" xml:space="preserve">
<style type="text/css">
	.st0{fill:#263238;}
	.st1{fill:#FDFCDC;}
	.st2{fill:#007172;}
	.st3{fill:#D94F04;}
	.st4{fill:#FF725E;}
	.st5{opacity:0.3;}
	.st6{fill:#FFE1DD;}
	.st7{fill:#CBDAD5;}
	.st8{fill:#FFFFFF;}
	.st9{fill:#EB996E;}
	.st10{fill:#FFBE9D;}
	.st11{fill:#E0E0E0;}
	.st12{fill:#455A64;}
	.st13{opacity:0.6;fill:#FFFFFF;enable-background:new    ;}
	.st14{opacity:0.6;}
	.st15{fill:#B78876;}
	.st16{fill:#AA6550;}
	.st17{fill:#FAFAFA;}
	.st18{fill:#EBEBEB;}
</style>
<g id="Analysis-pana" transform="translate(-51.07 -50.48)">
	<g id="freepik--Floor--inject-250" transform="translate(51.07 304.691)">
		<path id="Path_3730" class="st0" d="M403.4,0.2c0,0.1-90.3,0.2-201.7,0.2S0,0.2,0,0.2S90.3,0,201.8,0S403.4,0.1,403.4,0.2z"/>
	</g>
	<g id="freepik--Analysis--inject-250" transform="translate(160.187 50.48)">
		<rect id="Rectangle_467" x="0.1" y="0.1" class="st1" width="164.7" height="108"/>
		<path id="Path_3731" class="st2" d="M164.8,108.1c0-1,0-42.1-0.1-108l0.1,0.1L0.1,0.3l0,0l0.2-0.2v108L0.1,108L164.8,108.1
			L0.1,108.3H0V0h165v0.1C164.8,66,164.8,107.1,164.8,108.1z"/>
		<path id="Path_3732" class="st2" d="M50.4,59.8L66.6,60c-0.3,8.8-7.4,15.7-16.2,15.7h-0.1L50.4,59.8z"/>
		<path id="Path_3733" class="st0" d="M77.2,81.7c-0.1,0-0.2,0-0.3,0l-1,0l-3.6,0h0l0,0c-1.4-1.8-3.3-4.2-5.3-6.7l-4.3-5.5l0.1,0
			l-4.8,0l-1.3,0c-0.2,0-0.3,0-0.5,0c0.2,0,0.3,0,0.5,0h1.3l4.8,0h0.1v0l4.3,5.5l5.3,6.8l-0.1,0l3.6,0h1
			C77,81.7,77.1,81.7,77.2,81.7z"/>
		<path id="Path_3734" class="st0" d="M83,83.6c0,0.1-2.3,0.1-5.2,0.1s-5.2-0.1-5.2-0.1s2.3-0.1,5.2-0.1S83,83.5,83,83.6z"/>
		<path id="Path_3735" class="st0" d="M83,85.5c0,0.1-2.3,0.1-5.2,0.1s-5.2-0.1-5.2-0.1s2.3-0.1,5.2-0.1S83,85.4,83,85.5z"/>
		<path id="Path_3736" class="st3" d="M47.9,57.5l-0.2,15.9c-8.8-0.3-15.6-7.6-15.4-16.4c0.3-8.8,7.6-15.6,16.4-15.4
			c8.6,0.3,15.4,7.3,15.4,15.9L47.9,57.5z"/>
		<path id="Path_3737" class="st0" d="M41.6,52.3c-0.1,0-0.2,0.1-0.3,0.1l-0.8,0.1l-2.9,0.4h0l0,0l-3.9-3.8
			c-1.9-1.9-3.5-3.5-4.7-4.7l-1.4-1.4c-0.2-0.2-0.3-0.4-0.5-0.6c0.2,0.1,0.4,0.3,0.6,0.5l1.5,1.4c1.2,1.2,2.9,2.8,4.8,4.7l3.9,3.8
			h-0.1l2.9-0.3l0.8-0.1C41.4,52.3,41.5,52.3,41.6,52.3z"/>
		<path id="Path_3738" class="st0" d="M22.8,41.7c0,0.1-2.3,0.1-5.2,0.1s-5.2-0.1-5.2-0.1s2.3-0.1,5.2-0.1S22.8,41.6,22.8,41.7z"/>
		<path id="Path_3739" class="st0" d="M22.8,43.6c0,0.1-2.3,0.1-5.2,0.1s-5.2-0.1-5.2-0.1s2.3-0.1,5.2-0.1S22.8,43.5,22.8,43.6z"/>
		<path id="Path_3740" class="st4" d="M104.6,26.1l-0.1-9.9c-3,0.1-5.9,1.2-8.2,3.2c-2.9,2.5-4.4,6.4-3.9,10.2
			c0.1,0.5,0.1,1,0.2,1.4c0,0,0,0,0,0l0,0l11.9-2.7L104.6,26.1z"/>
		<g id="Group_242" transform="translate(92.303 16.178)" class="st5">
			<path id="Path_3741" class="st6" d="M12.2,9.9L12.2,0C9.2,0.1,6.3,1.2,4,3.2C1.1,5.8-0.4,9.6,0.1,13.4c0.1,0.5,0.1,1,0.2,1.4
				c0,0,0,0,0,0l0,0l11.9-2.7L12.2,9.9z"/>
		</g>
		<path id="Path_3742" class="st4" d="M116.8,23c-1.8-3.8-5.4-6.4-9.6-6.7l-0.4,0h-1l0.1,9.9v2.3l11.9,2.6l0,0
			c0.2-0.8,0.3-1.7,0.3-2.6C118,26.6,117.6,24.8,116.8,23z"/>
		<g id="Group_243" transform="translate(105.812 16.283)" class="st5">
			<path id="Path_3743" class="st3" d="M11,6.8C9.2,3,5.6,0.4,1.4,0L1,0H0l0.1,9.9v2.3L12,14.8l0,0c0.2-0.8,0.3-1.7,0.3-2.6
				C12.2,10.4,11.8,8.5,11,6.8z"/>
		</g>
		<path id="Path_3744" class="st2" d="M105.2,29.6l-11.9,2.7c1.5,6.6,8,10.7,14.6,9.2c4.6-1,8.2-4.7,9.2-9.3L105.2,29.6"/>
		<path id="Path_3745" class="st0" d="M151.5,27.9c0,0.1-6.2,0.2-13.7,0.2S124,27.9,124,27.9s6.2-0.2,13.7-0.2
			S151.5,27.8,151.5,27.9z"/>
		<path id="Path_3746" class="st0" d="M151.5,24.7c0,0.1-6.2,0.2-13.7,0.2S124,24.8,124,24.7s6.2-0.2,13.7-0.2
			S151.5,24.6,151.5,24.7z"/>
		<path id="Path_3747" class="st0" d="M151.5,21.6c0,0.1-6.2,0.2-13.7,0.2S124,21.7,124,21.6s6.2-0.2,13.7-0.2
			S151.5,21.5,151.5,21.6z"/>
		<path id="Path_3748" class="st0" d="M151.5,30.8c0,0.1-6.2,0.2-13.7,0.2S124,30.9,124,30.8s6.2-0.2,13.7-0.2
			S151.5,30.7,151.5,30.8z"/>
		<path id="Path_3749" class="st0" d="M143,33.9c0,0.1-4.2,0.2-9.4,0.2s-9.4-0.1-9.4-0.2s4.2-0.2,9.4-0.2S143,33.9,143,33.9z"/>
		<rect id="Rectangle_468" x="95.2" y="56.6" class="st4" width="2.8" height="31.6"/>
		<rect id="Rectangle_469" x="100.7" y="67.3" class="st4" width="2.8" height="20.9"/>
		<rect id="Rectangle_470" x="106.1" y="60.5" class="st4" width="2.8" height="27.8"/>
		<rect id="Rectangle_471" x="111.6" y="57.8" class="st4" width="2.8" height="30.4"/>
		<rect id="Rectangle_472" x="117.1" y="68" class="st4" width="2.8" height="20.2"/>
		<rect id="Rectangle_473" x="122.5" y="72" class="st4" width="2.8" height="16.3"/>
		<rect id="Rectangle_474" x="128" y="59.9" class="st4" width="2.8" height="28.4"/>
		<rect id="Rectangle_475" x="133.5" y="65" class="st4" width="2.8" height="23.2"/>
		<rect id="Rectangle_476" x="138.9" y="60.9" class="st4" width="2.8" height="27.3"/>
		<rect id="Rectangle_477" x="144.4" y="69.6" class="st4" width="2.8" height="18.6"/>
		<rect id="Rectangle_478" x="149.8" y="66" class="st4" width="2.8" height="22.2"/>
		<path id="Path_3750" class="st0" d="M153.8,90.4c0,0.1-13.4,0.1-30,0.1s-30-0.1-30-0.1s13.4-0.1,30-0.1S153.8,90.4,153.8,90.4z"/>
		<path id="Path_3751" class="st0" d="M99.2,92.9c-1.4,0.2-2.8,0.2-4.2,0C96.4,92.8,97.8,92.8,99.2,92.9z"/>
		<path id="Path_3752" class="st0" d="M106.2,93c-1.7,0.2-3.3,0.2-5,0C102.9,92.9,104.5,92.9,106.2,93z"/>
		<path id="Path_3753" class="st0" d="M112.2,93c-1.7,0.2-3.3,0.2-5,0C108.8,92.9,110.5,92.9,112.2,93z"/>
		<path id="Path_3754" class="st0" d="M118.1,93c-1.7,0.2-3.3,0.2-5,0C114.7,92.9,116.4,92.9,118.1,93z"/>
		<path id="Path_3755" class="st0" d="M124,93c-1.7,0.2-3.4,0.2-5,0C120.7,92.9,122.4,92.9,124,93z"/>
		<path id="Path_3756" class="st0" d="M130,93c-1.7,0.2-3.3,0.2-5,0C126.6,92.9,128.3,92.9,130,93z"/>
		<path id="Path_3757" class="st0" d="M135.9,93c-1.7,0.2-3.3,0.2-5,0C132.6,92.9,134.3,92.9,135.9,93z"/>
		<path id="Path_3758" class="st0" d="M141.9,93c-1.7,0.2-3.3,0.2-5,0C138.5,92.9,140.2,92.9,141.9,93z"/>
		<path id="Path_3759" class="st0" d="M147.8,93c-1.7,0.2-3.3,0.2-5,0C144.5,92.9,146.1,92.9,147.8,93z"/>
		<path id="Path_3760" class="st0" d="M153.7,93c-1.7,0.2-3.3,0.2-5,0C150.4,92.9,152.1,92.9,153.7,93z"/>
		<g id="Group_244" transform="translate(100.669 67.342)" class="st5">
			<rect id="Rectangle_479" x="0" y="0" class="st7" width="2.8" height="20.9"/>
		</g>
		<g id="Group_245" transform="translate(111.599 57.829)" class="st5">
			<rect id="Rectangle_480" x="0" y="0" class="st8" width="2.8" height="30.4"/>
		</g>
		<g id="Group_246" transform="translate(122.522 71.953)" class="st5">
			<rect id="Rectangle_481" x="0" y="0" class="st8" width="2.8" height="16.3"/>
		</g>
		<g id="Group_247" transform="translate(133.452 64.965)" class="st5">
			<rect id="Rectangle_482" x="0" y="0" class="st8" width="2.8" height="23.2"/>
		</g>
		<g id="Group_248" transform="translate(144.382 69.595)" class="st5">
			<rect id="Rectangle_483" x="0" y="0" class="st8" width="2.8" height="18.6"/>
		</g>
		<circle id="Ellipse_82" class="st4" cx="17.4" cy="20.4" r="2.7"/>
		<path id="Path_3761" class="st4" d="M67,18.3c0,0.1-9.2,0.2-20.5,0.2s-20.5-0.1-20.5-0.2s9.2-0.2,20.5-0.2S67,18.2,67,18.3z"/>
		<path id="Path_3762" class="st4" d="M42.4,21.6c-0.2,0-0.4,0.1-0.6,0.1L40,21.7c-1.5,0-3.5,0-5.7,0s-4.3,0-5.7,0l-1.7-0.1
			c-0.2,0-0.4,0-0.6-0.1c0.2,0,0.4-0.1,0.6-0.1c0.4,0,1,0,1.7-0.1c1.5,0,3.5-0.1,5.7-0.1s4.3,0,5.7,0.1c0.6,0,1.2,0,1.7,0.1
			C42,21.5,42.2,21.5,42.4,21.6z"/>
	</g>
	<g id="freepik--character-2--inject-250" transform="translate(250.874 130.952)">
		<path id="Path_3763" class="st9" d="M56.7,47.1c-0.2-1-0.2-2.1,0.1-3.1c0.2-1.1,0.6-2,1.3-2.9c0.1,0.1-0.6,1.2-1,2.9
			S56.8,47.1,56.7,47.1z"/>
		<path id="Path_3764" class="st10" d="M58.2,41L41,21.7c-0.7-0.4-1.2-1.1-1.4-1.9c-0.1-0.6,0-1.2,0.1-1.9c0.2-0.7,0.4-1.5,0.8-2.1
			c0.2-0.3,0.2-0.7-0.1-1c-0.2-0.1-0.4-0.2-0.6-0.1c-1.3,0.9-2.2,2.4-2.4,4.1c-0.2,0.5-0.7,0.8-1.2,0.6c0,0-0.1,0-0.1,0
			c-1.5-0.5-6.5-2.6-7.4-2.8c-0.8-0.2-1.8-0.2-1.2,0.4c1.1,0.9,2.3,1.7,3.5,2.4c-1.3-0.8-4.2-2.5-4.5-1.9c-0.2,0.3,0.2,0.9,1.4,1.8
			c-0.6-0.4-1.2-0.7-1.9-0.8c-1.5,0.2,3.2,3.2,3.2,3.2c-3.3-2.1-3.2-2.2-3.5-1.9c-0.3,0.3,0.3,1,1.9,2.4c1.3,1.1,7.9,6.9,7.9,6.9
			l13.2,21.7c2.1,3.1,5.6,5,9.3,5.2l27-0.6l3-15.1L58.2,41z"/>
		<path id="Path_3765" class="st9" d="M31.1,22.9c-0.8-0.3-1.6-0.8-2.3-1.3c-0.8-0.4-1.5-1-2.1-1.6c0.8,0.3,1.6,0.8,2.3,1.3
			C29.7,21.7,30.5,22.2,31.1,22.9z"/>
		<path id="Path_3766" class="st9" d="M32,21.7c-0.9-0.3-1.8-0.7-2.6-1.3c-0.9-0.4-1.7-1-2.4-1.6c0.9,0.3,1.8,0.7,2.6,1.3
			C30.5,20.5,31.3,21,32,21.7z"/>
		<path id="Path_3767" class="st9" d="M33,20.4c-0.9-0.3-1.7-0.7-2.5-1.2c-0.8-0.4-1.6-0.9-2.3-1.5c0.9,0.3,1.7,0.7,2.5,1.2
			C31.6,19.3,32.3,19.8,33,20.4z"/>
		<path id="Path_3768" class="st4" d="M16.2,154.5l-3.5,10.6c0,0-12,0-12.8,2l20.3,7.4l6.1-16.3L16.2,154.5z"/>
		<path id="Path_3769" class="st11" d="M19.4,166.5c0.4,0.3,0.5,0.8,0.2,1.2c-0.3,0.4-0.8,0.5-1.2,0.2c-0.4-0.3-0.5-0.8-0.2-1.2
			C18.6,166.3,19.1,166.2,19.4,166.5"/>
		<path id="Path_3770" class="st11" d="M20.4,174.5l0.6-1.6l-19.8-6.6c0,0-1.1,0.1-1.2,0.7L20.4,174.5z"/>
		<path id="Path_3771" class="st0" d="M12.5,164.9c0,0.1,0.4,0.3,0.8,0.8s0.5,1,0.6,1s0.2-0.6-0.3-1.2S12.5,164.8,12.5,164.9z"/>
		<path id="Path_3772" class="st0" d="M10,165c-0.1,0.1,0.3,0.4,0.5,1s0.1,1,0.2,1.1s0.4-0.5,0.1-1.2S10.1,164.9,10,165z"/>
		<path id="Path_3773" class="st0" d="M7.9,167.1c0.1,0.1,0.4-0.4,0.3-1s-0.4-1-0.5-1s0.1,0.5,0.1,1S7.8,167,7.9,167.1z"/>
		<path id="Path_3774" class="st0" d="M13.6,162.5c0,0.1,0.5,0.1,1.1,0.4s0.9,0.6,1,0.5s-0.2-0.6-0.9-0.9S13.5,162.5,13.6,162.5z"/>
		<path id="Path_3775" class="st0" d="M14.3,160.4c0.3,0.2,0.7,0.3,1,0.4c0.4,0.1,0.8,0.1,1.2,0.1c0.2,0,0.5,0,0.7-0.1
			c0.1,0,0.3-0.1,0.4-0.1c0.2-0.1,0.3-0.3,0.2-0.5c0-0.2-0.2-0.3-0.4-0.4c-0.1,0-0.3-0.1-0.4-0.1c-0.2,0-0.5,0-0.7,0
			c-0.4,0-0.8,0.1-1.2,0.3c-0.6,0.3-0.9,0.6-0.9,0.6s0.4-0.2,1-0.4c0.4-0.1,0.7-0.2,1.1-0.2c0.2,0,0.4,0,0.6,0
			c0.2,0,0.4,0.1,0.4,0.2s0,0.1-0.1,0.1c-0.1,0-0.2,0.1-0.3,0.1c-0.2,0-0.4,0.1-0.6,0.1c-0.4,0-0.8,0-1.1,0
			C15,160.5,14.6,160.4,14.3,160.4z"/>
		<path id="Path_3776" class="st0" d="M14.4,160.6c0.3-0.2,0.5-0.5,0.6-0.9c0.2-0.6,0.3-1.2,0.2-1.9c0-0.3-0.2-0.6-0.5-0.7
			c-0.2-0.1-0.4,0-0.5,0.1c-0.1,0.1-0.2,0.2-0.2,0.3c-0.3,0.6-0.4,1.3-0.2,1.9c0.2,0.7,0.6,0.9,0.6,0.9c-0.1-0.3-0.3-0.6-0.3-1
			c-0.1-0.4-0.1-0.7,0-1.1c0-0.2,0.1-0.4,0.2-0.6c0.1-0.2,0.3-0.4,0.3-0.3c0.1,0.1,0.2,0.3,0.2,0.5c0,0.2,0,0.4,0,0.6
			c0,0.4-0.1,0.7-0.2,1.1C14.6,160.2,14.3,160.6,14.4,160.6z"/>
		<path id="Path_3777" class="st0" d="M72.1,83.2c-4.2-1.4-21-6.6-33.3-9.6c-4.8-1.1-9.8-0.1-13.9,2.7l0,0
			c-5.2,3.5-7.8,9.8-6.5,15.9l5,31l17.3-1.4L38,92l29.5,9l26.4-7.6l-0.1-1.3L72.1,83.2"/>
		<path id="Path_3778" class="st0" d="M78.5,88.6l-37.2,8c-5.5,1.2-10,5.1-12,10.4L11,157.5l15.2,4.7L46.7,116l30-3.7
			c7.8-1,15-4.7,20.3-10.6l5.2-5.8L78.5,88.6z"/>
		<path id="Path_3779" class="st12" d="M71.8,90l-0.2,0l-0.5,0.1l-1.8,0.4L62.8,92L53,94.1l-5.8,1.2c-2,0.4-4.1,0.8-6.2,1.4
			c-2,0.5-4,1.3-5.8,2.4c-1.6,1.1-3,2.5-4.1,4.2c-1.7,2.8-3.1,5.9-4,9.1c-0.9,2.7-1.6,4.9-2.2,6.4c-0.3,0.7-0.6,1.3-0.8,1.7
			l-0.2,0.4c0,0-0.1,0.1-0.1,0.1c0-0.1,0-0.1,0.1-0.2l0.2-0.4c0.2-0.4,0.4-0.9,0.7-1.7c0.6-1.5,1.3-3.7,2.1-6.4
			c0.9-3.2,2.2-6.3,4-9.2c1.1-1.7,2.5-3.1,4.1-4.3c1.8-1.1,3.8-2,5.9-2.5c2.1-0.6,4.2-0.9,6.2-1.4l5.8-1.2l9.8-2.1l6.6-1.4l1.8-0.4
			l0.5-0.1C71.6,90,71.7,90,71.8,90z"/>
		<path id="Path_3780" class="st9" d="M102.3,77.3c-0.9,0.5-1.9,0.9-2.8,1.2c-1,0.4-1.9,0.7-3,0.9c0.9-0.5,1.9-0.9,2.8-1.2
			C100.3,77.8,101.3,77.5,102.3,77.3z"/>
		<path id="Path_3781" class="st3" d="M89,38.1l-8.5,34l-9.3,10.8l32.1,13.3l11.5-25.3l9.2-28.1c-1.9-3.3-5.3-5.6-9.1-6.1l-13.2-0.9
			L89,38.1z"/>
		<path id="Path_3782" class="st3" d="M89,38l-22.7,2.2L67.9,58l17.2-1.4l3-14.4L89,38z"/>
		<path id="Path_3783" class="st0" d="M87.2,45.1c0,0.4-0.1,0.7-0.2,1.1c-0.2,0.7-0.4,1.7-0.7,2.9c-0.6,2.4-1.4,5.8-2.3,9.5
			s-1.8,7.1-2.4,9.5l-0.8,2.9c-0.1,0.4-0.2,0.7-0.3,1c0-0.4,0.1-0.7,0.2-1.1c0.2-0.7,0.4-1.7,0.7-2.9c0.6-2.4,1.4-5.8,2.3-9.5
			s1.8-7.1,2.4-9.5l0.8-2.9C86.9,45.8,87,45.5,87.2,45.1L87.2,45.1z"/>
		<path id="Path_3784" class="st0" d="M91,74.3c0,0-0.5-0.4-1.4-0.8c-1.1-0.6-2.4-1-3.7-1.1c-1.3-0.2-2.6-0.2-3.9-0.2
			c-0.5,0-1.1,0-1.6,0c0.5-0.1,1.1-0.2,1.6-0.2c1.3-0.1,2.6-0.1,3.9,0.1c1.3,0.2,2.6,0.6,3.7,1.2C90.2,73.5,90.7,73.9,91,74.3z"/>
		<path id="Path_3785" class="st0" d="M95,39.6c0.1,0.2,0.1,0.4,0.2,0.6c0.2,0.5,0.5,1,0.9,1.4c0.7,0.5,1.5,0.7,2.4,0.5
			c0.5-0.1,1-0.3,1.4-0.5c0.5-0.2,1-0.5,1.5-0.7l5.2-2.6l1.6-0.8c0.2-0.1,0.4-0.2,0.6-0.2c-0.2,0.1-0.4,0.3-0.6,0.4
			c-0.4,0.2-0.9,0.5-1.5,0.9c-1.3,0.7-3.2,1.7-5.2,2.6c-0.5,0.2-1,0.5-1.5,0.7c-0.5,0.2-1,0.4-1.5,0.6c-0.9,0.2-1.9,0-2.6-0.6
			c-0.4-0.4-0.7-1-0.9-1.6C95,40.1,95,39.9,95,39.6L95,39.6z"/>
		<g id="Group_249" transform="translate(80.512 71.355)" class="st5">
			<path id="Path_3786" d="M0,0.7c3.3-0.8,6.8-1,10.2-0.5c0.8,0,1.5,0.3,2.2,0.8c0.6,0.5,0.7,1.4,0.3,2.1c-0.4,0.4-1,0.5-1.5,0.3
				c-0.5-0.2-1.2-1-1.7-1.2C6.8,0.5,3.5,0.4,0.2,0.8"/>
		</g>
		<g id="Group_250" transform="translate(107.411 43.467)" class="st5">
			<path id="Path_3787" d="M0.7,1.4C-2,9,3.5,17.6,8.6,23.9L9.9,20C9.9,20,3.4-6.3,0.7,1.4z"/>
		</g>
		<path id="Path_3788" class="st1" d="M115.3,67.8c-0.3-0.4-0.6-0.8-0.9-1.2c-1-0.9-2.2-1.5-3.6-1.6c-2-0.1-3.9,0.2-5.8,1
			c-2.1,0.8-4.3,2-7,2.3c-2.5,0.3-5-0.2-7.2-1.3c-1.8-0.9-3.4-2.2-4.5-3.9c-0.8-1.1-1.4-2.3-1.8-3.6c-0.1-0.3-0.2-0.7-0.3-1.1
			c0-0.1,0-0.3,0-0.4c0,0,0.1,0.5,0.4,1.4c0.4,1.3,1.1,2.5,1.9,3.5c1.2,1.6,2.7,2.9,4.5,3.8c2.2,1.1,4.6,1.5,7,1.2
			c2.6-0.3,4.8-1.5,6.9-2.2c1.9-0.8,3.9-1.1,5.9-1c1.4,0.2,2.6,0.8,3.6,1.7c0.3,0.3,0.5,0.6,0.7,0.9
			C115.2,67.6,115.3,67.7,115.3,67.8L115.3,67.8z"/>
		<path id="Path_3789" class="st1" d="M86.1,49.5c0-0.1,0-0.2,0.1-0.3c0.1-0.3,0.2-0.5,0.4-0.7c0.7-0.7,1.7-1.1,2.7-1.1
			c1.5,0.2,2.8,0.8,4,1.7c1.3,0.9,2.8,2,4.3,3c1.4,1,3,1.8,4.7,2.3c1.4,0.4,2.8,0.4,4.2,0.1c0.9-0.2,1.8-0.6,2.6-1.2l0.4-0.3
			l0.2-0.2c0.1-0.1,0.1-0.1,0.2-0.2c0,0.1-0.1,0.2-0.2,0.2l-0.2,0.3l-0.3,0.3c-0.8,0.6-1.7,1.1-2.6,1.3c-1.4,0.3-2.9,0.3-4.3-0.1
			c-1.7-0.5-3.3-1.3-4.8-2.3c-1.6-1-3-2.1-4.3-3.1c-1.1-0.9-2.4-1.5-3.8-1.7c-1-0.1-1.9,0.3-2.6,0.9C86.5,48.9,86.3,49.2,86.1,49.5
			L86.1,49.5z"/>
		<path id="Path_3790" class="st1" d="M75.7,57.1c-0.2-0.1-0.4-0.3-0.5-0.5c-0.4-0.6-0.7-1.2-0.9-1.9c-0.3-1-0.3-2.1,0-3.1
			c0.4-1.2,1-2.3,1.6-3.4c0.5-1.1,0.7-2.3,0.6-3.5c-0.1-1-0.4-2-0.9-2.8c-0.5-0.8-1-1.5-1.7-2.2c0.1,0,0.1,0,0.2,0.1
			c0.2,0.1,0.3,0.2,0.4,0.3c0.5,0.5,1,1,1.3,1.6c0.5,0.9,0.8,1.9,1,2.9c0.1,1.3-0.1,2.6-0.6,3.7c-0.6,1.1-1.2,2.2-1.6,3.3
			c-0.3,1-0.3,2,0,2.9C74.7,55.5,75.1,56.4,75.7,57.1z"/>
		<path id="Path_3791" class="st1" d="M87.7,38.4c-0.3,0.7-0.6,1.3-1,1.9c-0.9,1.4-1.7,2.9-2.4,4.4c-0.3,0.8-0.5,1.8-0.5,2.7
			c0,0.7,0.1,1.5,0.4,2.2c0.3,0.6,0.7,1.2,1.2,1.7c-0.2-0.1-0.3-0.2-0.5-0.3c-0.4-0.4-0.7-0.8-0.9-1.2c-0.3-0.7-0.5-1.5-0.5-2.2
			c0-0.9,0.2-1.9,0.5-2.8c0.7-1.6,1.5-3,2.5-4.4C87.2,39.1,87.6,38.4,87.7,38.4z"/>
		<path id="Path_3792" class="st1" d="M90.5,83.5c-0.1,0-0.5-0.7-1.6-1.8c-0.6-0.6-1.3-1.1-2-1.6c-0.9-0.6-1.8-1.1-2.7-1.5
			c-1-0.4-2-0.7-3-0.9c-0.8-0.1-1.7-0.2-2.5-0.2c-1.4,0-2.3,0.2-2.3,0.2c0.2-0.1,0.4-0.1,0.6-0.2c0.2-0.1,0.5-0.1,0.7-0.1
			c0.3-0.1,0.7-0.1,1-0.1c0.9,0,1.7,0,2.6,0.1c1,0.2,2.1,0.5,3.1,0.8c1,0.4,1.9,0.9,2.8,1.5c0.7,0.5,1.4,1.1,1.9,1.7
			c0.2,0.2,0.4,0.5,0.6,0.8c0.2,0.2,0.3,0.4,0.4,0.6C90.3,83.1,90.4,83.3,90.5,83.5L90.5,83.5z"/>
		<path id="Path_3793" class="st12" d="M79.5,118.9l-0.6,47.7l-19.7,7.5l45.1-0.2l-19.9-7.6l-0.2-47.5L79.5,118.9z"/>
		<path id="Path_3794" class="st12" d="M65.2,115.1c5.6,2.2,11.5,4.2,17.5,4.4s12.4-1.6,16.6-6c3.3-3.5,4.8-8.3,6.3-13l3.1-10
			c0.9-2.8,2.2-6,0.6-7.5c-2.2-2.1-8.2-2.9-10.4-0.8c-3.3,3.1-3.5,4.4-5,7c-3.5,6.1-6.5,11.7-13,14.2c-3.1,1.2-6.7,1.3-9.8,2.5
			S64.7,111.7,65.2,115.1"/>
		<path id="Path_3795" class="st10" d="M108.8,37.4L99,42.2c-1.4,0.6-3,0-3.6-1.4c-0.2-0.4-0.3-0.9-0.2-1.3l0.7-8
			c0,0-5.3-0.8-5.4-6.1s0.7-17.5,0.7-17.5l0,0c6.1-2.7,13.2-1.8,18.6,2.2l0.8,0.6L108.8,37.4z"/>
		<path id="Path_3796" class="st9" d="M95.8,31.5c2.5,0,4.9-0.7,6.9-2c0,0-1.6,3.8-6.9,3.4L95.8,31.5z"/>
		<path id="Path_3797" class="st10" d="M109.9,16.2c0.1,0,3.6-1.1,3.6,2.5s-3.7,2.8-3.7,2.7S109.9,16.2,109.9,16.2z"/>
		<path id="Path_3798" class="st9" d="M110.9,20.1c0.1,0,0.1,0.1,0.2,0.1c0.2,0.1,0.3,0.1,0.5,0c0.5-0.3,0.8-0.8,0.8-1.4
			c0-0.3,0-0.6-0.2-0.9c-0.1-0.2-0.2-0.4-0.5-0.5c-0.1,0-0.3,0-0.4,0.2c0,0.1,0,0.2,0,0.2s-0.1-0.1,0-0.2c0-0.1,0.1-0.2,0.1-0.2
			c0.1-0.1,0.2-0.1,0.4-0.1c0.3,0.1,0.5,0.3,0.6,0.6c0.2,0.3,0.2,0.7,0.2,1c0,0.7-0.4,1.3-1,1.5c-0.2,0.1-0.4,0-0.6-0.1
			C110.9,20.2,110.9,20.1,110.9,20.1z"/>
		<path id="Path_3799" class="st0" d="M92.4,16c0,0.4,0.3,0.7,0.7,0.8c0.4,0,0.7-0.3,0.8-0.7c0,0,0,0,0,0c0-0.4-0.3-0.7-0.7-0.8
			C92.8,15.3,92.4,15.6,92.4,16C92.4,16,92.4,16,92.4,16L92.4,16z"/>
		<path id="Path_3800" class="st0" d="M92.2,15.4c0.1,0.1,0.7-0.3,1.5-0.3s1.4,0.4,1.5,0.3s-0.1-0.2-0.3-0.4
			c-0.4-0.2-0.8-0.4-1.2-0.4c-0.4,0-0.8,0.1-1.2,0.4C92.3,15.2,92.2,15.4,92.2,15.4z"/>
		<path id="Path_3801" class="st0" d="M100.4,16.1c0,0.4,0.3,0.7,0.7,0.8c0.4,0,0.7-0.3,0.8-0.7c0,0,0,0,0,0c0-0.4-0.3-0.7-0.7-0.8
			C100.8,15.4,100.4,15.7,100.4,16.1C100.4,16.1,100.4,16.1,100.4,16.1L100.4,16.1z"/>
		<path id="Path_3802" class="st0" d="M100.2,15.5c0.1,0.1,0.7-0.3,1.5-0.3s1.4,0.4,1.5,0.3s0-0.2-0.3-0.4c-0.4-0.2-0.8-0.4-1.2-0.4
			c-0.4,0-0.8,0.1-1.2,0.4C100.3,15.3,100.2,15.5,100.2,15.5z"/>
		<path id="Path_3803" class="st0" d="M97.3,21.6c-0.4-0.1-0.9-0.2-1.3-0.2c-0.2,0-0.4-0.1-0.4-0.2c0-0.2,0-0.4,0.1-0.6l0.6-1.6
			c0.6-1.4,1-2.7,1.4-4.2c-0.7,1.3-1.2,2.7-1.7,4c-0.2,0.6-0.4,1.1-0.6,1.6c-0.1,0.3-0.2,0.5-0.1,0.8c0.1,0.2,0.2,0.3,0.3,0.3
			c0.1,0,0.2,0,0.4,0C96.4,21.6,96.9,21.6,97.3,21.6z"/>
		<path id="Path_3804" class="st0" d="M99.7,22.1c-0.1,0-0.1,0.9-0.9,1.5s-1.7,0.5-1.7,0.7s0.2,0.2,0.6,0.2c0.5,0,1-0.2,1.4-0.5
			c0.4-0.3,0.6-0.8,0.7-1.3C99.9,22.3,99.8,22.1,99.7,22.1z"/>
		<path id="Path_3805" class="st0" d="M100,12.3c0.1,0.2,0.9,0.1,1.9,0.2s1.7,0.4,1.9,0.2c0.1-0.1-0.1-0.3-0.4-0.5
			c-0.8-0.5-1.9-0.6-2.8-0.3C100.1,12,100,12.2,100,12.3z"/>
		<path id="Path_3806" class="st0" d="M92.5,13c0.1,0.2,0.7,0,1.4,0s1.2,0.1,1.4-0.1c0.1-0.1,0-0.3-0.3-0.5
			c-0.7-0.4-1.6-0.4-2.2,0.1C92.5,12.8,92.4,13,92.5,13z"/>
		<path id="Path_3807" class="st0" d="M88.6,4.6c-0.1-0.7,0.2-1.3,0.7-1.8c0.6-0.4,1.3-0.4,1.8,0.1c-0.2-0.9,0.3-1.7,1.2-1.9
			c0.1,0,0.1,0,0.2,0c0.9-0.1,1.6,0.6,2.5,0.8c0.8,0.2,1.7,0.1,2.5-0.3c0.8-0.3,1.5-0.8,2.3-1.1c3.5-1.3,7.4,0.4,8.7,3.9
			c1.2-0.3,2.5,0.2,3.2,1.2c0.7,1,1,2.3,0.8,3.5c-0.1,0.8-0.3,1.6-0.6,2.4v0.2c0,2.9-0.4,6.4-1.6,6.4c-2.2,0.1-1.7-4.1-1.7-4.1
			c-2.7-1-1.7-5-2.4-5.6s-2.1-2-7.6,0.9c-2.1,0.9-4.4,1.2-6.6,0.8h-0.2c-0.5-0.1-1-0.3-1.4-0.6c-0.5-0.3-0.9-0.8-1.2-1.3
			c-0.2-0.6-0.1-1.2,0.3-1.7C88.9,5.9,88.6,5.3,88.6,4.6z"/>
		<path id="Path_3808" class="st10" d="M111.3,51.9l8.9,18.9L106,76.9l-2.8-0.9c-2.3-0.7-4.8-0.2-6.6,1.4l-4.4,3.9h40.8
			c1.9-5.3,1.9-11.1,0.1-16.5l-7-17.7c-2-4.8-7.2-8.7-11.9-6.6l0,0C109.6,42.6,109.2,47.2,111.3,51.9z"/>
		<path id="Path_3809" class="st3" d="M110.5,52.9c2.6,4.5,6.8,11.4,6.8,11.4l15.2-6.3c0,0-6.6-12.5-8.7-15.6
			c-0.9-1.3-2.8-3.9-8.3-4.6c-0.6,0.1-1.2,0.3-1.7,0.4c-2.6,0.8-4.6,3-5.1,5.7l-0.1,0.7C108.3,47.5,109,50.4,110.5,52.9z"/>
		<path id="Path_3810" class="st0" d="M117.3,64.3c-0.2-0.3-0.4-0.6-0.6-0.9l-1.6-2.5c-0.7-1.1-1.5-2.4-2.4-3.8s-1.9-3-2.8-4.7
			c-0.4-0.8-0.8-1.7-1.1-2.6c-0.2-0.8-0.4-1.7-0.5-2.6c-0.1-1.5,0-3,0.3-4.4c0.2-1,0.7-1.9,1.4-2.7l0.3-0.3l0.3-0.2
			c0.1-0.1,0.2-0.1,0.2-0.2c-0.1,0.1-0.1,0.1-0.2,0.2l-0.3,0.2l-0.3,0.3c-0.6,0.8-1,1.7-1.2,2.6c-0.3,1.4-0.4,2.9-0.2,4.4
			c0.1,0.9,0.2,1.7,0.5,2.5c0.3,0.9,0.6,1.7,1.1,2.6c0.9,1.7,1.9,3.2,2.8,4.7l2.3,3.8c0.6,1.1,1.1,1.9,1.5,2.6
			C117,63.7,117.1,64,117.3,64.3z"/>
		<path id="Path_3811" class="st1" d="M127.1,48c-0.2-0.2-0.4-0.3-0.7-0.4c-0.6-0.3-1.3-0.6-2-0.6c-1-0.1-2.1,0.1-3.1,0.4
			c-1.2,0.5-2.4,1-3.5,1.6c-1.1,0.7-2.3,1.1-3.6,1.5c-1.1,0.2-2.2,0.2-3.2-0.1c-0.7-0.2-1.3-0.6-1.9-1.1c-0.1-0.1-0.3-0.3-0.4-0.5
			c-0.1-0.1-0.1-0.2-0.1-0.2s0.2,0.2,0.5,0.6c0.5,0.5,1.2,0.8,1.9,0.9c1,0.2,2.1,0.2,3.1,0c1.2-0.3,2.4-0.8,3.5-1.5
			c1.1-0.6,2.3-1.2,3.5-1.6c1-0.3,2.1-0.5,3.2-0.3c0.7,0.1,1.4,0.3,2,0.7c0.2,0.1,0.3,0.2,0.4,0.4C127.1,47.9,127.1,48,127.1,48z"/>
		<path id="Path_3812" class="st1" d="M124.4,61.3c0,0-0.4-0.4-1.2-1c-0.4-0.3-0.9-0.6-1.4-0.9c-1.2-0.6-2.6-0.9-4-0.9
			c-0.6,0-1.1,0.1-1.7,0.2c-0.9,0.2-1.5,0.5-1.5,0.4s0.1-0.1,0.4-0.2c0.4-0.2,0.7-0.3,1.1-0.4c0.6-0.1,1.1-0.2,1.7-0.3
			c0.7,0,1.4,0,2.1,0.2c0.7,0.2,1.4,0.4,2,0.7c0.5,0.3,1,0.6,1.4,1c0.3,0.2,0.6,0.5,0.8,0.8C124.3,61.2,124.4,61.3,124.4,61.3z"/>
		<path id="Path_3813" class="st9" d="M129.9,75.1c0,0-0.3-0.6-1-1.4c-1.8-2.2-4.5-3.4-7.3-3.1c-1.1,0.1-1.7,0.3-1.7,0.3
			c0.1-0.1,0.3-0.2,0.4-0.2c0.4-0.1,0.8-0.2,1.2-0.3c1.4-0.2,2.9,0,4.2,0.6c1.3,0.6,2.5,1.5,3.3,2.6c0.3,0.3,0.5,0.7,0.7,1.1
			C129.8,74.8,129.8,75,129.9,75.1L129.9,75.1z"/>
	</g>
	<g id="freepik--character-1--inject-250" transform="translate(58.5 69.819)">
		<path id="Path_3814" class="st4" d="M10,213.3l-3.6,14.5l-6.2,10.6c-0.4,0.7-0.2,1.7,0.5,2.1c0,0,0.1,0,0.1,0l0,0
			c0.4,0.2,1,0.2,1.4,0c2.8-1.5,13-7.1,13.2-8.1c0.2-1.2,4.9-15,4.9-15L10,213.3z"/>
		<path id="Path_3815" class="st13" d="M0.9,240.5l14.9-9.1l-0.2,0.6c-0.1,0.5-0.5,1-0.9,1.3c-1.2,0.8-4.6,3-12.3,7.2
			C1.9,240.8,1.3,240.8,0.9,240.5L0.9,240.5z"/>
		<g id="Group_251" transform="translate(13.428 225.912)" class="st14">
			<path id="Path_3816" class="st8" d="M0.6,0C0.2,0.2-0.1,0.7,0,1.1c0.2,0.4,0.6,0.7,1.1,0.6C1.6,1.5,1.9,1,1.7,0.5
				C1.5,0.1,1-0.1,0.6,0"/>
		</g>
		<path id="Path_3817" class="st0" d="M5.9,235.2c-0.2-0.5-0.5-1-1-1.5c-0.5-0.4-1-0.6-1.6-0.8c0,0,0.2-0.1,0.6-0.1
			c0.5,0.1,0.9,0.3,1.2,0.6c0.3,0.3,0.6,0.7,0.7,1.2C6,234.9,5.9,235.1,5.9,235.2z"/>
		<path id="Path_3818" class="st0" d="M4.3,236.8c-0.1,0-0.4-0.6-1.1-1s-1.4-0.5-1.3-0.6c0.5-0.2,1.1,0,1.5,0.3
			C4.2,236,4.4,236.8,4.3,236.8z"/>
		<path id="Path_3819" class="st0" d="M8.5,233.2c-0.5-0.6-1-1.1-1.6-1.6c-0.6-0.4-1.3-0.8-2-1.1C6.5,230.6,7.9,231.7,8.5,233.2
			L8.5,233.2z"/>
		<path id="Path_3820" class="st0" d="M9.9,228.9c-0.1,0.1-0.8-0.5-1.8-0.8s-1.9-0.3-1.9-0.4c0.7-0.2,1.4-0.2,2,0.1
			C8.9,228,9.5,228.3,9.9,228.9L9.9,228.9z"/>
		<path id="Path_3821" class="st0" d="M11.1,224.7c-0.6-0.4-1.2-0.7-1.9-0.9c-0.7-0.1-1.4-0.1-2,0c0.2-0.1,0.4-0.2,0.6-0.3
			c1-0.2,2.1,0,2.9,0.7C11,224.4,11.2,224.7,11.1,224.7z"/>
		<path id="Path_3822" class="st0" d="M9.5,223c0-0.2,0-0.4,0.1-0.6c0.2-0.5,0.5-0.9,0.8-1.3c0.2-0.3,0.6-0.5,0.9-0.6
			c0.3,0,0.5,0.1,0.6,0.3c0.1,0.2,0.1,0.5,0.1,0.7c-0.3,1-1.3,1.6-2.4,1.4c-1-0.2-1.8-0.9-2-1.9c-0.1-0.2,0-0.5,0.2-0.7
			c0.2-0.2,0.5-0.2,0.7-0.1c0.3,0.2,0.6,0.4,0.8,0.8c0.3,0.4,0.5,0.9,0.7,1.4c0.1,0.2,0.1,0.4,0.1,0.6c-0.2-0.6-0.5-1.3-0.9-1.8
			c-0.2-0.3-0.4-0.5-0.7-0.6c-0.1-0.1-0.3,0-0.4,0.1C8,220.7,8,220.9,8,221c0.2,0.8,0.9,1.5,1.8,1.6c0.9,0.1,1.7-0.4,2-1.2
			c0.1-0.2,0.1-0.3,0-0.5c-0.1-0.1-0.2-0.2-0.3-0.2c-0.3,0.1-0.6,0.3-0.8,0.5C10.2,221.8,9.8,222.4,9.5,223L9.5,223z"/>
		<path id="Path_3823" class="st4" d="M55.5,217.2l-0.8,11.1c0,0,11.1,4.5,11.1,6.6l-21.7-0.7l0.5-17.4L55.5,217.2z"/>
		<path id="Path_3824" class="st11" d="M48,227.2c-0.4,0.1-0.7,0.5-0.6,1c0.1,0.4,0.5,0.7,1,0.6c0.5-0.1,0.8-0.6,0.7-1.1
			C48.9,227.3,48.4,227.1,48,227.2"/>
		<path id="Path_3825" class="st11" d="M44.2,234.2l0.1-1.8l20.7,1.3c0,0,0.9,0.5,0.8,1.1L44.2,234.2z"/>
		<path id="Path_3826" class="st0" d="M55,228.2c0,0.1-0.5,0.1-1.1,0.5s-0.8,0.8-0.9,0.7s0.1-0.7,0.7-1S55.1,228.1,55,228.2z"/>
		<path id="Path_3827" class="st0" d="M57.3,229.3c0,0.1-0.4,0.3-0.8,0.7s-0.5,0.9-0.6,0.9s-0.2-0.6,0.3-1.1S57.3,229.2,57.3,229.3z
			"/>
		<path id="Path_3828" class="st0" d="M58.5,232c-0.1,0-0.2-0.5,0.1-1.1s0.8-0.8,0.8-0.7s-0.3,0.4-0.5,0.9S58.6,232,58.5,232z"/>
		<path id="Path_3829" class="st0" d="M54.9,225.7c-0.1,0.1-0.5-0.1-1.1,0s-1.1,0.2-1.1,0.1s0.4-0.5,1.1-0.5S55,225.6,54.9,225.7z"
			/>
		<path id="Path_3830" class="st0" d="M55,223.4c-0.4,0.1-0.7,0.1-1.1,0c-0.4-0.1-0.8-0.2-1.1-0.4c-0.2-0.1-0.4-0.2-0.6-0.4
			c-0.1-0.1-0.2-0.2-0.3-0.3c-0.1-0.2-0.2-0.4,0-0.6c0.1-0.1,0.3-0.2,0.5-0.2c0.1,0,0.3,0,0.4,0.1c0.2,0.1,0.5,0.1,0.7,0.3
			c0.4,0.2,0.7,0.4,1,0.7C54.7,222.9,54.9,223.2,55,223.4c0,0.1-0.3-0.2-0.8-0.6c-0.3-0.2-0.6-0.4-1-0.6c-0.2-0.1-0.4-0.2-0.6-0.2
			c-0.2-0.1-0.4-0.1-0.5,0s0,0.1,0,0.1c0.1,0.1,0.1,0.1,0.2,0.2c0.2,0.1,0.4,0.2,0.6,0.3c0.3,0.2,0.7,0.3,1,0.4
			C54.3,223.2,54.7,223.3,55,223.4z"/>
		<path id="Path_3831" class="st0" d="M54.9,223.6c-0.2-0.3-0.3-0.7-0.2-1.1c0-0.4,0.1-0.8,0.2-1.2c0.1-0.2,0.2-0.4,0.3-0.6
			c0.1-0.3,0.4-0.5,0.7-0.5c0.2,0,0.4,0.1,0.4,0.3c0.1,0.1,0.1,0.3,0.1,0.4c0,0.2,0,0.5,0,0.7c-0.1,0.4-0.2,0.8-0.5,1.1
			c-0.4,0.5-0.9,0.7-0.9,0.6c0.3-0.2,0.5-0.5,0.7-0.8c0.2-0.3,0.3-0.6,0.4-1c0-0.2,0-0.4,0-0.6c0-0.2-0.1-0.4-0.2-0.4
			c-0.2,0.1-0.3,0.2-0.4,0.3c-0.1,0.2-0.2,0.4-0.3,0.6c-0.1,0.3-0.2,0.7-0.2,1.1C54.9,223.2,55,223.6,54.9,223.6z"/>
		<path id="Path_3832" class="st0" d="M32.9,15.9c-0.6-1.3-1.1-2.6-1.5-4c-0.4-1.2-0.4-2.4-0.2-3.6c0.4-1.1,1.5-1.9,2.7-1.7
			c0.2-2.1,1.5-4,3.4-4.9c1.8-0.9,3.8-1.5,5.8-1.7c0.7-0.1,1.5,0,2.2,0.2c0.6,0.3,1.1,0.8,1.4,1.4c1.2-0.9,2.8-1.2,4.3-0.8
			c1.6,0.4,3.5,1.2,4.2,2.7c0.5,1.1,0.6,2.4,0.2,3.6c-0.3,1-1.3,2.6-2.3,2.2"/>
		<path id="Path_3833" class="st15" d="M34.4,43.4L49,42.8c0.1-1.5-0.7-11.1-0.7-11.1s5.5-0.9,5.6-6.3S53,7.2,53,7.2l0,0
			c-6.4-2.7-13.7-1.8-19.2,2.4L33,10.2L34.4,43.4z"/>
		<path id="Path_3834" class="st16" d="M48.3,31.6c-2.5,0-5-0.7-7.2-2c0,0,1.7,4,7.2,3.5L48.3,31.6z"/>
		<path id="Path_3835" class="st15" d="M33.6,15.9c-0.1,0-3.8-1.1-3.7,2.6s3.9,2.9,3.9,2.8S33.6,15.9,33.6,15.9z"/>
		<path id="Path_3836" class="st16" d="M32.7,20c-0.1,0-0.1,0.1-0.2,0.1c-0.2,0.1-0.3,0.1-0.5,0c-0.5-0.3-0.8-0.8-0.8-1.4
			c0-0.3,0-0.6,0.2-0.9c0.1-0.2,0.2-0.4,0.5-0.5c0.2,0,0.3,0,0.4,0.2c0.1,0.1,0,0.2,0.1,0.2s0.1-0.1,0-0.2c0-0.1-0.1-0.2-0.2-0.2
			C32.1,17,31.9,17,31.8,17c-0.3,0.1-0.6,0.3-0.7,0.6c-0.1,0.3-0.2,0.7-0.2,1.1c0,0.7,0.4,1.3,1,1.6c0.2,0.1,0.4,0,0.6-0.1
			C32.7,20,32.7,20,32.7,20z"/>
		<path id="Path_3837" class="st0" d="M51.8,15.8c0,0.4-0.3,0.8-0.8,0.8c-0.4,0-0.8-0.3-0.8-0.7c0,0,0,0,0,0c0-0.4,0.3-0.8,0.8-0.8
			C51.4,15.1,51.7,15.4,51.8,15.8C51.8,15.8,51.8,15.8,51.8,15.8z"/>
		<path id="Path_3838" class="st0" d="M51.9,14.9c-0.1,0.1-0.7-0.3-1.5-0.3s-1.5,0.4-1.6,0.3s0.1-0.2,0.3-0.4
			c0.4-0.2,0.8-0.4,1.2-0.4c0.4,0,0.9,0.1,1.2,0.4C51.9,14.7,52,14.9,51.9,14.9z"/>
		<path id="Path_3839" class="st0" d="M43.5,16c0,0.4-0.3,0.8-0.8,0.8c-0.4,0-0.8-0.3-0.8-0.7c0,0,0,0,0,0c0-0.4,0.3-0.8,0.8-0.8
			C43.1,15.3,43.4,15.6,43.5,16C43.5,16,43.5,16,43.5,16z"/>
		<path id="Path_3840" class="st0" d="M43.6,15.1c-0.1,0.1-0.7-0.3-1.5-0.3s-1.5,0.4-1.6,0.3s0.1-0.2,0.3-0.4
			c0.4-0.3,0.8-0.4,1.2-0.4c0.4,0,0.9,0.1,1.2,0.4C43.6,14.9,43.7,15,43.6,15.1z"/>
		<path id="Path_3841" class="st0" d="M46.7,21.4c0.4-0.1,0.9-0.2,1.4-0.2c0.2,0,0.4-0.1,0.5-0.2c0-0.2,0-0.4-0.1-0.6
			c-0.2-0.5-0.4-1.1-0.6-1.6c-0.6-1.4-1.1-2.8-1.4-4.3c0.7,1.3,1.3,2.7,1.8,4.2l0.6,1.7c0.1,0.3,0.2,0.6,0.1,0.8
			c-0.1,0.2-0.2,0.3-0.4,0.3c-0.1,0-0.2,0-0.4,0.1C47.6,21.4,47.2,21.4,46.7,21.4z"/>
		<path id="Path_3842" class="st0" d="M44.2,21.9c0.1,0,0.1,0.9,0.9,1.6s1.8,0.6,1.8,0.7s-0.2,0.2-0.6,0.2c-0.5,0-1.1-0.2-1.5-0.5
			c-0.4-0.3-0.7-0.8-0.7-1.3C44,22.2,44.1,21.9,44.2,21.9z"/>
		<path id="Path_3843" class="st0" d="M43.8,11.8c-0.1,0.2-0.9,0.1-1.9,0.2s-1.8,0.4-1.9,0.2c-0.1-0.1,0.1-0.3,0.4-0.5
			c0.9-0.5,2-0.7,2.9-0.3C43.7,11.5,43.9,11.7,43.8,11.8z"/>
		<path id="Path_3844" class="st0" d="M51.6,12.5c-0.1,0.2-0.7,0-1.4,0s-1.3,0.1-1.4-0.1c-0.1-0.1,0-0.3,0.3-0.5
			c0.7-0.4,1.6-0.4,2.3,0.1C51.6,12.2,51.7,12.4,51.6,12.5z"/>
		<path id="Path_3845" class="st0" d="M32.7,10c0.1,1.6-0.3,3.4,0,5c0,0.2,0.7,0.9,0.7,1.1c0.3,1.4,0.9,2,1.7,0.6
			c0.3-0.9,0.5-1.8,0.6-2.7c0.3-1.7,0.7-3.4,1-5.1c1.3,0.7,2.7,1,4.2,1c1.5,0,2.9-0.8,3.6-2.1c1.3,2.1,4,2.8,6.1,1.5
			c0.3-0.2,0.6-0.4,0.8-0.6c0.6,0.8,1.6,1,2.4,0.5c0.8-0.5,1.2-1.5,0.9-2.4c-0.4-1.3-1.8-2.1-3.1-2.5c-5.2-1.5-11-0.3-15.7,2.4
			c-0.7,0.4-1.3,0.9-1.9,1.4c-0.5,0.6-1.3,1.3-1.3,2.1"/>
		<path id="Path_3846" class="st12" d="M36.6,10.1c-0.3,0-0.6,0.1-0.8,0.2c-0.3,0.1-0.5,0.3-0.8,0.5c-0.3,0.2-0.5,0.6-0.8,0.9
			c-0.3,0.3-0.7,0.6-1.1,0.7c-0.3,0.1-0.7,0.1-1,0c-0.6-0.1-0.8-0.5-0.8-0.5c0.3,0.1,0.6,0.2,0.8,0.3c0.3,0,0.6,0,0.9-0.1
			c0.3-0.1,0.7-0.4,0.9-0.6c0.3-0.3,0.6-0.6,0.9-0.9c0.3-0.2,0.6-0.4,0.9-0.5C36.3,9.9,36.6,10.1,36.6,10.1z"/>
		<path id="Path_3847" class="st12" d="M36,11.8c-0.2,0-0.4,0.1-0.6,0.3c-0.2,0.2-0.3,0.4-0.5,0.6c-0.2,0.3-0.4,0.5-0.7,0.7
			c-0.5,0.3-1.1,0.5-1.7,0.4c-0.5-0.1-0.7-0.2-0.7-0.2c0.2,0,0.5,0,0.7,0c0.5,0,1.1-0.2,1.5-0.5c0.5-0.3,0.8-0.9,1.2-1.2
			S36,11.8,36,11.8z"/>
		<path id="Path_3848" class="st12" d="M50.2,0.8c0.2,0,0.3,0,0.5,0c0.4,0.1,0.8,0.4,1.1,0.8c0.8,1.3,0.9,2.8,0.4,4.2
			c-0.4,1.4-1.4,2.6-2.6,3.4c-0.4,0.2-0.8,0.4-1.2,0.5c-0.1,0.1-0.3,0.1-0.5,0.1c0.5-0.2,1-0.5,1.5-0.8c1.2-0.8,2-1.9,2.4-3.3
			c0.5-1.3,0.4-2.8-0.3-4c-0.2-0.3-0.5-0.6-0.9-0.8C50.6,0.8,50.4,0.8,50.2,0.8z"/>
		<path id="Path_3849" class="st12" d="M54.8,2.9c0.1,0.3,0.1,0.7,0,1.1c-0.1,0.8-0.5,1.7-0.9,2.4c-0.5,0.7-1.1,1.4-1.8,1.9
			c-0.3,0.2-0.6,0.4-0.9,0.5C52.1,8,53,7.2,53.6,6.2C54.2,5.2,54.6,4.1,54.8,2.9L54.8,2.9z"/>
		<path id="Path_3850" class="st0" d="M61.1,94.8l-3.5,129.7L40.5,224l1.3-111.3L20.1,227.1l-15.4-4l19.9-128L61.1,94.8z"/>
		<path id="Path_3851" class="st15" d="M113.7,39.2l0.8-0.3c0,0,7,1.1,6.6-0.2c-0.5-1.7-6.8-2.2-7.4-2.2c-1,0.1-6.6,1.6-7.4,2.2
			s-4.9,6.1-4.9,6.1l7.1,5.5c0,0,1.7-0.1,3.6-2.3c1-1.1,2.4-3,2.4-3s-0.1-0.5,0-0.7c0.4-0.6,0-0.9,0-0.9c0.4-0.2,0.7-0.6,0.7-1
			c0-0.2-0.1-0.5-0.2-0.6c-0.4-0.3-0.6-0.2-0.6-0.2c0.5-0.2,0.8-0.7,0.9-1.2c0.1-0.8-1.1-1-1.1-1"/>
		<path id="Path_3852" class="st16" d="M121.1,39.1c-0.5,0.2-0.9,0.4-1.5,0.4c-0.5,0.1-1.1,0.1-1.6,0c-0.6-0.1-1.2-0.2-2-0.3
			l-1.5-0.2h0.1c-1.1,0.4-2.3,0.8-3.5,1c1.1-0.5,2.2-1,3.3-1.4h0.1l1.5,0.2l1.9,0.3c0.5,0.1,1.1,0.1,1.6,0
			C120.5,39.2,121.1,39,121.1,39.1z"/>
		<path id="Path_3853" class="st15" d="M113.3,39.7l-1.9,2.1c-0.2,0.2-0.4,0.5-0.6,0.8c-0.1,0.3-0.1,0.7,0.2,0.9
			c0.2,0.2,0.5,0.2,0.7,0.1c0.2-0.1,0.5-0.2,0.7-0.4c0.8-0.6,1.6-1.2,2.3-1.9"/>
		<path id="Path_3854" class="st16" d="M114.9,41.1c-0.3,0.4-0.6,0.7-1,1.1c-0.4,0.4-0.8,0.7-1.2,1c-0.3,0.2-0.6,0.3-0.9,0.4
			c-0.2,0.1-0.4,0.1-0.6,0.1c-0.2,0-0.4-0.1-0.5-0.3c-0.2-0.3-0.2-0.8,0-1.1c0.2-0.3,0.4-0.5,0.6-0.8c0.4-0.4,0.8-0.8,1.1-1.2
			c0.3-0.4,0.7-0.7,1.1-1c-0.3,0.4-0.6,0.8-0.9,1.1l-1,1.2c-0.2,0.2-0.4,0.5-0.5,0.7c-0.1,0.2-0.1,0.5,0,0.8
			c0.2,0.2,0.5,0.2,0.7,0.1c0.3-0.1,0.5-0.2,0.8-0.4c0.4-0.3,0.8-0.6,1.2-0.9C114.1,41.7,114.5,41.4,114.9,41.1L114.9,41.1z"/>
		<path id="Path_3855" class="st15" d="M114.2,41.9c0,0,0.6-0.8,0.9-0.8c0.4-0.1,0.8,0.1,1,0.5c0.2,0.4,0.1,0.6-0.6,1.6"/>
		<path id="Path_3856" class="st15" d="M114.2,41.9l-1.5,1.8c-0.2,0.2-0.3,0.4-0.5,0.7c-0.1,0.3-0.1,0.6,0.1,0.8
			c0.2,0.1,0.4,0.2,0.6,0.1c0.2-0.1,0.4-0.2,0.6-0.3c0.7-0.5,1.3-1,1.9-1.6"/>
		<path id="Path_3857" class="st16" d="M116.1,42.1c-0.1,0.5-0.3,0.9-0.6,1.2c-0.3,0.4-0.7,0.8-1.1,1.1c-0.2,0.2-0.5,0.4-0.7,0.5
			c-0.3,0.2-0.6,0.3-0.9,0.4c-0.2,0-0.4,0-0.6-0.2c-0.1-0.1-0.2-0.3-0.2-0.5c0-0.3,0.2-0.6,0.4-0.9c0.4-0.4,0.7-0.8,1-1.1
			c0.3-0.4,0.6-0.7,1-0.9c-0.3,0.4-0.5,0.7-0.9,1.1c-0.3,0.3-0.6,0.7-0.9,1.2c-0.2,0.2-0.3,0.4-0.3,0.7c0,0.2,0.1,0.4,0.3,0.4
			c0,0,0.1,0,0.1,0c0.3-0.1,0.6-0.2,0.8-0.3c0.3-0.2,0.5-0.3,0.7-0.5c0.4-0.3,0.7-0.6,1.1-1C115.9,42.5,116.1,42.1,116.1,42.1z"/>
		<path id="Path_3858" class="st15" d="M104,45.7c0.6,0.4,1.3,0.4,1.9,0c0.6-0.3,1-0.9,1.6-1.2c1.6-1.1,4-0.8,5.6-2
			c0.2-0.2,0.4-0.4,0.3-0.7s-0.4-0.3-0.7-0.3l-6.6,0.1"/>
		<path id="Path_3859" class="st16" d="M106.1,41.6c0.2-0.1,0.5-0.1,0.7-0.1c0.5,0,1.1-0.1,1.9-0.1l2.9-0.1h0.8c0.3-0.1,0.7,0,1,0.2
			c0.2,0.2,0.2,0.4,0.1,0.6c-0.1,0.2-0.2,0.3-0.3,0.4c-0.3,0.2-0.5,0.4-0.8,0.5c-1.1,0.4-2.3,0.7-3.4,0.9c-0.5,0.1-0.9,0.3-1.4,0.6
			c-0.4,0.3-0.7,0.6-1,0.8c-0.5,0.5-1.2,0.7-1.9,0.6c-0.2,0-0.5-0.2-0.6-0.4c0.2,0.1,0.4,0.2,0.6,0.2c0.6,0,1.2-0.2,1.7-0.7
			c0.3-0.3,0.6-0.6,1-0.9c0.4-0.3,0.9-0.5,1.4-0.7c1.1-0.2,2.3-0.6,3.4-0.9c0.3-0.1,0.5-0.3,0.8-0.4c0.2-0.2,0.3-0.4,0.2-0.5
			c-0.2-0.1-0.5-0.1-0.7-0.1h-3.7c-0.8,0-1.5,0-1.9,0C106.5,41.8,106.3,41.7,106.1,41.6z"/>
		<path id="Path_3860" class="st15" d="M115,43.8c0,0,0.4-0.6,0.6-0.6c0.3-0.1,0.6,0.1,0.7,0.4c0.2,0.3,0,0.5-0.5,1.2"/>
		<path id="Path_3861" class="st15" d="M115,43.8l-1.1,1.3c-0.1,0.1-0.3,0.3-0.3,0.5c-0.1,0.2,0,0.4,0.1,0.6
			c0.1,0.1,0.3,0.1,0.4,0.1c0.1-0.1,0.3-0.1,0.4-0.2c0.5-0.4,1-0.8,1.4-1.2"/>
		<path id="Path_3862" class="st16" d="M116.4,43.9c-0.1,0.4-0.2,0.7-0.5,0.9c-0.2,0.3-0.5,0.6-0.8,0.8c-0.2,0.1-0.4,0.3-0.5,0.4
			c-0.2,0.2-0.5,0.3-0.7,0.3c-0.2,0-0.3,0-0.5-0.2c-0.1-0.1-0.2-0.3-0.2-0.4c0-0.3,0.1-0.5,0.3-0.7c0.3-0.3,0.6-0.6,0.8-0.8
			c0.4-0.5,0.7-0.7,0.8-0.7c-0.2,0.3-0.4,0.6-0.6,0.8l-0.7,0.9c-0.1,0.1-0.2,0.3-0.2,0.5c0,0.2,0.1,0.3,0.3,0.3
			c0.2,0,0.4-0.1,0.6-0.3c0.2-0.1,0.4-0.2,0.5-0.4c0.3-0.2,0.6-0.5,0.8-0.7C116.2,44.3,116.4,43.9,116.4,43.9z"/>
		<path id="Path_3863" class="st16" d="M110.3,46.9c-0.1-0.5-0.2-1-0.4-1.4c-0.4-0.7-1-1.1-0.9-1.2s0.8,0.2,1.2,1
			C110.5,45.8,110.6,46.4,110.3,46.9z"/>
		<path id="Path_3864" class="st3" d="M61.6,99.7c0,0-1.2-35.1-1.5-40.2c8.7,4.8,22,11,23.5,11.3c2.6,0.5,25.7-20,25.7-20l-8.3-6.5
			L81.9,55.1l-25-14.9l0,0c-1.8-1.3-3.9-2.2-6.1-2.4h-0.2c-0.9-0.1-1.3-0.2-1.9-0.3l0,0c-4,3-10.7,3.2-14.6,0.1l0,0
			c0,0-2.9,0.7-4.7,1c-5.6,1.1-9.5,5.1-10.6,8.8l6.9,16l1.3,15.2L23.6,98L61.6,99.7"/>
		<g id="Group_252" transform="translate(25.533 72.265)" class="st5">
			<path id="Path_3865" d="M0.2,12.9c1.5,1.4,3.6,2,5.6,1.6c1.4-0.3,2.8-1.1,4.2-1c1.6,0.1,2.9,1.2,4.3,1.9c2.7,1.2,5.8,0.8,8.7,0.1
				c1.4-0.2,2.6-0.9,3.5-1.9c0.6-0.9,1-1.9,1.1-2.9c0.3-1.9,0.5-3.9,0.4-5.8c0.1-1.2-0.3-2.5-0.9-3.5c-0.7-0.8-1.6-1.2-2.6-1.3
				c-1-0.1-2,0-3,0.2C13.8,1.5,6.3,4.7,0,9.5"/>
		</g>
		<path id="Path_3866" class="st3" d="M39.6,78.8c0,0-18.2,8.1-20,8.5c-6.1,1.3-13.1-4.4-11.2-11c0.7-2.5,10.5-29.6,10.5-29.6
			l9.3,12.9l-3.9,13.2L34.6,72L39.6,78.8z"/>
		<path id="Path_3867" class="st4" d="M34.4,37.2"/>
		<path id="Path_3868" class="st0" d="M33.7,72c-0.2,0.1-0.5,0.1-0.7,0.1l-2,0.2c-1.7,0.1-4.1,0.3-6.7,0.5h-0.2l0.1-0.2
			c0.2-0.7,0.4-1.3,0.6-2c0.9-3.1,1.8-5.8,2.4-7.8l0.8-2.4c0.1-0.3,0.2-0.6,0.3-0.9c0,0.3-0.1,0.6-0.2,0.9l-0.7,2.4
			c-0.6,2-1.4,4.8-2.3,7.9c-0.2,0.7-0.4,1.4-0.6,2l-0.2-0.2c2.7-0.2,5.1-0.3,6.8-0.4l2-0.1C33.3,72,33.5,72,33.7,72z"/>
		<path id="Path_3869" class="st0" d="M20.5,76.9c0-0.3,0.1-0.6,0.2-0.9c0.3-0.7,0.7-1.3,1.2-1.9c0.5-0.5,1.1-1,1.8-1.3
			c0.3-0.2,0.6-0.2,0.9-0.3C22.7,73.5,21.2,75,20.5,76.9L20.5,76.9z"/>
		<path id="Path_3870" class="st0" d="M37.6,79.8c0,0.1-4,1.8-8.9,3.9s-9,3.6-9,3.5s3.9-1.8,8.9-3.9S37.6,79.7,37.6,79.8z"/>
		<path id="Path_3871" class="st0" d="M61,82.5c0-0.1,0-0.2,0-0.3c0-0.3,0-0.5,0-0.8c0-0.8-0.1-1.8-0.1-3c-0.1-2.6-0.2-6.1-0.5-10
			s-0.5-7.4-0.8-10c-0.1-1.3-0.3-2.3-0.4-3c-0.1-0.4-0.1-0.7-0.2-1.1c0,0.1,0.1,0.2,0.1,0.3c0,0.2,0.1,0.5,0.2,0.8
			c0.1,0.7,0.3,1.7,0.5,3c0.3,2.5,0.6,6.1,0.9,10s0.3,7.4,0.4,10v3.9C61.1,82.3,61,82.4,61,82.5L61,82.5z"/>
		<path id="Path_3872" class="st1" d="M29.4,47.2c0,0.1-0.5,0.3-1.2,0.9c-0.9,0.8-1.6,1.8-1.9,2.9l-0.1,0.3L26,51.1l-0.1-0.2
			c-0.8-1-1.9-1.6-3.1-1.7c-0.5,0-1,0-1.5,0c0.1-0.1,0.3-0.1,0.4-0.2c0.4-0.1,0.8-0.1,1.2-0.1c1.3,0.1,2.6,0.7,3.4,1.7l0.1,0.2
			L26,50.9c0.4-1.2,1.1-2.3,2.1-3C28.4,47.6,28.9,47.3,29.4,47.2z"/>
		<path id="Path_3873" class="st1" d="M41.2,54.7c0,0-0.5,0.3-1.2,0.9c-0.9,0.8-1.6,1.8-1.9,2.9L38,58.8l-0.2-0.3l-0.1-0.2
			c-0.8-1-1.9-1.6-3.1-1.7c-0.5,0-1,0-1.5,0c0.1-0.1,0.3-0.1,0.4-0.2c0.4-0.1,0.8-0.1,1.2-0.1c1.3,0.1,2.5,0.7,3.4,1.7l0.1,0.2
			l-0.3,0.1c0.4-1.2,1.1-2.3,2.1-3C40.2,55,40.7,54.8,41.2,54.7z"/>
		<path id="Path_3874" class="st1" d="M25.3,61.1c0,0.1-0.6,0.1-1.4,0.4c-1.1,0.4-2.1,1.2-2.8,2.1l-0.2,0.3l-0.1-0.3l-0.1-0.2
			c-0.4-1.2-1.3-2.1-2.4-2.7c-0.5-0.2-1-0.4-1.5-0.5c0.1,0,0.3,0,0.4,0c0.4,0,0.8,0.1,1.1,0.3c1.2,0.5,2.2,1.5,2.6,2.8
			c0,0.1,0,0.1,0.1,0.2l-0.3-0.1c0.7-1,1.8-1.8,3-2.1C24.3,61.1,24.8,61.1,25.3,61.1z"/>
		<path id="Path_3875" class="st1" d="M21.4,70.4c0,0.1-0.6,0.1-1.4,0.4c-1.1,0.4-2.1,1.2-2.8,2.1L17,73.3l-0.1-0.3l-0.1-0.2
			c-0.4-1.2-1.3-2.1-2.4-2.6c-0.5-0.2-1-0.4-1.5-0.5c0.1,0,0.3,0,0.4,0c0.4,0,0.8,0.1,1.1,0.3c1.2,0.5,2.2,1.5,2.6,2.8
			c0,0.1,0,0.1,0.1,0.2l-0.3-0.1c0.7-1,1.8-1.8,3-2.1C20.4,70.5,20.9,70.4,21.4,70.4z"/>
		<path id="Path_3876" class="st1" d="M20.7,80c0,0.1-0.6,0.1-1.4,0.4c-1.1,0.4-2.1,1.2-2.8,2.1l-0.2,0.3l-0.1-0.3l-0.1-0.2
			c-0.4-1.2-1.3-2.1-2.4-2.7c-0.5-0.2-1-0.4-1.5-0.5c0.1,0,0.3,0,0.4,0c0.4,0,0.8,0.1,1.1,0.3C15,80,16,81,16.4,82.2l0.1,0.2
			l-0.3-0.1c0.7-1,1.8-1.8,3-2.2C19.6,80,20.1,80,20.7,80z"/>
		<path id="Path_3877" class="st1" d="M47,45.3c0,0.1-0.5,0.3-1.2,0.9c-0.9,0.8-1.6,1.8-1.9,2.9l-0.1,0.3l-0.2-0.3L43.5,49
			c-0.8-1-1.9-1.6-3.1-1.7c-0.5,0-1,0-1.5,0c0.1-0.1,0.3-0.1,0.4-0.2c0.4-0.1,0.8-0.1,1.2-0.1c1.3,0.1,2.5,0.7,3.4,1.7l0.1,0.2
			l-0.3,0.1c0.4-1.2,1.1-2.3,2.1-3C46,45.7,46.5,45.5,47,45.3z"/>
		<path id="Path_3878" class="st1" d="M56.2,42.1c0,0.1-0.6,0.1-1.4,0.3c-1.1,0.4-2.2,1-2.9,1.9l-0.2,0.2l-0.1-0.3
			c0-0.1,0-0.1-0.1-0.2c-0.3-1.2-1.1-2.2-2.2-2.8c-0.5-0.2-0.9-0.4-1.4-0.6c0.1,0,0.3,0,0.4,0c0.4,0.1,0.8,0.2,1.1,0.4
			c1.2,0.6,2.1,1.7,2.4,2.9l0.1,0.2l-0.3-0.1c0.8-1,1.9-1.6,3.1-1.9C55.2,42.1,55.7,42.1,56.2,42.1L56.2,42.1z"/>
		<path id="Path_3879" class="st1" d="M37.1,40.1c0,0.1-0.5,0.3-1.2,0.9C35,41.8,34.3,42.8,34,44l-0.1,0.3L33.7,44l-0.1-0.2
			c-0.8-1-1.9-1.6-3.1-1.7c-0.5,0-1,0-1.5,0c0.1-0.1,0.3-0.1,0.4-0.2c0.4-0.1,0.8-0.1,1.2-0.1c1.3,0.1,2.5,0.7,3.4,1.7l0.1,0.2
			l-0.3,0.1c0.4-1.2,1.1-2.3,2.1-3C36.1,40.5,36.6,40.3,37.1,40.1L37.1,40.1z"/>
		<path id="Path_3880" class="st1" d="M56.5,56.6c0,0-0.5,0.3-1.2,0.9c-0.9,0.8-1.6,1.8-1.9,2.9l-0.1,0.3l-0.2-0.3L53,60.3
			c-0.8-1-1.9-1.6-3.1-1.7c-0.5,0-1,0-1.5,0c0.1-0.1,0.3-0.1,0.4-0.2c0.4-0.1,0.8-0.1,1.2-0.1c1.3,0.1,2.5,0.7,3.4,1.7l0.1,0.2
			l-0.3,0c0.4-1.2,1.1-2.3,2.1-3C55.5,56.9,56,56.7,56.5,56.6L56.5,56.6z"/>
		<path id="Path_3881" class="st1" d="M39.2,81.8c0,0.1-0.5,0.3-1.2,0.9c-0.9,0.8-1.6,1.8-1.9,2.9L36,85.9l-0.2-0.3l-0.1-0.2
			c-0.8-1-1.9-1.6-3.1-1.7c-0.5,0-1,0-1.5,0c0.1-0.1,0.3-0.1,0.4-0.2c0.4-0.1,0.8-0.1,1.2-0.1c1.3,0.1,2.5,0.7,3.4,1.7l0.1,0.2
			l-0.3,0c0.4-1.2,1.1-2.3,2.1-3C38.2,82.2,38.7,81.9,39.2,81.8z"/>
		<path id="Path_3882" class="st1" d="M32.4,75.8c0,0.1-0.5,0.3-1.2,0.9c-0.9,0.8-1.6,1.8-1.9,2.9l-0.1,0.3L29,79.7l-0.1-0.2
			c-0.8-1-1.9-1.6-3.1-1.7c-0.5,0-1,0-1.5,0c0.1-0.1,0.3-0.1,0.4-0.2c0.4-0.1,0.8-0.1,1.2-0.1c1.3,0.1,2.5,0.7,3.4,1.7l0.1,0.2
			L29,79.5c0.4-1.2,1.1-2.3,2.1-3C31.5,76.2,31.9,75.9,32.4,75.8z"/>
		<path id="Path_3883" class="st1" d="M60,78.5c-0.5,0.1-1,0.1-1.5,0.3c-1.2,0.3-2.2,0.9-3,1.8l-0.2,0.2l-0.1-0.3l0-0.2
			c-0.3-1.2-1-2.3-2-2.9c-0.4-0.3-0.9-0.5-1.4-0.7c0.1,0,0.3,0,0.4,0c0.4,0.1,0.7,0.2,1.1,0.4c1.1,0.7,2,1.8,2.2,3.1l0,0.2l-0.3-0.1
			c0.9-0.9,2-1.5,3.2-1.8C59,78.4,59.5,78.3,60,78.5z"/>
		<path id="Path_3884" class="st1" d="M47.1,90.8c0,0.1-0.6,0.2-1.4,0.6c-1.1,0.6-1.9,1.4-2.5,2.4l-0.2,0.3L43,93.8l-0.1-0.2
			c-0.5-1.1-1.5-2-2.7-2.4c-0.5-0.1-1-0.3-1.5-0.3c0.1,0,0.3-0.1,0.4-0.1c0.4,0,0.8,0,1.2,0.2c1.3,0.4,2.3,1.3,2.9,2.5l0.1,0.2H43
			c0.6-1.1,1.6-2,2.7-2.5C46.1,91,46.6,90.8,47.1,90.8L47.1,90.8z"/>
		<path id="Path_3885" class="st1" d="M55.4,85.9c-0.5,0.1-1,0.1-1.5,0.3c-1.2,0.3-2.2,0.9-3,1.8l-0.2,0.2l-0.1-0.3l0-0.2
			c-0.3-1.2-1-2.3-2-2.9c-0.4-0.3-0.9-0.5-1.4-0.7c0.1,0,0.3,0,0.4,0c0.4,0.1,0.7,0.2,1.1,0.4c1.2,0.7,2,1.8,2.2,3.1
			c0,0.1,0,0.2,0,0.2l-0.3-0.1c0.9-0.9,2-1.5,3.2-1.8C54.4,85.8,54.9,85.8,55.4,85.9z"/>
		<path id="Path_3886" class="st1" d="M34.6,93.6c-0.5,0.1-1,0.1-1.5,0.3c-1.2,0.3-2.2,0.9-3,1.8l-0.2,0.2l-0.1-0.3l0-0.2
			c-0.3-1.2-1-2.3-2.1-2.9c-0.4-0.3-0.9-0.5-1.4-0.7c0.1,0,0.3,0,0.4,0c0.4,0.1,0.7,0.2,1.1,0.4c1.1,0.7,2,1.8,2.2,3.1
			c0,0.1,0,0.2,0,0.2l-0.3-0.1c0.9-0.9,2-1.5,3.2-1.8C33.5,93.5,34.1,93.5,34.6,93.6z"/>
		<path id="Path_3887" class="st1" d="M59.6,92.6c0,0.1-0.5,0.3-1.2,0.8c-0.9,0.7-1.7,1.7-2.1,2.8l-0.1,0.3L56,96.2l-0.1-0.2
			c-0.7-1-1.8-1.7-3-1.9c-0.5-0.1-1-0.1-1.5,0c0.1-0.1,0.3-0.1,0.4-0.1c0.4-0.1,0.8-0.1,1.2,0c1.3,0.1,2.5,0.8,3.3,1.9l0.1,0.2
			l-0.3,0c0.4-1.2,1.2-2.2,2.2-2.9C58.6,92.9,59.1,92.7,59.6,92.6L59.6,92.6z"/>
		<path id="Path_3888" class="st1" d="M56.9,66.9c0,0.1-0.5,0.3-1.2,0.9c-0.9,0.8-1.6,1.8-1.9,2.9L53.7,71l-0.2-0.3l-0.1-0.2
			c-0.8-1-1.9-1.6-3.1-1.7c-0.5,0-1,0-1.5,0c0.1-0.1,0.3-0.1,0.4-0.2c0.4-0.1,0.8-0.1,1.2-0.1c1.3,0.1,2.5,0.7,3.4,1.7l0.1,0.2
			l-0.3,0.1c0.4-1.2,1.1-2.3,2.1-3C56,67.3,56.4,67,56.9,66.9z"/>
		<path id="Path_3889" class="st1" d="M64.6,46.6c0,0.1-0.5,0.3-1.2,0.9c-0.9,0.8-1.6,1.8-1.9,2.9l-0.1,0.3l-0.2-0.3L61,50.3
			c-0.8-1-1.9-1.6-3.1-1.7c-0.5,0-1,0-1.5,0c0.1-0.1,0.3-0.1,0.4-0.2c0.4-0.1,0.8-0.1,1.2-0.1c1.3,0.1,2.5,0.7,3.4,1.7l0.1,0.2
			l-0.3,0.1c0.4-1.2,1.1-2.3,2.1-3C63.6,47,64.1,46.7,64.6,46.6z"/>
		<path id="Path_3890" class="st1" d="M83,56.8c0,0.1-0.5,0.3-1.2,0.9c-0.9,0.8-1.6,1.8-1.9,2.9l-0.1,0.3l-0.2-0.3l-0.1-0.2
			c-0.8-1-1.9-1.6-3.1-1.7c-0.5,0-1,0-1.5,0c0.1-0.1,0.3-0.1,0.4-0.2c0.4-0.1,0.8-0.1,1.2-0.1c1.3,0.1,2.5,0.7,3.4,1.7l0.1,0.2
			l-0.3,0c0.4-1.2,1.1-2.3,2.1-3C82.1,57.2,82.5,56.9,83,56.8L83,56.8z"/>
		<path id="Path_3891" class="st1" d="M97,55c0,0.1-0.5,0.3-1.2,0.9c-0.9,0.8-1.6,1.8-1.9,2.9l-0.1,0.3l-0.2-0.3l-0.1-0.2
			c-0.8-1-1.9-1.6-3.1-1.7c-0.5,0-1,0-1.5,0c0.1-0.1,0.3-0.1,0.4-0.2c0.4-0.1,0.8-0.1,1.2-0.1c1.3,0.1,2.5,0.7,3.4,1.7l0.1,0.2
			l-0.3,0c0.4-1.2,1.1-2.3,2.1-3C96,55.4,96.5,55.1,97,55z"/>
		<path id="Path_3892" class="st1" d="M103.4,47.2c0,0.1-0.5,0.3-1.2,0.9c-0.9,0.8-1.6,1.8-1.9,2.9l-0.1,0.3l-0.2-0.3l-0.1-0.2
			c-0.8-1-1.9-1.6-3.1-1.7c-0.5,0-1,0-1.5,0c0.1-0.1,0.3-0.1,0.4-0.2c0.4-0.1,0.8-0.1,1.2-0.1c1.3,0.1,2.5,0.7,3.4,1.7l0.1,0.2
			l-0.3,0c0.4-1.2,1.1-2.3,2.1-3C102.4,47.6,102.9,47.3,103.4,47.2z"/>
		<path id="Path_3893" class="st1" d="M71,56.8c0,0.1-0.5,0.2-1.3,0.7c-1,0.6-1.8,1.6-2.3,2.6l-0.1,0.3l-0.2-0.3L67,59.9
			c-0.6-1.1-1.7-1.8-2.9-2.1c-0.5-0.1-1-0.2-1.5-0.2c0.1,0,0.3-0.1,0.4-0.1c0.4,0,0.8,0,1.2,0.1c1.3,0.3,2.4,1.1,3.1,2.2l0.1,0.2
			h-0.3c0.5-1.1,1.4-2.1,2.5-2.7C70,57,70.5,56.8,71,56.8z"/>
		<path id="Path_3894" class="st1" d="M87.8,64.7c0,0.1-0.5,0.2-1.3,0.7c-1,0.6-1.8,1.6-2.3,2.6L84,68.3L83.9,68l-0.1-0.2
			c-0.6-1.1-1.7-1.8-2.9-2.1c-0.5-0.1-1-0.2-1.5-0.2c0.1,0,0.3-0.1,0.4-0.1c0.4,0,0.8,0,1.2,0.1c1.3,0.3,2.4,1.1,3.1,2.2l0.1,0.2
			h-0.3c0.5-1.1,1.4-2.1,2.5-2.7C86.8,64.9,87.3,64.8,87.8,64.7L87.8,64.7z"/>
		<path id="Path_3895" class="st0" d="M82.2,61.2c-1-1.9-1.1-4.2-0.5-6.2c0.1,0-0.2,1.4-0.1,3.1S82.3,61.2,82.2,61.2z"/>
		<g id="Group_253" transform="translate(26.059 60.925)" class="st5">
			<path id="Path_3896" d="M0.8,11.7C3.6,8.4,4,3.7,1.8,0C1.8,0.2,0,6.3,0,6.3l0.5,5.2"/>
		</g>
		<path id="Path_3897" class="st1" d="M35.4,71.4l-1.4-7c-0.1-0.5,0.2-1,0.7-1.1c0.1,0,0.1,0,0.2,0l18.1,0.1c0.5,0,0.9,0.4,0.9,0.9
			c0,0,0,0.1,0,0.1l-1.9,16c-0.1,0.6-0.6,1.1-1.2,1.1L39,81.4c-0.6,0-1.1-0.4-1.2-0.9L35.4,71.4z"/>
		<path id="Path_3898" class="st15" d="M33.8,67.8L33.8,67.8c0.8,0,1.5,0.5,1.8,1.2c0.2,0.8,0.6,1.4,1.2,1.9c1,0.6,2.1,0.7,3.2,0.5
			c0.8-0.4,4-3.3,4.6-3s1,1.1,0.5,1.7s-3.5,2.6-3,3.2s6.9-2.2,7.8-1.9s1.5,0.8,1,1.2s-4.8,2-5.1,2.6c0,0,6.4-1.7,6.7-1.3
			s0.6,1,0,1.3s-6.2,1.7-6.7,1.9c-0.8,0.3-1.6,0.6-2.5,0.7c-0.9,0.2-1.7,0.5-2.6,0.8c-1.3,0.5-2.7,0.4-4-0.1l-0.6-0.3
			c-1-0.4-1.7-1.4-1.6-2.5l0.1-2.2L34,71.8L33.8,67.8z"/>
		<path id="Path_3899" class="st17" d="M44.6,66.1c0,0.4-0.3,0.7-0.7,0.7s-0.7-0.3-0.7-0.7c0-0.4,0.3-0.7,0.7-0.7
			C44.3,65.4,44.6,65.7,44.6,66.1L44.6,66.1z"/>
	</g>
	<g id="freepik--Plant--inject-250" transform="translate(163.066 204.701)">
		<path id="Path_3900" class="st3" d="M46.3,53.1c5.2,1.8,11.9,0.2,16.4-3s7.6-7.9,10.5-12.6c1.3-1.9,2.3-4.1,2.8-6.4
			c0.5-2.3-0.3-4.8-2-6.4c-2.8-2.3-7.1-1.2-10.2,0.6C53.7,31.2,47.2,41.6,46.3,53.1"/>
		<path id="Path_3901" class="st3" d="M51.9,65.5c3.1,4.1,8.5,5.9,13.6,6.2s10.2-1.2,15-3c1.7-0.7,3.7-1.6,4.3-3.4
			c0.4-1.4,0-2.9-0.9-4c-1-1.1-2.1-1.9-3.5-2.4c-4.8-1.9-10.1-2.2-15.1-0.8C60.3,59.5,55.9,62.4,51.9,65.5"/>
		<path id="Path_3902" class="st3" d="M46.2,30.9c4.3,0.1,7.5-3.7,9.5-7.5c2.7-5.4,3.6-11.4,2.6-17.3c-0.4-2.2-1.2-4.6-3.2-5.6
			s-4.6-0.4-6.3,1.2c-1.6,1.6-2.7,3.7-3.3,5.9C43.3,15,43.8,23.6,46.2,30.9"/>
		<path id="Path_3903" class="st3" d="M32.2,54.7c7.3-12.5,8.5-27.7,4.2-41.5c-0.7-2.2-2-4.8-4.3-5c-2.6-0.2-4.2,2.7-5,5.2
			c-2.5,8.8-2,18-1.4,27.1C26,46.2,27.9,51,32.2,54.7"/>
		<path id="Path_3904" class="st3" d="M24.5,59.8C21.8,51.2,15.3,44.2,6.8,41c-1.9-0.7-4.4-1.2-5.9,0.3s-1,3.9-0.1,5.7
			c1.5,2.9,3.9,5.3,6.2,7.6c2.1,2.2,4.5,4,7.2,5.3C17,61.1,22,61.4,24.5,59.8"/>
		<path id="Path_3905" class="st2" d="M69.9,27.8c0,0-0.1,0.1-0.1,0.1l-0.4,0.3l-1.5,1.2l-1.1,0.8c-0.4,0.3-0.8,0.7-1.3,1
			c-0.9,0.8-2,1.6-3.1,2.6l-1.8,1.6c-0.6,0.5-1.2,1.2-1.8,1.8c-1.2,1.2-2.5,2.6-3.8,4.1C49.5,47.7,45,55,41.7,62.9
			c-0.7,1.9-1.4,3.5-2,5.2c-0.3,0.8-0.6,1.6-0.8,2.4s-0.4,1.5-0.6,2.2c-0.4,1.4-0.7,2.7-1,3.9c-0.1,0.6-0.3,1.1-0.4,1.6
			s-0.2,1-0.2,1.4c-0.1,0.8-0.3,1.4-0.3,1.9c0,0.2-0.1,0.4-0.1,0.5c0,0.1,0,0.1,0,0.2c0-0.1,0-0.1,0-0.2c0-0.1,0-0.3,0.1-0.5
			c0.1-0.5,0.2-1.1,0.3-1.9c0.1-0.4,0.1-0.9,0.2-1.4s0.2-1,0.3-1.6c0.3-1.2,0.5-2.5,0.9-3.9c0.2-0.7,0.4-1.5,0.6-2.3
			s0.5-1.6,0.8-2.4c0.5-1.7,1.2-3.4,1.9-5.2c3.3-7.9,7.8-15.3,13.4-21.7c1.3-1.5,2.5-2.9,3.8-4.1c0.6-0.6,1.2-1.2,1.8-1.8l1.7-1.6
			c1.1-1,2.2-1.8,3.1-2.6c0.5-0.4,0.9-0.7,1.3-1l1.1-0.8l1.6-1.1l0.4-0.3L69.9,27.8z"/>
		<path id="Path_3906" class="st2" d="M79.6,62.3c-0.2,0-0.3,0-0.5-0.1c-0.3-0.1-0.8-0.2-1.4-0.3c-1.7-0.3-3.5-0.6-5.3-0.6
			C60.4,60.6,48.8,65.4,41,74.3c-1.2,1.3-2.3,2.7-3.3,4.2c-0.4,0.5-0.6,0.9-0.8,1.2c-0.1,0.1-0.2,0.3-0.3,0.4
			c0.1-0.2,0.1-0.3,0.2-0.5c0.2-0.3,0.4-0.7,0.7-1.2c1-1.5,2-2.9,3.2-4.3c7.8-9.1,19.6-14,31.6-13.1c1.8,0.1,3.6,0.4,5.3,0.8
			c0.6,0.1,1.1,0.3,1.4,0.4C79.2,62.2,79.4,62.3,79.6,62.3z"/>
		<path id="Path_3907" class="st2" d="M52.5,5.5c0,0.1,0,0.1,0,0.2c0,0.2-0.1,0.4-0.1,0.6c-0.1,0.5-0.3,1.2-0.5,2.1
			c-0.4,1.9-1.1,4.5-1.9,7.9c-1.6,6.6-4,15.8-6.4,25.9c-1.2,5.1-2.3,9.9-3.3,14.3s-1.7,8.4-2.3,11.8c-0.3,1.7-0.6,3.2-0.8,4.5
			s-0.4,2.5-0.5,3.4l-0.3,2.2c0,0.2-0.1,0.4-0.1,0.6c0,0.1,0,0.1,0,0.2c0-0.1,0-0.1,0-0.2c0-0.1,0-0.3,0.1-0.6
			c0.1-0.5,0.2-1.2,0.3-2.2s0.3-2.1,0.5-3.4s0.4-2.9,0.7-4.5c0.6-3.4,1.3-7.4,2.2-11.8s2-9.3,3.2-14.3c2.4-10.1,4.8-19.2,6.5-25.8
			c0.8-3.3,1.5-6,2-7.8c0.2-0.9,0.4-1.6,0.5-2.1c0.1-0.2,0.1-0.4,0.1-0.6C52.5,5.6,52.5,5.5,52.5,5.5z"/>
		<path id="Path_3908" class="st2" d="M35.8,78c0,0,0-0.1,0-0.1l-0.1-0.5c-0.1-0.4-0.2-1-0.4-1.7c-0.3-1.5-0.7-3.7-1.2-6.4
			c-0.9-5.4-2-12.9-2.7-21.3c-0.3-4.2-0.5-8.2-0.6-11.8s0-6.9,0.1-9.7c0-1.4,0.1-2.6,0.2-3.7s0.1-2,0.2-2.8s0.1-1.3,0.2-1.8
			c0-0.2,0-0.3,0-0.5c0-0.1,0-0.1,0-0.2c0,0.1,0,0.1,0,0.2v0.5c0,0.4-0.1,1-0.1,1.8s-0.1,1.7-0.1,2.8S31,25.1,31,26.5
			c-0.1,2.7-0.1,6,0,9.6s0.3,7.6,0.6,11.8c0.7,8.3,1.8,15.9,2.6,21.3c0.4,2.7,0.8,4.9,1.1,6.4c0.1,0.7,0.2,1.3,0.3,1.7
			c0,0.2,0.1,0.3,0.1,0.5C35.7,77.9,35.7,78,35.8,78z"/>
		<path id="Path_3909" class="st2" d="M36.3,79.6c-0.1-0.1-0.1-0.3-0.2-0.4l-0.5-1.2L35.3,77L34.8,76c-0.2-0.4-0.3-0.8-0.5-1.2
			s-0.4-0.9-0.7-1.3L32.9,72L32,70.5c-0.6-1.1-1.3-2.1-2.1-3.3c-1.7-2.5-3.5-4.8-5.5-7c-2-2.2-4.1-4.3-6.3-6.3c-1.1-0.9-2-1.8-3-2.5
			l-1.4-1.1l-1.3-1c-0.8-0.6-1.6-1.2-2.3-1.6s-1.3-0.9-1.8-1.2l-1.1-0.7c-0.1-0.1-0.3-0.2-0.4-0.3c0.1,0.1,0.3,0.1,0.4,0.2l1.2,0.7
			c0.5,0.3,1.1,0.7,1.8,1.1s1.5,1,2.3,1.6l1.3,1l1.4,1.1c1,0.7,2,1.6,3,2.5c2.2,2,4.4,4.1,6.4,6.3c2,2.3,3.8,4.6,5.5,7.1
			c0.7,1.2,1.5,2.3,2.1,3.3l0.9,1.5c0.3,0.5,0.5,1,0.7,1.5c0.2,0.4,0.4,0.9,0.6,1.3c0.2,0.4,0.4,0.8,0.5,1.2s0.3,0.7,0.4,1.1
			l0.3,0.9c0.2,0.5,0.3,1,0.4,1.3C36.2,79.3,36.3,79.5,36.3,79.6z"/>
		<path id="Path_3910" class="st2" d="M67.2,42.2c0,0.1-0.9,0.1-2.3,0.1c-1.9,0.1-3.7,0.3-5.5,0.7c-1.8,0.3-3.6,0.8-5.4,1.4
			c-1.4,0.4-2.2,0.8-2.2,0.7c0.2-0.1,0.4-0.2,0.6-0.3c0.4-0.2,0.9-0.4,1.6-0.6c1.8-0.7,3.6-1.2,5.4-1.5c1.8-0.3,3.7-0.5,5.6-0.6
			c0.7,0,1.3,0,1.7,0C66.7,42.2,67,42.2,67.2,42.2z"/>
		<path id="Path_3911" class="st2" d="M72.7,69.2c-0.8-1.6-1.8-3.2-3-4.5c-1.3-1.3-2.7-2.4-4.3-3.3c0.5,0.1,1,0.4,1.5,0.7
			c2.3,1.3,4.1,3.3,5.3,5.7C72.4,68.1,72.6,68.7,72.7,69.2z"/>
		<path id="Path_3912" class="st2" d="M53.9,15.6c0.1,0.1-1.3,1.4-2.7,3.2s-2.5,3.4-2.6,3.3C49.8,19.6,51.7,17.4,53.9,15.6z"/>
		<path id="Path_3913" class="st2" d="M49.4,8c0.6,1.9,0.9,3.9,1,5.8c-0.3-0.9-0.6-1.9-0.7-2.9C49.5,9.9,49.4,8.9,49.4,8L49.4,8z"/>
		<path id="Path_3914" class="st2" d="M35.8,31.9c-0.6,1.6-1.3,3.1-2.1,4.5c-0.7,1.5-1.5,2.9-2.4,4.3C32.5,37.7,34,34.7,35.8,31.9
			L35.8,31.9z"/>
		<path id="Path_3915" class="st2" d="M27.6,23.8c0.7,1,1.3,2.1,1.8,3.3c0.6,1.1,1.1,2.2,1.5,3.4C29.6,28.3,28.5,26.1,27.6,23.8z"/>
		<path id="Path_3916" class="st2" d="M15.7,51.6c0,0.1-1.5-0.2-3.3-0.3s-3.3-0.1-3.3-0.2C11.3,50.7,13.5,50.9,15.7,51.6L15.7,51.6z
			"/>
		<path id="Path_3917" class="st2" d="M23.8,76.2l4.1,21.4c0.3,1.4,1.5,2.4,2.9,2.4h12c1.5,0,2.7-1.1,3-2.5l3.5-21.3L23.8,76.2z"/>
		<path id="Path_3918" class="st3" d="M25.2,83.1h23l1.2-7H23.8L25.2,83.1z"/>
		<path id="Path_3919" class="st1" d="M25.2,83.1l0.5,2.5h22.2l0.4-2.5H25.2z"/>
	</g>
	<g id="freepik--Desk--inject-250" transform="translate(341.814 164.035)">
		<path id="Rectangle_484" class="st18" d="M63.4,0h30.9c5.9,0,10.6,4.8,10.6,10.6v18.7c0,5.9-4.8,10.6-10.6,10.6H63.4
			c-5.9,0-10.6-4.8-10.6-10.6V10.6C52.8,4.8,57.5,0,63.4,0z"/>
		<path id="Rectangle_485" class="st11" d="M66.5,0h30.9c5.9,0,10.6,4.8,10.6,10.6v18.7c0,5.9-4.8,10.6-10.6,10.6H66.5
			c-5.9,0-10.6-4.8-10.6-10.6V10.6C55.9,4.8,60.7,0,66.5,0z"/>
		<path id="Path_3920" class="st11" d="M75,32.4L74.4,48h12.9V32.5L75,32.4z"/>
		<path id="Path_3921" class="st17" d="M84.3,19.2c0,1.3-1,2.3-2.3,2.3c-1.3,0-2.3-1-2.3-2.3c0-1.3,1-2.3,2.3-2.3c0,0,0,0,0,0
			C83.2,16.9,84.3,17.9,84.3,19.2z"/>
		<rect id="Rectangle_486" x="61.4" y="48.2" class="st0" width="46.8" height="92.6"/>
		<rect id="Rectangle_487" x="0.8" y="48.2" class="st12" width="107.4" height="7.9"/>
		<rect id="Rectangle_488" x="0" y="48.2" class="st0" width="46.8" height="92.6"/>
	</g>
</g>
</svg>
