<?xml version="1.0" encoding="utf-8"?>
<!-- Generator: Adobe Illustrator 26.2.1, SVG Export Plug-In . SVG Version: 6.00 Build 0)  -->
<svg version="1.1" id="Layer_1" xmlns="http://www.w3.org/2000/svg" xmlns:xlink="http://www.w3.org/1999/xlink" x="0px" y="0px"
	 viewBox="0 0 750 500" style="enable-background:new 0 0 750 500;" xml:space="preserve">
<style type="text/css">
	.st0{fill:#F5F5F5;}
	.st1{fill:#263238;}
	.st2{fill:#FFFFFF;}
	.st3{fill:#D94F04;}
	.st4{opacity:0.3;}
	.st5{fill:#CBDAD5;}
	.st6{fill:#007172;}
	.st7{fill:#C17560;}
	.st8{fill:#7C4236;}
	.st9{fill:#455A64;}
	.st10{fill:#E0E0E0;}
	.st11{fill:#AE7461;}
	.st12{fill:#6F4439;}
	.st13{fill:none;}
	.st14{fill:#FFBF9D;}
	.st15{fill:#FF9A6C;}
	.st16{fill:#FDFCDC;}
</style>
<g id="freepik--background-simple--inject-44">
	<path class="st0" d="M550.2,48.2l-1.5,1.8c-12.7,14.5-16.6,34.7-9.7,52.4c0.9,2.3,2,4.5,3.2,6.6c9.2,15.6,25.6,25.6,43.7,26.6
		c10.5,0.5,21.6-2,31.2,2.3c12.5,5.6,17.4,20.1,21.1,33.1s8.7,27.6,21.2,33.1c7.8,3.4,17,2.4,25.1-0.6c21.3-8,35.8-29.2,39.3-51.5
		s-2.8-45.1-13.7-64.7c-15.3-27.5-40.4-50.3-70.9-59.1S573,26.2,550.2,48.2z"/>
	<path class="st0" d="M215,52.9l1.4,1.8c11.4,15.5,13.8,36,5.4,53.1c-1.1,2.2-2.3,4.3-3.7,6.4c-10.4,14.8-27.6,23.5-45.7,23
		c-10.5-0.4-21.4-3.7-31.3-0.2c-12.9,4.5-19,18.6-23.7,31.3s-10.9,26.7-23.8,31.2c-8.1,2.8-17.2,1-24.9-2.7
		c-20.5-9.7-33.3-32.1-35-54.5S40.1,97.6,52.6,79C70,52.8,97,32.1,128,25.8S194.1,29,215,52.9z"/>
	<circle class="st0" cx="340.5" cy="89.3" r="52.8"/>
	
		<ellipse transform="matrix(0.2267 -0.974 0.974 0.2267 264.6695 888.4918)" class="st0" cx="691.8" cy="277.6" rx="32.8" ry="32.8"/>
	<circle class="st0" cx="76.9" cy="383.8" r="32.8"/>
</g>
<g id="freepik--Table--inject-44">
	<path class="st1" d="M700.9,475.7c0,0.1-145.9,0.3-325.9,0.3s-326-0.1-326-0.3s145.9-0.3,326-0.3S700.9,475.5,700.9,475.7z"/>
</g>
<g id="freepik--speech-bubble-2--inject-44">
	<path class="st2" d="M412.3,105.9l2.6-13c-13.5-19.3-8.8-45.9,10.5-59.4s45.9-8.8,59.4,10.5s8.8,45.9-10.5,59.4
		c-14.6,10.2-33.9,10.3-48.6,0.2l0,0L412.3,105.9z"/>
	<path class="st1" d="M412.3,105.9l0.8-0.1l2.6-0.4l10.1-1.6c0.1,0,0.1-0.1,0.1-0.2c0,0,0-0.1,0-0.1l0,0l-0.2,0.2
		c7.7,5.3,16.9,8,26.2,7.6c2.4-0.2,4.7-0.5,7-1c10.8-2.3,20.3-8.7,26.4-17.9c3.5-5.1,5.8-11,6.8-17.1c1.1-6.5,0.6-13.2-1.4-19.5
		c-2-6.6-5.6-12.6-10.6-17.5l-1.9-1.8l-2-1.7l-1-0.8l-1.1-0.7l-2.2-1.4c-0.7-0.5-1.5-0.8-2.3-1.2c-0.7-0.4-1.5-0.8-2.3-1.1
		c-1.6-0.7-3.2-1.3-4.8-1.8c-6.3-1.9-13-2.4-19.6-1.4c-17.5,2.9-31.4,16.2-35,33.5c-0.5,2.3-0.8,4.7-0.9,7.1c0,2.2,0,4.4,0.3,6.6
		c0.8,7,3.3,13.7,7.4,19.5v-0.1c-0.8,4.2-1.4,7.5-1.9,9.7c-0.2,1.1-0.4,1.9-0.5,2.5S412.3,105.9,412.3,105.9c0,0,0.1-0.3,0.2-0.9
		s0.3-1.4,0.5-2.5c0.5-2.2,1.1-5.4,2-9.6c0,0,0-0.1,0-0.1c-4-5.8-6.5-12.4-7.2-19.4c-0.2-2.2-0.3-4.4-0.2-6.6c0.1-2.4,0.4-4.7,0.9-7
		c3.7-17.1,17.4-30.2,34.6-33c6.5-1,13.1-0.5,19.3,1.4c1.6,0.5,3.2,1.1,4.7,1.8c0.8,0.3,1.5,0.7,2.3,1.1c0.8,0.4,1.5,0.8,2.2,1.2
		l2.1,1.4l1.1,0.7l1,0.8l2,1.6l1.9,1.8c4.8,4.8,8.4,10.7,10.4,17.2c2,6.2,2.4,12.8,1.4,19.2c-1.9,11.8-8.6,22.3-18.6,28.8
		c-4.3,2.8-9.1,4.8-14.1,5.9c-2.3,0.5-4.6,0.8-7,1c-2.2,0.1-4.4,0.1-6.6-0.2c-7-0.7-13.7-3.2-19.5-7.1c-0.1-0.1-0.2-0.1-0.2,0
		c0,0.1,0,0.1,0,0.2l0,0l0.1-0.2l-10,1.7l-2.6,0.5L412.3,105.9z"/>
	<circle class="st3" cx="449.7" cy="71.9" r="25.2"/>
	<g class="st4">
		<circle cx="449.7" cy="71.9" r="25.2"/>
	</g>
	<circle class="st3" cx="449.7" cy="69.1" r="25.2"/>
	<circle class="st2" cx="449.7" cy="69.2" r="16.9"/>
	<circle class="st3" cx="449.7" cy="69.2" r="8.2"/>
	<polygon class="st5" points="467.2,50.8 466.5,45.4 472,39.5 472.4,45.3 	"/>
	<polygon class="st5" points="479,46.7 473.5,46 467.8,51.2 473.3,52 	"/>
	<g class="st4">
		<path d="M450.8,69.1L470,54.4c-0.7-1-1.5-2-2.4-2.9l-16.8,16.3V69.1z"/>
	</g>
	<path class="st6" d="M472.6,44.5l-7.8,7.8l-12.4,12.4l-2.9,2.9c-0.9,0.9,0.5,2.3,1.4,1.4l7.8-7.8c4.2-4.1,8.3-8.3,12.4-12.4
		l2.8-2.9C474.9,45,473.5,43.6,472.6,44.5L472.6,44.5z"/>
</g>
<g id="freepik--character-3--inject-44">
	<path class="st1" d="M576.9,125.2c5.1,0.4,9.5-3.5,9.8-8.5c0.3-4.4-2.6-8.4-6.8-9.5c3.5-4,3.1-10-0.9-13.5c-2.3-2-5.3-2.8-8.3-2.2
		c-0.6-6.3-6.2-11-12.5-10.4c-1.9,0.2-3.7,0.8-5.3,1.9c-4.8-3.5-11.3-3.3-15.9,0.5c-5-0.7-9.7,2.8-10.4,7.8
		c-0.4,3.1,0.7,6.2,3.1,8.2"/>
	<path class="st7" d="M535.6,92.5l2-0.1c20.4-1,38.1,13.8,40.7,34c2.5,18.8,4.9,39.6,5.3,49.7c0.8,21-20,25.3-20,25.3l3,25.1
		l-11.2,12.2l-39.7-11.2l-9-91.1C503.7,114.7,513.9,94.9,535.6,92.5z"/>
	<path class="st8" d="M563.8,201.3c-9.7,0.5-19.4-1.8-27.8-6.7c0,0,7.5,14.7,28.3,11.8L563.8,201.3z"/>
	<path class="st1" d="M568.8,148.7c0.1,1.6-1.1,3-2.7,3.2c-1.6,0.2-3-0.9-3.2-2.5c0,0,0,0,0-0.1c-0.1-1.6,1.1-3,2.7-3.2
		C567.1,146,568.6,147.1,568.8,148.7C568.8,148.7,568.8,148.7,568.8,148.7z"/>
	<path class="st1" d="M574.3,136.9c-0.3,0.4-2.7-1.2-5.9-1s-5.5,1.9-5.9,1.5c-0.2-0.2,0.2-0.9,1.2-1.7c1.3-1,3-1.6,4.7-1.7
		c1.7-0.1,3.3,0.4,4.7,1.3C574.1,136,574.5,136.7,574.3,136.9z"/>
	<path class="st1" d="M541.3,149.4c0.1,1.6-1.1,3-2.7,3.2c-1.6,0.2-3-0.9-3.2-2.5c0,0,0,0,0-0.1c-0.1-1.6,1.1-3,2.7-3.2
		C539.6,146.7,541.1,147.8,541.3,149.4C541.3,149.4,541.3,149.4,541.3,149.4z"/>
	<path class="st1" d="M542.7,139.1c-0.3,0.4-2.7-1.1-5.9-1s-5.5,1.9-5.9,1.5c-0.2-0.2,0.2-0.9,1.2-1.7c1.3-1,3-1.6,4.7-1.7
		c1.7-0.1,3.3,0.4,4.7,1.3C542.5,138.2,542.9,138.9,542.7,139.1z"/>
	<path class="st1" d="M555.6,162.4c0-0.2,2-0.6,5.2-1.2c0.8-0.1,1.6-0.3,1.7-0.9c0-0.9-0.2-1.7-0.7-2.4c-0.9-2-1.8-4-2.7-6.1
		c-3.8-8.7-6.6-15.9-6.3-16.1s3.7,6.8,7.6,15.6l2.6,6.2c0.6,1,0.8,2.1,0.6,3.2c-0.2,0.6-0.7,1.1-1.3,1.3c-0.4,0.1-0.9,0.2-1.4,0.3
		C557.6,162.4,555.6,162.5,555.6,162.4z"/>
	<path class="st1" d="M544.9,126.5c-0.4,0.8-3.2,0.1-6.6,0.1s-6.2,0.8-6.6-0.1c-0.2-0.4,0.4-1.2,1.6-1.9c1.5-0.9,3.2-1.3,5-1.3
		c1.7,0,3.5,0.4,5,1.3C544.5,125.4,545.1,126.1,544.9,126.5z"/>
	<path class="st1" d="M573.8,123.6c-0.6,0.8-3.3,0.1-6.5,0.3s-5.9,0.8-6.5,0c-0.3-0.4,0.1-1.1,1.2-1.9c1.6-0.9,3.4-1.4,5.2-1.5
		c1.8-0.1,3.7,0.3,5.3,1.2C573.7,122.5,574.1,123.2,573.8,123.6z"/>
	<path class="st1" d="M575.8,116.9c0,0-6.2-12.8-12.7-15.6c-7.8-3.3-10.7,5.2-18.1,3.6S530.2,100,523,106c-7.8,6.6-3.8,10.7-3.9,20
		c-0.2,37.8-6.5,48.8-9.4,31.1c-0.3-1.9-5.8-3.2-7-11.4c-1.6-10.6-2.6-23.5-0.6-31.2c1.7-6.5,5.1-11.1,11.4-16.2
		c9.9-8.2,24-9,33.7-8.6S575.9,100.4,575.8,116.9z"/>
	<path class="st7" d="M511.1,156.6c-0.3-3.1-3-5.5-6.1-5.2c-0.1,0-0.2,0-0.3,0c-3.9,0.6-8.1,3-7.5,11.1c1.2,14.3,15.3,10.2,15.3,9.8
		S511.6,162.5,511.1,156.6z"/>
	<path class="st8" d="M508.9,167.1c-0.1,0-0.2,0.2-0.6,0.4c-0.6,0.3-1.2,0.4-1.9,0.2c-1.6-0.4-3-2.7-3.3-5.3c-0.1-1.2,0-2.5,0.4-3.6
		c0.2-0.9,0.8-1.7,1.7-2.1c0.6-0.2,1.2,0,1.5,0.6c0.2,0.4,0.1,0.7,0.2,0.7s0.3-0.3,0.1-0.9c-0.1-0.3-0.3-0.6-0.6-0.9
		c-0.4-0.3-0.9-0.4-1.4-0.2c-1.2,0.3-2.1,1.3-2.4,2.4c-0.5,1.3-0.7,2.7-0.5,4.1c0.3,2.9,2,5.4,4.1,5.9c0.8,0.2,1.6,0,2.2-0.6
		C508.9,167.4,509,167.1,508.9,167.1z"/>
	<path class="st1" d="M510,128.8c1.9,1.2,4,2.4,6.2,2.5s4.8-1.3,5-3.5c0.1-1-0.2-2.2,0.4-3c0.7-1,2.2-0.7,3.4-0.7
		c4.2,0.2,8.8-4.6,9.7-8.7c1.2,1.5,3.4,1.9,5,0.8c1.3-0.9,2.4-2,3.3-3.2c1.2-1.5,2.9-2.9,4.8-2.7c1.1,0.1,2.1,0.7,3.1,0.5
		c1.9-0.3,2.7-2.5,2.9-4.4s0.3-4.1,1.8-5.2s3.4-0.6,5.1-0.4s4-0.3,4.3-2.1c0.1-0.9-0.2-1.9-0.8-2.6c-2.6-3.5-7.2-4.7-11.1-3
		c-2.3-6.6-9.5-10-16.1-7.6c-3.1,1.1-5.7,3.4-7.1,6.4c-5.5-4.5-13.5-3.7-18,1.8c-1,1.2-1.7,2.5-2.2,3.9c-5-1.1-9.9,2.1-11,7.1
		c-0.5,2.4-0.1,4.8,1.2,6.9c-2.5,1.6-4.6,4.3-4.5,7.2s3.1,5.8,6,4.8c-1.1,2.6,0.1,5.6,2.7,6.7c2.4,1,5.1,0.1,6.4-2.1"/>
	<path class="st9" d="M554.5,97.4c0,0.1,0,0.2,0,0.3c0,0.3,0,0.5-0.1,0.8c-0.1,1-0.4,1.9-0.9,2.8c-0.7,1.4-1.7,2.6-3,3.5
		c-1.7,1.3-3.7,2-5.8,2l0.2-0.3c0.5,1.3,0.5,2.7-0.1,4c-0.6,1.3-1.3,2.5-2.3,3.6c-0.4,0.6-1,1.2-1.5,1.7c-0.7,0.5-1.4,0.8-2.2,0.9
		c-1.7,0.3-3.5-0.2-4.7-1.4l0.5-0.2c-0.3,3-1.8,5.8-4.2,7.7c-1.3,1.1-2.9,1.7-4.6,1.8c-1.6,0-3.2-0.3-4.7-0.8l0.4-0.2
		c-0.7,1.8-1.7,3.3-3.2,4.6c-1.3,1.3-3.1,1.8-4.9,1.6c-3.1-0.5-5.6-2.8-6.4-5.9l0.3,0.1c-1.5,0.9-3.2,1.2-4.9,1
		c-1.3-0.2-2.5-0.6-3.5-1.4c-0.7-0.5-1.2-1-1.7-1.7c-0.2-0.2-0.3-0.5-0.4-0.7c0.6,0.9,1.4,1.6,2.2,2.2c1,0.7,2.2,1.1,3.4,1.2
		c1.6,0.2,3.2-0.2,4.6-1l0.3-0.2l0.1,0.3c0.8,2.8,3.1,5,6,5.4c1.6,0.2,3.3-0.4,4.5-1.5c1.3-1.2,2.4-2.7,3-4.4l0.1-0.3l0.3,0.1
		c1.4,0.5,3,0.7,4.5,0.7c1.6-0.1,3.1-0.6,4.3-1.7c2.3-1.7,3.7-4.4,4-7.2l0-0.7l0.5,0.5c1.1,1.1,2.6,1.5,4.2,1.2
		c0.7-0.1,1.4-0.4,2-0.8c0.5-0.5,1-1,1.4-1.6c0.9-1.1,1.7-2.2,2.2-3.5c0.5-1.1,0.6-2.4,0.1-3.6l-0.1-0.3h0.4c2,0,3.9-0.6,5.5-1.8
		c1.2-0.9,2.3-2,3-3.4C554,100,554.4,98.7,554.5,97.4z"/>
	<path class="st1" d="M555.4,173.4c-0.1-0.5-3.6,0.4-6.8-2s-3.9-6.1-4.3-6c-0.2,0-0.5,1-0.1,2.6c0.5,2,1.7,3.8,3.4,5.1
		c1.6,1.2,3.7,1.7,5.7,1.4C554.8,174.2,555.5,173.6,555.4,173.4z"/>
	<path class="st3" d="M471.4,476.8c0,0,4.8-51.9,16.1-68.2l135.8,5.5l6.7,61.6L471.4,476.8z"/>
	<path class="st10" d="M514.2,212c0,0,2.6,13.9,37.7,22.8c0,0,16.1-10.4,12.8-24.2l40.6,24.2L615,349l13,80.4
		c-40.2,20.8-97,15.9-151.1-0.5l15.7-49.7l-1.3-20.2l-17.7-107.3l31.6-31.6L514.2,212z"/>
	<path class="st3" d="M577.1,253.2l12.4-0.8c1.6-0.1,3,1.1,3.1,2.7l0,0.1c0.1,1.6-1.1,3-2.7,3.1l-12.4,0.8c-1.6,0.1-3-1.1-3.1-2.7
		l0-0.1C574.2,254.7,575.4,253.3,577.1,253.2z"/>
	<path class="st8" d="M516.5,328.6c0,0.1-1.5-0.3-3.9-0.4c-1.4-0.1-2.8,0-4.3,0.2c-1.7,0.2-3.4,0.7-5.1,1.2
		c-1.6,0.6-3.2,1.4-4.7,2.2c-1.2,0.7-2.4,1.6-3.4,2.5c-1.8,1.6-2.7,2.9-2.8,2.8c0.2-0.3,0.4-0.6,0.6-0.9c0.2-0.4,0.5-0.7,0.8-1
		c0.4-0.4,0.7-0.8,1.1-1.2c1.1-1,2.2-1.9,3.4-2.7c1.5-0.9,3.1-1.7,4.8-2.3c1.7-0.6,3.4-1,5.2-1.2c1.4-0.2,2.9-0.2,4.3-0.1
		c0.6,0,1.1,0.1,1.7,0.2c0.4,0.1,0.8,0.1,1.2,0.2C515.9,328.3,516.2,328.5,516.5,328.6z"/>
	<path class="st10" d="M564.7,210.6c0.8,0,27.8,7.6,31.9,8.8c0.2,0.1,10.8,3.8,11,3.8c2.5,0.3,17.7,6.1,23.8,19.6
		c5.5,12.2,14.2,41,14.2,41l-41.5-3.9L606,254l-35.5-31.8L564.7,210.6z"/>
	<path class="st1" d="M603.9,248.3c0.1,0.4,0.2,0.9,0.2,1.3c0.1,0.9,0.2,2.1,0.3,3.6c0.2,3,0.4,7.2,0.3,11.9s-0.4,8.9-0.8,11.9
		c-0.2,1.5-0.3,2.7-0.5,3.6c0,0.4-0.1,0.9-0.3,1.3c0-0.4,0-0.9,0.1-1.3c0.1-1,0.2-2.1,0.3-3.6c0.3-3,0.5-7.2,0.6-11.9
		s0-8.8-0.2-11.9c-0.1-1.4-0.1-2.6-0.2-3.6C603.8,249.1,603.8,248.7,603.9,248.3z"/>
	<path class="st1" d="M607.1,224.8c-0.2,0.9-0.4,1.7-0.7,2.6c-1.1,4.2-1.8,8.4-2.1,12.7c0,0.9-0.1,1.8-0.2,2.7
		c-0.2-0.9-0.2-1.8-0.2-2.7c0-4.4,0.7-8.7,2.1-12.8C606.4,226.4,606.7,225.6,607.1,224.8z"/>
	<path class="st6" d="M595.5,263.1l-75,4.2c-2.1,0.1-3.7,1.9-3.7,4l2.6,102.3c0.1,3,2.5,5.3,5.5,5.2c0.1,0,0.1,0,0.2,0l73.4-4.2
		c2.9-0.2,5.1-2.6,5-5.5L599.8,267c-0.1-2.2-2-4-4.2-3.9C595.6,263.1,595.5,263.1,595.5,263.1z"/>
	<g class="st4">
		<path d="M495.4,375.7c7.8,4.3,17.4,3.7,26.2,2.1c11.7-2.1,23.2-5.7,34-10.6c6.7-3,13.2-6.6,20.5-7.9c11.8-2.1,28-0.4,39.7-2.8
			l-0.7-9.3l-41.3-5.1L495.4,375.7z"/>
	</g>
	<path class="st10" d="M546.4,267c0,0-3.2-4.8-1.9-6.2c0.9-1,23.2-2.4,24.7-1.3c0.9,0.7-0.9,6-0.9,6L546.4,267z"/>
	<path class="st1" d="M546.4,267c0.1,0,0.3-0.1,0.4-0.1l1.2-0.1l4.6-0.4l15.7-1.2l-0.2,0.2c0.4-1.2,0.7-2.5,1-3.7
		c0.1-0.6,0.2-1.2,0.1-1.9c0-0.1-0.1-0.1-0.1-0.1l-0.1-0.1c-0.2,0-0.3-0.1-0.5-0.1c-0.3,0-0.7-0.1-1-0.1c-3.9-0.1-7.7-0.1-11.6,0.2
		c-3.6,0.2-6.8,0.5-9.5,0.8c-0.3,0-0.7,0.1-1,0.2c-0.3,0-0.5,0.1-0.8,0.2c-0.3,0.4-0.4,1-0.2,1.5c0.2,0.9,0.5,1.7,0.9,2.5
		c0.3,0.7,0.6,1.2,0.8,1.5C546.3,266.6,546.4,266.8,546.4,267c-0.1-0.1-0.3-0.3-0.4-0.5c-0.2-0.3-0.5-0.8-0.9-1.5
		c-0.5-0.8-0.8-1.7-1-2.6c-0.2-0.6-0.1-1.3,0.3-1.8c0.3-0.2,0.6-0.3,1-0.4c0.3-0.1,0.7-0.1,1-0.2c2.7-0.4,5.9-0.7,9.5-1
		c3.9-0.3,7.8-0.4,11.7-0.2c0.3,0,0.7,0.1,1.1,0.1c0.2,0,0.4,0.1,0.5,0.1c0.1,0,0.2,0.1,0.3,0.2c0.1,0.1,0.2,0.2,0.2,0.3
		c0.2,0.7,0.2,1.4,0,2.1c-0.3,1.3-0.6,2.5-1,3.8l0,0.2h-0.2l-15.8,1l-4.5,0.2l-1.2,0C546.8,267,546.6,267,546.4,267z"/>
	<path class="st5" d="M593.5,268h-0.2l-0.8,0.1l-2.9,0.2l-10.6,0.6l-34.9,1.7l-23.2,1.1l0.2-0.2c0,7.8,0,14.3,0,19
		c0,2.3,0,4.1,0,5.3c0,0.6,0,1,0,1.4c0,0.2,0,0.3,0,0.5c0-0.2,0-0.3,0-0.5c0-0.4,0-0.8,0-1.4c0-1.3-0.1-3.1-0.1-5.3
		c-0.1-4.6-0.1-11.2-0.2-19v-0.2h0.1l23.2-1.1l34.8-1.5l10.6-0.4l2.9-0.1h0.7C593.3,268,593.4,268,593.5,268z"/>
	<path class="st1" d="M567.2,264.7c-0.4,0.1-0.8,0.2-1.2,0.2l-3.3,0.3c-2.8,0.2-6.6,0.5-10.9,0.8s-8.1,0.5-10.9,0.6l-3.3,0.1
		c-0.4,0-0.8,0-1.2,0c0.4-0.1,0.8-0.2,1.2-0.2c0.8-0.1,1.9-0.2,3.3-0.3c2.8-0.2,6.6-0.5,10.9-0.8s8.1-0.5,10.9-0.6l3.3-0.1
		C566.4,264.6,566.8,264.6,567.2,264.7z"/>
	<polygon class="st10" points="544,265.9 544.5,272.1 570.9,270.8 570.5,264.3 	"/>
	<path class="st1" d="M544,265.9c0.2,0,0.3-0.1,0.5-0.1l1.5-0.1l5.5-0.4c4.7-0.3,11.4-0.8,19-1.2h0.2v0.2c0.1,2,0.2,4.2,0.4,6.3v0.4
		h-0.3c-10.9,0.5-20.6,1-26.5,1.2h-0.2v-0.1c-0.1-2-0.2-3.5-0.3-4.7l-0.1-1.2C543.9,266.1,543.9,265.9,544,265.9c0,0.1,0,0.2,0,0.4
		l0.1,1.2c0.1,1.1,0.3,2.7,0.4,4.6l-0.2-0.1c5.9-0.4,15.5-0.9,26.4-1.5l-0.2,0.3v-0.1c-0.1-2.2-0.3-4.3-0.4-6.3l0.3,0.2l-18.9,1
		l-5.6,0.3l-1.5,0L544,265.9z"/>
	<path class="st7" d="M458.8,298.8c0,0,3.2,24,10.1,42.3s15.9,34.1,26,34.8s44.9-5.6,59.4-13.7s24.5-13.7,24.5-13.7l21-14.6
		l-17.6-19.8c0,0-46.4,14.4-54.1,14.8c-4.6,0.3-9.3,0-13.9-0.9c0,0,1.2-19.1-0.9-26.6s-8.8-21.7-8.8-21.7L458.8,298.8z"/>
	<path class="st7" d="M583.9,309c1-3.7,2.3-7.3,3.9-10.8c2.3-5,2.9-10.8,3.1-14s-0.3-9.5,2-10.9s7.7-1.9,7.9,6.1s-2.4,12.3-1.4,16
		c0.6,2.2,1.6,4.3,2.9,6.2l1.7-1.2l1.6,6.7L583.9,309z"/>
	<path class="st7" d="M515.9,295.5l16.5,8.2c0,0,28.5,7.9,40.8,6.4s32.4-3,32.4-3s-3.6-14.9-2.2-25.8c6.8-5.2,15.4-7.6,23.9-6.5
		c14.1,1.8,18,8.3,18.3,8.9c2.5,6.4,11.9,54.7-3.1,64.8s-59.2,1.8-69.8-1.9c-8.9-3.1-33.3-12.9-42-16.4c-2.1-0.8-4.2-1.3-6.5-1.5
		l-10.5-0.6v-8.3c0.1-7.2-1-14.4-3-21.4l-1.9-8.1L515.9,295.5z"/>
	<path class="st8" d="M515.9,295.5l-0.5-0.3l-1.3-1l-5.2-3.8l0.1-0.1c0.5,1.9,1,4.1,1.6,6.6c0.3,1.3,0.7,2.6,1.1,4s0.7,2.9,1,4.5
		c0.7,3.5,1.1,7,1.3,10.5c0.1,1.9,0.1,3.9,0.1,5.9s0,4.1,0,6.3l-0.2-0.2l7.2,0.4l3.8,0.2c1.3,0.1,2.6,0.3,3.8,0.7
		c1.3,0.4,2.5,0.8,3.8,1.4l3.8,1.5l7.9,3.1l17,6.6c3,1.1,6,2.3,9,3.4c1.5,0.6,3.1,1.1,4.7,1.6s3.2,0.9,4.9,1.3
		c6.8,1.6,13.7,2.8,20.6,3.6c7.3,0.9,14.6,1.3,22,1.1c3.8-0.1,7.6-0.5,11.3-1.3c1.9-0.4,3.7-1,5.5-1.7c1.8-0.7,3.5-1.8,4.9-3.1
		c1.4-1.4,2.5-3,3.2-4.8c0.8-1.8,1.4-3.7,1.9-5.6c0.9-3.9,1.3-7.9,1.4-11.9c0.1-7.7-0.4-15.5-1.5-23.1c-0.5-3.8-1.2-7.5-1.9-11.2
		c-0.4-1.8-0.8-3.6-1.3-5.4c-0.1-0.4-0.3-0.9-0.4-1.3c-0.2-0.4-0.5-0.8-0.8-1.1c-0.6-0.7-1.2-1.3-1.9-1.9c-2.9-2.2-6.2-3.8-9.7-4.6
		c-3.4-0.9-6.9-1.4-10.5-1.3c-3.4,0.1-6.9,0.7-10.1,1.9c-3.2,1.1-6.1,2.7-8.8,4.8l0.1-0.1c-0.5,4.4-0.4,8.8,0.1,13.2
		c0.4,4.2,1.1,8.4,2,12.5v0.2h-0.2c-8,0.6-15.7,1.2-22.9,1.9l-10.4,1.1c-3.3,0.2-6.5,0.1-9.7-0.4c-5.7-0.7-11.3-1.7-16.9-2.9
		c-5-1.1-9.5-2.2-13.3-3.3l0,0l-12.3-6.1l-3-1.6C516.3,295.7,515.9,295.5,515.9,295.5c0,0,0.4,0.2,1.1,0.5l3.2,1.5l12.3,6l0,0
		c3.8,1,8.3,2.1,13.3,3.2s10.7,2.2,16.8,2.9c3.2,0.4,6.5,0.5,9.7,0.3l10.4-1.1c7.2-0.7,14.8-1.4,22.9-2l-0.2,0.3
		c-0.9-4.1-1.6-8.3-2.1-12.5c-0.5-4.4-0.6-8.9-0.1-13.3v-0.1l0.1-0.1c2.7-2.1,5.7-3.8,8.9-4.9c3.3-1.2,6.8-1.9,10.3-1.9
		c3.6,0,7.2,0.4,10.6,1.3c3.6,0.9,7,2.5,9.9,4.7c0.7,0.6,1.4,1.3,2,2c0.3,0.4,0.6,0.8,0.8,1.2c0.2,0.5,0.3,0.9,0.5,1.4
		c0.5,1.8,0.9,3.6,1.3,5.5c0.8,3.7,1.4,7.4,2,11.2c1.1,7.7,1.5,15.4,1.3,23.2c-0.1,4-0.6,8.1-1.4,12c-0.4,2-1.1,3.9-1.9,5.7
		c-0.8,1.8-1.9,3.5-3.3,4.9c-2.9,2.8-6.8,4-10.6,4.9c-3.8,0.8-7.6,1.2-11.4,1.3c-7.4,0.2-14.8-0.2-22.1-1.1
		c-7-0.8-13.9-2.1-20.7-3.6c-1.7-0.4-3.3-0.8-4.9-1.3s-3.2-1-4.7-1.6c-3.1-1.1-6.1-2.3-9-3.4l-17-6.7l-7.9-3.2l-3.8-1.5
		c-1.2-0.5-2.5-1-3.7-1.4c-1.2-0.3-2.5-0.6-3.8-0.7l-3.8-0.2l-7.2-0.5h-0.2v-0.2c0-2.2,0-4.3,0-6.3c0-2,0-4-0.1-5.9
		c-0.2-3.5-0.6-7-1.2-10.4c-0.3-1.6-0.6-3.1-1-4.5s-0.8-2.7-1-4l-1.5-6.6v-0.2l0.2,0.1l5.2,3.8l1.3,1L515.9,295.5z"/>
	<path class="st8" d="M630.1,325.6c-0.4-1.6-1-3.1-1.6-4.6c-3.2-7.3-9.9-12.4-17.8-13.4c-1.6-0.2-3.2-0.3-4.8-0.2
		c0.4-0.1,0.9-0.2,1.3-0.2c1.2-0.1,2.4-0.1,3.6,0.1c8.1,0.8,15,6.1,18.1,13.6c0.5,1.1,0.8,2.3,1,3.4
		C630.1,324.7,630.1,325.2,630.1,325.6z"/>
	<path class="st10" d="M514.2,212c-1.6,1.1-31.1,13.4-34,14.9c0,0-31.6,12-27.8,45.6c2.1,18.6,5.5,33.9,5.5,33.9s13.5-8.1,23-12
		c12.3-5,27.2-7.2,27.2-7.2l-8.4-29.8L514.2,212z"/>
	<path class="st1" d="M499,258.3c0.1,0,2.3,6.7,4.9,15s4.5,15.2,4.4,15.2s-2.3-6.7-4.9-15S498.9,258.3,499,258.3z"/>
	<path class="st1" d="M494.7,248.8c-0.9-1.1-1.8-2.2-2.8-3.2l-0.8-0.7l-0.9-0.7c-0.6-0.5-1.3-1-2-1.4c-1.6-1-3.3-1.9-5-2.6
		c-3.2-1.4-6.6-2.1-10-2.3c-1.4,0-2.8,0.1-4.2,0.4c0.4-0.2,0.7-0.3,1.1-0.4c1-0.2,2.1-0.3,3.1-0.4c3.5,0.1,6.9,0.8,10.1,2.2
		c1.8,0.7,3.5,1.6,5.1,2.7c0.7,0.5,1.4,1,2,1.5l0.9,0.7l0.8,0.7c0.4,0.4,0.8,0.9,1.2,1.3c0.3,0.3,0.6,0.7,0.8,1.1
		C494.3,248.1,494.5,248.4,494.7,248.8z"/>
	<path class="st1" d="M464.7,302.8c-0.1-0.2-0.1-0.4-0.2-0.5c-0.1-0.4-0.2-0.9-0.4-1.6c-0.3-1.4-0.8-3.4-1.3-5.9
		c-1-4.9-2.3-11.8-3.4-19.4s-1.9-14.6-2.2-19.6c-0.2-2.5-0.3-4.6-0.4-6c0-0.7,0-1.2,0-1.6c0-0.2,0-0.4,0-0.6
		c0.1,0.2,0.1,0.4,0.1,0.6c0,0.4,0.1,1,0.1,1.6c0.1,1.5,0.3,3.5,0.5,5.9c0.5,5,1.2,12,2.4,19.6s2.4,14.5,3.3,19.4
		c0.5,2.4,0.8,4.4,1.1,5.9c0.1,0.6,0.2,1.2,0.3,1.6C464.7,302.4,464.7,302.6,464.7,302.8z"/>
	<path class="st1" d="M467.9,300.6c-0.1-0.2-0.1-0.4-0.1-0.6c-0.1-0.4-0.2-1-0.3-1.7c-0.3-1.5-0.6-3.6-1.1-6.1
		c-0.9-5.2-2-12.3-3.2-20.3s-2.2-15.1-2.8-20.3c-0.3-2.6-0.5-4.7-0.7-6.2l-0.1-1.7c0-0.2,0-0.4,0-0.6c0.1,0.2,0.1,0.4,0.1,0.6
		c0.1,0.4,0.1,1,0.2,1.7c0.2,1.5,0.5,3.6,0.8,6.2c0.7,5.2,1.8,12.4,2.9,20.3s2.3,15,3.1,20.3c0.4,2.5,0.7,4.6,0.9,6.1
		c0.1,0.7,0.2,1.2,0.2,1.7C467.9,300.2,467.9,300.4,467.9,300.6z"/>
	<g class="st4">
		<path d="M507.8,289.6c5.5,10.6,8.3,22.4,8.1,34.4c9.5,0.9,18.6,4.6,26,10.7c-4.4-3-15.3-6.7-28.1-6.5
			C514.5,308.3,512,302.9,507.8,289.6z"/>
	</g>
	<path class="st9" d="M564.7,210.4c0.2,0.5,0.4,1,0.5,1.6c0.1,0.5,0.3,1.2,0.5,1.9l0.5,2.7c0.8,5.7,1.2,11.4,1.2,17.2
		c0.1,7.3-0.2,16-1,25.7c-0.9,10.6-2.4,21.1-4.5,31.4l-0.4,1.8l-1-1.5l-3.2-4.6c-7-9.7-13.7-18.9-19.4-27.5s-10.6-16.6-14.3-23.5
		c-3-5.4-5.5-11.1-7.6-17c-0.4-1-0.6-2-0.8-2.8s-0.4-1.5-0.5-2.1c-0.2-0.6-0.3-1.2-0.3-1.7c0.1,0,0.7,2.3,2.2,6.4
		c2.2,5.7,4.9,11.3,8,16.6c3.8,6.8,8.8,14.6,14.6,23.2c5.7,8.6,12.5,17.7,19.5,27.4l3.2,4.6l-1.4,0.3c2.1-10.3,3.7-20.8,4.6-31.2
		c0.9-9.6,1.3-18.3,1.3-25.6c0.1-5.7-0.2-11.4-0.7-17.1l-0.3-2.7c-0.1-0.8-0.2-1.4-0.3-1.9C564.9,211.5,564.8,210.9,564.7,210.4z"/>
	<path class="st3" d="M552.5,298.7c-0.2-1.4-0.1-2.8,0.4-4.1c0.7-1.8,2.3-3.8,6.1-4c2.3-0.2,4.6-0.1,6.9,0.4c1.1,0.3,2.1,1,2.7,2
		l5.6,9.4l-0.7,3.3l-6.6,1.6l-4.2-5l-4.3,0.7C558.5,303.1,553.7,304.1,552.5,298.7L552.5,298.7z"/>
	<path class="st1" d="M555.8,291.4c0,0,0.1-0.1,0.2-0.1c0.2-0.1,0.5-0.2,0.7-0.2c0.9-0.2,1.9-0.1,2.8,0.3c1.3,0.6,2.3,1.6,3,2.9
		l2.5,4.4l3,5.5l-0.3-0.1c1.9-0.5,3.6-0.9,4.7-1.2c0.6-0.2,1.2-0.3,1.8-0.4c-0.6,0.3-1.1,0.5-1.7,0.6c-1.1,0.4-2.7,0.8-4.7,1.4h-0.2
		l-0.1-0.2c-0.9-1.6-2-3.5-3.1-5.4c-1.8-3-2.9-6.3-5.2-7.2c-0.8-0.4-1.7-0.6-2.6-0.4C556.5,291.3,556.2,291.4,555.8,291.4z"/>
	<path class="st1" d="M567.2,307.4c-0.1,0-0.1-0.8,0.1-1.6s0.4-1.5,0.6-1.5s0.1,0.8-0.1,1.6S567.4,307.4,567.2,307.4z"/>
	<path class="st1" d="M557.4,303.1c0-0.1,0.4-0.1,1.1-0.3c0.8-0.2,1.6-0.7,2.1-1.4c0.3-0.3,0.5-0.7,0.6-1.1l0.2-0.5l0.3,0.4
		c0.5,0.6,1,1.3,1.3,2.1c-0.1,0.1-0.8-0.7-1.7-1.8l0.4-0.1c-0.1,0.5-0.4,0.9-0.7,1.4c-0.6,0.8-1.5,1.3-2.5,1.4
		C557.8,303.3,557.4,303.2,557.4,303.1z"/>
	<path class="st1" d="M560.2,297.2c-0.1-0.2-0.1-0.5-0.2-0.7c-0.1-0.6-0.4-1.2-0.9-1.7c-0.6-0.7-1.6-0.9-2.5-0.5
		c-1,0.5-1.7,1.6-1.7,2.7c-0.1,1.1,0.5,2.2,1.5,2.8c0.8,0.4,1.8,0.3,2.5-0.3c0.5-0.4,0.8-1,1-1.6C560,297.7,560.1,297.4,560.2,297.2
		c0.1,0.2,0.1,0.5,0,0.8c-0.1,0.7-0.5,1.3-1,1.8c-0.4,0.3-0.8,0.6-1.3,0.7c-0.6,0.1-1.2,0-1.7-0.2c-1.7-1-2.3-3.3-1.2-5
		c0.4-0.6,0.9-1.1,1.5-1.4c0.5-0.2,1.1-0.3,1.7-0.1c0.5,0.2,0.9,0.4,1.2,0.8c0.5,0.5,0.8,1.2,0.8,1.9
		C560.3,296.7,560.3,296.9,560.2,297.2z"/>
	<path class="st1" d="M567.9,293.7c0,0,0,0,0.1,0c0.1,0,0.3,0.1,0.3,0.2l0.3,0.5l0.2,0.3c0.1,0.1,0.1,0.3,0.1,0.5
		c0,0.1-0.1,0.2-0.2,0.3c-0.1,0-0.2,0.1-0.3,0.1l-0.5,0.1l-1,0.2l-2.3,0.4c-0.2,0-0.4-0.1-0.5-0.2c-0.1-0.1-0.1-0.2-0.2-0.3
		l-0.2-0.5l-0.1-0.3c-0.1-0.1-0.1-0.3-0.1-0.4c0-0.2,0.2-0.3,0.3-0.4c0.1,0,0.2-0.1,0.3-0.1l1.9-0.2
		C566.8,293.7,567.3,293.7,567.9,293.7c-0.6,0.2-1.1,0.4-1.7,0.4l-1.9,0.3c-0.2,0-0.2,0-0.2,0.1c0,0.1,0.1,0.3,0.2,0.4l0.2,0.5
		c0,0.1,0.1,0.1,0.1,0.2h0l2.3-0.4l1-0.1l0.5-0.1c0.2,0,0.2,0,0.2-0.1s-0.1-0.4-0.2-0.5l-0.2-0.5
		C568.1,293.8,567.9,293.8,567.9,293.7z"/>
	<path class="st1" d="M572.8,301.7c-0.7,0.4-1.4,0.7-2.2,0.8c-0.8,0.3-1.6,0.4-2.4,0.3c-0.1-0.1,0.9-0.5,2.2-0.8
		C571.2,301.7,572,301.6,572.8,301.7z"/>
</g>
<g id="freepik--character-1--inject-44">
	<path class="st11" d="M126.1,193.4c0,0,1.9-1.6,3.2,0s0.8,4.3-0.2,6.7s-6.6,7.2-6.6,7.2l2.1-11.8L126.1,193.4z"/>
	<path class="st11" d="M74,244.7c2.9-3-8.4,29.4-8.1,55.5c0.3,25.6,6.6,34.2,17.8,32.7s45.4-39.8,45.4-39.8l20.5-61
		c0,0-13-2.4-23.9,6.7s-29.4,37.4-29.4,37.4l0.2-35L74,244.7z"/>
	<path class="st6" d="M73.5,242c0,0,1.5-14.8,4.5-22.2s8.5-19.2,8.9-20.4s5.5-11.7,11.7-11.4c1.6-2,4.4-2.8,6.9-1.9
		c0,0,6.9-2.5,9.9,1.5c0,0-7.9-0.3-7.9,2.5c0.1,1.8,0.7,3.5,1.9,4.8c0,0-1.3,6.9,0,8.3s14.2,2,14.2,2c0.2,0.1-1.8,4-5.5,8.2
		c-7.7,8.7-13.2,8.6-13.2,8.6l-4.2,6.2c0,0-2.2,8.3-1.9,11.2c0.2,1.9-0.8,10.8-2.8,12.2c-3.8,2.8-22.6-6.1-22.6-6.1L73.5,242z"/>
	<path class="st11" d="M114.7,187.6c0,0,3.4-0.4,5.6,1.4c0,0,4.3-0.6,5.1,2.4s-1,13.7-1.6,14.3s-4.3,5.3-7.5,3.9
		c0,0-2.7,2.2-5.2,0.8c0,0-2.6-0.7-2.7-3c0-1,0.5-2,1.3-2.6l2.4-1.9l-3.5-14.1C110.5,187.9,112.6,187.5,114.7,187.6z"/>
	<path class="st12" d="M114.7,187.6c-0.1,0-0.3,0-0.4,0l-1.2,0.1c-1.5,0.1-3,0.5-4.4,1.1l0.1-0.2c0.9,3.5,2.2,8.4,3.6,14.1v0.1
		l-0.1,0.1c-0.6,0.5-1.2,1-1.9,1.6c-0.7,0.5-1.2,1.1-1.6,1.8c-0.3,0.8-0.2,1.6,0.3,2.3c0.5,0.7,1.2,1.2,2.1,1.4h0.1
		c0.7,0.4,1.4,0.5,2.2,0.4c0.8-0.1,1.6-0.4,2.2-0.9c0.2-0.1,0.3-0.2,0.5-0.3l0.1-0.1l0.1,0.1c1.4,0.6,2.9,0,4.1-0.9
		c1.2-0.9,2.2-1.9,3.2-3l0.1-0.2l0.1-0.2c0.1-0.2,0.1-0.3,0.1-0.5c0.1-0.3,0.2-0.7,0.2-1c0.2-0.7,0.3-1.4,0.4-2
		c0.2-1.3,0.4-2.6,0.6-3.9s0.2-2.5,0.3-3.6c0.1-1.1,0-2.2-0.4-3.2c-0.5-0.8-1.3-1.4-2.2-1.6c-0.8-0.2-1.7-0.2-2.5-0.2h-0.1h-0.1
		c-1.2-0.8-2.5-1.3-3.9-1.4C115.1,187.5,114.6,187.6,114.7,187.6c0-0.1,0.1,0,0.3-0.1c0.4,0,0.8,0,1.1,0c1.5,0,2.9,0.5,4.1,1.4h-0.1
		c0.9-0.1,1.8-0.1,2.6,0.1c1,0.2,1.9,0.8,2.5,1.7c0.4,1.1,0.5,2.2,0.5,3.4c0,1.2-0.1,2.4-0.2,3.7s-0.3,2.6-0.5,3.9
		c-0.1,0.7-0.2,1.4-0.4,2c-0.1,0.3-0.2,0.7-0.2,1c0,0.2-0.1,0.4-0.2,0.5l-0.1,0.3c0,0.1-0.1,0.2-0.2,0.3c-0.9,1.2-2,2.2-3.2,3.1
		c-0.6,0.4-1.4,0.8-2.1,1c-0.8,0.2-1.7,0.2-2.4-0.1h0.3c-0.2,0.1-0.3,0.3-0.5,0.4c-0.7,0.5-1.6,0.8-2.4,0.9c-0.9,0.1-1.7,0-2.5-0.5
		h0.1c-0.9-0.3-1.8-0.9-2.3-1.6c-0.6-0.8-0.7-1.8-0.4-2.8c0.4-0.8,1-1.5,1.7-2l1.9-1.5l-0.1,0.2l-3.4-14.1v-0.1l0.1-0.1
		c1.4-0.6,3-1,4.6-1c0.5,0,0.9,0,1.2,0C114.4,187.5,114.5,187.5,114.7,187.6z"/>
	<path class="st12" d="M116.2,209.5c0.6-0.8,1.3-1.5,2-2.1c1.2-1.3,3.1-3.1,3.6-5.8c0.2-1.3,0.4-2.5,0.4-3.8c0-1.2,0.1-2.3,0-3.1
		c0-0.7-0.1-1.4-0.2-2.1c-0.1-0.5-0.2-0.7-0.2-0.7s0.7,1,0.8,2.8c0.1,0.9,0.1,2,0.1,3.2c0,1.3-0.1,2.6-0.3,3.9
		c-0.3,1.3-0.8,2.5-1.7,3.6c-0.7,0.8-1.4,1.6-2.2,2.3C117.8,208.4,117.1,209,116.2,209.5z"/>
	<path class="st12" d="M116.2,189.8c0.3,0.1,0.6,0.3,0.8,0.5c0.3,0.2,0.6,0.5,0.8,0.8c0.2,0.2,0.3,0.4,0.5,0.5
		c0.2,0.2,0.3,0.4,0.5,0.7c0.3,1.3,0.4,2.6,0.3,3.9c-0.1,1.6-0.2,3.2-0.5,4.8c-0.1,0.4-0.1,0.8-0.2,1.2l-0.1,0.6
		c-0.1,0.2-0.1,0.4-0.2,0.6c-0.4,0.7-0.8,1.3-1.4,1.9c-0.9,1-1.8,1.9-2.8,2.7c-0.8,0.7-1.6,1.3-2.1,1.6c-0.2,0.2-0.5,0.4-0.8,0.5
		c0-0.1,1-0.9,2.6-2.4c1-0.9,1.9-1.8,2.7-2.8c0.5-0.6,0.9-1.2,1.3-1.8c0.1-0.2,0.1-0.4,0.2-0.5l0.1-0.6l0.2-1.2
		c0.2-1.7,0.4-3.2,0.5-4.7c0.1-1.3,0.1-2.5-0.2-3.8c-0.2-0.4-0.5-0.8-0.8-1.2c-0.2-0.3-0.5-0.6-0.8-0.8
		C116.7,190.2,116.5,190,116.2,189.8z"/>
	<path class="st11" d="M110.8,189.3c1.7,1.2,2.8,3,3.3,5c-0.3,3.2-0.7,9.8-2.7,10.3c-1.6,0.4-3.1-0.6-3.5-2.2c0-0.2-0.1-0.3-0.1-0.5
		c0-1.5,1.3-6.9,1.3-6.9s-4.3-4.6-0.7-6.5"/>
	<path class="st12" d="M108.5,188.5c-0.1,0.1-0.3,0.3-0.4,0.4c-0.4,0.3-0.7,0.7-0.8,1.2c-0.3,1.3,0.6,3.1,2.1,4.8l0.1,0.1v0.1
		c-0.3,1.5-0.7,3.1-1,4.9c-0.2,0.9-0.3,1.8-0.1,2.6c0.3,0.9,1,1.5,1.9,1.7c0.5,0.2,1.1,0.1,1.6-0.2c0.4-0.4,0.7-0.9,0.8-1.4
		c0.3-1.1,0.6-2.2,0.7-3.3c0.2-1.1,0.3-2.1,0.4-3.1c0.1-0.5,0.1-0.9,0.2-1.4c0-0.2,0.1-0.4,0.1-0.6c0-0.2-0.1-0.4-0.1-0.6
		c-0.4-1.2-1.1-2.4-1.9-3.4c-0.3-0.4-0.6-0.7-1-1c0,0,0.1,0,0.3,0.2c0.3,0.2,0.6,0.4,0.8,0.7c0.9,1,1.7,2.1,2.1,3.4
		c0.1,0.2,0.1,0.4,0.2,0.7c0,0.2,0,0.5,0,0.7c0,0.4-0.1,0.9-0.1,1.4c-0.1,1-0.2,2-0.3,3.1c-0.1,1.2-0.4,2.3-0.7,3.4
		c-0.2,0.6-0.5,1.2-1,1.7c-0.6,0.4-1.3,0.5-2,0.4c-1.1-0.3-1.9-1-2.3-2.1c-0.2-0.5-0.2-1-0.1-1.5c0-0.5,0.1-0.9,0.2-1.4
		c0.3-1.8,0.7-3.4,1.1-4.9l0.1,0.2c-0.7-0.8-1.3-1.7-1.7-2.7c-0.4-0.8-0.5-1.6-0.3-2.4c0.2-0.5,0.5-1,0.9-1.3
		C108.3,188.6,108.4,188.5,108.5,188.5z"/>
	<path class="st9" d="M94.6,219.3c1.6,0.8,3.4,1.5,5.1,2.1c1.8,0.4,3.6,0.6,5.5,0.7C101.4,222.8,97.5,221.7,94.6,219.3z"/>
	<path class="st5" d="M100.4,200.7c-0.5-0.5-0.8-1.1-1.1-1.7c-0.7-1.5-1.1-3-1.3-4.6c-0.2-1.6-0.2-3.2,0.2-4.8
		c0.1-0.7,0.3-1.3,0.6-1.9c-0.3,2.2-0.4,4.5-0.2,6.7C98.9,196.5,99.5,198.7,100.4,200.7z"/>
	<path class="st5" d="M99.4,234.5c-0.4-0.2-0.8-0.4-1.2-0.6c-0.5-0.2-0.9-0.5-1.3-0.8c-0.6-0.4-1.1-0.8-1.7-1.2l-0.9-0.8
		c-0.3-0.3-0.6-0.6-1-0.9c-0.7-0.6-1.3-1.3-2-2.1c-1.4-1.7-2.7-3.5-3.7-5.4c-1-1.9-1.9-4-2.5-6.1c-0.3-1-0.5-1.9-0.7-2.8
		c-0.2-0.8-0.3-1.6-0.4-2.5c-0.1-0.8-0.1-1.4-0.1-2.1c0-0.5,0-1,0-1.6c0-0.4,0-0.9,0.1-1.3c0.1,0,0,1.9,0.4,4.9
		c0.1,0.8,0.2,1.6,0.4,2.4s0.4,1.8,0.7,2.8c0.6,2.1,1.5,4.1,2.5,6c1,1.9,2.2,3.7,3.6,5.4c0.7,0.7,1.3,1.5,1.9,2.1l0.9,0.9l0.9,0.8
		C97.8,233.5,99.5,234.4,99.4,234.5z"/>
	<path class="st5" d="M96.1,249.3c-0.4,0-0.8-0.1-1.2-0.2c-0.4-0.1-0.9-0.2-1.3-0.4c-0.5-0.2-1.1-0.3-1.7-0.6
		c-1.5-0.6-2.9-1.3-4.2-2.1c-1.6-1-3.2-2.2-4.6-3.5c-1.4-1.3-2.6-2.8-3.7-4.4c-0.9-1.3-1.7-2.7-2.3-4.1c-0.3-0.5-0.5-1.1-0.7-1.7
		c-0.2-0.4-0.3-0.9-0.4-1.3c-0.1-0.4-0.2-0.8-0.2-1.1c0.1,0,0.5,1.6,1.7,4c0.7,1.4,1.5,2.7,2.3,4c1.1,1.5,2.3,3,3.7,4.3
		c1.4,1.3,2.9,2.5,4.5,3.5c1.3,0.8,2.7,1.6,4.1,2.2C94.5,248.8,96.1,249.2,96.1,249.3z"/>
	<path class="st12" d="M94.8,308c0-0.4,0.1-0.9,0.2-1.3c0.2-0.8,0.5-2,0.8-3.5c0.7-3.8,1.2-7.8,1.3-11.7c0.1-3.9-0.1-7.8-0.7-11.7
		c-0.2-1.5-0.4-2.7-0.6-3.5c-0.1-0.4-0.2-0.9-0.2-1.3c0.2,0.4,0.3,0.8,0.4,1.3c0.2,0.8,0.5,2,0.7,3.5c0.7,3.9,0.9,7.8,0.8,11.8
		c-0.1,4-0.6,7.9-1.5,11.7c-0.3,1.5-0.7,2.7-0.9,3.5C95.2,307.2,95,307.6,94.8,308z"/>
	<path class="st6" d="M106.5,475.7c0,0,6.9-50,20.5-75.7l6.2-23.1l105.4-11.3l9.8,18.9c0,0,21.6,26.3,21.6,91.3h-79.7l-4.3-15
		l-6.8,15L106.5,475.7z"/>
	<path class="st9" d="M186,437.2c-0.2,0-0.3,0-0.5-0.1l-1.4-0.3c-0.7-0.1-1.5-0.3-2.2-0.5c-0.8-0.2-1.8-0.5-2.9-0.9l-1.6-0.6
		c-0.6-0.2-1.1-0.5-1.8-0.7c-1.2-0.5-2.4-1.2-3.8-1.8c-5.6-3.1-10.6-7.1-14.8-12.1c-0.9-1.1-1.8-2.2-2.5-3.3c-0.4-0.5-0.8-1-1.1-1.6
		l-0.9-1.5c-0.6-0.9-1-1.9-1.4-2.6c-0.4-0.6-0.7-1.3-1-2c-0.2-0.5-0.4-1-0.6-1.3c-0.1-0.1-0.1-0.3-0.2-0.5c0,0,0.1,0.1,0.3,0.4
		s0.4,0.8,0.6,1.3s0.6,1.2,1,2s0.9,1.7,1.5,2.6l0.9,1.5c0.3,0.5,0.7,1,1.1,1.5c0.7,1.1,1.6,2.1,2.6,3.3c2.1,2.4,4.3,4.6,6.8,6.6
		c2.5,2,5.1,3.8,7.9,5.3c1.3,0.7,2.5,1.4,3.7,1.9c0.6,0.3,1.1,0.5,1.7,0.8l1.6,0.6c1,0.4,2,0.7,2.8,1s1.6,0.5,2.2,0.6l1.4,0.4
		C185.6,437.1,185.8,437.2,186,437.2z"/>
	<path class="st11" d="M238.5,365.6l-6.9-19.1l12.2-109l-29.5-7.6l-41.2-1.3l-27.2,5.7c0,0-18.6,34.4-17.6,55.7s5.6,32.9,5.6,32.9
		l3.4,25.5l-2.6,32.9c0,0,10.8,25.2,44.9,24.4S238.5,365.6,238.5,365.6z"/>
	<path class="st3" d="M136.5,349l-3.5-20.2c0,0-7.9-20.3-8.8-30.6s11.2-32.8,11.2-32.8s5.8,33,33.9,30s45.8-30,45.8-30l19.7,52.6
		l-3.2,29.6L136.5,349z"/>
	<path class="st1" d="M234,335c0,0.1-22.1,0.3-49.4,0.3s-49.4-0.1-49.4-0.3s22.1-0.3,49.4-0.3S234,334.9,234,335z"/>
	<g class="st4">
		<path d="M176.1,294.1c0,0,4.6,33.4,12.3,47.5s14.1,18.4,22.1,14.7s21.6-13.3,21.6-13.3l1.5-13.1L176.1,294.1z"/>
	</g>
	<line class="st13" x1="214.5" y1="266.3" x2="222.2" y2="231.9"/>
	<path class="st1" d="M215.1,266.5l6.7-30.1l1-4.3c0.2-0.8-1-1.1-1.2-0.3l-6.7,30.1l-1,4.3C213.7,266.9,214.9,267.3,215.1,266.5
		L215.1,266.5z"/>
	<path class="st12" d="M134.9,247.1c0,0.9,0,1.8-0.1,2.7c-0.1,1.6-0.2,3.9-0.1,6.4c0.1,2.5,0.4,4.8,0.6,6.4c0.2,0.9,0.3,1.8,0.3,2.6
		c-0.3-0.8-0.6-1.7-0.7-2.6c-0.4-2.1-0.7-4.3-0.8-6.4c-0.1-2.2,0-4.3,0.2-6.5C134.5,248.9,134.6,248,134.9,247.1z"/>
	<path class="st1" d="M135.9,270.4l4.8-37.1c0.1-0.8-1.1-0.8-1.2,0l-4.8,37.1C134.6,271.2,135.8,271.2,135.9,270.4z"/>
	<path class="st1" d="M184.5,327c-0.4,0-0.7,0-1.1-0.1c-1-0.1-2-0.3-2.9-0.5c-1.4-0.3-2.9-0.8-4.2-1.3c-1.7-0.7-3.3-1.5-4.9-2.4
		c-1.5-0.9-3-2-4.4-3.2c-1.1-1-2.2-2-3.1-3.1c-0.6-0.7-1.3-1.5-1.8-2.4c-0.2-0.3-0.4-0.6-0.6-0.9c0.1-0.1,1,1.2,2.6,3
		c1,1.1,2,2.1,3.2,3c1.4,1.1,2.8,2.2,4.4,3.1c1.5,0.9,3.1,1.7,4.8,2.4c1.3,0.5,2.7,1,4.1,1.4C183,326.7,184.6,326.9,184.5,327z"/>
	<path class="st1" d="M201.3,87c2.1-2.5,5.3-4,8.6-3.8c1.3,0.1,2.8,0.3,3.9-0.4c0.7-0.7,1.3-1.4,1.7-2.3c1.8-2.3,5.2-2.7,7.5-0.9
		c0.1,0,0.1,0.1,0.2,0.1c0.5,0.6,1,1,1.6,1.4c2.7,1.2,5.1-3.9,7.8-2.7c-1.1,0.5-2.1,1.4-2.7,2.4c-0.6,1.1-0.4,2.5,0.6,3.4
		c2.6,1.9,6.1-3.1,8.9-1.5c1.5,0.8,1.9,3.2,3.6,3.5c0.7,0,1.4-0.1,2-0.3c2.3-0.4,4.5,1.1,5,3.4c0.3,1.9-0.4,4.3,1.1,5.4
		c0.9,0.7,2.3,0.5,3.4,0.2c0.1,1.8-0.2,3.5-0.9,5.1c3.3,1.7,4.6,5.8,3,9.1c1.7,1,3.1,2.2,4.3,3.8c1.2,1.6,1.3,3.7,0.4,5.4
		c-0.3,0.3-0.5,0.7-0.6,1.1c-0.1,0.5-0.1,0.9,0.1,1.4c0.5,1.8,1.4,3.4,1.5,5.2s-1.1,3.9-2.9,3.9c-0.4,0-0.9-0.1-1.2,0.1
		c-0.2,0.2-0.4,0.5-0.4,0.9c0,1.3,0.2,2.6,0.5,3.9c0.4,1.3,0.3,2.6-0.3,3.8c-0.7,1.1-2.4,1.6-3.3,0.7c0.7,2,1.3,4,2,5.9
		c0.4,1.2,0.8,2.6,0,3.6c-1.1,1.2-3.2,0.5-4.2-0.8s-1.3-3-2.3-4.3c-0.5-0.5-0.9-1-1.2-1.6c-0.2-0.5-0.3-1.1-0.8-1.4
		c-0.9-0.6-2,0.6-1.8,1.7c0.4,1,1,1.9,1.8,2.5c0.7,0.8,1.4,1.9,0.9,2.8c-0.2,0.5-0.7,0.8-0.9,1.2c-0.7,1.6,1.6,2.9,2,4.6
		c0.3,1.3-0.6,2.5-1.4,3.5c-1,1.2-3.1,2.3-4,0.9c-0.2-0.5-0.3-1-0.5-1.6c-0.3-0.6-0.8-1-1.4-1.4c-1.3-1-2.2-2.3-2.8-3.9
		c1.5,1.6,3,3.6,2.2,5.6c-0.4,0.8-1,1.5-1.6,2.1c-1.1,1.4-1.8,3-2.8,4.4s-3,2.4-4.6,1.6c0.8,2-0.2,4.3-2.2,5.1
		c-1.4,0.6-3,0.3-4.1-0.7c-0.3-0.4-0.7-0.7-1.1-0.9c-0.5-0.1-1,0-1.5,0.1c-3.1,0.8-6.4-0.3-8.4-2.7l1.5-0.7c-3.1-0.2-6.3-0.4-9-1.9
		s-4.6-4.9-3.5-7.8c0.5-1.2,1.5-2.6,0.9-3.8c-0.5-0.8-1.4-1.3-2.3-1.4l-11.2-3c-1.8-0.5-3.7-1-5-2.4s-1.6-3.9-0.1-5
		c-1-1.6-2.4-3-4.1-3.8c-1.9-0.9-4-1.3-6-2.1s-3.8-2.6-3.8-4.7s2.8-4,4.3-2.6c-0.5-3.2-6.2-2.9-6.9-6c-0.6-2.5,2.6-4.1,4.1-6.2
		c-0.4-0.9-1.4-1.4-1.8-2.2c-0.9-1.8,0.9-3.8,2.6-4.8s3.9-2,4.2-4s-1.6-4.2-0.7-6c0.6-1,1.8-1.5,2.9-1c1.2-3.8,8.3-1.5,10-5.1
		c0.2-0.3,0.2-0.6,0.2-0.9c-0.1-0.3-0.2-0.5-0.4-0.7c-1-0.8-2.1-1.5-3.2-2.1c-1.1-0.7-2-2-1.6-3.2s2.6-1.4,2.7-0.1
		c1.2-1,2.9-1,4,0.2c0.2,0.2,0.3,0.4,0.4,0.6c0.9-1.1,2.5-1.4,3.8-0.6c1.2,0.7,2.2,1.7,3,2.9"/>
	<path class="st3" d="M221.7,126.2c-1.6-5.1-5.9-9-10.5-11.8c-1.9-1.3-4-2.1-6.3-2.4c-2.3-0.2-4.5,1-5.7,3l0.7,3.7
		c0.1,6,5.2,10.6,8,15.9c1.2,2.3,2.3,5.2,4.8,6c1.3,0.4,2.8,0.2,4-0.4C221.5,137.8,223.4,131.3,221.7,126.2z"/>
	<path class="st1" d="M225,153.7c2.9-5.1,1.7-11.5-2.8-15.2c1.9-3,0.6-7.2-1.9-9.6s-6-3.7-9.4-4.8c-2.7-7.8-12.4-12.5-20.2-9.6
		c-4.9-5.7-13.9-5.6-20.8-2.7c-1.6,0.8-3.4,1.4-5.2,1.8c-1.3,0.1-2.7,0-4-0.1c-7.4-0.2-14,5.8-16,12.8c-0.2,1.2-0.6,2.3-1.2,3.3
		c-0.8,1.3-2.1,2.2-3.3,3.3c-2.4,2.4-3.7,5.7-3.4,9.1c0.2,2.8,1.4,5.7,0.5,8.4c-0.4,1.4-1.4,2.5-1.7,3.9c-0.9,4,3.8,7.5,3.5,11.6
		c-0.1,0.8-0.4,1.6-0.5,2.5c-0.3,1.7,0.1,3.5,1,4.9c0.7,1.1,1.8,2.1,2,3.4c0,1,0,2-0.3,3c-0.2,2.4,6,11.1,8.2,12.2l62-6.5
		c4.7-1.6,7.8-6,7.8-11c-0.1-0.8,0-1.6,0.3-2.3c0.4-0.5,1-1,1.6-1.3c3.8-2.6,3.6-8.1,2.7-12.6c-0.2-0.6-0.2-1.3-0.2-1.9
		C224.1,155.3,224.5,154.5,225,153.7z"/>
	<path class="st11" d="M207.3,156c-1.1-11-9.4-22.8-20.9-26.9c-7.2-2.6-12.6-2-16.2-2c-5.1,0.1-10.1,1.7-14.2,4.7
		c-3.3,1.2-14.5,14.1-13.8,26.6c0.9,13.9,2.4,30.8,5.4,40.9c5.9,20.2,22,20.9,22,20.9l0.8,10.9l-0.9,32.1l39-24.7l5.7-4.2L207.3,156
		z"/>
	<path class="st12" d="M176.5,192.2c-0.2-1-0.8-1.8-1.6-2.4c-1.5-1.1-3.6-1.1-5.1,0.1c-1.5,1.2-1.5,3-1.1,5l0,0
		c0.9,1.1,1.7,2.2,3.1,2.3c0.2,0,0.5,0,0.7,0c1.1-0.1,2.2-0.6,3-1.4C176.3,194.7,176.7,193.4,176.5,192.2z"/>
	<path class="st1" d="M153,174.1c0.2,1.4,1.4,2.5,2.9,2.4c1.4-0.1,2.5-1.2,2.4-2.6c0,0,0-0.1,0-0.1c-0.2-1.4-1.4-2.5-2.9-2.4
		C154,171.4,152.9,172.6,153,174.1C153,174,153,174,153,174.1z"/>
	<path class="st1" d="M147.9,165.6c0.4,0.3,2.2-1.4,5-1.8s5.1,0.8,5.4,0.4c0.1-0.2-0.3-0.8-1.3-1.3c-1.3-0.7-2.9-1-4.4-0.8
		c-1.5,0.2-2.9,0.8-4,1.9C147.9,164.8,147.7,165.4,147.9,165.6z"/>
	<path class="st1" d="M167.4,186c0-0.2-1.8-0.2-4.7-0.3c-0.7,0-1.4,0-1.6-0.5c-0.2-0.7-0.1-1.5,0.2-2.2c0.5-1.8,0.9-3.8,1.5-5.8
		c2-8.3,3.4-15,3-15.1s-2.2,6.6-4.2,14.8c-0.5,2-0.9,4-1.4,5.8c-0.3,0.9-0.3,2,0,2.9c0.3,0.5,0.8,0.8,1.3,0.9c0.4,0,0.8,0,1.3,0
		C165.6,186.4,167.4,186.2,167.4,186z"/>
	<path class="st12" d="M169.5,220c9.8-1.1,19.1-4.8,26.9-10.8c0,0-5.6,15.5-26.5,16.1L169.5,220z"/>
	<path class="st1" d="M147.7,155.9c0.4,0.8,2.6,0.5,5.2,1s4.6,1.4,5.2,0.8c0.3-0.3,0.1-1-0.7-1.8c-2.3-2-5.5-2.6-8.4-1.5
		C148,154.9,147.6,155.5,147.7,155.9z"/>
	<path class="st1" d="M183.7,171.7c0.1,1.4-0.9,2.7-2.3,2.9c-1.4,0.2-2.7-0.7-2.9-2.1c0,0,0,0,0-0.1c-0.1-1.4,0.9-2.7,2.3-2.9
		C182.1,169.3,183.4,170.3,183.7,171.7C183.7,171.7,183.7,171.7,183.7,171.7z"/>
	<path class="st1" d="M187,161.8c-0.3,0.4-2.4-0.9-5.3-0.7s-4.8,1.9-5.2,1.6c-0.2-0.1,0.1-0.8,1-1.5c1.2-1,2.6-1.6,4.1-1.7
		c1.5-0.1,3,0.2,4.3,1C186.8,161,187.2,161.6,187,161.8z"/>
	<path class="st1" d="M184.4,150c-0.3,0.8-2.6,0.8-5.2,1.6s-4.6,1.9-5.3,1.4c-0.3-0.2-0.2-1,0.6-1.9c1-1.1,2.4-2,3.9-2.4
		c1.5-0.5,3.1-0.5,4.5-0.1C184,149.1,184.5,149.6,184.4,150z"/>
	<path class="st11" d="M206.4,175.9c-0.2-1.5,1.1-5.4,2.6-5.8c4-1.1,11.3-1.7,12.7,8.6c1.9,14.1-12.7,13-12.8,12.6
		S207,181.2,206.4,175.9z"/>
	<path class="st12" d="M212.1,185.6c0.1-0.1,0.3,0.1,0.7,0.3c0.6,0.2,1.3,0.1,1.8-0.2c1.4-0.8,2.4-3.3,2.1-5.8
		c-0.1-1.2-0.5-2.4-1.1-3.4c-0.4-0.9-1.2-1.5-2.1-1.6c-0.6-0.1-1.2,0.3-1.4,0.9c-0.1,0.4,0,0.7-0.1,0.7s-0.3-0.2-0.3-0.8
		c0-0.4,0.2-0.7,0.4-0.9c0.3-0.3,0.8-0.5,1.3-0.5c1.2,0.1,2.3,0.8,2.9,1.9c0.8,1.1,1.2,2.4,1.4,3.8c0.3,2.9-0.8,5.7-2.8,6.6
		c-0.7,0.3-1.6,0.3-2.3-0.1C212.2,185.9,212.1,185.6,212.1,185.6z"/>
	<path class="st1" d="M139,158.8c2.6-2.1,4.1-4.8,3.6-8.1c2,0.3,3.6-2.3,4.5-4.1s2.1-2.8,1.8-4.7c-0.1-0.4-0.1-0.8,0-1.2
		c0.2-0.6,0.9-0.8,1.4-1.1c2.9-1.4,5-4.1,5.4-7.3c3.2,0.9,6.6,1.1,9.9,0.4c2.8,3.2,7.7,3.4,10.9,0.6c0.9-0.8,1.5-1.7,2-2.8
		c1.2,1.6,3,2.6,5,2.8c2,0.2,3.9,0,5.9-0.4c-0.3,4,2.5,7.7,6.5,8.5c0.5,0,1,0.2,1.4,0.6c0.2,0.5,0.2,1.1,0,1.6
		c-0.7,3.5,1.6,6.8,5,7.5c0.1,0,0.2,0,0.2,0c-1.7,2-1.5,5,0.4,6.7c0.3,0.2,0.6,0.5,0.9,0.6c0.6,0.2,1.3,0.5,1.3,1.1
		c0,0.2-0.1,0.5-0.2,0.6c-1,1.5-1.6,3.2-1.6,4.9c0.1,1.8,1.5,3.6,3.3,3.4c-0.9,0.9-1.4,2.1-1.4,3.3c0.1,1.2,1.5,2.3,2.6,1.7
		c0.5-0.2,7.3-2.5,7.6-3c3.3-5.9-2.4-11.3-3.7-17.9c-1.4-6.7-4.3-12.9-8.5-18.2c-1.7-2.3-3.6-4.4-5.9-6.2c-2.6-1.9-5.5-3.5-8.5-4.7
		c-3.8-1.8-7.8-3.5-12-4c-7.8-0.9-15.4,2.9-22.1,7c-2.6,1.5-5,3.3-7.1,5.5c-2.3,2.7-4.2,5.8-5.4,9.2c-2,4.8-3.4,9.9-3.3,15.1"/>
	<path class="st9" d="M135.7,154.2c0.1-0.6,0.3-1.1,0.6-1.6c0.2-0.5,0.6-1.1,0.9-1.9c0.3-0.9,0.5-1.8,0.5-2.7
		c-0.1-1.2-0.2-2.3-0.5-3.5c-0.3-1.4-0.5-2.8-0.4-4.2c0.1-1.6,0.6-3.2,1.3-4.7c0.4-0.8,0.9-1.5,1.5-2.2c0.6-0.7,1.3-1.3,2-1.9
		c0.7-0.6,1.4-1.3,1.9-2.1c0.5-0.9,0.8-1.8,1-2.8c1.2-4.4,3.9-8.2,7.7-10.8c1-0.7,2.1-1.2,3.2-1.7c1.2-0.4,2.4-0.7,3.6-0.9
		c0.6-0.1,1.3-0.1,1.9-0.1c0.6,0,1.3,0.1,1.9,0.1c1.3,0.1,2.6,0,3.8-0.5c1.2-0.4,2.4-1,3.7-1.5c2.6-1,5.3-1.6,8-1.8
		c1.4,0,2.8,0,4.2,0.3c2.9,0.4,5.6,1.8,7.7,3.8l0.6,0.6l-0.2-0.1c8.3-2.7,17.3,1.6,20.4,9.8l-0.1-0.1c1.8,0.6,3.5,1.2,5.3,2
		c1.7,0.8,3.2,1.8,4.5,3.1c1.2,1.3,2.1,2.9,2.4,4.6c0.4,1.7,0.1,3.4-0.8,4.9v-0.2c2.1,1.7,3.6,4.1,4.1,6.8c0.5,2.4,0.3,4.9-0.6,7.2
		c-0.2,0.5-0.5,1-0.8,1.5c-0.3,0.5-0.6,0.9-0.8,1.4c-0.2,0.4-0.3,0.9-0.3,1.4c0,0.5,0.1,1,0.2,1.4c0.4,1.8,0.5,3.6,0.5,5.4
		c0,1.5-0.3,2.9-0.9,4.2c-0.4,1-1.1,1.9-1.9,2.6c-0.7,0.6-1.3,0.8-1.6,1.1c-0.2,0.1-0.3,0.3-0.5,0.5c0.1-0.2,0.2-0.4,0.4-0.5
		c0.3-0.3,0.9-0.6,1.6-1.2c0.8-0.7,1.4-1.6,1.8-2.5c0.5-1.3,0.8-2.7,0.8-4.2c0-1.8-0.2-3.6-0.5-5.3c-0.1-0.5-0.2-1-0.2-1.5
		c0-0.5,0.1-1.1,0.4-1.6c0.2-0.5,0.5-1,0.8-1.4c0.3-0.5,0.5-1,0.7-1.5c0.9-2.2,1.1-4.7,0.6-7c-0.5-2.6-1.9-5-4-6.6l-0.1-0.1l0.1-0.1
		c0.8-1.4,1.1-3.1,0.7-4.7c-0.4-1.7-1.2-3.2-2.3-4.4c-1.3-1.3-2.7-2.3-4.4-3c-1.7-0.8-3.4-1.4-5.2-2h-0.1v-0.1
		c-3.1-7.9-11.8-12.1-19.9-9.5h-0.1l-0.1-0.1L190,114c-2-2-4.6-3.3-7.4-3.7c-1.4-0.2-2.8-0.3-4.1-0.2c-1.4,0.1-2.7,0.2-4.1,0.5
		c-1.3,0.3-2.6,0.7-3.8,1.2c-1.2,0.5-2.4,1.1-3.7,1.5c-0.6,0.2-1.3,0.4-2,0.4c-0.7,0.1-1.3,0.1-2,0l-1.9-0.1c-0.6,0-1.2,0-1.9,0.1
		c-1.2,0.1-2.4,0.4-3.6,0.8c-1.1,0.4-2.2,1-3.2,1.7c-1.9,1.3-3.6,2.9-4.9,4.9c-1.2,1.7-2.2,3.7-2.7,5.8c-0.2,1-0.6,2-1.1,2.9
		c-0.5,0.8-1.2,1.6-2,2.2c-0.7,0.6-1.4,1.2-2,1.9c-0.6,0.7-1.1,1.4-1.5,2.1c-0.7,1.4-1.2,3-1.3,4.6c-0.1,1.4,0.1,2.8,0.4,4.1
		c0.3,1.2,0.4,2.3,0.5,3.5c0,1-0.1,1.9-0.5,2.8c-0.3,0.8-0.7,1.3-0.9,1.8c-0.2,0.4-0.4,0.8-0.5,1.1
		C135.7,154.1,135.7,154.2,135.7,154.2z"/>
	<path class="st9" d="M183.7,112.2c0,0-0.4-0.2-1.1-0.4c-1-0.4-2.1-0.5-3.2-0.5c-1.6,0-3.2,0.4-4.6,1.2c-1.7,1-3,2.5-3.8,4.3
		c-0.2,0.5-0.4,1.1-0.5,1.7c-0.1,0.5,0,1.1,0.3,1.5l0.4,0.4l-0.6-0.1c-1.5-0.2-3.1,0.2-4.3,1.1c-1,0.7-1.7,1.7-2.1,2.9
		c-0.2,0.8-0.3,1.6-0.3,2.4c0,0.6,0.1,0.9,0.1,0.9s-0.1-0.1-0.1-0.2c-0.1-0.2-0.1-0.4-0.2-0.7c-0.3-2.1,0.6-4.3,2.3-5.6
		c1.3-1,3-1.4,4.6-1.2l-0.2,0.3c-0.4-0.5-0.5-1.2-0.4-1.8c0.1-0.6,0.3-1.2,0.5-1.8c0.8-1.9,2.2-3.5,3.9-4.5c1.4-0.8,3.1-1.2,4.8-1.2
		c1.1,0,2.2,0.2,3.2,0.7c0.3,0.1,0.5,0.2,0.8,0.4C183.6,112.1,183.7,112.2,183.7,112.2z"/>
	<path class="st9" d="M208.5,125.6c0,0-0.1,0.2-0.4,0.6c-0.4,0.5-0.9,0.9-1.5,1.3c-0.8,0.6-1.7,1-2.7,1.2c-1.2,0.2-2.5,0-3.6-0.6
		l0.3-0.1l-0.3,0.6c-0.1,0.2-0.3,0.4-0.4,0.6c-0.9,1.1-2,2-3.3,2.6c-1,0.5-2.2,0.8-3.3,0.8c-0.8,0-1.5,0-2.3-0.2
		c-0.3-0.1-0.5-0.2-0.8-0.3c1,0.2,2,0.3,3,0.2c1.1-0.1,2.2-0.4,3.2-0.9c1.2-0.6,2.3-1.4,3.1-2.5c0.1-0.2,0.3-0.4,0.4-0.6l0.3-0.6
		l0.1-0.2l0.2,0.1c1,0.6,2.2,0.8,3.3,0.6c0.9-0.2,1.8-0.5,2.6-1.1C207.8,126.3,208.5,125.5,208.5,125.6z"/>
	<path class="st9" d="M217.6,137.8c0,0.1,0,0.2,0,0.3c0,0.3-0.1,0.5-0.2,0.7c-0.4,0.8-1.2,1.5-2.1,1.8c-1.3,0.4-2.7,0.4-4.1,0
		c-0.8-0.2-1.6-0.4-2.3-0.6c-0.9-0.2-1.6-0.8-2.2-1.5l-0.1-0.2l0.3,0.1c-1.1,1.2-2.4,2.2-3.9,3c-1.2,0.7-2.5,1-3.9,0.9
		c-0.9,0-1.8-0.3-2.6-0.8c-0.2-0.1-0.4-0.3-0.6-0.4c-0.1-0.1-0.2-0.2-0.2-0.2s0.3,0.2,0.8,0.5c0.8,0.4,1.6,0.6,2.5,0.7
		c1.3,0,2.6-0.3,3.7-0.9c1.4-0.8,2.7-1.8,3.8-3l0.2-0.2l0.1,0.3l0.1,0.2c0.5,0.7,1.1,1.1,1.9,1.4c0.8,0.3,1.6,0.4,2.3,0.6
		c1.3,0.4,2.6,0.4,3.9,0c0.8-0.3,1.6-0.8,2.1-1.6C217.4,138.3,217.5,138,217.6,137.8z"/>
	<path class="st9" d="M226.5,85.6c0,0-0.2,0-0.7,0.2c-0.6,0.3-1.1,0.7-1.4,1.2c-0.6,0.8-0.8,1.8-0.7,2.8c0.1,1.3,0.5,2.6,1,3.8
		l0.1,0.2h-0.2c-1.8,0.2-3.4,0.9-4.7,2.1c-1.5,1.3-2.3,3.3-2.1,5.3c0.1,1.8,1.1,3.5,2.6,4.4l0.5,0.3l-0.6,0.1c-2,0.3-3.8,1.4-5,3
		c-0.9,1.3-1.4,2.9-1.3,4.6c0.1,1,0.4,2.1,0.9,3c0.4,0.7,0.6,1,0.6,1c-0.1-0.1-0.1-0.1-0.2-0.2c-0.2-0.2-0.4-0.5-0.5-0.7
		c-0.6-0.9-0.9-2-1-3.1c-0.1-1.7,0.3-3.3,1.2-4.7c1.2-1.8,3.2-2.9,5.3-3.2l-0.1,0.4c-1.6-1.1-2.7-2.8-2.8-4.8
		c-0.1-1.1,0-2.1,0.5-3.1c0.4-0.9,1-1.8,1.8-2.5c1.4-1.2,3.1-2,5-2.1l-0.2,0.2c-0.5-1.2-0.9-2.5-1-3.9c-0.1-1.1,0.2-2.1,0.9-3
		c0.4-0.6,0.9-1,1.6-1.2c0.2-0.1,0.3-0.1,0.5-0.1L226.5,85.6z"/>
	<path class="st9" d="M255.4,113c-0.1,0.1-0.1,0.1-0.2,0.2c-0.2,0.2-0.4,0.3-0.7,0.4c-0.9,0.5-1.8,0.8-2.8,1c-1.5,0.3-3,0.3-4.5,0
		c-1.9-0.4-3.7-1.2-5.1-2.5l0.3-0.1c-1.1,2.5-3.2,4.4-5.8,5.1c-2.8,0.8-5.9-0.4-7.5-2.9l0.4-0.1c-0.2,1-0.7,1.9-1.4,2.6
		c-0.6,0.7-1.3,1.2-2.1,1.6c-1.3,0.6-2.8,1-4.2,1c-0.9,0-1.9,0-2.8-0.1c-0.3,0-0.7-0.1-1-0.2c0.3,0,0.7,0,1,0c0.6,0,1.6,0.1,2.8,0
		c1.4-0.1,2.8-0.4,4.1-1c1.6-0.8,2.8-2.2,3.3-4l0.1-0.5l0.3,0.4c1.5,2.3,4.3,3.3,7,2.7c2.5-0.7,4.5-2.5,5.6-4.9l0.1-0.2l0.2,0.2
		c1.4,1.3,3.1,2.1,4.9,2.5c1.4,0.3,2.9,0.3,4.4,0.1C253,114.1,254.3,113.6,255.4,113z"/>
	<path class="st9" d="M243.2,135.5c0,0,0,0.1-0.1,0.3c-0.2,0.2-0.5,0.4-0.8,0.5c-1.1,0.2-2.1,0.2-3.2-0.1c-1.6-0.4-2.9-1.3-3.9-2.6
		c-1.2-1.5-1.9-3.5-1.7-5.5l0,0l0.3,0.2c-1.6,1.1-3.6,1.6-5.6,1.5c-1.6-0.1-3.1-0.5-4.5-1.3c-0.9-0.5-1.8-1.2-2.5-1.9
		c-0.3-0.3-0.5-0.6-0.8-0.9c1,1,2.2,1.8,3.4,2.5c1.4,0.7,2.8,1.1,4.4,1.2c1.9,0.1,3.7-0.4,5.3-1.4l0.4-0.2v0.4v0.1
		c-0.3,3.5,2,6.7,5.3,7.7c1,0.3,2,0.4,3.1,0.3C242.6,136,243,135.8,243.2,135.5z"/>
	<path class="st9" d="M195.8,89.8c-0.3,1.5-0.3,2.9-0.1,4.4c0.3,1.6,0.9,3.1,1.9,4.3c2,2.4,5,3.8,8.1,3.7h0.3v0.3
		c-0.3,1.5-0.3,3.1,0,4.6c0.2,1.2,0.7,2.4,1.2,3.5c0.2,0.4,0.5,0.8,0.7,1.2c0.2,0.3,0.5,0.5,0.8,0.5c0.2,0,0.4-0.1,0.5-0.2
		c0-0.1,0.1-0.1,0.1-0.2c0,0,0,0.1-0.1,0.2c-0.1,0.2-0.4,0.3-0.6,0.3c-0.4,0-0.8-0.2-1-0.5c-0.3-0.4-0.6-0.8-0.8-1.2
		c-0.6-1.1-1.1-2.3-1.4-3.5c-0.3-1.6-0.4-3.2-0.1-4.8l0.2,0.2c-1.2,0.1-2.3-0.1-3.5-0.4c-3.6-1.1-6.3-4.2-6.8-7.9
		c-0.2-1.1-0.2-2.2,0.1-3.3c0.1-0.3,0.1-0.6,0.2-0.9C195.7,90.1,195.7,89.9,195.8,89.8z"/>
	<path class="st1" d="M176,188.2c-0.4-0.1-0.6,2.7-3.1,4.4s-5.4,1.2-5.4,1.6c-0.1,0.2,0.6,0.6,1.8,0.7c1.6,0.1,3.2-0.3,4.5-1.2
		c1.3-0.9,2.1-2.2,2.4-3.7C176.4,188.9,176.1,188.2,176,188.2z"/>
	<path class="st11" d="M232.6,272.7c0,0-16.1,14.3-15.9,26.5l-23.5-37l-22,13.7c0,0,5.9,29.6,11.3,41.4s16.2,29.1,24,30.9
		s28.9-12.7,38-22.9s19-47.3,20.8-63.2c2.2-19.7-21.2-24.5-21.2-24.5"/>
	<path class="st12" d="M243.8,237.6c0,0,0.3,0,0.8,0.2s1.4,0.4,2.4,0.7c3.1,1,6,2.4,8.7,4.2c1.9,1.3,3.7,2.9,5.2,4.7
		c1.8,2.2,3.1,4.7,3.8,7.4c0.7,3.1,0.8,6.4,0.2,9.6c-0.5,3.3-1.1,6.9-1.9,10.6c-1.6,7.4-3.6,15.4-6.3,23.8c-0.6,2.1-1.4,4.2-2.1,6.4
		s-1.6,4.3-2.5,6.5c-0.4,1.1-0.9,2.2-1.4,3.3s-1,2.2-1.6,3.3s-1.1,2.2-1.8,3.2l-1,1.6c-0.3,0.5-0.8,1-1.1,1.5
		c-0.8,1-1.6,1.9-2.5,2.8c-0.9,0.9-1.8,1.8-2.7,2.6c-1.9,1.7-3.9,3.4-5.9,5c-4.2,3.3-8.6,6.3-13.2,8.9c-2.4,1.4-4.9,2.5-7.4,3.5
		c-1.3,0.5-2.6,0.9-4,1.1c-1.4,0.3-2.9,0.2-4.2-0.3c-2.6-1.2-4.9-2.9-6.8-5.1c-2-2.1-3.8-4.3-5.4-6.7c-3.3-4.7-6.2-9.5-8.8-14.6
		c-1.3-2.5-2.4-5-3.4-7.6c-1-2.6-1.8-5.2-2.6-7.8c-3-10.4-5.3-20.6-7.3-30.3v-0.2l0.1-0.1l22-13.7l0.2-0.1l0.1,0.2l23.5,37l-0.3,0.1
		c0.1-2.4,0.5-4.8,1.4-7c0.8-2,1.7-3.8,2.9-5.6c1.8-2.8,3.8-5.5,6-8c1.8-2.1,3.8-4.1,5.9-5.9l-0.4,0.4l-1.2,1.2
		c-1,1-2.4,2.5-4.2,4.5c-2.2,2.5-4.2,5.2-5.9,8c-1.1,1.8-2,3.7-2.8,5.6c-0.8,2.2-1.3,4.5-1.4,6.9v0.5l-0.3-0.4l-23.6-36.9l0.3,0.1
		l-22,13.7l0.1-0.2c2,9.7,4.3,19.9,7.3,30.3c0.8,2.6,1.6,5.2,2.6,7.8c1,2.6,2.1,5.1,3.4,7.6c2.6,5,5.5,9.9,8.8,14.5
		c1.6,2.3,3.4,4.5,5.4,6.6c1.8,2.1,4.1,3.8,6.6,5c1.3,0.5,2.7,0.6,4,0.3c1.4-0.2,2.7-0.6,4-1.1c2.5-1,5-2.1,7.4-3.5
		c4.6-2.6,9-5.6,13.2-8.9c2.1-1.6,4-3.3,5.9-5c0.9-0.9,1.8-1.7,2.7-2.6c0.9-0.9,1.7-1.8,2.5-2.8c0.4-0.5,0.8-1,1.1-1.5l1-1.6
		c0.7-1,1.2-2.1,1.8-3.2s1-2.2,1.6-3.2s1-2.2,1.4-3.3c0.9-2.2,1.7-4.4,2.5-6.5s1.5-4.3,2.1-6.4c2.7-8.4,4.8-16.4,6.4-23.7
		c0.8-3.7,1.5-7.2,1.9-10.5c0.6-3.1,0.6-6.3-0.1-9.4c-0.7-2.7-1.9-5.2-3.7-7.3c-1.5-1.8-3.2-3.4-5.1-4.7c-2.7-1.8-5.6-3.3-8.6-4.3
		c-1-0.4-1.9-0.6-2.4-0.8L243.8,237.6z"/>
	<path class="st11" d="M132.4,213.9c0,0,0.6,6.1,1.5,7.8s3.3,0.8,4-0.7s0.6-4.9,0.6-4.9L132.4,213.9z"/>
	<path class="st6" d="M138.1,206.1c-0.4,0.4-6.4,5.9-5.8,8s5.1,4,5.8,4s9.4,20.6,12.8,23.4c1.9,1.6,4,3,6.2,4.2
		c0,0,8.8,29,11.6,30.9s25.7-13.6,25.7-13.6s1.5-2,0.7-3s-17.7-29.8-17.7-29.8s-10.8-21.4-12.8-24s-7.3-5.2-10.9-1.7
		c0,0-5.9-2-8.2,0.5C145.7,204.9,140.8,203.6,138.1,206.1z"/>
	<path class="st12" d="M219.8,316.8c-0.1,0,0.3-1.1,0.6-2.9c0.2-1,0.2-2.1,0.2-3.1c0-1.3-0.2-2.6-0.5-3.8c-0.3-1.3-0.7-2.5-1.3-3.7
		c-0.5-1-1-1.9-1.6-2.7c-1.1-1.5-1.9-2.2-1.8-2.3s0.2,0.1,0.6,0.5c0.5,0.5,1,1,1.5,1.6c0.7,0.9,1.3,1.8,1.7,2.8
		c0.6,1.2,1,2.4,1.4,3.7c0.3,1.3,0.4,2.6,0.4,4c0,1.1-0.1,2.2-0.4,3.2c-0.1,0.7-0.3,1.4-0.6,2.1
		C219.9,316.5,219.8,316.8,219.8,316.8z"/>
	<path class="st5" d="M172.8,222.3c-0.4,0.1-0.9,0.1-1.3,0.1c-0.9,0-2.1,0.1-3.6,0.1c-3.1,0-7.3-0.1-11.9-0.6s-8.8-1.1-11.8-1.7
		c-1.5-0.3-2.7-0.6-3.5-0.8c-0.4-0.1-0.9-0.2-1.3-0.4c0.4,0,0.9,0.1,1.3,0.2l3.6,0.6c3,0.5,7.2,1.1,11.8,1.6s8.9,0.6,11.9,0.7
		l3.6,0.1C171.9,222.2,172.4,222.2,172.8,222.3z"/>
	<path class="st5" d="M179.5,234.1c0,0.1-1.4,0.4-3.7,1c-5.9,1.6-11.4,4.3-16.4,7.9c-1.9,1.4-3,2.3-3.1,2.3c0.2-0.3,0.4-0.5,0.7-0.7
		c0.5-0.5,1.2-1.1,2.1-1.8c4.9-3.8,10.5-6.5,16.5-8c1.1-0.3,2.1-0.5,2.7-0.6C178.9,234.1,179.2,234.1,179.5,234.1z"/>
	<path class="st5" d="M190.3,251.5c0,0.1-6.3,1.8-14.1,3.6s-14.2,3.2-14.2,3.1s6.3-1.8,14.1-3.6S190.2,251.4,190.3,251.5z"/>
</g>
<g id="freepik--character-2--inject-44">
	<path class="st6" d="M290,475.7c0,0-5.2-9.2,2.2-47.5c4.3-21.9,23.1-50.2,23.1-50.2s90.3,2.2,90.4,3.7s27.6,29.4,31.6,58.5
		s3.2,35.5,3.2,35.5L290,475.7z"/>
	<path class="st9" d="M361.3,441.8c-0.1,0-0.8-11.5-1.5-25.7s-1.1-25.8-1-25.8s0.8,11.5,1.5,25.7S361.4,441.8,361.3,441.8z"/>
	<path class="st9" d="M369.4,393.9c-1.6-0.1-3.2,1.6-3.7,3c-0.8,2.5,0.5,5.2,3,6c2.5,0.8,5.2-0.5,6-3c0.8-2.5-0.5-5.2-3-6
		c-1.2-0.4-2.5-0.3-3.6,0.3"/>
	<path class="st10" d="M338.6,220.4l5.9-15l35.4-1.9l14.5,1.9l1.6,4.1l9.8,173.5c0,0-34.3,6.9-51.4,4.5s-37.3-10.2-37.3-10.2v-98.7
		L338.6,220.4z"/>
	<path class="st1" d="M391.9,227.5c-0.1,0.1-0.1,0.2-0.2,0.3l-0.8,0.9c-0.7,0.8-1.7,1.8-3,3.1c-3.6,3.6-7.5,7-11.6,10.1l-0.2,0.1
		l-0.1-0.2c-3.8-4.2-7.4-8.6-10.6-13.3l-1-1.5h0.4l-8.5,11.4c-0.3,0.5-0.7,0.9-1.2,1.2c-0.5,0.4-1.1,0.5-1.6,0.4
		c-0.5-0.1-1-0.4-1.4-0.8c-0.4-0.4-0.7-0.7-1-1.1l-3.4-4.2l-4.8-6.1l-1.3-1.7c-0.2-0.2-0.3-0.4-0.4-0.6c0.2,0.2,0.4,0.3,0.5,0.5
		c0.3,0.4,0.8,0.9,1.4,1.6l5,6l3.4,4.2c0.6,0.7,1.2,1.6,2.1,1.8s1.8-0.6,2.4-1.5l8.5-11.5l0.2-0.3l0.2,0.3l1,1.5
		c3.2,4.6,6.8,9.1,10.5,13.3h-0.3c4.1-3.1,8-6.5,11.7-10c1.4-1.3,2.4-2.3,3.1-3c0.3-0.3,0.6-0.6,0.8-0.8
		C391.6,227.6,391.7,227.5,391.9,227.5z"/>
	<g class="st4">
		<path d="M351.4,238.5c0,0,4.5,5.5,5.7,4.1s7.9-11.7,8.7-12.1s8.8,14,12,13s14.4-12.2,14.4-12.2l0.2-4.4l-16.4,14.9l-11.6-14.8
			l-9.8,12.7C354.7,239.6,352.6,241.3,351.4,238.5z"/>
	</g>
	<path class="st1" d="M323.3,120.7c0,0-9.2,34.6-10,59.1l-0.3,8.1c0,0,20.4,17,37.5,18l14.4-35.3L323.3,120.7z"/>
	<path class="st1" d="M414,141.9c-3.9-16.9-5.4-36.5-19.4-47.5c-10.4-8.2-22.3-10.4-35.5-9.9c-6.5,0.3-13.9,3.3-19.5,6.5
		c-7.8,4.4-11.1,13.3-14.8,21.4c-7.5,16.3-6.6,38.3-1.5,44.4l67.9,35.9c13.6-7.1,22-9.9,24.2-27.9C416.2,157,415.8,149.3,414,141.9z
		"/>
	<path class="st14" d="M393.9,107.8l-42.7-12.6c-13.8-2-23.6,14.7-25,28.5c-1.6,15.4-2.9,34.2-1.5,45.8
		c2.8,23.3,20.4,26.9,20.4,26.9l-0.1,9.3l19.5,20.7l29.7-19.9l6.8-90.2C401.1,112.1,398,108.4,393.9,107.8z"/>
	<path class="st1" d="M333.9,144.7c-0.1,1.6,1.1,3,2.7,3.1c1.6,0.2,3-0.9,3.2-2.5c0,0,0-0.1,0-0.1c0.1-1.6-1.1-3-2.7-3.1
		C335.5,142,334.1,143.1,333.9,144.7C333.9,144.6,333.9,144.7,333.9,144.7z"/>
	<path class="st1" d="M328.9,137.6c0.4,0.4,2.7-1.2,5.9-1s5.5,1.8,5.8,1.4c0.2-0.2-0.2-0.9-1.2-1.7c-1.3-1-3-1.6-4.6-1.6
		c-1.7-0.1-3.3,0.4-4.7,1.3C329.1,136.7,328.7,137.4,328.9,137.6z"/>
	<path class="st1" d="M361.9,144.7c-0.1,1.6,1.1,3,2.7,3.1c1.5,0.2,3-0.9,3.1-2.4c0,0,0-0.1,0-0.1c0.1-1.6-1.1-3-2.7-3.1
		C363.5,142,362.1,143.1,361.9,144.7C361.9,144.6,361.9,144.7,361.9,144.7z"/>
	<path class="st1" d="M360.3,138c0.4,0.4,2.7-1.2,5.9-1s5.5,1.8,5.8,1.4c0.2-0.2-0.2-0.9-1.2-1.7c-1.3-1-3-1.6-4.6-1.6
		c-1.7-0.1-3.3,0.4-4.7,1.3C360.5,137.1,360.1,137.8,360.3,138z"/>
	<path class="st1" d="M347.9,158.6c0-0.2-2-0.6-5.1-1.1c-0.8-0.1-1.6-0.3-1.7-0.9c0-0.8,0.2-1.7,0.6-2.4l2.6-6.1
		c3.7-8.7,6.4-15.9,6-16s-3.6,6.8-7.3,15.5l-2.5,6.1c-0.6,1-0.8,2.1-0.5,3.2c0.2,0.6,0.7,1.1,1.3,1.2c0.4,0.1,0.9,0.2,1.4,0.2
		C345.8,158.7,347.9,158.8,347.9,158.6z"/>
	<path class="st15" d="M344.8,196.3c10.9,0.6,21.7-1.8,31.3-7c0,0-8.3,15.9-31.3,12.8L344.8,196.3z"/>
	<path class="st15" d="M358.2,165.7c-0.8-1.3-2.2-2.2-3.8-2.2c-2.2-0.2-4.3,0.7-5.6,2.5c-0.4,0.8-0.6,1.8-0.4,2.7
		c0.2,0.5,0,0.2,0.4,0.6c1.1,1.3,2.6,2.2,4.2,2.8c1.8,0.5,3.7-0.1,4.8-1.6C358.9,169.1,359,167.3,358.2,165.7z"/>
	<path class="st1" d="M357.7,161.4c-0.5-0.1-0.7,3.4-3.8,5.7s-6.7,1.8-6.8,2.3c-0.1,0.2,0.8,0.7,2.3,0.8c2,0.1,4-0.5,5.7-1.7
		c1.6-1.2,2.6-2.9,2.9-4.8C358.3,162.2,358,161.4,357.7,161.4z"/>
	<path class="st1" d="M359.1,126.3c0.2,0.9,3.4,0.8,7.1,1.6c3.7,0.8,6.6,2.1,7.2,1.4c0.3-0.4-0.2-1.2-1.3-2.2
		c-3.1-2.4-7.1-3.2-10.9-2.3C359.8,125.2,359,125.8,359.1,126.3z"/>
	<path class="st1" d="M329.2,129c0.7,0.6,3-0.5,6-0.9s5.5-0.3,5.9-1.1c0.2-0.4-0.3-1.1-1.5-1.6c-1.6-0.6-3.3-0.8-5-0.5
		c-1.7,0.2-3.3,1-4.6,2.1C329.1,127.9,328.9,128.7,329.2,129z"/>
	<path class="st1" d="M351,92.7c0,0.2-0.1,0.3-0.1,0.5h0.1L351,92.7z"/>
	<path class="st1" d="M384.7,204.6c-2.1,0.6-4.2-0.6-4.8-2.7c0-0.1-0.1-0.3-0.1-0.4c-0.7-4.7-0.8-9.4-0.1-14.1
		c0.8-6.4,5.1-13.1,5.6-19.6c1-12.3,0-19.2-1.4-29.5c-5.8-0.7-11.2-4.2-15-8.7c-4.6-5.4-7.4-12.1-10.2-18.7c0.2,6.5,2.4,12.8,6.3,18
		c-2.6,0.4-5.3-0.5-7.2-2.3c-1.9-1.9-3.3-4.1-4.2-6.6c-2.5-5.9-3.9-12.1-4.1-18.5c-0.9,9.1,0.2,18.3,3,27c-1.6-0.5-3.4-0.1-5,0.2
		s-3.6,0.2-4.8-1c-0.7-0.9-1.2-2-1.3-3.1c-1.6-7.7-1.8-15.7-0.8-23.5c-2.2,4.1-4,8.5-5.3,13c-1.3,4.5-1.4,9.4-0.1,13.9
		c-0.8,0.8-2,0.8-2.8,0c0,0,0,0,0,0c-0.7-0.8-1.2-1.8-1.2-2.9c-0.6-3.9,0.1-7.8,0.8-11.7c-2.3,4.1-3.1,8.9-4.4,13.4
		c-1.3,4.5-3.3,9.2-7.2,11.8c-0.7-5.9-0.5-11.9,0.6-17.8c0.8-4.8,3.1-9.7,5.2-14.1c2.3-4.9,5.4-9.3,9.4-13c6.8-6,9.7-3.4,14-1.1
		l0.5,0.2c0-0.1,0-0.2,0-0.3l0.2-0.9c11.4-2.5,23.3-2,34.4,1.6c8.2,2.7,9,20.3,11,11.9c1.2-5.1,7.8-0.4,7.9-0.3
		c9.7,17.5,19.9,45.1,20.4,88.9l0,0L384.7,204.6z"/>
	<g class="st4">
		<path d="M327.8,318.6c-6.2,40.7-12.4,81.3-18.6,122l1.4,13.2c1.6,1.9,4.9,1.2,6.5-0.6s2.1-4.4,2.6-6.9
			C326.8,404.2,330.6,361.3,327.8,318.6z"/>
	</g>
	<path class="st3" d="M327.2,215.9l-21,4.1c-9.1,1.9-16.5,8.6-19.2,17.5c-0.7,2.2-1.1,4.4-1.4,6.6c-1.8,14.2-10.5,52.5-10.5,52.5
		s-19.3,9.2-20.2,17.1s6.7,22.2,6.7,22.2s8.4,21.9,19.4,26.5c12.2,5,20.6-10.1,20.6-10.1l0,0c0.1,1.4,0.1,2.1,0.1,2.1l-31.8,72
		c8.1,14.5,23.3,31.4,38.8,35c0,0,17.9-111.9,18.9-136.3s16.7-119.4,16.7-119.4L327.2,215.9z"/>
	<path class="st14" d="M253.6,232.3c0,0-3.4-1.3-4.3,1.5c-0.6,1.8-1.8,6.6-2.6,9.8c-0.5,1.8-0.1,3.8,1,5.4l2.6,3.6
		c-0.9,2.3-1,4.8-0.4,7.1c0,0-3.9,4-3.4,7.5c0,0-5.1,3.2-3.8,8.6s16.3,21.6,16.3,21.6l9.6,3l12.3-9.4c0,0,2.8-15,2.3-21.5
		c-0.6-7.8-3.5-8.5-3.5-8.5l-12.9-12.1l-4.6-6.5c0,0-4.3,0.7-3.5,6.3l-3.9-2.7l-1-4.6C253.6,241.3,256.5,235.5,253.6,232.3z"/>
	<path class="st1" d="M243,205.8c0.8,0.4,15.8,44.1,15.8,44.1l3.6,1.8l-16.2-46.8L243,205.8z"/>
	<path class="st15" d="M257.1,258.2c0.2,0.1,0.3,0.2,0.5,0.3l1.3,0.8l4.6,3c1,0.6,2,1.3,3.2,2c0.6,0.4,1.2,0.7,1.8,1
		c0.6,0.3,1.3,0.6,2,0.7c0.3,0,0.7,0,1-0.1c0.3-0.2,0.6-0.4,0.7-0.7c0.3-0.7,0.4-1.5,0.4-2.3c0-0.4,0-0.8,0-1.2
		c-0.1-0.4-0.3-0.7-0.5-1.1c-0.5-0.7-1.1-1.3-1.7-1.9c-2.4-2.2-5.1-4.3-7.9-6.1c-2.2-1.5-4.6-2.9-7-4.1c-0.9-0.4-2-0.2-2.7,0.6
		c-0.6,0.5-1.1,1.1-1.5,1.8c-0.7,1.1-1,1.7-1.1,1.7c0-0.2,0.1-0.3,0.2-0.5c0.2-0.5,0.4-0.9,0.7-1.3c0.4-0.7,0.9-1.3,1.5-1.9
		c0.4-0.4,0.8-0.6,1.3-0.8c0.6-0.2,1.2-0.1,1.7,0.1c2.5,1.1,4.9,2.5,7.1,4c2.8,1.8,5.5,3.8,8,6.1c0.6,0.6,1.2,1.3,1.8,2
		c0.3,0.4,0.5,0.8,0.6,1.2c0.1,0.4,0.1,0.9,0,1.3c0,0.9-0.2,1.7-0.5,2.5c-0.2,0.4-0.5,0.8-0.9,1c-0.4,0.2-0.8,0.2-1.3,0.1
		c-0.8-0.1-1.5-0.4-2.2-0.8c-0.6-0.4-1.3-0.7-1.9-1.1c-1.2-0.7-2.2-1.4-3.2-2.1c-1.9-1.3-3.5-2.4-4.5-3.1l-1.2-0.9
		C257.2,258.3,257.1,258.2,257.1,258.2z"/>
	<path class="st15" d="M250.3,266.2c0.3-0.1,0.6-0.2,0.9-0.2l2.5-0.4l0,0l0,0l4,2.9l0,0l0,0c1.6,1.7,3.6,3.8,5.9,5.9
		c0.6,0.5,1.2,1.1,1.8,1.6c0.6,0.5,1.3,1,2,1.2c0.8,0.2,1.6-0.1,2-0.8c0.5-0.7,0.8-1.5,0.9-2.3c0-0.4-0.1-0.8-0.3-1.1
		c-0.2-0.4-0.4-0.8-0.7-1.1c-0.5-0.7-1-1.5-1.6-2.1c-1.1-1.4-2.2-2.6-3.3-3.8c-1.9-2.1-3.9-4.1-6.1-5.9c-0.8-0.7-1.8-1.2-2.8-1.5
		c-0.8-0.2-1.6-0.2-2.4,0c-0.7,0.2-1.3,0.5-1.9,0.8c0.1-0.1,0.3-0.3,0.4-0.4c0.4-0.3,0.9-0.5,1.4-0.7c0.8-0.2,1.7-0.3,2.5-0.1
		c1.1,0.2,2.1,0.8,3,1.5c2.2,1.8,4.3,3.8,6.2,5.9c1.1,1.2,2.2,2.4,3.3,3.8c0.5,0.7,1.1,1.4,1.6,2.1c0.2,0.4,0.5,0.8,0.7,1.2
		c0.3,0.4,0.4,1,0.4,1.5c-0.1,0.9-0.5,1.8-1,2.5c-0.3,0.4-0.7,0.7-1.1,0.9c-0.4,0.2-0.9,0.2-1.4,0.1c-0.8-0.3-1.6-0.7-2.2-1.3
		c-0.6-0.5-1.2-1.1-1.8-1.6c-2.3-2.2-4.2-4.2-5.8-6l0,0l-3.9-3h0.1l-2.5,0.3C250.8,266.1,250.6,266.2,250.3,266.2z"/>
	<path class="st15" d="M266,276.5c0,0.3-0.1,0.6-0.2,0.9c-0.1,0.3-0.2,0.7-0.4,1c-0.3,0.4-0.7,0.7-1.2,0.9c-1.2,0.2-2.5,0.1-3.7-0.2
		c-1.4-0.5-2.8-1.1-4.1-1.8c-1.6-0.9-3.1-1.8-4.4-2.7h0.3l-0.3,0.3l0,0c-0.3,0.4-0.7,0.6-1.2,0.7c-0.4,0.1-0.7,0.2-1.1,0.2
		c-0.6,0.1-1.2,0.1-1.9,0.1c-0.5,0.1-1.1,0-1.6-0.2c0.1,0,0.3,0,0.4,0l1.2-0.1c0.5,0,1.1-0.1,1.8-0.2c0.4-0.1,0.7-0.2,1.1-0.3
		c0.4-0.1,0.7-0.3,0.9-0.6l0,0l0,0l0.3-0.3l0.1-0.1l0.2,0.1c1.3,0.8,2.8,1.7,4.4,2.6c1.2,0.7,2.6,1.3,3.9,1.8
		c1.1,0.3,2.3,0.4,3.5,0.3c0.4-0.1,0.8-0.3,1-0.6c0.2-0.3,0.3-0.7,0.4-0.9C265.6,277,265.8,276.7,266,276.5z"/>
	<path class="st14" d="M281.2,287l-21.5,10.6l1,20.1c0,0,15.4,2,29-15.3L281.2,287z"/>
	<path class="st1" d="M269.9,426.4c0-0.1,0.1-0.2,0.1-0.4l0.5-1.1l1.8-4.1l6.6-15.2c5.7-12.9,13.6-30.9,22.6-51.4v0.1
		c-0.2-5.5-0.4-11.3-0.6-17.1c-0.6-13.2-1.3-25.8-1.8-37.3s-0.8-21.8-0.9-30.5s0-15.7,0-20.6l0.1-5.6c0-0.6,0-1.1,0-1.4s0-0.5,0-0.5
		c0,0.2,0,0.3,0,0.5c0,0.4,0,0.8,0,1.4c0,1.3,0,3.2,0,5.6c0,4.9,0,11.9,0.1,20.5s0.5,19,1,30.4s1.2,24,1.9,37.3
		c0.3,5.9,0.5,11.6,0.6,17.1v0v0.1l-22.8,51.3c-2.8,6.4-5.1,11.6-6.7,15.2l-1.8,4c-0.2,0.5-0.4,0.8-0.5,1
		C270,426.2,270,426.3,269.9,426.4z"/>
	<path class="st1" d="M326.5,313c0-0.1-0.1-0.2-0.1-0.3l-0.2-0.8c-0.2-0.7-0.4-1.7-0.7-3c-0.5-2.6-1.3-6.4-2-11.2s-1.4-10.4-2-16.7
		s-1-13.3-1.3-20.6c-0.1-2.7-0.2-5.4-0.4-8c-0.1-1.3-0.1-2.6-0.2-3.9l-0.1-1.9v-0.9v-0.5c0-0.1,0-0.2,0-0.3v-0.2c0,0,0-0.1,0.1-0.1
		c0.1-0.1,0.2-0.1,0.3-0.1c0.2,0.1,0.1,0.1,0.2,0.2l-0.4-0.1l5.6-3.9v0.4l-6.1-2.9l-0.2-0.1l0-0.2c0.9-3.5,2-6.6,3-9.3
		s1.9-5.1,2.6-7s1.4-3.4,1.8-4.4c0.2-0.5,0.4-0.9,0.5-1.2c0.1-0.1,0.1-0.3,0.2-0.4c0,0.1-0.1,0.3-0.1,0.4l-0.4,1.2L325,222
		c-0.7,1.9-1.6,4.3-2.5,7s-2,5.8-2.9,9.3l-0.1-0.2l6.1,2.8l0.4,0.2l-0.3,0.2l-5.6,3.9l-0.4-0.1c0,0,0.2-0.1,0.2-0.1s0,0,0,0
		c0,0,0.1,0.1,0.1,0.1h0.1l0,0l0,0v0.2v0.4v0.9c0,0.6,0.1,1.3,0.1,1.9c0.1,1.3,0.1,2.6,0.2,3.9c0.1,2.6,0.2,5.3,0.4,8
		c0.3,7.3,0.8,14.2,1.3,20.6s1.2,12,1.9,16.7s1.4,8.5,1.9,11.2c0.3,1.3,0.5,2.3,0.6,3l0.1,0.8C326.4,312.9,326.5,313,326.5,313z"/>
	<path class="st1" d="M299.2,304c-0.1,0-0.1-0.9-0.6-2.2c-1.3-3.6-4.7-6-8.5-6c-1.4,0-2.3,0.3-2.3,0.2c0.7-0.4,1.5-0.5,2.3-0.5
		c4-0.2,7.7,2.3,8.9,6.2C299.2,302.4,299.3,303.2,299.2,304z"/>
	<path class="st1" d="M291.7,299.1c-0.2,0.5-0.5,1-0.8,1.5c-0.3,0.6-0.6,1.1-1,1.7c-0.4,0.6-0.9,1.4-1.5,2.1
		c-0.3,0.4-0.6,0.8-0.9,1.2s-0.7,0.8-1.1,1.2c-0.8,0.9-1.7,1.7-2.6,2.5c-4.2,3.6-9.2,6.2-14.5,7.5c-1.2,0.3-2.3,0.5-3.5,0.7
		c-0.5,0.1-1.1,0.2-1.6,0.2l-1.5,0.1c-0.9,0-1.7,0-2.6,0c-0.6,0-1.3,0-1.9-0.1c-0.6,0-1.1-0.1-1.6-0.2c0-0.1,2.4,0.2,6.1,0l1.5-0.1
		c0.5,0,1-0.2,1.6-0.2c1.1-0.1,2.3-0.5,3.5-0.7c5.3-1.4,10.2-4,14.3-7.5c0.9-0.8,1.8-1.6,2.6-2.4c0.4-0.4,0.8-0.8,1.1-1.2
		s0.7-0.8,1-1.1C290.5,301.1,291.6,299,291.7,299.1z"/>
	<path class="st15" d="M268.3,277.3c0.2,0,0.1,2,0.8,4.4s1.8,4.1,1.7,4.2C268.7,283.6,267.8,280.4,268.3,277.3z"/>
	<path class="st15" d="M269,266c0.1,0-0.1,0.9-0.2,2s-0.2,1.9-0.3,1.9s-0.4-0.9-0.2-2S268.8,266,269,266z"/>
	<path class="st3" d="M425,366.7l20.4-137.1l-37.6-13.8c0,0-8.8-8.1-13.5-12.3l-1.6,21.2c0,0-5.1,86.7,2.9,130.3s6.9,42.2,12.7,70.6
		c4.3,20.7,5,38.7,11.4,40.5s28.6-30.7,28.6-30.7L425,366.7z"/>
	<path class="st3" d="M445.3,229.6c0,0,11.4,5.6,13.1,21.5c1.5,14,4,100,3.7,106.9s-6.3,26.5-17,27.2c-17,1.1-21.6-12-21.6-12
		l4.5-43.9L445.3,229.6z"/>
	<path class="st1" d="M402.2,308.4v-0.3c0-0.2,0.1-0.4,0.1-0.8c0.1-0.7,0.3-1.6,0.6-2.9c0.5-2.5,1.1-6.1,1.8-10.6
		c1.3-9,2.5-21.5,3.1-35.3c0.2-3.3,0.3-6.4,0.5-9.5c0.1-1.5,0.1-3.1,0.2-4.5c0-0.7,0.1-1.5,0.1-2.2c0-0.4,0-0.7,0-1.1v-0.5
		c0-0.1,0-0.2,0-0.2c0,0,0-0.1,0-0.1l0,0l0,0c0,0,0.1,0.1,0.1,0.1c0.1,0,0.2-0.1,0.1-0.1l0,0l-0.4,0.1l-5.6-3.9l-0.3-0.2l0.4-0.2
		l6.1-2.8l-0.1,0.2c-0.5-2.5-1-4.9-1.2-7.4c-0.3-2.2-0.6-4.1-0.9-5.6s-0.6-2.7-0.9-3.5c-0.1-0.4-0.2-0.7-0.3-0.9
		c0-0.1-0.1-0.2-0.1-0.3c0.1,0.1,0.1,0.2,0.1,0.3c0.1,0.2,0.2,0.5,0.4,0.9c0.4,1.1,0.7,2.3,1,3.5c0.3,1.5,0.6,3.4,1,5.6
		s0.6,4.7,1.3,7.4v0.2l-0.1,0.1l-6.1,2.9v-0.4l5.6,3.9l-0.4,0.1v-0.1c0.1-0.1,0.1-0.1,0.2-0.1c0.1,0,0.1,0,0.2,0.1l0,0.1
		c0,0,0,0.1,0,0.1c0,0.1,0,0.1,0,0.2c0,0.1,0,0.2,0,0.3v0.6v1.1c0,0.7-0.1,1.5-0.1,2.2c-0.1,1.5-0.1,3-0.2,4.5
		c-0.1,3.1-0.3,6.3-0.4,9.5c-0.5,11.8-1.6,23.6-3.3,35.3c-0.7,4.5-1.4,8.1-1.9,10.6c-0.3,1.2-0.5,2.2-0.7,2.9l-0.2,0.7
		C402.2,308.2,402.2,308.3,402.2,308.4z"/>
	<g class="st4">
		<path d="M346.9,379c0,0-2.6,3.3,3.1,4.4s69.6-3.7,69.6-3.7l12.2,7.1l-1.6-5.1L420,370.9L346.9,379z"/>
	</g>
	<path class="st16" d="M423.8,272.7l-80.5,4.1c-1.9,0.1-3.4,1.6-3.5,3.5l-5.4,95.5c-0.1,2,1.5,3.8,3.5,3.9c0.1,0,0.3,0,0.4,0
		l78.1-4.1c1.9-0.1,3.4-1.5,3.5-3.4l7.7-95.6c0.2-2-1.4-3.8-3.4-4C424.1,272.7,423.9,272.7,423.8,272.7z"/>
	<path class="st1" d="M440.7,251.7c0,0.3-0.1,0.6-0.1,0.9c-0.1,0.6-0.3,1.4-0.5,2.4l-1.8,9c-1.5,7.6-3.4,18-5.2,29.7
		s-3.2,22.2-4.2,29.8c-0.5,3.8-0.8,6.9-1.1,9.1c-0.1,1-0.2,1.9-0.3,2.5c0,0.3-0.1,0.6-0.1,0.9c0-0.3,0-0.6,0-0.9
		c0.1-0.6,0.1-1.4,0.2-2.5c0.2-2.1,0.5-5.2,0.9-9.1c0.8-7.7,2.2-18.2,4-29.9s3.8-22.1,5.4-29.6c0.8-3.8,1.4-6.8,1.9-8.9
		c0.2-1,0.4-1.8,0.6-2.4C440.5,252.3,440.6,252,440.7,251.7z"/>
	<path class="st14" d="M425.4,335.2c0,0,4.6,0.3,8.7,7.1l7.9,5c0,0,6.9,10.8,0,20.9s-15.2,1.5-15.2,1.5s-8.3,4.1-10.6,3.4
		s-18-9.2-20.3-11.1c-0.7-0.6-5.7-6.4-5.7-6.4s-7-1.5-7.8-3.1s-0.9-5.3,3.9-4.9c0,0-4.6-1.4-5.1-3.7s0-5.3,8.1-4.2
		s23.8,5.5,25.6,5.1c0.5-0.3,0.7-1,0.4-1.5c-0.1-0.2-0.4-0.4-0.6-0.5c-0.6-0.3-19-7.4-22-8.2c-3.2-0.9-3.6-8,3-6.3
		s28.1,6.9,28.1,6.9L425.4,335.2z"/>
	<path class="st15" d="M413.3,362.5c-1.2-0.3-2.3-0.6-3.4-1c-2.1-0.7-5-1.6-8.2-2.5s-6.1-1.7-8.3-2.3c-1.2-0.2-2.3-0.6-3.4-1
		c0.3,0,0.6,0,1,0.1c0.6,0.1,1.5,0.3,2.6,0.5c2.1,0.5,5.1,1.2,8.3,2.1s6.1,1.9,8.2,2.7c1,0.4,1.9,0.7,2.4,1
		C412.7,362.2,413,362.4,413.3,362.5z"/>
	<path class="st15" d="M415.9,354c-0.4,0-0.8,0-1.2-0.1c-0.8-0.1-1.9-0.2-3.3-0.4c-2.7-0.4-6.5-1.1-10.7-2s-7.9-1.8-10.5-2.6
		c-1.3-0.4-2.4-0.7-3.1-0.9c-0.4-0.1-0.8-0.2-1.1-0.4c0.4,0,0.8,0.1,1.2,0.2l3.2,0.8c2.7,0.7,6.4,1.5,10.5,2.4s7.9,1.6,10.6,2.1
		l3.2,0.6C415.2,353.7,415.6,353.8,415.9,354z"/>
	<path class="st15" d="M438.3,352.2c0,0.3,0,0.6,0,0.9c0,0.8-0.1,1.5-0.3,2.3c-1.1,5-4,9.5-8.2,12.4c-0.6,0.4-1.3,0.8-2,1.2
		c-0.5,0.2-0.8,0.4-0.8,0.3s1-0.6,2.5-1.8c2-1.5,3.7-3.4,5-5.4c1.4-2.1,2.4-4.4,3-6.8C438.1,353.4,438.2,352.1,438.3,352.2z"/>
	<path class="st1" d="M440.9,370.9c-0.1-0.1,1-1.1,2.2-3.2c3.3-5.4,3.5-12.1,0.5-17.7c-1.1-2.1-2.1-3.2-2-3.3
		c0.3,0.2,0.5,0.5,0.7,0.8c0.6,0.7,1.2,1.5,1.6,2.4c3.2,5.7,3,12.6-0.6,18.1c-0.5,0.8-1.1,1.6-1.8,2.3
		C441.4,370.4,441.2,370.7,440.9,370.9z"/>
	<path class="st1" d="M459,336.6c-0.1,0.1-1.3-0.9-3.6-2c-1.3-0.6-2.7-1.2-4.1-1.6c-1.7-0.5-3.5-0.8-5.3-1c-1.8-0.1-3.6-0.1-5.4,0.1
		c-1.5,0.2-2.9,0.5-4.3,1c-2.4,0.8-3.8,1.5-3.8,1.4c0.3-0.2,0.6-0.4,0.9-0.6c0.4-0.2,0.8-0.4,1.2-0.6c0.5-0.2,1.1-0.5,1.6-0.6
		c1.4-0.5,2.9-0.9,4.4-1.1c1.8-0.3,3.7-0.3,5.5-0.2c1.8,0.2,3.7,0.5,5.4,1c1.4,0.4,2.8,1,4.2,1.7c0.5,0.3,1,0.6,1.5,0.9
		c0.4,0.2,0.7,0.5,1.1,0.7C458.5,336,458.8,336.3,459,336.6z"/>
	<g class="st4">
		<path d="M406.4,217.5c0,0,6.8,15.8,5.8,17.2s-4.5,2.3-4.5,2.3s5.9,2.5,5.8,4.8c0,4.5-6.3,30.9-6.3,30.9l1.5-32.3l-5.6-3.9l6.1-2.8
			L406.4,217.5z"/>
	</g>
	<path class="st9" d="M423.5,276.1c-0.1,0-0.3,0-0.5,0l-1.3,0.1l-5.1,0.3l-18.8,1.1l-27.9,1.6l-16.5,0.9l-4.3,0.2l-2.2,0.1
		c-0.4,0-0.8,0-1.1,0.1c-0.3,0-0.6,0.2-0.9,0.4c-0.2,0.2-0.4,0.5-0.5,0.8c-0.1,0.3-0.1,0.7-0.1,1l-0.1,2.2l-0.3,4.5
		c-1.7,24.2-3.2,46.1-4.3,62c-0.6,7.9-1,14.3-1.4,18.8c-0.2,2.2-0.3,3.9-0.4,5.1c0,0.6-0.1,1-0.1,1.3s-0.1,0.5-0.1,0.5s0-0.1,0-0.5
		s0-0.8,0.1-1.3c0.1-1.2,0.2-2.9,0.3-5.1c0.3-4.5,0.7-10.9,1.2-18.8c1.1-15.9,2.5-37.8,4.1-62c0.1-1.5,0.2-3,0.3-4.5l0.1-2.2
		c0-0.4,0.1-0.8,0.1-1.2c0.1-0.4,0.4-0.7,0.7-1c0.3-0.3,0.7-0.4,1.1-0.5c0.4,0,0.7,0,1.1-0.1l2.2-0.1l4.3-0.2l16.5-0.9l27.9-1.5
		l18.8-1l5.1-0.2l1.3,0L423.5,276.1z"/>
</g>
</svg>
