<?xml version="1.0" encoding="utf-8"?>
<!-- Generator: Adobe Illustrator 26.2.1, SVG Export Plug-In . SVG Version: 6.00 Build 0)  -->
<svg version="1.1" id="Layer_1" xmlns="http://www.w3.org/2000/svg" xmlns:xlink="http://www.w3.org/1999/xlink" x="0px" y="0px"
	 viewBox="0 0 296.5 313.3" style="enable-background:new 0 0 296.5 313.3;" xml:space="preserve">
<style type="text/css">
	.st0{fill:#F5F5F5;}
	.st1{fill:#263238;}
	.st2{fill:#D94F04;}
	.st3{fill:#007172;}
	.st4{fill:#FFBE9D;}
	.st5{opacity:0.3;enable-background:new    ;}
	.st6{fill:#E0E0E0;}
	.st7{fill:#455A64;}
	.st8{fill:#CBDAD5;}
	.st9{fill:#FFFFFF;}
	.st10{opacity:0.3;fill:#CBDAD5;enable-background:new    ;}
	.st11{opacity:0.3;}
</style>
<g id="Personal_goals-pana" transform="translate(-23.58 -11.4)">
	<g id="freepik--background-simple--inject-68" transform="translate(35.811 44.287)">
		<path id="Path_4086" class="st0" d="M268.7,45.6l-1.2-2.8c-10.3-24-32.7-40.6-58.5-42.6c-3.3-0.2-6.7-0.2-10,0
			c-23.9,1.7-46.6,16.5-58.1,37.8c-6.8,12.5-10.3,27.6-21.1,36.8c-14.1,12-34.8,9.5-52.9,6.4s-38.8-5.5-52.9,6.6
			c-8.8,7.5-12.9,19.4-13.9,31c-2.6,30.7,14.8,60.9,39.9,78.2s56.7,22.9,87.2,21.1c42.6-2.6,85.1-20,113.7-52.2
			S282.4,86.5,268.7,45.6z"/>
		<circle id="Ellipse_91" class="st0" cx="25.7" cy="46.8" r="14.2"/>
		<circle id="Ellipse_92" class="st0" cx="241.5" cy="196" r="10.5"/>
	</g>
	<g id="freepik--Clouds--inject-68" transform="translate(23.58 272.426)">
		<path id="Path_4087" class="st1" d="M296.5,13.3c0,0-0.3-0.4-0.9-1.1c-0.4-0.5-0.8-0.9-1.2-1.3l-0.8-0.8c-0.3-0.3-0.6-0.6-0.9-0.9
			l-1.1-0.9c-0.4-0.3-0.8-0.7-1.3-1c-0.9-0.7-1.9-1.3-3-2c-2.6-1.5-5.4-2.8-8.3-3.6c-3.6-1.1-7.3-1.6-11.1-1.5l-1.5,0l-1.6,0.2
			L264,0.5l-0.8,0.1l-1.6,0.3c-2.2,0.5-4.4,1.2-6.5,2.1c-2.2,1-4.4,2.2-6.3,3.6c-2.1,1.5-4,3.3-5.8,5.2c-3.8,4.2-6.5,9.2-8,14.6
			l0,0.2l-0.1-0.1c-4-1.3-8.2-1.5-12.4-0.7c-4.3,0.8-8.5,2.5-12.3,4.8c-4,2.4-7.5,5.4-10.6,8.9c-3.2,3.6-5.6,7.9-7,12.5l0,0.1h-0.1
			c-6.5,0.3-13.2,0.3-20.1,0.1c-3.4-0.1-6.9-0.1-10.4-0.1h-55.4l0-0.1c-2.3-4.3-5.6-7.9-9.7-10.6c-3.9-2.6-8.3-4.1-13-4.5
			c-8.7-0.6-17.2,2.7-23.2,9.1l-0.2,0.2l-0.1-0.2c-1.9-5-4.9-9.5-8.8-13.2c-1.8-1.7-3.7-3.2-5.8-4.6c-2-1.2-4-2.3-6.2-3.1
			c-2-0.8-4.1-1.4-6.3-1.8L31.9,23l-0.8-0.1l-0.8-0.1l-1.5-0.1h-1.5c-3.6,0-7.1,0.5-10.6,1.5c-2.8,0.8-5.4,1.9-7.9,3.4
			c-1.1,0.7-2.1,1.2-2.9,1.9c-0.8,0.5-1.6,1.1-2.3,1.7c-0.7,0.5-1.2,1.1-1.7,1.5c-0.4,0.4-0.8,0.7-1.1,1.1c-0.6,0.7-0.9,1-0.9,1
			s0.3-0.3,0.9-1C1.3,33.4,1.6,33,2,32.7c0.5-0.4,1-1,1.7-1.5c0.7-0.6,1.5-1.2,2.3-1.8C7,28.7,7.9,28,8.9,27.5
			c2.5-1.4,5.2-2.6,7.9-3.4c3.4-1.1,7-1.6,10.6-1.6h1.5l1.5,0.1l0.8,0.1l0.8,0.1l1.6,0.2c2.2,0.4,4.3,1,6.3,1.8
			c2.2,0.9,4.3,1.9,6.3,3.2c2.1,1.3,4.1,2.9,5.9,4.6c3.9,3.7,6.9,8.3,8.9,13.3l-0.2,0c6-6.4,14.6-9.8,23.4-9.2
			c4.7,0.4,9.2,2,13.1,4.5c4.1,2.7,7.5,6.3,9.8,10.7l-0.2-0.1H162c3.5,0,7,0.1,10.4,0.1c6.9,0.1,13.6,0.2,20-0.1l-0.2,0.1
			c1.4-4.6,3.8-8.9,7.1-12.6c3.1-3.5,6.7-6.6,10.7-9c3.8-2.3,8-3.9,12.4-4.8c4.2-0.8,8.5-0.6,12.5,0.8l-0.2,0.1
			c1.5-5.5,4.3-10.5,8.1-14.7c1.8-1.9,3.7-3.7,5.8-5.2c2-1.4,4.2-2.7,6.4-3.7c2.1-0.9,4.3-1.6,6.6-2.1l1.6-0.3l0.8-0.1l0.8-0.1
			l1.6-0.2l1.6,0c3.8-0.1,7.5,0.5,11.1,1.6c2.9,0.9,5.7,2.1,8.3,3.7c1.1,0.7,2.1,1.4,3,2.1c0.4,0.4,0.9,0.7,1.3,1l1.1,1
			c0.3,0.3,0.6,0.6,0.9,0.9l0.8,0.8c0.4,0.4,0.8,0.9,1.2,1.3C296.2,13,296.5,13.3,296.5,13.3z"/>
	</g>
	<g id="freepik--Stars--inject-68" transform="translate(125.944 11.4)">
		<path id="Path_4088" class="st2" d="M45.7,26l3.4,7c0.2,0.5,0.7,0.8,1.3,0.9l7.7,1.1c0.9,0.1,1.6,1,1.4,1.9
			c-0.1,0.4-0.2,0.7-0.5,1l-5.6,5.4c-0.4,0.4-0.6,0.9-0.5,1.5l1.3,7.7c0.2,0.9-0.5,1.8-1.4,1.9c-0.4,0.1-0.7,0-1.1-0.2l-6.9-3.6
			c-0.5-0.3-1.1-0.3-1.6,0l-6.9,3.6c-0.8,0.4-1.8,0.1-2.3-0.7c-0.2-0.3-0.2-0.7-0.2-1.1l1.3-7.7c0.1-0.5-0.1-1.1-0.5-1.5l-5.6-5.4
			c-0.7-0.7-0.7-1.7,0-2.4c0.3-0.3,0.6-0.4,1-0.5l7.7-1.1c0.5-0.1,1-0.4,1.3-0.9l3.4-7c0.4-0.8,1.4-1.2,2.2-0.8
			C45.2,25.4,45.5,25.6,45.7,26L45.7,26z"/>
		<path id="Path_4089" class="st2" d="M32.5,30.6c-0.1,0.1-4.4-4-9.8-9.1s-9.6-9.2-9.5-9.3s4.5,4,9.8,9.1S32.6,30.6,32.5,30.6z"/>
		<path id="Path_4090" class="st2" d="M23.4,34.9c0,0.1-3.8-0.1-8.4-0.3S6.6,34,6.6,33.9s3.8,0.1,8.4,0.3S23.4,34.8,23.4,34.9z"/>
		<path id="Path_4091" class="st2" d="M37.6,22.4c-0.9-1.6-1.7-3.3-2.4-5c-0.8-1.7-1.5-3.4-2.1-5.2c0.9,1.6,1.7,3.3,2.4,5
			C36.3,18.9,37,20.6,37.6,22.4L37.6,22.4z"/>
		<path id="Path_4092" class="st2" d="M43.5,0c0.1,0,0.2,4.6,0.2,10.3s-0.1,10.3-0.2,10.3s-0.2-4.6-0.2-10.3S43.4,0,43.5,0z"/>
		<path id="Path_4093" class="st2" d="M55.1,12.4c-0.6,1.7-1.3,3.4-2.2,5c-0.7,1.7-1.6,3.3-2.5,4.8c0.6-1.7,1.4-3.4,2.2-5
			C53.4,15.6,54.2,14,55.1,12.4z"/>
		<path id="Path_4094" class="st2" d="M74,15.8c0.1,0.1-5,3.7-11.2,8s-11.4,7.9-11.4,7.8s5-3.7,11.2-8.1S73.9,15.7,74,15.8z"/>
		<path id="Path_4095" class="st2" d="M74.5,30.4c-1.8,0.9-3.7,1.7-5.6,2.4c-1.9,0.8-3.8,1.4-5.7,2c1.8-0.9,3.7-1.7,5.5-2.3
			C70.6,31.6,72.6,30.9,74.5,30.4z"/>
		<path id="Path_4096" class="st2" d="M30.6,44.4c0,0.1-6.5,2.4-14.6,5.2s-14.7,5-14.7,4.9s6.5-2.4,14.6-5.2S30.6,44.3,30.6,44.4z"
			/>
		<path id="Path_4097" class="st2" d="M82.2,51.6c0,0.1-5.8-1.4-12.9-3.4s-12.8-3.7-12.8-3.8s5.8,1.4,12.9,3.4S82.2,51.5,82.2,51.6z
			"/>
		<path id="Path_4098" class="st2" d="M25.2,63.5c1.2-1.3,2.5-2.5,3.9-3.6c1.3-1.2,2.7-2.3,4.1-3.4c-1.2,1.3-2.5,2.5-3.9,3.6
			C28.1,61.4,26.7,62.5,25.2,63.5z"/>
		<path id="Path_4099" class="st2" d="M44,79.7c-0.1,0-0.1-5.6-0.1-12.6s0.1-12.6,0.2-12.6s0.1,5.6,0.1,12.6S44.1,79.7,44,79.7z"/>
		<path id="Path_4100" class="st2" d="M63.5,64.9c-1.4-1.1-2.8-2.3-4.1-3.6c-1.4-1.2-2.7-2.5-3.9-3.8c1.4,1.1,2.8,2.3,4.1,3.6
			C61,62.3,62.3,63.6,63.5,64.9z"/>
		<path id="Path_4101" class="st2" d="M77.6,41.2l0.1,1.1c0,0.1,0,0.2,0.1,0.2l1,0.6c0.1,0.1,0.2,0.2,0.1,0.3c0,0.1-0.1,0.1-0.1,0.1
			l-1.1,0.4c-0.1,0-0.1,0.1-0.1,0.2l-0.3,1.1c0,0.1-0.2,0.2-0.3,0.2c-0.1,0-0.1,0-0.1-0.1l-0.7-0.9c-0.1-0.1-0.1-0.1-0.2-0.1
			l-1.1,0.1c-0.1,0-0.3-0.1-0.3-0.2c0-0.1,0-0.1,0-0.2l0.6-1c0-0.1,0-0.2,0-0.2l-0.4-1.1c0-0.1,0-0.3,0.2-0.3c0,0,0.1,0,0.1,0
			l1.1,0.3c0.1,0,0.2,0,0.2-0.1l0.9-0.7c0.1-0.1,0.2-0.1,0.3,0C77.6,41,77.6,41.1,77.6,41.2L77.6,41.2z"/>
		<path id="Path_4102" class="st2" d="M84.9,29.2l0.5,0.5c0,0,0.1,0.1,0.1,0l0.7-0.1c0.1,0,0.2,0,0.2,0.1c0,0,0,0.1,0,0.1l-0.4,0.7
			c0,0,0,0.1,0,0.2l0.3,0.7c0,0.1,0,0.2-0.1,0.2c0,0-0.1,0-0.1,0l-0.7-0.1c-0.1,0-0.1,0-0.1,0l-0.5,0.5c-0.1,0.1-0.2,0.1-0.2,0
			c0,0,0-0.1,0-0.1l-0.1-0.7c0-0.1,0-0.1-0.1-0.1l-0.7-0.3c-0.1,0-0.1-0.1-0.1-0.2c0,0,0-0.1,0.1-0.1l0.7-0.3c0.1,0,0.1-0.1,0.1-0.1
			l0.1-0.7C84.6,29.2,84.7,29.1,84.9,29.2C84.8,29.2,84.9,29.2,84.9,29.2L84.9,29.2z"/>
		<path id="Path_4103" class="st2" d="M1.2,20.2l0.5,0.5c0,0,0.1,0.1,0.1,0l0.7-0.1c0.1,0,0.2,0,0.2,0.1c0,0,0,0.1,0,0.1l-0.4,0.7
			c0,0,0,0.1,0,0.2l0.3,0.7c0,0.1,0,0.2-0.1,0.2c0,0-0.1,0-0.1,0l-0.7-0.1c-0.1,0-0.1,0-0.1,0l-0.5,0.5c-0.1,0.1-0.2,0.1-0.2,0
			c0,0,0-0.1,0-0.1l-0.1-0.7c0-0.1,0-0.1-0.1-0.1l-0.7-0.3C0,21.8,0,21.7,0,21.6c0,0,0-0.1,0.1-0.1l0.7-0.3c0,0,0.1-0.1,0.1-0.1
			L1,20.3C1,20.2,1.1,20.2,1.2,20.2C1.2,20.2,1.2,20.2,1.2,20.2L1.2,20.2z"/>
	</g>
	<g id="freepik--Birds--inject-68" transform="translate(45.266 115.454)">
		<path id="Path_4104" class="st1" d="M16.3,75.7c0,0-0.3-0.1-0.8-0.2c-0.7-0.1-1.4-0.2-2.1-0.1c-1,0.1-2,0.6-2.8,1.2
			c-1,0.8-1.7,1.9-2,3.2v0l-0.1,0.5l-0.2-0.4c-0.5-1.2-1.3-2.2-2.4-2.9c-0.9-0.6-1.9-0.9-2.9-1c-1,0-2,0.1-2.9,0.4
			c0.2-0.1,0.5-0.2,0.7-0.3c0.7-0.2,1.4-0.3,2.2-0.3c1.1,0.1,2.2,0.4,3.1,1c1.1,0.7,2,1.8,2.5,3H8.2v0c0.3-1.3,1.1-2.5,2.1-3.3
			c1.5-1.2,3.4-1.6,5.2-1.1C15.8,75.4,16,75.5,16.3,75.7L16.3,75.7z"/>
		<path id="Path_4105" class="st1" d="M48.2,73.2c-0.3,0.4-0.6,0.8-1,1.2c-0.9,1-1.7,2.2-2.5,3.3c-2.4,3.9-3.7,8.4-3.6,12.9v0.2
			l-0.5,0c-0.7-4.5-2.8-8.6-5.9-11.9c-1.3-1.3-2.8-2.5-4.3-3.5c0.1,0,0.2,0.1,0.4,0.2c0.3,0.2,0.7,0.4,1,0.6
			c1.2,0.7,2.3,1.6,3.2,2.6c3.3,3.2,5.5,7.5,6.2,12l-0.4,0v-0.2c0-4.6,1.3-9.2,3.8-13.1c0.8-1.2,1.6-2.3,2.6-3.3
			c0.3-0.4,0.7-0.6,0.8-0.8C48,73.3,48.1,73.2,48.2,73.2z"/>
		<path id="Path_4106" class="st1" d="M211.4,33.9c0,0-0.6-0.2-1.6-0.4c-1.4-0.3-2.9-0.4-4.4-0.2c-2.2,0.3-4.2,1.2-5.9,2.6
			c-2.1,1.7-3.5,4-4.2,6.6v0.1l-0.1,0.5l-0.2-0.4c-1-2.5-2.8-4.6-5-6c-1.8-1.2-3.9-1.9-6.1-2c-1.5-0.1-2.9,0-4.4,0.4
			c-1,0.3-1.5,0.5-1.5,0.5c0.1-0.1,0.2-0.1,0.4-0.2c0.4-0.2,0.8-0.3,1.1-0.4c3.6-1.1,7.5-0.5,10.7,1.5c2.3,1.5,4.1,3.6,5.1,6.2H195
			v-0.1c0.6-2.7,2.2-5.1,4.3-6.8c3-2.4,6.9-3.2,10.6-2.3c0.4,0.1,0.8,0.2,1.2,0.4C211.2,33.8,211.3,33.9,211.4,33.9L211.4,33.9z"/>
		<path id="Path_4107" class="st1" d="M255.3,9.9c0,0-0.3-0.1-0.9-0.2c-0.8-0.2-1.6-0.2-2.4-0.1c-1.2,0.2-2.3,0.6-3.2,1.4
			c-1.1,0.9-1.9,2.2-2.3,3.6v0l-0.1,0.5l-0.2-0.4c-0.5-1.4-1.5-2.5-2.7-3.3c-1-0.6-2.1-1-3.3-1.1c-0.8-0.1-1.6,0-2.4,0.2
			c-0.6,0.1-0.9,0.3-0.9,0.2c0.1,0,0.1-0.1,0.2-0.1c0.2-0.1,0.4-0.2,0.6-0.2c2-0.6,4.1-0.3,5.9,0.8c1.3,0.8,2.3,2,2.9,3.4h-0.3v0
			c0.4-1.5,1.2-2.8,2.4-3.8c1.6-1.3,3.8-1.8,5.8-1.2c0.2,0.1,0.4,0.1,0.7,0.2C255.2,9.8,255.2,9.8,255.3,9.9z"/>
		<path id="Path_4108" class="st1" d="M226.6,0c0,0-0.3,0.3-0.8,1c-0.8,0.9-1.4,1.8-2.1,2.8c-2,3.2-3.1,7-3.1,10.8v0.1h-0.3
			c-0.3-2.1-1-4-2-5.9c-0.8-1.5-1.8-2.9-3-4.1c-0.8-0.8-1.7-1.6-2.6-2.2c-0.4-0.2-0.7-0.5-1-0.7c0.1,0,0.2,0.1,0.3,0.1
			c0.2,0.1,0.5,0.3,0.8,0.5c1,0.6,1.9,1.3,2.7,2.2c2.8,2.7,4.6,6.2,5.1,10h-0.3v-0.1c0-3.9,1.1-7.7,3.2-11c0.6-1,1.4-1.9,2.2-2.7
			c0.3-0.3,0.5-0.5,0.7-0.7C226.4,0.1,226.5,0,226.6,0L226.6,0z"/>
	</g>
	<g id="freepik--Character--inject-68" transform="translate(139.973 71.007)">
		<path id="Path_4109" class="st3" d="M2.8,63.1h55.2c0.9,0,1.6-0.7,1.6-1.6c0-0.9-0.7-1.7-1.6-1.7H2.8c-0.9,0-1.6,0.7-1.6,1.7
			C1.2,62.3,1.9,63.1,2.8,63.1z"/>
		<rect id="Rectangle_493" x="0.8" y="0" class="st3" width="4" height="253.3"/>
		<path id="Path_4110" class="st3" d="M4.5,253.3c-0.1,0-0.2-56.7-0.2-126.6S4.5,0.2,4.5,0.2s0.2,56.7,0.2,126.6
			S4.6,253.3,4.5,253.3z"/>
		<path id="Path_4111" class="st3" d="M2.8,37.4h55.2c0.9,0,1.6-0.7,1.6-1.7c0-0.9-0.7-1.6-1.6-1.6H2.8c-0.9,0-1.6,0.7-1.6,1.6
			C1.2,36.7,1.9,37.4,2.8,37.4z"/>
		<rect id="Rectangle_494" x="56" y="0.5" class="st3" width="4" height="252.8"/>
		<path id="Path_4112" class="st3" d="M56.1,221.5c-0.1,0-0.2-49.4-0.2-110.3S56,1,56.1,1s0.2,49.4,0.2,110.3S56.2,221.5,56.1,221.5
			z"/>
		<path id="Path_4113" class="st3" d="M2.8,231.9H58c0.9,0,1.6-0.7,1.6-1.7c0-0.9-0.7-1.6-1.6-1.6H2.8c-0.9,0-1.6,0.7-1.6,1.7
			C1.1,231.2,1.9,231.9,2.8,231.9z"/>
		<path id="Path_4114" class="st3" d="M4,180.8h51.9c0.9,0,1.6-0.7,1.6-1.7c0-0.9-0.7-1.6-1.6-1.6H4c-0.9,0-1.6,0.7-1.6,1.7
			C2.3,180,3,180.8,4,180.8z"/>
		<path id="Path_4115" class="st3" d="M2.8,145H58c0.9,0,1.6-0.7,1.6-1.7c0-0.9-0.7-1.6-1.6-1.6H2.8c-0.9,0-1.6,0.7-1.6,1.7
			C1.1,144.3,1.9,145,2.8,145z"/>
		<path id="Path_4116" class="st3" d="M2.8,116.8H58c0.9,0,1.6-0.7,1.6-1.7c0-0.9-0.7-1.6-1.6-1.6H2.8c-0.9,0-1.6,0.7-1.6,1.7
			C1.1,116.1,1.9,116.8,2.8,116.8z"/>
		<path id="Path_4117" class="st3" d="M2.8,89.3H58c0.9,0,1.6-0.7,1.6-1.7c0-0.9-0.7-1.6-1.6-1.6H2.8c-0.9,0-1.6,0.7-1.6,1.6
			C1.1,88.6,1.9,89.3,2.8,89.3z"/>
		<path id="Path_4118" class="st3" d="M3.3,207.1h52.5c0.9,0,1.6-0.7,1.6-1.7c0-0.9-0.7-1.6-1.6-1.6H3.3c-0.9,0-1.6,0.7-1.6,1.7
			C1.7,206.4,2.4,207.1,3.3,207.1z"/>
		<path id="Path_4119" class="st4" d="M48.2,40.9l-3.4-7.5c0,0,0.2-4-0.4-4.3c-0.8-0.5-1-0.1-1.2,1.3l-0.3,2c0,0-1.3-2.8-2.5-2.9
			c-0.8-0.1-1,1.3-1,1.3s-1.4-1.3-2.3-1s-0.7,1.6-0.7,1.6c-0.5-0.3-1.2-0.2-1.5,0.3c0,0.1-0.1,0.2-0.1,0.2c-0.6,1.4,1.9,3.4,2.3,4.4
			c0.8,1.9-0.9,2-0.9,2s-4.3-0.5-4.1,0.6s1.6,1.1,2.8,1.2c0.9,0.1,4.4,0.9,5.5,1.2c0.2,0.1,0.5,0.2,0.7,0.3l2.6,2.6L48.2,40.9z"/>
		<path id="Path_4120" class="st2" d="M46.5,212.2l-0.1,19.2L36,231.5l0.1-19.2L46.5,212.2z"/>
		<path id="Path_4121" class="st1" d="M41.3,230.7c-0.1,0-0.1-4.2,0-9.4s0.3-9.4,0.4-9.4s0.1,4.2,0,9.4S41.3,230.7,41.3,230.7z"/>
		<path id="Path_4122" class="st1" d="M36.1,225.4c0.1-0.2,0.2-0.3,0.3-0.4c0.3-0.4,0.6-0.7,0.9-1c0.5-0.4,1.1-0.8,1.7-1.1
			c2.2-1,4.8-0.5,6.4,1.3c0.3,0.3,0.6,0.7,0.7,1.1c0.1,0.1,0.1,0.3,0.2,0.5c-0.3-0.5-0.7-1-1.1-1.5c-1-1-2.4-1.6-3.9-1.6
			c-1.5,0-2.8,0.6-4,1.5C36.5,224.9,36.1,225.4,36.1,225.4z"/>
		<path id="Path_4123" class="st5" d="M36,219.3l0,2.1h10.5v-2.1H36z"/>
		<path id="Path_4124" class="st6" d="M36,231.5l0-2l10.3,0l0,1.9L36,231.5z"/>
		<path id="Path_4125" class="st2" d="M24.8,162.5l-0.1,18.4l-9.9,0.1l0.1-18.4L24.8,162.5z"/>
		<path id="Path_4126" class="st1" d="M19.8,180.3c-0.1,0-0.1-4,0-9s0.3-9,0.3-9s0.1,4,0,9S19.9,180.3,19.8,180.3z"/>
		<path id="Path_4127" class="st1" d="M14.8,175.1c0.1-0.1,0.2-0.3,0.3-0.4c0.3-0.3,0.6-0.7,0.9-0.9c0.5-0.4,1-0.8,1.6-1.1
			c2.1-1,4.6-0.5,6.2,1.2c0.3,0.3,0.5,0.7,0.7,1.1c0.1,0.1,0.1,0.3,0.2,0.5c-0.3-0.5-0.6-1-1-1.4c-1-1-2.3-1.6-3.7-1.6
			c-1.4,0-2.7,0.5-3.8,1.4C15.3,174.6,14.8,175.2,14.8,175.1z"/>
		<path id="Path_4128" class="st5" d="M14.8,169.3l0,2h10.1v-2H14.8z"/>
		<path id="Path_4129" class="st6" d="M14.8,181l0-1.9h9.9l0,1.8L14.8,181z"/>
		<path id="Path_4130" class="st1" d="M26.7,39.3l0.3-0.1c0.9-1.4,2.4-2.3,4-2.4c1.7,0,3.3,0.6,4.5,1.7c0.9,0.8,1.5,1.7,2.4,2.4
			c0.8,0.8,2,1.2,3.1,1.1c0.1,0.4-0.7,0.7-0.6,1.1c0.1,0.2,0.2,0.4,0.4,0.4c0.3,0,0.6,0,0.9,0c0.3,0,0.6,0.2,0.7,0.4
			c0,0.1,0,0.3,0,0.4c-0.3,1.3-0.9,2.5-1.8,3.5c-0.9,1-2.3,1.5-3.6,1.3c-1-0.3-2-0.8-2.8-1.6l-4.8-3.8c-0.8-0.6-1.4-1.2-2-1.9
			C26.9,41.2,26.6,40.2,26.7,39.3z"/>
		<path id="Path_4131" class="st1" d="M27.7,39.6c-0.6-0.5-1.4-0.9-2.2-1.1c-0.8-0.2-1.7,0-2.4,0.5c-0.6,0.5-1.1,1.1-1.5,1.8
			c-0.4,0.7-1,1.2-1.8,1.4c-0.1,0-0.3,0-0.4,0.1c-0.2,0.2-0.1,0.5,0.2,0.6c0.2,0.1,0.5,0.1,0.7,0c-0.4,0.4-0.9,0.7-1.5,0.8
			c0.2,0.6,0.7,0.9,1.3,0.8c-0.3,0.9-0.4,1.8-0.4,2.7c0,0.9,0.3,1.8,0.9,2.6c0.7,0.7,1.8,1.2,2.1,2.1"/>
		<path id="Path_4132" class="st4" d="M34.4,72.2L22,72l1.4-10.6c0,0-0.8-0.2-0.9-4.8s-0.3-12.4-0.3-12.4l0,0c5.3-2.3,11.4-1.5,16,2
			l0.7,0.5L34.4,72.2z"/>
		<path id="Path_4133" class="st4" d="M37.5,52.5c0.1,0,3.1-0.9,3,2.2c0.1,1.3-0.9,2.4-2.2,2.5c-0.3,0-0.7,0-1-0.2
			C37.3,56.9,37.5,52.5,37.5,52.5z"/>
		<path id="Path_4134" class="st4" d="M22.8,51.9c-0.1,0-2.9-0.8-2.8,2.3c-0.1,1.3,0.9,2.4,2.2,2.5c0.3,0,0.7,0,1-0.2
			C23.2,56.4,22.8,51.9,22.8,51.9z"/>
		<path id="Path_4135" class="st1" d="M38.5,52.2c-0.5,2.6-0.4,4-0.8,5.8c-0.5,2.7-2.2,5-4.6,6.3c-2.5,1.5-5.7,1.3-8-0.5
			c-1.5-1.2-2.5-2.9-2.8-4.8c-0.2-2-0.8-5.7-0.8-7.7c0-3.6,0.1-6.8,0.1-6.8l10.2-1.9l5.8,3.5L38.5,52.2z"/>
		<path id="Path_4136" class="st1" d="M27.9,65.8c1.2,0.3,2.4,0.2,3.5-0.4c0-0.1-0.8,0.2-1.7,0.3S28,65.7,27.9,65.8z"/>
		<path id="Path_4137" class="st1" d="M38,56.6c0.3-2.7,0.5-5.8,0.9-8.6c0.3-1.2,0.4-2.4,0.4-3.7c-0.1-1.1-0.4-0.7-0.9-1.7
			c-0.6-1.2-2.9-2-4.2-2.3s-1.5-1.4-2.5-0.5c-1-1.5-3-2-4.6-1c-0.8,0.5-1.4,1.4-1.5,2.4c-0.9-0.9-2.4-0.8-3.3,0.1
			c-0.6,0.6-0.8,1.4-0.5,2.2c-1.2,0.2-2,1.4-1.8,2.6c0.1,0.3,0.2,0.6,0.3,0.8c0.5,0.7,1.3,1.1,1.8,1.8c0.6,0.8,0.6,1.9,0.1,2.8"/>
		<path id="Path_4138" class="st7" d="M24.8,56.1c-0.2,1.9,0.5,3.8,1.9,5.1c-0.5-0.8-0.9-1.6-1.3-2.4C25.1,57.9,25,57,24.8,56.1
			L24.8,56.1z"/>
		<path id="Path_4139" class="st7" d="M23.5,53.8c-0.3,0.8-0.4,1.7-0.2,2.5c0.1,0.8,0.5,1.6,1.1,2.2c-0.3-0.7-0.6-1.5-0.8-2.3
			C23.4,55.4,23.4,54.6,23.5,53.8z"/>
		<path id="Path_4140" class="st1" d="M36.3,43c-0.7-1.3-1.9-2.3-3.2-2.9c-1.4-0.6-2.9-0.4-4.1,0.5"/>
		<path id="Path_4141" class="st7" d="M36,49.9c-0.1,0,0-0.4,0.1-0.9c0.1-0.7,0.2-1.4,0.2-2.2c0-0.7-0.2-1.4-0.5-2.1
			c-0.2-0.5-0.5-0.7-0.4-0.8s0.4,0.2,0.7,0.7c0.4,0.7,0.6,1.4,0.6,2.2c0,0.8-0.1,1.5-0.4,2.2C36.2,49.6,36.1,49.9,36,49.9z"/>
		<path id="Path_4142" class="st7" d="M33.9,50.9c0.1-0.5,0.2-1,0.4-1.4c0.1-0.5,0.3-1,0.5-1.4c0.1,0.5,0.1,1.1-0.2,1.5
			C34.4,50.4,34,51,33.9,50.9z"/>
		<path id="Path_4143" class="st7" d="M24.1,50.1c-0.3-0.3-0.6-0.7-0.7-1.1c-0.4-1-0.5-2.1-0.3-3.2c0.2-1.1,0.7-2,1.5-2.8
			c0.3-0.3,0.7-0.6,1.1-0.8c0,0.1-0.4,0.3-0.9,0.9c-1.4,1.6-1.8,3.8-1.1,5.7C23.9,49.6,24.2,50.1,24.1,50.1z"/>
		<path id="Path_4144" class="st7" d="M35.3,38.5c-0.4-0.1-0.7-0.2-1-0.4c-0.8-0.4-1.6-0.6-2.5-0.6c-0.8,0-1.7,0.3-2.2,0.9
			c-0.2,0.3-0.4,0.6-0.6,0.9c0-0.4,0.1-0.8,0.4-1.1c0.3-0.3,0.6-0.6,0.9-0.8c0.5-0.2,1-0.3,1.5-0.3c0.9,0,1.8,0.3,2.6,0.7
			C34.7,38,35,38.2,35.3,38.5z"/>
		<path id="Path_4145" class="st7" d="M21.3,41.4c0,0,0-0.4,0.4-0.8c0.9-1.2,2.5-1.7,4-1.2c0.5,0.2,0.8,0.5,0.7,0.5
			c-0.3-0.1-0.6-0.2-0.8-0.3c-1.3-0.4-2.8,0-3.7,1.1C21.5,41.1,21.4,41.4,21.3,41.4z"/>
		<path id="Path_4146" class="st7" d="M24.7,52.9c0,0,0.5-0.2,1.3-0.5c1.1-0.5,2.1-1.2,3-2l0.6-0.6l-0.3,0.8c-0.2,0.5-0.3,1-0.4,1.5
			c0,0.3-0.1,0.6,0,0.6s0.4-0.1,0.6-0.2c0.8-0.5,1.5-1.1,2.1-1.9l0.5-0.7l-0.2,0.8l-0.7,2.2l-0.2-0.1c0.8-0.8,1.4-1.6,2-2.5
			c-0.1,0.3-0.2,0.6-0.4,0.8c-0.4,0.7-0.9,1.3-1.5,1.9l-0.4,0.4l0.2-0.5c0.2-0.7,0.4-1.4,0.7-2.3l0.3,0.2c-0.6,0.8-1.3,1.4-2.2,2
			c-0.1,0.1-0.3,0.2-0.4,0.2c-0.2,0.1-0.4,0.1-0.6,0c-0.2-0.1-0.2-0.3-0.2-0.5c0-0.1,0-0.3,0.1-0.4c0.1-0.5,0.3-1.1,0.5-1.6l0.3,0.2
			c-0.9,0.9-2,1.5-3.2,2C25.6,52.7,25.2,52.9,24.7,52.9L24.7,52.9z"/>
		<path id="Path_4147" class="st1" d="M30.7,40.8c-0.2-0.4-0.6-0.6-1-0.8c-0.4-0.1-0.9-0.1-1.3,0c-1,0.2-2,0.7-2.6,1.5
			c-0.2,0.2-0.3,0.5-0.1,0.7c0.1,0.1,0.2,0.1,0.4,0.1c1.5,0.1,3.1,0.1,4.6-0.2"/>
		<path id="Path_4148" class="st8" d="M10.5,132.8c0.2,0.4,2.7,8.7,8.2,10.2s22.7,0.5,23.2,0s5.5-3.3,8-9
			c2.4-5.8-15.1-15.9-15.1-15.9L10.5,132.8z"/>
		<path id="Path_4149" class="st8" d="M52.8,135.1l0.2,4.7c0,0.7-0.1,4.3-0.2,5l-2.1,29c-0.2-0.1-1.5,17.8-1.6,24.1
			c-0.1,6-0.6,22.5-0.6,22.5H34.3l-0.9-27.2l-0.6-29.5L31.9,143L52.8,135.1z"/>
		<path id="Path_4150" class="st8" d="M10.5,128.2c0,0,0.3,0.5,0.2,6.9c-0.1,4.9,2.9,35.1,2.9,35.1l12-0.4l2.4-30.3L10.5,128.2z"/>
		<path id="Path_4151" class="st8" d="M33,143.4c-0.3,0.1-0.7,0.1-1,0.1c-0.7,0.1-1.6,0.2-2.8,0.2c-3.1,0.2-6.1,0.1-9.2-0.5
			c-3.1-0.6-5.8-2.3-7.8-4.7c-0.6-0.7-1-1.6-1.3-2.5c-0.1-0.2-0.1-0.5-0.2-0.7c0-0.2-0.1-0.3,0-0.3c0.4,1.2,1,2.3,1.8,3.3
			c2,2.3,4.7,3.9,7.7,4.5c3,0.6,6,0.8,9.1,0.7l2.8-0.1C32.4,143.4,32.7,143.4,33,143.4z"/>
		<path id="Path_4152" class="st7" d="M47.3,142.8c-0.5,0.2-1,0.3-1.5,0.4c-2.5,0.5-5.1,0.7-7.7,0.7c-0.5,0-1.1,0-1.6-0.1
			c0.5-0.1,1.1-0.1,1.6-0.1c1,0,2.3-0.1,3.8-0.2s2.8-0.3,3.8-0.4C46.2,142.9,46.8,142.8,47.3,142.8L47.3,142.8z"/>
		<path id="Path_4153" class="st7" d="M46.9,148.1c-0.7,0-1.4-0.1-2-0.2c-1.2-0.2-3-0.5-4.8-1s-3.5-1-4.7-1.4
			c-0.7-0.2-1.3-0.5-1.9-0.8c0.7,0.1,1.3,0.3,2,0.5c1.2,0.4,2.9,0.8,4.7,1.3s3.6,0.8,4.8,1.1C45.6,147.8,46.2,147.9,46.9,148.1z"/>
		<path id="Path_4154" class="st9" d="M43.5,46.6c-0.5-1.1-1.1-2.1-1.7-3.1c0,0,3.9-4.1,6.2-4l2.2,3.1L43.5,46.6z"/>
		<path id="Path_4155" class="st2" d="M62,59.6c-0.9-2.6-11.5-18-11.5-18c-4,0-7.8,4.8-7.8,4.8l7.6,16l-8,7.3l9,10.6
			c0,0,5.7-7.1,7.4-9.7C62.5,64.8,62.8,62.2,62,59.6z"/>
		<path id="Path_4156" class="st10" d="M10.2,132c0,0,0.9,5.9,5.9,7.7s16.4,0,16.4,0l1.3-4.3l1.4,5.1l17.7-2.3l-0.3-4.1l-18.8-7.8
			L10.2,132z"/>
		<path id="Path_4157" class="st2" d="M48.8,112.2c-0.4-2.1-0.9-3.2-0.9-4.4c-0.3-4.7-0.3-9.3,0-14c0.3-1.5,3.4-13.5,3.4-13.5
			l-1-9.3l-13.1-2.2l-0.9-2.1c0,0-8.7-2.3-14.3,0.7l0,0l-1,2.3l-3.4,0.9c-0.5,0.2-3.2,0.9-5.2,1.5c-2.3,0.6-4.1,2.2-5.1,4.3
			c-0.3,0.8-0.7,1.5-0.9,2.3c-0.9,2.7-6.1,17.5-6.3,22c-0.3,5.3,4.4,5.5,7.3,4.8s6-7.1,6-7.1l1.8,12.5c-0.3,1.7-0.7,3.4-1.2,5
			c-1.7,4.8-4.2,13.9-4.2,13.9c1,3.1,4.5,7.9,6.4,8.6s14.3,0.1,14.3,0.1l3.7-9.7l3.4,10.2l17.6-2.8L48.8,112.2z"/>
		<path id="Path_4158" class="st1" d="M33.9,108.6c0,0.1-2.5,1.8-5.7,3.7c-1.9,1.3-3.8,2.4-5.9,3.5
			C26.1,113.2,29.9,110.8,33.9,108.6z"/>
		<path id="Path_4159" class="st1" d="M29.2,113.7c0,0.1-2.6,1.9-6,4s-6.2,3.8-6.2,3.7s2.6-1.9,6-4S29.2,113.6,29.2,113.7z"/>
		<path id="Path_4160" class="st1" d="M43.2,99.7c-0.5,1.2-1.2,2.3-2.1,3.3c-0.8,1-1.8,1.9-3,2.5c-0.1-0.1,1.3-1.1,2.7-2.7
			S43.1,99.7,43.2,99.7z"/>
		<path id="Path_4161" class="st1" d="M43.5,101.4c-0.1,0.5-0.3,0.9-0.6,1.3c-0.6,1-1.2,2-1.9,2.9c-0.7,0.9-1.5,1.8-2.3,2.6
			c-0.3,0.4-0.7,0.7-1.1,1c-0.1-0.1,1.5-1.6,3.1-3.8S43.5,101.4,43.5,101.4z"/>
		<path id="Path_4162" class="st1" d="M44,117.6c0.1-0.6,0.3-1.2,0.5-1.8c0.3-1.1,0.7-2.6,1.1-4.2s0.7-3.2,0.9-4.3
			c0.1-0.6,0.2-1.2,0.4-1.8c0,0.6,0,1.2-0.1,1.8c-0.2,1.4-0.4,2.9-0.8,4.3c-0.3,1.4-0.7,2.8-1.2,4.2C44.5,116.5,44.2,117.1,44,117.6
			L44,117.6z"/>
		<path id="Path_4163" class="st1" d="M50.5,78.8c-0.1,0.1-1.3-2-3-4.2s-3.5-3.9-3.4-4c0.4,0.3,0.8,0.6,1.2,1
			c0.9,0.9,1.7,1.8,2.5,2.8c0.8,1,1.5,2,2.1,3.1C50.1,77.9,50.3,78.3,50.5,78.8z"/>
		<path id="Path_4164" class="st1" d="M53.3,74.1c-0.8-1.1-1.6-2-2.6-2.9c-1.1-0.8-2.2-1.4-3.4-1.8c0.4,0,0.8,0.1,1.2,0.2
			c1.8,0.6,3.4,1.8,4.4,3.4C53,73.3,53.2,73.7,53.3,74.1z"/>
		<path id="Path_4165" class="st1" d="M15,110.8c-0.1,0-1.2-6.8-2.4-15.2s-2.1-15.3-2-15.3s1.1,6.8,2.4,15.2S15.1,110.8,15,110.8z"
			/>
		<path id="Path_4166" class="st1" d="M37.3,68.8c-0.8,0-1.6,0-2.4-0.1c-1.5-0.1-3.5-0.1-5.8,0c-1.9,0.1-3.9,0.3-5.8,0.5
			c-0.8,0.1-1.6,0.2-2.4,0.3c0.2-0.1,0.4-0.2,0.6-0.2c0.4-0.1,1-0.2,1.7-0.4c1.9-0.3,3.9-0.6,5.8-0.7c1.9-0.1,3.9-0.1,5.8,0.1
			c0.7,0.1,1.3,0.1,1.8,0.2C36.9,68.6,37.1,68.7,37.3,68.8z"/>
		<g id="Group_272" transform="translate(9.986 82.936)" class="st11">
			<path id="Path_4167" d="M3.3,15.8C2.6,10.6,1.6,5.3,1,0C-0.9,5.3,0,11.2,3.3,15.8z"/>
		</g>
		<g id="Group_273" transform="translate(50.138 59.857)" class="st11">
			<path id="Path_4168" d="M0,2.2C1.2,1,2.8,0.3,4.5,0.1c0.8-0.2,1.6,0,2.3,0.5C7,0.7,7.1,0.8,7.1,1c0,0.2-0.2,0.3-0.4,0.3
				c-0.2,0-0.4,0-0.5,0C4.1,1.1,1.9,1.5,0,2.2"/>
		</g>
		<g id="Group_274" transform="translate(21.374 68.394)" class="st11">
			<path id="Path_4169" d="M0.3,1.3C2,1.7,3.8,1.8,5.5,1.6c3.1-0.3,6.1-0.7,9.2-1.2C9.8-0.3,4.8,0,0,1.2"/>
		</g>
		<g id="Group_275" transform="translate(21.11 107.768)" class="st11">
			<path id="Path_4170" d="M0,11.3C7,9.4,13.3,5.4,18.1,0C12.5,3.5,5.4,7.5,0,11.3z"/>
		</g>
		<path id="Path_4171" class="st1" d="M54.4,61.3c-0.8,0-1.6,0-2.3,0.2c-0.7,0.3-1.4,0.6-2.1,1.1c0,0,0.1-0.3,0.5-0.6
			c0.4-0.4,1-0.7,1.5-0.8c0.6-0.2,1.2-0.2,1.8-0.1C54.2,61.1,54.4,61.2,54.4,61.3z"/>
	</g>
	<g id="freepik--speech-bubble--inject-68" transform="translate(94.99 97.245)">
		<path id="Path_4172" class="st9" d="M34.7,27.4l-6.1,0.3c-2,2.3-4.5,4.1-7.4,5C12.8,35.5,3.7,30.9,1,22.4c0-0.2-0.1-0.3-0.1-0.5
			c-2.7-8.7,2.1-18,10.7-21C20-1.8,29.1,2.8,31.8,11.3c0.1,0.2,0.1,0.3,0.1,0.5c1.1,3.5,1,7.3-0.3,10.8l0,0L34.7,27.4z"/>
		<path id="Path_4173" class="st1" d="M34.7,27.4l-0.2-0.3l-0.6-0.9l-2.3-3.6h0.1c0,0-0.1,0-0.1,0c0,0,0,0,0,0c0,0,0-0.1,0-0.1
			c0.9-2.6,1.2-5.4,0.8-8.1c-0.2-1.8-0.8-3.5-1.6-5c-1.8-3.8-5.1-6.7-9.1-8.1c-2.2-0.8-4.6-1-7-0.8c-2.5,0.3-4.9,1.2-7,2.5
			c-2.2,1.4-4,3.4-5.3,5.7c-1.3,2.3-2,4.8-2.2,7.4c-0.1,2.5,0.3,5,1.2,7.3c1.7,4.2,5.1,7.6,9.4,9.1c3.5,1.3,7.4,1.3,11-0.1
			c2.6-1,4.9-2.6,6.7-4.7c0,0,0,0,0.1,0l4.5-0.2l1.2,0h0l-1.1,0.1l-4.5,0.3h0.1c-1.8,2.2-4.1,3.8-6.7,4.8c-3.6,1.4-7.5,1.4-11.1,0.1
			c-4.4-1.6-7.9-5-9.6-9.3C0.3,21.1-0.1,18.6,0,16c0.1-1.3,0.3-2.6,0.7-3.9c0.8-2.6,2.1-4.9,4-6.9c0.9-1,1.9-1.8,3-2.5
			c2.1-1.4,4.6-2.3,7.1-2.6c4.7-0.5,9.3,1.1,12.8,4.3c1.5,1.4,2.7,3,3.6,4.9c0.8,1.6,1.3,3.3,1.6,5.1c0.4,2.8,0.1,5.6-0.9,8.2
			l-0.1-0.1l0,0c0,0,0.1,0,0.1,0c0,0,0,0,0,0l0,0c1,1.6,1.7,2.9,2.3,3.7l0.6,0.9C34.7,27.3,34.7,27.4,34.7,27.4z"/>
		<path id="Path_4174" class="st2" d="M11.3,14.2L16.1,8l4.8,6.1L11.3,14.2z"/>
		<path id="Path_4175" class="st2" d="M18.5,25.4l-4.4,0l-0.1-12.3l4.4,0L18.5,25.4z"/>
	</g>
</g>
</svg>
