<?xml version="1.0" encoding="utf-8"?>
<!-- Generator: Adobe Illustrator 26.2.1, SVG Export Plug-In . SVG Version: 6.00 Build 0)  -->
<svg version="1.1" id="Layer_1" xmlns="http://www.w3.org/2000/svg" xmlns:xlink="http://www.w3.org/1999/xlink" x="0px" y="0px"
	 viewBox="0 0 285 273.2" style="enable-background:new 0 0 285 273.2;" xml:space="preserve">
<style type="text/css">
	.st0{fill:#007A78;}
	.st1{opacity:0.7;fill:#FFFFFF;enable-background:new    ;}
	.st2{fill:#FDFCDC;}
	.st3{fill:#D4D4D4;}
	.st4{fill:#707070;stroke:#263238;stroke-linejoin:round;}
	.st5{fill:#263238;stroke:#263238;stroke-linejoin:round;}
	.st6{fill:#FFFFFF;}
	.st7{fill:#263238;}
	.st8{fill:#FDFCDC;stroke:#263238;stroke-linecap:round;stroke-linejoin:round;}
	.st9{fill:none;stroke:#263238;}
	.st10{fill:#CBDAD5;stroke:#263238;stroke-linecap:round;stroke-linejoin:round;}
	.st11{fill:#007172;}
	.st12{fill:#D94F04;}
	.st13{fill:#263238;stroke:#263238;stroke-linecap:round;stroke-linejoin:round;}
	.st14{fill:#FFE1DD;}
	.st15{fill:none;stroke:#263238;stroke-linecap:round;stroke-linejoin:round;}
	.st16{fill:#FFE1DD;stroke:#263238;stroke-linecap:round;stroke-linejoin:round;}
	.st17{fill:none;stroke:#263238;stroke-width:2;stroke-linecap:round;stroke-linejoin:round;}
	.st18{fill:#D4D4D4;stroke:#263238;}
	.st19{fill:#6E6E6E;stroke:#263238;}
	.st20{fill:#CBDAD5;stroke:#263238;}
	.st21{fill:#007A78;stroke:#263238;}
	.st22{fill:#263238;stroke:#263238;}
	.st23{fill:#007172;stroke:#263238;}
	.st24{fill:#D94F04;stroke:#263238;}
	.st25{fill:#919191;stroke:#263238;}
	.st26{opacity:0.29;enable-background:new    ;}
</style>
<g id="Course_app-bro" transform="translate(-15.596 -22.13)">
	<g id="freepik--background-simple--inject-56" transform="translate(15.596 39.874)">
		<path id="Path_2928" class="st0" d="M7.1,94.9c3.1-30.5,21.3-57.4,48.5-71.6c23.7-12.3,49.6-20,76.2-22.5
			c72.3-6.8,92.7,30.3,104.9,63.8s52,90,47.9,145.6c0,0-3.2,30.8-14.9,44.8H6.6c0,0-15.4-20.8,0.9-60.1s-5.4-41.2-1.4-89.5
			C6.4,101.6,6.8,98.1,7.1,94.9z"/>
		<path id="Path_2929" class="st1" d="M7.1,94.9c3.1-30.5,21.3-57.4,48.5-71.6c23.7-12.3,49.6-20,76.2-22.5
			c72.3-6.8,92.7,30.3,104.9,63.8s52,90,47.9,145.6c0,0-3.2,30.8-14.9,44.8H6.6c0,0-15.4-20.8,0.9-60.1s-5.4-41.2-1.4-89.5
			C6.4,101.6,6.8,98.1,7.1,94.9z"/>
	</g>
	<g id="freepik--Device--inject-56" transform="translate(173.831 22.63)">
		<path id="Path_2930" class="st2" d="M101.8,12.4v183c0,5-4.1,9.1-9.1,9.1H13.6c-5,0-9.1-4.1-9.1-9.1v-183c0-5,4.1-9.1,9.1-9.1l0,0
			h33.9l0,0.1c0.8,3,2.8,5,5,5h1.2c2.2,0,4.1-2,5-5l0-0.1h33.9C97.7,3.3,101.8,7.3,101.8,12.4C101.8,12.4,101.8,12.4,101.8,12.4
			L101.8,12.4z"/>
		<path id="Path_2931" class="st0" d="M101.8,143.6V12.4c0-5-4.1-9.1-9.1-9.1c0,0,0,0,0,0H58.8l0,0.1c-0.9,3-2.8,5-5,5h-1.2
			c-2.2,0-4.1-2-5-5l0-0.1h-34c-5,0-9.1,4.1-9.1,9.1c0,0,0,0,0,0v131.2H101.8z"/>
		<path id="Path_2932" class="st3" d="M58.7,3.4c-0.9,3-2.8,5-5,5h-1.2c-2.2,0-4.1-2-5-5l0-0.1H19c-7.1,0-13.1,5.2-14.2,12.2h96.9
			c-1.1-7-7.2-12.1-14.2-12.2H58.8L58.7,3.4z"/>
		<path id="Path_2933" class="st4" d="M108,56.1V37.8h-1.7V14.4c0-8-6.5-14.4-14.4-14.4H14.4C6.5,0,0,6.5,0,14.4v185.9
			c0,8,6.5,14.4,14.4,14.4h77.5c8,0,14.4-6.5,14.4-14.4V71.7h1.7V60.9h-1.7v-4.8H108z M101.8,190.1c0,8-6.5,14.4-14.4,14.4H19
			c-8,0-14.4-6.5-14.4-14.4V17.7C4.5,9.7,11,3.3,19,3.3h28.6l0,0.1c0.8,3,2.8,5,5,5h1.2c2.2,0,4.1-2,5-5l0-0.1h28.6
			c8,0,14.4,6.5,14.4,14.4L101.8,190.1z"/>
		<path id="Path_2934" class="st5" d="M90.7,2H15.6C7.9,2,1.7,8.2,1.7,15.9c0,0,0,0,0,0v183c0,7.7,6.2,13.9,13.9,13.9c0,0,0,0,0,0
			h75.2c7.7,0,13.9-6.2,13.9-13.9c0,0,0,0,0,0v-183C104.7,8.2,98.4,2,90.7,2C90.7,2,90.7,2,90.7,2z M101.8,190.6
			c0,7.7-6.2,13.9-13.9,13.9l0,0H18.4c-7.7,0-13.9-6.2-13.9-13.9V17.2c0-7.7,6.2-13.9,13.9-13.9l0,0h29.1l0,0.1c0.8,3,2.8,5,5,5h1.2
			c2.2,0,4.1-2,5-5l0-0.1h29.1c7.7,0,13.9,6.2,13.9,13.9L101.8,190.6z"/>
		<path id="Path_2935" class="st6" d="M54.2,4c0-0.7-0.6-1.4-1.4-1.3c-0.7,0-1.4,0.6-1.3,1.4c0,0.7,0.6,1.4,1.4,1.3
			c0.4,0,0.7-0.1,0.9-0.4C54.1,4.7,54.2,4.3,54.2,4z"/>
		<path id="Path_2936" class="st7" d="M13.2,9.2c0,1.4-1.5,1.9-1.5,2.9v0.1h1.5v0.5h-2v-0.4c0-1.5,1.5-1.8,1.5-3
			c0-0.5-0.2-0.7-0.5-0.7s-0.5,0.3-0.5,0.7v0.4h-0.5V9.2c0-0.7,0.3-1.2,1-1.2S13.2,8.5,13.2,9.2z"/>
		<path id="Path_2937" class="st7" d="M15.7,9.2L15.7,9.2c0,0.5-0.2,0.9-0.6,1c0.4,0.2,0.6,0.5,0.6,0.9v0.3c0,0.7-0.3,1.2-1,1.2
			s-1-0.5-1-1.2v-0.3h0.5v0.3c0,0.4,0.2,0.7,0.5,0.7s0.5-0.2,0.5-0.7v-0.3c0-0.4-0.2-0.7-0.6-0.7h-0.3V10h0.3c0.3,0,0.6-0.2,0.6-0.5
			c0,0,0,0,0-0.1V9.2c0-0.5-0.2-0.7-0.5-0.7s-0.5,0.3-0.5,0.7v0.2h-0.5V9.2c0-0.7,0.3-1.1,1-1.1S15.7,8.5,15.7,9.2z"/>
		<path id="Path_2938" class="st7" d="M16.6,9.5v0.6h-0.5V9.5H16.6z M16.6,12v0.6h-0.5V12H16.6z"/>
		<path id="Path_2939" class="st7" d="M17.7,9.9c0.1-0.2,0.4-0.4,0.7-0.4c0.6,0,0.8,0.4,0.8,1.1v0.9c0,0.7-0.3,1.2-1,1.2
			s-1-0.5-1-1.2v-0.3h0.5v0.3c0,0.4,0.2,0.7,0.5,0.7s0.5-0.2,0.5-0.7v-0.9c0-0.4-0.2-0.7-0.5-0.7c-0.3,0-0.5,0.2-0.5,0.5
			c0,0,0,0,0,0v0.1h-0.5l0.1-2.5h1.8v0.5h-1.3L17.7,9.9z"/>
		<path id="Path_2940" class="st7" d="M21.7,9.2L21.7,9.2l-0.4,0.1V9.1c0-0.4-0.2-0.6-0.5-0.6s-0.5,0.2-0.5,0.7v1
			c0.1-0.3,0.4-0.5,0.7-0.5c0.6,0,0.8,0.4,0.8,1.1v0.7c0,0.7-0.4,1.2-1,1.2s-1-0.5-1-1.2V9.2c0-0.7,0.3-1.2,1-1.2S21.7,8.5,21.7,9.2
			z M20.2,10.9v0.7c0,0.4,0.2,0.7,0.5,0.7s0.5-0.2,0.5-0.7v-0.7c0-0.4-0.2-0.7-0.5-0.7S20.2,10.5,20.2,10.9z"/>
		<rect id="Rectangle_280" x="70" y="9.4" class="st7" width="1.3" height="3.2"/>
		<rect id="Rectangle_281" x="71.8" y="8.7" class="st7" width="1.3" height="3.9"/>
		<rect id="Rectangle_282" x="73.5" y="8.3" class="st7" width="1.3" height="4.3"/>
		<rect id="Rectangle_283" x="75.2" y="7.5" class="st7" width="1.3" height="5.1"/>
		<path id="Path_2941" class="st7" d="M92.3,12.5h-7.7V7.8h7.7V12.5z M85.1,12.1h6.8V8.2h-6.8V12.1z"/>
		<rect id="Rectangle_284" x="85.7" y="8.7" class="st7" width="4.1" height="2.9"/>
		<rect id="Rectangle_285" x="92.1" y="9.6" class="st7" width="1" height="1.1"/>
		<path id="Path_2942" class="st7" d="M81.8,11.5c-0.1,0-0.1,0-0.1,0c-0.8-0.6-1.9-0.6-2.6,0c-0.1,0.1-0.3,0.1-0.4,0c0,0,0,0,0,0
			c-0.1-0.1-0.1-0.3,0-0.4c1-0.8,2.3-0.8,3.3,0c0.1,0.1,0.2,0.3,0.1,0.4c0,0,0,0,0,0C82,11.4,81.9,11.5,81.8,11.5L81.8,11.5z"/>
		<path id="Path_2943" class="st7" d="M82.4,10.5c-0.1,0-0.1,0-0.1,0c-1.1-0.8-2.7-0.8-3.8,0c-0.1,0.1-0.3,0.1-0.4,0
			c-0.1-0.1-0.1-0.3,0-0.4c1.3-1,3.1-1,4.5,0c0.1,0.1,0.2,0.3,0.1,0.4c0,0,0,0,0,0C82.6,10.4,82.5,10.5,82.4,10.5z"/>
		<path id="Path_2944" class="st7" d="M82.9,9.4c-0.1,0-0.1,0-0.2,0c-2.9-1.7-4.8-0.1-4.9,0c-0.1,0.1-0.3,0-0.4-0.1
			c-0.1-0.1-0.1-0.2,0-0.3c1.6-1.2,3.9-1.2,5.5,0c0.1,0.1,0.2,0.3,0.1,0.4C83.1,9.3,83,9.4,82.9,9.4z"/>
		<path id="Path_2945" class="st7" d="M81,11.9c0,0.4-0.3,0.7-0.7,0.7s-0.7-0.3-0.7-0.7c0-0.4,0.3-0.7,0.7-0.7c0,0,0,0,0,0
			C80.6,11.2,81,11.5,81,11.9z"/>
		<rect id="Rectangle_286" x="10.7" y="52.8" class="st8" width="85.9" height="55"/>
		<rect id="Rectangle_287" x="10.7" y="101.7" class="st8" width="85.9" height="6.1"/>
		<rect id="Rectangle_288" x="10.7" y="103.8" class="st8" width="85.9" height="1.8"/>
		<path id="Path_2946" class="st2" d="M12.1,46.9l0.1-7.7h1.7l1,4.8l1-4.8h1.6l0.1,7.7h-1.1l-0.1-5.2l-1,5.2h-1l-1-5.3l-0.1,5.3
			H12.1z"/>
		<path id="Path_2947" class="st2" d="M19.6,46.9v-3l-1.5-4.6h1.5l0.8,2.7l0.8-2.7h1.4l-1.5,4.6v3L19.6,46.9z"/>
		<path id="Path_2948" class="st2" d="M27.7,47c-0.5,0-0.9-0.1-1.4-0.3c-0.3-0.2-0.6-0.5-0.7-0.9c-0.1-0.4-0.2-0.9-0.2-1.3v-2.8
			c0-0.5,0.1-0.9,0.2-1.4c0.1-0.4,0.4-0.7,0.7-0.9c0.4-0.2,0.9-0.3,1.4-0.3c0.4,0,0.9,0.1,1.3,0.3c0.3,0.2,0.5,0.5,0.7,0.8
			c0.1,0.4,0.2,0.8,0.2,1.2V42h-1.5v-0.7c0-0.2,0-0.3,0-0.5c0-0.1-0.1-0.3-0.2-0.4c-0.3-0.2-0.6-0.2-0.9,0c-0.1,0.1-0.2,0.2-0.2,0.4
			c0,0.2,0,0.4,0,0.5v3.5c0,0.2,0,0.4,0,0.6c0,0.1,0.1,0.3,0.2,0.4c0.1,0.1,0.3,0.1,0.4,0.1c0.2,0,0.3,0,0.4-0.1
			c0.1-0.1,0.1-0.3,0.2-0.4c0-0.2,0-0.3,0-0.5V44h1.5v0.6c0,0.4-0.1,0.8-0.2,1.2c-0.1,0.3-0.4,0.6-0.7,0.8
			C28.6,46.9,28.2,47,27.7,47z"/>
		<path id="Path_2949" class="st2" d="M33,47c-0.5,0-0.9-0.1-1.3-0.3c-0.3-0.2-0.6-0.5-0.7-0.9c-0.1-0.4-0.2-0.9-0.2-1.4v-2.9
			c0-0.5,0.1-0.9,0.2-1.4c0.1-0.4,0.4-0.7,0.7-0.8c0.4-0.2,0.9-0.3,1.3-0.3c0.5,0,0.9,0.1,1.4,0.3c0.3,0.2,0.6,0.5,0.7,0.9
			c0.2,0.4,0.2,0.9,0.2,1.3v2.9c0,0.5-0.1,0.9-0.2,1.4c-0.1,0.4-0.4,0.7-0.7,0.9C33.9,46.9,33.5,47,33,47z M33,45.8
			c0.2,0,0.3,0,0.5-0.1c0.1-0.1,0.2-0.2,0.2-0.4c0-0.2,0-0.3,0-0.5v-3.6c0-0.2,0-0.3,0-0.5c0-0.1-0.1-0.3-0.2-0.4
			c-0.1-0.1-0.3-0.1-0.5-0.1c-0.2,0-0.3,0-0.4,0.1c-0.1,0.1-0.2,0.2-0.2,0.4c0,0.2,0,0.3,0,0.5v3.6c0,0.2,0,0.3,0,0.5
			c0,0.1,0.1,0.3,0.2,0.4C32.7,45.8,32.8,45.9,33,45.8L33,45.8z"/>
		<path id="Path_2950" class="st2" d="M38.5,47c-0.5,0-0.9-0.1-1.4-0.3c-0.3-0.2-0.6-0.5-0.7-0.9c-0.1-0.4-0.2-0.9-0.2-1.4v-5.3h1.5
			v5.5c0,0.2,0,0.4,0,0.6c0,0.2,0.1,0.3,0.2,0.4c0.1,0.1,0.3,0.2,0.5,0.2c0.2,0,0.3-0.1,0.5-0.2c0.1-0.1,0.2-0.3,0.2-0.4
			c0-0.2,0-0.4,0-0.6v-5.5h1.5v5.3c0,0.5-0.1,0.9-0.2,1.4c-0.1,0.3-0.4,0.6-0.7,0.8C39.4,46.9,39,47,38.5,47L38.5,47z"/>
		<path id="Path_2951" class="st2" d="M41.8,46.9v-7.7h2c0.5,0,0.9,0,1.3,0.2c0.3,0.1,0.6,0.3,0.9,0.6c0.2,0.4,0.3,0.8,0.3,1.2
			c0,0.3,0,0.6-0.1,0.8c-0.1,0.2-0.1,0.4-0.3,0.6c-0.2,0.2-0.4,0.3-0.6,0.4l1.1,3.8h-1.6l-0.9-3.5h-0.6v3.5L41.8,46.9z M43.4,42.5
			h0.5c0.2,0,0.4,0,0.6-0.1c0.1-0.1,0.3-0.2,0.3-0.4c0.1-0.2,0.1-0.4,0.1-0.6c0-0.3,0-0.6-0.2-0.8c-0.2-0.2-0.5-0.3-0.7-0.3h-0.5
			L43.4,42.5z"/>
		<path id="Path_2952" class="st2" d="M49.3,47c-0.4,0-0.8-0.1-1.2-0.3c-0.3-0.2-0.6-0.5-0.7-0.8c-0.2-0.4-0.3-0.9-0.3-1.3l1.4-0.2
			c0,0.3,0,0.5,0.1,0.8c0,0.2,0.1,0.3,0.2,0.5c0.1,0.1,0.3,0.2,0.4,0.2c0.2,0,0.3-0.1,0.4-0.2c0.1-0.1,0.1-0.3,0.1-0.4
			c0-0.3-0.1-0.6-0.2-0.8c-0.2-0.2-0.4-0.5-0.6-0.7L48.1,43c-0.3-0.2-0.5-0.5-0.7-0.8c-0.2-0.3-0.3-0.7-0.3-1.1
			c0-0.5,0.2-1.1,0.6-1.5c0.4-0.4,1-0.5,1.5-0.5c0.3,0,0.7,0.1,0.9,0.2c0.2,0.1,0.5,0.3,0.6,0.5c0.1,0.2,0.2,0.4,0.3,0.7
			c0.1,0.2,0.1,0.5,0.1,0.7l-1.3,0.2c0-0.2,0-0.4-0.1-0.6c0-0.2-0.1-0.3-0.2-0.4c-0.2-0.2-0.5-0.2-0.8,0c0,0,0,0,0,0.1
			c-0.1,0.1-0.1,0.3-0.1,0.5c0,0.2,0.1,0.5,0.2,0.7c0.2,0.2,0.3,0.4,0.5,0.5l0.8,0.7c0.3,0.3,0.6,0.6,0.8,1c0.2,0.4,0.4,0.9,0.4,1.3
			c0,0.3-0.1,0.7-0.2,1c-0.2,0.3-0.4,0.5-0.7,0.7C50,46.9,49.7,47,49.3,47z"/>
		<path id="Path_2953" class="st2" d="M52,46.9v-7.7h3.4v1.1h-1.8v2h1.4v1.1h-1.4v2.4h1.8v1.1H52z"/>
		<path id="Path_2954" class="st2" d="M11.7,118.4v-6.1h0.8v6.1H11.7z"/>
		<path id="Path_2955" class="st2" d="M13.5,118.4v-6.1h0.6l1.7,4v-4h0.7v6.1H16l-1.7-4.1v4.1H13.5z"/>
		<path id="Path_2956" class="st2" d="M18.1,118.4v-5.4h-1v-0.6H20v0.6h-1v5.4H18.1z"/>
		<path id="Path_2957" class="st2" d="M20.6,118.4v-6.1h1.2c0.3,0,0.7,0,1,0.2c0.3,0.1,0.5,0.3,0.6,0.5c0.1,0.3,0.2,0.6,0.2,0.9
			c0,0.2,0,0.4-0.1,0.6c0,0.2-0.1,0.3-0.2,0.5c-0.1,0.1-0.3,0.2-0.4,0.3l0.9,3h-0.8l-0.8-2.8h-0.7v2.8L20.6,118.4z M21.4,114.9h0.3
			c0.2,0,0.4,0,0.6-0.1c0.1-0.1,0.3-0.2,0.3-0.3c0.1-0.2,0.1-0.4,0.1-0.6c0-0.3,0-0.5-0.2-0.8c-0.2-0.2-0.5-0.3-0.8-0.2h-0.4
			L21.4,114.9z"/>
		<path id="Path_2958" class="st2" d="M26,118.4c-0.3,0-0.7-0.1-1-0.2c-0.2-0.2-0.4-0.4-0.5-0.7c-0.1-0.3-0.2-0.7-0.2-1v-2.3
			c0-0.4,0-0.7,0.2-1c0.1-0.3,0.3-0.5,0.5-0.7c0.3-0.2,0.6-0.2,1-0.2c0.3,0,0.7,0.1,1,0.2c0.2,0.2,0.4,0.4,0.5,0.7
			c0.1,0.3,0.2,0.7,0.2,1v2.3c0,0.4,0,0.7-0.2,1c-0.1,0.3-0.3,0.5-0.5,0.7C26.7,118.4,26.3,118.5,26,118.4z M26,117.8
			c0.2,0,0.4,0,0.5-0.1c0.1-0.1,0.2-0.2,0.2-0.4c0-0.2,0.1-0.4,0.1-0.6V114c0-0.2,0-0.4-0.1-0.6c0-0.1-0.1-0.3-0.2-0.4
			c-0.2-0.1-0.3-0.1-0.5-0.1c-0.2,0-0.4,0-0.5,0.1c-0.1,0.1-0.2,0.2-0.2,0.4c0,0.2-0.1,0.4-0.1,0.6v2.7c0,0.2,0,0.4,0.1,0.6
			c0,0.2,0.1,0.3,0.2,0.4C25.6,117.7,25.8,117.8,26,117.8L26,117.8z"/>
		<path id="Path_2959" class="st2" d="M28.5,118.4v-6.1h1.3c0.4,0,0.7,0.1,1.1,0.2c0.3,0.1,0.4,0.3,0.6,0.6c0.1,0.3,0.2,0.7,0.2,1
			v2.2c0,0.4,0,0.7-0.2,1.1c-0.1,0.3-0.3,0.5-0.5,0.7c-0.3,0.2-0.7,0.2-1,0.2L28.5,118.4z M29.4,117.8h0.5c0.2,0,0.5,0,0.7-0.2
			c0.1-0.1,0.2-0.3,0.2-0.5c0-0.3,0-0.6,0-0.8v-2c0-0.3,0-0.5-0.1-0.8c0-0.2-0.1-0.3-0.3-0.4c-0.2-0.1-0.4-0.2-0.6-0.1h-0.5
			L29.4,117.8z"/>
		<path id="Path_2960" class="st2" d="M34,118.4c-0.4,0-0.7-0.1-1-0.3c-0.2-0.2-0.4-0.4-0.5-0.7c-0.1-0.4-0.1-0.7-0.1-1.1v-4h0.8
			v4.1c0,0.2,0,0.5,0.1,0.7c0,0.2,0.1,0.4,0.2,0.5c0.1,0.1,0.3,0.2,0.5,0.2c0.2,0,0.4-0.1,0.5-0.2c0.1-0.1,0.2-0.3,0.2-0.5
			c0-0.2,0.1-0.5,0-0.7v-4.1h0.8v4c0,0.4,0,0.8-0.1,1.1c-0.1,0.3-0.2,0.6-0.5,0.7C34.7,118.4,34.4,118.4,34,118.4z"/>
		<path id="Path_2961" class="st2" d="M38,118.4c-0.4,0-0.7-0.1-1-0.3c-0.2-0.2-0.4-0.4-0.5-0.7c-0.1-0.3-0.1-0.7-0.1-1v-2.1
			c0-0.4,0-0.7,0.1-1.1c0.1-0.3,0.3-0.5,0.5-0.7c0.6-0.3,1.3-0.3,1.9,0c0.2,0.1,0.4,0.4,0.5,0.6c0.1,0.3,0.2,0.6,0.1,0.9v0.5h-0.8
			V114c0-0.2,0-0.4,0-0.6c0-0.2-0.1-0.3-0.2-0.4c-0.1-0.1-0.3-0.2-0.5-0.1c-0.2,0-0.4,0-0.5,0.2c-0.1,0.1-0.2,0.3-0.2,0.4
			c0,0.2,0,0.4,0,0.7v2.4c0,0.2,0,0.5,0.1,0.7c0,0.2,0.1,0.3,0.2,0.4c0.1,0.1,0.3,0.1,0.5,0.1c0.2,0,0.4,0,0.5-0.2
			c0.1-0.1,0.2-0.3,0.2-0.4c0-0.2,0-0.4,0-0.6v-0.5h0.8v0.5c0,0.3,0,0.7-0.1,1c-0.1,0.3-0.2,0.5-0.5,0.7
			C38.7,118.4,38.4,118.5,38,118.4L38,118.4z"/>
		<path id="Path_2962" class="st2" d="M41,118.4v-5.4h-1v-0.6h2.9v0.6h-1v5.4H41z"/>
		<path id="Path_2963" class="st2" d="M43.5,118.4v-6.1h0.8v6.1H43.5z"/>
		<path id="Path_2964" class="st2" d="M46.9,118.4c-0.3,0-0.7-0.1-1-0.2c-0.2-0.2-0.4-0.4-0.5-0.7c-0.1-0.3-0.2-0.7-0.2-1v-2.3
			c0-0.4,0-0.7,0.2-1c0.1-0.3,0.3-0.5,0.5-0.7c0.3-0.2,0.6-0.2,1-0.2c0.3,0,0.7,0.1,1,0.2c0.2,0.2,0.4,0.4,0.5,0.7
			c0.1,0.3,0.2,0.7,0.2,1v2.3c0,0.4,0,0.7-0.2,1c-0.1,0.3-0.3,0.5-0.5,0.7C47.5,118.4,47.2,118.5,46.9,118.4z M46.9,117.8
			c0.2,0,0.4,0,0.5-0.1c0.1-0.1,0.2-0.2,0.2-0.4c0-0.2,0.1-0.4,0.1-0.6V114c0-0.2,0-0.4-0.1-0.6c0-0.1-0.1-0.3-0.2-0.4
			c-0.2-0.1-0.3-0.1-0.5-0.1c-0.2,0-0.4,0-0.5,0.1c-0.1,0.1-0.2,0.2-0.2,0.4c0,0.2-0.1,0.4-0.1,0.6v2.7c0,0.2,0,0.4,0.1,0.6
			c0,0.2,0.1,0.3,0.2,0.4C46.5,117.7,46.7,117.8,46.9,117.8L46.9,117.8z"/>
		<path id="Path_2965" class="st2" d="M49.4,118.4v-6.1h0.6l1.7,4v-4h0.7v6.1h-0.5l-1.7-4.1v4.1H49.4z"/>
		<path id="Path_2966" class="st7" d="M14.8,64v-5.7h1.3c0.2,0,0.5,0,0.7,0.1c0.2,0.1,0.3,0.1,0.5,0.3c0.1,0.1,0.2,0.3,0.3,0.5
			c0.1,0.2,0.1,0.4,0.1,0.6c0,0.2,0,0.4-0.1,0.6c-0.1,0.2-0.1,0.3-0.3,0.4c-0.1,0.1-0.3,0.2-0.5,0.2c0.2,0,0.4,0.1,0.6,0.3
			c0.1,0.1,0.3,0.3,0.3,0.5c0.1,0.2,0.1,0.5,0.1,0.7c0,0.2,0,0.5-0.1,0.7c-0.1,0.2-0.1,0.4-0.3,0.5c-0.1,0.1-0.3,0.3-0.5,0.3
			C16.8,64,16.6,64,16.4,64L14.8,64z M15.6,60.7h0.5c0.2,0,0.4,0,0.5-0.1c0.1-0.1,0.2-0.2,0.3-0.3c0.1-0.2,0.1-0.4,0.1-0.6
			c0-0.2,0-0.4-0.1-0.6c-0.1-0.1-0.2-0.2-0.4-0.2c-0.2,0-0.4-0.1-0.7,0h-0.2L15.6,60.7z M15.6,63.4h0.5c0.3,0,0.5-0.1,0.7-0.3
			c0.1-0.2,0.2-0.5,0.2-0.8c0-0.2,0-0.4-0.1-0.6c-0.1-0.2-0.2-0.3-0.3-0.4c-0.2-0.1-0.4-0.1-0.6-0.1h-0.5L15.6,63.4z"/>
		<path id="Path_2967" class="st7" d="M20,64.1c-0.3,0-0.7-0.1-1-0.2c-0.2-0.2-0.4-0.4-0.5-0.7c-0.1-0.3-0.1-0.7-0.1-1v-3.8h0.8v3.8
			c0,0.2,0,0.4,0,0.7c0,0.2,0.1,0.3,0.2,0.5c0.1,0.1,0.3,0.2,0.5,0.2c0.2,0,0.4-0.1,0.5-0.2c0.1-0.1,0.2-0.3,0.2-0.5
			c0-0.2,0-0.4,0-0.7v-3.8h0.8v3.8c0,0.4,0,0.7-0.1,1c-0.1,0.3-0.2,0.5-0.5,0.7C20.7,64,20.4,64.1,20,64.1z"/>
		<path id="Path_2968" class="st7" d="M23.7,64.1c-0.3,0-0.6-0.1-0.8-0.2c-0.2-0.1-0.4-0.4-0.5-0.6c-0.1-0.3-0.2-0.6-0.2-0.9
			l0.7-0.2c0,0.2,0.1,0.4,0.1,0.6c0,0.2,0.1,0.3,0.2,0.5c0.3,0.2,0.7,0.2,0.9,0c0.1-0.1,0.2-0.3,0.2-0.5c0-0.2-0.1-0.4-0.2-0.6
			c-0.1-0.2-0.3-0.3-0.4-0.5l-1-0.9c-0.2-0.1-0.3-0.3-0.4-0.5c-0.1-0.2-0.1-0.5-0.1-0.7c0-0.4,0.1-0.7,0.4-1c0.3-0.2,0.6-0.4,1-0.3
			c0.2,0,0.4,0,0.6,0.1c0.2,0.1,0.3,0.1,0.4,0.3c0.1,0.1,0.2,0.3,0.3,0.5c0.1,0.2,0.1,0.4,0.1,0.7l-0.7,0.2c0-0.2,0-0.3-0.1-0.5
			c0-0.1-0.1-0.3-0.2-0.4c-0.1-0.1-0.3-0.2-0.5-0.1c-0.2,0-0.3,0-0.5,0.2c-0.1,0.1-0.2,0.3-0.2,0.5c0,0.1,0,0.3,0.1,0.4
			c0.1,0.1,0.2,0.2,0.3,0.3l1,0.9c0.2,0.2,0.4,0.4,0.6,0.7c0.2,0.3,0.3,0.6,0.3,0.9c0,0.3-0.1,0.5-0.2,0.7c-0.1,0.2-0.3,0.4-0.5,0.5
			C24.2,64,24,64.1,23.7,64.1L23.7,64.1z"/>
		<path id="Path_2969" class="st7" d="M25.8,64v-5.7h0.8V64H25.8z"/>
		<path id="Path_2970" class="st7" d="M27.5,64v-5.7H28l1.6,3.8v-3.8h0.6V64h-0.5l-1.7-3.9V64H27.5z"/>
		<path id="Path_2971" class="st7" d="M31.2,64v-5.7h2.2v0.6h-1.4v1.9h1.2v0.6h-1.2v2.1h1.4V64L31.2,64z"/>
		<path id="Path_2972" class="st7" d="M35.5,64.1c-0.3,0-0.6-0.1-0.8-0.2c-0.2-0.1-0.4-0.4-0.5-0.6C34,63,34,62.7,34,62.4l0.7-0.2
			c0,0.2,0,0.4,0.1,0.6c0,0.2,0.1,0.3,0.2,0.5c0.3,0.2,0.7,0.2,0.9,0c0.1-0.1,0.2-0.3,0.2-0.5c0-0.2-0.1-0.4-0.2-0.6
			c-0.1-0.2-0.3-0.3-0.4-0.5l-1-0.9c-0.2-0.1-0.3-0.3-0.4-0.5C34,60.1,34,59.8,34,59.6c0-0.4,0.1-0.7,0.4-1c0.3-0.2,0.6-0.4,1-0.3
			c0.2,0,0.4,0,0.6,0.1c0.2,0.1,0.3,0.1,0.4,0.3c0.1,0.1,0.2,0.3,0.3,0.5c0.1,0.2,0.1,0.4,0.1,0.7l-0.7,0.2c0-0.2,0-0.3-0.1-0.5
			c0-0.1-0.1-0.3-0.2-0.4c-0.1-0.1-0.3-0.2-0.5-0.1c-0.3,0-0.6,0.2-0.6,0.5c0,0,0,0.1,0,0.1c0,0.1,0,0.3,0.1,0.4
			c0.1,0.1,0.2,0.2,0.3,0.3l1,0.9c0.2,0.2,0.4,0.4,0.6,0.7c0.2,0.3,0.3,0.6,0.2,0.9c0,0.3-0.1,0.5-0.2,0.7c-0.1,0.2-0.3,0.4-0.5,0.5
			C36,64,35.7,64.1,35.5,64.1z"/>
		<path id="Path_2973" class="st7" d="M38.8,64.1c-0.3,0-0.6-0.1-0.8-0.2c-0.2-0.1-0.4-0.4-0.5-0.6c-0.1-0.3-0.2-0.6-0.2-0.9
			l0.7-0.2c0,0.2,0,0.4,0.1,0.6c0,0.2,0.1,0.3,0.2,0.5c0.3,0.2,0.7,0.2,0.9,0c0.1-0.1,0.2-0.3,0.2-0.5c0-0.2-0.1-0.4-0.2-0.6
			c-0.1-0.2-0.3-0.3-0.4-0.5l-1-0.9c-0.2-0.1-0.3-0.3-0.4-0.5c-0.1-0.2-0.1-0.5-0.1-0.7c0-0.4,0.1-0.7,0.4-1c0.3-0.2,0.6-0.4,1-0.3
			c0.2,0,0.4,0,0.6,0.1c0.2,0.1,0.3,0.1,0.4,0.3c0.1,0.1,0.2,0.3,0.3,0.5c0.1,0.2,0.1,0.4,0.1,0.7l-0.7,0.2c0-0.2,0-0.3-0.1-0.5
			c0-0.1-0.1-0.3-0.2-0.4c-0.1-0.1-0.3-0.2-0.5-0.1c-0.2,0-0.3,0-0.5,0.2c-0.1,0.1-0.2,0.3-0.2,0.5c0,0.1,0,0.3,0.1,0.4
			c0.1,0.1,0.2,0.2,0.3,0.3l1,0.9c0.2,0.2,0.4,0.4,0.6,0.7c0.2,0.3,0.3,0.6,0.2,0.9c0,0.3-0.1,0.5-0.2,0.7c-0.1,0.2-0.3,0.4-0.5,0.5
			C39.3,64,39.1,64.1,38.8,64.1L38.8,64.1z"/>
		<path id="Path_2974" class="st7" d="M16.3,72.6c-0.3,0-0.7-0.1-0.9-0.3c-0.2-0.2-0.4-0.4-0.5-0.7c-0.1-0.3-0.1-0.6-0.1-1v-2
			c0-0.3,0-0.7,0.1-1c0.1-0.3,0.2-0.5,0.5-0.7c0.6-0.3,1.2-0.3,1.8,0c0.2,0.1,0.4,0.3,0.5,0.6c0.1,0.3,0.1,0.6,0.1,0.9v0.5H17v-0.4
			c0-0.2,0-0.4,0-0.6c0-0.1-0.1-0.3-0.2-0.4c-0.1-0.1-0.3-0.1-0.5-0.1c-0.2,0-0.4,0-0.5,0.1c-0.1,0.1-0.2,0.3-0.2,0.4
			c0,0.2,0,0.4,0,0.6v2.3c0,0.2,0,0.5,0.1,0.7c0,0.1,0.1,0.3,0.2,0.4c0.1,0.1,0.3,0.1,0.4,0.1c0.2,0,0.3,0,0.5-0.1
			c0.1-0.1,0.2-0.3,0.2-0.4c0-0.2,0-0.4,0-0.6v-0.4h0.8v0.4c0,0.3,0,0.6-0.1,0.9c-0.1,0.2-0.2,0.5-0.4,0.6
			C16.9,72.5,16.6,72.6,16.3,72.6z"/>
		<path id="Path_2975" class="st7" d="M19.9,72.6c-0.3,0-0.6-0.1-0.9-0.2c-0.2-0.2-0.4-0.4-0.5-0.6c-0.1-0.3-0.2-0.7-0.2-1v-2.2
			c0-0.3,0-0.7,0.2-1c0.1-0.2,0.3-0.5,0.5-0.6c0.6-0.3,1.3-0.3,1.8,0c0.2,0.1,0.4,0.4,0.5,0.6c0.1,0.3,0.2,0.6,0.2,1v2.2
			c0,0.3,0,0.7-0.2,1c-0.1,0.3-0.3,0.5-0.5,0.7C20.6,72.5,20.3,72.6,19.9,72.6z M19.9,72c0.2,0,0.3,0,0.5-0.1
			c0.1-0.1,0.2-0.2,0.2-0.4c0-0.2,0.1-0.4,0.1-0.6v-2.6c0-0.2,0-0.4-0.1-0.5c0-0.1-0.1-0.3-0.2-0.4c-0.3-0.2-0.7-0.2-1,0
			c-0.1,0.1-0.2,0.2-0.2,0.4c0,0.2-0.1,0.4-0.1,0.5v2.5c0,0.2,0,0.4,0.1,0.6c0,0.1,0.1,0.3,0.2,0.4C19.6,71.9,19.8,72,19.9,72
			L19.9,72z"/>
		<path id="Path_2976" class="st7" d="M22.3,72.5l0.1-5.7h0.8l1,4.7l1-4.7H26l0.1,5.7h-0.6l-0.1-4.2l-1,4.2H24l-1-4.2l-0.1,4.2H22.3
			z"/>
		<path id="Path_2977" class="st7" d="M27,72.5l0.1-5.7h0.8l1,4.7l1-4.7h0.8l0.1,5.7h-0.6l-0.1-4.2l-1,4.2h-0.5l-1-4.2l-0.1,4.2H27z
			"/>
		<path id="Path_2978" class="st7" d="M33.1,72.6c-0.3,0-0.7-0.1-1-0.2c-0.2-0.2-0.4-0.4-0.5-0.7c-0.1-0.3-0.1-0.7-0.1-1.1v-3.8h0.8
			v3.8c0,0.2,0,0.5,0,0.7c0,0.2,0.1,0.3,0.2,0.5c0.3,0.2,0.7,0.2,1,0c0.1-0.1,0.2-0.3,0.2-0.5c0-0.2,0.1-0.4,0.1-0.7v-3.8h0.8v3.8
			c0,0.4,0,0.7-0.1,1.1c-0.1,0.3-0.2,0.5-0.4,0.7C33.8,72.5,33.5,72.6,33.1,72.6z"/>
		<path id="Path_2979" class="st7" d="M35.5,72.5v-5.7h0.5l1.6,3.8v-3.8h0.7v5.7h-0.5l-1.7-3.9v3.9H35.5z"/>
		<path id="Path_2980" class="st7" d="M39.3,72.5v-5.7h0.8v5.7H39.3z"/>
		<path id="Path_2981" class="st7" d="M42.5,72.6c-0.3,0-0.7-0.1-0.9-0.3c-0.2-0.2-0.4-0.4-0.5-0.7c-0.1-0.3-0.1-0.6-0.1-1v-2
			c0-0.3,0-0.7,0.1-1c0.1-0.3,0.2-0.5,0.5-0.7c0.3-0.2,0.6-0.3,0.9-0.2c0.3,0,0.6,0.1,0.9,0.2c0.2,0.1,0.4,0.3,0.5,0.6
			c0.1,0.3,0.1,0.6,0.1,0.9v0.5h-0.8v-0.4c0-0.2,0-0.4,0-0.6c0-0.1-0.1-0.3-0.2-0.4c-0.1-0.1-0.3-0.1-0.5-0.1c-0.2,0-0.4,0-0.5,0.1
			c-0.1,0.1-0.2,0.3-0.2,0.4c0,0.2,0,0.4,0,0.6v2.3c0,0.2,0,0.5,0.1,0.7c0,0.1,0.1,0.3,0.2,0.4c0.1,0.1,0.3,0.1,0.4,0.1
			c0.2,0,0.3,0,0.5-0.1c0.1-0.1,0.2-0.3,0.2-0.4c0-0.2,0-0.4,0-0.6v-0.4h0.8v0.4c0,0.3,0,0.6-0.1,0.9c-0.1,0.2-0.2,0.5-0.4,0.6
			C43.1,72.5,42.8,72.6,42.5,72.6L42.5,72.6z"/>
		<path id="Path_2982" class="st7" d="M44.4,72.5l1.2-5.7h0.8l1.2,5.7h-0.8l-0.3-1.4h-1.1l-0.3,1.4H44.4z M45.5,70.5h1L46,67.9
			L45.5,70.5z"/>
		<path id="Path_2983" class="st7" d="M48.6,72.5v-5.1h-1v-0.6h2.7v0.6h-0.9v5.1H48.6z"/>
		<path id="Path_2984" class="st7" d="M50.9,72.5v-5.7h0.8v5.7H50.9z"/>
		<path id="Path_2985" class="st7" d="M54.1,72.6c-0.3,0-0.7-0.1-0.9-0.2c-0.2-0.2-0.4-0.4-0.5-0.6c-0.1-0.3-0.2-0.7-0.2-1v-2.2
			c0-0.3,0-0.7,0.2-1c0.1-0.2,0.3-0.5,0.5-0.6c0.3-0.2,0.6-0.2,0.9-0.2c0.3,0,0.6,0.1,0.9,0.2c0.2,0.1,0.4,0.4,0.5,0.6
			c0.1,0.3,0.2,0.6,0.2,1v2.2c0,0.3,0,0.7-0.2,1c-0.1,0.3-0.3,0.5-0.5,0.7C54.7,72.5,54.4,72.6,54.1,72.6z M54.1,72
			c0.2,0,0.3,0,0.5-0.1c0.1-0.1,0.2-0.2,0.2-0.4c0-0.2,0.1-0.4,0.1-0.6v-2.6c0-0.2,0-0.4-0.1-0.5c0-0.1-0.1-0.3-0.2-0.4
			c-0.1-0.1-0.3-0.1-0.5-0.1c-0.2,0-0.3,0-0.5,0.1c-0.1,0.1-0.2,0.2-0.2,0.4c0,0.2-0.1,0.4-0.1,0.5v2.5c0,0.2,0,0.4,0.1,0.6
			c0,0.1,0.1,0.3,0.2,0.4C53.7,71.9,53.9,72,54.1,72L54.1,72z"/>
		<path id="Path_2986" class="st7" d="M56.4,72.5v-5.7H57l1.6,3.8v-3.8h0.7v5.7h-0.5l-1.7-3.9v3.9H56.4z"/>
		<line id="Line_34" class="st9" x1="78.6" y1="126.3" x2="94.2" y2="126.3"/>
		<line id="Line_35" class="st9" x1="43.4" y1="126.3" x2="75.6" y2="126.3"/>
		<line id="Line_36" class="st9" x1="12.2" y1="126.3" x2="40.4" y2="126.3"/>
		<line id="Line_37" class="st9" x1="32.9" y1="130.8" x2="94.2" y2="130.8"/>
		<line id="Line_38" class="st9" x1="12.2" y1="130.8" x2="30.2" y2="130.8"/>
		<line id="Line_39" class="st9" x1="85.5" y1="135.4" x2="94.2" y2="135.4"/>
		<line id="Line_40" class="st9" x1="44.9" y1="135.4" x2="82.5" y2="135.4"/>
		<line id="Line_41" class="st9" x1="12.2" y1="135.4" x2="41.6" y2="135.4"/>
		<line id="Line_42" class="st9" x1="89.7" y1="139.9" x2="94.2" y2="139.9"/>
		<line id="Line_43" class="st9" x1="77.7" y1="139.9" x2="86.7" y2="139.9"/>
		<line id="Line_44" class="st9" x1="33.2" y1="139.9" x2="75.3" y2="139.9"/>
		<line id="Line_45" class="st9" x1="12.2" y1="139.9" x2="30.5" y2="139.9"/>
		<path id="Path_2987" class="st10" d="M87,58.5l-12.9,4.8l4.8,2.1l-7.8,10.2l-5.7-6.3L45.2,89.2l-12-6.9l-19.1,17h14.6l6.3-7.1
			l11.4,5.7l17.1-19.2l9.9,4.2l8.4-15.6l5.7,3L87,58.5z"/>
		<circle id="Ellipse_69" class="st10" cx="77.1" cy="85.7" r="11.9"/>
		<circle id="Ellipse_70" class="st10" cx="77.1" cy="85.7" r="10.2"/>
		<path id="Path_2988" class="st11" d="M77.3,95.2v-1.8c-1.1,0-2.1-0.4-2.8-1.2c-0.7-1-1.1-2.2-1-3.4l2.8-0.4c0,0.5,0.1,1,0.2,1.5
			c0.1,0.3,0.2,0.6,0.4,0.8c0.2,0.2,0.4,0.3,0.7,0.3c0.3,0,0.5-0.1,0.7-0.3c0.1-0.2,0.2-0.5,0.2-0.7c0-0.5-0.1-1.1-0.4-1.5
			c-0.3-0.5-0.7-0.9-1.2-1.3L75.5,86c-0.4-0.3-0.7-0.6-1-1c-0.3-0.4-0.5-0.8-0.7-1.2c-0.2-0.5-0.3-1.1-0.3-1.6c-0.1-1,0.3-2,1-2.7
			c0.7-0.7,1.7-1.1,2.6-1.1v-1.7H78v1.7c0.6,0,1.2,0.2,1.7,0.5c0.4,0.3,0.7,0.6,0.9,1c0.2,0.4,0.4,0.9,0.4,1.3
			c0.1,0.4,0.1,0.9,0.1,1.3l-2.8,0.3c0-0.4,0-0.8-0.1-1.1c0-0.3-0.1-0.5-0.3-0.7c-0.1-0.2-0.4-0.3-0.6-0.2c-0.3,0-0.5,0.1-0.7,0.4
			c-0.1,0.2-0.2,0.5-0.2,0.8c0,0.5,0.1,1,0.4,1.4c0.3,0.4,0.6,0.7,1,1l1.2,1.1c0.4,0.4,0.8,0.8,1.1,1.2c0.3,0.4,0.6,0.9,0.8,1.4
			c0.2,0.6,0.3,1.2,0.3,1.8c0,0.6-0.1,1.2-0.4,1.7c-0.3,0.5-0.6,1-1.1,1.3c-0.5,0.3-1.1,0.5-1.8,0.6v1.8L77.3,95.2z"/>
		<rect id="Rectangle_289" x="15.2" y="85.8" class="st0" width="3" height="13.5"/>
		<rect id="Rectangle_290" x="20.6" y="90.7" class="st12" width="3" height="8.7"/>
		<rect id="Rectangle_291" x="26" y="90.9" class="st12" width="3" height="8.4"/>
		<rect id="Rectangle_292" x="31.4" y="85.8" class="st0" width="3" height="13.5"/>
		<rect id="Rectangle_293" x="36.8" y="88.7" class="st0" width="3" height="10.6"/>
		<rect id="Rectangle_294" x="42.2" y="90.1" class="st12" width="3" height="9.3"/>
		<rect id="Rectangle_295" x="47.6" y="85.8" class="st0" width="3" height="13.5"/>
		<rect id="Rectangle_296" x="53.1" y="81.8" class="st0" width="3" height="17.5"/>
		<rect id="Rectangle_297" x="58.5" y="77.7" class="st0" width="3" height="21.6"/>
		<rect id="Rectangle_298" x="37.9" y="153.3" class="st13" width="35" height="3.5"/>
		<rect id="Rectangle_299" x="37.9" y="159.5" class="st13" width="45.8" height="3.5"/>
		<rect id="Rectangle_300" x="37.9" y="180.3" class="st13" width="35" height="3.5"/>
		<rect id="Rectangle_301" x="37.9" y="186.5" class="st13" width="45.8" height="3.5"/>
		<path id="Rectangle_302" class="st14" d="M16.6,147.5h10.6c2.6,0,4.8,2.1,4.8,4.8V163c0,2.6-2.1,4.8-4.8,4.8H16.6
			c-2.6,0-4.8-2.1-4.8-4.8v-10.8C11.8,149.6,13.9,147.5,16.6,147.5z"/>
		<circle id="Ellipse_71" class="st7" cx="21.9" cy="157.6" r="5"/>
		<path id="Path_2989" class="st12" d="M24.8,157.7l-4.4-2.5v5.1L24.8,157.7z"/>
		<path id="Rectangle_303" class="st14" d="M16.6,173.7h10.6c2.6,0,4.8,2.1,4.8,4.8v10.8c0,2.6-2.1,4.8-4.8,4.8H16.6
			c-2.6,0-4.8-2.1-4.8-4.8v-10.8C11.8,175.8,13.9,173.7,16.6,173.7z"/>
		<circle id="Ellipse_72" class="st7" cx="21.9" cy="183.9" r="5"/>
		<path id="Path_2990" class="st12" d="M24.8,184l-4.4-2.5v5.1L24.8,184z"/>
		<line id="Line_46" class="st9" x1="12.9" y1="170.7" x2="94.5" y2="170.7"/>
		<line id="Line_47" class="st15" x1="91.4" y1="22.6" x2="97.8" y2="22.6"/>
		<line id="Line_48" class="st15" x1="91.4" y1="25.7" x2="97.8" y2="25.7"/>
		<line id="Line_49" class="st15" x1="91.4" y1="28.7" x2="97.8" y2="28.7"/>
		<rect id="Rectangle_304" x="11.2" y="20.6" class="st16" width="77.7" height="10.1"/>
		<path id="Path_2991" class="st16" d="M20.4,24c0-1.3-1.1-2.4-2.4-2.4c-1.3,0-2.4,1.1-2.4,2.4c0,1.3,1.1,2.4,2.4,2.4c0,0,0,0,0,0
			C19.3,26.4,20.4,25.3,20.4,24z"/>
		<line id="Line_50" class="st17" x1="15.2" y1="27.3" x2="13.4" y2="29.6"/>
		<line id="Line_51" class="st15" x1="16.4" y1="25.7" x2="15.2" y2="27.3"/>
		<line id="Line_52" class="st15" x1="22.9" y1="20.7" x2="22.9" y2="30.7"/>
	</g>
	<g id="freepik--Plant--inject-56" transform="translate(15.793 140.23)">
		<path id="Path_2992" class="st11" d="M34.6,37.2L34.6,37.2C34.6,37.2,34.6,37.2,34.6,37.2C34.6,37.1,34.5,37.1,34.6,37.2
			C34.5,37.2,34.5,37.2,34.6,37.2c-1.8,4-3.1,8.2-4.1,12.4c-1,4.3-1.7,8.6-2.2,12.9L28,65.9c0,0.5-0.1,1.1-0.2,1.6l-0.1,1.6
			c0,1.1-0.1,2.2-0.1,3.3l0,3.3l0,1.6c0,0.5,0.1,1.1,0.1,1.6c0.1,1.1,0.2,2.2,0.2,3.3c0.2,2.2,0.5,4.3,0.9,6.5c0,0,0,0,0.1,0
			c0,0,0.1,0,0.1-0.1l0,0c0-1.1,0-2.2-0.1-3.3s-0.1-2.2-0.1-3.3s0-2.2,0-3.3v-6.5l0.1-3.3l0-1.6c0-0.5,0.1-1.1,0.1-1.6l0.2-3.3
			c0.4-4.3,1-8.7,1.8-12.9C31.9,45.5,33.1,41.3,34.6,37.2L34.6,37.2z"/>
		<path id="Path_2993" class="st11" d="M35.1,54.3C35.1,54.2,35.1,54.2,35.1,54.3c-0.1-0.1-0.1-0.1-0.1,0c-0.9,2.7-1.7,5.5-2.3,8.3
			c-0.6,2.8-1.1,5.6-1.4,8.5c-0.3,2.9-0.6,5.7-0.6,8.6c-0.1,2.9,0,5.7,0.3,8.6c0,0,0,0,0,0c0,0,0.1,0,0.1,0c0.3-2.9,0.5-5.7,0.7-8.6
			s0.2-5.7,0.4-8.6c0.2-2.8,0.5-5.7,1-8.5C33.7,59.8,34.3,57,35.1,54.3z"/>
		<path id="Path_2994" class="st11" d="M44.5,60.2C44.5,60.2,44.5,60.2,44.5,60.2c-2.4,1.5-4.6,3.4-6.4,5.5
			c-0.9,1.1-1.7,2.2-2.5,3.4l-0.5,1l-0.4,1c-0.1,0.3-0.3,0.7-0.3,1c-0.1,0.3-0.2,0.7-0.3,1c-0.7,2.7-1.2,5.5-1.3,8.3
			c-0.1,2.8,0,5.6,0.3,8.4c0,0,0,0,0.1,0c0,0,0.1,0,0.1-0.1l0.7-8.3c0.2-2.8,0.6-5.5,1.1-8.2c0.1-0.3,0.2-0.7,0.3-1
			c0.1-0.3,0.2-0.7,0.3-1l0.3-1l0.4-0.9c0.7-1.2,1.4-2.4,2.3-3.4C40.3,63.9,42.3,62,44.5,60.2L44.5,60.2
			C44.6,60.3,44.6,60.3,44.5,60.2C44.5,60.2,44.5,60.2,44.5,60.2L44.5,60.2z"/>
		<path id="Path_2995" class="st11" d="M40,70.9c-1.2,0.9-2.2,2.1-2.9,3.5c-0.7,1.3-1.2,2.8-1.6,4.2c-0.1,0.4-0.2,0.7-0.3,1.1
			l-0.3,1.1c-0.1,0.7-0.2,1.5-0.3,2.2c0,0.8,0,1.5,0,2.3c0.1,0.8,0.2,1.5,0.3,2.2c0,0,0,0,0,0c0,0,0,0,0,0c0,0,0.1,0,0.1,0
			c0.2-0.7,0.3-1.5,0.4-2.2c0.1-0.7,0.2-1.5,0.3-2.2s0.2-1.4,0.3-2.2c0.1-0.7,0.2-1.5,0.3-2.2c0.2-1.4,0.6-2.8,1.2-4.2
			C38.1,73.2,38.9,72,40,70.9L40,70.9C40,71,40,70.9,40,70.9C40,70.9,40,70.9,40,70.9L40,70.9z"/>
		<path id="Path_2996" class="st11" d="M26.7,79.3c-0.3-3.7-0.9-7.3-1.5-11S24,61,23.3,57.3s-1.4-7.2-2.2-10.9c0,0,0,0-0.1,0
			c0,0-0.1,0,0,0.1c0,0,0,0,0,0c0.6,3.6,1.2,7.3,1.7,10.9s1.1,7.3,1.5,11s0.8,7.3,1.3,11l1.3,11c0,0,0,0,0.1,0c0,0,0.1,0,0.1,0
			c0,0,0,0,0,0c0-0.9,0-1.9,0.1-2.8s0-1.8-0.1-2.8C27,82.9,26.9,81.1,26.7,79.3z"/>
		<path id="Path_2997" class="st11" d="M24.5,79.2c-0.2-1.5-0.5-2.9-0.7-4.4l-0.5-2.2c-0.2-0.7-0.3-1.4-0.5-2.1
			c-0.7-2.9-1.7-5.7-2.8-8.4l-0.4-1l-0.5-1c-0.3-0.7-0.7-1.3-1-1.9c-0.7-1.3-1.6-2.5-2.7-3.5c0,0-0.1,0-0.1,0c0,0,0,0.1,0,0.1l0,0
			c1,1.1,1.8,2.3,2.4,3.6c0.3,0.7,0.7,1.3,0.9,2l0.4,1l0.4,1c1,2.7,1.8,5.5,2.5,8.4c0.3,1.4,0.6,2.9,0.8,4.3l0.3,2.2
			c0.1,0.7,0.3,1.4,0.4,2.2c0.2,1.4,0.5,2.9,0.7,4.3s0.5,2.9,0.8,4.3c0,0,0,0,0.1,0c0,0,0.1,0,0.1-0.1c0-1.5,0-2.9-0.1-4.4
			S24.7,80.7,24.5,79.2z"/>
		<path id="Path_2998" class="st11" d="M21.4,79.4c-0.7-1.9-1.5-3.8-2.3-5.7c-0.9-1.9-1.9-3.7-2.9-5.4c0,0-0.1,0-0.1,0
			c0,0,0,0.1,0,0.1c0,0,0,0,0,0c0.9,1.8,1.8,3.7,2.5,5.6c0.8,1.9,1.4,3.8,2,5.7s1,3.9,1.5,5.9s1,3.9,1.6,5.9c0,0,0,0.1,0.1,0
			c0,0,0,0,0-0.1c0-2.1-0.2-4.1-0.6-6.1C22.8,83.3,22.2,81.3,21.4,79.4z"/>
		<path id="Path_2999" class="st11" d="M21.3,85.8c-0.4-1.2-0.9-2.4-1.6-3.4c-0.7-1.1-1.4-2.1-2.4-2.9c-0.5-0.4-1-0.8-1.5-1.1
			c-0.5-0.3-1.1-0.6-1.7-0.8c0,0,0,0-0.1,0c0,0,0,0.1,0,0.1l0,0c1.1,0.5,2.1,1.3,2.9,2.2c0.8,0.9,1.5,1.9,2,3
			c0.6,1.1,0.8,2.2,1.3,3.3c0.2,0.6,0.4,1.1,0.7,1.7c0.2,0.6,0.5,1.2,0.7,1.7l0,0c0,0,0,0,0.1,0c0,0,0,0,0-0.1c0-0.6,0-1.3-0.1-1.9
			C21.6,87.1,21.5,86.4,21.3,85.8z"/>
		<path id="Path_3000" class="st12" d="M21.6,51.8c-3.8-1.1-6.6-4.1-7.4-7.9c-1.4-6.5,3.1-3.7-0.9-13.9s-3.1-12.6-1.7-15.5
			s2.2-2,3.4,1.9s5.7,9.9,7.4,21.2C24.1,48.8,21.6,51.8,21.6,51.8z"/>
		<path id="Path_3001" class="st12" d="M33.5,40.8c0,0-4-1.4-4.2-9s2.9-6,3.4-15.5S33.8,0.2,35.5,0s6.2,4.6,7.8,15.2
			s-2,17.5-5.1,20.6S33.5,40.8,33.5,40.8z"/>
		<path id="Path_3002" class="st12" d="M19.4,60.9c0,0-0.9-5.6-2.8-8.2s-5.9-5-8.5-10.1S2.5,35,2.6,42.3s3.4,11,7.4,13.5
			S19.4,60.9,19.4,60.9z"/>
		<path id="Path_3003" class="st12" d="M17.7,70.5c-2.5-4.5-5.5-8.7-9.1-12.4c-5.4-5.3-9.8-7.9-8.2-5.3s3.4,2.5,6,7.1
			s1.9,8.1,5.6,10.7S17.7,70.5,17.7,70.5z"/>
		<path id="Path_3004" class="st12" d="M17.2,79.7c-0.2-0.5-0.3-3.9-5.6-6.7S1.4,71.3,2,72.7s3.9,3.7,7.1,5.1
			C11.8,78.8,14.5,79.4,17.2,79.7z"/>
		<path id="Path_3005" class="st12" d="M33.2,61.2c0,0-2.3-2.9-1.1-9.1s4-4.7,7.2-7.9s2.5-3.7,5.6-7.1s5.9-5.3,7.1-3.9
			s-0.6,5.7-2.5,8.2s-4.8,3.7-6.2,6.8s-0.8,8.1-4.3,10.4C37.2,59.8,35.3,60.7,33.2,61.2z"/>
		<path id="Path_3006" class="st12" d="M40.9,62.9c0,0,5.6-6.4,9.6-11s5.6-8.2,5.7-5.1s1.4,5.6-1.9,9.6S40.9,62.9,40.9,62.9z"/>
		<path id="Path_3007" class="st12" d="M38,73.1c0,0-0.2-2.5,8.7-8.2s12.6-6.8,11.6-4.5s-4.8,4.6-9,8.8S38,73.1,38,73.1z"/>
		<path id="Path_3008" class="st15" d="M21.9,51.1c0,0-2.1-11.1-4.2-19s-3.6-12.7-3.6-12.7"/>
		<path id="Path_3009" class="st15" d="M33.1,40.9c0,0,3.8-12.1,5-19.3S38,8.8,37.4,5.6"/>
		<path id="Path_3010" class="st15" d="M18.9,60.7c-1.7-2.9-3.6-5.6-5.7-8.1c-3.4-4-6-6.2-7.6-10.1"/>
		<path id="Path_3011" class="st15" d="M33.2,61.2c0,0,1.2-7.4,4.2-11.3s8.8-9.9,11.2-13.8"/>
		<path id="Path_3012" class="st15" d="M16.8,79.5c0,0-5.2-3.4-8.9-5.3"/>
		<path id="Path_3013" class="st13" d="M46.7,110.7C46.4,101.3,35.9,95,35.9,95h-16c0,0-10.5,6.3-10.8,15.7s11.8,43.9,11.8,43.9
			h13.9C34.9,154.6,47.1,120.1,46.7,110.7z"/>
		<path id="Path_3014" class="st13" d="M38,85.8H17.5l2.4,9.2h15.7L38,85.8z"/>
	</g>
	<g id="freepik--Character--inject-56" transform="translate(69.484 130.266)">
		<path id="Path_3015" class="st18" d="M65.5,44.4c0,0-5.3,5.6-5.3,7.4s0.6,5.9,0.3,7.5S47,71,47,71l4,10.1c0,0,10.7-17,13.9-21.5
			s6.7-9.1,7-11.5S66.9,43.5,65.5,44.4z"/>
		<path id="Path_3016" class="st19" d="M66.3,86l15.6-6.1c0,0,10.1-11.5,17.9-19.9s17.5-6.5,17.5-0.4s-2.8,15.1-5.4,19
			s-7.8,14-7.8,14s18.1,4.3,23.1,7.1s24.9,17,35.2,24.3c6.7,4.8,10.7,6.8,11.7,6.8c0.3,0,0.8,0,1.4-0.1c2.5-0.3,5.4-2.9,7.5-4.2
			c2.9-1.8,7.4-4.3,10-4.6c4.1-0.4,2.6,5.6-0.4,9.9s-8.4,5.6-10.4,7.1s-6,2.4-7.6,2.6s-15.1-5.4-20.9-7.8s-16.8-2.9-23.5-10.9
			c-2.2-2.7-4.7-5.1-7.4-7.3c0,0-36,1.5-42.5,2.2s-21.4,1.1-27.6,1.1s-9.4-2.5-9.4-2.5s-2.4-3.4,1.2-8.7S66.3,86,66.3,86z"/>
		<path id="Path_3017" class="st18" d="M192.7,131.9c3-4.3,4.5-10.4,0.4-9.9c-2.6,0.3-7,2.8-10,4.6c-2.1,1.3-5.1,3.9-7.5,4.2
			c-0.6,0.1-1.1,0.1-1.4,0.1c-0.9,0-3.9-1.4-8.8-4.8c-0.7,2.9-2.7,6.6-8.2,9.1c6.6,2.7,16.3,6.6,17.6,6.4c1.5-0.2,5.6-1.1,7.6-2.6
			S189.6,136.2,192.7,131.9z"/>
		<path id="Path_3018" class="st20" d="M192.7,131.9c3-4.3,4.5-10.4,0.4-9.9c-2.6,0.3-7,2.8-10,4.6c-2.1,1.3-5.1,3.9-7.5,4.2
			c-0.6,0.1-1.1,0.1-1.4,0.1c-0.3,0-0.6-0.1-0.9-0.2c0.7,1.7,1.4,5.5-3.6,9.5c1.6,0.7,3.4,1.2,5.1,1.5c1.5-0.2,5.6-1.1,7.6-2.6
			S189.6,136.2,192.7,131.9z"/>
		<path id="Path_3019" class="st9" d="M80.6,87.6c-0.5-0.3-0.9-0.6-1.4-0.9"/>
		<path id="Path_3020" class="st9" d="M104.2,92.6l-19.5-1.1c-0.8-1.1-1.7-2.1-2.8-2.9"/>
		<path id="Path_3021" class="st9" d="M69.3,96.1c0.9-0.8,1.8-1.4,2.9-1.8"/>
		<path id="Path_3022" class="st9" d="M63.7,102.4c1.2-1.6,2.5-3.2,3.9-4.6"/>
		<path id="Path_3023" class="st9" d="M65.9,96.5c0,0-4.4,3.9-5.4,8.9"/>
		<path id="Path_3024" class="st21" d="M66.3,86c0,0.6-0.1,1.2-0.3,1.7c-3.2,12.3-11.4,22.7-22.7,28.7c-7.3-5.7-14-12.1-19.9-19.2
			C13.2,85.2,7.2,73.6,7.5,60.1s4.7-22,4.7-22l-0.3-10.4c0.7-1.7,4.3-4.1,9.2-1c4.8,3.1,8.7,10.4,8.7,10.4L29,41.2
			c0,0,2.1,1.4,3.3,2.1S38,48,42,53s8.1,20.1,8.8,23.9s6.4,4.5,6.4,4.5l5.9,3.1L66.3,86z"/>
		<path id="Path_3025" class="st18" d="M29.7,37.1L29,41.2c0,0-10.7-3.5-16.8-3.1l-0.3-10.4c0.7-1.7,4.3-4.1,9.2-1
			S29.7,37.1,29.7,37.1z"/>
		<path id="Path_3026" class="st18" d="M35.7,9.1c0,0,2.9,7.7,2.2,9.6c-0.4,1.2-0.8,2.3-1.1,3.5c0,0,4.5,4.9,3.6,6.2
			s-3.2,1.9-3.2,1.9s-0.6,8.1-1.1,9.4s-2.1,2.7-5.3,1.8c-3.5-1.3-6.7-3-9.6-5.3c-1.7-1.4-2.8-11.7-2.8-11.7l3.6-1.1
			c0,0-0.9-4.5-0.4-5.3s5.4-0.2,4.6-3.3s-2.6-4.3-1.6-5.4S35.7,9.1,35.7,9.1z"/>
		<path id="Path_3027" class="st9" d="M36.6,33.3c0,0-5.1,0.4-5.8-4"/>
		<line id="Line_53" class="st9" x1="32.2" y1="28.9" x2="28.9" y2="30.2"/>
		<path id="Path_3028" class="st7" d="M34.3,22.5c-0.2,0.9-0.6,1.6-1,1.5s-0.5-0.8-0.4-1.7s0.6-1.6,1-1.5S34.5,21.6,34.3,22.5z"/>
		<path id="Path_3029" class="st9" d="M31.7,19.9c0,0,2.3-2.2,4.4-0.4"/>
		<path id="Path_3030" class="st22" d="M39.6,8.5c-0.2,1.9-3.9,0.6-3.9,0.6l-7.6,2.3c0,0,0.2,3.1,0.1,5.2s-4.4,3.5-4.4,3.5l-0.6,9.5
			l-11.5-0.5l-1.6-3.8c0,0-7.2-6.8-6.5-13.5c0.5-4.1,3.6-8.1,8.5-10.3c1.7-0.7,3.6-1.2,5.4-1.4c2-0.2,4-0.2,6,0.1
			C35.2,1.7,39.9,6.6,39.6,8.5z"/>
		<path id="Path_3031" class="st23" d="M17.6,20.7l-4.3,2.4c-0.2-0.3-4-7.4-1-21.5c1.7-0.7,3.6-1.2,5.4-1.4C16.3,5,15.8,10,16.2,15
			C16.3,17,16.8,18.9,17.6,20.7z"/>
		<circle id="Ellipse_73" class="st24" cx="16.4" cy="25.3" r="7.1"/>
		<path id="Path_3032" class="st21" d="M19.1,59.2c2.3,6.7,5.1,13.3,8.5,19.6c5.5,10.2,13.9,21.3,17,20.6S65.1,68.6,66.4,66
			s3.1-6.4,3.1-6.4s4-2.9,4.3-4.2s-0.5-7-0.5-7s2.1-2.8,1.4-4s-1.9-0.8-3.1-0.1S67.9,47,67.9,47c0.3-1.4,0.4-2.8,0.1-4.1
			c-0.5-1.9-2.1-1.3-2.3,0c-0.1,1.2-0.3,2.4-0.7,3.6c-0.7,1.5-1.3,3-1.6,4.6c-0.3,2.1-1.3,7.7-1.3,7.7S52.5,69.4,49.9,72
			c-1.3,1.3-4,3.4-4,3.4l-7.1-14.1c0,0-3.6-12.8-7.4-16.3c-3.8-3.4-9.3-4.2-13.9-1.9"/>
		<path id="Path_3033" class="st22" d="M68,51.3L68,51.3c-0.5-0.1-0.8-0.6-0.7-1c0,0,0,0,0,0l4.3-19.9c0.1-0.5,0.6-0.8,1-0.7l0,0
			c0.5,0.1,0.8,0.6,0.7,1c0,0,0,0,0,0L69,50.6C68.9,51.1,68.4,51.4,68,51.3z"/>
		<path id="Path_3034" class="st18" d="M73.8,55.4c0.3-1.2-0.5-7-0.5-7s2.1-2.8,1.4-4s-1.9-0.8-3.1-0.1S67.9,47,67.9,47
			c0.3-1.4,0.4-2.8,0.1-4.1c-0.5-1.9-2.1-1.3-2.3,0c-0.1,1.2-0.3,2.4-0.7,3.6c-0.7,1.5-1.3,3-1.6,4.6c-0.3,2.1-1.3,7.7-1.3,7.7
			s-1.6,1.8-3.7,4.1l6.9,5.1c0.5-1,0.9-1.6,1-1.9c1.2-2.6,3.1-6.4,3.1-6.4S73.4,56.6,73.8,55.4z"/>
		<path id="Path_3035" class="st9" d="M67.9,47c-1,0.8-1.9,1.7-2.6,2.8"/>
		<path id="Path_3036" class="st19" d="M105.6,63.2c0,0-1.2,6.5,0.8,11.5s11.5,23,12.1,26.3s-1.6,8.7,0.2,10.7s10,2.6,17.7,2.2
			s12.3-1.4,13.2-4.7s1.6-5-0.8-5c-2.6,0.2-5.2,0.1-7.8-0.3c-3.1-0.6-10-4.5-10.9-5.1c-0.7-0.7-1.3-1.5-1.7-2.5
			c0,0-2.2-6.4-4.4-21.3s-0.6-21.3-7.6-23.5s-15.1,6.8-16.7,8.5"/>
		<path id="Path_3037" class="st18" d="M149.7,109.2c0.9-3.3,1.6-5-0.8-5c-2.6,0.2-5.2,0.1-7.8-0.3c-3.1-0.6-10-4.5-10.9-5.1
			c-0.7-0.7-1.3-1.5-1.7-2.5c-0.9-2.8-1.6-5.6-2.1-8.5c-5.5-1.9-9.6,1.7-11.7,4.1c1.5,2.9,2.8,5.9,3.9,9c0.6,3.3-1.6,8.7,0.2,10.7
			s10,2.6,17.7,2.2S148.7,112.5,149.7,109.2z"/>
		<path id="Path_3038" class="st20" d="M148.9,104.3c-2.6,0.2-5.2,0.1-7.8-0.3c-3.1-0.6-10-4.5-10.9-5.1c-0.7-0.7-1.3-1.5-1.7-2.5
			c0,0-0.2-0.5-0.5-1.7c-5.5-0.3-8.6,2.1-10.2,4.2c0.3,0.7,0.6,1.4,0.7,2.2c0.6,3.3-1.6,8.7,0.2,10.7s10,2.6,17.7,2.2
			s12.3-1.4,13.2-4.7S151.2,104.3,148.9,104.3z"/>
		<rect id="Rectangle_305" x="13" y="141.3" class="st25" width="60.6" height="3.6"/>
		<path id="Path_3039" class="st25" d="M65.8,122.7l19.6,39c0.5,0.9,0.1,2.1-0.8,2.5c-0.3,0.1-0.6,0.2-0.8,0.2l0,0
			c-0.7,0-1.3-0.4-1.7-1l-21.7-39.5L65.8,122.7z"/>
		<path id="Path_3040" class="st25" d="M21.9,112.3L4.1,162c-0.4,1,0.1,2.1,1.1,2.5c0.3,0.1,0.6,0.1,0.9,0.1l0,0
			c0.7-0.1,1.3-0.5,1.6-1.1L27.4,113L21.9,112.3z"/>
		<path id="Path_3041" class="st2" d="M16.9,52.8c0,0-8.4-11.4-12-10.8s-7.2,26.1-3,43.2s18.9,34.8,39.3,40.2
			c23.7,6.3,43.9-4.8,44.1-6.9S63.4,108,16.9,52.8z"/>
		<path id="Path_3042" class="st26" d="M41.2,125.4c23.7,6.3,43.9-4.8,44.1-6.9c0.1-0.9-3.7-2.8-11.5-8.8
			c-38.9,1.4-61.6-14-71.7-23.5C6.7,103,21.3,120.1,41.2,125.4z"/>
		<path id="Path_3043" class="st9" d="M16.9,52.8c0,0-8.4-11.4-12-10.8s-7.2,26.1-3,43.2s18.9,34.8,39.3,40.2
			c23.7,6.3,43.9-4.8,44.1-6.9S63.4,108,16.9,52.8z"/>
		<path id="Path_3044" class="st14" d="M193.1,139.4c0,0-6.9-2.5-23.1-3.6s-31.5,0.6-32.1,2.1c-0.5,1.1,1.9,16.2,3,23.2
			c0.3,2,2.1,3.6,4.2,3.6h44.1c2.1,0,3.9-1.5,4.2-3.6l2.7-17.4C196.3,141.6,195.1,139.8,193.1,139.4L193.1,139.4z"/>
		<path id="Path_3045" class="st26" d="M192.3,163.2c-21.4,0-32.8-10.6-38.2-19.9c-2.1-3.4-5.3-5.9-9-7.1c-4.3,0.5-7,1.1-7.2,1.8
			c-0.5,1.1,1.9,16.2,3,23.2c0.3,2,2.1,3.6,4.2,3.6h44.1C190.4,164.6,191.5,164.1,192.3,163.2z"/>
		<path id="Path_3046" class="st9" d="M193.1,139.4c0,0-6.9-2.5-23.1-3.6s-31.5,0.6-32.1,2.1c-0.5,1.1,1.9,16.2,3,23.2
			c0.3,2,2.1,3.6,4.2,3.6h44.1c2.1,0,3.9-1.5,4.2-3.6l2.7-17.4C196.3,141.6,195.1,139.8,193.1,139.4L193.1,139.4z"/>
	</g>
	<g id="freepik--Floor--inject-56" transform="translate(17.112 294.847)">
		<line id="Line_54" class="st9" x1="265.7" y1="0" x2="277.7" y2="0"/>
		<line id="Line_55" class="st9" x1="0" y1="0" x2="260.6" y2="0"/>
	</g>
</g>
</svg>
