<?xml version="1.0" encoding="UTF-8"?><svg id="Layer_2" xmlns="http://www.w3.org/2000/svg" viewBox="0 0 677.35 407.86"><defs><style>.cls-1,.cls-2{fill:#fff;}.cls-3{fill:#fafafa;}.cls-4{fill:#aa6550;}.cls-5{fill:#f5f5f5;}.cls-6{fill:#455a64;}.cls-7{fill:#e0e0e0;}.cls-8{opacity:.4;}.cls-9{fill:#007172;}.cls-10{opacity:.3;}.cls-11{fill:#b78876;}.cls-12{fill:#fdfcdc;}.cls-13{fill:#eb996e;}.cls-2{isolation:isolate;}.cls-2,.cls-14{opacity:.6;}.cls-15{fill:#ffbe9d;}.cls-16{fill:#d94f04;}.cls-17{fill:#ebebeb;}.cls-18{opacity:.1;}.cls-19{fill:#263238;}</style></defs><g id="Layer_1-2"><g><g id="freepik--background-complete--inject-57"><rect class="cls-7" x="430.59" y="251.8" width="42.05" height="5.62"/><path class="cls-3" d="M436.32,252.03c.35,1.74,.35,3.52,0,5.26-.36-1.73-.36-3.53,0-5.26Z"/><path class="cls-3" d="M435.4,251.92c.35,1.74,.35,3.52,0,5.26-.35-1.74-.35-3.52,0-5.26Z"/><path class="cls-3" d="M469.38,252.03c.36,1.73,.36,3.53,0,5.26-.35-1.74-.35-3.52,0-5.26Z"/><ellipse class="cls-3" cx="468.47" cy="254.55" rx=".26" ry="2.63"/><path class="cls-3" d="M462.97,254.78c0,.14-4.81,.26-10.75,.26s-10.76-.12-10.76-.26c3.58-.27,7.17-.36,10.76-.27,3.59-.09,7.17,0,10.75,.27Z"/><rect class="cls-7" x="430.41" y="277.09" width="42.05" height="11.23"/><path class="cls-3" d="M472.99,285.16c-.07,.05-.15,.1-.23,.13-.15,.08-.39,.19-.7,.32-.91,.39-1.87,.67-2.85,.82-1.57,.29-3.19,.05-4.62-.66-.89-.48-1.64-1.16-2.2-2-.65-.95-.92-2.1-.77-3.24,.1-.62,.37-1.2,.78-1.67,.43-.53,1.09-.83,1.77-.8,.71,.07,1.35,.43,1.78,1,.46,.54,.75,1.2,.82,1.91,.12,1.48-.41,2.94-1.45,4-1.05,1.12-2.47,1.83-4,2-1.59,.16-3.2-.04-4.7-.58-1.62-.5-3.05-1.47-4.13-2.78-.57-.69-.91-1.53-1-2.42-.09-.94,.24-1.86,.9-2.53,.35-.34,.82-.55,1.31-.57,.49-.02,.97,.11,1.38,.38,.79,.53,1.34,1.34,1.54,2.27,.36,1.83-.27,3.7-1.65,4.95-1.34,1.13-3,1.8-4.74,1.93-1.65,.19-3.33,.02-4.91-.49-1.55-.49-2.87-1.52-3.73-2.9-.85-1.33-1.03-2.98-.47-4.46,.29-.75,.94-1.29,1.72-1.45,.75-.14,1.52,.04,2.12,.51,1.07,.94,1.46,2.43,1,3.78-.41,1.18-1.14,2.22-2.12,3-1.62,1.36-3.65,2.15-5.77,2.24-1.58,.06-3.15-.28-4.56-1-.89-.45-1.7-1.05-2.39-1.77-.18-.18-.35-.38-.5-.58-.11-.14-.16-.21-.15-.22,.89,.98,1.95,1.79,3.13,2.39,1.39,.68,2.92,.99,4.46,.92,2.04-.11,3.99-.9,5.54-2.23,.92-.73,1.61-1.7,2-2.81,.41-1.18,.06-2.49-.88-3.32-.5-.38-1.14-.53-1.76-.42-.63,.13-1.16,.58-1.38,1.19-.48,1.33-.31,2.81,.46,4,.8,1.28,2.04,2.23,3.48,2.67,1.51,.49,3.11,.64,4.69,.45,1.63-.12,3.18-.75,4.43-1.8,1.24-1.12,1.81-2.8,1.5-4.44-.17-.79-.64-1.49-1.31-1.94-.63-.45-1.49-.4-2.05,.13-.55,.55-.82,1.32-.74,2.1,.07,.78,.36,1.53,.85,2.15,1.01,1.22,2.34,2.12,3.85,2.59,1.43,.52,2.96,.71,4.47,.57,1.43-.13,2.77-.76,3.76-1.8,.95-.96,1.44-2.28,1.35-3.62-.06-1.24-.96-2.29-2.18-2.52-.56-.02-1.1,.23-1.46,.66-.36,.42-.6,.93-.7,1.48-.15,1.05,.09,2.12,.68,3,.52,.79,1.23,1.45,2.06,1.91,1.37,.7,2.93,.95,4.45,.71,.97-.13,1.92-.37,2.84-.71,.65-.31,.97-.45,.98-.43Z"/><rect class="cls-17" x="434.16" y="257.58" width="38.29" height="19.49"/><path class="cls-7" d="M440.52,258.25c.27,3.14,.36,6.28,.27,9.43,.09,3.15,0,6.29-.27,9.43-.26-3.14-.34-6.28-.26-9.43-.08-3.15,0-6.29,.26-9.43Z"/><path class="cls-7" d="M443.43,258c.26,3.1,.34,6.2,.26,9.31,.08,3.11,0,6.22-.26,9.32-.27-3.1-.36-6.21-.27-9.32-.09-3.11,0-6.21,.27-9.31Z"/><path class="cls-7" d="M468.12,257.38c.27,3.26,.36,6.53,.27,9.8,.09,3.27,0,6.55-.27,9.81-.26-3.26-.34-6.54-.26-9.81-.08-3.27,0-6.54,.26-9.8Z"/><path class="cls-7" d="M464.71,257.61c.27,3.18,.36,6.36,.27,9.55,.09,3.19,0,6.38-.27,9.56-.26-3.18-.35-6.37-.26-9.56-.09-3.19,0-6.37,.26-9.55Z"/><rect class="cls-7" x="206.18" y="35.67" width="258.14" height="171.23"/><path class="cls-5" d="M0,48.18C-.27,24.02,19.08,4.21,43.24,3.94c24.16-.28,43.96,19.08,44.24,43.23,.28,24.08-18.96,43.85-43.03,44.24C20.25,91.71,.37,72.37,0,48.18Zm64.64-1c-.24-11.55-9.8-20.71-21.35-20.46-11.55,.24-20.71,9.8-20.46,21.35,.24,11.5,9.74,20.65,21.24,20.46,11.59-.24,20.79-9.81,20.57-21.4v.05Z"/><path class="cls-7" d="M0,48.18C-.41,23.99,18.82,4.03,43.01,3.54l.37,22.92c-11.6,.19-20.85,9.74-20.67,21.33,.19,11.6,9.74,20.85,21.33,20.67l.37,22.93C20.24,91.68,.38,72.35,0,48.18Z"/><path class="cls-17" d="M39.11,0c28.22-.46,50.72,21.44,51.17,49.78l-26.7,.43c-.21-13.55-10.52-22.08-24-21.86L39.11,0Z"/><path class="cls-5" d="M209.24,400.61c-1.12-1-3.63-4-1.69-7.57,.7-1.3,2.21-1.94,3.57-2.52,1.41-.46,2.73-1.14,3.93-2,2.12-1.81,2.71-4.82,4.12-7.23,1.62-2.77,4.65-4.85,7.84-4.7,3.66,.17,6.71,3.15,8.1,6.56s1.43,7.2,1.46,10.88c0,2-.08,4.33-1.57,5.7s-3.45,1.28-5.32,1.23l-20-.62"/><path class="cls-7" d="M247.5,345.61h-52.6l9.47,56.5c.41,2.39,2.16,4.34,4.49,5l.19,.05c.15,0,.31,.09,.47,.12,.35,.07,.71,.11,1.07,.13v.05h23.71c.43,0,.86-.05,1.28-.13,2.81-.43,4.99-2.69,5.32-5.52l4.57-38.93,.21-1.55h0l1.81-15.41v-.31Zm-9.92,36h-5.39l.54-16.39h6.25l-1.4,16.39Zm1.93-16.39h5.17l-1.88,16.39h-4.64l1.35-16.39Zm-15.42,34.57l-.29-14.24h7.77l-.47,14.25h-7.01Zm-8.41-14.26h7.56l.33,14.25h-6.77l-1.12-14.25Zm.59,14.25h-6.33c-.61-3.85-1.39-8.85-2.24-14.25h7.46l1.11,14.25Zm-.89-18.18l-1.28-16.39h8.7l.38,16.39h-7.8Zm8.29,0l-.38-16.39h8.92l-.55,16.39h-7.99Zm-.47-20.33l-.35-15.18h10l-.5,15.18h-9.15Zm-.52,0h-8.88l-1.18-15.18h9.71l.35,15.18Zm-9.4,0h-9.4c-.33-2.09-.65-4.08-.93-5.86-1-6.14-1.35-8.45-1.56-9.32h10.71l1.18,15.18Zm.3,3.94l1.28,16.39h-7.77c-.27-1.66-.53-3.34-.8-5-.6-3.87-1.21-7.74-1.79-11.36l9.08-.03Zm-7,16.39h-5.08l-2.75-16.39h5.24c.81,5.07,1.67,10.71,2.57,16.39h.02Zm.61,3.93c.78,4.93,1.54,9.79,2.24,14.25h-4.88l-2.39-14.25h5.03Zm24.41,14.25l.48-14.25h5.19l-1.22,14.25h-4.45Zm1.28-38.51l.51-15.18h7.25l-1.3,15.18h-6.46Zm-32-15.18c.21,1.1,1.17,7.07,2.45,15.18h-5.28l-2.54-15.18h5.37Zm39.72,53.69h-4.06l1.26-14.24h4.52l-1.72,14.24Zm4.52-38.51h-5.32l1.3-15.18h5.78l-1.76,15.18Z"/><rect class="cls-7" x="616.8" y="62.35" width="11.33" height="45.24"/><rect class="cls-7" x="633.46" y="72.22" width="11.33" height="35.37"/><rect class="cls-7" x="650.37" y="80.3" width="11.33" height="27.29"/><rect class="cls-7" x="666.02" y="91.39" width="11.33" height="16.21"/><path class="cls-5" d="M659.12,163.86c-15.77-14.59-40.34-13.76-55.09,1.86-14.61,15.55-13.85,39.99,1.69,54.6,.06,.06,.12,.11,.18,.17,15.77,14.58,40.35,13.75,55.1-1.87,14.61-15.54,13.85-39.98-1.7-54.59-.06-.06-.12-.11-.18-.17Zm-13,41c-7.05,7.46-18.8,7.86-26.34,.89-7.48-6.94-7.91-18.64-.97-26.12l.07-.07c7.06-7.46,18.8-7.86,26.35-.89,7.47,6.95,7.89,18.63,.94,26.1l-.04,.05v.04Z"/><path class="cls-17" d="M604.03,165.72c14.75-15.62,39.32-16.45,55.09-1.86l-13.88,14.75c-7.55-6.97-19.29-6.57-26.35,.89-6.98,7.44-6.61,19.14,.83,26.12l.07,.07-13.89,14.78c-15.63-14.52-16.53-38.96-2.02-54.59,.05-.05,.1-.1,.15-.16Z"/><path class="cls-3" d="M657.53,157.52c19.24,17.87,21.55,46.92,3.57,66l-19.52-16.91c8.6-9.14,10.46-21.35,1.26-29.9l14.69-19.19Z"/><rect class="cls-7" x="129.19" y="227.95" width="110.45" height="31.11" rx="3.23" ry="3.23"/><ellipse class="cls-5" cx="147.22" cy="244.47" rx="6.73" ry="6.76"/><path class="cls-7" d="M151,242.17c-1.08,1.42-2.29,2.73-3.62,3.91-.3,.3-.6,.58-.89,.86l-.18,.18-.17-.18c-1.01-.92-1.91-1.95-2.7-3.07,1.11,.79,2.14,1.7,3.06,2.71h-.36l.88-.87c1.21-1.31,2.54-2.49,3.98-3.54Z"/><path class="cls-3" d="M228.79,241.13c0,.14-14.83,.26-33.11,.26s-33.11-.12-33.11-.26,14.82-.26,33.11-.26,33.11,.11,33.11,.26Z"/><path class="cls-3" d="M229.06,246.76c0,.15-14.83,.26-33.11,.26s-33.11-.11-33.11-.26,14.82-.26,33.11-.26,33.11,.11,33.11,.26Z"/><polygon class="cls-5" points="577.86 250.86 575.84 407.86 666.17 407.86 666.17 253 577.86 250.86"/><polygon class="cls-7" points="626.53 252.04 625.73 407.86 666.17 407.86 666.17 253 626.53 252.04"/><polygon class="cls-7" points="580.7 253.69 580.7 285.8 623.49 285.8 623.49 255.21 580.7 253.69"/><polygon class="cls-5" points="595.45 262.52 595.45 267.27 608.54 267.27 608.54 262.09 595.45 262.52"/><rect class="cls-5" x="595.45" y="271.25" width="13.52" height="1.94"/><polygon class="cls-7" points="580.7 366.22 580.7 398.33 623.49 398.33 623.49 367.74 580.7 366.22"/><polygon class="cls-5" points="595.45 375.05 595.45 379.8 608.54 379.8 608.54 374.62 595.45 375.05"/><rect class="cls-5" x="595.45" y="383.78" width="13.52" height="1.94"/><polygon class="cls-7" points="580.7 289.89 580.7 322 623.49 322 623.49 291.41 580.7 289.89"/><polygon class="cls-5" points="595.45 298.72 595.45 303.47 608.54 303.47 608.54 298.29 595.45 298.72"/><rect class="cls-5" x="595.45" y="307.45" width="13.52" height="1.94"/><rect class="cls-7" x="580.14" y="328.34" width="42.79" height="32.11"/><polygon class="cls-5" points="595.18 342.81 595.18 347.27 607.49 347.27 607.49 342.41 595.18 342.81"/><rect class="cls-5" x="595.18" y="351.02" width="12.71" height="1.82"/></g><g id="freepik--Floor--inject-57"><path class="cls-19" d="M669.57,406.5c0,.15-148.11,.26-330.76,.26s-330.8-.11-330.8-.26,148.08-.26,330.8-.26,330.76,.12,330.76,.26Z"/></g><g id="freepik--Screens--inject-57"><rect class="cls-3" x="190.71" y="39.96" width="267.33" height="175.35"/><path class="cls-19" d="M458.04,215.31c0-1.69-.08-68.4-.21-175.35l.21,.21H190.73l.26-.26V215.26l-.24-.24,267.33,.24-267.33,.24h-.24V39.65h.28l267.31,.06h.21v.2c-.19,107-.27,173.7-.27,175.4Z"/><path class="cls-9" d="M272.41,136.79l26.29,.37c-.2,14-12,25.43-26.29,25.43h-.16l.16-25.8Z"/><path class="cls-19" d="M315.89,172.4c-.19,.02-.38,.02-.57,0h-1.6l-5.88,.07h-.05l-.05-.06c-2.35-2.95-5.37-6.77-8.67-10.93l-7-8.91,.14,.06-7.74-.07-2.18,.05c-.26,.03-.51,.03-.77,0,.25-.04,.51-.05,.77-.05h2.16l7.74-.07h.08v.06l7,8.89,8.6,11-.12-.06,5.88,.07h1.6c.22-.04,.44-.06,.66-.05Z"/><path class="cls-19" d="M325.32,175.43c0,.11-3.81,.2-8.51,.2s-8.51-.09-8.51-.2,3.81-.2,8.51-.2,8.51,.09,8.51,.2Z"/><path class="cls-19" d="M325.32,178.61c0,.11-3.81,.2-8.51,.2s-8.51-.09-8.51-.2,3.81-.2,8.51-.2,8.51,.06,8.51,.2Z"/><path class="cls-16" d="M268.25,133.05l-.37,25.8c-14.28-.2-25.93-11.78-25.93-25.8s11.87-25.79,26.3-25.79,26.3,11.64,26.3,25.79h-26.3Z"/><path class="cls-19" d="M257.98,124.61c-.15,.05-.3,.09-.45,.1l-1.31,.21-4.72,.67h-.08l-.06-.06-6.3-6.13c-3-3-5.75-5.67-7.71-7.64l-2.3-2.35c-.3-.28-.57-.58-.81-.9,.33,.23,.64,.5,.92,.79l2.39,2.25c2,1.92,4.76,4.59,7.79,7.56l6.25,6.18h-.14l4.75-.52,1.31-.12c.15-.04,.31-.06,.47-.04Z"/><path class="cls-19" d="M227.58,107.39c0,.11-3.81,.2-8.51,.2s-8.5-.09-8.5-.2,3.8-.2,8.5-.2,8.51,.09,8.51,.2Z"/><path class="cls-19" d="M227.58,110.54c0,.11-3.81,.2-8.51,.2s-8.5-.09-8.5-.2,3.8-.2,8.5-.2,8.51,.09,8.51,.2Z"/><path class="cls-16" d="M360.24,82.09l-.1-16c-4.88,.09-9.58,1.92-13.23,5.16-4.74,4.14-7.13,10.35-6.37,16.6,.09,.78,.21,1.56,.38,2.33,0,.02,0,.04,0,.06h0l19.31-4.35v-3.8Z"/><g class="cls-10"><path class="cls-12" d="M360.24,82.09l-.1-16c-4.88,.09-9.58,1.92-13.23,5.16-4.74,4.14-7.13,10.35-6.37,16.6,.09,.78,.21,1.56,.38,2.33,0,.02,0,.04,0,.06h0l19.31-4.35v-3.8Z"/></g><path class="cls-16" d="M380.15,77.16c-2.87-6.16-8.82-10.33-15.59-10.91l-.61-.06h-1.66l.11,16v3.76l19.39,4.19h0c.3-1.36,.44-2.75,.43-4.15-.03-3.06-.74-6.08-2.07-8.83Z"/><g class="cls-10"><path d="M380.15,77.16c-2.87-6.16-8.82-10.33-15.59-10.91l-.61-.06h-1.66l.11,16v3.76l19.39,4.19h0c.3-1.36,.44-2.75,.43-4.15-.03-3.06-.74-6.08-2.07-8.83Z"/></g><path class="cls-16" d="M361.28,87.86l-19.32,4.35c2.4,10.67,13,17.37,23.67,14.96,7.5-1.69,13.35-7.58,14.99-15.09l-19.32-4.22"/><path class="cls-19" d="M436.46,84.98c0,.14-10,.26-22.3,.26s-22.31-.12-22.31-.26,10-.27,22.31-.27,22.3,.12,22.3,.27Z"/><path class="cls-19" d="M436.46,79.89c0,.14-10,.26-22.3,.26s-22.31-.12-22.31-.26,10-.26,22.31-.26,22.3,.12,22.3,.26Z"/><path class="cls-19" d="M436.46,74.81c0,.14-10,.26-22.3,.26s-22.31-.12-22.31-.26,10-.26,22.31-.26,22.3,.11,22.3,.26Z"/><path class="cls-19" d="M436.46,89.71c0,.14-10,.26-22.3,.26s-22.31-.12-22.31-.26,10-.27,22.31-.27,22.3,.17,22.3,.27Z"/><path class="cls-19" d="M422.65,94.85c0,.15-6.86,.26-15.32,.26s-15.32-.11-15.32-.26,6.86-.26,15.32-.26,15.32,.12,15.32,.26Z"/><rect class="cls-16" x="345.08" y="131.66" width="4.59" height="51.31"/><rect class="cls-16" x="353.95" y="149.08" width="4.59" height="33.88"/><rect class="cls-16" x="362.82" y="138.03" width="4.59" height="45.19"/><rect class="cls-16" x="371.69" y="133.64" width="4.59" height="49.33"/><rect class="cls-16" x="380.55" y="150.12" width="4.59" height="32.84"/><rect class="cls-16" x="389.42" y="156.56" width="4.59" height="26.4"/><rect class="cls-16" x="398.29" y="136.92" width="4.59" height="46.04"/><rect class="cls-16" x="407.16" y="145.22" width="4.59" height="37.74"/><rect class="cls-16" x="416.03" y="138.59" width="4.59" height="44.37"/><rect class="cls-16" x="424.9" y="152.73" width="4.59" height="30.23"/><rect class="cls-16" x="433.77" y="146.98" width="4.59" height="35.98"/><path class="cls-19" d="M440.24,186.54c0,.1-21.79,.19-48.67,.19s-48.67-.09-48.67-.19,21.79-.19,48.67-.19,48.67,.08,48.67,.19Z"/><path class="cls-19" d="M351.63,190.61c-2.27,.24-4.55,.24-6.82,0,2.27-.25,4.55-.25,6.82,0Z"/><path class="cls-19" d="M362.94,190.78c-2.71,.25-5.44,.25-8.15,0,2.71-.25,5.44-.25,8.15,0Z"/><path class="cls-19" d="M372.59,190.78c-2.71,.25-5.44,.25-8.15,0,2.71-.25,5.44-.25,8.15,0Z"/><path class="cls-19" d="M382.23,190.78c-2.71,.25-5.44,.25-8.15,0,2.71-.25,5.44-.25,8.15,0Z"/><path class="cls-19" d="M391.88,190.78c-2.71,.25-5.44,.25-8.15,0,2.71-.25,5.44-.25,8.15,0Z"/><path class="cls-19" d="M401.52,190.78c-2.71,.25-5.44,.25-8.15,0,2.71-.25,5.44-.25,8.15,0Z"/><path class="cls-19" d="M411.17,190.78c-2.71,.25-5.44,.25-8.15,0,2.71-.25,5.44-.25,8.15,0Z"/><path class="cls-19" d="M420.79,190.78c-2.71,.25-5.44,.25-8.15,0,2.71-.25,5.44-.25,8.15,0Z"/><path class="cls-19" d="M430.46,190.78c-2.71,.25-5.44,.25-8.15,0,2.71-.25,5.44-.25,8.15,0Z"/><path class="cls-19" d="M440.11,190.78c-2.71,.25-5.44,.25-8.15,0,2.71-.25,5.44-.25,8.15,0Z"/><g class="cls-10"><rect class="cls-1" x="353.95" y="149.08" width="4.59" height="33.88"/></g><g class="cls-10"><rect class="cls-1" x="371.69" y="133.64" width="4.59" height="49.33"/></g><g class="cls-10"><rect class="cls-1" x="389.42" y="156.56" width="4.59" height="26.4"/></g><g class="cls-10"><rect class="cls-1" x="407.16" y="145.22" width="4.59" height="37.74"/></g><g class="cls-10"><rect class="cls-1" x="424.9" y="152.73" width="4.59" height="30.23"/></g><path class="cls-16" d="M223.19,72.92c0,2.45-1.97,4.43-4.42,4.44s-4.43-1.97-4.44-4.42c0-2.45,1.97-4.43,4.42-4.44,0,0,.01,0,.02,0,2.44,0,4.42,1.98,4.42,4.42Z"/><path class="cls-16" d="M299.22,69.43c0,.15-14.91,.26-33.3,.26s-33.3-.11-33.3-.26,14.9-.26,33.3-.26,33.3,.12,33.3,.26Z"/><path class="cls-16" d="M259.35,74.78c-.33,.08-.66,.11-1,.1l-2.81,.09c-2.38,0-5.66,.07-9.28,.07s-6.91,0-9.28-.07l-2.82-.09c-.34,.01-.67-.02-1-.1,.33-.07,.66-.11,1-.1,.67,0,1.63-.06,2.82-.08,2.37,0,5.65-.08,9.28-.08s6.9,0,9.28,.08c1.19,0,2.15,.05,2.81,.08,.34,0,.67,.03,1,.1Z"/><rect class="cls-3" x="45.35" y="55.84" width="139.91" height="159.68"/><path class="cls-19" d="M185.27,215.51v-11.59c0-7.54,0-18.57-.06-32.58,0-28-.07-67.89-.11-115.5l.23,.23H45.43l.26-.26V215.48l-.22-.22,101.32,.15,28.38,.06h.09l-28.33,.06-101.62,.11h-.22V55.61H185.5v.23c-.05,47.67-.09,87.61-.12,115.65,0,14-.05,25-.06,32.52v10.77c0,.5-.05,.73-.05,.73Z"/><path class="cls-16" d="M173.24,137.37c0,.1-1.55-.78-4.5-1.71-4.17-1.3-8.58-1.64-12.9-1-2.96,.46-5.84,1.38-8.51,2.74-3.04,1.63-5.85,3.64-8.37,6-2.74,2.42-5.47,5.17-8.61,7.71-3.2,2.74-6.95,4.76-11,5.94-2.09,.55-4.27,.68-6.41,.39-2.06-.31-4.07-.93-5.95-1.83-3.44-1.79-6.78-3.77-10-5.93-2.86-1.91-6.03-3.33-9.36-4.19-2.91-.71-5.92-.94-8.91-.69-4.35,.38-8.56,1.74-12.3,4-2.64,1.61-3.88,2.82-4,2.74,.26-.33,.56-.63,.89-.88,.89-.8,1.85-1.53,2.86-2.18,6.39-4.13,14.18-5.49,21.59-3.78,3.43,.86,6.68,2.29,9.64,4.22,3.19,2.12,6.5,4.06,9.9,5.82,3.62,1.85,7.78,2.34,11.73,1.38,3.95-1.12,7.61-3.05,10.76-5.68,3.1-2.49,5.83-5.22,8.62-7.65,2.59-2.39,5.47-4.42,8.59-6.06,6.81-3.38,14.7-3.89,21.89-1.42,1.14,.38,2.24,.86,3.3,1.42,.37,.18,.72,.39,1.05,.64Z"/><rect class="cls-16" x="83.86" y="158.82" width="11.89" height="32.17"/><rect class="cls-16" x="134.34" y="158.82" width="11.89" height="32.17"/><rect class="cls-16" x="151.16" y="139.92" width="11.89" height="51.06"/><rect class="cls-16" x="68.47" y="180.86" width="11.89" height="10.83"/><rect class="cls-16" x="100.69" y="173.34" width="11.9" height="17.64"/><rect class="cls-16" x="117.51" y="169.29" width="11.89" height="21.69"/><path class="cls-19" d="M96.24,194.78c0,.26-2.88,.48-6.43,.48s-6.43-.22-6.43-.48,2.88-.48,6.43-.48,6.43,.21,6.43,.48Z"/><path class="cls-19" d="M81.44,194.78c0,.26-2.88,.48-6.43,.48s-6.43-.22-6.43-.48,2.88-.48,6.43-.48,6.43,.21,6.43,.48Z"/><path class="cls-19" d="M165.4,194.78c0,.26-3.25,.48-7.26,.48s-7.27-.22-7.27-.48,3.25-.48,7.27-.48,7.26,.21,7.26,.48Z"/><ellipse class="cls-19" cx="140.47" cy="194.78" rx="7.26" ry=".48"/><path class="cls-19" d="M129.41,194.78c0,.26-2.88,.48-6.43,.48s-6.43-.22-6.43-.48,2.88-.48,6.43-.48,6.43,.21,6.43,.48Z"/><path class="cls-19" d="M112.02,194.78c0,.26-2.87,.48-6.42,.48s-6.43-.22-6.43-.48,2.88-.48,6.43-.48,6.42,.21,6.42,.48Z"/><rect class="cls-7" x="68.19" y="79.12" width="97.21" height="40.37"/><path class="cls-9" d="M88.39,91.87c0,2.51-2.02,4.54-4.53,4.55-2.51,0-4.54-2.02-4.55-4.53s2.02-4.54,4.53-4.55h0c2.5,0,4.53,2.03,4.54,4.53Z"/><rect class="cls-9" x="92.92" y="88.74" width="31.58" height="1.75"/><rect class="cls-1" x="92.92" y="92.73" width="61.43" height="1.75"/><path class="cls-16" d="M88.39,105.81c0,2.51-2.02,4.54-4.53,4.55-2.51,0-4.54-2.02-4.55-4.53s2.02-4.54,4.53-4.55h0c2.5,0,4.53,2.02,4.54,4.52h0Z"/><rect class="cls-16" x="92.92" y="102.68" width="16.12" height="1.75"/><rect class="cls-1" x="92.92" y="106.66" width="61.43" height="1.75"/><rect class="cls-3" x="471.15" y="27.17" width="153.64" height="175.35"/><path class="cls-19" d="M624.79,202.52v-12.73c0-8.28,0-20.39-.06-35.77,0-30.75-.07-74.56-.11-126.85l.23,.23h-153.63l.27-.26c0,64.65,0,124.94-.05,175.35l-.22-.22,111.45,.11,31.15,.06h.09l-31.12,.17-111.59,.11h-.22V26.91h154.14v.23c0,52.35-.09,96.21-.12,127,0,15.37,0,27.46-.06,35.73v11.82c-.15,.56-.15,.83-.15,.83Z"/><rect class="cls-7" x="483.45" y="41.19" width="124.46" height="99.85"/><rect class="cls-19" x="492.14" y="123.29" width="4.08" height="1.18"/><rect class="cls-19" x="501.39" y="129.58" width="5.22" height="1.18"/><rect class="cls-19" x="519.57" y="129.58" width="5.22" height="1.18"/><rect class="cls-19" x="537.76" y="129.58" width="5.22" height="1.18"/><rect class="cls-19" x="555.94" y="129.58" width="5.22" height="1.18"/><rect class="cls-19" x="574.13" y="129.58" width="5.22" height="1.18"/><rect class="cls-19" x="592.31" y="129.58" width="5.22" height="1.18"/><rect class="cls-19" x="492.14" y="107.56" width="4.08" height="1.18"/><rect class="cls-19" x="492.14" y="77.98" width="4.08" height="1.18"/><rect class="cls-19" x="492.14" y="63.11" width="4.08" height="1.18"/><rect class="cls-19" x="492.35" y="92.77" width="4.08" height="1.18"/><path class="cls-19" d="M597.39,124.46c-.15,.01-.29,.01-.44,0h-6.28l-18.17,.09-60,.07h-14.4v-.26c0-20,.07-37.69,.09-50.35,0-6.3,.06-11.36,.08-14.87v-5c-.02-.12-.02-.23,0-.35,.02,.12,.02,.23,0,.35v5c0,3.51,.05,8.57,.08,14.87,0,12.66,0,30.31,.09,50.35l-.26-.25h14.21l60,.08,18.17,.08,5,.05h1.28l.55,.14Z"/><path class="cls-19" d="M598.54,93.36c0,.14-21.54,.26-48.11,.26s-48.12-.12-48.12-.26,21.54-.26,48.12-.26,48.11,.12,48.11,.26Z"/><path class="cls-19" d="M598.54,78.61c0,.15-21.54,.26-48.11,.26s-48.12-.11-48.12-.26,21.54-.26,48.12-.26,48.11,.07,48.11,.26Z"/><path class="cls-19" d="M598.54,63.69c0,.15-21.54,.26-48.11,.26s-48.12-.11-48.12-.26,21.54-.26,48.12-.26,48.11,.12,48.11,.26Z"/><path class="cls-19" d="M598.54,108.15c0,.15-21.54,.26-48.11,.26s-48.12-.11-48.12-.26,21.54-.26,48.12-.26,48.11,.12,48.11,.26Z"/><path class="cls-9" d="M503.3,121.28v-13.13l8.18-12.7,5.56,4.26,11.39-17.7,6.72,4.73,9.35-16.33,7.6,6.19,11.39-21.66,12.3,24.21,9.93-12.11,11.69-3.35v57.59h-94.11Z"/><path class="cls-16" d="M598.54,59.03h-3.19l-9,.07,.12-.06-9.6,12.57-.06,.08h-24.08l.21-.12c-3.17,5.27-6.58,11-10.11,16.84l-9.94,16.51-.19,.32-.23-.3c-4.74-6.54-9.14-12.59-13-17.93h.32l-11.95,18.6-3.33,5.11-.89,1.33c-.2,.3-.32,.45-.32,.45,0,0,.08-.17,.27-.48l.83-1.37,3.24-5.17,11.75-18.61,.17-.27,.18,.26,13.05,17.91h-.42l9.92-16.52,10.13-16.83,.07-.12h24.21l-.16,.08,9.69-12.49v-.06h.07l9,.07h2.98l.26,.13Z"/><path class="cls-16" d="M523.52,91.22c.02,.51-.38,.95-.89,.97-.51,.02-.95-.38-.97-.89s.38-.95,.89-.97h.04c.5-.01,.92,.39,.93,.89h0Z"/><path class="cls-16" d="M551.27,75.44c.03,.51-.37,.95-.88,.98-.51,.03-.95-.37-.98-.88-.03-.51,.37-.95,.88-.98,.02,0,.04,0,.06,0,.49,0,.9,.39,.92,.88Z"/><path class="cls-16" d="M572.85,71.61c.02,.51-.38,.95-.89,.97-.51,.02-.95-.38-.97-.89-.02-.51,.38-.95,.89-.97h.04c.5-.01,.92,.39,.93,.89h0Z"/><path class="cls-19" d="M602.3,155.88c0,.15-26.26,.26-58.65,.26s-58.66-.11-58.66-.26,26.26-.26,58.66-.26,58.65,.12,58.65,.26Z"/><path class="cls-19" d="M602.3,162.22c0,.15-26.26,.26-58.65,.26s-58.66-.11-58.66-.26,26.26-.26,58.66-.26,58.65,.12,58.65,.26Z"/><path class="cls-19" d="M602.3,168.61c0,.14-26.26,.26-58.65,.26s-58.66-.12-58.66-.26,26.26-.26,58.66-.26,58.65,.07,58.65,.26Z"/><path class="cls-19" d="M602.3,174.91c0,.14-26.26,.26-58.65,.26s-58.66-.12-58.66-.26,26.26-.26,58.66-.26,58.65,.11,58.65,.26Z"/></g><g id="freepik--character-2--inject-57"><path class="cls-19" d="M555.97,172.42c3.21-5.39,4.15-12.57,5-18.79,.38-2.93,1.06-7.09-1-8.93s-2.4-5-4.93-6.51c-2.56-1.6-5.82-1.58-8.36,.07"/><path class="cls-15" d="M547.07,191.51h0c-4.77,.37-8.93-3.2-9.3-7.97,0-.11-.01-.22-.02-.33-.18-4.72-.34-9.48-.34-9.48,0,0-7.14-.67-7.66-7.74s-.28-23.39-.28-23.39h0c7.98-4.02,17.5-3.41,24.9,1.6l-.44,24.88v13.39c-.05,4.49-2.38,8.7-6.86,9.04Z"/><path class="cls-19" d="M536.79,157.36c1.08-1.57,3.19-2.03,4.83-1.06,1.65,1.15,2.23,3.32,1.37,5.14-.74,1.32-2,2.27-3.47,2.62-1.35,.3-2.26,1.56-2.13,2.93,.21,1.77,3.16,2.44,4.49,3.91,2.07,2.28,6.62,3.25,9.69,3.61s2.64,.38,4.39-2.09c1.18-1.67,1.79-3.69,1.72-5.74l.33-15.64c.12-1.88,0-3.76-.36-5.61-.38-1.87-1.45-3.53-3-4.64-1.72-1.13-3.9-1.23-5.85-1.86-2.45-.79-4.53-2.42-6.82-3.59s-5.1-1.87-7.4-.72c-1.65,.83-2.76,2.48-4.37,3.39-2.28,1.3-5.39,1-6.5,4.37-.39,1.16-.39,2.43,0,3.59,1.55,4.58,7.21,6.42,11.29,4.44,.08,.78-.68,2.5,.13,4.95,.26,.78,.36,2,1.58,2"/><path class="cls-13" d="M538.06,161.77c.06,0,.3,.37,.89,.34,.77-.16,1.32-.84,1.32-1.62,.04-.79-.46-1.51-1.21-1.76-.59-.21-1-.1-1-.18s.39-.32,1.12-.17c.43,.1,.81,.32,1.11,.64,.36,.41,.55,.95,.52,1.5,.03,1.06-.78,1.95-1.84,2-.31,0-.6-.15-.79-.39-.15-.23-.15-.35-.12-.36Z"/><path class="cls-6" d="M545.42,140.45s.15-.27,.59-.6c.64-.45,1.38-.73,2.15-.83,1.15-.15,2.32,.03,3.38,.51,1.28,.63,2.36,1.59,3.12,2.79,1.29,2.18,2.05,4.63,2.2,7.16,.15,1.02,.21,2.06,.19,3.09-.27-.98-.46-1.99-.56-3-.24-2.44-1.02-4.8-2.26-6.92-.71-1.12-1.71-2.03-2.89-2.64-1.91-.96-4.19-.77-5.92,.48v-.04Z"/><path class="cls-6" d="M525.51,147.69c-.09,.02-.18,.02-.27,0-.25-.06-.49-.17-.7-.32-.34-.24-.62-.55-.82-.92-.27-.5-.35-1.08-.22-1.64,.15-.68,.56-1.27,1.14-1.65,.69-.37,1.47-.52,2.24-.44,.75,.09,1.51-.1,2.13-.54,.63-.57,1.21-1.19,1.73-1.86,1.19-1.26,2.72-2.15,4.41-2.54,1.36-.34,2.77-.37,4.14-.1,.92,.18,1.81,.52,2.61,1,.3,.16,.58,.37,.81,.62-1.09-.59-2.26-1.01-3.48-1.26-1.33-.22-2.7-.16-4,.19-1.58,.4-3.01,1.24-4.13,2.43-.55,.69-1.15,1.34-1.81,1.92-.36,.27-.78,.46-1.22,.55-.41,.06-.82,.08-1.23,.06-.68-.09-1.38,.02-2,.32-.5,.32-.85,.81-1,1.38-.21,.86,.11,1.76,.8,2.31,.28,.19,.57,.35,.87,.49Z"/><path class="cls-6" d="M544.43,167.36c0-.05,.35-.18,.93-.57,.82-.55,1.48-1.3,1.93-2.18,.66-1.28,.78-2.77,.32-4.14-.25-.8-.69-1.53-1.28-2.13-.66-.63-1.41-1.17-2.21-1.61-.83-.48-1.67-.93-2.43-1.45-.77-.5-1.44-1.12-2-1.85-.92-1.22-1.49-2.66-1.66-4.18-.12-1.01-.03-2.03,.24-3,.06-.27,.16-.53,.28-.77,.08-.18,.13-.26,.14-.25-.35,1.3-.45,2.66-.29,4,.21,1.43,.78,2.79,1.67,3.94,.53,.67,1.15,1.25,1.86,1.72,.74,.49,1.57,.93,2.41,1.42,.85,.46,1.63,1.03,2.32,1.71,.64,.66,1.1,1.46,1.37,2.33,.47,1.49,.3,3.11-.46,4.47-.5,.9-1.24,1.64-2.14,2.14-.3,.2-.64,.33-1,.4Z"/><path class="cls-6" d="M556.69,156.98c-.29,.12-.6,.19-.91,.21-.85,.1-1.7,.12-2.55,.07-2.82-.18-5.55-1.11-7.88-2.71-2.42-1.51-4.25-3.81-5.18-6.51-.24-.83-.27-1.71-.1-2.56,.05-.31,.17-.61,.35-.87-.26,1.1-.22,2.25,.11,3.33,1,2.55,2.79,4.72,5.11,6.18,2.27,1.54,4.89,2.49,7.62,2.77,2.1,.23,3.42-.01,3.43,.09Z"/><path class="cls-19" d="M557.79,152.14c2.42-2.86,6-4.48,9.75-4.42,3.68,.21,7.27,2.76,8.17,6.33,.68,2.7-.15,5.51-.49,8.26s0,6,2.23,7.61c1.36,1,3.11,1.16,4.74,1.56s3.36,1.21,3.92,2.79c.64,1.81-.67,3.86-2.43,4.63-1.83,.63-3.81,.66-5.66,.08,.75,2.15-.13,4.52-2.1,5.66-1.99,1.05-4.39,.95-6.28-.26-1.85-1.23-3.21-3.07-3.83-5.2-1.21,2.13-4.39,2.58-6.43,1.22-2-1.5-3-3.99-2.6-6.46,.43-2.43,1.56-4.68,3.26-6.46,.86-.88,1.63-1.85,2.27-2.9,.65-1.08,.7-2.41,.14-3.53-.58-1.02-1.87-1.37-2.89-.8-.09,.05-.17,.1-.25,.17"/><path class="cls-16" d="M562.06,159.61c-.67,.32-1.45,.32-2.12,0-1.66-.69-2.83-2.22-3.08-4-.16-.97-.05-1.96,.33-2.87,.31-.73,.77-1.39,1.36-1.92,.5-.52,1.15-.87,1.86-1-.56,.4-1.09,.83-1.6,1.3-1.15,1.17-1.69,2.82-1.44,4.45,.23,1.62,1.25,3.03,2.71,3.76,.64,.22,1.31,.32,1.98,.28Z"/><path class="cls-13" d="M537.18,173.61c-.54,.08-1.1,.03-1.62-.16-2.58-.72-4.69-2.59-5.72-5.06-.25-.49-.37-1.03-.36-1.58,.26,.46,.49,.94,.69,1.43,.57,1.14,1.34,2.15,2.29,3,.94,.83,2.03,1.48,3.21,1.91,.51,.11,1.02,.27,1.51,.46Z"/><path class="cls-6" d="M564.4,179.4h-.35c-.33-.09-.64-.23-.92-.41-1.03-.73-1.74-1.82-2-3.05-.2-.84-.23-1.72-.09-2.57,.18-.97,.49-1.9,.94-2.78,.89-1.87,2.29-3.64,3.33-5.69,.51-.99,.84-2.05,1-3.15,.4-2.84-1.24-5.57-3.93-6.56-1.13-.39-2.34-.46-3.5-.21-.83,.17-1.25,.4-1.27,.36s.09-.08,.29-.2c.3-.15,.61-.27,.93-.36,3.13-.89,6.42,.75,7.59,3.79,.4,1.03,.54,2.14,.4,3.24-.18,1.16-.55,2.28-1.09,3.32-1.08,2.12-2.49,3.87-3.37,5.67-.89,1.53-1.21,3.32-.92,5.06,.21,1.18,.83,2.24,1.76,3,.38,.21,.79,.39,1.2,.54Z"/><path class="cls-6" d="M575.06,184.61c-.15,.02-.29,.02-.44,0-.43-.02-.85-.09-1.26-.22-1.52-.51-2.82-1.53-3.69-2.87-1.24-2.02-1.8-4.38-1.58-6.74,.28-2.82,.73-5.61,1.36-8.37,.26-1.42,.36-2.87,.3-4.31-.07-1.33-.38-2.64-.91-3.86-.89-2.12-2.76-3.66-5-4.14-1.5-.34-3.05-.34-4.55,0-1.07,.24-1.63,.48-1.65,.43s.13-.09,.39-.21c.39-.16,.8-.3,1.21-.42,1.52-.43,3.13-.49,4.68-.17,1.09,.22,2.11,.68,3,1.34,1.02,.79,1.82,1.82,2.33,3,.58,1.26,.91,2.62,1,4,.08,1.48-.02,2.96-.29,4.42-.62,2.74-1.09,5.52-1.4,8.31-.23,2.27,.27,4.55,1.42,6.51,.8,1.31,2.01,2.32,3.44,2.88,.54,.18,1.08,.32,1.64,.42Z"/><polygon class="cls-15" points="577.19 216.78 562.14 228.52 568.45 238.9 586.59 225.54 577.19 216.78"/><path class="cls-15" d="M536.91,177.31s.08-1.26-3.21-1.44c-1.21-.11-2.43-.15-3.65-.12-.72-.88-1.26-1.9-1.57-3,.05-1.07,.29-2.12,.7-3.1l3.33-.3-.9-2.26-2.35,.16-6.61,.8-2.63,11.56-18.06,33.7c-2.67,4-1.59,9.41,2.42,12.08,.33,.22,.68,.42,1.03,.59h0c4.67,2.26,10.92-2.53,12.65-7.42l10-37.49,3.52-2.74,5-.92"/><path class="cls-15" d="M495.79,401.61l24.55-141.4h0c.06-.21,.11-.41,.16-.61h0c4.19-16.59,10.64-21.9,10.64-21.9l37.61,2.36c3.2,5.75,3.61,19.54,3.61,19.54,.44,1.69-7.95,138.72-7.95,138.72l-12.62-.39-6.82-129.64-36.61,133.87-12.57-.55Z"/><path class="cls-16" d="M495.46,402.89l.05-1.27,12.94,.37-.11,4.21h-.8c-3.56,.09-18.11,.21-20.47-.52-2.62-.79,8.39-2.79,8.39-2.79Z"/><g class="cls-14"><path class="cls-1" d="M503.67,405.98c.24-1.02,.85-1.92,1.72-2.51,.88-.6,1.94-.88,3-.79l-.1,3.35-4.62-.05Z"/></g><g class="cls-14"><path class="cls-1" d="M490.07,404.05s-3.86,.92-3.4,1.52,15.17,1,21.67,.63v-.27l-17.17-.32s-.38-1.51-1.1-1.56Z"/></g><path class="cls-19" d="M508.53,405.93h-3.2c-2,0-4.72,0-7.74-.08s-5.75-.2-7.73-.32l-2.34-.15h.01l2.34,.1c2,.09,4.71,.2,7.73,.28s5.75,.1,7.73,.12h3.2v.05Z"/><path class="cls-19" d="M491.16,405.8c-.13-.76-.56-1.44-1.18-1.9,.39,.13,.72,.41,.91,.78,.24,.32,.33,.73,.27,1.12Z"/><path class="cls-19" d="M495.02,404.11s-.21-.19-.39-.47-.3-.52-.26-.54,.21,.19,.39,.47,.3,.52,.26,.54Z"/><path class="cls-19" d="M496.08,403.61s-.23-.11-.45-.3-.37-.37-.34-.4c.17,.07,.32,.17,.45,.3,.22,.21,.37,.4,.34,.4Z"/><path class="cls-19" d="M496.79,402.51c-.22,.07-.44,.09-.67,.07-.23,.02-.46-.01-.67-.09,.22-.07,.44-.09,.67-.06,.23-.02,.45,0,.67,.08Z"/><path class="cls-19" d="M497.02,401.72c-.22,.14-.49,.2-.75,.19-.27,.04-.54,0-.78-.12,.26-.02,.51-.02,.77,0,.25-.05,.51-.07,.76-.07Z"/><path class="cls-19" d="M494.61,403.06c-.27,.04-.55,.04-.82,0-.3-.04-.59-.11-.88-.2-.17-.05-.34-.13-.5-.21-.1-.05-.17-.14-.2-.25-.02-.12,.04-.24,.14-.3,.65-.28,1.41-.09,1.86,.46,.12,.15,.21,.33,.26,.52v.21c-.07-.24-.19-.47-.35-.67-.19-.21-.43-.36-.7-.44-.32-.13-.68-.13-1,0-.13,.08-.08,.23,.06,.31,.15,.08,.3,.15,.46,.2,.28,.1,.56,.17,.85,.23,.51,.1,.82,.11,.82,.14Z"/><path class="cls-19" d="M494.4,403.09c-.1-.16-.13-.36-.08-.54,.03-.2,.11-.4,.24-.56,.16-.23,.42-.37,.7-.37,.17,.03,.28,.19,.25,.36-.02,.12-.07,.24-.15,.34-.12,.17-.26,.32-.41,.46-.14,.13-.3,.24-.48,.3,0,0,.17-.14,.4-.37,.14-.14,.26-.29,.36-.46,.12-.16,.21-.45,0-.49-.22,.02-.42,.14-.55,.32-.12,.14-.21,.31-.25,.49-.03,.17-.04,.35-.03,.52Z"/><path class="cls-19" d="M508.37,402.61h-1c-.75,.07-1.47,.32-2.1,.74-.6,.42-1.06,1.01-1.35,1.68-.21,.5-.24,.85-.27,.84-.02-.08-.02-.16,0-.24,.03-.22,.08-.43,.16-.64,.26-.71,.74-1.32,1.36-1.75,.65-.44,1.41-.7,2.19-.73,.23-.02,.47-.02,.7,0,.11,0,.22,.04,.31,.1Z"/><path class="cls-19" d="M502.09,404.77c-.62,.12-1.26,.17-1.89,.13-.63,0-1.26-.06-1.88-.19,0-.05,.85,0,1.88,0s1.88,.02,1.89,.06Z"/><path class="cls-19" d="M504.61,404.84s-.07,.16-.16,.34-.15,.33-.19,.33-.06-.19,0-.4,.32-.3,.35-.27Z"/><path class="cls-19" d="M505.6,403.76s-.06,.15-.2,.27-.27,.2-.3,.17,.06-.15,.19-.27,.28-.2,.31-.17Z"/><path class="cls-19" d="M506.97,403.29s-.18,0-.37,.09-.33,.15-.36,.12,.08-.19,.31-.26,.44,.02,.42,.05Z"/><path class="cls-19" d="M507.95,403.08s-.06,.1-.17,.13-.21,0-.22,0,.06-.1,.17-.13,.2-.04,.22,0Z"/><path class="cls-19" d="M558.66,181.29c3.58,.56,6.99,1.9,10,3.92,11.89,7.71,31.78,24,30.13,31.57-1.44,6.42-17,14.23-17,14.23l-10-12.12,6.17-3.53-15.17-10.1-4.13-23.97Z"/><path class="cls-19" d="M565.44,205.84l-.49,1.8-1.75,8.36-.41,12.25c9,11.62,9.16,21.4,9.16,21.4l-45.57,5.32c0-9,3.29-20.34,3.29-20.34,2.63-4.47,2.51-17.85,2-18.34-2.84-2.82-3.53-4.89-1.26-8.5,0,0-14.13,14.84-15.58,16.17-5,4.58-9.8,3.3-12,1.31-6.24-5.57,.16-12.75,.16-12.75l23.8-27.27c1.62-1.87,3.78-3.19,6.18-3.77,1.68-.39,3.39-.69,5.1-.9l15.89,.13c1.59,.05,3.17,.25,4.73,.58,3.65,1.47,6.27,4.72,6.94,8.6,1.39,6.83-.19,15.95-.19,15.95Z"/><path class="cls-6" d="M565.94,194.91c.08,.44,.11,.88,.1,1.32,0,.85,0,2.09-.09,3.61-.28,3.95-.8,7.88-1.57,11.77-.29,1.55-.61,3.05-.94,4.44v-.05c-.14,3.54-.28,6.6-.4,8.78-.07,1-.12,1.86-.16,2.54,0,.31-.04,.62-.12,.92-.06-.3-.07-.61-.05-.92v-2.55c0-2.18,.11-5.25,.22-8.79v-.05c.31-1.37,.62-2.87,.91-4.42,.87-4.54,1.45-8.69,1.72-11.71,.13-1.51,.2-2.73,.25-3.58,0-.44,.05-.88,.13-1.31Z"/><path class="cls-6" d="M566.09,207.16c5.64,3.48,11.1,7.26,16.35,11.31-2.87-1.66-5.65-3.48-8.32-5.44-2.78-1.82-5.46-3.78-8.03-5.87Z"/><path class="cls-6" d="M536.63,189.3s.1,.05,.24,.18c.2,.19,.39,.4,.56,.62,.62,.83,1.04,1.8,1.24,2.82,.29,1.52,.21,3.09-.26,4.57-.6,1.79-1.46,3.47-2.56,5-.56,.79-1.19,1.53-1.88,2.21-.66,.67-1.37,1.22-2,1.79-1.26,1.13-2.34,2.2-3.24,3.12s-1.61,1.67-2.1,2.19-.77,.82-.8,.79c.18-.33,.4-.64,.65-.92,.44-.56,1.11-1.36,2-2.32s1.93-2,3.19-3.21c.63-.59,1.32-1.15,2-1.8,.66-.67,1.27-1.39,1.82-2.16,1.06-1.47,1.91-3.09,2.52-4.8,.46-1.4,.59-2.9,.36-4.36-.25-1.37-.85-2.65-1.74-3.72Z"/><polygon class="cls-9" points="531.33 229.59 531.86 223.47 562.94 223.47 562.77 228.25 531.33 229.59"/><path class="cls-6" d="M504.79,211.32c-.61,.56-1.19,1.16-1.73,1.8-2.58,3.22-2.39,7.85,.44,10.85,.59,.59,1.22,1.14,1.87,1.66,0,0-.25,0-.64-.27-.54-.31-1.05-.69-1.49-1.13-3.17-3.05-3.37-8.05-.46-11.35,.4-.48,.87-.9,1.39-1.25,.4-.24,.62-.34,.62-.31Z"/><polygon class="cls-16" points="564.37 398.28 567.9 406.48 552.12 406.29 551.79 397.93 564.37 398.28"/><path class="cls-19" d="M552.01,404.87c.73,.09,1.46,.13,2.2,.11h5.34l5.32-.11c.74,.01,1.48-.03,2.21-.12-.73-.09-1.47-.12-2.21-.1h-5.33l-5.33,.1c-.74,0-1.47,.04-2.2,.12Z"/><path class="cls-19" d="M558.58,398.1c-.19,1.1-.21,2.22-.06,3.32-.02,1.12,.12,2.23,.43,3.3,.19-1.1,.21-2.22,.06-3.32,.02-1.12-.12-2.23-.43-3.3Z"/><polyline class="cls-2" points="567.87 406.65 552.11 406.12 552.01 404.62 567.08 404.75 567.88 406.47"/><path class="cls-16" d="M570.92,241.75c11.87,37.45-3.43,82.91,.24,126.55,.36,4.29,2.1,9.41-1.91,11.85-1.09,.64-2.35,.95-3.62,.89-3.2-.11-5.88-1.77-8.74-2.91-5.49-2.17-11.56-2.41-17.2-.67-3.78,1.18-7.54,3.27-11.46,2.68-5.21-.79-8.58-5.94-13.37-8.12-4.49-2-9.67-1.28-14.6-1.4h-.15c-6.1-.24-10.85-5.39-10.61-11.49,.03-.85,.17-1.69,.39-2.51,7.17-26.24,30.92-111.46,41.44-127l31.46-1.37c2.88,3.5,6.6,8.73,8.13,13.5Z"/><path class="cls-19" d="M559.91,259.38c-.5,.77-1.07,1.49-1.71,2.15-1.44,1.68-2.99,3.27-4.64,4.75-1.69,1.45-3.52,2.71-5.48,3.76-.79,.48-1.63,.87-2.5,1.16-.11-.18,3.74-2,7.63-5.32,1.94-1.68,3.53-3.39,4.72-4.6,.6-.7,1.26-1.33,1.98-1.9Z"/><g class="cls-18"><path d="M546.03,273.51c-9.91,25.55-11.74,53.53-5.24,80.16,.56,2.29,1.14,4.89-.17,6.86-1.68,2.54-5.77,2.37-8.08,.37s-3.23-5.13-3.81-8.13c-4.32-22.34,3.5-44.8,11.94-65.93"/></g></g><g id="freepik--character-1--inject-57"><rect class="cls-19" x="308.12" y="286.13" width="59.59" height="2.9"/><polygon class="cls-19" points="298.88 289.03 287.71 247.15 334.23 247.15 344.35 289.03 298.88 289.03"/><polygon class="cls-5" points="341.56 285.86 300 285.86 290.33 249.08 332.1 249.08 341.56 285.86"/><path class="cls-17" d="M291.02,251.73h41.77l-.71-2.65h-41.75l.69,2.65Z"/><path class="cls-3" d="M295.53,250.41c0,.25,.21,.46,.46,.46,.25,0,.46-.21,.46-.46,0-.25-.21-.46-.46-.46h0c-.25,0-.46,.21-.46,.46Z"/><path class="cls-3" d="M293.96,250.41c0,.25,.21,.46,.46,.46,.25,0,.46-.21,.46-.46,0-.25-.21-.46-.46-.46h0c-.25,0-.46,.21-.46,.46Z"/><path class="cls-3" d="M292.39,250.41c0,.25,.21,.45,.46,.45,.25-.04,.42-.27,.39-.52-.03-.2-.19-.36-.39-.39-.25,0-.46,.21-.46,.46Z"/><path class="cls-16" d="M322.42,267.84l4.58,5.24c1.73-1.2,2.77-3.16,2.79-5.27,0-3.66-3.36-6.66-7.41-6.64s-7.38,3-7.36,6.7l7.4-.03Z"/><path class="cls-19" d="M321.84,268.68c.48,.4,.91,.83,1.31,1.31,.82,.88,2,2.16,3.38,3.72l.16,.18-.2,.14c-2.26,1.59-5.18,1.88-7.71,.76-1.27-.54-2.37-1.43-3.18-2.55-.71-1.01-1.11-2.21-1.17-3.44v-.19h5.49c.64-.02,1.29,0,1.93,.09-.66,.1-1.33,.16-2,.16-1.26,.06-3,.12-5.18,.18l.22-.24c.08,1.14,.48,2.24,1.14,3.17,.77,1.05,1.8,1.86,3,2.36,2.37,1.04,5.1,.8,7.25-.63v.32c-1.33-1.55-2.42-2.86-3.18-3.79-.46-.48-.88-1-1.26-1.55Z"/><path class="cls-19" d="M318.85,263.89c0,.23,.19,.41,.42,.42,.23,0,.41-.19,.41-.42,0-.23-.18-.41-.41-.41h0c-.23,0-.41,.17-.42,.4h0Z"/><path class="cls-19" d="M310.62,260.9c1.64-.27,3.29-.36,4.95-.28h.76l.08,.07c1.07,.96,2.03,2.03,2.86,3.2-1.17-.83-2.26-1.77-3.23-2.83l.19,.07h-.66c-1.65,.09-3.31,.02-4.95-.23Z"/><path class="cls-19" d="M301.27,266.13c-.21-.63-.37-1.28-.48-1.93-.28-1.27-.67-3.12-1.13-5.39l-.05-.25h.26l10.34-.09c-.06,0,.49,.41,.26,.22h0v.48l.09,.49c.06,.33,.13,.65,.19,1,.12,.64,.23,1.27,.35,1.89,.23,1.23,.44,2.41,.65,3.53l.05,.28h-.28c-3.11,0-5.72-.05-7.54-.08l-2.09-.06c-.24,0-.48-.01-.71-.06,.26-.04,.53-.06,.8-.06l2.14-.07c1.83-.05,4.38-.11,7.4-.14l-.23,.28-.6-3.56c-.12-.61-.24-1.24-.36-1.88-.06-.32-.13-.65-.19-1l-.09-.49-.05-.25v-.22h0c-.23-.19,.31,.26,.25,.22h-10.38l.21-.25c.39,2.19,.69,4,.9,5.32s.31,2.04,.29,2.07Z"/><path class="cls-19" d="M318.24,272.22c.04,.23,.25,.39,.48,.35,.18-.03,.32-.17,.35-.35,0-.23-.19-.42-.42-.42h0c-.23,0-.41,.18-.41,.41h0Z"/><path class="cls-19" d="M311.14,272.25c1.23-.27,2.5-.36,3.76-.28,1.26-.1,2.52-.01,3.75,.25-1.23,.26-2.49,.35-3.75,.27-1.26,.09-2.52,0-3.76-.24Z"/><path class="cls-19" d="M301.3,275.51c-.19-.45-.34-.91-.45-1.38-.27-.92-.66-2.28-1.13-4l-.06-.24h.25c2.82-.05,6.57-.09,10.67-.1l.25,.19h0v.35l.09,.36,.18,.7c.12,.47,.24,.93,.35,1.38,.23,.9,.45,1.78,.66,2.62l.08,.3h-.31c-3.16,0-5.86,0-7.74-.08l-2.18-.06c-.25,0-.5-.01-.75-.06,.28-.04,.56-.07,.84-.07l2.23-.07c1.89-.06,4.52-.11,7.6-.14l-.24,.3c-.22-.84-.45-1.71-.68-2.61l-.36-1.38-.18-.71-.09-.35-.05-.18v-.16h0c-.06,0,.48,.37,.25,.2h-10.66l.18-.25c.4,1.64,.7,3,.91,3.93,.15,.49,.27,1,.34,1.51Z"/><path class="cls-19" d="M302.09,261.02c1.16-.26,2.35-.35,3.53-.27,1.19-.1,2.38-.01,3.54,.25-1.16,.26-2.35,.35-3.54,.27-1.18,.1-2.37,.01-3.53-.25Z"/><path class="cls-19" d="M302.17,262.18c1.17-.26,2.37-.35,3.56-.27,1.19-.09,2.39,0,3.56,.24-2.36,.35-4.76,.35-7.12,0v.03Z"/><path class="cls-19" d="M302.38,263.3c1.13-.27,2.29-.36,3.44-.28,1.15-.08,2.3,0,3.43,.25-1.12,.27-2.28,.36-3.43,.28-1.15,.08-2.31,0-3.44-.25Z"/><path class="cls-19" d="M302.3,272.15c1.1-.26,2.24-.35,3.37-.27,1.13-.1,2.27-.01,3.37,.25-1.1,.26-2.24,.35-3.37,.27-1.13,.1-2.27,.01-3.37-.25Z"/><path class="cls-19" d="M302.71,273.43c1.9-.35,3.86-.35,5.76,0-1.9,.35-3.86,.35-5.76,0Z"/><polygon class="cls-9" points="237.55 288.9 237.55 294.39 241.15 294.39 241.15 405.6 248.53 405.6 248.53 294.39 287.7 294.39 287.7 405.6 295.08 405.6 295.08 294.39 465.01 294.39 465.01 405.57 472.4 405.57 472.4 294.39 475.59 294.39 475.59 288.9 237.55 288.9"/><path class="cls-19" d="M397.59,330.33c3.19,.28,6.41,.28,9.6,0-3.19-.27-6.41-.27-9.6,0Z"/><ellipse class="cls-6" cx="327.68" cy="331.34" rx=".26" ry=".13"/><path class="cls-11" d="M374.71,232.48l-27.56-28-.6-3c-.11-.55-.23-1.17-.34-1.88-.12-.82-.1-1.65,.05-2.46,.14-1.01,.43-2,.85-2.94,.46-.81-.28-1.79-1.05-1.45s-2.1,2.53-2.39,5.56-2.87-1-3.83-2.44-4.16-5.77-4.83-5.82c-1-.08-1.22,1-.23,2.4s3.7,5.9,2.94,6.37h0c-1.55-.27-3.09,.5-3.81,1.89-.7,1.33-1.47,3.23-.84,4.1,1.36,1.65,2.83,3.2,4.4,4.66l.92,.79s23.85,34.56,29.05,35.69c3.23,.69,53.21,4.84,53.21,4.84l3.77-13.77-49.71-4.54Z"/><path class="cls-11" d="M332.79,204.19l2.55,2.45c.28,.3,.62,.54,1,.71,.38,.16,.81,.09,1.12-.18,.21-.29,.27-.66,.15-1-.14-.33-.34-.64-.59-.9l-2.48-3"/><path class="cls-4" d="M334.54,202.26c.06-.05,.53,.42,1.26,1.23,.41,.46,.83,.93,1.26,1.43,.28,.28,.52,.6,.71,.95,.24,.45,.21,.99-.07,1.41-.35,.39-.91,.52-1.4,.32-.38-.16-.72-.4-1-.7l-1.33-1.36c-.75-.78-1.19-1.29-1.14-1.35,.51,.29,.98,.66,1.39,1.09l1.41,1.27c.24,.25,.52,.44,.84,.57,.28,.11,.6,.05,.82-.16,.16-.27,.16-.6,0-.87-.17-.31-.38-.6-.61-.87-.41-.51-.8-1-1.18-1.5-.39-.44-.72-.93-.96-1.46Z"/><path class="cls-11" d="M334.64,202.41l2.55,2.45c.28,.3,.62,.54,1,.7,.37,.18,.82,.11,1.12-.18,.22-.29,.27-.66,.15-1-.14-.34-.34-.64-.59-.91l-2.48-3"/><path class="cls-4" d="M336.35,200.47c.06,0,.53,.43,1.26,1.24l1.26,1.42c.28,.28,.52,.6,.71,.95,.24,.45,.21,1-.07,1.42-.35,.39-.91,.52-1.4,.32-.38-.16-.72-.4-1-.7l-1.32-1.36c-.44-.39-.83-.85-1.14-1.35,.51,.29,.98,.66,1.39,1.08l1.41,1.28c.24,.25,.52,.44,.84,.57,.28,.11,.6,.05,.82-.16,.16-.27,.16-.61,0-.88-.17-.31-.38-.6-.62-.86l-1.17-1.5c-.4-.44-.73-.93-.97-1.47Z"/><path class="cls-11" d="M336.63,200.95l2.55,2.45c.28,.3,.62,.54,1,.7,.44,.25,.99,.09,1.24-.35,.15-.26,.16-.58,.02-.85-.14-.34-.34-.65-.59-.91-.82-1-1.65-2-2.47-3"/><path class="cls-4" d="M338.34,199.01c.47,.35,.9,.76,1.26,1.23l1.26,1.43c.27,.29,.51,.6,.7,.95,.25,.45,.23,1-.07,1.42-.35,.39-.91,.52-1.39,.32-.38-.16-.72-.4-1-.7l-1.31-1.36c-.44-.39-.82-.85-1.13-1.35,.51,.29,.98,.65,1.39,1.08l1.41,1.28c.23,.24,.52,.44,.83,.57,.28,.12,.6,.05,.82-.16,.17-.27,.17-.61,0-.88-.17-.31-.38-.6-.61-.86l-1.17-1.5c-.41-.43-.74-.93-.99-1.47Z"/><path class="cls-4" d="M340.66,205.19c0-.09,.63-.21,1.55,.07l-.29,.25c-.14-.57-.17-1.17-.07-1.75,.14-.79,.48-1.52,1-2.13,.39-.46,.72-.64,.76-.59-.56,.86-.96,1.81-1.2,2.8-.08,.52-.08,1.06,0,1.58l.05,.4-.34-.15c-.86-.34-1.47-.38-1.46-.48Z"/><path class="cls-11" d="M410.79,190.49l.12,38.37-15,.71-.6-9.19s-7.22,1.09-8.73-4.34c-1-3.47-.72-30.27-.72-30.27l24.93,4.72Z"/><path class="cls-19" d="M382.21,189.55c1.11,2.3,6.39,6.49,6.39,6.49l2.39,6.39c2.07-1.62,4.85-1.53,5.38,2.11,.38,2.64-2.89,3.17-2.89,3.17,1.9,3.24,3.19,5.86,6,8.94,3,3.34,4.68,3.67,7.94,3.73h3.59s7.34-6.14,5.89-22.3-16.02-11.47-19.49-15.47c-5.62-6.59-18.9-.71-15.2,6.94Z"/><path class="cls-6" d="M416.04,211.61c-.59,.08-1.19,.05-1.77-.08-1.6-.34-3.08-1.1-4.29-2.2-1.73-1.68-3.19-3.61-4.33-5.73-1.4-2.29-2.93-4.95-5.5-6.73s-5.66-2.09-8.29-2.63c-2.4-.32-4.69-1.2-6.69-2.55-1.33-.98-2.27-2.4-2.68-4-.16-.58-.18-1.18-.07-1.77-.04,.59,0,1.18,.15,1.75,.43,1.56,1.38,2.93,2.69,3.88,2,1.32,4.27,2.16,6.64,2.47,2.62,.53,5.7,.87,8.37,2.65s4.15,4.51,5.54,6.8c1.13,2.11,2.57,4.04,4.27,5.72,1.18,1.09,2.63,1.86,4.2,2.23,.43,.09,.86,.15,1.3,.16l.46,.03Z"/><path class="cls-6" d="M416.89,198.45l-.77-.24c-.74-.23-1.49-.4-2.26-.5-1.21-.17-2.44,.11-3.46,.78-.63,.42-1.07,1.08-1.21,1.82-.16,.83,.1,1.69,.7,2.29,.34,.29,.76,.46,1.21,.48,.47,0,.93-.12,1.33-.37,.87-.52,1.51-1.34,1.81-2.31,1.01-2.99-.6-6.23-3.59-7.23-.4-.13-.82-.22-1.24-.27-1.26-.07-2.51,.09-3.71,.48-1.26,.41-2.55,.72-3.85,.93-1.35,.18-2.73,.18-4.08,0-1.36-.16-2.69-.53-3.94-1.09-1.26-.52-2.24-1.55-2.69-2.84-.37-1.29-.02-2.67,.91-3.63,.96-.87,2.35-1.07,3.52-.51,.56,.25,1.02,.68,1.3,1.22,.26,.53,.36,1.13,.28,1.72-.16,1.12-.8,2.12-1.75,2.74-.9,.55-1.94,.84-3,.83-.95,0-1.9-.14-2.8-.43-1.56-.5-2.97-1.37-4.12-2.54-.87-.87-1.58-1.88-2.1-3-.33-.7-.58-1.44-.75-2.2-.09-.52-.12-.8-.12-.8,0,0,.06,.27,.16,.79,.19,.75,.45,1.47,.78,2.17,.52,1.12,1.23,2.13,2.11,3,1.14,1.15,2.54,2,4.08,2.48,.89,.29,1.82,.43,2.76,.42,1.01,0,2-.28,2.86-.81,.91-.59,1.51-1.55,1.66-2.62,.19-1.14-.42-2.27-1.47-2.75-1.1-.52-2.4-.33-3.3,.49-.88,.9-1.21,2.21-.86,3.42,.44,1.23,1.38,2.22,2.59,2.71,1.24,.54,2.56,.89,3.91,1.03,1.33,.18,2.67,.18,4,0,1.29-.21,2.57-.51,3.82-.91,1.22-.4,2.51-.57,3.8-.49,3.25,.33,5.61,3.23,5.28,6.48-.04,.43-.14,.86-.28,1.28-.32,1-.99,1.85-1.9,2.39-.42,.26-.91,.39-1.41,.38-.48-.01-.95-.2-1.31-.52-.63-.64-.9-1.54-.73-2.42,.16-.78,.61-1.46,1.27-1.9,1.05-.67,2.31-.94,3.54-.76,.77,.1,1.53,.28,2.26,.54,.5,.16,.76,.27,.76,.27Z"/><path class="cls-16" d="M397.87,396.23l-4.88-6.27,11.69-9.23,7.25,9.1-.69,.62c-3.08,2.72-15.88,13.65-18.55,14.7-2.98,1.17,5.18-8.92,5.18-8.92Z"/><g class="cls-8"><path class="cls-1" d="M394.02,401.33s-2.69,3.76-1.8,4,14.23-10.32,19.71-15.49l-.23-.25-15.46,12.44s-1.52-1.21-2.22-.7Z"/></g><path class="cls-19" d="M411.88,389.43c-.05,.07-.11,.13-.18,.18l-.55,.49-2.05,1.77c-1.75,1.48-4.18,3.5-6.92,5.67s-5.26,4.08-7.1,5.43l-2.2,1.6-.6,.42-.22,.13,.2-.16,.58-.45,2.16-1.64c1.82-1.38,4.33-3.3,7.07-5.47s5.18-4.17,6.94-5.63l2.09-1.72,.57-.47,.21-.15Z"/><path class="cls-19" d="M396.39,402.2c-.37-.28-.77-.51-1.2-.7-.44-.13-.9-.21-1.36-.24,.47-.15,.97-.13,1.42,.07,.47,.14,.88,.45,1.14,.87Z"/><path class="cls-19" d="M398.46,397.72s-.34,0-.73-.15-.68-.28-.66-.33,.34,0,.72,.16c.24,.06,.47,.17,.67,.32Z"/><path class="cls-19" d="M399.01,396.47s-.29,.08-.63,.06-.62-.08-.62-.13,.28-.08,.63-.05c.21,0,.43,.03,.62,.12Z"/><path class="cls-19" d="M398.73,394.9s-.21,.29-.55,.56-.63,.46-.66,.42,.22-.29,.55-.56,.63-.46,.66-.42Z"/><path class="cls-19" d="M398.32,393.96c-.25,.56-.72,1-1.3,1.2,0-.05,.3-.27,.66-.6s.6-.63,.64-.6Z"/><path class="cls-19" d="M397.25,397.02c-.21,.24-.47,.44-.75,.59-.3,.18-.61,.33-.94,.45-.2,.09-.4,.15-.61,.18-.13,.01-.26-.02-.37-.09-.11-.09-.16-.25-.12-.39,.36-.75,1.19-1.14,2-.94,.23,.05,.45,.16,.64,.3,.13,.11,.19,.18,.18,.19-.26-.17-.55-.3-.85-.37-.33-.07-.68-.04-1,.09-.37,.13-.68,.41-.85,.77,0,.18,.11,.29,.31,.26,.19-.04,.38-.09,.56-.15,.32-.12,.63-.26,.94-.41,.56-.28,.84-.51,.86-.48Z"/><path class="cls-19" d="M397.09,397.21s-.27-.09-.5-.45c-.13-.22-.21-.47-.23-.72-.04-.32,.08-.65,.32-.87,.19-.1,.41-.02,.51,.16,.08,.13,.13,.28,.14,.44,.03,.24,.03,.49,0,.73,0,.23-.07,.45-.19,.65,0,0,0-.26,.06-.66,.03-.23,.03-.47,0-.7,0-.24-.18-.58-.39-.46-.19,.19-.28,.45-.24,.71,0,.23,.07,.45,.17,.65,.1,.18,.22,.36,.35,.52Z"/><path class="cls-19" d="M409.11,386.42s-.36,.23-.83,.71c-1.28,1.27-1.72,3.16-1.14,4.86,.22,.64,.47,1,.44,1s-.08-.07-.19-.23c-.14-.23-.27-.48-.37-.73-.32-.86-.39-1.79-.19-2.68,.21-.89,.68-1.7,1.36-2.32,.2-.19,.42-.35,.65-.49,.08-.05,.17-.1,.27-.12Z"/><path class="cls-19" d="M404.06,382.51c.71,.74,1.38,1.51,2,2.32,1.06,1.32,1.89,2.41,1.86,2.44-.71-.73-1.38-1.51-2-2.32-.67-.77-1.29-1.59-1.86-2.44Z"/><path class="cls-19" d="M405.24,393.11c-.45,.58-.98,1.09-1.57,1.52-.55,.48-1.16,.89-1.81,1.21,0,0,.77-.6,1.7-1.36s1.65-1.41,1.68-1.37Z"/><path class="cls-19" d="M407.53,391.29s.07,.21,.13,.45,.14,.43,.1,.46-.21-.14-.28-.42,.01-.5,.05-.49Z"/><path class="cls-19" d="M407.55,389.54s.07,.18,0,.4-.08,.39-.13,.39-.07-.19-.05-.41,.13-.39,.18-.38Z"/><path class="cls-19" d="M408.39,388.07s-.13,.17-.25,.36-.18,.39-.23,.38-.08-.24,.07-.48,.4-.31,.41-.26Z"/><path class="cls-19" d="M409.09,387.14v.25c0,.11-.16,.19-.2,.17s0-.14,0-.26,.16-.18,.2-.16Z"/><g class="cls-10"><polygon points="408.85 386.12 397.02 395.16 395.93 393.73 408.36 385.31 408.85 386.12"/></g><path class="cls-16" d="M344.11,402.53v-7.95l14.9-.06,.09,11.64-.93,.06c-4.11,.25-20.91,.95-23.66,.13-3.05-.92,9.6-3.82,9.6-3.82Z"/><g class="cls-8"><path class="cls-1" d="M337.93,404.17s-4.44,1.29-3.88,2,17.57,.66,25.07,0v-.33l-19.84,.25s-.49-1.89-1.35-1.92Z"/></g><path class="cls-19" d="M359.33,405.82h-1l-2.7,.13c-2.29,.09-5.45,.18-8.94,.2s-6.66,0-8.95-.11l-2.7-.1h2.71c2.28,0,5.45,.07,8.94,.06s6.65-.09,8.93-.15l2.71-.07h1v.04Z"/><path class="cls-19" d="M339.26,406.31c-.12-.45-.3-.88-.52-1.29-.27-.37-.57-.7-.92-1,.46,.17,.85,.5,1.08,.94,.28,.39,.41,.87,.36,1.35Z"/><path class="cls-19" d="M343.64,404.06s-.25-.23-.47-.57-.36-.64-.32-.66,.25,.22,.47,.57,.36,.64,.32,.66Z"/><path class="cls-19" d="M344.85,403.42s-.27-.12-.53-.35-.44-.44-.41-.48,.27,.12,.53,.35,.44,.44,.41,.48Z"/><path class="cls-19" d="M345.6,402.01c-.24,.09-.51,.13-.77,.1-.26,.04-.53,0-.78-.08,.25-.09,.51-.12,.77-.1,.26-.03,.53,0,.78,.08Z"/><path class="cls-19" d="M345.86,401.02c-.26,.17-.56,.25-.87,.25-.3,.05-.61,.02-.89-.11,.29-.05,.59-.07,.88-.07,.29-.05,.59-.07,.88-.07Z"/><path class="cls-19" d="M343.13,402.77c-.33,.06-.67,.06-1,0-.34-.04-.67-.11-1-.22-.2-.05-.4-.13-.58-.23-.11-.07-.2-.17-.24-.3-.03-.15,.03-.29,.15-.38,.75-.37,1.66-.16,2.17,.5,.15,.19,.25,.41,.31,.64,.02,.09,.02,.17,0,.26-.1-.3-.25-.57-.44-.82-.22-.25-.5-.43-.82-.53-.38-.13-.79-.09-1.14,.09-.15,.11-.09,.29,.08,.39,.17,.1,.35,.17,.54,.22,.33,.12,.66,.2,1,.26,.63,.09,.97,.09,.97,.12Z"/><path class="cls-19" d="M342.88,402.81c-.11-.2-.15-.43-.11-.66,.03-.25,.12-.49,.26-.7,.17-.28,.46-.47,.79-.49,.2,.03,.34,.23,.3,.43h0c-.02,.17-.08,.31-.16,.44-.12,.21-.28,.41-.45,.58-.3,.29-.53,.41-.55,.39s.19-.17,.46-.48c.15-.18,.29-.37,.4-.57,.13-.21,.21-.57,0-.61s-.48,.21-.62,.4c-.14,.19-.23,.4-.27,.63-.03,.21-.04,.43-.05,.64Z"/><path class="cls-19" d="M359,401.74h-1.1c-.87,.11-1.7,.46-2.39,1-.69,.56-1.2,1.29-1.49,2.13-.11,.35-.21,.71-.28,1.07-.02-.1-.02-.2,0-.3,.02-.27,.07-.55,.15-.81,.27-.87,.8-1.65,1.5-2.23,.71-.58,1.59-.93,2.5-1,.27-.03,.55-.03,.82,0,.11,.02,.21,.07,.29,.14Z"/><path class="cls-19" d="M357.43,395.55c.11,1.02,.16,2.04,.15,3.06,.06,1.02,.06,2.04,0,3.06-.11-1.02-.16-2.04-.14-3.06-.06-1.02-.06-2.04,0-3.06Z"/><path class="cls-19" d="M351.79,404.61c-.71,.17-1.44,.24-2.17,.22-.73,.04-1.46-.02-2.18-.16,0-.05,1,0,2.18,0s2.17-.06,2.17-.06Z"/><path class="cls-19" d="M354.79,404.61s-.07,.21-.17,.43-.16,.42-.21,.42-.07-.24,0-.49,.31-.36,.38-.36Z"/><path class="cls-19" d="M355.85,403.23s-.06,.19-.21,.34-.31,.26-.35,.23,.06-.2,.22-.35,.28-.26,.34-.22Z"/><path class="cls-19" d="M357.42,402.61s-.21,0-.43,.13-.37,.2-.41,.16,.08-.24,.36-.33,.5-.02,.48,.04Z"/><path class="cls-19" d="M358.54,402.29s-.07,.13-.19,.18-.24,.05-.26,0,.07-.12,.19-.17,.24-.05,.26,0Z"/><g class="cls-10"><polygon points="359.12 401.14 344.1 401.16 344.11 399.36 359.06 399.27 359.12 401.14"/></g><path class="cls-11" d="M380.88,265.25l-6,18c-1.61,4.85-5.85,5.68-11,5.68h-33.09v-7.44l30.32-4.33,7.22-18.46,12.55,6.55Z"/><path class="cls-11" d="M327.12,279.9l-2.63-1.24s-2.84-5.49-3.49-5.27-.85,1.83,.29,4.36l-3.49-1s-7.59,3.5-7.25,4c.38,.89,1.41,1.3,2.3,.92,.11-.05,.22-.11,.31-.17,1.65-.85,3.81-1.84,3.81-1.84l4.09,1.17-5.27,.67-5,4.51c.9,.67,2.14,.63,3-.08l13,2.74,4,.22v-7.44l-3.67-1.55Z"/><path class="cls-4" d="M313.86,285.9c.06,0,.3-.34,.76-.85,.27-.29,.59-.53,.94-.72,.44-.21,.91-.33,1.39-.37,1.31-.08,2.6-.3,3.86-.66-1.31-.04-2.62,.04-3.91,.26-.54,.04-1.06,.2-1.53,.45-.39,.22-.73,.51-1,.86-.25,.3-.42,.65-.51,1.03Z"/><path class="cls-4" d="M315.88,286.42s.09-.27,.45-.35,.95-.13,1.56-.19c.76-.01,1.51-.09,2.26-.23-.74-.26-1.53-.32-2.3-.18-.55,.05-1.1,.16-1.62,.34-.18,.07-.33,.21-.39,.4-.05,.14,0,.21,.04,.21Z"/><path class="cls-16" d="M383.69,261.33l-2.55,8.65-16.2-7.37c.59-1.81,3.27-9.87,8.39-22.66,2.85-7.14,9.21-12.27,16.79-13.54,5.12-.93,10.31-1.43,15.51-1.52,9.09,.1,22.46,5.78,24.25,14.68,1.38,6.8,.05,18.8,.05,33.38l-1.14,27.89-46.55,1.57,1.45-41.08Z"/><g class="cls-10"><path d="M429.88,266.53c-5.66,1.16-11.48,0-17.25-.35-3.5-.21-7.38-.59-10.15,1.56-2.19,1.71-3.07,4.58-3.71,7.28-2.41,10.32-2.85,17.23-3.39,27.81l28,1.7,6.5-38Z"/></g><path class="cls-19" d="M382.5,231.1s.47,.07,1.24,.37c1.07,.47,2,1.22,2.68,2.17,.99,1.43,1.55,3.11,1.6,4.85,.06,2.14-.1,4.28-.49,6.38-.66,3.85-1.53,7.66-2.6,11.41-.38,1.4-.7,2.55-.94,3.43-.14,.41-.24,.84-.3,1.27,.19-.4,.34-.81,.45-1.23,.26-.8,.63-1.95,1.06-3.39,1.17-3.74,2.08-7.56,2.73-11.43,.39-2.13,.55-4.3,.46-6.47-.08-1.8-.68-3.54-1.74-5-.73-.97-1.72-1.72-2.86-2.15-.31-.1-.63-.18-.95-.22-.22,0-.34,0-.34,.01Z"/><path class="cls-19" d="M365.45,260.44c.72,.5,1.49,.94,2.28,1.31,1.44,.75,3.45,1.74,5.71,2.76s4.34,1.87,5.86,2.45c.8,.36,1.64,.64,2.49,.84-.77-.42-1.57-.79-2.39-1.1-1.48-.65-3.54-1.54-5.79-2.56s-4.28-2-5.75-2.65c-.78-.41-1.58-.76-2.41-1.05Z"/><path class="cls-19" d="M358.03,304.53c-7.93,4.33-10.94,14.21-6.77,22.22l40.53,69.56,18.69-11.29-31.46-62.8,22.77-14.89"/><path class="cls-19" d="M407.36,301.08l-55.62,2c-9.03,.32-16.14,7.81-16,16.84l2.31,79.43h23.39l-.78-75.1,46.7-1.23v-21.94Z"/><path class="cls-6" d="M360.66,326.88c.05,.24,.07,.49,.07,.74,0,.53,.03,1.23,.09,2.1,.07,1.83,.14,4.48,.21,7.76,.14,6.55,.23,15.6,.28,25.59s.1,19,.13,25.59c0,3.24,0,5.87,.05,7.76v2.11c.02,.25,.02,.49,0,.74-.05-.24-.07-.49-.07-.74,0-.53-.05-1.23-.09-2.11-.07-1.83-.14-4.48-.21-7.75-.14-6.55-.23-15.6-.28-25.6s-.1-19-.13-25.59v-9.87c-.04-.24-.06-.49-.05-.73Z"/><path class="cls-9" d="M431.45,250.68h-16.83c-6.77,0-12.26,5.49-12.26,12.26h0v58.67h-33.57c-4.69,0-8.49,3.8-8.49,8.49h76.75c3.75-.16,6.71-3.24,6.71-7v-60.16c0-6.77-5.49-12.26-12.26-12.26h-.05Z"/><path class="cls-19" d="M407.25,252.61c.14,0,.26,17.25,.26,38.53s-.12,38.53-.26,38.53-.26-17.25-.26-38.53,.12-38.53,.26-38.53Z"/><path class="cls-9" d="M405.12,391.75v-61.58h-5.47v61.58c-3.34,6.58-11.19,11-20.75,14.68h48.76c-9.87-4.02-18.87-7.11-22.54-14.68Z"/></g><g id="freepik--Plant--inject-57"><path class="cls-19" d="M97.06,383.77l.16-.36,.49-1.05c.59-1.35,1.07-2.75,1.44-4.18,1.15-5.33,1.1-10.84-.13-16.15-.77-3.68-1.77-7.3-3-10.85-1.27-3.85-2.74-7.93-4-12.35-1.36-4.61-2.01-9.4-1.94-14.2,.18-5,1.67-10,3.3-15s3.32-9.88,3.83-14.8c.56-4.73-.39-9.52-2.72-13.67-2.16-4-4.88-7.4-6.92-10.93-1.91-3.28-3.31-6.82-4.17-10.51-1.22-5.35-1.31-10.89-.26-16.28,.37-1.97,.94-3.89,1.7-5.75-.02,.13-.06,.26-.1,.38-.09,.27-.2,.63-.35,1.1-.41,1.42-.74,2.85-1,4.3-.98,5.35-.84,10.84,.4,16.14,.87,3.65,2.28,7.15,4.18,10.38,2,3.49,4.77,6.89,7,10.93,2.39,4.23,3.37,9.11,2.8,13.94-.51,5-2.21,9.92-3.84,14.91s-3.1,10-3.29,14.89c-.07,4.76,.57,9.49,1.9,14.06,1.19,4.39,2.64,8.48,3.9,12.34,1.22,3.57,2.2,7.21,2.94,10.91,1.22,5.35,1.22,10.92,0,16.27-.4,1.44-.93,2.83-1.59,4.17-.23,.43-.4,.77-.54,1-.05,.13-.11,.25-.19,.36Z"/><path class="cls-16" d="M90.4,273.68s-4.14-13.23,3.28-21c.17-.19,.46-.2,.65-.02,.07,.07,.12,.16,.14,.25,.39,2.2,.89,8.86-4.07,20.77Z"/><path class="cls-19" d="M92.88,257.11c-.01,.82-.11,1.64-.28,2.44-.28,1.68-.6,3.66-1,5.84s-.66,4.16-.92,5.84c-.08,.81-.22,1.62-.44,2.41-.08-.82-.05-1.65,.07-2.46,.14-1.51,.4-3.59,.78-5.87s.77-4.34,1.1-5.83c.13-.82,.36-1.61,.69-2.37Z"/><path class="cls-16" d="M95.26,304.9s2.53-13.63,12.72-17c.23-.09,.49,.03,.58,.27,.04,.1,.04,.2,0,.3-.67,2.14-3.34,8.22-13.3,16.43Z"/><path class="cls-19" d="M105.2,291.41c-.39,.71-.86,1.38-1.39,2l-3.56,4.72-3.55,4.72c-.44,.69-.95,1.34-1.52,1.93,.32-.76,.73-1.48,1.22-2.14,.83-1.27,2-3,3.43-4.83s2.72-3.47,3.69-4.63c.49-.65,1.05-1.25,1.68-1.77Z"/><path class="cls-16" d="M92.5,339.1s-1.53-13.78,7.23-20c.21-.15,.49-.1,.64,.1,.06,.08,.09,.18,.09,.28-.03,2.25-.81,8.88-7.96,19.62Z"/><path class="cls-19" d="M98.1,323.31c-.17,.8-.41,1.59-.74,2.34l-2,5.55c-.76,2.08-1.44,4-2,5.56-.23,.78-.53,1.55-.89,2.28,.08-.82,.26-1.63,.54-2.4,.42-1.46,1.08-3.45,1.88-5.62s1.59-4.11,2.19-5.5c.25-.77,.6-1.52,1.02-2.21Z"/><path class="cls-16" d="M100.18,373.51s-1-13.83,7.94-19.7c.2-.14,.48-.1,.63,.11,.06,.09,.09,.19,.08,.29-.11,2.22-1.13,8.81-8.65,19.3Z"/><path class="cls-19" d="M106.34,357.92c-.2,.8-.48,1.58-.83,2.32-.64,1.58-1.4,3.43-2.23,5.47s-1.59,3.9-2.23,5.48c-.26,.78-.59,1.53-1,2.25,.12-.81,.33-1.61,.63-2.38,.47-1.44,1.2-3.4,2.09-5.54s1.73-4.06,2.38-5.43c.31-.77,.71-1.49,1.19-2.17Z"/><path class="cls-16" d="M84.45,262.06s-12.29-6.45-12.54-17.15c-.01-.25,.18-.47,.44-.48,.1,0,.2,.02,.28,.08,1.83,1.26,6.89,5.62,11.82,17.55Z"/><path class="cls-19" d="M74.47,248.61c.57,.59,1.09,1.24,1.53,1.93l3.46,4.79,3.48,4.78c.53,.62,1,1.29,1.4,2-.64-.52-1.2-1.13-1.69-1.79-1-1.16-2.26-2.82-3.61-4.7s-2.52-3.61-3.34-4.89c-.49-.66-.9-1.37-1.23-2.12Z"/><path class="cls-16" d="M97.65,290.48s-12.66-5.66-13.55-16.36c-.03-.25,.15-.47,.4-.5,.1-.01,.21,.01,.29,.07,1.9,1.15,7.21,5.18,12.86,16.79Z"/><path class="cls-19" d="M86.87,277.61c.61,.55,1.15,1.16,1.64,1.82l3.75,4.58c1.41,1.7,2.68,3.24,3.76,4.56,.56,.59,1.07,1.23,1.52,1.92-.66-.49-1.26-1.05-1.79-1.68-1-1.1-2.43-2.68-3.89-4.48s-2.74-3.45-3.64-4.67c-.53-.63-.98-1.32-1.35-2.05Z"/><path class="cls-16" d="M90.36,322.19s-8.69-10.81-4.61-20.74c.09-.23,.35-.35,.58-.26,.1,.04,.18,.1,.23,.19,1.17,1.89,4.07,7.9,3.8,20.81Z"/><path class="cls-19" d="M86.61,305.85c.29,.77,.5,1.57,.63,2.38,.37,1.66,.79,3.62,1.26,5.78s.9,4.1,1.27,5.77c.23,.79,.4,1.59,.48,2.41-.38-.73-.66-1.51-.83-2.32-.43-1.46-.94-3.49-1.43-5.76s-.87-4.32-1.11-5.81c-.18-.8-.27-1.63-.27-2.45Z"/><path class="cls-16" d="M98.97,359.5s-12.56-5.89-13.27-16.59c-.02-.25,.18-.47,.43-.49,.09,0,.19,.02,.27,.07,1.88,1.18,7.13,5.3,12.57,17.01Z"/><path class="cls-19" d="M88.41,346.48c.6,.57,1.13,1.19,1.61,1.86l3.68,4.63c1.37,1.73,2.62,3.29,3.68,4.62,.55,.62,1.05,1.29,1.49,2-.65-.5-1.25-1.08-1.77-1.72-1-1.12-2.38-2.72-3.81-4.54s-2.68-3.49-3.56-4.73c-.52-.65-.96-1.36-1.32-2.12Z"/><path class="cls-19" d="M123.99,304.97v1.2c-.04,.83-.09,1.95-.15,3.36-.16,3-.39,7.08-.66,12h0c-.9,5-3.45,10.57-6.89,16-2.52,4-5.15,7.6-7.43,11-2.07,2.94-3.93,6.02-5.57,9.22-1.08,2.17-1.95,4.43-2.61,6.76-.22,.83-.39,1.47-.48,1.91-.04,.23-.11,.45-.19,.67,0-.23,.03-.46,.08-.69,.07-.45,.2-1.1,.39-1.94,.59-2.37,1.42-4.67,2.48-6.87,1.6-3.24,3.44-6.35,5.5-9.32,2.26-3.39,4.89-7,7.39-11,3.42-5.37,6-10.85,6.89-15.79h0c.34-4.93,.63-9,.84-12,.11-1.4,.2-2.52,.27-3.35,0-.35,.07-.64,.09-.88,0-.1,.02-.19,.05-.28Z"/><path class="cls-16" d="M116.51,336.51s5.32-12.8-1.37-21.19c-.15-.2-.43-.25-.63-.1-.08,.06-.15,.15-.17,.25-.55,2.14-1.69,8.73,2.17,21.04Z"/><path class="cls-19" d="M115.55,319.78c.23,.79,.37,1.6,.42,2.42,.19,1.51,.4,3.59,.56,5.9s.25,4.41,.24,5.92c.05,.82,0,1.65-.14,2.46-.15-.8-.23-1.62-.22-2.44-.12-1.7-.25-3.7-.4-5.9s-.29-4.2-.41-5.9c-.1-.82-.12-1.64-.05-2.46Z"/><g class="cls-10"><path d="M116.51,336.51s5.32-12.8-1.37-21.19c-.15-.2-.43-.25-.63-.1-.08,.06-.15,.15-.17,.25-.55,2.14-1.69,8.73,2.17,21.04Z"/></g><path class="cls-16" d="M100.04,367.37s4.26-13.19-3.09-21c-.17-.19-.46-.2-.65-.03-.07,.07-.12,.15-.14,.25-.37,2.17-.98,8.82,3.88,20.78Z"/><path class="cls-19" d="M97.71,350.78c.3,.77,.51,1.57,.62,2.38,.31,1.48,.69,3.54,1,5.83s.6,4.37,.72,5.88c.1,.82,.1,1.64,0,2.46-.21-.79-.35-1.6-.41-2.42-.25-1.68-.55-3.66-.87-5.84s-.63-4.17-.89-5.85c-.14-.81-.2-1.62-.17-2.44Z"/><g class="cls-10"><path d="M100.04,367.37s4.26-13.19-3.09-21c-.17-.19-.46-.2-.65-.03-.07,.07-.12,.15-.14,.25-.37,2.17-.98,8.82,3.88,20.78Z"/></g><path class="cls-16" d="M123.29,320.86s11.36-7.95,10.21-18.62c-.03-.25-.25-.44-.5-.41-.09,0-.18,.05-.26,.11-1.65,1.49-6.1,6.46-9.45,18.92Z"/><g class="cls-10"><path d="M123.29,320.86s11.36-7.95,10.21-18.62c-.03-.25-.25-.44-.5-.41-.09,0-.18,.05-.26,.11-1.65,1.49-6.1,6.46-9.45,18.92Z"/></g><path class="cls-19" d="M131.45,306.22c-.23,.79-.55,1.55-.95,2.27-.64,1.37-1.58,3.25-2.68,5.28s-2.16,3.85-3,5.13c-.39,.73-.88,1.4-1.44,2,.32-.76,.69-1.49,1.13-2.18,.82-1.49,1.77-3.24,2.83-5.18s2-3.7,2.82-5.2c.35-.75,.79-1.46,1.29-2.12Z"/><path class="cls-16" d="M104.62,354.29s13.7-2.14,17.37-12.22c.09-.24-.03-.5-.26-.6-.09-.04-.19-.04-.29-.01-2.14,.62-8.33,3.15-16.82,12.83Z"/><g class="cls-10"><path d="M104.62,354.29s13.7-2.14,17.37-12.22c.09-.24-.03-.5-.26-.6-.09-.04-.19-.04-.29-.01-2.14,.62-8.33,3.15-16.82,12.83Z"/></g><path class="cls-19" d="M118.39,344.74c-.55,.61-1.17,1.16-1.85,1.63-1.18,.94-2.85,2.21-4.74,3.55s-3.63,2.5-4.92,3.3c-.68,.47-1.41,.86-2.18,1.15,.62-.55,1.29-1.04,2-1.46l4.82-3.41,4.82-3.43c.64-.51,1.33-.95,2.05-1.33Z"/><polygon class="cls-9" points="91.55 379.51 87.55 406.41 112.46 406.41 109.23 379.51 91.55 379.51"/><path class="cls-19" d="M110.22,387.84c-3.33,.26-6.66,.35-10,.26-3.34,.09-6.67,0-10-.26,3.33-.26,6.66-.34,10-.26,3.34-.08,6.67,0,10,.26Z"/><path class="cls-19" d="M110.72,389.98c-3.45,.26-6.92,.35-10.38,.26-3.46,.09-6.92,0-10.37-.26,0-.14,4.64-.26,10.37-.26s10.38,.12,10.38,.26Z"/></g></g></g></svg>