<svg xmlns="http://www.w3.org/2000/svg" width="459.813" height="480.354" viewBox="0 0 459.813 480.354">
  <g id="Project_Stages-pana" data-name="Project Stages-pana" transform="translate(-26.324 -25.48)">
    <g id="freepik--background-complete--inject-82" transform="translate(26.324 25.48)">
      <path id="Path_5650" data-name="Path 5650" d="M184.812,134.535a28.155,28.155,0,0,0,1.387-4.14,17.139,17.139,0,0,0,.357-5.086,17.612,17.612,0,0,0-15.426-16.277,16.613,16.613,0,0,0-5.044.105,16.193,16.193,0,0,0-4.991,1.639,17.465,17.465,0,0,0-9.457,18.463,19.427,19.427,0,0,0,.609,2.6,21.231,21.231,0,0,0,1.051,2.417,16.51,16.51,0,0,0,2.869,4.2,17.643,17.643,0,0,0,22.162,2.911,17.288,17.288,0,0,0,3.909-3.279,26.7,26.7,0,0,0,2.543-3.552,1.053,1.053,0,0,1-.116.273l-.4.746a8,8,0,0,1-.725,1.177,14.33,14.33,0,0,1-1.145,1.5,16.814,16.814,0,0,1-3.909,3.394,17.932,17.932,0,0,1-22.75-2.879,17.035,17.035,0,0,1-2.963-4.256,16.4,16.4,0,0,1-1.671-5.16,17.969,17.969,0,0,1,9.72-19.03,20.422,20.422,0,0,1,2.533-1.051,21.014,21.014,0,0,1,2.617-.62,16.907,16.907,0,0,1,5.191-.095,17.935,17.935,0,0,1,15.668,16.75,16.52,16.52,0,0,1-.462,5.149,11.291,11.291,0,0,1-.546,1.807,7.876,7.876,0,0,1-.515,1.282l-.378.767C184.875,134.461,184.823,134.545,184.812,134.535Z" transform="translate(-19.995 -21.266)" fill="#e0e0e0"/>
      <path id="Path_5651" data-name="Path 5651" d="M172.8,141.84c.147,0,1.913,5.023,3.962,11.317s3.573,11.443,3.426,11.486-1.913-5.023-3.951-11.317S172.664,141.893,172.8,141.84Z" transform="translate(-18.88 -19.566)" fill="#e0e0e0"/>
      <path id="Path_5652" data-name="Path 5652" d="M365.243,59.981a3.053,3.053,0,0,1-.052-.4,6.565,6.565,0,0,0-.084-1.177,5.16,5.16,0,0,0-.053-.872c-.052-.315-.105-.662-.158-1.051a19.563,19.563,0,0,0-.525-2.564,23.685,23.685,0,0,0-2.764-6.568,24.642,24.642,0,0,0-29.6-10.508,26.124,26.124,0,0,0-3.205,1.419,27.122,27.122,0,0,0-3.016,2A28.2,28.2,0,0,0,323,42.632a27.553,27.553,0,0,0-2.417,2.858,23.673,23.673,0,0,0-3.5,6.725,26.27,26.27,0,0,0-1.272,7.766,25.893,25.893,0,0,0,1.271,7.755,23.589,23.589,0,0,0,3.51,6.778A28.829,28.829,0,0,0,323,77.372a29.584,29.584,0,0,0,2.8,2.375,25.7,25.7,0,0,0,3.016,1.934,26.126,26.126,0,0,0,3.205,1.419,24.7,24.7,0,0,0,29.6-10.508,23.865,23.865,0,0,0,2.753-6.568,19.786,19.786,0,0,0,.525-2.554c.053-.378.126-.725.158-1.051s0-.609.053-.872c0-.494.063-.883.084-1.177a3.053,3.053,0,0,1,.053-.4,1.923,1.923,0,0,1,0,.4c0,.294,0,.683,0,1.187v.872a8.5,8.5,0,0,1-.137,1.051,18.157,18.157,0,0,1-.483,2.585,23.183,23.183,0,0,1-2.711,6.673,24.929,24.929,0,0,1-29.991,10.8,27.18,27.18,0,0,1-3.279-1.429,27.763,27.763,0,0,1-5.927-4.392,27.429,27.429,0,0,1-2.469-2.9,24.58,24.58,0,0,1-3.594-6.914,24.831,24.831,0,0,1,0-15.846,24.043,24.043,0,0,1,3.583-6.914,27.322,27.322,0,0,1,2.459-2.9,27.763,27.763,0,0,1,5.927-4.392,27.175,27.175,0,0,1,3.279-1.429,24.91,24.91,0,0,1,29.98,10.813,23.116,23.116,0,0,1,2.68,6.683,18,18,0,0,1,.483,2.6c.053.378.116.725.137,1.051s0,.609,0,.872v1.187A1.923,1.923,0,0,1,365.243,59.981Z" transform="translate(-11.634 -24.999)" fill="#ebebeb"/>
      <path id="Path_5653" data-name="Path 5653" d="M357.578,59.624a28.1,28.1,0,0,0-.641-4.256,16.572,16.572,0,0,0-1.965-4.624,17.349,17.349,0,0,0-20.827-7.356,16.351,16.351,0,0,0-4.371,2.354,19.554,19.554,0,0,0-1.955,1.671,17.276,17.276,0,0,0-1.7,22.435,18.458,18.458,0,0,0,1.7,2.007,19.532,19.532,0,0,0,1.955,1.671,16.066,16.066,0,0,0,4.371,2.354,17.339,17.339,0,0,0,16.4-2.448,17.591,17.591,0,0,0,4.434-4.918,16.7,16.7,0,0,0,1.955-4.624,28.1,28.1,0,0,0,.641-4.2,1.158,1.158,0,0,1,0,.284v.841a7.654,7.654,0,0,1-.116,1.356A11.56,11.56,0,0,1,357.127,64a16.275,16.275,0,0,1-1.9,4.718,17.654,17.654,0,0,1-11.906,8.407,17.864,17.864,0,0,1-9.331-.736,16.739,16.739,0,0,1-4.508-2.417,15.983,15.983,0,0,1-3.762-3.762,17.686,17.686,0,0,1,0-21.017,19.3,19.3,0,0,1,1.744-2.049,20.478,20.478,0,0,1,2.018-1.713,16.739,16.739,0,0,1,4.508-2.417,17.662,17.662,0,0,1,21.237,7.671,16.276,16.276,0,0,1,1.9,4.718,13.469,13.469,0,0,1,.336,1.828,7.657,7.657,0,0,1,.116,1.356v.841a1.157,1.157,0,0,1,0,.2Z" transform="translate(-11.283 -24.642)" fill="#ebebeb"/>
      <path id="Path_5654" data-name="Path 5654" d="M338.942,47.626c-.137,0-.252-4.8-.252-10.708s.116-10.718.252-10.718.263,4.8.263,10.718S339.089,47.626,338.942,47.626Z" transform="translate(-10.448 -25.443)" fill="#ebebeb"/>
      <path id="Path_5655" data-name="Path 5655" d="M338.942,89.746c-.137,0-.252-4.792-.252-10.708s.116-10.708.252-10.708.263,4.792.263,10.708S339.089,89.746,338.942,89.746Z" transform="translate(-10.448 -23.302)" fill="#ebebeb"/>
      <path id="Path_5656" data-name="Path 5656" d="M331.405,58.782c0,.147-4.792.263-10.708.263s-10.7-.116-10.7-.263,4.792-.252,10.708-.252S331.405,58.646,331.405,58.782Z" transform="translate(-11.906 -23.8)" fill="#ebebeb"/>
      <path id="Path_5657" data-name="Path 5657" d="M368.916,58.782c0,.147-4.8.263-10.718.263s-10.708-.116-10.708-.263,4.792-.252,10.708-.252S368.916,58.646,368.916,58.782Z" transform="translate(-10.001 -23.8)" fill="#ebebeb"/>
      <path id="Path_5658" data-name="Path 5658" d="M326.206,25.732a8.175,8.175,0,0,1-1.576.105l-4.287.084c-3.636,0-8.648.074-14.176.074h-.294l.252-.263c0,5.475,0,10.414-.074,13.986,0,1.713-.063,3.152-.084,4.2a10.3,10.3,0,0,1-.095,1.555,8.048,8.048,0,0,1-.105-1.555c0-1.051,0-2.511-.074-4.2-.053-3.573-.084-8.512-.084-13.986V25.48h.557c5.527,0,10.508,0,14.176.074l4.287.084a10.509,10.509,0,0,1,1.576.095Z" transform="translate(-12.129 -25.48)" fill="#ebebeb"/>
      <path id="Path_5659" data-name="Path 5659" d="M306.142,68.84a8.3,8.3,0,0,1,.105,1.576c0,1.051,0,2.554.084,4.3,0,3.625.074,8.638.074,14.176v.294l-.263-.263c5.475,0,10.414,0,13.986.084l4.2.074a8.047,8.047,0,0,1,1.555.105,10.3,10.3,0,0,1-1.555.095l-4.2.084c-3.573,0-8.512.074-13.986.074h-.252V88.89c0-5.538,0-10.508.074-14.176,0-1.744.063-3.152.084-4.3A10.626,10.626,0,0,1,306.142,68.84Z" transform="translate(-12.115 -23.276)" fill="#ebebeb"/>
      <path id="Path_5660" data-name="Path 5660" d="M350.29,89.155a8.174,8.174,0,0,1,1.576-.105l4.287-.084c3.636,0,8.648-.074,14.176-.074h.294l-.252.263c0-5.475,0-10.414.074-13.986,0-1.713.063-3.152.084-4.2a10.305,10.305,0,0,1,.095-1.555,8.052,8.052,0,0,1,.105,1.555c0,1.051,0,2.511.074,4.2.053,3.573.084,8.512.084,13.986v.252h-.557c-5.527,0-10.508,0-14.176-.074l-4.287-.084A10.51,10.51,0,0,1,350.29,89.155Z" transform="translate(-9.859 -23.247)" fill="#ebebeb"/>
      <path id="Path_5661" data-name="Path 5661" d="M370.325,46.076a8.3,8.3,0,0,1-.105-1.576c0-1.051,0-2.554-.084-4.3,0-3.625-.074-8.638-.074-14.176v-.294l.263.263c-5.475,0-10.414,0-13.986-.074l-4.2-.084a8.05,8.05,0,0,1-1.555-.105,10.3,10.3,0,0,1,1.555-.095l4.2-.084c3.573,0,8.512-.074,13.986-.074h.252v.546c0,5.538,0,10.508-.074,14.176,0,1.744-.063,3.152-.084,4.3A10.634,10.634,0,0,1,370.325,46.076Z" transform="translate(-9.844 -25.48)" fill="#ebebeb"/>
      <rect id="Rectangle_598" data-name="Rectangle 598" width="6" height="371.772" transform="translate(379.701 106.585)" fill="#e0e0e0"/>
      <rect id="Rectangle_599" data-name="Rectangle 599" width="6" height="371.614" transform="translate(443.454 106.312)" fill="#e0e0e0"/>
      <rect id="Rectangle_600" data-name="Rectangle 600" width="67.421" height="4.645" transform="translate(379.701 106.585)" fill="#e0e0e0"/>
      <rect id="Rectangle_601" data-name="Rectangle 601" width="69.754" height="4.645" transform="translate(379.701 188.445)" fill="#e0e0e0"/>
      <rect id="Rectangle_602" data-name="Rectangle 602" width="69.102" height="4.645" transform="translate(379.701 372.444)" fill="#e0e0e0"/>
      <rect id="Rectangle_603" data-name="Rectangle 603" width="109.37" height="4.645" transform="matrix(0.589, -0.808, 0.808, 0.589, 381.352, 375.268)" fill="#e0e0e0"/>
      <rect id="Rectangle_604" data-name="Rectangle 604" width="115.002" height="4.645" transform="translate(380.167 287.217) rotate(-55.58)" fill="#e0e0e0"/>
      <rect id="Rectangle_605" data-name="Rectangle 605" width="115.002" height="4.645" transform="translate(380.166 471.379) rotate(-55.58)" fill="#e0e0e0"/>
      <rect id="Rectangle_606" data-name="Rectangle 606" width="100.259" height="4.645" transform="matrix(0.641, -0.767, 0.767, 0.641, 381.617, 186.348)" fill="#e0e0e0"/>
      <rect id="Rectangle_607" data-name="Rectangle 607" width="69.754" height="4.645" transform="translate(379.701 285.183)" fill="#e0e0e0"/>
      <path id="Path_5662" data-name="Path 5662" d="M416.078,498.2c-.21,0-.378-82.605-.378-184.472s.168-184.483.378-184.483.378,82.584.378,184.483S416.289,498.2,416.078,498.2Z" transform="translate(-6.534 -20.206)" fill="#e0e0e0"/>
      <path id="Path_5663" data-name="Path 5663" d="M418.618,497.993c-.21,0-.378-81.964-.378-183.1s.168-183.117.378-183.117S419,213.744,419,314.9,418.828,497.993,418.618,497.993Z" transform="translate(-6.405 -20.077)" fill="#e0e0e0"/>
      <path id="Path_5664" data-name="Path 5664" d="M430.8,498.171c-.21,0-.378-82.017-.378-183.18s.168-183.211.378-183.211.378,82.017.378,183.211S431.03,498.171,430.8,498.171Z" transform="translate(-5.786 -20.077)" fill="#e0e0e0"/>
      <path id="Path_5665" data-name="Path 5665" d="M439.938,497.993c-.21,0-.378-81.964-.378-183.1s.168-183.117.378-183.117.378,81.964.378,183.117S440.148,497.993,439.938,497.993Z" transform="translate(-5.321 -20.077)" fill="#e0e0e0"/>
      <path id="Path_5666" data-name="Path 5666" d="M440.383,159.018c0,.21-2.1.378-4.792.378s-4.781-.168-4.781-.378,2.1-.378,4.781-.378S440.383,158.819,440.383,159.018Z" transform="translate(-5.766 -18.712)" fill="#e0e0e0"/>
      <path id="Path_5667" data-name="Path 5667" d="M440.383,151.4c0,.21-2.1.378-4.792.378s-4.781-.168-4.781-.378,2.1-.378,4.781-.378S440.383,151.188,440.383,151.4Z" transform="translate(-5.766 -19.099)" fill="#e0e0e0"/>
      <path id="Path_5668" data-name="Path 5668" d="M440.383,143.758c0,.21-2.1.378-4.792.378s-4.781-.168-4.781-.378,2.1-.378,4.781-.378S440.383,143.548,440.383,143.758Z" transform="translate(-5.766 -19.488)" fill="#e0e0e0"/>
      <path id="Path_5669" data-name="Path 5669" d="M440.383,136.118c0,.21-2.1.389-4.792.389s-4.781-.179-4.781-.389,2.1-.378,4.781-.378S440.383,135.919,440.383,136.118Z" transform="translate(-5.766 -19.876)" fill="#e0e0e0"/>
      <path id="Path_5670" data-name="Path 5670" d="M440.383,167.638c0,.21-2.1.378-4.792.378s-4.781-.168-4.781-.378,2.1-.378,4.781-.378S440.383,167.428,440.383,167.638Z" transform="translate(-5.766 -18.274)" fill="#e0e0e0"/>
      <path id="Path_5671" data-name="Path 5671" d="M440.383,176.248c0,.21-2.1.378-4.792.378s-4.781-.168-4.781-.378,2.1-.378,4.781-.378S440.383,176.007,440.383,176.248Z" transform="translate(-5.766 -17.836)" fill="#e0e0e0"/>
      <path id="Path_5672" data-name="Path 5672" d="M440.383,184.858c0,.21-2.1.378-4.792.378s-4.781-.168-4.781-.378,2.1-.378,4.781-.378S440.383,184.648,440.383,184.858Z" transform="translate(-5.766 -17.399)" fill="#e0e0e0"/>
      <path id="Path_5673" data-name="Path 5673" d="M440.383,193.468c0,.21-2.1.378-4.792.378s-4.781-.168-4.781-.378,2.1-.378,4.781-.378S440.383,193.258,440.383,193.468Z" transform="translate(-5.766 -16.961)" fill="#e0e0e0"/>
      <path id="Path_5674" data-name="Path 5674" d="M440.383,202.078c0,.21-2.1.378-4.792.378s-4.781-.168-4.781-.378,2.1-.378,4.781-.378S440.383,201.868,440.383,202.078Z" transform="translate(-5.766 -16.524)" fill="#e0e0e0"/>
      <path id="Path_5675" data-name="Path 5675" d="M440.383,210.689c0,.2-2.1.378-4.792.378s-4.781-.179-4.781-.378,2.1-.389,4.781-.389S440.383,210.479,440.383,210.689Z" transform="translate(-5.766 -16.086)" fill="#e0e0e0"/>
      <path id="Path_5676" data-name="Path 5676" d="M440.383,219.288c0,.21-2.1.378-4.792.378s-4.781-.168-4.781-.378,2.1-.378,4.781-.378S440.383,219.078,440.383,219.288Z" transform="translate(-5.766 -15.649)" fill="#e0e0e0"/>
      <path id="Path_5677" data-name="Path 5677" d="M440.383,227.9c0,.21-2.1.378-4.792.378s-4.781-.168-4.781-.378,2.1-.378,4.781-.378S440.383,227.688,440.383,227.9Z" transform="translate(-5.766 -15.211)" fill="#e0e0e0"/>
      <path id="Path_5678" data-name="Path 5678" d="M440.383,236.508c0,.21-2.1.378-4.792.378s-4.781-.168-4.781-.378,2.1-.378,4.781-.378S440.383,236.3,440.383,236.508Z" transform="translate(-5.766 -14.774)" fill="#e0e0e0"/>
      <path id="Path_5679" data-name="Path 5679" d="M440.383,245.118c0,.21-2.1.378-4.792.378s-4.781-.168-4.781-.378,2.1-.378,4.781-.378S440.383,244.908,440.383,245.118Z" transform="translate(-5.766 -14.336)" fill="#e0e0e0"/>
      <path id="Path_5680" data-name="Path 5680" d="M440.383,253.728c0,.21-2.1.378-4.792.378s-4.781-.168-4.781-.378,2.1-.378,4.781-.378S440.383,253.518,440.383,253.728Z" transform="translate(-5.766 -13.898)" fill="#e0e0e0"/>
      <path id="Path_5681" data-name="Path 5681" d="M440.383,262.338c0,.21-2.1.378-4.792.378s-4.781-.168-4.781-.378,2.1-.378,4.781-.378S440.383,262.128,440.383,262.338Z" transform="translate(-5.766 -13.461)" fill="#e0e0e0"/>
      <path id="Path_5682" data-name="Path 5682" d="M440.383,270.948c0,.21-2.1.378-4.792.378s-4.781-.168-4.781-.378,2.1-.378,4.781-.378S440.383,270.738,440.383,270.948Z" transform="translate(-5.766 -13.023)" fill="#e0e0e0"/>
      <path id="Path_5683" data-name="Path 5683" d="M440.383,279.559c0,.21-2.1.378-4.792.378s-4.781-.168-4.781-.378,2.1-.389,4.781-.389S440.383,279.349,440.383,279.559Z" transform="translate(-5.766 -12.586)" fill="#e0e0e0"/>
      <path id="Path_5684" data-name="Path 5684" d="M440.383,288.158c0,.21-2.1.389-4.792.389s-4.781-.179-4.781-.389,2.1-.378,4.781-.378A17.924,17.924,0,0,1,440.383,288.158Z" transform="translate(-5.766 -12.149)" fill="#e0e0e0"/>
      <path id="Path_5685" data-name="Path 5685" d="M440.383,296.768c0,.21-2.1.378-4.792.378s-4.781-.168-4.781-.378,2.1-.378,4.781-.378S440.383,296.558,440.383,296.768Z" transform="translate(-5.766 -11.711)" fill="#e0e0e0"/>
      <path id="Path_5686" data-name="Path 5686" d="M440.383,305.378c0,.21-2.1.378-4.792.378s-4.781-.168-4.781-.378,2.1-.378,4.781-.378S440.383,305.168,440.383,305.378Z" transform="translate(-5.766 -11.273)" fill="#e0e0e0"/>
      <path id="Path_5687" data-name="Path 5687" d="M440.383,314.018c0,.21-2.1.378-4.792.378s-4.781-.168-4.781-.378,2.1-.378,4.781-.378S440.383,313.777,440.383,314.018Z" transform="translate(-5.766 -10.834)" fill="#e0e0e0"/>
      <path id="Path_5688" data-name="Path 5688" d="M440.383,322.6c0,.21-2.1.378-4.792.378s-4.781-.168-4.781-.378,2.1-.378,4.781-.378S440.383,322.388,440.383,322.6Z" transform="translate(-5.766 -10.398)" fill="#e0e0e0"/>
      <path id="Path_5689" data-name="Path 5689" d="M440.383,331.208c0,.21-2.1.378-4.792.378s-4.781-.168-4.781-.378,2.1-.378,4.781-.378S440.383,331.009,440.383,331.208Z" transform="translate(-5.766 -9.96)" fill="#e0e0e0"/>
      <path id="Path_5690" data-name="Path 5690" d="M440.383,339.818c0,.21-2.1.378-4.792.378s-4.781-.168-4.781-.378,2.1-.378,4.781-.378S440.383,339.608,440.383,339.818Z" transform="translate(-5.766 -9.523)" fill="#e0e0e0"/>
      <path id="Path_5691" data-name="Path 5691" d="M440.383,348.428c0,.21-2.1.378-4.792.378s-4.781-.168-4.781-.378,2.1-.378,4.781-.378S440.383,348.218,440.383,348.428Z" transform="translate(-5.766 -9.085)" fill="#e0e0e0"/>
      <path id="Path_5692" data-name="Path 5692" d="M440.383,357.018c0,.21-2.1.389-4.792.389s-4.781-.179-4.781-.389,2.1-.378,4.781-.378S440.383,356.829,440.383,357.018Z" transform="translate(-5.766 -8.649)" fill="#e0e0e0"/>
      <path id="Path_5693" data-name="Path 5693" d="M440.383,365.638c0,.21-2.1.378-4.792.378s-4.781-.168-4.781-.378,2.1-.378,4.781-.378S440.383,365.428,440.383,365.638Z" transform="translate(-5.766 -8.211)" fill="#e0e0e0"/>
      <path id="Path_5694" data-name="Path 5694" d="M440.383,374.248c0,.21-2.1.378-4.792.378s-4.781-.168-4.781-.378,2.1-.378,4.781-.378S440.383,374.007,440.383,374.248Z" transform="translate(-5.766 -7.773)" fill="#e0e0e0"/>
      <path id="Path_5695" data-name="Path 5695" d="M440.383,382.858c0,.21-2.1.378-4.792.378s-4.781-.168-4.781-.378,2.1-.378,4.781-.378S440.383,382.648,440.383,382.858Z" transform="translate(-5.766 -7.335)" fill="#e0e0e0"/>
      <path id="Path_5696" data-name="Path 5696" d="M440.383,391.468c0,.21-2.1.378-4.792.378s-4.781-.168-4.781-.378,2.1-.378,4.781-.378S440.383,391.258,440.383,391.468Z" transform="translate(-5.766 -6.898)" fill="#e0e0e0"/>
      <path id="Path_5697" data-name="Path 5697" d="M440.383,400.078c0,.21-2.1.378-4.792.378s-4.781-.168-4.781-.378,2.1-.378,4.781-.378S440.383,399.868,440.383,400.078Z" transform="translate(-5.766 -6.46)" fill="#e0e0e0"/>
      <path id="Path_5698" data-name="Path 5698" d="M440.383,408.688c0,.21-2.1.378-4.792.378s-4.781-.168-4.781-.378,2.1-.378,4.781-.378S440.383,408.478,440.383,408.688Z" transform="translate(-5.766 -6.023)" fill="#e0e0e0"/>
      <path id="Path_5699" data-name="Path 5699" d="M440.383,417.3c0,.21-2.1.378-4.792.378s-4.781-.168-4.781-.378,2.1-.378,4.781-.378S440.383,417.088,440.383,417.3Z" transform="translate(-5.766 -5.585)" fill="#e0e0e0"/>
      <path id="Path_5700" data-name="Path 5700" d="M440.383,425.909c0,.21-2.1.378-4.792.378s-4.781-.168-4.781-.378,2.1-.389,4.781-.389S440.383,425.7,440.383,425.909Z" transform="translate(-5.766 -5.148)" fill="#e0e0e0"/>
      <path id="Path_5701" data-name="Path 5701" d="M440.383,434.508c0,.21-2.1.389-4.792.389s-4.781-.179-4.781-.389,2.1-.378,4.781-.378S440.383,434.309,440.383,434.508Z" transform="translate(-5.766 -4.71)" fill="#e0e0e0"/>
      <path id="Path_5702" data-name="Path 5702" d="M440.383,443.118c0,.21-2.1.378-4.792.378s-4.781-.168-4.781-.378,2.1-.378,4.781-.378S440.383,442.908,440.383,443.118Z" transform="translate(-5.766 -4.273)" fill="#e0e0e0"/>
      <path id="Path_5703" data-name="Path 5703" d="M440.383,451.728c0,.21-2.1.378-4.792.378s-4.781-.168-4.781-.378,2.1-.378,4.781-.378S440.383,451.518,440.383,451.728Z" transform="translate(-5.766 -3.835)" fill="#e0e0e0"/>
      <path id="Path_5704" data-name="Path 5704" d="M440.383,460.338c0,.21-2.1.378-4.792.378s-4.781-.168-4.781-.378,2.1-.378,4.781-.378S440.383,460.128,440.383,460.338Z" transform="translate(-5.766 -3.397)" fill="#e0e0e0"/>
      <path id="Path_5705" data-name="Path 5705" d="M440.383,468.948c0,.21-2.1.378-4.792.378s-4.781-.168-4.781-.378,2.1-.378,4.781-.378S440.383,468.738,440.383,468.948Z" transform="translate(-5.766 -2.96)" fill="#e0e0e0"/>
      <path id="Path_5706" data-name="Path 5706" d="M440.383,477.558c0,.21-2.1.378-4.792.378s-4.781-.168-4.781-.378,2.1-.378,4.781-.378S440.383,477.348,440.383,477.558Z" transform="translate(-5.766 -2.522)" fill="#e0e0e0"/>
      <path id="Path_5707" data-name="Path 5707" d="M394.8,305.578h-1.765l-5.086.063-18.768.116-62.661.126.378-.378v13.146l-.378-.378,62.661.126,18.778.116,5.075.063H394.8a1.3,1.3,0,0,1-.441,0h-1.324l-5.075.074-18.778.116-62.661.116h-.378V305.2h.378l62.661.116,18.768.116,5.086.074h1.324A1.3,1.3,0,0,1,394.8,305.578Z" transform="translate(-12.103 -11.263)" fill="#e0e0e0"/>
      <path id="Path_5708" data-name="Path 5708" d="M391.912,317.793a1.152,1.152,0,0,1-.231-.179l-.652-.6-2.5-2.343c-2.207-2.1-5.37-5.117-9.342-8.921l.357-.158c.2,3.636.42,7.776.662,12.337v.694l-.494-.483-12.788-12.305.557-.231c-.063,3.962-.126,8.112-.189,12.421v.809l-.578-.567-12.831-12.4.631-.263c-.074,3.878-.158,7.976-.231,12.158v.862l-.62-.6-6.074-5.885-6.463-6.3.641-.263v13.1l-.62-.588-12.978-12.232.588-.252V319.39l-.546-.557-12.967-13.051.452-.179c0,4.813,0,9.006-.063,12.61v.652l-.368-.525-6.494-9.394-1.744-2.469-.42-.652-.126-.221a.982.982,0,0,1,.179.189l.462.62c.431.578,1.051,1.387,1.765,2.417l6.662,9.279-.368.116c0-3.615,0-7.808-.063-12.61v-.6l.462.452,13.041,12.967-.546.231V304.847l.588.546L341.7,317.52l-.62.273V304.71l.641.62,6.473,6.3,6.063,5.885-.641.263c.084-4.2.168-8.27.252-12.147v-.851l.609.588,12.8,12.442-.588.242c.074-4.308.158-8.459.231-12.421v-.746l.536.515,12.7,12.389-.462.21c-.2-4.571-.378-8.711-.546-12.347V305.1l.389.389,9.205,9.058q1.545,1.566,2.427,2.427l.609.641A.915.915,0,0,1,391.912,317.793Z" transform="translate(-12.085 -11.288)" fill="#e0e0e0"/>
      <path id="Path_5709" data-name="Path 5709" d="M396.138,209.248a2.834,2.834,0,0,1-.441,0h-1.324l-5.075.074-18.778.116-62.661.116.378-.378V222.2l-.378-.378,62.661.116,18.778.116,5.075.074H395.7a1.775,1.775,0,0,1,.441,0,2.359,2.359,0,0,1-.441,0h-1.324l-5.075.063-18.778.116-62.661.126h-.378V208.87h.378l62.661.116,18.778.126,5.075.063H395.7Z" transform="translate(-12.034 -16.159)" fill="#e0e0e0"/>
      <path id="Path_5710" data-name="Path 5710" d="M393.25,221.472l-.231-.189-.651-.588-2.5-2.354-9.352-8.911.357-.168c.2,3.636.42,7.776.662,12.347v.683l-.494-.473L368.261,209.5l.557-.221c-.063,3.951-.126,8.1-.189,12.41v.809l-.578-.557-12.757-12.41.631-.252c-.074,3.867-.158,7.976-.231,12.148v.872l-.62-.609-6.084-5.874c-2.175-2.1-4.34-4.2-6.463-6.3l.641-.273v13.051l-.62-.588c-4.508-4.2-8.858-8.323-12.978-12.211l.588-.252v13.787l-.546-.546L316.644,209.43l.452-.189c0,4.813,0,9.006-.063,12.61v.641l-.368-.525-6.557-9.342-1.692-2.48L308,209.5a2.175,2.175,0,0,1-.126-.231.923.923,0,0,1,.179.2l.462.609c.431.578,1.051,1.387,1.765,2.417l6.662,9.289-.368.116c0-3.625,0-7.818-.063-12.61v-.641l.462.452c3.867,3.857,8.238,8.186,13.041,12.967l-.546.231V208.484l.588.557,13.009,12.179-.62.263V208.4l.641.62,6.473,6.3,6.063,5.874-.641.263c.084-4.2.168-8.27.252-12.148v-.851l.609.6,12.8,12.431-.588.242c.084-4.308.158-8.407.231-12.41v-.757l.536.525,12.7,12.379-.462.21c-.2-4.571-.378-8.711-.546-12.347v-.546l.389.378c3.92,3.867,7.041,6.925,9.205,9.069l2.427,2.427.609.63C393.2,221.388,393.26,221.462,393.25,221.472Z" transform="translate(-12.015 -16.183)" fill="#e0e0e0"/>
      <path id="Path_5711" data-name="Path 5711" d="M123.815,138.679c.746-5.412-6.893-9.867-12.61-10.33-2.743-.221-5.58.2-8.175-.7-5.622-1.955-7.86-9.216-13.345-11.559-4.1-1.734-8.816-.189-12.789,1.807s-7.9,4.519-12.347,4.8c-3.888.273-8.091-1.156-11.454.694-2.522,1.4-3.836,4.3-6.158,6.011s-5.254,2.028-8.049,2.186-5.727.179-8.291,1.356-4.687,3.888-4.2,6.652Z" transform="translate(-26.324 -20.913)" fill="#ebebeb"/>
      <path id="Path_5712" data-name="Path 5712" d="M234.326,45.846c.6-4.35-5.538-7.923-10.151-8.3-2.2-.179-4.476.158-6.557-.567-4.519-1.566-6.3-7.356-10.718-9.258-3.3-1.387-7.083-.147-10.277,1.461s-6.3,3.625-9.909,3.846c-3.1.2-6.463-.946-9.184.567-2.018,1.124-3.079,3.457-4.939,4.834s-4.2,1.629-6.463,1.755a18.211,18.211,0,0,0-6.662,1.051c-2.1.946-3.762,3.152-3.342,5.349Z" transform="translate(-19.731 -25.397)" fill="#f5f5f5"/>
      <path id="Path_5713" data-name="Path 5713" d="M183.542,267.177c.567-4.067-5.181-7.408-9.457-7.755-2.1-.168-4.2.147-6.147-.536-4.2-1.471-5.906-6.925-10.025-8.669-3.089-1.293-6.631-.137-9.615,1.366s-5.937,3.394-9.279,3.6c-2.9.189-6.053-.883-8.585.525-1.9,1.051-2.89,3.237-4.634,4.529a11,11,0,0,1-6.042,1.639,17.074,17.074,0,0,0-6.242,1.051c-1.923.883-3.52,2.921-3.152,5Z" transform="translate(-22.056 -14.086)" fill="#f5f5f5"/>
      <path id="Path_5714" data-name="Path 5714" d="M467.534,78.008c.578-4.2-5.37-7.692-9.846-8.049-2.1-.168-4.35.158-6.368-.546-4.371-1.524-6.126-7.188-10.393-8.985-3.153-1.345-6.872-.147-9.962,1.408s-6.158,3.52-9.615,3.741c-3.005.189-6.3-.925-8.911.546-1.955,1.051-2.984,3.352-4.792,4.687a11.443,11.443,0,0,1-6.3,1.7,17.36,17.36,0,0,0-6.463,1.051c-2,.914-3.646,3.026-3.237,5.181Z" transform="translate(-7.76 -23.733)" fill="#ebebeb"/>
    </g>
    <g id="freepik--Floor--inject-82" transform="translate(34.642 503.542)">
      <path id="Path_5715" data-name="Path 5715" d="M485.591,480.693c0,.158-101.047.273-225.665.273s-225.686-.116-225.686-.273,101.026-.273,225.686-.273S485.591,480.546,485.591,480.693Z" transform="translate(-34.24 -480.42)" fill="#263238"/>
    </g>
    <g id="freepik--Rocket--inject-82" transform="translate(107.076 41.642)">
      <path id="Path_5716" data-name="Path 5716" d="M150.88,486.887c-.126-.074,15.615-28.729,35.171-63.985s35.518-63.806,35.654-63.733-15.615,28.719-35.171,64S151.006,486.961,150.88,486.887Z" transform="translate(-100.745 -24.682)" fill="#263238"/>
      <path id="Path_5717" data-name="Path 5717" d="M103.17,486.907l.473-.641,1.429-1.849,5.559-7.156,20.827-26.67c17.864-22.729,42.863-54.643,71.782-91.59l.168-.221.21.189,13.4,12.347.5.473h-23.77l.242-.4c2.007,3.646,4.2,7.545,6.3,11.486l5.4,9.773.221.41h-28.9l.231-.4q7.513,12.8,14.627,24.894l.231.389H157.477l.2-.378,19.072,27.227.231.336h-.41l-40.446-.053.126-.242L152.012,470.2l4.14,6.736,1.051,1.744.347.6-.389-.578c-.252-.4-.609-.967-1.051-1.713-.956-1.534-2.375-3.772-4.2-6.694l-15.878-25.325-.158-.242h.294l40.446-.063-.179.336-19.115-27.143-.263-.378h34.677l-.231.389q-7.093-12.074-14.638-24.883l-.242-.41h28.908l-.231.4-5.412-9.773-6.3-11.485-.221-.41H216.9l-.179.473-13.388-12.358h.389c-28.971,36.863-54.065,68.766-71.918,91.474l-21.037,26.481-5.622,7.093-1.461,1.828C103.349,486.708,103.17,486.907,103.17,486.907Z" transform="translate(-103.17 -24.702)" fill="#263238"/>
      <path id="Path_5718" data-name="Path 5718" d="M380.765,486.351c-.126.074-16.088-28.372-35.644-63.449s-35.308-63.659-35.171-63.733,16.088,28.372,35.644,63.459S380.9,486.278,380.765,486.351Z" transform="translate(-92.66 -24.682)" fill="#263238"/>
      <path id="Path_5719" data-name="Path 5719" d="M430.581,486.369s-.179-.2-.5-.6l-1.461-1.818-5.632-7.072L402.03,450.431,330.1,359.324h.389l-13.377,12.295-.189-.462h23.549l-.231.41L333.852,383.1l-5.37,9.668-.242-.41H357.16l-.242.4-14.659,24.8-.221-.389h34.677l-.273.378-19.125,27.1-.168-.336,40.446.052h.284l-.147.242-15.846,25.22c-1.839,2.911-3.247,5.149-4.2,6.662l-1.051,1.713c-.242.378-.378.568-.378.568s.105-.2.347-.588l1.051-1.734,4.151-6.7,15.71-25.272.137.242-40.446.053h-.41l.231-.336L376.1,417.319l.189.378H341.66l.231-.389q7.093-12.042,14.628-24.8l.231.41H327.789l.231-.4,5.359-9.668,6.389-11.507.242.4H316.23l.515-.473,13.388-12.263.21-.189.179.221,71.771,91.212,20.88,26.523,5.559,7.114,1.419,1.85C430.434,486.159,430.581,486.369,430.581,486.369Z" transform="translate(-92.341 -24.7)" fill="#263238"/>
      <path id="Path_5720" data-name="Path 5720" d="M394.367,450.163a40.667,40.667,0,0,0-35.676-13.083,27.321,27.321,0,0,0-8.323-25.01c-6.809-6.168-20.144-9.037-28.94-6.4l.273-52.92c-1.776-.084-37.567,0-51.827,0s-50.061-.074-51.837,0l.273,52.92c-8.8-2.638-22.13.231-28.94,6.4a27.322,27.322,0,0,0-8.323,25.01,39.931,39.931,0,0,0-44.229,50.177H402.942a40.688,40.688,0,0,0-8.575-37.094Z" transform="translate(-101.533 -25.01)" fill="#fafafa"/>
      <path id="Path_5721" data-name="Path 5721" d="M394.376,450.176s.578.651,1.65,1.965a40.867,40.867,0,0,1,4.025,6.4,41.7,41.7,0,0,1,3.8,11.769,40.447,40.447,0,0,1-.809,16.95v.084h-.095l-266.122.189h-.2l-.053-.189a40.635,40.635,0,0,1-.862-16.929,41.444,41.444,0,0,1,6.2-16.088,39.164,39.164,0,0,1,12.673-12.053,42.148,42.148,0,0,1,16.813-5.611,38.817,38.817,0,0,1,9.689.158l-.3.326a27.49,27.49,0,0,1,9.9-26.554,33.06,33.06,0,0,1,13.388-5.517,31.115,31.115,0,0,1,14.291.315l-.347.252c-.095-18.148-.189-35.823-.273-52.92v-.263H321.9v.221c-.116,19.272-.221,36.958-.315,52.92l-.231-.168a27.7,27.7,0,0,1,8.543-.956,38.354,38.354,0,0,1,8.154,1.2c5.191,1.366,10,3.678,13.43,7.219a27.521,27.521,0,0,1,7.335,24.2l-.137-.147a40.552,40.552,0,0,1,16.95,1.3A42.233,42.233,0,0,1,386.82,443.5a41.374,41.374,0,0,1,5.843,4.792c1.166,1.24,1.734,1.881,1.734,1.881l-.452-.452-1.324-1.377a43.48,43.48,0,0,0-5.864-4.739,42.221,42.221,0,0,0-11.181-5.18,40.246,40.246,0,0,0-16.813-1.261h-.168v-.158a27.321,27.321,0,0,0-7.272-23.885c-3.394-3.478-8.154-5.758-13.3-7.093a37.765,37.765,0,0,0-8.081-1.177,27.459,27.459,0,0,0-8.407.946l-.242.074v-.252q.11-23.959.252-52.92l.2.221H218.1l.242-.252q.147,25.651.294,52.92v.357l-.347-.095a30.684,30.684,0,0,0-14.029-.3,32.576,32.576,0,0,0-13.167,5.433,26.922,26.922,0,0,0-9.72,25.966l.074.378-.378-.063a38.8,38.8,0,0,0-9.562-.147,41.55,41.55,0,0,0-16.593,5.538,38.408,38.408,0,0,0-12.568,11.937,40.835,40.835,0,0,0-6.126,15.868,40.057,40.057,0,0,0,.841,16.7l-.263-.2,266.1.147-.116.095a40.248,40.248,0,0,0,.862-16.813,42.244,42.244,0,0,0-3.741-11.748,42.9,42.9,0,0,0-3.951-6.421l-1.208-1.492Z" transform="translate(-101.542 -25.023)" fill="#263238"/>
      <path id="Path_5722" data-name="Path 5722" d="M330.716,455.506a1.429,1.429,0,0,1,0-.3,5.076,5.076,0,0,0-.063-.893,13.055,13.055,0,0,0-.158-1.45,17.864,17.864,0,0,0-.368-1.965,25.062,25.062,0,0,0-13.2-16.761,21.983,21.983,0,0,0-10.161-2.28,25.126,25.126,0,0,0-11.317,2.953,23.654,23.654,0,0,0-9.279,8.7l-.2.326-.231-.294a28.288,28.288,0,0,0-19.629-10.161,26.407,26.407,0,0,0-10.645,1.324,27.6,27.6,0,0,0-8.911,5.191,28.1,28.1,0,0,0-9.342,16.2l-.063.357-.3-.2a23.318,23.318,0,0,0-17.307-3.384,22.5,22.5,0,0,0-12,6.778,23.6,23.6,0,0,0-5.527,9.92l-.158.588c0,.137-.063.2-.074.2a16.543,16.543,0,0,1,.841-3.152,23.413,23.413,0,0,1,9.72-11.927,22.066,22.066,0,0,1,7.114-2.827,23.686,23.686,0,0,1,17.664,3.373l-.378.158a28.435,28.435,0,0,1,9.457-16.519,28.152,28.152,0,0,1,9.079-5.307,26.6,26.6,0,0,1,10.834-1.314,28.687,28.687,0,0,1,20.039,10.414h-.431a24.169,24.169,0,0,1,9.457-8.88,25.662,25.662,0,0,1,11.559-2.963,22.319,22.319,0,0,1,10.34,2.375,25.114,25.114,0,0,1,13.156,17.034,17.344,17.344,0,0,1,.315,1.986,8.981,8.981,0,0,1,.116,1.471v.893a1.356,1.356,0,0,1,.053.336Z" transform="translate(-98.158 -21.01)" fill="#263238"/>
      <path id="Path_5723" data-name="Path 5723" d="M275.76,421.293c-.053,0-.158-.893-.662-2.459a18.273,18.273,0,0,0-3.352-6.042,17.086,17.086,0,0,0-8.564-5.569,17.864,17.864,0,0,0-12.536,1.156l-.336.168-.053-.368a17.2,17.2,0,0,0-1.156-4.2,18.074,18.074,0,0,0-9.983-9.836,15.762,15.762,0,0,0-6.137-1.124,18.494,18.494,0,0,0-12.263,4.813c-1.377,1.282-1.976,2.165-2.028,2.1a2.975,2.975,0,0,1,.431-.631,13.256,13.256,0,0,1,1.45-1.65,18.033,18.033,0,0,1,6.883-4.2,18.631,18.631,0,0,1,5.517-.946,16.371,16.371,0,0,1,6.3,1.1,18.537,18.537,0,0,1,10.309,10.1,17.789,17.789,0,0,1,1.177,4.308l-.389-.21a18.179,18.179,0,0,1,12.9-1.135,16.813,16.813,0,0,1,5.139,2.438A18.148,18.148,0,0,1,272,412.466a17.6,17.6,0,0,1,3.258,6.221,12.611,12.611,0,0,1,.41,1.849,2.617,2.617,0,0,1,.095.757Z" transform="translate(-97.299 -22.988)" fill="#263238"/>
      <path id="Path_5724" data-name="Path 5724" d="M280.483,423.91c-.147,0-.273-11.307-.273-25.22s.126-25.22.273-25.22.284,11.307.284,25.22S280.641,423.91,280.483,423.91Z" transform="translate(-94.172 -23.955)" fill="#263238"/>
      <path id="Path_5725" data-name="Path 5725" d="M286.273,400.567c-.147,0-.273-8.27-.273-18.474s.126-18.463.273-18.463.273,8.259.273,18.463S286.42,400.567,286.273,400.567Z" transform="translate(-93.878 -24.455)" fill="#263238"/>
      <path id="Path_5726" data-name="Path 5726" d="M324.476,318.2l-.231-18.242H211.839l-.179,17.36-14.47,30.369v18.768l73.547-1.1,67.221,1.072V347.678Z" transform="translate(-98.391 -27.691)" fill="#f5f5f5"/>
      <path id="Path_5727" data-name="Path 5727" d="M324.492,318.215s.084.158.242.494.389.83.694,1.461c.609,1.314,1.5,3.226,2.659,5.727l10.025,21.731v19h-.189l-62.335-.935-4.508-.074-4.571.063-9.31.147-19.272.294-40.762.62h-.273V347.586l14.48-30.369v.105q.095-8.88.179-17.349v-.263h.252l112.438.147h.116v.158c.053,5.916.084,10.508.116,13.556v3.51c0-.778,0-1.965-.074-3.489,0-3.089-.126-7.65-.221-13.577l.105.116-112.438.137.252-.252q-.084,8.48-.168,17.36v.063h0c-4.666,9.783-9.457,19.966-14.47,30.379v18.642l-.273-.273,40.8-.6,19.283-.284,9.31-.126,4.571-.063,4.508.084,62.346,1.051-.189.179V347.743c-4.266-9.384-7.608-16.761-9.9-21.815-1.135-2.512-2-4.435-2.585-5.748-.284-.641-.5-1.135-.662-1.471Z" transform="translate(-98.407 -27.704)" fill="#263238"/>
      <rect id="Rectangle_608" data-name="Rectangle 608" width="139.602" height="17.759" transform="translate(99.208 320.26)" fill="#e0e0e0"/>
      <path id="Path_5728" data-name="Path 5728" d="M211.563,215.06l-.378.326c-21.763,19.157-34.4,48.18-34.425,78.812h0l34.751-7.261Z" transform="translate(-99.43 -32.006)" fill="#d94f04"/>
      <rect id="Rectangle_609" data-name="Rectangle 609" width="115.16" height="79.81" transform="translate(111.934 179.628)" fill="#f5f5f5"/>
      <path id="Path_5729" data-name="Path 5729" d="M266.524,40.86c-9.006,0-25.577,25.556-40.982,68.3-1.051,2.911-2.028,5.538-2.942,8.028v2.627h87.324v-2.364c-.788-2.879-1.618-5.664-2.5-8.281-14.417-42.937-31.882-68.3-40.888-68.3" transform="translate(-97.1 -40.86)" fill="#d94f04"/>
      <path id="Path_5730" data-name="Path 5730" d="M266.537,40.86h.431a5.255,5.255,0,0,1,1.272.21,13.2,13.2,0,0,1,4.34,2.427c3.436,2.7,7.587,7.608,11.885,14.354A189.564,189.564,0,0,1,297.7,83.187c2.2,5.012,4.371,10.4,6.484,16.109,1.051,2.848,2.1,5.79,3.152,8.8s1.881,6.147,2.858,9.31v2.68H222.35v-2.995h0c2.28-6.168,4.413-12.148,6.631-17.8s4.445-10.992,6.662-15.994a209.437,209.437,0,0,1,13.188-25.22c4.2-6.757,8.291-11.727,11.685-14.47a12.894,12.894,0,0,1,4.3-2.459,5.254,5.254,0,0,1,1.271-.21h.431l-.431.063a6.231,6.231,0,0,0-1.24.252,13.146,13.146,0,0,0-4.2,2.511c-3.331,2.764-7.356,7.734-11.559,14.5a212.97,212.97,0,0,0-13.072,25.283c-2.217,4.981-4.424,10.319-6.62,15.973s-4.308,11.622-6.589,17.8v2.5l-.263-.263h87.324l-.263.263v-2.291c-.967-3.152-1.839-6.3-2.827-9.289s-2.049-5.937-3.153-8.785c-2.1-5.706-4.2-11.086-6.431-16.1a191.177,191.177,0,0,0-13-25.314c-4.2-6.757-8.344-11.675-11.717-14.4a13.66,13.66,0,0,0-4.256-2.469,6.305,6.305,0,0,0-1.25-.252Z" transform="translate(-97.113 -40.86)" fill="#263238"/>
      <path id="Path_5731" data-name="Path 5731" d="M319.27,213.23l.389.336c22.33,19.661,35.3,49.389,35.318,80.861h0l-35.644-7.461Z" transform="translate(-92.187 -32.099)" fill="#d94f04"/>
      <path id="Path_5732" data-name="Path 5732" d="M210.273,205.41s-.5-29.423,1.208-42.621,6.725-36.779,6.725-36.779h98.557a220.783,220.783,0,0,1,6.641,43.83c.883,22.761.872,35.917.872,35.917Z" transform="translate(-97.73 -36.532)" fill="#f5f5f5"/>
      <path id="Path_5733" data-name="Path 5733" d="M210.276,205.423h31.966l82.038.095-.252.252c-.483-22.214.105-46.94-5.706-72.055-.567-2.575-1.156-5.139-1.818-7.618l.263.2H218.21l.189-.284c-2.48,11.853-4.613,22.719-6.126,32.376q-.578,3.6-.946,7.02c-.21,2.27-.357,4.456-.483,6.557-.231,4.2-.336,8.081-.42,11.559-.158,6.977-.158,12.442-.168,16.172v4.277c0-.977,0-2.4-.074-4.2,0-3.73-.074-9.195,0-16.172.063-3.5.158-7.356.378-11.559q.158-3.152.452-6.578c.242-2.28.536-4.624.914-7.041,1.492-9.678,3.594-20.554,6.053-32.418v-.179h.179l98.557-.053h.21l.052.2c.662,2.5,1.261,5.065,1.828,7.65a214.375,214.375,0,0,1,4.855,37.21c.452,12.116.767,23.812.82,34.961v.252h-.252l-82.206-.347-23.454-.126-6.221-.053h-1.6Z" transform="translate(-97.733 -36.544)" fill="#263238"/>
      <path id="Path_5734" data-name="Path 5734" d="M269.4,244.356c0,2.627-2.028,5.033-6.473,5.033a10.687,10.687,0,0,1-5.927-1.7l1.4-2.764a7.608,7.608,0,0,0,4.466,1.408c1.807,0,2.921-.736,2.921-2.007s-.872-1.923-2.921-1.923H261.2v-2.385l3.2-3.636h-6.641v-2.9H268.7v2.343l-3.52,4.014C267.971,240.331,269.4,242.055,269.4,244.356Z" transform="translate(-95.352 -31.07)" fill="#263238"/>
      <path id="Path_5735" data-name="Path 5735" d="M271.135,177.7v2.942h-11.8V178.3l6.021-5.685c1.377-1.314,1.629-2.1,1.629-2.879,0-1.219-.851-1.934-2.5-1.934a3.835,3.835,0,0,0-3.237,1.555l-2.627-1.692a7.23,7.23,0,0,1,6.2-2.9c3.478,0,5.8,1.786,5.8,4.613,0,1.524-.431,2.9-2.617,4.939l-3.583,3.384Z" transform="translate(-95.269 -34.563)" fill="#263238"/>
      <path id="Path_5736" data-name="Path 5736" d="M271.37,331.6h-2.543v3.279h-3.52V331.6H256.9v-2.427l7.356-9.9h3.793l-6.83,9.384h4.2v-2.921h3.415v2.921h2.543Z" transform="translate(-95.357 -26.71)" fill="#263238"/>
      <path id="Path_5737" data-name="Path 5737" d="M265.477,81.84V97.455h-3.6V84.74H258.72v-2.9Z" transform="translate(-95.264 -38.777)" fill="#263238"/>
      <path id="Path_5738" data-name="Path 5738" d="M317.823,130.652a4.73,4.73,0,0,1-.725,0H315l-7.913.074-27.532.095.221-.126-9.752,17.549c-.546.988-1.051,1.976-1.608,2.89l-.074.137h-.168l-39.049-.084L217.4,151.1l-3.152-.053h-1.1a1.459,1.459,0,0,1,.284,0h.82L217.4,151l11.727-.084,39.049-.084-.231.147c.5-.925,1.051-1.9,1.608-2.9l9.773-17.528.074-.137h.158l27.532.105,7.913.074h2.1a4.722,4.722,0,0,1,.725.063Z" transform="translate(-97.581 -36.309)" fill="#e0e0e0"/>
      <rect id="Rectangle_610" data-name="Rectangle 610" width="15.584" height="8.407" transform="translate(125.49 129.304)" fill="#e0e0e0"/>
      <path id="Path_5739" data-name="Path 5739" d="M235.7,213.23l11.538,46.94,24.074.4L281.894,291.4l-9.1.137-8.123-29.055H243.865Z" transform="translate(-96.434 -32.099)" fill="#ebebeb"/>
      <path id="Path_5740" data-name="Path 5740" d="M235.46,211.8a1.051,1.051,0,0,1,.074.263l.158.757q.189,1.051.536,2.932l1.881,10.823c1.545,9.174,3.657,21.784,6,35.728v.221l-.273-.221h21l.053.179c2.343,8.564,4.34,15.825,5.759,21.017.683,2.533,1.219,4.55,1.608,5.99.168.662.294,1.187.4,1.587a4.531,4.531,0,0,1,.116.557,1.9,1.9,0,0,1-.189-.525c-.126-.4-.284-.925-.483-1.576-.42-1.429-1-3.436-1.734-5.948-1.471-5.16-3.531-12.4-5.958-20.943l.242.179H243.6v-.462c-2.28-13.934-4.35-26.544-5.843-35.728-.725-4.55-1.3-8.238-1.713-10.845-.189-1.25-.336-2.238-.441-2.953a5.631,5.631,0,0,0-.095-.767A1.052,1.052,0,0,1,235.46,211.8Z" transform="translate(-96.446 -32.172)" fill="#e0e0e0"/>
      <path id="Path_5741" data-name="Path 5741" d="M320.97,251.715a3.425,3.425,0,0,1-.683.053h-1.965l-7.282.084-24.316.084h-.273v-3.1c0-10.214.053-19.461.074-26.271,0-3.31.063-6.011.084-7.944v-2.165a3.6,3.6,0,0,1,.063-.757,6.169,6.169,0,0,1,.053.757c0,.546,0,1.261.053,2.165,0,1.934.052,4.634.084,7.944,0,6.757.053,16,.084,26.271v2.827l-.273-.273,24.316.084,7.282.084h1.965A2.639,2.639,0,0,1,320.97,251.715Z" transform="translate(-93.855 -32.177)" fill="#e0e0e0"/>
      <path id="Path_5742" data-name="Path 5742" d="M317.231,150.1h-1.314l-3.72.063-13.387.095.221-.231c0,6.925,0,15.342.052,24.421V196.4l-.231-.242,15.153.105,4.2.063h1.124a1.323,1.323,0,0,1,.378,0h-1.5l-4.2.063-15.153.095h-.242V149.66h.231l13.388.095,3.72.063h.977A1.41,1.41,0,0,1,317.231,150.1Z" transform="translate(-93.237 -35.33)" fill="#e0e0e0"/>
      <g id="Group_410" data-name="Group 410" transform="translate(112.806 253.059)" opacity="0.3">
        <path id="Path_5743" data-name="Path 5743" d="M324.829,287.922c-36.243-10.067-74.85-6.379-114.309,0Z" transform="translate(-210.52 -281.679)"/>
      </g>
      <g id="Group_411" data-name="Group 411" transform="translate(112.354 163.618)" opacity="0.3">
        <path id="Path_5744" data-name="Path 5744" d="M324.283,202.129c-47.539-8.039-74.735-6.683-114.193-.294Z" transform="translate(-210.09 -196.564)"/>
      </g>
      <g id="Group_412" data-name="Group 412" transform="translate(125.49 73.531)" opacity="0.3">
        <path id="Path_5745" data-name="Path 5745" d="M309.914,116.263c-41.539-8.039-52.857-6.389-87.324,0Z" transform="translate(-222.59 -110.835)"/>
      </g>
      <rect id="Rectangle_611" data-name="Rectangle 611" width="3.646" height="15.731" transform="translate(207.118 228.533)" fill="#d94f04"/>
      <path id="Path_5746" data-name="Path 5746" d="M198.19,344.619c0-.147,31.283-.221,69.859-.147s69.859.242,69.859.389-31.273.221-69.859.158S198.19,344.776,198.19,344.619Z" transform="translate(-98.341 -25.43)" fill="#263238"/>
      <path id="Path_5747" data-name="Path 5747" d="M324.056,316.493c0,.147-25.22.273-56.4.273s-56.408-.126-56.408-.273,25.22-.273,56.408-.273S324.056,316.336,324.056,316.493Z" transform="translate(-97.677 -26.865)" fill="#263238"/>
      <path id="Path_5748" data-name="Path 5748" d="M324.056,311.853c0,.147-25.22.273-56.4.273s-56.408-.126-56.408-.273,25.22-.273,56.408-.273S324.056,311.7,324.056,311.853Z" transform="translate(-97.677 -27.101)" fill="#263238"/>
      <path id="Path_5749" data-name="Path 5749" d="M324.056,307.213c0,.147-25.22.273-56.4.273s-56.408-.126-56.408-.273,25.22-.273,56.408-.273S324.056,307.066,324.056,307.213Z" transform="translate(-97.677 -27.336)" fill="#263238"/>
      <path id="Path_5750" data-name="Path 5750" d="M324.056,302.573c0,.147-25.22.273-56.4.273s-56.408-.126-56.408-.273,25.22-.273,56.408-.273S324.056,302.426,324.056,302.573Z" transform="translate(-97.677 -27.572)" fill="#263238"/>
      <path id="Path_5751" data-name="Path 5751" d="M337.961,354.613c0,.158-31.525.273-70.405.273s-70.405-.116-70.405-.273,31.525-.273,70.405-.273S337.961,354.466,337.961,354.613Z" transform="translate(-98.393 -24.927)" fill="#263238"/>
      <path id="Path_5752" data-name="Path 5752" d="M337.961,350.013c0,.158-31.525.284-70.405.284s-70.405-.126-70.405-.284,31.525-.273,70.405-.273S337.961,349.824,337.961,350.013Z" transform="translate(-98.393 -25.161)" fill="#263238"/>
      <path id="Path_5753" data-name="Path 5753" d="M206.279,225.19a3.688,3.688,0,0,1-.378.557l-1.156,1.524c-.525.651-1.135,1.461-1.828,2.417s-1.5,2.028-2.322,3.268c-1.713,2.427-3.583,5.433-5.559,8.827a119.649,119.649,0,0,0-5.748,11.391c-1.839,4.13-3.331,8.207-4.571,11.927-.6,1.87-1.166,3.646-1.618,5.338s-.883,3.258-1.24,4.7-.62,2.764-.883,3.909-.452,2.154-.609,2.974-.273,1.387-.368,1.87a2.922,2.922,0,0,1-.168.652,2.85,2.85,0,0,1,.053-.662c.074-.494.168-1.124.273-1.9s.284-1.828.515-2.995.452-2.49.809-3.93.694-3.047,1.177-4.739.988-3.489,1.576-5.37a124.414,124.414,0,0,1,4.55-11.99,128.081,128.081,0,0,1,5.811-11.422c2.018-3.394,3.93-6.389,5.685-8.8.841-1.229,1.681-2.291,2.4-3.226s1.356-1.744,1.9-2.375l1.24-1.461A4.129,4.129,0,0,1,206.279,225.19Z" transform="translate(-99.274 -31.491)" fill="#fff"/>
      <path id="Path_5754" data-name="Path 5754" d="M265.01,46.51a12.23,12.23,0,0,0-2.837,1.187,18.83,18.83,0,0,0-5.78,6.042c-3.772,6.063-8.564,14.712-13.377,24.558s-8.648,18.915-11.265,25.619c-1.314,3.342-2.333,6.053-3.037,7.923-.336.9-.609,1.618-.809,2.165a5,5,0,0,1-.326.746,5.672,5.672,0,0,1,.221-.778l.715-2.2c.641-1.9,1.608-4.645,2.869-8,2.533-6.715,6.3-15.888,11.139-25.724a260.413,260.413,0,0,1,13.556-24.537,18.379,18.379,0,0,1,5.99-6.011,9.016,9.016,0,0,1,2.154-.862,3.457,3.457,0,0,1,.788-.137Z" transform="translate(-96.847 -40.573)" fill="#fff"/>
      <path id="Path_5755" data-name="Path 5755" d="M213.111,200.562a3.09,3.09,0,0,1,0-.715c0-.525,0-1.208,0-2.1,0-1.786.116-4.382.273-7.576.326-6.389,1.051-15.205,2.312-24.884s2.932-18.379,4.3-24.621c.673-3.152,1.261-5.653,1.713-7.356.21-.83.389-1.492.515-2a3.152,3.152,0,0,1,.221-.683,3.267,3.267,0,0,1-.116.7l-.41,2.018c-.389,1.744-.914,4.277-1.545,7.356-1.272,6.3-2.837,14.953-4.13,24.621s-2.1,18.463-2.469,24.842c-.21,3.152-.368,5.769-.452,7.555q-.084,1.261-.126,2.049a2.932,2.932,0,0,1-.084.788Z" transform="translate(-97.583 -36.297)" fill="#fff"/>
      <path id="Path_5756" data-name="Path 5756" d="M213.853,278.916c-.147,0-.273-13.493-.273-30.138s.126-30.148.273-30.148.273,13.493.273,30.148S214.021,278.916,213.853,278.916Z" transform="translate(-97.558 -31.825)" fill="#fff"/>
      <g id="Group_413" data-name="Group 413" transform="translate(102.24 183.054)" opacity="0.3">
        <path id="Path_5757" data-name="Path 5757" d="M210.306,285.066s1.051-47.193,0-70.006c-4.2,11.034-8.806,23.665-9.72,35.57A53.287,53.287,0,0,0,210.306,285.066Z" transform="translate(-200.465 -215.06)"/>
      </g>
      <path id="Path_5758" data-name="Path 5758" d="M210.259,291.651h8.386l23.528-.074,82.668-.095-.242.242v-79.81l.273.273h-.588l-114.54-.673.221-.221c0,24.442-.074,44.544-.095,58.552,0,6.988-.053,12.452-.063,16.193v0c0-3.741,0-9.205-.063-16.193,0-14.008,0-34.11-.095-58.552V211h.221l114.54.567h.851v80.346h-.252l-82.668-.095-23.528-.074h-7.839C210.449,291.672,210.259,291.651,210.259,291.651Z" transform="translate(-97.758 -32.213)" fill="#263238"/>
      <path id="Path_5759" data-name="Path 5759" d="M337.961,359.253c0,.158-31.525.273-70.405.273s-70.405-.116-70.405-.273,31.525-.273,70.405-.273S337.961,359.106,337.961,359.253Z" transform="translate(-98.393 -24.691)" fill="#263238"/>
    </g>
    <g id="freepik--Audience--inject-82" transform="translate(342.818 296.647)">
      <path id="Path_5760" data-name="Path 5760" d="M401.442,331.4a7.185,7.185,0,0,1-.82.053l-2.364.053-8.659.084-28.572.084h-7.576l-.084-.074-16.551-16.687-4.844-4.96L330.69,308.6a4.019,4.019,0,0,1-.42-.494,4.033,4.033,0,0,1,.494.42l1.345,1.282,4.96,4.844,16.687,16.561-.2-.084h7.471l28.572.074,8.659.084h2.364a4.206,4.206,0,0,1,.82.105Z" transform="translate(-327.37 -282.282)" fill="#263238"/>
      <circle id="Ellipse_125" data-name="Ellipse 125" cx="3.857" cy="3.857" r="3.857" transform="translate(0 22.654)" fill="#263238"/>
      <circle id="Ellipse_126" data-name="Ellipse 126" cx="31.514" cy="31.514" r="31.514" transform="translate(42.72 23.682) rotate(-22.07)" fill="#455a64"/>
      <path id="Path_5761" data-name="Path 5761" d="M410.392,323.676a7.261,7.261,0,0,0,4.34-6.725,6.841,6.841,0,1,0-13.661-.063,7.261,7.261,0,0,0,4.413,6.788c-10.508,1.587-10.025,13-10.025,13l24.831.116S420.806,325.263,410.392,323.676Z" transform="translate(-324.057 -282.202)" fill="#fff"/>
    </g>
    <g id="freepik--Setting--inject-82" transform="translate(60.167 139.043)">
      <path id="Path_5762" data-name="Path 5762" d="M112.43,168.473a1.154,1.154,0,0,1,.252,0h3.583l10.508-.084,35.644-.189h.126l.084.095c1.618,1.87,3.331,3.836,5.076,5.822l26.722,30.8,8.049,9.384,2.165,2.564.557.673a1.573,1.573,0,0,1,.168.242l-.21-.2-.6-.641-2.249-2.5c-1.955-2.217-4.739-5.38-8.175-9.258l-26.849-30.695-5.065-5.832.2.095-35.549-.095-10.508-.074-2.848-.053h-.736Z" transform="translate(-55.791 -131.789)" fill="#263238"/>
      <circle id="Ellipse_127" data-name="Ellipse 127" cx="3.857" cy="3.857" r="3.857" transform="translate(145.665 82.133)" fill="#263238"/>
      <circle id="Ellipse_128" data-name="Ellipse 128" cx="31.514" cy="31.514" r="31.514" fill="#455a64"/>
      <path id="Path_5763" data-name="Path 5763" d="M83.011,153.954a11.685,11.685,0,0,1,2.911-1.261l.6-2.879,4.855-.084.7,2.848a12,12,0,0,1,2.953,1.166l2.459-1.629,3.5,3.373L99.467,158a12.274,12.274,0,0,1,1.261,2.911l2.879.6.084,4.855-2.858.7a12.233,12.233,0,0,1-1.156,2.953l1.608,2.48L97.912,176l-2.522-1.524a11.623,11.623,0,0,1-2.9,1.261l-.6,2.879-4.865.084-.7-2.858a12.159,12.159,0,0,1-2.942-1.156l-2.459,1.6-3.5-3.373,1.524-2.511a11.853,11.853,0,0,1-1.261-2.911l-2.879-.6-.084-4.865,2.848-.7a11.927,11.927,0,0,1,1.166-2.942l-1.618-2.448,3.384-3.5Zm2.6,6.473a5.254,5.254,0,1,0,7.356-.126,5.254,5.254,0,0,0-7.356.126Z" transform="translate(-57.707 -132.728)" fill="#fff"/>
      <path id="Path_5764" data-name="Path 5764" d="M85.157,159.991a4.12,4.12,0,0,1,.967-.851,5.17,5.17,0,0,1,3.4-.8,5.254,5.254,0,0,1,2.312.82,5.37,5.37,0,0,1,1.87,2.1,4.928,4.928,0,0,1,.473,1.471,5.138,5.138,0,0,1,0,1.608,5.328,5.328,0,0,1-4.4,4.561,5.159,5.159,0,0,1-1.608,0,5.013,5.013,0,0,1-1.482-.42,5.29,5.29,0,0,1-2.385-7.5,4.036,4.036,0,0,1,.82-1.051,6.726,6.726,0,0,0-.725,1.051,5.181,5.181,0,0,0-.567,3.342,4.981,4.981,0,0,0,.893,2.165,5.128,5.128,0,0,0,2.1,1.692,4.823,4.823,0,0,0,1.408.389,4.581,4.581,0,0,0,1.513,0,5.033,5.033,0,0,0,4.2-4.308,4.361,4.361,0,0,0,0-1.524,4.645,4.645,0,0,0-.431-1.387,5.118,5.118,0,0,0-1.765-2.018,5.044,5.044,0,0,0-2.2-.82,5.139,5.139,0,0,0-3.321.694,11.885,11.885,0,0,0-1.082.788Z" transform="translate(-57.257 -132.292)" fill="#fff"/>
      <path id="Path_5765" data-name="Path 5765" d="M83.018,153.97l-.158-.084-.483-.284-1.891-1.114h0l-3.352,3.52v-.095c.483.746,1.051,1.566,1.618,2.448h0a12,12,0,0,0-1.145,2.932h-.053L74.7,162l.084-.105c0,1.534.063,3.152.095,4.865l-.095-.116,2.879.588h.074v.074a11.727,11.727,0,0,0,1.25,2.869v.137l-1.513,2.511v-.168l3.5,3.373H80.8l2.448-1.618H83.4a12.262,12.262,0,0,0,2.921,1.145H86.4v.084l.7,2.858-.147-.116,4.855-.084-.137.116c.189-.914.389-1.892.6-2.879v-.084h.084a11.98,11.98,0,0,0,2.869-1.24h.158l2.511,1.524h-.189l3.384-3.5v.179l-1.608-2.459v-.147a11.685,11.685,0,0,0,1.156-2.911v-.084h.084l2.858-.7-.116.147c0-1.66-.053-3.289-.074-4.865l.105.137-2.879-.609h-.074v-.084a12.19,12.19,0,0,0-1.25-2.879v-.126l1.524-2.511v.147l-3.489-3.384h.147l-2.469,1.6h0a12.023,12.023,0,0,0-2.921-1.166h-.063v-.053c-.252-1.051-.473-1.976-.694-2.858l.095.063-4.865.063.063-.053c-.252,1.145-.452,2.1-.62,2.879h0a12.326,12.326,0,0,0-2.228.851l-.515.273-.179.095.158-.116.515-.294a11.937,11.937,0,0,1,2.217-.9h0l.578-2.879v-.053h.032l4.855-.105h.074v.074c.21.883.452,1.807.7,2.848l-.074-.074a12.012,12.012,0,0,1,2.984,1.166h-.137c.778-.515,1.6-1.051,2.459-1.618h.074l.063.063c1.114,1.051,2.27,2.186,3.51,3.363l.074.074-.053.084-1.524,2.511v-.126a12.042,12.042,0,0,1,1.282,2.932l-.105-.095,2.879.6h.116v.368c0,1.576,0,3.152.084,4.855v.116h-.116l-2.858.694.105-.105a12.3,12.3,0,0,1-1.166,2.995V170l1.618,2.459.063.095-.084.084-3.373,3.5-.084.095-.105-.063-2.511-1.524h.158a12.609,12.609,0,0,1-2.942,1.282l.105-.116c-.21.988-.41,1.965-.6,2.879v.116H91.94l-4.865.084h-.116v-.116c-.231-.988-.473-1.955-.694-2.858l.105.116a12.809,12.809,0,0,1-2.984-1.177h.042l-2.459,1.608-.095.063-.074-.074-3.5-3.384-.074-.074.053-.095c.536-.872,1.051-1.734,1.524-2.511v.137a12.463,12.463,0,0,1-1.272-2.942l.095.084-2.879-.6h-.084v-.095c0-1.7,0-3.331-.084-4.865v-.084h.084l2.858-.694-.074.074a12.284,12.284,0,0,1,1.177-2.963h0l-1.608-2.459h0l3.4-3.478h0c.809.5,1.429.883,1.849,1.156l.483.294Z" transform="translate(-57.714 -132.743)" fill="#fff"/>
    </g>
    <g id="freepik--Chart--inject-82" transform="translate(342.954 112.688)">
      <path id="Path_5766" data-name="Path 5766" d="M401.512,142.015a4.2,4.2,0,0,1-.82.063h-2.354l-8.659.095-28.572.074h-7.471l.189-.084-16.687,16.561-4.949,4.834-1.356,1.293a4.033,4.033,0,0,1-.494.42,4.021,4.021,0,0,1,.42-.494l1.293-1.345c1.166-1.208,2.806-2.879,4.834-4.96,4.2-4.2,9.972-10.046,16.561-16.687l.074-.074h7.587l28.572.084,8.659.084,2.354.053A7.193,7.193,0,0,1,401.512,142.015Z" transform="translate(-327.503 -106.781)" fill="#263238"/>
      <circle id="Ellipse_129" data-name="Ellipse 129" cx="3.857" cy="3.857" r="3.857" transform="translate(0 53.928)" fill="#263238"/>
      <circle id="Ellipse_130" data-name="Ellipse 130" cx="31.514" cy="31.514" r="31.514" transform="translate(61.421)" fill="#455a64"/>
      <rect id="Rectangle_612" data-name="Rectangle 612" width="7.734" height="24.306" transform="translate(79.054 18.316)" fill="#fff"/>
      <rect id="Rectangle_613" data-name="Rectangle 613" width="7.734" height="20.008" transform="translate(90.14 22.393)" fill="#fff"/>
      <rect id="Rectangle_614" data-name="Rectangle 614" width="7.734" height="13.619" transform="translate(101.215 28.603)" fill="#fff"/>
    </g>
    <g id="freepik--Idea--inject-82" transform="translate(88.171 31.648)">
      <path id="Path_5767" data-name="Path 5767" d="M132.28,65.284h4.067l11.076-.084,36.527-.2h11.559l.074.084,19.524,21.09,5.674,6.221,1.513,1.681a5.656,5.656,0,0,1,.494.6,5.137,5.137,0,0,1-.567-.536l-1.576-1.618-5.79-6.116c-4.939-5.254-11.8-12.61-19.661-21.017l.2.095H183.949l-36.527-.074-11.076-.095-3.016-.053h-.778A.946.946,0,0,1,132.28,65.284Z" transform="translate(-82.786 -29.64)" fill="#263238"/>
      <circle id="Ellipse_131" data-name="Ellipse 131" cx="3.857" cy="3.857" r="3.857" transform="translate(135.178 60.507)" fill="#263238"/>
      <circle id="Ellipse_132" data-name="Ellipse 132" cx="31.514" cy="31.514" r="31.514" fill="#455a64"/>
      <path id="Path_5768" data-name="Path 5768" d="M127.628,58.681a12.179,12.179,0,1,0-16.151,11.465l-.084,3.888,8.323.084V70.072a12.158,12.158,0,0,0,7.913-11.391Z" transform="translate(-84.261 -30.582)" fill="#fff"/>
      <path id="Path_5769" data-name="Path 5769" d="M119.407,74.9a37.642,37.642,0,0,1-4.2.126A34.675,34.675,0,0,1,111,74.9a34.675,34.675,0,0,1,4.2-.126A34.872,34.872,0,0,1,119.407,74.9Z" transform="translate(-83.868 -29.144)" fill="#fff"/>
      <path id="Path_5770" data-name="Path 5770" d="M116.494,77.945a3.362,3.362,0,0,1-1.492.168,3.415,3.415,0,0,1-1.492-.263q1.494-.026,2.984.095Z" transform="translate(-83.74 -28.987)" fill="#fff"/>
      <path id="Path_5771" data-name="Path 5771" d="M112.723,73.453V71.33c0-1.387.084-3.363.137-5.8,0-1.219.063-2.564.105-3.993a2.679,2.679,0,0,0-.137-1.051.683.683,0,0,0-.746-.494.988.988,0,0,0-.662.736,1.5,1.5,0,0,0,.137,1.051,2.448,2.448,0,0,0,1.891,1.261,2.511,2.511,0,0,0,2.207-.883,3.773,3.773,0,0,0,.925-2.375,2.291,2.291,0,0,0-.252-1.25.935.935,0,0,0-1.051-.441.914.914,0,0,0-.494,1.051,2.354,2.354,0,0,0,.588,1.145,4.582,4.582,0,0,0,2.039,1.576,2.469,2.469,0,0,0,1.229.147,2.543,2.543,0,0,0,1.114-.462,1.986,1.986,0,0,0,.7-.935,1.408,1.408,0,0,0-.074-1.051.946.946,0,0,0-.83-.578,1.208,1.208,0,0,0-.883.525,5.117,5.117,0,0,0-.515,2.1c-.147,1.429-.252,2.764-.347,3.983-.168,2.427-.294,4.4-.389,5.79,0,.662-.084,1.187-.105,1.566v.41a1.159,1.159,0,0,1,0,.137v-.546c0-.378,0-.9.053-1.576.063-1.366.158-3.342.315-5.79.084-1.219.168-2.554.315-3.993a5.628,5.628,0,0,1,.147-1.051,2.753,2.753,0,0,1,.4-1.051,1.408,1.408,0,0,1,1.051-.63,1.2,1.2,0,0,1,1.051.694,1.629,1.629,0,0,1,.084,1.293,2.1,2.1,0,0,1-.778,1.051,2.743,2.743,0,0,1-1.229.525,2.932,2.932,0,0,1-1.345-.158,4.844,4.844,0,0,1-2.1-1.66,2.711,2.711,0,0,1-.641-1.272,1.066,1.066,0,1,1,2-.746,2.459,2.459,0,0,1,.294,1.4,4.025,4.025,0,0,1-.988,2.532,2.774,2.774,0,0,1-2.427.956,2.69,2.69,0,0,1-2.1-1.4,1.776,1.776,0,0,1-.147-1.25,1.187,1.187,0,0,1,.841-.893.767.767,0,0,1,.62.137,1.114,1.114,0,0,1,.368.494,3,3,0,0,1,.147,1.124c0,1.44-.095,2.785-.137,4-.095,2.438-.168,4.4-.221,5.79a10.9,10.9,0,0,1-.063,1.576v.41A.633.633,0,0,1,112.723,73.453Z" transform="translate(-83.857 -30.001)" fill="#455a64"/>
      <path id="Path_5772" data-name="Path 5772" d="M117.3,73.487v-.578l.063-1.576c0-1.293.147-3.31.3-5.79.074-1.051.147-2.1.252-3.268a3.34,3.34,0,0,1-.536-.137,4.078,4.078,0,0,1-.946-.494,3.341,3.341,0,0,1-.525.736,2.827,2.827,0,0,1-2.1,1.051H113.2v2.186c-.095,2.438-.168,4.413-.221,5.8a9.285,9.285,0,0,1-.074,1.566v.578h0V71.406l.137-5.8.063-2.3a2.617,2.617,0,0,1-1.566-1.293,1.755,1.755,0,0,1-.147-1.261,1.25,1.25,0,0,1,.851-.925.862.862,0,0,1,.652.147,1.051,1.051,0,0,1,.368.5,2.8,2.8,0,0,1,.158,1.135,13.283,13.283,0,0,1-.053,1.461h.3a2.469,2.469,0,0,0,2.175-.872,3.455,3.455,0,0,0,.494-.715,6.17,6.17,0,0,1-.967-.988,2.8,2.8,0,0,1-.652-1.293,1.208,1.208,0,0,1,.673-1.314,1.177,1.177,0,0,1,1.377.557,2.48,2.48,0,0,1,.3,1.408,4.2,4.2,0,0,1-.347,1.534,3.489,3.489,0,0,0,.914.483,3.331,3.331,0,0,0,.462.126v-.736a5.561,5.561,0,0,1,.105-.8,2.69,2.69,0,0,1,.41-1.051,1.377,1.377,0,0,1,1.051-.641h0a1.229,1.229,0,0,1,1.051.7,1.692,1.692,0,0,1,.084,1.3,2.217,2.217,0,0,1-.8,1.051,2.68,2.68,0,0,1-1.24.525,2.459,2.459,0,0,1-.557,0c-.116,1.166-.2,2.259-.273,3.258-.168,2.406-.294,4.361-.389,5.748h0c0,.662-.074,1.2-.105,1.576v.4C117.3,73.476,117.3,73.487,117.3,73.487Zm.641-11.2c-.105,1.114-.179,2.186-.252,3.258-.158,2.48-.252,4.5-.3,5.79v1.545a9.91,9.91,0,0,1,.095-1.534h0c.095-1.377.221-3.342.389-5.748.074-.988.158-2.1.273-3.247Zm-4.97.967-.063,2.291-.137,5.79v1.534a12.885,12.885,0,0,1,.074-1.534c0-1.387.126-3.363.221-5.79V63.283Zm.2,0h.284a2.722,2.722,0,0,0,2.4-.946,3.688,3.688,0,0,0,.515-.736.957.957,0,0,1-.168-.116,3.836,3.836,0,0,1-.494.725,2.617,2.617,0,0,1-1.923.914,1.5,1.5,0,0,1-.3,0l-.294-.053a1.433,1.433,0,0,0-.021.221Zm-.2-.063h.147V63h-.147Zm-.757-3.394h-.168a1.229,1.229,0,0,0-.82.883,1.786,1.786,0,0,0,.147,1.229,2.585,2.585,0,0,0,1.524,1.261v-.2a2.375,2.375,0,0,1-1.366-1.145,1.5,1.5,0,0,1-.137-1.051,1.051,1.051,0,0,1,.673-.767.7.7,0,0,1,.778.515,2.753,2.753,0,0,1,.147,1.051v1.4l.147.053V61.57a2.859,2.859,0,0,0-.147-1.114,1.051,1.051,0,0,0-.357-.483.862.862,0,0,0-.431-.179Zm0,.221h-.105a.977.977,0,0,0-.641.725,1.524,1.524,0,0,0,.137,1.051,2.343,2.343,0,0,0,1.324,1.114V61.518a2.637,2.637,0,0,0-.147-1.051.673.673,0,0,0-.578-.452Zm5.927,2.2a2.458,2.458,0,0,0,.557,0A2.648,2.648,0,0,0,119.9,61.7a2.1,2.1,0,0,0,.778-1.051,1.587,1.587,0,0,0-.084-1.261,1.156,1.156,0,0,0-.988-.683h0a1.324,1.324,0,0,0-1.051.609,2.837,2.837,0,0,0-.4,1.051,6.635,6.635,0,0,1-.105.8V61.9h.147v-.431a1.331,1.331,0,0,1,.053-.452,3.835,3.835,0,0,1,.462-1.65,1.177,1.177,0,0,1,.9-.536h0a.977.977,0,0,1,.841.578,1.482,1.482,0,0,1,.063,1.124,1.934,1.934,0,0,1-.715.946,2.448,2.448,0,0,1-1.124.473,2.678,2.678,0,0,1-.5,0A2.355,2.355,0,0,1,118.137,62.211Zm-.2,0h.147v-.2h-.158Zm-1.524-.63a3.668,3.668,0,0,0,.946.483,2.281,2.281,0,0,0,.525.137v-.189l-.473-.126a3.835,3.835,0,0,1-.914-.483Zm1.744.41a2.553,2.553,0,0,0,.494,0,2.406,2.406,0,0,0,1.051-.462,1.912,1.912,0,0,0,.694-.914,1.377,1.377,0,0,0-.063-1.051.914.914,0,0,0-.788-.557h0a1.124,1.124,0,0,0-.862.515,3.657,3.657,0,0,0-.452,1.629c0,.147,0,.3,0,.452a2.8,2.8,0,0,1-.074.41Zm-1.913-.546.168.126.084-.179-.158-.126Zm-.662-3.583a1.051,1.051,0,0,0-.967,1.324,2.806,2.806,0,0,0,.63,1.261,6.409,6.409,0,0,0,.956.967l.095-.189a5.549,5.549,0,0,1-.883-.9,2.533,2.533,0,0,1-.6-1.166.977.977,0,0,1,.515-1.051.956.956,0,0,1,1.051.462,2.322,2.322,0,0,1,.263,1.261,4.1,4.1,0,0,1-.3,1.387l.168.126a4.2,4.2,0,0,0,.336-1.5,2.428,2.428,0,0,0-.294-1.377,1.219,1.219,0,0,0-1.009-.6Zm0,.252a.82.82,0,0,0-.221,0,.9.9,0,0,0-.483.988,2.575,2.575,0,0,0,.578,1.145,6.4,6.4,0,0,0,.788.914,4.2,4.2,0,0,0,.294-1.356,2.249,2.249,0,0,0-.263-1.24.967.967,0,0,0-.746-.452Z" transform="translate(-83.859 -30.004)" fill="#263238"/>
      <path id="Path_5773" data-name="Path 5773" d="M118.593,76.417a23.037,23.037,0,0,1-3.447.126,22.95,22.95,0,0,1-3.436-.126,24.758,24.758,0,0,1,3.436-.126A24.852,24.852,0,0,1,118.593,76.417Z" transform="translate(-83.832 -29.067)" fill="#fff"/>
    </g>
    <g id="freepik--Plant--inject-82" transform="translate(442.085 464.929)">
      <path id="Path_5774" data-name="Path 5774" d="M435.768,443.712a7.492,7.492,0,0,1,3.888,4.277,12.757,12.757,0,0,1,.568,5.759c-.4,3.73-2.522,7.471-4.834,10.424-3.237-2.774-4.035-7.566-4.277-10.014-.389-3.878,1.314-11.065,4.655-10.445" transform="translate(-421.515 -443.674)" fill="#d94f04"/>
      <path id="Path_5775" data-name="Path 5775" d="M438.807,469.453a5.99,5.99,0,0,1,1.976-5.843,8.407,8.407,0,0,1,6.168-1.828A3.73,3.73,0,0,1,449.683,463a2.606,2.606,0,0,1,.063,2.68,5.255,5.255,0,0,1-2.007,1.933c-2.764,1.671-5.769,2.8-8.932,1.839" transform="translate(-421.128 -442.756)" fill="#d94f04"/>
      <path id="Path_5776" data-name="Path 5776" d="M435,480.675a4.014,4.014,0,0,1,.105-.767c.095-.536.221-1.23.368-2.1a20.88,20.88,0,0,1,2.1-6.6,12.968,12.968,0,0,1,4.781-4.96,9.338,9.338,0,0,1,1.965-.841c.242-.074.441-.105.578-.137h.2a14.561,14.561,0,0,0-2.648,1.166,13.4,13.4,0,0,0-4.666,4.96,22.35,22.35,0,0,0-2.165,6.5c-.189.872-.336,1.566-.462,2.1a3.9,3.9,0,0,1-.158.672Z" transform="translate(-421.314 -442.577)" fill="#263238"/>
      <path id="Path_5777" data-name="Path 5777" d="M434.78,449a1.719,1.719,0,0,1,0,.336,4.827,4.827,0,0,0,.074.956c.052.841.116,2.049.179,3.541.137,2.995.252,7.125.284,11.7s0,8.69-.137,11.685c-.053,1.492-.095,2.7-.147,3.531a5.116,5.116,0,0,1-.053.967,1.049,1.049,0,0,1,0,.326,1.656,1.656,0,0,1,0-.336v-.956c0-.872,0-2.1.053-3.541,0-2.995.084-7.114.053-11.685s-.116-8.69-.2-11.675c0-1.471-.063-2.669-.095-3.541v-.967A1.652,1.652,0,0,1,434.78,449Z" transform="translate(-421.326 -443.404)" fill="#263238"/>
      <path id="Path_5778" data-name="Path 5778" d="M434.117,471.731a14.9,14.9,0,0,0-8.175-10.655c-1.051-.515-2.49-.862-3.363-.084s-.662,2.175-.221,3.268a12.946,12.946,0,0,0,11.685,7.776" transform="translate(-421.976 -442.817)" fill="#d94f04"/>
      <path id="Path_5779" data-name="Path 5779" d="M426.28,464.42a4.772,4.772,0,0,1,.683.3,5.167,5.167,0,0,1,.778.41,10.185,10.185,0,0,1,.988.609,11.556,11.556,0,0,1,1.135.841,13.669,13.669,0,0,1,1.208,1.051,16.562,16.562,0,0,1,2.3,2.869,15.758,15.758,0,0,1,1.524,3.321,13.958,13.958,0,0,1,.4,1.545,10.085,10.085,0,0,1,.2,1.356,9.162,9.162,0,0,1,.073,1.135,5.383,5.383,0,0,1,0,.851,3.643,3.643,0,0,1-.074.725c-.063,0,0-1.051-.168-2.69a12.064,12.064,0,0,0-.242-1.335,13.632,13.632,0,0,0-.41-1.513,16.4,16.4,0,0,0-1.524-3.258A17.944,17.944,0,0,0,430.9,467.8a15.28,15.28,0,0,0-1.166-1.051,13.686,13.686,0,0,0-1.1-.851C427.226,464.914,426.249,464.473,426.28,464.42Z" transform="translate(-421.758 -442.62)" fill="#263238"/>
    </g>
    <g id="freepik--Character--inject-82" transform="translate(51.086 223.503)">
      <path id="Path_5780" data-name="Path 5780" d="M75.46,233.885v31.651c0,5.391,6.463,15.037,14.974,14.659h.694c7.356-.883,3.152-9.636,3.152-14.712v-4.624s8.06-.746,8.648-8.722c.284-3.857.221-11.843.084-19.072A14.9,14.9,0,0,0,89.026,218.49h-.778C79.926,218.479,75.25,225.552,75.46,233.885Z" transform="translate(-48.589 -213.693)" fill="#ffbe9d"/>
      <path id="Path_5781" data-name="Path 5781" d="M93.874,259.049A19.325,19.325,0,0,1,83.66,255.34s2.186,5.99,10.193,5.759Z" transform="translate(-48.172 -211.82)" fill="#eb996e"/>
      <path id="Path_5782" data-name="Path 5782" d="M89,235.747c-.158.168-1.051-.567-2.427-.588s-2.322.651-2.459.473.084-.368.515-.683a3.4,3.4,0,0,1,1.986-.578,3.257,3.257,0,0,1,1.923.672C88.935,235.368,89.072,235.673,89,235.747Z" transform="translate(-48.151 -212.886)" fill="#263238"/>
      <path id="Path_5783" data-name="Path 5783" d="M89.034,239.271a1.089,1.089,0,1,1-1.051-1.051A1.051,1.051,0,0,1,89.034,239.271Z" transform="translate(-48.008 -212.69)" fill="#263238"/>
      <path id="Path_5784" data-name="Path 5784" d="M92,244.976a7.765,7.765,0,0,1,2.018-.231c.315,0,.62-.063.683-.273a1.555,1.555,0,0,0-.158-.935c-.242-.778-.5-1.6-.778-2.448a40.635,40.635,0,0,1-1.692-6.368,42.267,42.267,0,0,1,2.207,6.221c.252.851.5,1.671.736,2.448a1.828,1.828,0,0,1,.084,1.24.778.778,0,0,1-.536.431,2.583,2.583,0,0,1-.536,0A7.765,7.765,0,0,1,92,244.976Z" transform="translate(-47.748 -212.868)" fill="#263238"/>
      <path id="Path_5785" data-name="Path 5785" d="M88.4,231.6c-.126.294-1.2.084-2.469.168s-2.333.378-2.48.095.126-.41.557-.683a4.2,4.2,0,0,1,1.87-.546,3.972,3.972,0,0,1,1.9.347C88.233,231.208,88.454,231.461,88.4,231.6Z" transform="translate(-48.185 -213.076)" fill="#263238"/>
      <path id="Path_5786" data-name="Path 5786" d="M100.5,232.647c-.137.242-1.187,0-2.448,0s-2.312.147-2.448-.105.147-.336.588-.536a4.771,4.771,0,0,1,3.72.105C100.351,232.3,100.551,232.531,100.5,232.647Z" transform="translate(-47.567 -213.023)" fill="#263238"/>
      <path id="Path_5787" data-name="Path 5787" d="M76,238.818c-.126-.074-5.38-1.965-5.548,3.51s5.37,4.5,5.38,4.34S76,238.818,76,238.818Z" transform="translate(-48.844 -212.679)" fill="#ffbe9d"/>
      <path id="Path_5788" data-name="Path 5788" d="M74.121,244.458a1.081,1.081,0,0,1-.263.137.967.967,0,0,1-.715,0,2.385,2.385,0,0,1-1.051-2.1,3.152,3.152,0,0,1,.315-1.356,1.051,1.051,0,0,1,.736-.7.473.473,0,0,1,.557.273.347.347,0,0,1,0,.273c0,.01.126-.084.084-.315a.662.662,0,0,0-.2-.347.746.746,0,0,0-.525-.158,1.355,1.355,0,0,0-1.051.82,3.226,3.226,0,0,0-.378,1.513,2.469,2.469,0,0,0,1.44,2.354,1.051,1.051,0,0,0,.872-.126C74.121,244.595,74.184,244.469,74.121,244.458Z" transform="translate(-48.784 -212.592)" fill="#eb996e"/>
      <path id="Path_5789" data-name="Path 5789" d="M68.739,231.3c1.114-1.944,1.356-4.2,1.955-6.4s1.765-4.4,3.867-5.181h0a5.748,5.748,0,0,1,5.79.473,7.471,7.471,0,0,1,5.59-5.885,18.536,18.536,0,0,1,9.888.662c2.1.809,4.067,2.48,6.515,4.939a26.953,26.953,0,0,1,2.827,3.352l2.5,7.419-2.028,3.92a7.992,7.992,0,0,1-.389.8h0l-1.765,8.249c-.147-2.249-.074-10.056-.21-12.295a12.484,12.484,0,0,1-8.964-4.014c-1.25-1.345-2.228-3.037-3.878-3.825-2.1-1.051-4.634-.231-6.851.567l.095-.084a10.014,10.014,0,0,0-3.068,2.259,31.136,31.136,0,0,1-1.187,13.188c-.21.631-.757,1.955-1.387,2.2-1.219.494-1.566-.757-2.312-1.408a3.247,3.247,0,0,0-2.238-.525,50.82,50.82,0,0,1-1.566-5.653,4.971,4.971,0,0,1-2.291.179l.683-1.692a2.521,2.521,0,0,1-.977.452.893.893,0,0,1-.935-.4C68.224,232.194,68.508,231.7,68.739,231.3Z" transform="translate(-48.95 -213.925)" fill="#263238"/>
      <path id="Path_5790" data-name="Path 5790" d="M82.77,220.75a8.878,8.878,0,0,0-.788.746,5.758,5.758,0,0,0-1.2,2.669,10.121,10.121,0,0,0-.179,2.028c0,.736.074,1.524.137,2.343a21.151,21.151,0,0,1,.095,2.617,9.078,9.078,0,0,1-.168,1.387,2.816,2.816,0,0,1-.546,1.345,1.208,1.208,0,0,1-1.114.389,1.8,1.8,0,0,1-1.051-.567,4.067,4.067,0,0,1-.8-2.018h.168a6.389,6.389,0,0,1-.946,1.681,2.333,2.333,0,0,1-1.545.862,1.45,1.45,0,0,1-.82-.137,1.335,1.335,0,0,1-.567-.536,1.429,1.429,0,0,1-.179-.7,1.051,1.051,0,0,1,.252-.63l.084.074a4.781,4.781,0,0,1-2.228,1.524H71.19l.179-.074a1.745,1.745,0,0,0,.515-.242,5.37,5.37,0,0,0,1.639-1.314l.084.074a1.051,1.051,0,0,0,0,1.177,1.146,1.146,0,0,0,.515.483,1.366,1.366,0,0,0,.746.116,2.228,2.228,0,0,0,1.429-.82,6.558,6.558,0,0,0,.914-1.65l.116-.252v.273a4.025,4.025,0,0,0,.757,1.934,1.576,1.576,0,0,0,.9.494,1.051,1.051,0,0,0,.956-.326,2.784,2.784,0,0,0,.5-1.261,8.532,8.532,0,0,0,.168-1.356,20.777,20.777,0,0,0-.084-2.585c-.063-.83-.126-1.618-.116-2.364a9.458,9.458,0,0,1,.242-1.965,5.674,5.674,0,0,1,1.271-2.69,3.416,3.416,0,0,1,.841-.725Z" transform="translate(-48.806 -213.578)" fill="#455a64"/>
      <path id="Path_5791" data-name="Path 5791" d="M106.952,228.44l-.074.063-.189.147-.336.221a4.074,4.074,0,0,1-.483.252,7.062,7.062,0,0,1-3.4.662,9.09,9.09,0,0,1-4.834-1.723,15.416,15.416,0,0,1-4.2-4.718c-.6-.956-1.051-1.944-1.608-2.848a10.646,10.646,0,0,0-1.8-2.417,5.328,5.328,0,0,0-2.312-1.366,3.711,3.711,0,0,0-1.208-.126,4.109,4.109,0,0,0-1.051.221,4.666,4.666,0,0,0-2.543,2.2,6.507,6.507,0,0,0-.4,1.2.445.445,0,0,1,0-.074v-.252a4.342,4.342,0,0,1,.294-.9,4.571,4.571,0,0,1,.883-1.219,4.782,4.782,0,0,1,1.671-1.051,4.917,4.917,0,0,1,1.145-.242,3.982,3.982,0,0,1,1.261.116,5.664,5.664,0,0,1,2.4,1.4,10.875,10.875,0,0,1,1.849,2.438c.536.914,1.051,1.891,1.608,2.848a15.594,15.594,0,0,0,4.119,4.655,8.974,8.974,0,0,0,4.739,1.734,7.166,7.166,0,0,0,3.363-.588A10.378,10.378,0,0,0,106.952,228.44Z" transform="translate(-48.231 -213.797)" fill="#455a64"/>
      <path id="Path_5792" data-name="Path 5792" d="M100.588,236.067c-.158.168-1.051-.567-2.427-.578s-2.322.641-2.459.473.084-.378.515-.683a3.31,3.31,0,0,1,1.986-.588,3.258,3.258,0,0,1,1.923.673C100.525,235.72,100.662,236.067,100.588,236.067Z" transform="translate(-47.562 -212.87)" fill="#263238"/>
      <path id="Path_5793" data-name="Path 5793" d="M99.3,239.271a1.051,1.051,0,1,1-.988-1.051A1.051,1.051,0,0,1,99.3,239.271Z" transform="translate(-47.484 -212.69)" fill="#263238"/>
      <path id="Path_5794" data-name="Path 5794" d="M102.834,222a3.447,3.447,0,0,0,2.837,1.6,7.888,7.888,0,0,0,1.2-.347c.389.231.294,1.576,0,1.944a6.493,6.493,0,0,1-.841.862c1.314.7,2.511.357,3.909-.147a6.851,6.851,0,0,1-4.077,5.485,2.406,2.406,0,0,1-2.207,0,2.774,2.774,0,0,1-.956-1.713,29.844,29.844,0,0,1-.977-7.356Z" transform="translate(-47.254 -213.515)" fill="#263238"/>
      <path id="Path_5795" data-name="Path 5795" d="M92.245,247.853c0,.074-.231.242-.736.315a2.984,2.984,0,0,1-3.152-1.86c-.179-.462-.147-.778-.084-.8a4.926,4.926,0,0,0,1.618,1.807,6.211,6.211,0,0,0,2.354.536Z" transform="translate(-47.94 -212.32)" fill="#263238"/>
      <path id="Path_5796" data-name="Path 5796" d="M133.309,322.36l-33.889.757L98.81,311.81l40.825,3.331Z" transform="translate(-47.402 -208.95)" fill="#ffbe9d"/>
      <path id="Path_5797" data-name="Path 5797" d="M158.678,287.86l.378.83L145.4,314.761l-13.2,6.4-27.847-1.229v-1.7l12.547-6.452,20.27.5,10.887-21.573a1.986,1.986,0,0,1,1.4-1.051Z" transform="translate(-47.12 -210.167)" fill="#455a64"/>
      <path id="Path_5798" data-name="Path 5798" d="M130.81,319.991a7.211,7.211,0,0,0,.841-1.282c.483-.809,1.124-1.944,1.818-3.2s1.3-2.4,1.734-3.237a6.6,6.6,0,0,0,.631-1.4,7.21,7.21,0,0,0-.841,1.282c-.473.809-1.124,1.944-1.818,3.205s-1.3,2.406-1.734,3.247a6.685,6.685,0,0,0-.63,1.387Z" transform="translate(-45.776 -208.998)" fill="#263238"/>
      <path id="Path_5799" data-name="Path 5799" d="M128.663,317.178l-13.493-.441,10.182-5.317,10.908.252Z" transform="translate(-46.571 -208.97)" fill="#263238"/>
      <path id="Path_5800" data-name="Path 5800" d="M104.31,316.7h1.135l3.068.095c2.6.084,6.189.242,10.14.42s7.555.294,10.151.315h3.079l-3.068-.095c-2.6-.084-6.179-.242-10.14-.42s-7.555-.294-10.151-.315H104.6C104.415,316.669,104.31,316.68,104.31,316.7Z" transform="translate(-47.122 -208.702)" fill="#263238"/>
      <path id="Path_5801" data-name="Path 5801" d="M143.956,309.07c-.368-.431-1.934-1.366-3.152,2.564,0,0-.557-.567-1.681.872a32.059,32.059,0,0,0-2.659,4.865l-3.152,1.524L130.8,320.1s.683,2.522.872,2.417,3.615-.294,3.615-.294l.935-.441s2.3,0,2.427-.62,3.93-3.247,3.93-3.8v-3.615S144.335,309.511,143.956,309.07Z" transform="translate(-45.776 -209.11)" fill="#ffbe9d"/>
      <path id="Path_5802" data-name="Path 5802" d="M140.254,311.421a.382.382,0,0,1,.168.053.368.368,0,0,1,.21.357h0c-.147.462-.315,1.166-.5,2.039s-.4,1.9-.715,2.963a5.5,5.5,0,0,1-1.051,1.9l-1.135,1.471a7.755,7.755,0,0,0-.977,1.408,10.513,10.513,0,0,0,1.156-1.261l1.2-1.429a9,9,0,0,0,.673-.893,4.37,4.37,0,0,0,.494-1.1,27.437,27.437,0,0,0,.683-3.005q.221-1.166.378-2.049h0a.441.441,0,0,0-.336-.431C140.317,311.379,140.254,311.41,140.254,311.421Z" transform="translate(-45.499 -208.971)" fill="#eb996e"/>
      <path id="Path_5803" data-name="Path 5803" d="M140.59,318.649a11.087,11.087,0,0,0,.914-2.532,11.3,11.3,0,0,0,.588-2.617A21.112,21.112,0,0,0,140.59,318.649Z" transform="translate(-45.279 -208.864)" fill="#eb996e"/>
      <path id="Path_5804" data-name="Path 5804" d="M86.067,454.094,81.4,470.276s14.838,10.193,14.26,13.261L64,475.6l6.242-25.514Z" transform="translate(-49.171 -201.922)" fill="#455a64"/>
      <path id="Path_5805" data-name="Path 5805" d="M71.571,465.66a1.335,1.335,0,0,0-1.261,1.25,1.293,1.293,0,0,0,1.229,1.272,1.419,1.419,0,0,0,1.335-1.335,1.324,1.324,0,0,0-1.429-1.177" transform="translate(-48.851 -201.131)" fill="#e0e0e0"/>
      <g id="Group_414" data-name="Group 414" transform="translate(14.829 271.139)" opacity="0.6">
        <path id="Path_5806" data-name="Path 5806" d="M64,474.493l.725-2.543L94.863,480.5s1.25.967.841,1.923Z" transform="translate(-64 -471.95)" fill="#fff"/>
      </g>
      <path id="Path_5807" data-name="Path 5807" d="M81.161,469.286c0,.158-.83,0-1.723.336s-1.45.862-1.576.757.326-.935,1.408-1.282S81.276,469.149,81.161,469.286Z" transform="translate(-48.468 -200.963)" fill="#263238"/>
      <path id="Path_5808" data-name="Path 5808" d="M84.007,471.377c0,.158-.736.252-1.429.778s-1.051,1.177-1.166,1.135,0-.946.841-1.587S84.039,471.229,84.007,471.377Z" transform="translate(-48.288 -200.847)" fill="#263238"/>
      <path id="Path_5809" data-name="Path 5809" d="M84.734,475.726c-.147,0-.168-.83.441-1.576s1.419-.914,1.45-.767-.525.494-1.051,1.114S84.892,475.747,84.734,475.726Z" transform="translate(-48.122 -200.741)" fill="#263238"/>
      <path id="Path_5810" data-name="Path 5810" d="M81.832,465.7c-.105.126-.757-.273-1.65-.431s-1.639-.053-1.692-.21.746-.536,1.8-.336S81.937,465.595,81.832,465.7Z" transform="translate(-48.435 -201.181)" fill="#263238"/>
      <path id="Path_5811" data-name="Path 5811" d="M75.173,457.529l-.736,16.813s16.813,6.4,17.034,9.52l-32.691-.252.074-26.271Z" transform="translate(-49.437 -201.553)" fill="#455a64"/>
      <path id="Path_5812" data-name="Path 5812" d="M64.126,472.121a1.324,1.324,0,0,0-.935,1.513,1.271,1.271,0,0,0,1.492.935,1.4,1.4,0,0,0,.977-1.608,1.324,1.324,0,0,0-1.66-.8" transform="translate(-49.213 -200.804)" fill="#e0e0e0"/>
      <g id="Group_415" data-name="Group 415" transform="translate(9.343 279.43)" opacity="0.6">
        <path id="Path_5813" data-name="Path 5813" d="M58.78,482.488l.116-2.648,31.294,1.219s1.45.641,1.282,1.66Z" transform="translate(-58.78 -479.84)" fill="#fff"/>
      </g>
      <path id="Path_5814" data-name="Path 5814" d="M74.335,473.4c0,.158-.809.221-1.6.725s-1.208,1.177-1.356,1.114.095-.988,1.051-1.576S74.366,473.25,74.335,473.4Z" transform="translate(-48.798 -200.745)" fill="#263238"/>
      <path id="Path_5815" data-name="Path 5815" d="M77.546,474.763c0,.158-.662.42-1.208,1.051s-.7,1.387-.862,1.377-.252-.914.441-1.734S77.546,474.616,77.546,474.763Z" transform="translate(-48.594 -200.671)" fill="#263238"/>
      <path id="Path_5816" data-name="Path 5816" d="M79.269,478.812c-.147,0-.357-.767.063-1.639s1.166-1.208,1.229-1.051-.4.6-.736,1.324S79.427,478.8,79.269,478.812Z" transform="translate(-48.405 -200.601)" fill="#263238"/>
      <path id="Path_5817" data-name="Path 5817" d="M74.1,469.747c-.063.147-.8-.084-1.7,0s-1.608.336-1.681.2.6-.7,1.66-.757S74.167,469.621,74.1,469.747Z" transform="translate(-48.83 -200.951)" fill="#263238"/>
      <path id="Path_5818" data-name="Path 5818" d="M74.355,469.54a26.482,26.482,0,0,1,0,4.046l-.126-.2c1.912.725,4.445,1.7,7.146,2.974a38.621,38.621,0,0,1,7.335,4.172,7.967,7.967,0,0,1,1.8,1.829c.336.525.294.925.242.9a2.522,2.522,0,0,0-.42-.778,9.214,9.214,0,0,0-1.849-1.639,46.807,46.807,0,0,0-7.24-3.983c-2.68-1.272-5.191-2.291-7.062-3.089l-.137-.063v-.137A28.032,28.032,0,0,1,74.355,469.54Z" transform="translate(-48.661 -200.933)" fill="#263238"/>
      <path id="Path_5819" data-name="Path 5819" d="M57.117,350.4v12.084l3.247,47.087s-2.018,22.845-3.258,35.728c-1.051,11.191.683,30.695.683,30.695H76.7l6.736-65.067,4.2-40.562L94.936,351.9Z" transform="translate(-49.539 -206.989)" fill="#263238"/>
      <path id="Path_5820" data-name="Path 5820" d="M107.126,352.5l-4.6,65.656L83.409,467.338l-.883,2.963L71.24,467.569l8.4-116.389Z" transform="translate(-48.803 -206.949)" fill="#263238"/>
      <path id="Path_5821" data-name="Path 5821" d="M88.95,369.9v1.072c0,.725-.074,1.765-.116,3.079-.095,2.68-.326,6.547-.652,11.328-.694,9.541-1.986,22.729-3.993,37.231s-4.2,27.605-5.769,37.084c-.809,4.718-1.471,8.554-1.923,11.212-.242,1.313-.42,2.333-.546,3.047-.063.336-.116.6-.158.8a.872.872,0,0,1-.063.263,1.051,1.051,0,0,1,0-.273,6.882,6.882,0,0,1,.116-.8c.105-.715.263-1.744.462-3.047.42-2.68,1.051-6.5,1.786-11.233,1.524-9.457,3.667-22.582,5.643-37.094s3.352-27.668,4.119-37.21c.368-4.771.641-8.638.788-11.307.084-1.324.147-2.354.2-3.079v-.8a1.166,1.166,0,0,1,.105-.273Z" transform="translate(-48.575 -205.998)" fill="#455a64"/>
      <path id="Path_5822" data-name="Path 5822" d="M87.334,354.3a.977.977,0,1,1-.972-.876A.977.977,0,0,1,87.334,354.3Z" transform="translate(-48.084 -206.835)" fill="#455a64"/>
      <path id="Path_5823" data-name="Path 5823" d="M54.391,361.591s2.175-16.551,2.406-18.431,3.9-25.871,3.9-25.871L57.27,271.7c2.6-2.837,16.193-11.622,16.193-11.622l2.1-5.811,16.992,12.715,2.259,6.967.788-11.4,3.7,4.046.294,6.946,2.364,3.562,2.564,15.9a51.132,51.132,0,0,1,.631,6.7l.536,20.05,3.983,44.8-13.377,4.2a29.171,29.171,0,0,1-14.88.652c-7.1-1.545-16.929-3.636-18.7-3.783-2.848-.252-5.5,2.9-5.5,2.9C56.692,368.526,54.107,364.722,54.391,361.591Z" transform="translate(-49.661 -211.875)" fill="#d94f04"/>
      <path id="Path_5824" data-name="Path 5824" d="M73,259.38a4.842,4.842,0,0,0,.631.862c.431.525,1.051,1.282,1.881,2.186,1.618,1.828,4,4.2,6.578,6.883,1.271,1.335,2.459,2.617,3.5,3.814l.116.147.137-.137c1.734-1.723,2.984-3.384,3.951-4.477l1.166-1.271a2.673,2.673,0,0,0,.389-.462,3.932,3.932,0,0,0-.473.389c-.294.273-.7.683-1.2,1.219-1.051,1.051-2.312,2.68-4.035,4.361h.252c-1.051-1.229-2.217-2.522-3.489-3.857-2.585-2.68-4.981-5.033-6.652-6.8-.841-.883-1.513-1.608-1.976-2.1A5.756,5.756,0,0,0,73,259.38Z" transform="translate(-48.714 -211.615)" fill="#263238"/>
      <path id="Path_5825" data-name="Path 5825" d="M98.575,341.6v-.7c0-.494-.063-1.156-.116-2.007-.116-1.765-.273-4.277-.483-7.356-.431-6.221-1.051-14.806-1.807-24.274S94.676,289.2,94.067,283c-.3-3.1-.588-5.6-.8-7.356-.116-.841-.2-1.5-.273-1.986a1.091,1.091,0,0,0-.074-.515c-.074-.137,0-.179,0-.179v.7c0,.483.116,1.156.21,2,.158,1.765.389,4.266.673,7.356.546,6.2,1.25,14.775,2,24.253s1.429,18.032,1.923,24.274c.252,3.079.462,5.58.6,7.356.084.851.137,1.513.189,2v.525C98.512,341.558,98.565,341.6,98.575,341.6Z" transform="translate(-47.703 -210.925)" fill="#263238"/>
      <g id="Group_416" data-name="Group 416" transform="translate(9.237 106.314)" opacity="0.3">
        <path id="Path_5826" data-name="Path 5826" d="M105.726,320.953c-1.786.883-3.814,1.2-5.569,2.1a19.964,19.964,0,0,0-3.384,2.575c-7.45,6.421-16.813,11.023-26.659,11.191-3.373.063-6.988-.494-9.457-2.753-1.377-1.24-2.364-3.152-1.828-4.949.652-2.165,3.152-3.152,5.254-3.8l20.155-6.3a91.12,91.12,0,0,1,12.894-3.342,45.241,45.241,0,0,1,8.922-.536" transform="translate(-58.679 -315.097)"/>
      </g>
      <path id="Path_5827" data-name="Path 5827" d="M82.18,347.993c0,.095,4.918-2.533,10.855-5.853s10.729-6.105,10.676-6.2S98.8,338.473,92.856,341.8,82.127,347.909,82.18,347.993Z" transform="translate(-48.247 -207.724)" fill="#263238"/>
      <path id="Path_5828" data-name="Path 5828" d="M96.87,363.586a5.5,5.5,0,0,0,0-.956c0-.683-.084-1.545-.137-2.575-.095-2.175-.116-5.181-.074-8.512s0-6.3,0-8.522v-2.585a6.086,6.086,0,0,0-.063-.956,3.752,3.752,0,0,0-.084.956c0,.683-.063,1.545-.095,2.574-.063,2.186-.116,5.254-.158,8.533s0,6.3.189,8.522c.074,1.051.179,1.976.252,2.585A3.888,3.888,0,0,0,96.87,363.586Z" transform="translate(-47.532 -207.544)" fill="#263238"/>
      <g id="Group_417" data-name="Group 417" transform="translate(19.484 82.159)" opacity="0.3">
        <path id="Path_5829" data-name="Path 5829" d="M73.316,312.811c-1.7-6.526-1.534-14.008-1.356-20.7-1.2,4.592-2.543,11.622-3.531,16.456l1.9,4.634Z" transform="translate(-68.43 -292.11)"/>
      </g>
      <g id="Group_418" data-name="Group 418" transform="translate(26.146 49.783)" opacity="0.3">
        <path id="Path_5830" data-name="Path 5830" d="M93.779,273.595c0-.126.62.6,0,0a21.846,21.846,0,0,1-2.438-3.426,54.015,54.015,0,0,0-5.118,5.4c-2.343-2.448-4.7-4.907-6.82-7.555A57.732,57.732,0,0,1,74.77,261.3l10.9,11.633,5.874-6.3Z" transform="translate(-74.77 -261.3)"/>
      </g>
      <path id="Path_5831" data-name="Path 5831" d="M98.741,308l-.5,9.006s-13.356,6.242-22.067,8.491-18.8,1.051-18.8,1.051L60.817,312.8Z" transform="translate(-49.508 -209.144)" fill="#ffbe9d"/>
      <path id="Path_5832" data-name="Path 5832" d="M122.594,310.033a1.923,1.923,0,0,0-.977-1.849c-1.156-.715-3.594-2.3-3.594-2.3l-7.356-.662-13.9,2.921-.5,9.006s7.083.389,8.722.336a39.867,39.867,0,0,0,6.221-1.524s7.671.967,8.039.546.851-.914.368-1.219-6.4-1.828-6.4-1.828l3.962-.3s5.78,1.219,6.21,1.051.977-.914.609-1.471l-.368-.546a1.229,1.229,0,0,0-.609-1.524l-.546-.179Z" transform="translate(-47.532 -209.285)" fill="#ffbe9d"/>
      <path id="Path_5833" data-name="Path 5833" d="M111.32,309.691a4.614,4.614,0,0,0,1.765.326,17.862,17.862,0,0,1,4.2.368,23.341,23.341,0,0,1,2.175.914,15.671,15.671,0,0,0,1.839.673,6.1,6.1,0,0,0,1.755.357,16.831,16.831,0,0,0-1.681-.588c-.515-.189-1.124-.42-1.786-.725a16,16,0,0,0-2.2-.956,8.6,8.6,0,0,0-2.4-.315h-1.944C112.035,309.754,111.331,309.638,111.32,309.691Z" transform="translate(-46.766 -209.058)" fill="#eb996e"/>
      <path id="Path_5834" data-name="Path 5834" d="M111.93,307.725a3.794,3.794,0,0,0,1.587.2,8.575,8.575,0,0,1,3.709.483c1.377.578,2.617,1.135,3.531,1.5a6.515,6.515,0,0,0,1.513.525,8.409,8.409,0,0,0-1.408-.757c-.893-.42-2.1-1.051-3.51-1.587a5.781,5.781,0,0,0-2.1-.473,14.647,14.647,0,0,0-1.744.063C112.539,307.757,111.941,307.673,111.93,307.725Z" transform="translate(-46.735 -209.163)" fill="#eb996e"/>
      <path id="Path_5835" data-name="Path 5835" d="M57.5,270.955s-4.624,7.934-5.254,10.813-2.018,33.259-1.44,33.826a16.056,16.056,0,0,0,1.587,1.3s-3.321.715-2.312,2.448a30.476,30.476,0,0,0,2.028,3.016s1.839,7.65,2.448,7.787,14.543.631,14.543.631a52.993,52.993,0,0,0,2.669-7.671c.788-3.153,3.363-10.7,3.363-10.7l-4.624-1.9,3.152-22.961s1.345-12.41-3.688-15.6S59.379,267.729,57.5,270.955Z" transform="translate(-49.888 -211.127)" fill="#d94f04"/>
      <path id="Path_5836" data-name="Path 5836" d="M96.26,316.674a3.374,3.374,0,0,0,.851.105l2.312.137,3.436.168,2.028.084a5.059,5.059,0,0,0,1.051-.179l1.051-.263c1.492-.368,2.9-.746,4.2-1.051h-.063l4.666.389,1.335.084a1.419,1.419,0,0,0,.483,0,1.45,1.45,0,0,0-.473-.095l-1.324-.179c-1.135-.137-2.753-.315-4.655-.515h0l-4.2,1.051-1.051.263a5.475,5.475,0,0,1-1.051.179l-2.028-.063-3.426-.095H97.08a4.532,4.532,0,0,0-.82-.021Z" transform="translate(-47.532 -208.77)" fill="#eb996e"/>
      <path id="Path_5837" data-name="Path 5837" d="M69.263,327.631a5.663,5.663,0,0,1,.273-1.292c.252-.935.567-2.1.946-3.478.82-2.932,2-6.978,3.321-11.433l.3-1.051.158.326-4.308-2,.294-.053c-2.2,2.343-4.1,4.329-5.454,5.727l-1.608,1.608a3.016,3.016,0,0,1-.609.536,3.259,3.259,0,0,1,.494-.652l1.492-1.713c1.293-1.45,3.152-3.489,5.317-5.853L70,308.17l.179.074,4.308,1.965.221.095-.074.231c-.095.347-.2.694-.3,1.051-1.324,4.455-2.564,8.48-3.478,11.38-.441,1.366-.809,2.511-1.114,3.436A6.882,6.882,0,0,1,69.263,327.631Z" transform="translate(-49.243 -209.135)" fill="#263238"/>
      <path id="Path_5838" data-name="Path 5838" d="M69.65,309.191a21.732,21.732,0,0,1,.336-3.625c.284-2.238.725-5.328,1.229-8.732s1.051-6.473,1.4-8.7a24.456,24.456,0,0,1,.736-3.573A22.646,22.646,0,0,1,73,288.2c-.294,2.238-.725,5.317-1.24,8.722s-1.051,6.484-1.4,8.7c-.189,1.114-.347,2.007-.473,2.627a3.593,3.593,0,0,1-.242.946Z" transform="translate(-48.884 -210.335)" fill="#263238"/>
      <path id="Path_5839" data-name="Path 5839" d="M59,269.789a2.353,2.353,0,0,1,.8-.368,10.087,10.087,0,0,1,2.354-.42A10.792,10.792,0,0,1,73.6,278.123a9.878,9.878,0,0,1,.116,2.438,2.3,2.3,0,0,1-.179.862,22.846,22.846,0,0,0-.3-3.153,10.876,10.876,0,0,0-11.076-8.9,24.394,24.394,0,0,0-3.152.42Z" transform="translate(-49.425 -211.127)" fill="#263238"/>
      <path id="Path_5840" data-name="Path 5840" d="M97,272.692a47.423,47.423,0,0,1-1.976-6.631h.536l-.095.368a35.791,35.791,0,0,1-1.6,4.886,7.493,7.493,0,0,1-.956,1.944c-.147-.063,1.051-3.152,2.018-7.041l.095-.368.263-1.051.263,1.051A44.473,44.473,0,0,1,97,272.692Z" transform="translate(-47.702 -211.339)" fill="#263238"/>
    </g>
  </g>
</svg>
