<?xml version="1.0" encoding="utf-8"?>
<!-- Generator: Adobe Illustrator 26.2.1, SVG Export Plug-In . SVG Version: 6.00 Build 0)  -->
<svg version="1.1" id="Layer_1" xmlns="http://www.w3.org/2000/svg" xmlns:xlink="http://www.w3.org/1999/xlink" x="0px" y="0px"
	 viewBox="0 0 500 500" style="enable-background:new 0 0 500 500;" xml:space="preserve">
<style type="text/css">
	.st0{fill:#E0E0E0;}
	.st1{fill:#FAFAFA;}
	.st2{fill:#FFFFFF;}
	.st3{fill:#D94F04;}
	.st4{opacity:0.3;}
	.st5{opacity:0.5;}
	.st6{fill:#263238;}
	.st7{fill:#FFBE9D;}
	.st8{opacity:0.6;}
	.st9{fill:#007172;}
	.st10{fill:#455A64;}
	.st11{fill:#CBDAD5;}
	.st12{fill:#EB996E;}
	.st13{fill:none;}
</style>
<g id="freepik--background-complete--inject-4">
	<path class="st0" d="M375.2,361.8c-5.3-3.3-11.3-5.4-17.5-6c-2.9-0.3-6-0.2-8.3,1.5c-0.5,0.3-0.9,0.9-0.9,1.5
		c0.1,0.4,0.4,0.8,0.8,1C356.6,365.2,367.3,365.9,375.2,361.8"/>
	<path class="st0" d="M374.8,361.3c-4-3-7.8-6.3-11.3-9.9c-3.5-3.7-5.9-8.2-7.1-13.1c-0.3-1.5-0.4-3.2,0.6-4.4
		C366,340.9,373,350,374.8,361.3"/>
	<path class="st0" d="M375.1,361.7c-0.8-4.9-0.8-9.9,0.2-14.8c1.1-4.8,3.8-9.5,7.9-12.2c1.5,3.6,0.9,7.8-0.2,11.6
		c-1.7,5.9-4.3,11.4-7.8,16.5"/>
	<path class="st0" d="M384,377.5c-5.3,0.6-10,3.5-14,7.1c-4,3.7-6.8,8.4-8,13.7c5.2-0.3,9.7-4,12.9-8.2S380.4,381.5,384,377.5"/>
	<path class="st0" d="M385.9,380c-4.3-10.9-2.8-23.1,4-32.6C392.9,358.2,391.8,370.4,385.9,380"/>
	<path class="st0" d="M397.5,393.9c-10-0.6-19.4,4.8-23.9,13.7c-0.3,0.6-0.6,1.3-0.2,1.9c0.4,0.4,1,0.6,1.6,0.5
		c4.7-0.3,8.9-3.1,12.3-6.4s6.4-6.9,10.2-9.7"/>
	<path class="st0" d="M397.1,393.1c-2.5-8.1-2.7-16.7-0.4-24.8c0.9-3.2,2.3-6.6,5.3-8c0.2-0.2,0.5-0.2,0.8-0.1
		c0.2,0.1,0.4,0.3,0.5,0.6c1,2.2,1.4,4.7,1.2,7.1c-0.2,2.4-0.6,4.8-1.1,7.2c-0.9,4.4-1.4,9.1-3.8,12.9c-0.6,0.9-1.1,1.9-1.5,2.9
		c-0.5,1-0.5,1.3-0.9,2.1"/>
	<path class="st0" d="M427.9,397.7c-2.3-8.7,0.1-19.2,5.6-26.3c0.4-0.5,0.9-1.1,1.6-1c1,0.1,1.3,1.4,1.2,2.4
		C436,381.8,433,390.4,427.9,397.7"/>
	<path class="st0" d="M430.7,399.6c10.5,2.7,22.6,0.1,31.4-6.4c-5.3-2.6-11.3-3.4-17-2.1C439.5,392.4,434.3,395,430.7,399.6"/>
	<path class="st0" d="M433.1,393.8c5.9-9.6,17.2-15.9,28.5-16.5c-1.3,4.6-5.1,8.2-9.3,10.3s-9,3.1-13.7,4
		C436.7,392,434.2,392.4,433.1,393.8"/>
	<path class="st0" d="M428.5,365.8c1.6-5.5,3.2-11,3.6-16.7s-0.4-11.6-3.3-16.5c-5.5,10.7-6.1,23.1-0.5,33.8"/>
	<path class="st0" d="M447.1,356.4c6.5-11.7,19.6-21.1,32.9-22.4C474.9,346.8,460.9,356.7,447.1,356.4"/>
	<path class="st0" d="M443,358.7c9.6,1.5,17.8,7.6,26.8,11.3c1.9,0.9,4,1.3,6.1,1.2c2.6,0,4.7-2.1,4.7-4.8c0-1.4-0.6-2.7-1.7-3.6
		c-1.3-1.2-2.8-2.1-4.4-2.7c-9.8-4.1-20.3-4.2-30.6-1.7"/>
	<path class="st0" d="M437.5,365.5c2.2,0.6,2.9,1.8,4.6,3.2c5.9,5,12.8,8.6,20.3,10.5c0.8,0.2,1.8,0.3,2.2-0.4s-0.1-1.4-0.5-1.9
		c-3.3-3.8-7.5-6.7-12.3-8.3c-4.7-1.8-8.8-3.9-14.4-3.4"/>
	<path class="st0" d="M431.2,324.7c8,7.3,18.7,11,29.5,10c0.5,0,1-0.2,1.4-0.5c0.7-0.8-0.1-2-1-2.7
		C452.4,324.7,441.9,321.9,431.2,324.7"/>
	<path class="st0" d="M438.6,322c10.6-7.8,24.3-10,36.8-6.1c-4.6,4.6-11.1,7-17.5,7.7C451.4,324.2,444.9,323.7,438.6,322"/>
	<path class="st0" d="M435.7,303.2c-0.9-8.7-0.3-15.5-0.9-24.2c0-0.7-0.2-1.5-0.8-1.8c-0.9-0.4-1.7,0.8-2,1.7
		c-2.5,8.2-1.2,17,3.7,24"/>
	<path class="st0" d="M435.1,304.2c5.9-3.6,10.3-8.4,14.3-13.9c2.8-3.9,5.2-8.5,4.6-13.3c-4-0.1-7.8,2.1-10.4,5.1
		c-2.5,3.1-4.3,6.7-5.3,10.6C437.2,296.5,436.4,300.5,435.1,304.2"/>
	<path class="st0" d="M449.1,300.3c12.9-4.8,24.9-11.8,35.3-20.8c-4.2-1.7-9-0.7-13.3,1c-9.6,3.9-17.5,10.5-22.2,19.7"/>
	<path class="st0" d="M439,308.9c6.5,0.7,13.1,1.2,19.6,0.1s12.4-3.6,18.3-6.1c0.5-0.1,1-0.5,1.2-0.9c0.2-0.6,0-1.2-0.5-1.6
		c-0.5-0.4-1-0.6-1.6-0.7c-6.5-1.8-13.4-1-19.8,1.2C450.3,302.9,444.5,305.6,439,308.9"/>
	<path class="st0" d="M401.8,325c-4.4-9-4.2-19.5-0.3-28.7c2.7,4.1,3,9.4,2.5,14.3s-2,10-2.1,14.9"/>
	<path class="st0" d="M384.1,316c-11.3-0.1-22,4.5-29.7,12.7c5.5,0.9,11.2-0.6,16.3-3s9.5-5.9,14-9.3"/>
	<path class="st0" d="M372.1,312c-5.4-0.4-10.7-1.1-15.9,0.5s-10,5.2-12.1,10.3c5.1,0.4,10.2-0.5,14.9-2.7
		C363.6,317.7,368,315.1,372.1,312"/>
	<path class="st0" d="M389.8,312.2c-4.9-3.2-9.9-6.5-15.6-7.8s-12.3-0.4-16.2,3.9c4.6,2.7,10.2,3,15.5,3s11.9-0.1,16.9,1.7"/>
	<path class="st0" d="M389.8,312.5c-8.4-8.2-11.5-22.9-8.2-34.1C388.3,288.4,391.1,300.5,389.8,312.5"/>
	<path class="st0" d="M412.8,289.2c1.6-3.7,2.7-7.5,4.1-11.2c1.3-3.8,3.3-7.3,5.8-10.4c2.6-3.1,6.3-5,10.3-5.4
		c-2.6,11.4-9.9,21.2-20.1,27"/>
	<path class="st0" d="M408.6,294.1c-2.6-3.6-5.6-8.5-9.2-11.1s-8.1-4.3-12.4-3.3C391.6,287.7,399.6,293,408.6,294.1"/>
	<path class="st0" d="M409.5,289.5c-1.7-4.3-3.4-8.7-4.1-13.3s-0.3-9.5,2.1-13.6c4.6,8.7,6,18,2.3,27"/>
	<path class="st0" d="M412.8,262.6c2.6-8.6,10.5-14.9,19-17.8c1.1-0.4,2.2-0.6,3.3-0.5c1.1,0.1,2.1,0.9,2.4,2c0.3,1.5-0.9,2.8-2,3.7
		C428.9,255.7,421.2,260,412.8,262.6"/>
	<path class="st0" d="M412.9,255.6c0.3-5.5,0.7-11.2,2.5-16.4s5.3-10.2,10.3-12.5c0.9,5.6-1.6,11.2-4.6,16s-6.6,9.4-8.4,14.7"/>
	<path class="st0" d="M412.8,259.4c-2.1-6.3-2.4-14.2-6.1-19.7c-2.6-3.8-6.8-6.4-9.1-10.4c-1.4,3.9-1.2,8.1,0.5,11.9
		c1.7,3.7,4.1,7.1,6.9,9.9C407.8,254.1,410.2,256.3,412.8,259.4"/>
	<path class="st0" d="M412.8,443.8c-0.2,0-0.3-41.8-0.3-93.2s0.1-93.3,0.3-93.3s0.3,41.8,0.3,93.3S413,443.8,412.8,443.8z"/>
	<path class="st0" d="M449.3,318.7c-0.5,0.2-1,0.4-1.6,0.6l-4.3,1.5c-3.6,1.2-8.6,3-14.1,5.3s-10.5,4.2-13.3,6.7
		c-1.2,1-2.1,2.2-2.7,3.5c-0.4,1-0.5,1.6-0.5,1.6c0-0.1,0-0.3,0-0.4c0.1-0.4,0.2-0.8,0.3-1.2c0.6-1.5,1.5-2.8,2.6-3.8
		c1.7-1.5,3.7-2.7,5.8-3.6c2.3-1.1,4.9-2.2,7.6-3.3c5.5-2.2,10.5-4,14.2-5.1c1.8-0.6,3.3-1,4.4-1.3
		C448.2,318.9,448.8,318.8,449.3,318.7z"/>
	<path class="st0" d="M461.3,289.3c-0.1,0.2-0.3,0.3-0.4,0.5l-1.3,1.2l-5,4.5l-16.6,14.9c-6.5,5.8-12.1,11.3-16,15.5
		c-1.9,2.1-3.5,3.8-4.5,5l-1.2,1.4c-0.1,0.2-0.3,0.3-0.5,0.5c0.1-0.2,0.2-0.4,0.4-0.5c0.2-0.3,0.6-0.8,1.1-1.5c1-1.2,2.5-3,4.4-5.1
		c5-5.5,10.3-10.7,15.9-15.6c6.5-5.8,12.5-11,16.8-14.7c2.1-1.8,3.9-3.3,5.1-4.4c0.6-0.5,1-0.9,1.4-1.2
		C460.9,289.6,461.1,289.4,461.3,289.3z"/>
	<path class="st0" d="M430.8,316.3c-0.2-0.1,1.2-3.2,2.5-7.2s2-7.3,2.2-7.3c-0.1,2.6-0.7,5.1-1.6,7.5c-0.6,1.7-1.2,3.4-2,5
		C431.7,315,431.3,315.7,430.8,316.3z"/>
	<path class="st0" d="M412.9,341.6c-0.4-0.4-0.7-0.7-1-1.2l-2.6-3.3c-2.1-2.8-5.1-6.6-8.5-10.8s-6.4-8-8.6-10.7l-2.6-3.2
		c-0.3-0.4-0.6-0.8-0.9-1.2c0.4,0.3,0.8,0.7,1.1,1.1c0.7,0.7,1.6,1.8,2.8,3.1c2.3,2.7,5.4,6.4,8.8,10.6s6.3,8.1,8.3,11
		c1,1.4,1.9,2.6,2.4,3.4C412.4,340.7,412.6,341.1,412.9,341.6z"/>
	<path class="st0" d="M404.9,331.3c-1.6-1.8-2.8-3.9-3.4-6.3c-0.6-2-0.9-4.2-0.8-6.3h0.3c-0.1,0.5-0.2,0.7-0.2,0.7s0-0.3,0-0.8h0.3
		c0.1,2.1,0.5,4.2,1.1,6.2C403.2,328.6,405,331.2,404.9,331.3z"/>
	<path class="st0" d="M394.5,318.3c-0.7-0.5-1.5-1-2.3-1.4c-2.1-0.6-4.3-0.8-6.5-0.5c-2.2,0.2-4.4,0.5-6.5,1
		c-0.9,0.3-1.8,0.5-2.7,0.6c0.8-0.5,1.7-0.8,2.6-1.1c2.2-0.7,4.4-1.1,6.6-1.2c2.3-0.3,4.6,0,6.7,0.7
		C393.3,316.9,394,317.5,394.5,318.3z"/>
	<path class="st0" d="M392.1,315.1c0,0.1-1.4-0.5-3.6-1.3c-5.8-2-12-2.5-18.1-1.4c-2.3,0.4-3.7,0.9-3.7,0.8c0.3-0.2,0.6-0.3,1-0.4
		c0.9-0.3,1.8-0.6,2.7-0.8c6.1-1.3,12.5-0.8,18.3,1.4c0.9,0.3,1.7,0.7,2.6,1.2C391.5,314.7,391.8,314.9,392.1,315.1z"/>
	<path class="st0" d="M412.8,301.8c-1.1-3-1.9-6-2.6-9.1c-1.3-5.1-2.2-9.2-2-9.2s1.3,4,2.6,9.1S413,301.8,412.8,301.8z"/>
	<path class="st0" d="M413,301.8c-0.2,0.1-0.9-2.7-2.9-5.4c-1.2-1.6-2.7-3.1-4.3-4.4c0.6,0.2,1.2,0.4,1.6,0.9c1.2,0.9,2.3,2,3.1,3.2
		C411.9,297.7,412.7,299.7,413,301.8z"/>
	<path class="st0" d="M412.8,421.5c-0.1,0-0.2-1-0.7-2.8c-0.7-2.5-1.6-4.9-2.8-7.2c-2.9-5.9-8.1-13.4-14.8-20.9
		c-3.3-3.8-6.5-7.3-9.2-10.8c-2.4-3-4.6-6.2-6.6-9.5c-1.3-2.3-2.4-4.6-3.3-7.1c-0.3-0.9-0.5-1.5-0.7-2c-0.1-0.2-0.1-0.5-0.2-0.7
		c0.1,0,0.4,1,1,2.7c1,2.4,2.1,4.7,3.5,6.9c2,3.3,4.2,6.4,6.7,9.4c2.7,3.4,5.9,6.9,9.2,10.7c6.7,7.5,11.9,15.1,14.7,21.1
		c1.1,2.4,2,4.8,2.6,7.4c0.2,0.7,0.3,1.4,0.4,2.1C412.8,421,412.8,421.3,412.8,421.5z"/>
	<path class="st0" d="M445.8,384.3c-0.6,0.4-1.1,0.7-1.7,1c-1.6,0.9-3.1,1.9-4.5,3c-2.1,1.6-4.1,3.4-5.9,5.4
		c-2.1,2.2-4.2,4.7-6.4,7.4c-4.3,5.5-8.4,10.3-10.8,14.1c-1.2,1.9-2.1,3.5-2.7,4.6c-0.3,0.6-0.6,1.2-1,1.7c0-0.2,0.1-0.4,0.2-0.6
		c0.1-0.3,0.3-0.8,0.6-1.4c0.8-1.6,1.6-3.2,2.6-4.8c2.4-3.9,6.4-8.8,10.7-14.3c2.2-2.7,4.3-5.3,6.4-7.4c1.8-1.9,3.9-3.7,6-5.3
		c1.5-1.1,3-2,4.7-2.8c0.6-0.3,1-0.5,1.4-0.6C445.5,384.3,445.6,384.3,445.8,384.3z"/>
	<path class="st0" d="M446.5,396.3c-1.2,0.3-2.4,0.4-3.6,0.5c-2.9,0.3-5.8,0.9-8.7,1.7c-2.8,0.9-5.4,2.3-7.8,4.1
		c-1.8,1.4-2.6,2.5-2.7,2.5c0.1-0.3,0.3-0.6,0.5-0.8c0.6-0.7,1.2-1.4,1.9-2c2.3-1.9,5-3.4,7.9-4.3c2.9-0.9,5.8-1.4,8.8-1.6
		C444,396.3,445.2,396.3,446.5,396.3z"/>
	<path class="st0" d="M424.7,403.8c-0.2-0.1,1.5-2.6,2.7-6s1.5-6.4,1.7-6.4c0.1,0.7,0.1,1.3-0.1,2c-0.2,1.6-0.6,3.1-1.1,4.6
		c-0.6,1.5-1.3,2.9-2.1,4.2C425.6,402.8,425.2,403.3,424.7,403.8z"/>
	<path class="st0" d="M456.5,351.8c-0.2,0.1-0.4,0.2-0.6,0.3l-1.7,0.8c-0.8,0.3-1.7,0.7-2.7,1.3s-2.2,1.1-3.5,1.8l-2,1.1
		c-0.7,0.4-1.4,0.9-2.1,1.3c-1.5,0.9-2.9,2-4.5,3.1c-3.3,2.5-6.5,5.3-9.4,8.3c-2.9,3-5.6,6.3-8,9.7c-1.1,1.6-2.1,3.1-3,4.6
		c-0.4,0.8-0.9,1.4-1.2,2.1l-1.1,2c-0.7,1.3-1.2,2.5-1.7,3.5s-0.9,2-1.2,2.7s-0.5,1.3-0.7,1.8c-0.1,0.2-0.2,0.4-0.3,0.6
		c0-0.2,0.1-0.4,0.2-0.6c0.2-0.5,0.4-1.1,0.6-1.8c0.3-0.9,0.7-1.9,1.1-2.8c0.5-1.1,1-2.3,1.6-3.6l1-2.1c0.4-0.7,0.8-1.4,1.2-2.2
		c0.8-1.5,1.9-3,2.9-4.7c4.8-7,10.7-13.1,17.5-18.1c1.6-1.1,3.1-2.2,4.6-3.1c0.7-0.5,1.4-0.9,2.1-1.3l2-1.1c1.3-0.7,2.5-1.3,3.5-1.8
		s2-0.9,2.7-1.2l1.8-0.7C456,351.9,456.2,351.8,456.5,351.8z"/>
	<path class="st0" d="M430.4,369.3c0.2-0.8,0.7-1.6,1.4-2.1c1.6-1.4,3.7-2.1,5.8-2.2c2.1,0,4.2,0.4,6.1,1.2c0.8,0.3,1.6,0.6,2.3,1.1
		c-0.8-0.2-1.6-0.4-2.4-0.7c-1.9-0.7-3.9-1-5.9-1c-2,0-3.9,0.7-5.5,1.9C431.5,368.1,430.9,368.7,430.4,369.3z"/>
	<path class="st0" d="M426.5,373.3c-0.2-0.1,1.3-2.2,1.6-5.3s-0.5-5.5-0.4-5.6s0.4,0.5,0.7,1.5c0.3,1.3,0.4,2.7,0.3,4.1
		c-0.2,1.4-0.6,2.7-1.2,3.9C427,372.9,426.5,373.4,426.5,373.3z"/>
	<path class="st0" d="M384,427.5c0.9,16,5.7,32.2,13.1,48.6h32.2c7-16.2,11.5-32.5,12.3-48.6H384z"/>
	<path class="st1" d="M436.4,453.3c0,0.2-10.6,0.3-23.6,0.3s-23.6-0.1-23.6-0.3s10.6-0.3,23.6-0.3S436.4,453.1,436.4,453.3z"/>
	<path class="st1" d="M435.7,459.1c0,0.2-9.9,0.3-22.2,0.3s-22.2-0.1-22.2-0.3s9.9-0.3,22.2-0.3S435.7,458.9,435.7,459.1z"/>
	<path class="st1" d="M397.6,438c0.4,4.9,0.4,9.9,0,14.8c-0.2,0-0.3-3.3-0.3-7.4S397.5,438,397.6,438z"/>
	<path class="st1" d="M414.9,438c0.2,0,0.3,3.4,0.3,7.7s-0.1,7.7-0.3,7.7s-0.3-3.4-0.3-7.7S414.7,438,414.9,438z"/>
	<path class="st1" d="M431,437.8c0.4,5.2,0.4,10.4,0,15.7c-0.2,0-0.3-3.5-0.3-7.8S430.9,437.8,431,437.8z"/>
	<path class="st1" d="M440.6,438c0,0.2-12.4,0.3-27.7,0.3s-27.7-0.1-27.7-0.3s12.4-0.3,27.7-0.3S440.6,437.8,440.6,438z"/>
	<path class="st0" d="M118.1,162.8c-0.4,0.8-1,1.6-1.6,2.3c-1,1.4-2.5,3.2-4.1,5.2s-3.2,3.8-4.3,5.1c-0.6,0.7-1.2,1.4-1.9,2
		c0.5-0.8,1.1-1.5,1.7-2.2l4.2-5.1l4.2-5.1C116.8,164.2,117.4,163.5,118.1,162.8z"/>
	<path class="st2" d="M107.3,276.2c3.3,5.2,7.2,10.1,11.5,14.4"/>
	<path class="st2" d="M29.9,290.3l11.5-14.2"/>
</g>
<g id="freepik--Padlock--inject-4">
	<path class="st3" d="M75.8,74.7c-18.4,7.6-27.3,28.6-19.7,47.1l22.4,54.7l10-4.1l-22.4-54.7C60.9,104.7,67,90,79.9,84.7
		s27.6,0.9,32.9,13.8l0,0l10.1-4.1C115.3,76,94.3,67.2,75.8,74.7z"/>
	<g class="st4">
		<path d="M75.8,74.7c-18.4,7.6-27.3,28.6-19.7,47.1l22.4,54.7l10-4.1l-22.4-54.7C60.9,104.7,67,90,79.9,84.7s27.6,0.9,32.9,13.8
			l0,0l10.1-4.1C115.3,76,94.3,67.2,75.8,74.7z"/>
	</g>
	<path class="st3" d="M62.3,154.7l79.3-32.5c3-1.2,6.4,0.2,7.6,3.2l19.3,47c1.2,3-0.2,6.4-3.2,7.6L86,212.4c-3,1.2-6.4-0.2-7.6-3.2
		l-19.3-47C57.9,159.3,59.4,155.9,62.3,154.7z"/>
	<g class="st5">
		<path d="M118.2,156.7c-1.7-4.2-6.4-6.2-10.6-4.5s-6.2,6.4-4.5,10.6c1.4,3.4,4.8,5.4,8.5,5l4.6,11.2l4.1-1.7l-4.6-11.2
			C118.6,163.9,119.6,160.1,118.2,156.7z"/>
	</g>
	<path class="st1" d="M83.2,207.2c-0.2,0.1-4.3-9.5-9.2-21.4s-8.7-21.6-8.4-21.7s4.3,9.5,9.2,21.4S83.4,207.1,83.2,207.2z"/>
	<path class="st1" d="M108.8,171.9c-0.4,0-0.7,0-1.1-0.1c-1-0.3-1.9-0.7-2.8-1.2c-5.4-3.2-7.2-10.2-4-15.6c0.4-0.6,0.8-1.2,1.3-1.8
		c0.6-0.8,1.4-1.5,2.2-2c0.6-0.4,1-0.5,1-0.5c-1,0.9-1.9,1.8-2.8,2.8c-3.9,4.8-3.2,11.9,1.7,15.9c0.3,0.2,0.6,0.5,0.9,0.7
		C106.4,170.7,107.5,171.3,108.8,171.9z"/>
	<path class="st3" d="M44.9,181.7l0.5-1.4l0.9,1.2c0.7,0.9,1.7,1.6,2.9,2l1.4,0.5l-1.2,0.9c-0.9,0.8-1.6,1.8-2,2.9l-0.5,1.4l-1-1.2
		c-0.8-0.9-1.8-1.6-2.9-2l-1.4-0.5l1.2-0.9C43.8,183.9,44.5,182.9,44.9,181.7z"/>
	<path class="st3" d="M92.4,125.9l0.3-0.8l0.5,0.7c0.4,0.6,1,1,1.7,1.2l0.8,0.3l-0.7,0.6c-0.5,0.4-1,1-1.2,1.7l-0.3,0.8l-0.6-0.7
		c-0.4-0.5-1-1-1.7-1.2l-0.8-0.3l0.7-0.5C91.7,127.2,92.2,126.6,92.4,125.9z"/>
	<path class="st3" d="M35.3,132.9l0.8-2.4l1.6,2c1.3,1.6,2.9,2.8,4.8,3.4l2.4,0.8l-2,1.6c-1.6,1.3-2.8,2.9-3.4,4.8l-0.8,2.4l-1.6-2
		c-1.3-1.6-2.9-2.8-4.8-3.4l-2.4-0.8l2-1.6C33.5,136.4,34.7,134.8,35.3,132.9z"/>
</g>
<g id="freepik--Device--inject-4">
	<path class="st6" d="M311.1,479.9l-147.6-0.1c-17.8,0-32.1-14.4-32.1-32.2l0.1-370.1c0-17.8,14.4-32.2,32.2-32.2c0,0,0,0,0,0
		l147.6,0.1c17.8,0,32.1,14.4,32.1,32.2l-0.1,370.1C343.2,465.5,328.8,479.9,311.1,479.9C311.1,479.9,311.1,479.9,311.1,479.9z"/>
	<path class="st2" d="M311,58.6h-28.6c-3.9,0.1-7,3.3-7,7.2c0,0,0,0,0,0V71c0.1,3.9-3,7.2-7,7.3h-55.8c-3.9-0.1-7.1-3.3-7-7.2
		c0,0,0,0,0,0v-5.2c0.1-3.9-3-7.2-6.9-7.3c0,0,0,0,0,0h-35.1c-12.4,0-22.5,10-22.5,22.5l-0.1,361.2c0,12.4,10.1,22.5,22.5,22.5
		l147.3,0.1c12.4,0,22.5-10.1,22.5-22.5c0,0,0,0,0,0l0.1-361.2C333.5,68.7,323.4,58.6,311,58.6z"/>
	<path class="st6" d="M223.6,437.2c0,1.6-1.2,2.8-2.8,2.9c-1.6,0-2.8-1.2-2.9-2.8c0-1.6,1.2-2.8,2.8-2.9
		C222.3,434.4,223.6,435.7,223.6,437.2z"/>
	<path class="st6" d="M239.5,437.1c0,1.6-1.2,2.8-2.8,2.9c-1.6,0-2.8-1.2-2.9-2.8c0-1.6,1.2-2.8,2.8-2.9c0,0,0,0,0,0
		C238.2,434.3,239.5,435.6,239.5,437.1z"/>
	<path class="st6" d="M255.3,437c0,1.6-1.2,2.8-2.8,2.9c-1.6,0-2.8-1.2-2.9-2.8c0-1.6,1.2-2.8,2.8-2.9c0,0,0,0,0,0
		C254,434.2,255.3,435.4,255.3,437z"/>
	<path class="st6" d="M311.9,95.1c0,0.1-3.7,0.2-8.3,0.2s-8.3,0-8.3-0.1s3.8-0.2,8.3-0.2S311.9,95,311.9,95.1z"/>
	<path class="st6" d="M311.9,99.3c0,0.1-3.7,0.2-8.3,0.2s-8.3,0-8.3-0.1s3.7-0.2,8.3-0.2S311.9,99.2,311.9,99.3z"/>
	<path class="st6" d="M312,103.6c0,0.1-3.7,0.2-8.3,0.2s-8.3,0-8.3-0.1s3.7-0.2,8.3-0.2S311.9,103.5,312,103.6z"/>
	<path class="st6" d="M160.6,108.4h0.3h1l3.6-0.1l-0.1,0.1c0-0.8,0-1.6,0-2.6c0-0.5,0-1,0-1.5c0.1-0.6,0.6-1,1.2-1.1
		c0.6,0,1.1,0,1.7,0c0.7,0.1,1.2,0.7,1.1,1.3c0,1.2,0,2.5,0,3.8l-0.1-0.2h4.5l-0.1,0.2c0-1.8,0-3.7,0-5.6c0-0.5,0-1,0-1.4
		c0-0.2-0.1-0.4-0.2-0.6c-0.1-0.2-0.3-0.3-0.5-0.5c-0.7-0.7-1.3-1.3-2-1.9l-1.9-1.9c-0.3-0.3-0.6-0.6-0.9-0.9s-0.6-0.6-0.9-0.7
		c-0.3-0.1-0.7,0-1,0.2c-0.3,0.2-0.6,0.6-0.8,0.8l-1.6,1.6c-1,1-2.1,2-2.8,2.9c-0.2,0.5-0.3,1.1-0.2,1.7c0,0.6,0,1.1,0,1.6
		c0,1,0,1.8,0,2.5s0,1.2,0,1.6s0,0.6,0,0.6s0-0.2,0-0.5s0-1,0-1.6s0-1.6-0.1-2.6c0-0.5,0-1,0-1.6c0-0.3,0-0.6,0-0.9
		c0-0.3,0.1-0.6,0.2-0.9c0.8-1,1.8-1.9,2.8-3l1.6-1.6c0.3-0.3,0.5-0.6,0.9-0.9c0.4-0.3,0.8-0.4,1.3-0.2c0.4,0.1,0.8,0.4,1.1,0.8
		l0.9,0.9l1.9,1.9l2,1.9c0.2,0.2,0.4,0.3,0.5,0.5c0.1,0.2,0.2,0.5,0.2,0.7c0,0.5,0,1,0,1.4c0,1.9,0,3.8,0,5.6v0.2H174h-4.5h-0.1
		v-0.2c0-1.3,0-2.6,0-3.8c0-0.5-0.4-1-0.9-1.1c-0.5,0-1.1,0-1.6,0c-0.5,0-0.9,0.4-1,0.9c0,0.5,0,1,0,1.4c0,0.9,0,1.8,0,2.6v0.1h-0.1
		h-3.6H161C160.9,108.5,160.8,108.5,160.6,108.4z"/>
	<path class="st6" d="M198.5,194.2c0,3.5-2.6,5.6-6.8,5.6h-3.1v4.3H185v-15.6h6.7C195.9,188.6,198.5,190.7,198.5,194.2z
		 M194.8,194.2c0-1.7-1.1-2.7-3.3-2.7h-2.9v5.4h2.9C193.7,196.9,194.8,195.9,194.8,194.2z"/>
	<path class="st6" d="M211.2,197.3v6.8H208v-1.5c-0.8,1.2-2.2,1.8-3.6,1.7c-2.8,0-4.5-1.6-4.5-3.6s1.5-3.6,5.1-3.6h2.8
		c0-1.5-0.9-2.4-2.8-2.4c-1.2,0-2.4,0.4-3.4,1.1l-1.2-2.4c1.5-1,3.3-1.5,5.2-1.4C209.1,192,211.2,193.7,211.2,197.3z M207.8,200.3
		v-1.2h-2.4c-1.6,0-2.1,0.6-2.1,1.4s0.7,1.5,2,1.5C206.3,202.1,207.4,201.4,207.8,200.3z"/>
	<path class="st6" d="M213.2,203l1.2-2.5c1.3,0.8,2.7,1.2,4.1,1.2c1.6,0,2.2-0.4,2.2-1.1c0-2-7.2,0-7.2-4.7c0-2.3,2-3.9,5.5-3.9
		c1.6,0,3.2,0.3,4.6,1.1l-1.1,2.5c-1.1-0.6-2.2-0.9-3.4-0.9c-1.6,0-2.2,0.5-2.2,1.1c0,2,7.2,0.1,7.2,4.8c0,2.2-2.1,3.8-5.6,3.8
		C216.6,204.3,214.8,203.9,213.2,203z"/>
	<path class="st6" d="M225,203l1.1-2.5c1.3,0.8,2.7,1.2,4.2,1.2c1.6,0,2.2-0.4,2.2-1.1c0-2-7.2,0-7.2-4.7c0-2.3,2-3.9,5.5-3.9
		c1.6,0,3.2,0.3,4.6,1.1l-1.2,2.5c-1-0.6-2.2-0.9-3.4-0.9c-1.6,0-2.2,0.5-2.2,1.1c0,2,7.2,0.1,7.2,4.8c0,2.2-2.1,3.8-5.6,3.8
		C228.4,204.3,226.6,203.9,225,203z"/>
	<path class="st6" d="M256.9,192.2l-4.3,12h-3.3l-2.7-7.4l-2.8,7.4h-3.3l-4.3-12h3.3l2.8,8.1l2.9-8.1h2.9l2.9,8.1l2.9-8.1H256.9z"/>
	<path class="st6" d="M257.4,198.1c0-3.6,2.8-6.2,6.6-6.2s6.6,2.6,6.6,6.2s-2.8,6.1-6.6,6.1S257.4,201.7,257.4,198.1z M267,198.1
		c-0.1-1.7-1.6-2.9-3.3-2.8c-1.7,0.1-2.9,1.6-2.8,3.3c0.1,1.6,1.5,2.8,3,2.8c1.7,0.1,3-1.2,3.1-2.9C267,198.4,267,198.3,267,198.1
		L267,198.1z"/>
	<path class="st6" d="M280.2,192v3.2c-0.3,0-0.5,0-0.8,0c-1.9,0-3.2,1-3.2,3.3v5.6h-3.5v-12h3.3v1.6
		C277.1,192.5,278.6,191.9,280.2,192z"/>
	<path class="st6" d="M294.3,187.6v16.5H291v-1.4c-0.9,1.1-2.3,1.6-3.7,1.6c-3.4-0.1-6-3-5.9-6.4c0.1-3.2,2.7-5.8,5.9-5.9
		c1.3-0.1,2.7,0.5,3.6,1.4v-5.8H294.3z M290.9,198.1c-0.1-1.7-1.6-2.9-3.3-2.8s-2.9,1.6-2.8,3.3c0.1,1.6,1.5,2.8,3.1,2.8
		c1.7,0,3-1.3,3-3C291,198.4,291,198.2,290.9,198.1z"/>
	<path class="st0" d="M321,217c0,0.1-37,0.3-82.7,0.3s-82.7-0.1-82.7-0.3s37-0.3,82.7-0.3S321,216.8,321,217z"/>
	<path class="st0" d="M317.1,369.2c0,0.1-37,0.3-82.7,0.3s-82.7-0.1-82.7-0.3s37-0.3,82.7-0.3S317.1,369.1,317.1,369.2z"/>
	<path class="st0" d="M279.7,380.7c0,0.1-20.6,0.3-45.9,0.3s-45.9-0.1-45.9-0.3s20.6-0.3,45.9-0.3S279.7,380.5,279.7,380.7z"/>
	<path class="st3" d="M170.5,261.3l3.1,1.7l-1.4,2.4l-3.2-1.9l0.1,3.5h-2.7v-3.5l-3.2,1.9l-1.4-2.3l3.1-1.7l-3.1-1.7l1.4-2.4
		l3.2,1.9v-3.5h2.7l-0.1,3.5l3.2-1.9l1.4,2.4L170.5,261.3z"/>
	<path class="st3" d="M206.4,261.3l3.1,1.7l-1.4,2.4l-3.1-1.9v3.5h-2.7v-3.5l-3.2,1.9l-1.3-2.4l3.2-1.7l-3.1-1.7l1.4-2.4l3.2,1.9
		v-3.5h2.6l-0.1,3.5l3.2-1.9l1.4,2.4L206.4,261.3z"/>
	<path class="st3" d="M241.4,261.3l3.1,1.7l-1.4,2.4l-3.2-1.9l0.1,3.5h-2.7v-3.5l-3.2,1.9l-1.4-2.4l3.1-1.7l-3.1-1.7l1.4-2.4
		l3.2,1.9v-3.5h2.7l-0.1,3.5l3.2-1.9l1.4,2.4L241.4,261.3z"/>
	<path class="st3" d="M275.2,261.3l3.1,1.7l-1.4,2.4l-3.2-1.9l0.1,3.5h-2.7v-3.5l-3.2,1.9l-1.4-2.4l3.1-1.7l-3.1-1.7l1.4-2.4
		l3.2,1.9v-3.5h2.7l-0.1,3.5l3.2-1.9l1.4,2.4L275.2,261.3z"/>
	<path class="st3" d="M308.9,261.3l3.1,1.7l-1.4,2.4l-3.2-1.9l0,3.5h-2.7v-3.5l-3.2,1.9l-1.4-2.4l3.1-1.7l-3.1-1.7l1.4-2.4l3.2,1.9
		v-3.5h2.7l0,3.5l3.2-1.9l1.4,2.4L308.9,261.3z"/>
	<path class="st6" d="M176.1,283.1h-15.2c-3.9,0-7.1-3.2-7.1-7.1v-26.9c0-3.9,3.2-7.1,7.1-7.1h15.1c3.9,0,7.1,3.2,7.1,7.1V276
		C183.1,279.9,180,283.1,176.1,283.1z M160.9,242.5c-3.6,0-6.6,2.9-6.6,6.6V276c0,3.6,2.9,6.6,6.6,6.6h15.1c3.6,0,6.6-2.9,6.6-6.6
		l0,0v-26.9c0-3.6-2.9-6.6-6.6-6.6L160.9,242.5z"/>
	<path class="st6" d="M211.3,283.1h-15.1c-3.9,0-7.1-3.1-7.1-7c0,0,0,0,0,0v-26.9c0-3.9,3.2-7.1,7.1-7.1h15.1c3.9,0,7.1,3.2,7.1,7.1
		V276C218.3,279.9,215.2,283.1,211.3,283.1z M196.1,242.5c-3.6,0-6.6,2.9-6.6,6.6V276c0,3.6,2.9,6.6,6.6,6.6h15.1
		c3.6,0,6.6-2.9,6.6-6.6l0,0v-26.9c0-3.6-2.9-6.6-6.6-6.6L196.1,242.5z"/>
	<path class="st6" d="M245.5,283.1h-15.2c-3.9,0-7.1-3.2-7.1-7.1v-26.9c0-3.9,3.2-7.1,7.1-7.1h15.2c3.9,0,7.1,3.2,7.1,7.1V276
		C252.6,279.9,249.4,283.1,245.5,283.1z M230.3,242.5c-3.6,0-6.6,2.9-6.6,6.6V276c0,3.6,2.9,6.6,6.6,6.6h15.2c3.6,0,6.6-2.9,6.6-6.6
		v-26.9c0-3.6-2.9-6.6-6.6-6.6L230.3,242.5z"/>
	<path class="st6" d="M280.1,283.1h-15.2c-3.9,0-7.1-3.2-7.1-7.1v-26.9c0-3.9,3.2-7.1,7.1-7.1h15.2c3.9,0,7.1,3.2,7.1,7.1V276
		C287.2,279.9,284,283.1,280.1,283.1z M264.9,242.5c-3.6,0-6.6,2.9-6.6,6.6V276c0,3.6,2.9,6.6,6.6,6.6h15.2c3.6,0,6.6-2.9,6.6-6.6
		v-26.9c0-3.6-2.9-6.6-6.6-6.6L264.9,242.5z"/>
	<path class="st6" d="M313.7,283.1h-15.2c-3.9,0-7.1-3.2-7.1-7.1v-26.9c0-3.9,3.2-7.1,7.1-7.1h15.2c3.9,0,7.1,3.2,7.1,7.1V276
		C320.8,279.9,317.6,283.1,313.7,283.1z M298.6,242.5c-3.6,0-6.6,2.9-6.6,6.6V276c0,3.6,2.9,6.6,6.6,6.6l0,0h15.1
		c3.6,0,6.6-2.9,6.6-6.6v-26.9c0-3.6-2.9-6.6-6.6-6.6L298.6,242.5z"/>
	<path class="st3" d="M165.4,315.6h147.2c6.2,0,11.3,5.1,11.3,11.3v7.2c0,6.2-5.1,11.3-11.3,11.3H165.4c-6.2,0-11.3-5.1-11.3-11.3
		v-7.2C154.1,320.6,159.1,315.6,165.4,315.6z"/>
	<path class="st2" d="M217.6,324.5h4.6c3.3,0,5.6,2,5.6,5s-2.3,5-5.6,5h-4.6V324.5z M222,332.6c1.7,0,3.1-1.4,3.1-3.1
		c0-1.7-1.4-3.1-3.1-3.1c0,0,0,0,0,0h-2.1v6.2H222z"/>
	<path class="st2" d="M228.7,330.6c-0.1-2.3,1.6-4.4,4-4.5s4.4,1.6,4.5,4s-1.6,4.4-4,4.5c-0.1,0-0.2,0-0.3,0
		c-2.2,0.1-4.1-1.5-4.3-3.7C228.7,330.8,228.7,330.7,228.7,330.6z M234.9,330.6c0-1.1-0.9-2-2-2s-2,0.9-2,2s0.9,2,2,2
		S234.9,331.8,234.9,330.6z"/>
	<path class="st2" d="M246.6,330.1v4.4h-2.2v-4.1c0-1.2-0.6-1.8-1.6-1.8s-1.9,0.7-1.9,2.1v3.8h-2.2v-7.7h2.1v0.9
		c0.7-0.7,1.6-1,2.6-1C245.2,326.7,246.6,327.7,246.6,330.1z"/>
	<path class="st2" d="M256.2,331.3h-5.9c0.3,1,1.2,1.7,2.2,1.5c0.7,0,1.4-0.2,1.9-0.8l1.2,1.3c-0.8,0.9-2,1.3-3.2,1.2
		c-2.7,0-4.4-1.7-4.4-4c0-2.2,1.7-4,3.9-4c0.1,0,0.2,0,0.3,0c2.1-0.1,3.9,1.5,4,3.6c0,0.1,0,0.2,0,0.4
		C256.3,330.9,256.2,331.1,256.2,331.3z M250.4,330h3.8c-0.2-1.1-1.2-1.8-2.2-1.6C251.1,328.5,250.5,329.2,250.4,330z"/>
	
		<ellipse transform="matrix(0.1602 -0.9871 0.9871 0.1602 57.6303 354.7764)" class="st3" cx="237.3" cy="143.5" rx="30.1" ry="30"/>
	<path class="st2" d="M232,138.1h-0.5v-2.8c0-3.2,2.6-5.9,5.9-5.9s5.9,2.6,5.9,5.9v2.3h-0.5v-2.3c0-3-2.4-5.4-5.4-5.4
		s-5.4,2.4-5.4,5.4V138.1z"/>
	<path class="st2" d="M244.8,157.6h-14.9c-1.4,0-2.5-1.1-2.5-2.5v-14.9c0-1.4,1.1-2.5,2.5-2.5h14.9c1.4,0,2.5,1.1,2.5,2.5v14.9
		C247.2,156.5,246.1,157.6,244.8,157.6z M229.9,138.3c-1.1,0-2,0.9-2,2v14.9c0,1.1,0.9,2,2,2h14.9c1.1,0,2-0.9,2-2v-14.9
		c0-1.1-0.9-2-2-2L229.9,138.3z"/>
	<path class="st2" d="M237.4,148.2c-1.3,0-2.3-1-2.3-2.3c0-1.3,1-2.3,2.3-2.3c1.3,0,2.3,1,2.3,2.3l0,0
		C239.7,147.2,238.7,148.2,237.4,148.2z M237.4,144c-1,0-1.8,0.8-1.8,1.8s0.8,1.8,1.8,1.8c1,0,1.8-0.8,1.8-1.8c0,0,0,0,0,0
		C239.2,144.9,238.4,144,237.4,144C237.4,144,237.4,144,237.4,144L237.4,144z"/>
	<rect x="237.1" y="147.9" class="st2" width="0.5" height="4.2"/>
</g>
<g id="freepik--Character--inject-4">
	<polygon class="st7" points="446.3,458.8 427.4,415.2 405.8,429.1 428.8,468.9 440.3,463.8 	"/>
	<path class="st3" d="M445.9,456.3l0.6,1.2c0,0,25.1-2.1,27.4,1.7L432.2,480l-6.3-14.1C433.5,465.7,440.2,462.8,445.9,456.3z"/>
	<g class="st8">
		<path class="st2" d="M432.3,468.2c-0.7,0.7-0.8,1.7-0.2,2.5c0.6,0.7,1.7,0.8,2.5,0.2c0.7-0.7,0.8-1.9,0.2-2.7
			c-0.7-0.7-1.9-0.7-2.6,0"/>
	</g>
	<g class="st8">
		<path class="st2" d="M432.2,480l-1.5-3.4l40.5-18.6c0,0,2.3-0.1,2.7,1.3L432.2,480z"/>
	</g>
	<path class="st6" d="M446.7,457.6c0.1,0.2-0.9,0.8-1.5,2s-0.8,2.3-1,2.3s-0.5-1.3,0.3-2.7S446.7,457.4,446.7,457.6z"/>
	<path class="st6" d="M452,457.2c0.1,0.2-0.6,1-0.8,2.2s0,2.2-0.2,2.3s-0.9-1-0.5-2.5S451.9,457.1,452,457.2z"/>
	<path class="st6" d="M457.1,461.2c-0.2,0.1-1-0.7-1-2.1s0.7-2.3,0.9-2.2s-0.1,1-0.1,2.1S457.3,461.1,457.1,461.2z"/>
	<polygon class="st7" points="410.8,466.3 411.5,418.9 386.1,422.6 390.6,468.4 403.2,468.4 	"/>
	<path class="st3" d="M411.4,463.9l0.1,1.4c0,0,23.8,8.4,24.2,12.8l-46.5,1.7l0-15.5C396.3,467.3,403.6,467.4,411.4,463.9z"/>
	<g class="st8">
		<path class="st2" d="M394.2,469.2c-0.9,0.3-1.4,1.3-1.2,2.2c0.3,0.9,1.2,1.5,2.2,1.2c1-0.3,1.5-1.4,1.3-2.4
			c-0.4-0.9-1.5-1.4-2.4-1"/>
	</g>
	<g class="st8">
		<path class="st2" d="M389.3,479.9v-3.7l44.5-0.3c0,0,2.1,0.8,1.9,2.3L389.3,479.9z"/>
	</g>
	<path class="st6" d="M411.7,465.4c0,0.2-1.1,0.4-2.2,1.1s-1.6,1.7-1.9,1.7s0.1-1.4,1.4-2.3S411.7,465.2,411.7,465.4z"/>
	<path class="st6" d="M416.6,467.3c0.1,0.2-0.9,0.6-1.6,1.6s-0.9,2-1.1,2s-0.4-1.3,0.5-2.5S416.6,467.1,416.6,467.3z"/>
	<path class="st6" d="M419.6,473c-0.2,0-0.6-1.1,0-2.3s1.6-1.8,1.7-1.6s-0.5,0.9-1,1.9S419.8,473,419.6,473z"/>
	<path class="st9" d="M392.5,272.9l-1-37.4l-36.4,1.9l-1.2,4.4c-2,6.8-3.5,13.8-4.8,20.8c-2.4,15.6-2.1,29.9,4,46.6
		s15.8,48.5,15.8,48.5l36.1,99.6l42-13.8L392.5,272.9z"/>
	<path class="st9" d="M414.5,234.3l3.2,10.4c4.7,3,12.2,17.7,12.9,23.7s2,26.6,0.6,50.8c-1.2,19.9-11,136.2-11,136.2l-39.7,2.1
		l4.1-188.1l1.8-33.6L414.5,234.3z"/>
	<path class="st10" d="M346.4,266.1c0.4,0.2,0.9,0.3,1.4,0.4c1.3,0.3,2.6,0.5,3.9,0.5c8.8,0.5,17.3-3.7,22.2-11
		c0.7-1.1,1.4-2.2,1.9-3.4c0.2-0.4,0.4-0.9,0.5-1.3c-0.1-0.1-0.9,1.9-2.8,4.5c-5,7-13.2,11.1-21.9,10.8
		C349.9,266.6,348.1,266.4,346.4,266.1z"/>
	<path class="st10" d="M413,246.1c0,0.3,0.1,0.6,0.2,0.9c0.3,0.8,0.6,1.5,0.9,2.2c2.3,4.9,5.9,9,10.5,11.9c0.7,0.4,1.4,0.8,2.1,1.2
		c0.3,0.2,0.5,0.3,0.8,0.3c0-0.1-1.1-0.7-2.7-1.9c-4.3-3-7.9-7.1-10.4-11.7C413.5,247.3,413.1,246.1,413,246.1z"/>
	<path class="st10" d="M394.3,277.9c0,0,0.1,0.2,0.3,0.8l0.7,2.3c0.6,2,1.6,5,2.8,8.8c2.4,7.7,5.8,18.8,10.1,32.5
		c8.6,27.4,19.6,65.5,34.2,106.7c1.7,4.9,3.3,9.8,5,14.6l0.1,0.3l-0.2,0.1l-42,13.8l-0.2,0.1l-0.1-0.2l-24.1-67l-6.9-19.2
		c-0.8-2.2-1.4-3.9-1.8-5.1c-0.2-0.6-0.3-1-0.5-1.3l-0.1-0.5c0,0,0.1,0.1,0.2,0.4s0.3,0.7,0.5,1.3l1.9,5.1c1.6,4.5,4,11,7,19.1
		l24.3,66.9l-0.3-0.1l42-13.8l-0.2,0.3c-1.6-4.8-3.3-9.7-5-14.6c-14.7-41.3-25.6-79.4-34.1-106.8c-4.2-13.7-7.6-24.8-9.9-32.5
		c-1.1-3.8-2-6.8-2.7-8.9c-0.3-1-0.5-1.8-0.7-2.3S394.3,277.9,394.3,277.9z"/>
	<path class="st11" d="M430,169.4c0,0-1.9-10.6-7.4-15.7s-28.2-10.9-28.2-10.9s0.3,7.9-4.8,10c-5.4,2.2-10.8,1.5-15-3
		c-2.6-2.8-4.3-6.2-5.2-9.9c0,0-26.9,3.9-30.8,11.2s-7.8,35-7.8,35l24.4,3.9l-0.8,47.4l64.1-3.4l-3.6-44.2l17.6,1.6L430,169.4z"/>
	<path class="st6" d="M360.2,191.4c0-0.4,0-0.7,0-1.1c0-0.7-0.1-1.7-0.1-2.9c-0.1-2.4-0.3-5.8-0.6-9.6s-0.5-7.1-0.8-9.6
		c-0.1-1.2-0.2-2.2-0.3-2.9c0-0.4-0.1-0.7-0.2-1.1c-0.1,0.4-0.1,0.7,0,1.1c0,0.7,0.1,1.7,0.1,2.9c0.1,2.4,0.3,5.8,0.6,9.6
		s0.5,7.1,0.8,9.6c0.1,1.2,0.2,2.2,0.3,2.9C360,190.7,360.1,191.1,360.2,191.4z"/>
	<path class="st6" d="M419.9,168.8c-0.1,0-1.4,4.8-2.8,10.9c-0.9,3.6-1.7,7.3-2.3,11c1.1-3.6,2.1-7.2,2.8-10.9
		C418.5,176.1,419.3,172.5,419.9,168.8z"/>
	<path class="st6" d="M341.3,149.4c0,0.1,1.2,0.2,3,0.8c2.3,0.8,4.5,1.9,6.5,3.4c1.9,1.5,3.6,3.4,4.9,5.4c1,1.6,1.4,2.7,1.5,2.7
		c0-0.3-0.1-0.5-0.2-0.8c-0.3-0.7-0.6-1.4-1-2.1c-2.5-4.4-6.7-7.7-11.6-9c-0.7-0.2-1.5-0.4-2.2-0.4
		C341.9,149.4,341.6,149.4,341.3,149.4z"/>
	<path class="st6" d="M423.2,155.9c-0.5,1.1-0.8,2.2-1,3.4c-0.3,1.1-0.5,2.3-0.4,3.5c0.5-1.1,0.8-2.2,1-3.4
		C423,158.2,423.2,157.1,423.2,155.9z"/>
	<path class="st7" d="M335.2,186.9c0,0,9.2,36.3,10.1,39.4s2.8,11.5,11.6,12.8c11.9,1.7,58.2-2.4,58.2-2.4l-9.3-10.6l-41.2-9.2
		l-7-26.4L335.2,186.9z"/>
	<path class="st12" d="M406.4,219.9c-0.2,0.3-0.3,0.6-0.3,0.9c-0.2,0.8-0.3,1.6-0.3,2.5c-0.1,2.8,0.6,5.5,2.1,7.9
		c0.8,1.3,1.7,2.5,2.9,3.5c0.9,0.8,2,1.5,3.2,1.9c0.8,0.3,1.6,0.4,2.5,0.4c0.3,0,0.6,0,0.9-0.1c-1.1-0.1-2.2-0.4-3.2-0.7
		c-1.1-0.4-2.1-1.1-3-1.9c-1-1-2-2.2-2.7-3.4c-1.4-2.3-2.1-4.9-2.2-7.6C406.1,221.2,406.5,219.9,406.4,219.9z"/>
	<path class="st3" d="M359.9,182.6c-0.4,0-0.7,0-1.1-0.1l-3-0.4c-2.5-0.4-6-0.8-9.8-1.3c-3.3-0.4-6.5-1-9.8-1.7
		c-1.2-0.3-2.2-0.6-2.9-0.8c-0.3-0.1-0.7-0.2-1-0.4c0-0.1,1.5,0.3,4,0.8s5.9,1,9.7,1.5s7.3,1,9.8,1.4c1.2,0.2,2.2,0.4,2.9,0.6
		C359.2,182.3,359.5,182.4,359.9,182.6z"/>
	<path class="st3" d="M358,170.5c-0.3,0.1-0.6,0.1-0.9,0.1c-0.6,0-1.5,0-2.6-0.1c-2.2-0.1-5.2-0.4-8.5-0.8s-6.3-0.9-8.4-1.4
		c-1.1-0.2-1.9-0.4-2.5-0.6c-0.3,0-0.6-0.1-0.9-0.3c1.2,0.1,2.3,0.2,3.5,0.5c2.1,0.3,5.1,0.8,8.4,1.2s6.3,0.7,8.4,0.9
		C355.7,170.1,356.8,170.3,358,170.5z"/>
	<path class="st3" d="M355.9,161.3c-0.9,0.1-1.9,0.1-2.9,0c-4.6-0.3-9.1-1.2-13.5-2.5c-0.9-0.2-1.8-0.6-2.7-1
		c0.9,0.1,1.9,0.4,2.8,0.6c1.7,0.4,4,1,6.7,1.5s5,0.8,6.8,1C354,161,355,161.1,355.9,161.3z"/>
	<path class="st3" d="M373,148.2c-1,0.4-2.1,0.8-3.2,1c-2,0.5-4.8,1.2-7.9,1.8s-5.9,1.1-8,1.4c-1.1,0.2-2.2,0.3-3.3,0.4
		c1.1-0.3,2.2-0.6,3.3-0.7l7.9-1.5l7.9-1.6C370.8,148.5,371.9,148.3,373,148.2z"/>
	<path class="st3" d="M422.7,159c-0.4-0.1-0.8-0.2-1.1-0.4l-3.1-1.3c-2.6-1.1-6.1-2.5-10.1-4.1s-7.6-2.9-10.2-3.8l-3.1-1.1
		c-0.4-0.1-0.8-0.3-1.1-0.5c0.4,0.1,0.8,0.2,1.2,0.3c0.8,0.2,1.8,0.6,3.2,1c2.6,0.9,6.3,2.1,10.3,3.7s7.5,3.1,10,4.2
		c1.3,0.6,2.3,1.1,3,1.4C422,158.6,422.4,158.8,422.7,159z"/>
	<path class="st3" d="M419.9,168.3c-0.2,0-0.4,0-0.6-0.1l-1.8-0.3l-6.5-1.1c-5.5-1-13.1-2.3-21.5-3.3c-4.2-0.5-8.2-0.8-11.9-1.1
		s-7-0.3-9.8-0.2c-1.4,0-2.6,0.1-3.8,0.1s-2,0.1-2.8,0.1l-1.8,0.1c-0.2,0-0.4,0-0.6,0c0.2-0.1,0.4-0.1,0.6-0.1l1.8-0.2
		c0.8-0.1,1.7-0.2,2.8-0.2s2.4-0.2,3.8-0.2c2.8-0.1,6.1-0.1,9.8,0.1s7.7,0.5,12,1c8.5,1,16,2.4,21.5,3.5c2.7,0.5,5,1,6.5,1.3
		l1.8,0.4C419.5,168.2,419.7,168.2,419.9,168.3z"/>
	<path class="st3" d="M394,184.7c-0.5,0-0.9,0-1.4,0c-0.9-0.1-2.2-0.2-3.7-0.3c-3.1-0.3-7.5-0.9-12.2-1.8s-9-1.9-12.1-2.7
		c-1.5-0.4-2.8-0.8-3.6-1c-0.4-0.1-0.9-0.3-1.3-0.4c0.5,0,0.9,0.1,1.4,0.2l3.6,0.9c3.1,0.7,7.3,1.6,12.1,2.5s9,1.5,12.2,1.9l3.7,0.5
		C393.1,184.5,393.6,184.6,394,184.7z"/>
	<path class="st3" d="M415.8,185c-3.4,0.3-6.8,0.4-10.2,0.4c-3.4,0.1-6.8,0.1-10.2-0.2c3.4-0.3,6.8-0.4,10.2-0.4
		C409,184.7,412.4,184.8,415.8,185z"/>
	<path class="st3" d="M387.2,199.4c-0.4,0-0.7,0-1.1-0.1c-0.7-0.1-1.7-0.2-3-0.4c-2.5-0.4-6-1-9.8-1.9s-7.2-1.9-9.6-2.7
		c-1.2-0.4-2.2-0.7-2.9-1c-0.3-0.1-0.7-0.3-1-0.4c0.4,0,0.7,0.1,1.1,0.2l2.9,0.8c2.4,0.7,5.8,1.6,9.6,2.5s7.2,1.6,9.7,2l3,0.5
		C386.5,199.2,386.8,199.2,387.2,199.4z"/>
	<path class="st3" d="M410.7,200.4c-1.1,0.1-2.1,0.1-3.2,0c-2-0.1-4.7-0.3-7.7-0.7s-5.7-0.9-7.7-1.3c-1.1-0.2-2.1-0.5-3.1-0.9
		c1.1,0.1,2.1,0.2,3.2,0.5c2,0.3,4.6,0.8,7.6,1.2s5.7,0.6,7.7,0.8C408.6,200.1,409.7,200.2,410.7,200.4z"/>
	<path class="st3" d="M405.8,213.5c-0.1,0.1-0.3,0.1-0.4,0.2c-0.3,0.1-0.7,0.2-1.2,0.4c-1.5,0.4-3,0.7-4.5,0.9
		c-5,0.7-10.1,0.7-15.1,0.1c-5-0.6-10-1.5-14.9-2.8c-1.9-0.5-3.4-0.9-4.4-1.1c-0.6-0.1-1.1-0.3-1.6-0.5c0.6,0.1,1.1,0.2,1.7,0.3
		l4.5,1c4.9,1.1,9.9,2,14.9,2.6c5,0.6,10,0.6,15,0c1.9-0.2,3.5-0.5,4.5-0.8C404.7,213.6,405.3,213.5,405.8,213.5z"/>
	<path class="st3" d="M428.9,175.9c-1.7,0.3-3.4,0.4-5.1,0.4c-1.7,0.2-3.4,0.1-5.1-0.1c1.7-0.3,3.4-0.4,5.1-0.4
		C425.5,175.6,427.2,175.7,428.9,175.9z"/>
	<path class="st3" d="M427.6,163.8c-1.8,0.2-3.7,0.1-5.5-0.4C423.9,163.2,425.8,163.3,427.6,163.8z"/>
	<path class="st6" d="M385.2,200.2c0-0.1,1-0.6,2.5-1.9c0.9-0.7,1.7-1.5,2.4-2.4c1.7-2.2,3-4.7,3.6-7.4c0.2-1.1,0.4-2.2,0.4-3.4
		c0-1.9-0.2-3.1-0.1-3.2c0.1,0.3,0.2,0.5,0.2,0.8c0.1,0.3,0.1,0.7,0.2,1c0.1,0.4,0.1,0.9,0.1,1.3c0,1.2-0.1,2.3-0.3,3.5
		c-0.6,2.8-1.8,5.4-3.7,7.6c-0.8,0.9-1.6,1.7-2.5,2.4c-0.4,0.3-0.7,0.5-1.1,0.8c-0.3,0.2-0.6,0.3-0.9,0.5
		C385.8,200.1,385.5,200.2,385.2,200.2z"/>
	<g class="st4">
		<path d="M393.8,190.5l-3.9,5.8c-2.6,3.3-6.3,5.6-10.4,6.5c5.7,2,11.9-1,13.9-6.7C394,194.3,394.2,192.4,393.8,190.5L393.8,190.5z"
			/>
	</g>
	<path class="st6" d="M405.3,130.2c3.7,0.3,7.4-0.4,10.7-2.2c-4.8-3-7.9-8.3-9.4-13.8s-3.4-14.8-3.4-20.5l-8.9,39.4
		c4.7,1.1,9.5,0.7,14-1.1C407.2,132,406,131.3,405.3,130.2z"/>
	<path class="st6" d="M380.1,135c-1.9-4.4-2.7-9.3-2.1-14.1l-17.9-6.8c-0.8,4.9-2.8,9.5-5.7,13.4c-1.1,1.5-2.4,3.2-1.9,5
		c0.5,1.2,1.5,2.1,2.8,2.4c1.3,0.2,2.5,0.2,3.8,0l-2.3,2.5C364.4,136,372.2,135.1,380.1,135z"/>
	<path class="st6" d="M381.6,76.2c-5.6-0.6-10.4,1.9-14.9,5.3c-4.5,3.5-7.8,8.4-9.4,13.8c-1.9,5.7-1.8,11.9,0.1,17.6
		c2,5.7,6.3,10.3,11.8,12.8c7.5,3.2,16.7,1.3,22.8-4s9.3-13.7,9.1-21.8c-0.1-5.7-1.9-11.1-5.3-15.7
		C392.4,79.7,387.2,76.8,381.6,76.2"/>
	<path class="st6" d="M367,96.1c0.7-2.2,0.2-4.5,0.4-6.8c0.4-5,4.1-9.3,8.6-11.5c4.2-2.1,9.5-2,14.8-0.7c3.7,0.9,7,2.7,9.7,5.4
		c3.4,3.7,4.8,8.9,3.8,13.8l-25.7-2c-2.1,2.3-4.6,4.1-7.4,5.6c-0.8,0.4-1.7,0.6-2.6,0.6c-1-0.1-1.8-0.7-2.1-1.6
		C366.2,98.1,366.7,97.1,367,96.1z"/>
	<path class="st7" d="M391.8,84.1l-21.9,6.2c-2.1,0.3-3.7,2.2-3.6,4.3l3.4,48.1c0.2,3.3,1.5,6.4,3.7,8.9l2.3,2.6
		c5.2,5.9,15,4.6,18.2-2.6c0.2-0.4,0.3-0.8,0.4-1.3c0.1-0.4,0.1-0.7,0.1-1.1c0.2-2.4,0.2-4.9-0.1-7.3c-0.1-4.3-0.1-6.1-0.1-6
		s9-1.8,10.6-13.6c0.8-5.9,0.2-15.5-0.5-23.4C403.8,91.7,398.8,83.2,391.8,84.1z"/>
	<path class="st6" d="M400.2,106.4c0,0.8-0.6,1.5-1.4,1.6c-0.8,0.1-1.5-0.5-1.6-1.3c0,0,0,0,0,0c0-0.8,0.6-1.5,1.4-1.6
		C399.4,105,400.1,105.5,400.2,106.4C400.2,106.4,400.2,106.4,400.2,106.4z"/>
	<path class="st6" d="M402.4,103.9c-0.2,0.2-1.4-0.6-3-0.6s-2.8,0.9-3,0.7s0.1-0.4,0.6-0.8c0.7-0.5,1.5-0.8,2.4-0.8
		c0.9,0,1.7,0.2,2.4,0.7C402.3,103.4,402.5,103.8,402.4,103.9z"/>
	<path class="st6" d="M384.7,107.2c0,0.8-0.6,1.5-1.4,1.6c-0.8,0.1-1.5-0.5-1.6-1.3c0,0,0,0,0,0c0-0.8,0.6-1.5,1.4-1.6
		C383.9,105.8,384.6,106.4,384.7,107.2C384.7,107.2,384.7,107.2,384.7,107.2z"/>
	<path class="st6" d="M386.4,104.6c-0.2,0.2-1.4-0.6-3-0.6s-2.8,0.9-3,0.7s0.1-0.4,0.6-0.8c0.7-0.5,1.5-0.8,2.4-0.8
		c0.8,0,1.7,0.2,2.4,0.7C386.3,104.2,386.5,104.5,386.4,104.6z"/>
	<path class="st6" d="M392.6,116.6c0.9-0.3,1.7-0.5,2.6-0.6c0.4,0,0.8-0.2,0.9-0.4c0-0.4-0.1-0.9-0.3-1.2l-1.3-3.1
		c-1.8-4.5-3.2-8.2-3-8.2s1.8,3.5,3.6,8l1.3,3.2c0.3,0.5,0.4,1.1,0.3,1.6c-0.1,0.3-0.4,0.5-0.7,0.6c-0.2,0.1-0.5,0.1-0.7,0.1
		C394.4,116.6,393.5,116.6,392.6,116.6z"/>
	<path class="st12" d="M394.3,135.8c-5.6,0.2-11.1-1.1-15.9-3.8c0,0,4.2,8.1,16,6.6L394.3,135.8z"/>
	<path class="st12" d="M392.1,120.5c-0.7-0.8-1.7-1.1-2.7-1c-0.7,0.1-1.4,0.4-1.8,1c-0.5,0.6-0.5,1.4-0.1,2c0.6,0.6,1.4,0.8,2.1,0.5
		c0.8-0.3,1.5-0.7,2.1-1.3c0.2-0.1,0.3-0.3,0.5-0.5C392.3,121,392.3,120.8,392.1,120.5"/>
	<path class="st6" d="M387.9,117.8c0.3,0,0.3,1.8,1.9,3s3.4,1,3.5,1.2s-0.4,0.3-1.2,0.4c-1,0-2.1-0.3-2.9-0.9
		c-0.8-0.6-1.3-1.5-1.4-2.5C387.6,118.2,387.8,117.8,387.9,117.8z"/>
	<path class="st6" d="M386.5,99.7c-0.1,0.4-1.8,0.3-3.7,0.6s-3.4,0.8-3.7,0.4c-0.1-0.2,0.1-0.6,0.8-1.1c0.8-0.5,1.8-0.9,2.7-1
		c1-0.1,2,0,2.9,0.3C386.2,99.1,386.6,99.5,386.5,99.7z"/>
	<path class="st6" d="M401.8,96.8c-0.3,0.4-1.4,0-2.8,0s-2.5,0.3-2.8-0.1c-0.1-0.2,0-0.6,0.5-0.9c1.3-0.9,3.1-0.9,4.5,0
		C401.7,96.2,401.9,96.6,401.8,96.8z"/>
	<path class="st6" d="M362.7,93c1.9-6.9,11.3-16.8,18.5-16.6l11.7,6.3c-0.6,4-3.3,7.4-7.1,8.8c-2,0.7-4.4,1-5.5,2.8
		s-0.3,4.4-1.4,6.2c-1.5,2.6-5.8,2.7-6.8,5.5c-0.5,1.2-0.1,2.6-0.6,3.8c-0.6,1.6-4.5,3.8-6.2,3.3s-1.8-3.3-2.4-4.7
		c-0.8-1.6-0.9-3.5-0.5-5.2C362.9,99.8,361.8,96.3,362.7,93z"/>
	<path class="st7" d="M370.1,114.3c0-0.9-1.1-2.9-2-3c-2.3-0.3-6.5,0-6.4,5.9c0.2,8.1,8.2,6.2,8.2,6S370.2,117.3,370.1,114.3z"/>
	<path class="st12" d="M367.5,120.1c0,0-0.1,0.1-0.4,0.2c-0.3,0.1-0.7,0.1-1,0c-0.9-0.3-1.6-1.6-1.7-3.1c0-0.7,0.1-1.4,0.4-2
		c0.1-0.5,0.5-0.9,1-1.1c0.3-0.1,0.7,0.1,0.8,0.4c0.1,0.2,0.1,0.4,0.1,0.4s0.2-0.1,0.1-0.5c-0.1-0.2-0.2-0.4-0.3-0.5
		c-0.2-0.2-0.5-0.2-0.8-0.2c-0.7,0.2-1.2,0.6-1.4,1.3c-0.3,0.7-0.5,1.5-0.4,2.2c0.1,1.6,0.9,3.1,2.1,3.4c0.4,0.1,0.9,0,1.3-0.2
		C367.5,120.3,367.5,120.2,367.5,120.1z"/>
	<path class="st6" d="M360.8,91L360.8,91c-0.1-2.5-3.4-4-5.9-4.4c-2.5-0.3-5.1,0.4-7.1,1.9c-1.2,0.8-2.5,1.9-2.7,3.3
		s1.3,3.1,2.6,2.5c-2.4,1-3.6,3.8-2.6,6.2c1,2.4,3.8,3.6,6.2,2.6c0.6-0.2,1.1-0.6,1.5-1c-0.5,2.4-1.9,4.5-3.8,6
		c6.6,0.5,12.4-4.5,12.8-11.1C362.1,95,361.7,92.9,360.8,91z"/>
	<path class="st6" d="M346.8,125.5c0-0.4,1-0.6,2.5-1c1.8-0.5,3.5-1.4,5-2.5c1.5-1.2,2.7-2.6,3.6-4.3c0.8-1.3,1.2-2.2,1.6-2.2
		s0.6,1.1,0.2,2.8c-1.2,4.7-5.4,7.9-10.2,8C347.7,126.4,346.7,125.9,346.8,125.5z"/>
	<path class="st3" d="M356.1,104.2c-0.3-0.8-0.4-1.6-0.5-2.4c-0.3-4,0.8-7.9,3-11.2c0.4-0.7,1-1.3,1.6-1.8c-1.5,2.2-2.7,4.7-3.5,7.3
		C356.1,98.7,355.9,101.4,356.1,104.2z"/>
	<path class="st6" d="M390.4,80.4c1,3.2,6.2,7.1,8.5,9.5c4.5,4.6,5.4,6.1,6.1,17c1.7-3.9,3-7.7,2.5-11.9c-0.4-4.3-2.3-8.3-5.4-11.2
		C399,80.9,394.6,79.6,390.4,80.4"/>
	<path class="st7" d="M442.9,174.4c0,0-5.4,22.4-7.6,32c-2.3,10.3-7.5,33.6-21.1,30.2c-10.4-2.6-8.1-16-8.1-16l8.9-30.7l8.2,0.9
		l7.5-18.5l8.1-8.6L442.9,174.4z"/>
	<path class="st12" d="M409.8,221.4c-0.5-1.6-0.5-3.3-0.3-5c0.3-1.8,1-3.5,1.9-5.1c1.2-1.9,2.5-3.7,4-5.4c1.5-1.7,2.8-3.6,4-5.5
		c0.9-1.6,1.8-3.3,2.4-5c0.4-1.2,0.8-2.4,1.1-3.6c0.1-0.4,0.2-0.9,0.2-1.4c-0.2,0.4-0.3,0.8-0.5,1.3c-0.3,0.8-0.7,2-1.3,3.5
		c-0.7,1.7-1.5,3.3-2.5,4.9c-1.2,1.9-2.5,3.7-4,5.4c-1.5,1.7-2.8,3.6-4,5.5c-0.9,1.6-1.6,3.4-1.9,5.2c-0.2,1.3-0.1,2.5,0.2,3.8
		c0.1,0.3,0.2,0.7,0.3,1C409.7,221.3,409.8,221.4,409.8,221.4z"/>
	<path class="st7" d="M430.1,174c0-0.4,0.2-6.9,0.3-8.6c0.1-1.1,0.4-2.1,0.9-3.1c0.7-1.3,2.3-1.8,3.5-1.1c0.2,0.1,0.4,0.2,0.5,0.4
		l0.1,0.1c0.8-1.5,1.9-2.8,3.2-3.9c1.9-1.2,3.5-2.1,5.1-1.1c0.9,0.5,1.5,1.4,1.6,2.4c0,0,2.4-0.3,3.5,0.6s0,3.9,0,3.9
		s2.2-0.7,2.7,0.9c0.3,1.1,0.1,2.2-0.5,3.2c0,0,1.7,0.5,1.9,1.8s-1.7,2.6-1.7,2.6l-5.9,4.7c-0.8,2.5-2.4,4.6-4.6,6
		C436.8,184.5,430.1,174,430.1,174z"/>
	<path class="st12" d="M434.6,166.9c0.1,0,0,0.2-0.1,0.6c-0.2,0.4-0.6,0.7-1,0.9c-0.4,0.1-0.9,0.1-1.4,0c-0.3-0.1-0.5-0.3-0.5-0.3
		s0.8,0.1,1.6-0.2S434.5,166.8,434.6,166.9z"/>
	<path class="st12" d="M439.3,161.1c-0.1,0.1-0.7-0.3-0.8-1.1s0.3-1.3,0.5-1.2s0,0.6,0.1,1.1S439.4,161,439.3,161.1z"/>
	<path class="st12" d="M449.2,163.6c0,0-0.4,0.6-1.3,1.4c-1.2,1-2.4,1.9-3.7,2.7c-0.7,0.5-1.5,0.9-2.4,1.1c-0.8,0.1-1.5-0.2-2-0.8
		c-0.3-0.4-0.4-1-0.2-1.5c0.2-0.3,0.4-0.4,0.4-0.4s-0.1,0.2-0.2,0.4c-0.1,0.4,0,0.8,0.3,1.2c0.4,0.4,1.1,0.6,1.7,0.5
		c0.8-0.2,1.5-0.6,2.1-1.1c1.5-1,2.8-1.9,3.8-2.6C448.2,164.3,448.7,163.9,449.2,163.6z"/>
	<path class="st12" d="M451.1,167.8c-1.8,1.1-3.7,2.1-5.6,2.9c-0.8,0.4-1.6,0.7-2.5,0.7c-0.8,0-1.5-0.4-1.8-1.1
		c-0.1-0.3-0.1-0.6,0-0.9c0.1-0.2,0.2-0.4,0.4-0.5c0.3-0.2,0.5-0.1,0.5-0.1s-0.2,0-0.4,0.2c-0.3,0.3-0.4,0.7-0.2,1
		c0.3,0.5,0.9,0.8,1.5,0.8c0.8-0.1,1.5-0.3,2.2-0.7C447.2,169.2,449.1,168.4,451.1,167.8z"/>
	<path class="st12" d="M448.2,173.1c0,0.1-0.3,0.3-1,0.5c-0.4,0.1-0.8,0.1-1.2,0.1c-0.5,0-1-0.1-1.5-0.3c-0.3-0.2-0.5-0.5-0.4-0.9
		c0-0.3,0.1-0.5,0.3-0.7c0.2-0.3,0.5-0.6,0.9-0.8c0.5-0.4,0.9-0.5,1-0.5s-0.3,0.3-0.7,0.8c-0.3,0.3-0.5,0.5-0.7,0.8
		c-0.2,0.3-0.3,0.7,0,0.8c0.4,0.2,0.8,0.3,1.2,0.3c0.4,0,0.7,0,1.1,0C447.8,173.2,448.2,173.1,448.2,173.1z"/>
	<path class="st6" d="M442.6,174.1c0.1-2.7-2-4.9-4.7-5s-4.9,2-5,4.7c-0.1,2.2,1.4,4.2,3.5,4.8l0,1.4l1.3,1l-1.4,0.8l-0.1,1.7l1.3,1
		l-1.4,0.8l0,1.4l0.8,0.6l-0.8,0.5v0.9l1,1.1l2-1.2l0.4-10C441.4,177.8,442.6,176.1,442.6,174.1z M437.9,170.4
		c0.8,0,1.4,0.7,1.3,1.4c0,0.8-0.7,1.4-1.4,1.3c-0.8,0-1.4-0.7-1.3-1.4C436.5,171,437.1,170.4,437.9,170.4
		C437.9,170.4,437.9,170.4,437.9,170.4z"/>
	<path class="st13" d="M442.6,174.1c0.1-2.7-2-4.9-4.7-5s-4.9,2-5,4.7c-0.1,2.2,1.4,4.2,3.5,4.8l0,1.4l1.3,1l-1.4,0.8l-0.1,1.7
		l1.3,1l-1.4,0.8l0,1.4l0.8,0.6l-0.8,0.5v0.9l1,1.1l2-1.2l0.4-10C441.4,177.8,442.6,176.1,442.6,174.1z M437.9,170.4
		c0.8,0,1.4,0.7,1.3,1.4c0,0.8-0.7,1.4-1.4,1.3c-0.8,0-1.4-0.7-1.3-1.4C436.5,171,437.1,170.4,437.9,170.4
		C437.9,170.4,437.9,170.4,437.9,170.4z"/>
	<path class="st6" d="M437.9,170.4c0,0-0.1,0-0.3,0.1c-0.3,0.1-0.6,0.2-0.8,0.5c-0.4,0.6-0.3,1.4,0.3,1.9c0.6,0.4,1.4,0.3,1.9-0.3
		c0.3-0.5,0.4-1.1,0-1.6c-0.2-0.3-0.4-0.4-0.7-0.5C438.1,170.4,438,170.4,437.9,170.4L437.9,170.4c0.2,0,0.3,0,0.4,0
		c0.3,0.1,0.6,0.3,0.8,0.5c0.3,0.4,0.4,0.9,0.2,1.4c-0.1,0.3-0.3,0.5-0.5,0.6c-0.3,0.2-0.6,0.3-0.9,0.2c-0.3,0-0.6-0.1-0.9-0.3
		c-0.2-0.2-0.4-0.4-0.5-0.7c-0.1-0.5,0-1,0.3-1.4c0.2-0.2,0.5-0.4,0.8-0.5C437.7,170.3,437.7,170.3,437.9,170.4L437.9,170.4z"/>
	<path class="st6" d="M442.6,174.1v0.1v0.3c0,0.4-0.1,0.7-0.2,1.1c-0.2,0.6-0.5,1.1-0.9,1.5c-0.5,0.6-1.2,1.1-2,1.4l0,0
		c-0.1,2.6-0.2,6-0.4,10l0,0l0,0l-2,1.2l0,0l0,0l-1-1.1l0,0c0-0.3,0-0.6,0-0.9l0,0l0,0l0.8-0.5v0.1l-0.8-0.6l0,0l0,0
		c0-0.4,0-1,0-1.4l0,0l0,0l1.4-0.8v0.1l-1.3-1l0,0V183c0-0.4,0-0.8,0-1.2l0,0l0,0l1.4-0.8v0.1l-1.3-1l0,0l0,0c0-0.5,0-0.9,0-1.4v0.1
		c-0.7-0.2-1.4-0.6-2-1.1c-0.3-0.3-0.5-0.5-0.7-0.9c-1-1.5-1.1-3.4-0.3-5c1.2-2.4,4.2-3.3,6.5-2.1c0.6,0.3,1.1,0.7,1.5,1.2
		c0.4,0.5,0.7,1.1,0.9,1.7l0.1,0.2v0.2c0,0.1,0,0.2,0.1,0.3s0,0.4,0,0.5v0.2C442.6,174,442.6,174.1,442.6,174.1l-0.1-0.4
		c0-0.1,0-0.3-0.1-0.5c0-0.1,0-0.2-0.1-0.3v-0.2l-0.1-0.2c-0.2-0.6-0.5-1.2-0.9-1.7c-0.6-0.7-1.3-1.2-2.1-1.4
		c-2.5-0.8-5.2,0.5-6.1,3c-0.4,1.1-0.3,2.2,0.1,3.3c0.1,0.4,0.3,0.7,0.5,1c0.2,0.3,0.4,0.6,0.7,0.8c0.6,0.5,1.2,0.9,2,1.1h0l0,0
		c0,0.4,0,0.9,0,1.4l0,0l1.3,1h0.1l-0.1,0.1l-1.4,0.8v-0.1c0,0.4,0,0.8,0,1.2v0.4l0,0l1.3,1l0.1,0.1h-0.1l-1.4,0.8l0,0
		c0,0.5,0,1,0,1.4l0,0l0.8,0.6l0.1,0.1h-0.1l-0.8,0.5l0,0c0,0.3,0,0.6,0,0.8l0,0l1,1.1h-0.1l2-1.2v0.1c0.2-4,0.3-7.4,0.4-10l0,0l0,0
		c0.7-0.3,1.4-0.7,1.9-1.3c0.4-0.4,0.7-1,0.9-1.5c0.1-0.3,0.2-0.7,0.3-1.1v-0.3C442.7,174.3,442.7,174.2,442.6,174.1z"/>
	<path class="st3" d="M442.1,173.8c0.1-2.7-2-4.9-4.7-5c-2.7-0.1-4.9,2-5,4.7c-0.1,2.2,1.4,4.3,3.6,4.9l0,0l0,1.3l1.3,1l-1.4,0.8
		l-0.1,1.7l1.3,1l-1.4,0.8l-0.1,1.4l0.8,0.6l-0.9,0.5v0.8l1,1.1l2-1.2l0.4-10C440.8,177.5,442.1,175.8,442.1,173.8z M437.4,170.1
		c0.8,0,1.4,0.7,1.3,1.4c0,0,0,0,0,0c0,0.8-0.7,1.4-1.4,1.3c-0.8,0-1.4-0.7-1.3-1.4l0,0C436,170.7,436.6,170.1,437.4,170.1z"/>
	<path class="st13" d="M442.1,173.8c0.1-2.7-2-4.9-4.7-5c-2.7-0.1-4.9,2-5,4.7c-0.1,2.2,1.4,4.3,3.6,4.9l0,0l0,1.3l1.3,1l-1.4,0.8
		l-0.1,1.7l1.3,1l-1.4,0.8l-0.1,1.4l0.8,0.6l-0.9,0.5v0.8l1,1.1l2-1.2l0.4-10C440.8,177.5,442.1,175.8,442.1,173.8z M437.4,170.1
		c0.8,0,1.4,0.7,1.3,1.4c0,0,0,0,0,0c0,0.8-0.7,1.4-1.4,1.3c-0.8,0-1.4-0.7-1.3-1.4l0,0C436,170.7,436.6,170.1,437.4,170.1z"/>
	<path class="st6" d="M437.4,170.1c-0.1,0-0.2,0-0.3,0c-0.3,0.1-0.6,0.2-0.8,0.5c-0.3,0.4-0.4,0.8-0.2,1.3c0.2,0.5,0.7,0.9,1.2,0.9
		c0.6,0,1.1-0.3,1.3-0.8c0.3-0.7,0-1.5-0.7-1.8c0,0-0.1,0-0.1,0C437.6,170.1,437.5,170.1,437.4,170.1L437.4,170.1
		c0.2-0.1,0.3-0.1,0.3-0.1c0.3,0.1,0.6,0.3,0.8,0.5c0.5,0.7,0.3,1.5-0.4,2c-0.3,0.2-0.6,0.3-0.9,0.2c-0.3,0-0.6-0.1-0.8-0.3
		c-0.2-0.1-0.4-0.3-0.5-0.5c-0.2-0.8,0.2-1.6,0.9-1.8c0,0,0.1,0,0.1,0C437.2,170.2,437.3,170.2,437.4,170.1L437.4,170.1z"/>
	<path class="st6" d="M442.1,173.8v0.1v0.3c0,0.4-0.1,0.7-0.2,1.1c-0.2,0.6-0.5,1.1-0.9,1.5c-0.5,0.6-1.2,1.1-2,1.4l0,0
		c-0.1,2.6-0.2,6-0.4,10l0,0l0,0l-2,1.2l0,0l0,0l-1-1.1l0,0l0,0c0-0.3,0-0.6,0-0.8l0,0l0,0l0.8-0.5v0.1l-0.8-0.6l0,0l0,0
		c0-0.5,0-0.9,0-1.4l0,0l0,0l1.4-0.8v0.1l-1.3-1l0,0l0,0v-0.4c0-0.4,0-0.8,0-1.2l0,0l0,0l1.4-0.8v0.1l-1.3-1l0,0l0,0
		c0-0.4,0-0.9,0-1.4v0.1c-0.7-0.2-1.4-0.6-2-1.1c-0.3-0.3-0.5-0.5-0.7-0.9c-0.2-0.3-0.4-0.6-0.5-1c-1-2.5,0.3-5.4,2.8-6.3
		c0.1,0,0.1,0,0.2-0.1c1-0.3,2.1-0.3,3.2,0c0.8,0.2,1.5,0.6,2.1,1.2c0.4,0.5,0.7,1.1,0.9,1.7l0.1,0.2v0.2c0,0.1,0,0.2,0.1,0.3
		s0,0.4,0,0.5L442.1,173.8c0,0,0-0.1,0-0.1v-0.3c0-0.1,0-0.3,0-0.5s0-0.2-0.1-0.3v-0.2l-0.1-0.2c-0.2-0.6-0.5-1.2-0.9-1.7
		c-0.6-0.7-1.3-1.2-2.1-1.4c-1-0.3-2.1-0.3-3.1,0c-1.2,0.4-2.1,1.2-2.7,2.3c-0.6,1.2-0.7,2.7-0.2,3.9c0.1,0.4,0.3,0.7,0.5,1
		c0.2,0.3,0.4,0.6,0.7,0.8c0.6,0.5,1.2,0.9,2,1.1h0v0.1c0,0.4,0,0.9,0,1.4v-0.1c0.4,0.3,0.9,0.7,1.3,1l0.1,0.1h-0.1l-1.4,0.8v-0.1
		c0,0.4,0,0.8,0,1.2c0,0.1,0,0.3,0,0.4l0,0l1.3,1h0.1l-0.1,0.1l-1.4,0.8l0,0c0,0.5,0,1-0.1,1.4l0,0l0.8,0.6l0.1,0.1h-0.1l-0.9,0.5
		l0,0c0,0.3,0,0.6,0,0.8l0,0l1,1.1h-0.1l2-1.2v0.1c0.1-4,0.3-7.4,0.4-10l0,0l0,0c0.7-0.3,1.4-0.8,2-1.4c0.4-0.5,0.7-1,0.9-1.5
		c0.1-0.3,0.2-0.7,0.3-1.1v-0.3C442.1,174.1,442.1,173.9,442.1,173.8z"/>
	<path class="st6" d="M441.5,173.9c0-0.3-0.1-0.7-0.1-1c-0.1-0.4-0.2-0.8-0.4-1.1c-0.3-0.5-0.6-0.9-1-1.2c-1.1-0.9-2.6-1.2-4-0.7
		c-0.4,0.1-0.8,0.3-1.1,0.5c-0.2,0.1-0.3,0.2-0.5,0.4c-0.2,0.1-0.3,0.3-0.4,0.5c-1.2,1.4-1.2,3.5-0.2,5c0.1,0.2,0.3,0.3,0.4,0.5
		c0.1,0.2,0.3,0.3,0.5,0.4c0.3,0.3,0.6,0.5,1,0.6c0.7,0.3,1.5,0.4,2.2,0.3c0.6-0.1,1.3-0.3,1.8-0.7c0.4-0.3,0.8-0.7,1.1-1.2
		c0.2-0.3,0.4-0.7,0.5-1.1C441.4,174.7,441.5,174.3,441.5,173.9l0,0.4c0,0.1,0,0.2,0,0.3s0,0.3-0.1,0.4c-0.1,0.4-0.3,0.8-0.5,1.1
		c-0.3,0.5-0.7,0.9-1.1,1.2c-0.5,0.4-1.2,0.6-1.8,0.7c-0.8,0.1-1.5,0-2.3-0.3c-0.4-0.2-0.7-0.4-1.1-0.6c-0.2-0.1-0.3-0.3-0.5-0.4
		c-0.1-0.2-0.3-0.3-0.4-0.5c-1.1-1.6-1-3.6,0.2-5.1c0.1-0.2,0.3-0.3,0.4-0.5c0.2-0.1,0.3-0.3,0.5-0.4c1-0.7,2.2-0.9,3.4-0.6
		c0.7,0.1,1.3,0.4,1.8,0.9c0.4,0.4,0.8,0.8,1,1.3c0.2,0.4,0.3,0.8,0.4,1.2c0,0.1,0.1,0.3,0.1,0.4c0,0.1,0,0.2,0,0.3v0.3L441.5,173.9
		z"/>
	<path class="st6" d="M439,171.6c0-0.1,0-0.3-0.1-0.4c-0.1-0.4-0.3-0.7-0.6-0.9c-0.2-0.2-0.4-0.3-0.7-0.3c-0.3-0.1-0.6,0-0.8,0.1
		c-0.3,0.1-0.6,0.3-0.8,0.5c-0.2,0.3-0.3,0.6-0.3,0.9c0,0.7,0.4,1.3,1,1.5c0.5,0.2,1.1,0.1,1.5-0.2c0.3-0.2,0.5-0.5,0.6-0.9
		C439,171.8,439,171.7,439,171.6c0,0,0,0,0,0.1c0,0.1,0,0.2,0,0.3c-0.1,0.4-0.3,0.7-0.6,0.9c-0.2,0.2-0.5,0.3-0.7,0.3
		c-0.6,0.1-1.3-0.2-1.6-0.7c-0.2-0.3-0.3-0.6-0.3-1c0-0.4,0.1-0.7,0.4-1c0.2-0.3,0.5-0.5,0.8-0.6c0.3-0.1,0.6-0.1,0.9,0
		c0.3,0.1,0.5,0.2,0.7,0.3c0.3,0.3,0.5,0.6,0.5,1C439,171.4,439,171.5,439,171.6C439,171.6,439,171.6,439,171.6z"/>
	<path class="st6" d="M438,188.4c0,0,0-2.3,0.1-5.1s0.2-5.1,0.2-5.1s0,2.3-0.1,5.1S438,188.4,438,188.4z"/>
	<path class="st0" d="M437.8,170.6c-0.2,0.1-0.4,0.1-0.6,0v-6.1l0.6,0.1V170.6z"/>
	<path class="st6" d="M437.5,170.7c-0.1,0-0.2,0-0.3-0.1l0,0v-6.2l0.7,0.1v6.1l0,0C437.8,170.7,437.6,170.7,437.5,170.7z
		 M437.2,170.6c0.2,0.1,0.4,0.1,0.6,0v-6.1h-0.6L437.2,170.6z"/>
	<path class="st7" d="M435,161.4c0.5,0.5,1.1,0.9,1.7,1.3c0.6,0.4,1,1.1,1.1,1.8c-0.1,0.7-0.6,1.4-1.3,1.7c-1.9,1-4.4,0.3-5.4-1.6
		c0,0,0,0,0,0"/>
	<path class="st12" d="M431.1,164.6c0.4,0.4,0.9,0.9,1.4,1.2c0.5,0.3,1.2,0.6,1.8,0.6c0.8,0.1,1.6-0.1,2.2-0.5c0.7-0.3,1.1-1,1-1.7
		c-0.2-0.6-0.6-1.1-1.1-1.4c-1-0.6-1.5-1.2-1.4-1.3s0.6,0.4,1.6,0.9c0.6,0.4,1.1,0.9,1.4,1.6c0.1,0.5,0,0.9-0.2,1.3
		c-0.2,0.4-0.6,0.8-1,1c-0.8,0.4-1.7,0.6-2.6,0.5c-0.7-0.1-1.4-0.3-2-0.8C431.3,165.3,431.1,164.6,431.1,164.6z"/>
	<path class="st7" d="M441.2,158.9c-1.2,1.3-2.2,2.8-3,4.4c-0.3,0.5-0.4,1-0.5,1.6c0,0.6,0.3,1.1,0.7,1.4c0.4,0.2,0.9,0.2,1.4,0
		c0.4-0.2,0.8-0.5,1.1-0.8c1.4-1.3,2.6-2.6,3.7-4.1c0.3-0.3,0.5-0.7,0.7-1.2c0.2-0.4,0.1-0.9-0.1-1.3"/>
	<path class="st12" d="M445.3,158.8c0,0,0.2,0.2,0.3,0.7c0,0.7-0.3,1.4-0.8,2c-0.6,0.9-1.3,1.7-2,2.5c-0.4,0.4-0.8,0.9-1.3,1.3
		c-0.5,0.5-1.1,0.9-1.7,1.2c-0.4,0.1-0.8,0.1-1.1,0c-0.4-0.1-0.7-0.4-0.9-0.8c-0.3-0.6-0.3-1.4,0-2c0.4-1,1-1.9,1.6-2.8
		c0.5-0.8,1.2-1.5,1.9-2.2c-0.5,0.8-1,1.6-1.6,2.4c-0.6,0.8-1.1,1.8-1.4,2.7c-0.2,0.5-0.2,1.1,0,1.6c0.3,0.5,0.9,0.7,1.4,0.5
		c0.6-0.3,1.1-0.6,1.5-1.1c0.5-0.4,0.9-0.9,1.3-1.3c0.8-0.9,1.5-1.6,2-2.4c0.5-0.5,0.8-1.1,0.9-1.8
		C445.3,159.3,445.3,159,445.3,158.8z"/>
</g>
<g id="freepik--Floor--inject-4">
	<path class="st6" d="M461,480.2c0,0.1-97.2,0.3-217,0.3s-217-0.1-217-0.3s97.2-0.3,217-0.3S461,480,461,480.2z"/>
</g>
<g id="freepik--Plant--inject-4">
	<path class="st3" d="M83.7,342.5c9.5-14.6,9.2-35.8-2.2-49c-3.5-4.1-8.5-7.6-13.8-7.2s-9.9,5.2-11.6,10.5s-1.1,11-0.1,16.4
		c1.4,7.6,3.7,15.4,9,21.1S76.9,346.2,83.7,342.5"/>
	<path class="st3" d="M79.4,412c3.5-8.7,1.1-18.6-6.1-24.7c-2.2-1.8-5-3.2-7.8-2.4s-4.7,3.6-5,6.4c-0.2,2.9,0.3,5.8,1.4,8.5
		c1.4,3.8,3.3,7.6,6.5,10S76.3,414.5,79.4,412"/>
	<path class="st3" d="M102.4,407c-2.6-12.9,4.2-27.1,15.9-33.2c3.6-1.9,8.1-3,11.8-1.2s5.5,6.4,5.2,10.6s-2.3,8-4.5,11.6
		c-3.1,5-6.9,9.8-12.2,12.3S106.1,411.6,102.4,407"/>
	<path class="st3" d="M100.7,372.1c-4.6-14.7,3.2-32.5,16-41c4-2.6,9.1-4.4,13.5-2.7s7.2,6.8,7.3,11.7s-1.7,9.6-3.9,14
		c-3,6.1-6.9,12.2-12.8,15.8S105.6,376.9,100.7,372.1"/>
	<path class="st6" d="M91.6,444c0.1-0.2,0.1-0.5,0.1-0.7c0.1-0.5,0.2-1.2,0.3-2c0.1-0.5,0.1-1,0.2-1.5s0.2-1.1,0.3-1.8
		c0.2-1.3,0.5-2.7,0.9-4.2c0.2-0.8,0.4-1.6,0.6-2.5s0.5-1.7,0.8-2.6c0.5-1.8,1.2-3.7,1.9-5.7c3.2-8.7,7.6-16.8,13-24.3
		c1.3-1.7,2.5-3.3,3.7-4.7c0.6-0.7,1.2-1.4,1.8-2.1l1.8-1.9c1.1-1.2,2.1-2.2,3-3.1l1.3-1.2l1.1-1l1.5-1.4c0.2-0.2,0.4-0.3,0.5-0.5
		c-0.2,0.1-0.4,0.3-0.6,0.4l-1.6,1.3l-1.2,1l-1.3,1.2c-0.9,0.9-2,1.9-3.1,3l-1.8,1.8c-0.6,0.7-1.2,1.4-1.8,2.1
		c-1.3,1.4-2.5,3.1-3.8,4.7c-2.7,3.7-5.2,7.7-7.4,11.7c-2.2,4.1-4.1,8.3-5.7,12.7c-0.7,2-1.4,3.9-1.8,5.8c-0.3,0.9-0.5,1.8-0.7,2.6
		s-0.4,1.7-0.6,2.5c-0.4,1.6-0.6,3-0.8,4.3c-0.1,0.6-0.2,1.2-0.3,1.8s-0.1,1-0.2,1.5c-0.1,0.8-0.1,1.5-0.2,2.1
		C91.5,443.5,91.5,443.7,91.6,444z"/>
	<path class="st6" d="M91.9,446.7c0-0.1,0-0.2,0-0.3c0-0.2,0-0.5-0.1-0.9c-0.1-0.8-0.2-1.9-0.3-3.3c-0.1-0.7-0.2-1.5-0.2-2.4
		s-0.1-1.8-0.1-2.8c-0.1-2-0.3-4.3-0.2-6.9c0-1.3,0-2.6,0-4s0.1-2.8,0.2-4.3c0.1-3,0.5-6.2,0.9-9.5c1.9-14.5,6-28.6,12.4-41.8
		c1.5-3,2.9-5.9,4.5-8.4c0.8-1.3,1.4-2.6,2.2-3.7l2.2-3.4c1.3-2.2,2.7-4,3.9-5.6c0.6-0.8,1.1-1.6,1.7-2.3l1.5-1.9l2-2.6l0.5-0.7
		c0.1-0.1,0.2-0.2,0.2-0.2s-0.1,0.1-0.2,0.2l-0.6,0.6l-2.1,2.5l-1.5,1.8c-0.5,0.7-1.1,1.4-1.7,2.2c-1.2,1.6-2.6,3.5-4,5.6l-2.2,3.4
		c-0.8,1.2-1.4,2.5-2.2,3.7c-1.6,2.6-3,5.5-4.5,8.5c-6.4,13.2-10.6,27.4-12.4,41.9c-0.3,3.4-0.7,6.5-0.8,9.5c-0.1,1.5-0.2,3-0.2,4.3
		s0,2.7,0,4c0,2.5,0.2,4.9,0.3,6.9c0.1,1,0.1,2,0.2,2.8s0.2,1.6,0.3,2.4c0.2,1.4,0.3,2.5,0.4,3.3c0.1,0.3,0.1,0.6,0.1,0.8
		C91.8,446.5,91.9,446.6,91.9,446.7z"/>
	<path class="st6" d="M67.1,303.9c0,0.1,0.1,0.2,0.1,0.3c0.1,0.2,0.2,0.5,0.4,0.8l1.6,2.9c0.3,0.6,0.8,1.3,1.2,2.1l1.3,2.6l1.5,2.9
		c0.5,1,1,2.2,1.5,3.4s1.1,2.4,1.6,3.7s1,2.7,1.6,4.1l0.8,2.2c0.2,0.8,0.5,1.5,0.8,2.3c0.5,1.5,1,3.1,1.6,4.7
		c2,6.5,3.9,13.8,5.5,21.5s2.7,15.2,3.5,21.9s1.2,12.9,1.3,18.1c0.1,2.6,0.2,4.9,0.2,7s0,3.8,0,5.3s0,2.5,0,3.3v0.9
		c0,0.2,0,0.3,0,0.3c0-0.1,0-0.2,0-0.3c0-0.2,0-0.5,0.1-0.9c0-0.8,0.1-1.9,0.2-3.3s0.1-3.2,0.1-5.3s0-4.4-0.1-7
		c-0.1-5.2-0.6-11.3-1.2-18.1s-1.9-14.3-3.4-22s-3.6-15-5.6-21.5l-1.6-4.8c-0.3-0.8-0.5-1.5-0.8-2.3l-0.8-2.2l-1.6-4.1
		c-0.5-1.3-1.1-2.5-1.7-3.7s-1-2.3-1.5-3.4s-1-2-1.5-2.9s-0.9-1.8-1.3-2.5s-0.9-1.5-1.2-2.1l-1.7-2.9c-0.2-0.3-0.3-0.5-0.5-0.7
		S67.1,303.9,67.1,303.9z"/>
	<path class="st6" d="M70.4,393.2c0.3,0.6,0.6,1.2,1,1.8c0.7,1.1,1.7,2.8,2.8,4.8s2.4,4.6,3.6,7.4s2.4,6,3.5,9.5s1.8,6.7,2.4,9.8
		s1,5.8,1.2,8.1s0.4,4.2,0.4,5.5c0,0.7,0.1,1.3,0.2,2c0.1-0.7,0.1-1.3,0.1-2c0-1.3,0-3.2-0.2-5.6c-0.2-2.8-0.6-5.5-1.1-8.2
		c-0.6-3.3-1.4-6.6-2.4-9.9c-1-3.2-2.2-6.4-3.6-9.5c-1.3-2.8-2.6-5.3-3.7-7.4s-2.2-3.7-3-4.7C71.2,394.3,70.8,393.7,70.4,393.2z"/>
	<polygon class="st9" points="110.3,437.5 68.4,437.5 73.5,480.2 105.1,480.2 	"/>
	<polygon class="st9" points="108.7,475.6 105.2,480.2 73.5,480.2 69.9,475.7 	"/>
	<path class="st1" d="M70.1,450c0,0.2,8.7,0.3,19.4,0.3s19.4-0.1,19.4-0.3s-8.7-0.3-19.4-0.3S70.1,449.9,70.1,450z"/>
	<path class="st1" d="M70.1,452.9c0,0.2,8.7,0.3,19.4,0.3s19.4-0.1,19.4-0.3s-8.7-0.3-19.4-0.3S70.1,452.7,70.1,452.9z"/>
	<path class="st1" d="M70.6,455.6c0,0.2,8.4,0.3,18.7,0.3s18.7-0.1,18.7-0.3s-8.4-0.3-18.7-0.3S70.6,455.5,70.6,455.6z"/>
	<path class="st6" d="M103.9,345.4c0,0.1,0,0.3,0,0.4c0,0.3,0.1,0.7,0.1,1.2c0.1,1.1,0.2,2.5,0.4,4.2c0.4,3.6,0.9,8.5,1.6,14
		c0,0.2,0,0.4,0.1,0.6v0.2h0.2c5.4,0.1,10.2,0.1,13.7,0.1h4.1h1.1c0.3,0,0.4,0,0.4,0c-0.1,0-0.3,0-0.4,0l-1.1,0l-4.1-0.1
		c-3.5-0.1-8.3-0.2-13.7-0.3l0.2,0.2c0-0.2,0-0.4-0.1-0.6c-0.6-5.5-1.2-10.4-1.7-14c-0.2-1.7-0.4-3.2-0.6-4.2
		c-0.1-0.5-0.1-0.8-0.2-1.1C103.9,345.7,103.9,345.6,103.9,345.4z"/>
	<path class="st6" d="M113.4,332.7c0,0.1,0,0.3,0,0.4c0,0.3,0,0.7,0,1.2c0,1.1,0,2.6,0,4.4c0.1,3.7,0.2,8.9,0.3,14.5
		c0,0.2,0,0.5,0,0.7v0.2h0.2c4.7-0.4,9.4-0.5,14.1-0.3c1.8,0,3.2,0.1,4.2,0.2h1.1h0.4c0,0-0.1,0-0.4-0.1l-1.1-0.1
		c-1-0.1-2.4-0.2-4.2-0.3c-4.7-0.2-9.4-0.2-14.1,0.2l0.2,0.2c0-0.2,0-0.4,0-0.7c-0.1-5.7-0.3-10.8-0.4-14.5
		c-0.1-1.8-0.1-3.3-0.2-4.4c0-0.5,0-0.9-0.1-1.2C113.4,332.9,113.4,332.8,113.4,332.7z"/>
	<path class="st6" d="M124.5,328.3c-0.1,0.4-0.2,0.8-0.3,1.2c-0.2,0.9-0.4,2-0.6,3.4c-0.5,2.8-1.4,6.8-2.6,11l-0.1,0.5l0.4-0.2
		l0.5-0.2c3.5-1.7,7.3-2.8,11.2-3.2c1.5-0.2,2.7-0.2,3.5-0.3c0.4,0,0.9,0,1.3-0.1c-0.1,0-0.2,0-0.3,0c-0.2,0-0.6,0-1,0
		c-1.2,0-2.4,0-3.6,0.1c-3.9,0.4-7.7,1.5-11.3,3.2l-0.5,0.2l0.3,0.2c1-3.7,1.8-7.4,2.5-11.1c0.2-1.4,0.4-2.6,0.5-3.4
		C124.5,329.2,124.5,328.8,124.5,328.3z"/>
	<path class="st6" d="M65.5,406.2c0,0.1,1.2-0.1,3.2-0.1c2.5-0.1,5.1,0,7.6,0.2c0.6,0.1,1.2,0.1,1.8,0.2h0.2v-0.2
		c0.5-2.5,0.8-4.8,1.1-6.4c0.2-0.9,0.3-1.7,0.3-2.6c-0.3,0.8-0.5,1.7-0.6,2.5c-0.3,1.6-0.8,3.8-1.2,6.3l0.2-0.2
		c-0.6-0.1-1.2-0.2-1.8-0.2c-2.5-0.3-5.1-0.3-7.7-0.1c-1,0.1-1.8,0.2-2.3,0.3C66,406,65.7,406.1,65.5,406.2z"/>
	<path class="st6" d="M61.5,398.3c0,0.1,1.2-0.2,3.1-0.4c2.5-0.3,5-0.3,7.4-0.1l1.3,0.2h0.2v-0.2c0.3-2.6,0.5-4.9,0.6-6.6
		c0.1-0.9,0.2-1.8,0.1-2.7c-0.2,0.9-0.3,1.8-0.4,2.6c-0.2,1.6-0.5,4-0.8,6.5l0.2-0.2l-1.3-0.1c-2.5-0.3-5-0.2-7.5,0.2
		c-0.8,0.1-1.5,0.3-2.2,0.5C62,398.1,61.8,398.2,61.5,398.3z"/>
	<path class="st6" d="M58.7,324c0.1,0.1,0.3,0.2,0.4,0.2l1.2,0.5l4.5,1.9l15,6.2l0.8,0.3l0.2,0.1l0.1-0.2c2.5-5.6,4.7-10.6,6.3-14.3
		l1.9-4.3l0.5-1.2c0.1-0.1,0.1-0.3,0.1-0.4c-0.1,0.1-0.2,0.3-0.2,0.4c-0.2,0.3-0.3,0.7-0.6,1.1l-2,4.3l-6.4,14.2l0.3-0.1l-0.8-0.3
		l-15-6.1l-4.6-1.8l-1.2-0.5C59,324.1,58.9,324,58.7,324z"/>
	<path class="st6" d="M55,305.9c0.1,0.1,0.2,0.2,0.4,0.3l1.1,0.7l4.1,2.5l13.6,8.3l0.2,0.1l0.1-0.2l0.2-0.7l5.7-15.4
		c0.7-1.9,1.3-3.5,1.7-4.7l0.4-1.3c0.1-0.1,0.1-0.3,0.1-0.5c-0.1,0.1-0.1,0.3-0.2,0.4l-0.5,1.2c-0.4,1.1-1.1,2.7-1.8,4.6
		c-1.5,4-3.6,9.4-5.8,15.4c-0.1,0.2-0.2,0.5-0.2,0.6l0.3-0.1l-13.7-8.2l-4.2-2.4l-1.1-0.6C55.3,306,55.2,306,55,305.9z"/>
	<path class="st6" d="M56.2,296.3c0.3,0.2,0.6,0.4,0.9,0.5c0.6,0.3,1.4,0.8,2.5,1.5c2.7,1.7,5.3,3.7,7.6,5.9l0.5,0.5l-0.2-0.7
		c-0.2-0.7-0.3-1.5-0.5-2.3c-0.6-3.7-0.4-7.5,0.6-11.1c0.3-1.1,0.7-2.2,1.1-3.2c0.2-0.4,0.3-0.8,0.4-1.2c-0.2,0.4-0.4,0.7-0.6,1.1
		c-0.5,1-0.9,2.1-1.2,3.2c-1.1,3.7-1.3,7.5-0.7,11.3c0.1,0.8,0.3,1.6,0.5,2.4l0.3-0.2c-2.3-2.3-4.9-4.3-7.7-5.9
		c-1.1-0.6-1.9-1.1-2.5-1.3C56.9,296.5,56.6,296.4,56.2,296.3z"/>
	<path class="st6" d="M103.9,390c0,0.4,0.1,0.7,0.2,1.1c0.1,0.7,0.3,1.7,0.6,2.9c0.6,3.3,1,6.6,1.1,9.9v0.2h0.2h0.9
		c4.2,0.2,7.9,0.5,10.6,0.6l3.2,0.1c0.4,0,0.8,0,1.2,0c-0.4-0.1-0.8-0.1-1.2-0.1l-3.2-0.3c-2.7-0.2-6.5-0.5-10.6-0.7l-0.9,0l0.2,0.2
		c-0.1-3.3-0.6-6.6-1.2-9.9c-0.3-1.2-0.5-2.2-0.7-2.9C104.2,390.7,104.1,390.3,103.9,390z"/>
	<path class="st6" d="M112.1,378.3c0,0.4,0,0.7,0.1,1.1c0.1,0.8,0.2,1.8,0.3,3c0.3,2.5,0.8,6,1.3,9.9v0.2h0.2l1.3,0.1
		c4.2,0.3,8.1,0.7,10.8,1.1l3.3,0.4c0.4,0.1,0.8,0.1,1.2,0.1c-0.4-0.1-0.8-0.2-1.2-0.3c-0.8-0.2-1.9-0.4-3.3-0.6
		c-2.8-0.4-6.6-0.9-10.9-1.2L114,392l0.2,0.2c-0.5-3.9-1-7.4-1.4-9.9c-0.2-1.2-0.3-2.2-0.5-3C112.3,379,112.2,378.6,112.1,378.3z"/>
	<path class="st6" d="M121.8,373.2c-0.1,0,0.2,1.1,0.5,3c0.4,2.4,0.6,4.9,0.7,7.4v0.2h0.2l0.7-0.1c2.6-0.3,5.3-0.5,7.9-0.5h2.4
		c0.3,0,0.6,0,0.9,0c-0.3-0.1-0.6-0.1-0.9-0.1c-0.6-0.1-1.4-0.1-2.4-0.2c-2.7-0.1-5.3,0-7.9,0.3l-0.7,0.1l0.2,0.2
		c-0.1-2.5-0.3-5-0.8-7.4c-0.2-0.9-0.4-1.7-0.5-2.2C122,373.7,121.9,373.4,121.8,373.2z"/>
	<path class="st6" d="M66.7,385c0.5,1.5,1.2,2.9,1.9,4.2c0.6,1.4,1.2,2.8,2,4.2c-0.4-1.5-0.9-3-1.6-4.4
		C68.4,387.6,67.6,386.2,66.7,385z"/>
	<path class="st6" d="M61.5,390.5c1.6,0.2,3.2,0.6,4.7,1c1.5,0.5,3,1.2,4.5,1.9c-1.2-1.1-2.7-1.9-4.3-2.3
		C64.8,390.6,63.1,390.4,61.5,390.5z"/>
</g>
</svg>
