<?xml version="1.0" encoding="utf-8"?>
<!-- Generator: Adobe Illustrator 26.2.1, SVG Export Plug-In . SVG Version: 6.00 Build 0)  -->
<svg version="1.1" id="Layer_1" xmlns="http://www.w3.org/2000/svg" xmlns:xlink="http://www.w3.org/1999/xlink" x="0px" y="0px"
	 viewBox="0 0 500 500" style="enable-background:new 0 0 500 500;" xml:space="preserve">
<style type="text/css">
	.st0{fill:#EBEBEB;}
	.st1{fill:#FAFAFA;}
	.st2{fill:#263238;}
	.st3{fill:#D94F04;}
	.st4{opacity:0.3;}
	.st5{fill:#FFBE9D;}
	.st6{fill:#EB996E;}
	.st7{fill:#FFFFFF;}
	.st8{opacity:0.3;enable-background:new    ;}
	.st9{opacity:0.5;enable-background:new    ;}
	.st10{fill:#007172;}
	.st11{fill:#E0E0E0;}
	.st12{fill:#455A64;}
	.st13{opacity:0.3;fill:#007172;enable-background:new    ;}
	.st14{opacity:0.5;}
</style>
<g id="freepik--background-complete--inject-38">
	<path class="st0" d="M456.6,394.9c-0.5-5.1-2.9-9.8-5.2-14.2c-6.9-13.2-13.8-26.4-20.8-39.6c-10-19.1-20.3-38.5-34.9-53.2
		c-11.8-11.8-25.9-20-38.2-31s-23.2-26.4-24.1-44.5c-0.4-8.3,1.3-16.6,1-24.9c-0.6-19.6-11.8-36.3-22.5-51.6l-13.5-19.2
		c-6.4-9.1-13.6-18.8-23.5-21.3c-9-2.3-18.2,1.8-26.8,5.8c-12.6,5.9-25.5,12.1-35.3,23c-4.4,5.1-8.3,10.7-11.6,16.6
		c-13.7,23.2-24.5,48-32.2,73.9c-2.2,7.2-4.1,14.8-3.2,22.4c0.4,3.8,1.6,8,0.1,11.4c-1,1.9-2.4,3.6-4.1,4.9
		c-16,14.2-29.3,32.1-42.5,49.9l-14.9,20.2c-10.6,14.2-21.2,28.5-30,44.3c-6,10.6-11.2,22.1-13.2,34.5s-1,32.6,5.3,43h358.1
		c6.5-2.7,14.2-8.2,19.8-13.2c6.1-5.5,8.6-14.6,10.7-23.2C456,404.4,457.1,399.7,456.6,394.9z"/>
	<path class="st0" d="M88.4,294.3c2.3-2.4,4.1-5.1,5.5-8.1c2.5-6.6,2.4-12.8-2.2-18.7c-1.3-1.7-2.9-3.1-4.7-4.3l0,0l-0.2-0.1
		c-0.4-0.3-0.9-0.6-1.3-0.9l0,0c-1.8-1.1-3.8-1.8-5.8-2.3c-7.2-1.5-12.4,1.4-16.8,6.8c-1.9,2.7-3.3,5.7-4.2,8.9
		c-0.3,1.3-0.3,2.8-0.6,3s-1.5,0-3.1,3.2c-1.2,2.5,2.4,5.7,4.1,7c0.5,0.4,0.6,1,0.3,1.5l-2.6,4.5c-0.3,0.6-0.1,1.3,0.4,1.6l0.5,0.3
		c0.5,0.3,1.2,0.2,1.5-0.3c0,0,0,0,0,0l0.6-1c0.3-0.5,1-0.7,1.5-0.4c0,0,0,0,0,0c0.6,0.3,0.7,1.1,0.4,1.6l-0.9,1.4
		c-0.3,0.6-0.1,1.3,0.4,1.6l0.5,0.3c0.5,0.3,1.2,0.2,1.5-0.3c0,0,0,0,0-0.1l0.8-1.4c0.3-0.5,1-0.7,1.5-0.4c0,0,0,0,0.1,0l0.2,0.1
		l0,0c0.6,0.3,0.7,1.1,0.4,1.6l-0.8,1.4c-0.3,0.6-0.1,1.3,0.4,1.6l0.5,0.3c0.5,0.3,1.2,0.2,1.5-0.3c0,0,0,0,0-0.1l0.8-1.5
		c0.3-0.5,1-0.7,1.5-0.4c0,0,0,0,0.1,0c0.5,0.3,0.7,1,0.4,1.6l-0.6,1.1c-0.3,0.6-0.1,1.3,0.4,1.6l0.5,0.4c0.5,0.3,1.2,0.2,1.5-0.3
		c0,0,0,0,0-0.1l2.6-4.5c0.3-0.5,0.9-0.7,1.4-0.4c1.9,1,6.3,2.8,7.8,0.5c2-3,1.2-3.9,1.3-4.4C86.2,295.9,87.5,295.2,88.4,294.3z"/>
	<path class="st1" d="M72.7,280.8c-1.3,2.5-4.4,3.5-6.9,2.2c-0.1,0-0.2-0.1-0.3-0.2c-2.6-1.5-3.7-4.7-2.4-7.5c1.3-2.5,4.4-3.5,7-2.2
		c0.1,0,0.2,0.1,0.2,0.1C73,274.8,74,278.1,72.7,280.8z"/>
	<path class="st1" d="M87.9,289.3c-1.3,2.5-4.4,3.5-6.9,2.2c-0.1,0-0.2-0.1-0.3-0.1c-2.6-1.5-3.7-4.7-2.4-7.4
		c1.3-2.5,4.4-3.5,6.9-2.2c0.1,0,0.2,0.1,0.3,0.2C88.1,283.4,89.1,286.6,87.9,289.3z"/>
	<path class="st1" d="M73.5,285.8c-0.2,0-4.5,1.3-5.8,4c-0.6,1.2-0.1,2.6,1.1,3.2c0.4,0.2,0.8,0.1,1.1-0.2c0,0.8,0.7,1.5,1.5,1.4
		c0.2,0,0.3,0,0.5-0.1C75,293.5,73.5,285.8,73.5,285.8z"/>
	<path class="st0" d="M449.1,76.1c0.2-5.5-2.2-12-2.2-12c-3.5-8-9-13.5-18.3-14.7c-2.6-0.3-5.3-0.2-7.9,0.2l0,0l-0.3,0.1
		c-0.6,0.1-1.3,0.2-1.9,0.4l0,0c-2.5,0.7-5,1.7-7.2,3.1c-7.7,4.9-9.8,12.1-9,20.7c0,0,1.1,6.7,4,11.6c0.8,1.4,2.2,2.8,2.1,3.2
		c-0.1,0.6-1.3,1.4,0.1,5.6c1.1,3.2,7.1,2.9,9.8,2.6c0.7-0.1,1.4,0.4,1.6,1.1l1.7,6.3c0.2,0.8,1,1.2,1.8,1.1l0.8-0.2
		c0.7-0.2,1.2-0.9,1.1-1.6c0,0,0,0,0,0l-0.3-1.5c-0.2-0.7,0.3-1.5,1-1.7c0,0,0,0,0,0c0.8-0.2,1.6,0.3,1.8,1.1l0.5,2
		c0.2,0.8,1,1.2,1.8,1.1l0.8-0.2c0.7-0.1,1.2-0.9,1.1-1.6c0,0,0-0.1,0-0.1l-0.5-1.9c-0.2-0.7,0.3-1.5,1-1.7c0,0,0.1,0,0.1,0h0.2l0,0
		c0.8-0.2,1.6,0.3,1.8,1.1l0.5,1.9c0.2,0.8,1,1.2,1.8,1.1l0.8-0.2c0.7-0.1,1.2-0.9,1.1-1.6c0,0,0-0.1,0-0.1l-0.5-2
		c-0.2-0.7,0.2-1.5,1-1.7c0,0,0.1,0,0.1,0c0.8-0.2,1.5,0.3,1.8,1l0.4,1.5c0.2,0.7,1,1.2,1.8,1l0.8-0.2c0.7-0.1,1.2-0.8,1.1-1.6
		c0,0,0-0.1,0-0.1l-1.6-6.3c-0.2-0.7,0.2-1.4,0.9-1.7c2.5-0.8,8-3.1,7.4-6.4c-0.8-4.3-2.3-4.6-2.7-5S449,77.7,449.1,76.1z"/>
	<path class="st1" d="M423.4,77.9c1,3.4-0.9,7-4.3,8c-0.1,0-0.2,0.1-0.3,0.1c-3.6,1-7.4-1-8.6-4.6c-1.1-3.4,0.8-7,4.2-8
		c0.1,0,0.2-0.1,0.4-0.1C418.4,72.3,422.2,74.3,423.4,77.9z"/>
	
		<ellipse transform="matrix(0.2095 -0.9778 0.9778 0.2095 274.3713 484.5284)" class="st1" cx="436.9" cy="72.6" rx="6.6" ry="6.9"/>
	<path class="st1" d="M428.4,81.6c-0.2,0.1-2.9,5.1-1.7,8.6c0.5,1.6,2.3,2.4,3.8,1.9c0,0,0,0,0,0c0.5-0.1,0.9-0.6,0.8-1.2
		c0.7,0.7,1.9,0.7,2.6-0.1c0.1-0.1,0.2-0.3,0.3-0.5C436.5,87.1,428.4,81.6,428.4,81.6z"/>
</g>
<g id="freepik--Screens--inject-38">
	<rect x="40.9" y="57.5" class="st1" width="232.5" height="155.1"/>
	<path class="st2" d="M273.4,212.6c0-1.7-0.1-60.6-0.2-155.1l0.2,0.2L40.9,57.8l0,0l0.3-0.3c0,55.2,0,107.8,0,155.1l-0.2-0.2
		L273.4,212.6l-232.5,0.2h-0.2v-0.2c0-47.3,0-99.9,0-155.1v-0.3h0.3l232.5,0h0.2v0.2C273.5,152,273.4,211,273.4,212.6z"/>
	<path class="st3" d="M83.3,76.1c0,0.1-4.7,0.2-10.4,0.2s-10.4-0.1-10.4-0.2s4.6-0.2,10.4-0.2S83.3,76,83.3,76.1z"/>
	<path class="st3" d="M72.9,76.5c-2.8,0-5.4,0-7.3-0.1c-3.2-0.1-3.2-0.1-3.2-0.3s0-0.2,3.2-0.3c2,0,4.6-0.1,7.3-0.1s5.4,0,7.3,0.1
		c3.2,0.1,3.2,0.1,3.2,0.3s0,0.2-3.2,0.3C78.3,76.5,75.7,76.5,72.9,76.5z M64.8,76.1c1.8,0.1,4.6,0.1,8.1,0.1s6.3,0,8.1-0.1
		c-1.8,0-4.6-0.1-8.1-0.1S66.6,76.1,64.8,76.1z"/>
	<path class="st3" d="M83.3,195.3c0,0.1-4.7,0.2-10.4,0.2s-10.4-0.1-10.4-0.2s4.6-0.2,10.4-0.2S83.3,195.2,83.3,195.3z"/>
	<path class="st3" d="M72.9,195.7c-2.8,0-5.4,0-7.3-0.1c-3.2-0.1-3.2-0.1-3.2-0.3s0-0.2,3.2-0.3c2,0,4.6-0.1,7.3-0.1s5.4,0,7.3,0.1
		c3.2,0.1,3.2,0.1,3.2,0.3s0,0.2-3.2,0.3C78.3,195.7,75.7,195.7,72.9,195.7z M64.8,195.3c1.8,0,4.6,0.1,8.1,0.1s6.3,0,8.1-0.1
		c-1.8-0.1-4.6-0.1-8.1-0.1S66.6,195.3,64.8,195.3z"/>
	<path class="st3" d="M112.2,93.6c0,0.1-8.7,0.2-19.4,0.2s-19.4-0.1-19.4-0.2s8.7-0.2,19.4-0.2S112.2,93.5,112.2,93.6z"/>
	<path class="st3" d="M92.8,94c-5.2,0-10.1,0-13.8-0.1c-5.8-0.1-5.8-0.1-5.8-0.3s0-0.2,5.8-0.3c3.7,0,8.6-0.1,13.8-0.1
		s10.1,0,13.8,0.1c5.8,0.1,5.8,0.1,5.8,0.3s0,0.2-5.8,0.3C102.9,94,98,94,92.8,94z M77.7,93.6c3.4,0.1,8.6,0.1,15.2,0.1
		s11.8,0,15.2-0.1c-3.4,0-8.6-0.1-15.2-0.1S81.1,93.6,77.7,93.6z"/>
	<path class="st2" d="M157.2,93.6c0,0.1-8.7,0.2-19.4,0.2s-19.4-0.1-19.4-0.2s8.7-0.2,19.4-0.2S157.2,93.5,157.2,93.6z"/>
	<path class="st2" d="M137.8,94c-5.2,0-10.1,0-13.8-0.1c-5.8-0.1-5.8-0.1-5.8-0.3s0-0.2,5.8-0.3c3.7,0,8.6-0.1,13.8-0.1
		s10.1,0,13.8,0.1c5.8,0.1,5.8,0.1,5.8,0.3s0,0.2-5.8,0.3C147.8,94,143,94,137.8,94z M122.6,93.6c3.4,0.1,8.6,0.1,15.2,0.1
		s11.8,0,15.1-0.1c-3.4,0-8.6-0.1-15.1-0.1S126,93.6,122.6,93.6L122.6,93.6z"/>
	<path class="st2" d="M140,102.1c0,0.1-12.8,0.2-28.7,0.2s-28.6-0.1-28.6-0.2s12.8-0.2,28.6-0.2S140,102,140,102.1z"/>
	<path class="st2" d="M111.4,102.4c-7.7,0-14.8,0-20.2-0.1c-8.5-0.1-8.5-0.1-8.5-0.3s0-0.2,8.5-0.3c5.4,0,12.6-0.1,20.2-0.1
		s14.8,0,20.3,0.1c8.5,0.1,8.5,0.1,8.5,0.3s0,0.2-8.5,0.3C126.2,102.4,119,102.4,111.4,102.4z M89.1,102.1c5,0,12.7,0.1,22.3,0.1
		s17.3,0,22.3-0.1c-5,0-12.7-0.1-22.3-0.1S94,102,89.1,102.1z"/>
	<path class="st2" d="M140,110.6c0,0.1-12.8,0.2-28.7,0.2s-28.6-0.1-28.6-0.2s12.8-0.2,28.6-0.2S140,110.4,140,110.6z"/>
	<path class="st2" d="M111.4,110.9c-7.7,0-14.8,0-20.2-0.1c-8.5-0.1-8.5-0.1-8.5-0.3s0-0.2,8.5-0.3c5.4,0,12.6-0.1,20.2-0.1
		s14.8,0,20.3,0.1c8.5,0.1,8.5,0.1,8.5,0.3s0,0.2-8.5,0.3C126.2,110.9,119,110.9,111.4,110.9z M89.1,110.6c5,0,12.7,0.1,22.3,0.1
		s17.3,0,22.3-0.1c-5-0.1-12.7-0.1-22.3-0.1S94.1,110.5,89.1,110.6z"/>
	<path class="st2" d="M179.4,136c0,0.1-12.8,0.2-28.6,0.2s-28.7-0.1-28.7-0.2s12.8-0.2,28.7-0.2S179.4,135.9,179.4,136z"/>
	<path class="st2" d="M150.8,136.4c-7.6,0-14.9,0-20.3-0.1c-8.5-0.1-8.5-0.1-8.5-0.3s0-0.2,8.5-0.3c5.4,0,12.6-0.1,20.3-0.1
		s14.8,0,20.2,0.1c8.5,0.1,8.5,0.1,8.5,0.3s0,0.2-8.5,0.3C165.6,136.3,158.5,136.4,150.8,136.4z M128.5,136c5,0,12.7,0.1,22.3,0.1
		s17.3,0,22.3-0.1c-5-0.1-12.7-0.1-22.3-0.1S133.5,135.9,128.5,136z"/>
	<path class="st2" d="M162.4,119c0,0.1-12.8,0.2-28.6,0.2s-28.6-0.1-28.6-0.2s12.8-0.2,28.6-0.2S162.4,118.9,162.4,119z"/>
	<path class="st2" d="M133.8,119.4c-7.7,0-14.8,0-20.3-0.1c-8.5-0.1-8.5-0.1-8.5-0.3s0-0.2,8.5-0.3c5.4,0,12.6-0.1,20.3-0.1
		s14.8,0,20.3,0.1c8.5,0.1,8.5,0.1,8.5,0.3s0,0.2-8.5,0.3C148.6,119.4,141.4,119.4,133.8,119.4z M111.5,119c5,0,12.7,0.1,22.3,0.1
		s17.3,0,22.3-0.1c-5,0-12.7-0.1-22.3-0.1S116.5,119,111.5,119z"/>
	<path class="st2" d="M232.4,119c0,0.1-12.8,0.2-28.6,0.2s-28.6-0.1-28.6-0.2s12.8-0.2,28.6-0.2S232.4,118.9,232.4,119z"/>
	<path class="st2" d="M203.8,119.4c-7.6,0-14.9,0-20.3-0.1c-8.5-0.1-8.5-0.1-8.5-0.3s0-0.2,8.5-0.3c5.4,0,12.6-0.1,20.3-0.1
		s14.8,0,20.3,0.1c8.5,0.1,8.5,0.1,8.5,0.3s0,0.2-8.5,0.3C218.6,119.4,211.4,119.4,203.8,119.4z M181.5,119c5,0,12.7,0.1,22.3,0.1
		s17.3,0,22.3-0.1c-5,0-12.7-0.1-22.3-0.1S186.5,119,181.5,119z"/>
	<path class="st2" d="M208.1,102.1c0,0.1-12.8,0.2-28.6,0.2s-28.6-0.1-28.6-0.2s12.8-0.2,28.6-0.2S208.1,102,208.1,102.1z"/>
	<path class="st2" d="M179.4,102.4c-7.6,0-14.8,0-20.2-0.1c-8.5-0.1-8.5-0.1-8.5-0.3s0-0.2,8.5-0.3c5.4,0,12.6-0.1,20.2-0.1
		s14.8,0,20.3,0.1c8.5,0.1,8.5,0.1,8.5,0.3s0,0.2-8.5,0.3C194.3,102.4,187.1,102.4,179.4,102.4z M157.1,102.1c5,0,12.7,0.1,22.3,0.1
		s17.4,0,22.3-0.1c-5,0-12.7-0.1-22.3-0.1S162.1,102,157.1,102.1z"/>
	<path class="st2" d="M247.7,136c0,0.1-12.8,0.2-28.6,0.2s-28.6-0.1-28.6-0.2s12.8-0.2,28.6-0.2S247.7,135.9,247.7,136z"/>
	<path class="st2" d="M219,136.4c-7.6,0-14.9,0-20.3-0.1c-8.5-0.1-8.5-0.1-8.5-0.3s0-0.2,8.5-0.3c5.4,0,12.6-0.1,20.3-0.1
		s14.8,0,20.2,0.1c8.5,0.1,8.5,0.1,8.5,0.3s0,0.2-8.5,0.3C233.9,136.3,226.7,136.4,219,136.4z M196.7,136c5,0,12.7,0.1,22.3,0.1
		s17.3,0,22.3-0.1c-5-0.1-12.7-0.1-22.3-0.1S201.7,135.9,196.7,136z"/>
	<path class="st2" d="M239.8,110.6c0,0.1-19.9,0.2-44.5,0.2s-44.5-0.1-44.5-0.2s19.9-0.2,44.5-0.2S239.8,110.4,239.8,110.6z"/>
	<path class="st2" d="M195.3,110.9c-11.9,0-23,0-31.5-0.1c-9.7,0-12.3-0.1-12.9-0.2l0,0c-0.2,0-0.2-0.1-0.2-0.1s0-0.1,0.2-0.1l0,0
		c0.7-0.1,3.2-0.1,12.9-0.2c8.4,0,19.6-0.1,31.5-0.1s23.1,0,31.4,0.1c9.8,0,12.3,0.1,12.9,0.2l0,0c0.2,0,0.2,0.1,0.2,0.1
		s0,0.1-0.2,0.1l0,0c-0.7,0.1-3.2,0.1-12.9,0.2C218.3,110.9,207.2,110.9,195.3,110.9z M160.6,110.6c8.2,0,20.8,0.1,34.7,0.1
		s26.5,0,34.7-0.1c-8.2-0.1-20.8-0.1-34.7-0.1S168.8,110.5,160.6,110.6z"/>
	<path class="st2" d="M83.3,85.1c0,0.1-4.7,0.2-10.4,0.2s-10.4-0.1-10.4-0.2s4.6-0.2,10.4-0.2S83.3,85,83.3,85.1z"/>
	<path class="st2" d="M72.9,85.5c-2.8,0-5.4,0-7.3-0.1c-3.2-0.1-3.2-0.1-3.2-0.3s0-0.2,3.2-0.3c2,0,4.6-0.1,7.3-0.1s5.4,0,7.3,0.1
		c3.2,0.1,3.2,0.1,3.2,0.3s0,0.2-3.2,0.3C78.3,85.5,75.7,85.5,72.9,85.5z M64.8,85.1c1.8,0,4.6,0.1,8.1,0.1s6.3,0,8.1-0.1
		c-1.8-0.1-4.6-0.1-8.1-0.1S66.6,85.1,64.8,85.1z"/>
	<path class="st2" d="M83.3,186.9c0,0.1-4.7,0.2-10.4,0.2s-10.4-0.1-10.4-0.2s4.6-0.2,10.4-0.2S83.3,186.7,83.3,186.9z"/>
	<path class="st2" d="M72.9,187.2c-2.8,0-5.4,0-7.3-0.1c-3.2-0.1-3.2-0.1-3.2-0.3s0-0.2,3.2-0.3c2-0.1,4.6-0.1,7.3-0.1
		s5.4,0,7.3,0.1c3.2,0.1,3.2,0.1,3.2,0.3s0,0.2-3.2,0.3C78.3,187.2,75.7,187.2,72.9,187.2z M64.8,186.8c1.8,0.1,4.6,0.1,8.1,0.1
		s6.3,0,8.1-0.1c-1.8,0-4.6-0.1-8.1-0.1S66.6,186.8,64.8,186.8L64.8,186.8z"/>
	<path class="st2" d="M93.6,119c0,0.1-4.7,0.2-10.4,0.2s-10.4-0.1-10.4-0.2s4.7-0.2,10.4-0.2S93.6,118.9,93.6,119z"/>
	<path class="st2" d="M83.2,119.4c-2.8,0-5.4,0-7.3-0.1c-3.2-0.1-3.2-0.1-3.2-0.3s0-0.2,3.2-0.3c2,0,4.6-0.1,7.3-0.1s5.4,0,7.3,0.1
		c3.2,0.1,3.2,0.1,3.2,0.3s0,0.2-3.2,0.3C88.6,119.4,86,119.4,83.2,119.4z M75.1,119c1.8,0,4.6,0.1,8.1,0.1s6.3,0,8.1-0.1
		c-1.8,0-4.6-0.1-8.1-0.1S76.9,119,75.1,119z"/>
	<path class="st2" d="M260.1,119c0,0.1-4.6,0.2-10.4,0.2s-10.4-0.1-10.4-0.2s4.6-0.2,10.4-0.2S260.1,118.9,260.1,119z"/>
	<path class="st2" d="M249.7,119.4c-2.8,0-5.4,0-7.4-0.1c-3.2-0.1-3.2-0.1-3.2-0.3s0-0.2,3.2-0.3c2,0,4.6-0.1,7.4-0.1s5.4,0,7.3,0.1
		c3.2,0.1,3.2,0.1,3.2,0.3s0,0.2-3.2,0.3C255.1,119.4,252.5,119.4,249.7,119.4z M241.6,119c1.8,0,4.6,0.1,8.1,0.1s6.3,0,8.1-0.1
		c-1.8,0-4.6-0.1-8.1-0.1S243.4,119,241.6,119L241.6,119z"/>
	<path class="st3" d="M112.2,152.9c0,0.1-8.7,0.2-19.4,0.2s-19.4-0.1-19.4-0.2s8.7-0.2,19.4-0.2S112.2,152.8,112.2,152.9z"/>
	<path class="st3" d="M92.8,153.3c-5.2,0-10.1,0-13.8-0.1c-5.8-0.1-5.8-0.1-5.8-0.3s0-0.2,5.8-0.3c3.7,0,8.6-0.1,13.8-0.1
		s10.1,0,13.8,0.1c5.8,0.1,5.8,0.1,5.8,0.3s0,0.2-5.8,0.3C102.9,153.2,98,153.3,92.8,153.3z M77.6,152.9c3.4,0.1,8.6,0.1,15.2,0.1
		s11.8,0,15.2-0.1c-3.4,0-8.6-0.1-15.2-0.1S81,152.8,77.6,152.9z"/>
	<path class="st2" d="M157.2,152.9c0,0.1-8.7,0.2-19.4,0.2s-19.4-0.1-19.4-0.2s8.7-0.2,19.4-0.2S157.2,152.8,157.2,152.9z"/>
	<path class="st2" d="M137.8,153.3c-5.2,0-10.1,0-13.8-0.1c-5.8-0.1-5.8-0.1-5.8-0.3s0-0.2,5.8-0.3c3.7,0,8.6-0.1,13.8-0.1
		s10.1,0,13.8,0.1c5.8,0.1,5.8,0.1,5.8,0.3s0,0.2-5.8,0.3C147.8,153.2,143,153.3,137.8,153.3z M122.6,152.9
		c3.4,0.1,8.6,0.1,15.2,0.1s11.8,0,15.2-0.1c-3.4,0-8.6-0.1-15.2-0.1S126,152.8,122.6,152.9z"/>
	<path class="st2" d="M140,161.4c0,0.1-12.8,0.2-28.7,0.2s-28.6-0.1-28.6-0.2s12.8-0.2,28.6-0.2S140,161.2,140,161.4z"/>
	<path class="st2" d="M111.4,161.8c-7.7,0-14.8,0-20.2-0.1c-8.5-0.1-8.5-0.1-8.5-0.3s0-0.2,8.5-0.3c5.4,0,12.6-0.1,20.2-0.1
		s14.8,0,20.3,0.1c8.5,0.1,8.5,0.1,8.5,0.3s0,0.2-8.5,0.3C126.2,161.7,119,161.8,111.4,161.8z M89.1,161.4c5,0,12.7,0.1,22.3,0.1
		s17.3,0,22.3-0.1c-5-0.1-12.7-0.1-22.3-0.1S94.1,161.3,89.1,161.4z"/>
	<path class="st2" d="M140,169.9c0,0.1-12.8,0.2-28.7,0.2s-28.6-0.1-28.6-0.2s12.8-0.2,28.6-0.2S140,169.7,140,169.9z"/>
	<path class="st2" d="M111.4,170.2c-7.7,0-14.8,0-20.2-0.1c-8.5-0.1-8.5-0.1-8.5-0.3s0-0.2,8.5-0.3c5.4,0,12.6-0.1,20.2-0.1
		s14.8,0,20.3,0.1c8.5,0.1,8.5,0.1,8.5,0.3s0,0.2-8.5,0.3C126.2,170.2,119,170.2,111.4,170.2z M89.1,169.8c5,0.1,12.7,0.1,22.3,0.1
		s17.3,0,22.3-0.1c-5,0-12.7-0.1-22.3-0.1S94,169.8,89.1,169.8L89.1,169.8z"/>
	<path class="st2" d="M162.4,178.3c0,0.1-12.8,0.2-28.6,0.2s-28.6-0.1-28.6-0.2s12.8-0.2,28.6-0.2S162.4,178.2,162.4,178.3z"/>
	<path class="st2" d="M133.8,178.7c-7.6,0-14.8,0-20.3-0.1c-8.5-0.1-8.5-0.1-8.5-0.3s0-0.2,8.5-0.3c5.4-0.1,12.6-0.1,20.3-0.1
		s14.9,0,20.3,0.1c8.5,0.1,8.5,0.1,8.5,0.3s0,0.2-8.5,0.3C148.6,178.7,141.4,178.7,133.8,178.7z M111.5,178.3c5,0,12.7,0.1,22.3,0.1
		s17.4,0,22.3-0.1c-5-0.1-12.7-0.1-22.3-0.1S116.4,178.3,111.5,178.3z"/>
	<path class="st2" d="M232.4,178.3c0,0.1-12.8,0.2-28.6,0.2s-28.6-0.1-28.6-0.2s12.8-0.2,28.6-0.2S232.4,178.2,232.4,178.3z"/>
	<path class="st2" d="M203.8,178.7c-7.6,0-14.8,0-20.3-0.1c-8.5-0.1-8.5-0.1-8.5-0.3s0-0.2,8.5-0.3c5.5,0,12.6,0,20.3,0
		s14.9,0,20.3,0.1c8.5,0.1,8.5,0.1,8.5,0.3s0,0.2-8.5,0.3C218.6,178.7,211.4,178.7,203.8,178.7z M181.5,178.3c5,0,12.7,0.1,22.3,0.1
		s17.3,0,22.3-0.1c-5-0.1-12.7-0.1-22.3-0.1S186.4,178.3,181.5,178.3L181.5,178.3z"/>
	<path class="st2" d="M208.1,161.4c0,0.1-12.8,0.2-28.6,0.2s-28.6-0.1-28.6-0.2s12.8-0.2,28.6-0.2S208.1,161.2,208.1,161.4z"/>
	<path class="st2" d="M179.4,161.8c-7.6,0-14.8,0-20.2-0.1c-8.5-0.1-8.5-0.1-8.5-0.3s0-0.2,8.5-0.3c5.4,0,12.6-0.1,20.2-0.1
		s14.9,0,20.3,0.1c8.5,0.1,8.5,0.1,8.5,0.3s0,0.2-8.5,0.3C194.3,161.7,187.1,161.8,179.4,161.8z M157.1,161.4c5,0,12.7,0.1,22.3,0.1
		s17.3,0,22.3-0.1c-5-0.1-12.7-0.1-22.3-0.1S162.1,161.3,157.1,161.4z"/>
	<path class="st2" d="M239.8,169.9c0,0.1-19.9,0.2-44.5,0.2s-44.5-0.1-44.5-0.2s19.9-0.2,44.5-0.2S239.8,169.7,239.8,169.9z"/>
	<path class="st2" d="M195.3,170.2c-11.9,0-23.1,0-31.5-0.1c-9.8,0-12.3-0.1-12.9-0.2l0,0c-0.2,0-0.2-0.1-0.2-0.1s0-0.1,0.2-0.1l0,0
		l0,0c0.7-0.1,3.2-0.1,12.9-0.2c8.4,0,19.6-0.1,31.5-0.1s23,0,31.4,0.1c9.8,0.1,12.3,0.1,12.9,0.2l0,0l0,0c0.2,0,0.2,0.1,0.2,0.1
		s0,0.1-0.2,0.1l0,0c-0.6,0.1-3.2,0.1-12.9,0.2C218.3,170.2,207.2,170.2,195.3,170.2z M160.6,169.8c8.2,0.1,20.8,0.1,34.7,0.1
		s26.5,0,34.7-0.1c-8.2,0-20.8-0.1-34.7-0.1S168.8,169.8,160.6,169.8L160.6,169.8z"/>
	<path class="st2" d="M93.6,178.3c0,0.1-4.7,0.2-10.4,0.2s-10.4-0.1-10.4-0.2s4.7-0.2,10.4-0.2S93.6,178.2,93.6,178.3z"/>
	<path class="st2" d="M83.2,178.7c-2.8,0-5.4,0-7.3-0.1c-3.2-0.1-3.2-0.1-3.2-0.3s0-0.2,3.2-0.3c2-0.1,4.6-0.1,7.3-0.1
		s5.4,0,7.3,0.1c3.2,0.1,3.2,0.1,3.2,0.3s0,0.2-3.2,0.3C88.6,178.7,86,178.7,83.2,178.7z M75.1,178.3c1.8,0,4.6,0.1,8.1,0.1
		s6.3,0,8.1-0.1c-1.8-0.1-4.6-0.1-8.1-0.1S76.9,178.3,75.1,178.3z"/>
	<path class="st2" d="M260.1,178.3c0,0.1-4.6,0.2-10.4,0.2s-10.4-0.1-10.4-0.2s4.6-0.2,10.4-0.2S260.1,178.2,260.1,178.3z"/>
	<path class="st2" d="M249.7,178.7c-2.8,0-5.4,0-7.4-0.1c-3.2-0.1-3.2-0.1-3.2-0.3s0-0.2,3.2-0.3c2-0.1,4.6-0.1,7.4-0.1
		s5.4,0,7.3,0.1c3.2,0.1,3.2,0.1,3.2,0.3s0,0.2-3.2,0.3C255.1,178.7,252.5,178.7,249.7,178.7z M241.6,178.3c1.8,0,4.6,0.1,8.1,0.1
		s6.3,0,8.1-0.1c-1.8-0.1-4.6-0.1-8.1-0.1S243.4,178.3,241.6,178.3z"/>
	<rect x="318.6" y="225.6" class="st1" width="149.4" height="99.6"/>
	<path class="st2" d="M468,325.2c0,0,0-0.6,0-1.8s0-3,0-5.2c0-4.6,0-11.4,0-20c0-17.3-0.1-42.2-0.1-72.5l0.2,0.2l-149.4,0.1l0,0
		l0.3-0.3c0,35.5,0,69.2,0,99.6l-0.2-0.2l107.6,0.1l30.8,0.1h8.2h2.1L468,325.2l-0.7,0h-2.1h-8.1l-30.7,0.1l-107.8,0.1h-0.2v-0.2
		c0-30.4,0-64.1,0-99.6v-0.3h0.3l149.4,0.1h0.2v0.2c0,30.4-0.1,55.3-0.1,72.7c0,8.6,0,15.4-0.1,20c0,2.3,0,4,0,5.2
		S468,325.2,468,325.2z"/>
	<path class="st3" d="M345.9,237.5c0,0.1-3,0.1-6.7,0.1s-6.7-0.1-6.7-0.1s3-0.1,6.7-0.1S345.9,237.4,345.9,237.5z"/>
	<path class="st3" d="M339.2,237.8c-1.8,0-3.5,0-4.7,0c-2-0.1-2-0.1-2-0.2s0-0.1,2-0.2c1.3,0,2.9,0,4.7,0s3.5,0,4.7,0
		c2,0.1,2,0.1,2,0.2s0,0.1-2,0.2C342.7,237.8,341,237.8,339.2,237.8z M334,237.5c1.2,0,3,0.1,5.2,0.1s4,0,5.2-0.1
		c-1.2,0-3-0.1-5.2-0.1S335.2,237.5,334,237.5L334,237.5z"/>
	<path class="st3" d="M345.9,314.1c0,0.1-3,0.1-6.7,0.1s-6.7-0.1-6.7-0.1s3-0.1,6.7-0.1S345.9,314,345.9,314.1z"/>
	<path class="st3" d="M339.2,314.3c-1.8,0-3.5,0-4.7,0c-2,0-2-0.1-2-0.2s0-0.2,2-0.2c1.3,0,2.9,0,4.7,0s3.5,0,4.7,0c2,0,2,0.1,2,0.2
		s0,0.1-2,0.2C342.7,314.3,341,314.3,339.2,314.3z M334,314.1c1.2,0,3,0,5.2,0s4,0,5.2,0c-1.2,0-3-0.1-5.2-0.1S335.2,314,334,314.1
		L334,314.1z"/>
	<path class="st3" d="M364.5,248.7c0,0.1-5.6,0.1-12.5,0.1s-12.5-0.1-12.5-0.1s5.6-0.1,12.5-0.1S364.5,248.6,364.5,248.7z"/>
	<path class="st3" d="M352,249c-3.3,0-6.5,0-8.8,0c-3.7,0-3.7-0.1-3.7-0.2s0-0.1,3.7-0.2c2.4,0,5.5,0,8.8,0s6.5,0,8.8,0
		c3.8,0,3.8,0.1,3.8,0.2s0,0.2-3.8,0.2C358.5,249,355.3,249,352,249z M342.3,248.8c2.2,0,5.5,0.1,9.7,0.1s7.6,0,9.7-0.1
		c-2.2,0-5.5,0-9.7,0S344.4,248.7,342.3,248.8L342.3,248.8z"/>
	<path class="st2" d="M393.4,248.7c0,0.1-5.6,0.1-12.5,0.1s-12.5-0.1-12.5-0.1s5.6-0.1,12.5-0.1S393.4,248.6,393.4,248.7z"/>
	<path class="st2" d="M380.9,249c-3.3,0-6.5,0-8.8,0c-3.8,0-3.8-0.1-3.8-0.2s0-0.1,3.8-0.2c2.4,0,5.5,0,8.8,0s6.5,0,8.8,0
		c3.8,0,3.8,0.1,3.8,0.2s0,0.2-3.8,0.2C387.3,249,384.2,249,380.9,249z M371.1,248.8c2.2,0,5.5,0.1,9.7,0.1s7.6,0,9.7-0.1
		c-2.2,0-5.5,0-9.7,0S373.3,248.7,371.1,248.8L371.1,248.8z"/>
	<path class="st2" d="M382.3,254.2c0,0.1-8.2,0.1-18.4,0.1s-18.4-0.1-18.4-0.1s8.2-0.1,18.4-0.1S382.3,254.1,382.3,254.2z"/>
	<path class="st2" d="M363.9,254.4c-4.9,0-9.5,0-13,0c-5.5,0-5.5-0.1-5.5-0.2s0-0.1,5.5-0.2c3.5,0,8.1,0,13,0s9.5,0,13,0
		c5.5,0.1,5.5,0.1,5.5,0.2s0,0.1-5.5,0.2C373.5,254.4,368.8,254.4,363.9,254.4z M349.6,254.2c3.2,0,8.1,0.1,14.3,0.1
		s11.1,0,14.3-0.1c-3.2,0-8.1-0.1-14.3-0.1S352.8,254.1,349.6,254.2L349.6,254.2z"/>
	<path class="st2" d="M382.3,259.6c0,0.1-8.2,0.1-18.4,0.1s-18.4-0.1-18.4-0.1s8.2-0.1,18.4-0.1S382.3,259.5,382.3,259.6z"/>
	<path class="st2" d="M363.9,259.9c-4.9,0-9.5,0-13,0c-5.5,0-5.5-0.1-5.5-0.2s0-0.2,5.5-0.2c3.5,0,8.1,0,13,0s9.5,0,13,0
		c5.5,0,5.5,0.1,5.5,0.2s0,0.1-5.5,0.2C373.5,259.9,368.8,259.9,363.9,259.9z M349.6,259.6c3.2,0,8.1,0,14.3,0s11.1,0,14.3,0
		c-3.2,0-8.1-0.1-14.3-0.1S352.8,259.6,349.6,259.6L349.6,259.6z"/>
	<path class="st2" d="M407.6,276c0,0.1-8.2,0.1-18.4,0.1s-18.4-0.1-18.4-0.1s8.2-0.1,18.4-0.1S407.6,275.9,407.6,276z"/>
	<path class="st2" d="M389.2,276.2c-4.9,0-9.5,0-13,0c-5.5,0-5.5-0.1-5.5-0.2s0-0.1,5.5-0.2c3.5,0,8.1,0,13,0s9.5,0,13,0
		c5.5,0,5.5,0.1,5.5,0.2s0,0.2-5.5,0.2C398.8,276.2,394.2,276.2,389.2,276.2z M374.9,276c3.2,0,8.1,0.1,14.3,0.1s11.1,0,14.3-0.1
		c-3.2,0-8.1,0-14.3,0S378.1,275.9,374.9,276z"/>
	<path class="st2" d="M396.7,265.1c0,0.1-8.2,0.1-18.4,0.1s-18.4-0.1-18.4-0.1s8.2-0.1,18.4-0.1S396.7,265,396.7,265.1z"/>
	<path class="st2" d="M378.3,265.3c-4.9,0-9.5,0-13,0c-5.5,0-5.5-0.1-5.5-0.2s0-0.1,5.5-0.2c3.5,0,8.1,0,13,0s9.5,0,13,0
		c5.5,0,5.5,0.1,5.5,0.2s0,0.2-5.5,0.2C387.9,265.3,383.2,265.3,378.3,265.3z M364,265.1c3.2,0,8.1,0.1,14.3,0.1s11.1,0,14.3-0.1
		c-3.2,0-8.1,0-14.3,0S367.2,265,364,265.1z"/>
	<path class="st2" d="M441.7,265.1c0,0.1-8.2,0.1-18.4,0.1s-18.4-0.1-18.4-0.1s8.2-0.1,18.4-0.1S441.7,265,441.7,265.1z"/>
	<path class="st2" d="M423.3,265.3c-4.9,0-9.5,0-13,0c-5.5,0-5.5-0.1-5.5-0.2s0-0.1,5.5-0.2c3.5,0,8.1,0,13,0s9.5,0,13,0
		c5.5,0,5.5,0.1,5.5,0.2s0,0.2-5.5,0.2C432.8,265.3,428.2,265.3,423.3,265.3z M409,265.1c3.2,0,8.1,0.1,14.3,0.1s11.1,0,14.3-0.1
		c-3.2,0-8.1,0-14.3,0S412.2,265,409,265.1z"/>
	<path class="st2" d="M426,254.2c0,0.1-8.2,0.1-18.4,0.1s-18.4-0.1-18.4-0.1s8.2-0.1,18.4-0.1S426,254.1,426,254.2z"/>
	<path class="st2" d="M407.6,254.4c-4.9,0-9.5,0-13,0c-5.5,0-5.5-0.1-5.5-0.2s0-0.1,5.5-0.2c3.5,0,8.1,0,13,0s9.5,0,13,0
		c5.5,0.1,5.5,0.1,5.5,0.2s0,0.1-5.5,0.2C417.2,254.4,412.6,254.4,407.6,254.4z M393.3,254.2c3.2,0,8.2,0.1,14.3,0.1
		s11.1,0,14.3-0.1c-3.2,0-8.1-0.1-14.3-0.1S396.5,254.1,393.3,254.2z"/>
	<path class="st2" d="M451.5,276c0,0.1-8.2,0.1-18.4,0.1s-18.4-0.1-18.4-0.1s8.2-0.1,18.4-0.1S451.5,275.9,451.5,276z"/>
	<path class="st2" d="M433.1,276.2c-4.9,0-9.5,0-13,0c-5.5,0-5.5-0.1-5.5-0.2s0-0.1,5.5-0.2c3.5,0,8.1,0,13,0s9.5,0,13,0
		c5.5,0,5.5,0.1,5.5,0.2s0,0.2-5.5,0.2C442.6,276.2,438,276.2,433.1,276.2z M418.7,276c3.2,0,8.1,0.1,14.3,0.1s11.1,0,14.3-0.1
		c-3.2,0-8.1,0-14.3,0S421.9,275.9,418.7,276z"/>
	<path class="st2" d="M446.4,259.6c0,0.1-12.8,0.1-28.6,0.1s-28.6-0.1-28.6-0.1s12.8-0.1,28.6-0.1S446.4,259.5,446.4,259.6z"/>
	<path class="st2" d="M417.8,259.9c-7.6,0-14.8,0-20.2,0c-6.3,0-7.9,0-8.3-0.1l0,0c-0.1,0-0.1,0-0.1-0.1s0-0.1,0.1-0.1l0,0
		c0.4-0.1,2-0.1,8.3-0.1c5.4,0,12.6,0,20.2,0s14.8,0,20.2,0c6.3,0,7.9,0,8.3,0.1l0,0c0.1,0,0.1,0,0.1,0.1s0,0-0.1,0.1l0,0
		c-0.4,0.1-2,0.1-8.3,0.1C432.6,259.9,425.5,259.9,417.8,259.9z M395.5,259.6c5.3,0,13.4,0,22.3,0s17,0,22.3,0
		c-5.3,0-13.4-0.1-22.3-0.1S400.8,259.6,395.5,259.6z"/>
	<path class="st2" d="M345.9,243.3c0,0.1-3,0.1-6.7,0.1s-6.7-0.1-6.7-0.1s3-0.1,6.7-0.1S345.9,243.2,345.9,243.3z"/>
	<path class="st2" d="M339.2,243.5c-1.8,0-3.5,0-4.7,0c-2-0.1-2-0.1-2-0.2s0-0.1,2-0.2c1.3,0,2.9,0,4.7,0s3.5,0,4.7,0
		c2,0,2,0.1,2,0.2s0,0.1-2,0.2C342.7,243.5,341,243.5,339.2,243.5z M334,243.3c1.2,0,3,0.1,5.2,0.1s4,0,5.2-0.1
		c-1.2,0-3-0.1-5.2-0.1S335.2,243.3,334,243.3L334,243.3z"/>
	<path class="st2" d="M345.9,308.6c0,0.1-3,0.1-6.7,0.1s-6.7-0.1-6.7-0.1s3-0.1,6.7-0.1S345.9,308.6,345.9,308.6z"/>
	<path class="st2" d="M339.2,308.9c-1.8,0-3.5,0-4.7,0c-2,0-2-0.1-2-0.2s0-0.1,2-0.2c1.3,0,2.9,0,4.7,0s3.5,0,4.7,0c2,0,2,0.1,2,0.2
		s0,0.1-2,0.2C342.7,308.9,341,308.9,339.2,308.9z M334,308.6c1.2,0,3,0.1,5.2,0.1s4,0,5.2-0.1c-1.2,0-3-0.1-5.2-0.1
		S335.2,308.6,334,308.6L334,308.6z"/>
	<path class="st2" d="M352.5,265.1c0,0.1-3,0.1-6.7,0.1s-6.7-0.1-6.7-0.1s3-0.1,6.7-0.1S352.5,265,352.5,265.1z"/>
	<path class="st2" d="M345.8,265.3c-1.8,0-3.5,0-4.7,0c-2,0-2-0.1-2-0.2s0-0.1,2-0.2c1.3,0,2.9,0,4.7,0s3.5,0,4.7,0c2,0,2,0.1,2,0.2
		s0,0.2-2,0.2C349.3,265.3,347.6,265.3,345.8,265.3z M340.6,265.1c1.2,0,3,0.1,5.2,0.1s4,0,5.2-0.1c-1.2,0-3,0-5.2,0
		S341.8,265,340.6,265.1L340.6,265.1z"/>
	<path class="st2" d="M459.5,265.1c0,0.1-3,0.1-6.7,0.1s-6.7-0.1-6.7-0.1s3-0.1,6.7-0.1S459.5,265,459.5,265.1z"/>
	<path class="st2" d="M452.8,265.3c-1.8,0-3.5,0-4.7,0c-2,0-2-0.1-2-0.2s0-0.1,2-0.2c1.3,0,2.9,0,4.7,0s3.5,0,4.7,0c2,0,2,0.1,2,0.2
		s0,0.2-2,0.2C456.3,265.3,454.6,265.3,452.8,265.3z M447.6,265.1c1.2,0,3,0.1,5.2,0.1s4,0,5.2-0.1c-1.2,0-3,0-5.2,0
		S448.8,265,447.6,265.1z"/>
	<path class="st3" d="M364.5,286.8c0,0.1-5.6,0.1-12.5,0.1s-12.5-0.1-12.5-0.1s5.6-0.1,12.5-0.1S364.5,286.7,364.5,286.8z"/>
	<path class="st3" d="M352,287.1c-3.3,0-6.5,0-8.8,0c-3.7,0-3.7-0.1-3.7-0.2s0-0.1,3.7-0.2c2.4,0,5.5,0,8.8,0s6.5,0,8.8,0
		c3.8,0,3.8,0.1,3.8,0.2s0,0.2-3.8,0.2C358.5,287,355.3,287.1,352,287.1z M342.3,286.8c2.2,0,5.5,0.1,9.7,0.1s7.6,0,9.7-0.1
		c-2.2,0-5.5,0-9.7,0S344.4,286.8,342.3,286.8L342.3,286.8z"/>
	<path class="st2" d="M393.4,286.8c0,0.1-5.6,0.1-12.5,0.1s-12.5-0.1-12.5-0.1s5.6-0.1,12.5-0.1S393.4,286.7,393.4,286.8z"/>
	<path class="st2" d="M380.9,287.1c-3.3,0-6.5,0-8.8,0c-3.8,0-3.8-0.1-3.8-0.2s0-0.1,3.8-0.2c2.4,0,5.5,0,8.8,0s6.5,0,8.8,0
		c3.8,0,3.8,0.1,3.8,0.2s0,0.2-3.8,0.2C387.3,287,384.2,287.1,380.9,287.1z M371.1,286.8c2.2,0,5.5,0.1,9.7,0.1s7.6,0,9.7-0.1
		c-2.2,0-5.5,0-9.7,0S373.3,286.8,371.1,286.8z"/>
	<path class="st2" d="M382.3,292.3c0,0.1-8.2,0.1-18.4,0.1s-18.4-0.1-18.4-0.1s8.2-0.1,18.4-0.1S382.3,292.2,382.3,292.3z"/>
	<path class="st2" d="M363.9,292.5c-4.9,0-9.5,0-13,0c-5.5,0-5.5-0.1-5.5-0.2s0-0.1,5.5-0.2c3.5,0,8.1,0,13,0s9.5,0,13,0
		c5.5,0,5.5,0.1,5.5,0.2s0,0.1-5.5,0.2C373.5,292.5,368.8,292.5,363.9,292.5z M349.6,292.3c3.2,0,8.1,0.1,14.3,0.1s11.1,0,14.3-0.1
		c-3.2,0-8.1-0.1-14.3-0.1S352.8,292.2,349.6,292.3L349.6,292.3z"/>
	<path class="st2" d="M382.3,297.7c0,0.1-8.2,0.1-18.4,0.1s-18.4-0.1-18.4-0.1s8.2-0.1,18.4-0.1S382.3,297.6,382.3,297.7z"/>
	<path class="st2" d="M363.9,298c-4.9,0-9.5,0-13,0c-5.5,0-5.5-0.1-5.5-0.2s0-0.2,5.5-0.2c3.5,0,8.1,0,13,0s9.5,0,13,0
		c5.5,0,5.5,0.1,5.5,0.2s0,0.1-5.5,0.2C373.5,297.9,368.8,298,363.9,298z M349.6,297.8c3.2,0,8.1,0,14.3,0s11.1,0,14.3,0
		c-3.2,0-8.1-0.1-14.3-0.1S352.8,297.7,349.6,297.8L349.6,297.8z"/>
	<path class="st2" d="M396.7,303.2c0,0.1-8.2,0.1-18.4,0.1s-18.4-0.1-18.4-0.1s8.2-0.1,18.4-0.1S396.7,303.1,396.7,303.2z"/>
	<path class="st2" d="M378.3,303.4c-4.9,0-9.5,0-13,0c-5.5,0-5.5-0.1-5.5-0.2s0-0.1,5.5-0.2c3.5,0,8.1,0,13,0s9.5,0,13,0
		c5.5,0,5.5,0.1,5.5,0.2s0,0.2-5.5,0.2C387.9,303.4,383.2,303.4,378.3,303.4z M364,303.2c3.2,0,8.1,0.1,14.3,0.1s11.1,0,14.3-0.1
		c-3.2,0-8.1,0-14.3,0S367.2,303.1,364,303.2z"/>
	<path class="st2" d="M441.7,303.2c0,0.1-8.2,0.1-18.4,0.1s-18.4-0.1-18.4-0.1s8.2-0.1,18.4-0.1S441.7,303.1,441.7,303.2z"/>
	<path class="st2" d="M423.3,303.4c-4.9,0-9.5,0-13,0c-5.5,0-5.5-0.1-5.5-0.2s0-0.1,5.5-0.2c3.5,0,8.1,0,13,0s9.5,0,13,0
		c5.5,0,5.5,0.1,5.5,0.2s0,0.2-5.5,0.2C432.8,303.4,428.2,303.4,423.3,303.4z M409,303.2c3.2,0,8.2,0.1,14.3,0.1s11.1,0,14.3-0.1
		c-3.2,0-8.1,0-14.3,0S412.1,303.1,409,303.2z"/>
	<path class="st2" d="M426,292.3c0,0.1-8.2,0.1-18.4,0.1s-18.4-0.1-18.4-0.1s8.2-0.1,18.4-0.1S426,292.2,426,292.3z"/>
	<path class="st2" d="M407.6,292.5c-4.9,0-9.5,0-13,0c-5.5,0-5.5-0.1-5.5-0.2s0-0.1,5.5-0.2c3.5,0,8.1,0,13,0s9.5,0,13,0
		c5.5,0,5.5,0.1,5.5,0.2s0,0.1-5.5,0.2C417.2,292.5,412.6,292.5,407.6,292.5z M393.3,292.3c3.2,0,8.1,0.1,14.3,0.1s11.1,0,14.3-0.1
		c-3.2,0-8.1-0.1-14.3-0.1S396.5,292.2,393.3,292.3L393.3,292.3z"/>
	<path class="st2" d="M446.4,297.7c0,0.1-12.8,0.1-28.6,0.1s-28.6-0.1-28.6-0.1s12.8-0.1,28.6-0.1S446.4,297.6,446.4,297.7z"/>
	<path class="st2" d="M417.8,298c-7.6,0-14.8,0-20.2,0c-6.3,0-7.9,0-8.3-0.1l0,0c-0.1,0-0.1,0-0.1-0.1s0-0.1,0.1-0.1l0,0
		c0.4-0.1,2-0.1,8.3-0.1c5.4,0,12.6,0,20.2,0s14.8,0,20.2,0c6.3,0,7.9,0,8.3,0.1l0,0c0.1,0,0.1,0,0.1,0.1s0,0-0.1,0.1l0,0
		c-0.4,0.1-2,0.1-8.3,0.1C432.6,297.9,425.5,298,417.8,298z M395.5,297.8c5.3,0,13.4,0,22.3,0s17,0,22.3,0c-5.3,0-13.4-0.1-22.3-0.1
		S400.8,297.7,395.5,297.8L395.5,297.8z"/>
	<path class="st2" d="M352.5,303.2c0,0.1-3,0.1-6.7,0.1s-6.7-0.1-6.7-0.1s3-0.1,6.7-0.1S352.5,303.1,352.5,303.2z"/>
	<path class="st2" d="M345.8,303.4c-1.8,0-3.5,0-4.7,0c-2,0-2-0.1-2-0.2s0-0.1,2-0.2c1.3,0,2.9,0,4.7,0s3.5,0,4.7,0c2,0,2,0.1,2,0.2
		s0,0.1-2,0.2C349.3,303.4,347.6,303.4,345.8,303.4z M340.6,303.2c1.2,0,3,0.1,5.2,0.1s4,0,5.2-0.1c-1.2,0-3,0-5.2,0
		S341.8,303.1,340.6,303.2z"/>
	<path class="st2" d="M459.5,303.2c0,0.1-3,0.1-6.7,0.1s-6.7-0.1-6.7-0.1s3-0.1,6.7-0.1S459.5,303.1,459.5,303.2z"/>
	<path class="st2" d="M452.8,303.4c-1.8,0-3.5,0-4.7,0c-2,0-2-0.1-2-0.2s0-0.1,2-0.2c1.3,0,2.9,0,4.7,0s3.5,0,4.7,0c2,0,2,0.1,2,0.2
		s0,0.1-2,0.2C456.3,303.4,454.6,303.4,452.8,303.4z M447.6,303.2c1.2,0,3,0.1,5.2,0.1s4,0,5.2-0.1c-1.2,0-3,0-5.2,0
		S448.8,303.1,447.6,303.2z"/>
</g>
<g id="freepik--Table--inject-38">
	<path class="st2" d="M483.5,445.4c0,0.1-104.5,0.3-233.5,0.3s-233.5-0.1-233.5-0.3s104.5-0.3,233.5-0.3S483.5,445.2,483.5,445.4z"
		/>
</g>
<g id="freepik--Character--inject-38">
	<path class="st3" d="M334.9,274L311,263.7H198.3c-5.2,3.2-10.5,6-15.9,8.7c-4.4,2-26.3,15.8-26.3,15.8l15.2,156.8l177.9,0.5
		l12-160.6L334.9,274z"/>
	<path class="st3" d="M156.1,288.1c0,0-34.6,39.4-35.8,42.6s-10.4,19.7-10.4,19.7s-14.5,6.8-16.5,10.5s-6,11.2-6,11.2
		s-28.5,34.3-31.2,45.7c-3,12.6,4,27.7,4,27.7h89.8l6.9-29.3l0,0c0.9-1.5-0.1-3.1-1.8-3.5c-4.9-1.4-8.7-2-12.1-5.6l0.6-4.7
		l16.7-12.8l15.1-11.6L156.1,288.1z"/>
	<path class="st3" d="M349.2,368.2c-0.1,0.4,13.3,9.9,13.3,9.9l12.3,18.7c-2.8,2.6-5.9,5-9.2,7l0,0l-8.3,2.9l-0.4,2l1.3,6.8
		c2.5,13.1,13.2,27,26.2,29.8l1.8-0.1l61.7,0.3c5.3-8.5,10.4-15.3,9.5-24.3l-1.5-15.2l-23.9-32l-35.2-50.9c0,0-24.3-33.5-35.7-38.2
		l-12,28.6L349.2,368.2z"/>
	<path class="st2" d="M166.5,334.6c-0.1-0.6-0.1-1.1-0.1-1.7c-0.1-1.1-0.2-2.7-0.3-4.6c-0.9-10.2-3.3-20.3-7.1-29.8
		c-0.7-1.8-1.4-3.3-1.8-4.3c-0.3-0.5-0.5-1-0.6-1.6c0.3,0.5,0.6,1,0.8,1.5c0.5,1,1.2,2.4,2,4.2c4.1,9.5,6.5,19.6,7.2,29.9
		c0.1,2,0.2,3.6,0.2,4.7C166.6,333.5,166.5,334,166.5,334.6z"/>
	<path class="st2" d="M344.3,335.1c0-0.2,0-0.3,0-0.5c0-0.4,0-0.8,0-1.4s0-1.4,0.1-2.2s0.1-1.9,0.2-2.9c0.2-2.5,0.6-5.1,1-7.6
		c0.6-3.1,1.4-6.1,2.4-9.1c1-3,2.1-5.9,3.5-8.7c1.1-2.3,2.3-4.6,3.6-6.8c0.5-1,1.1-1.8,1.6-2.5s0.9-1.3,1.3-1.8l0.8-1.1
		c0.1-0.1,0.2-0.3,0.3-0.4c-0.1,0.2-0.1,0.3-0.2,0.4l-0.8,1.2c-0.3,0.5-0.7,1.1-1.2,1.9s-1,1.6-1.5,2.5c-1.1,1.9-2.3,4.2-3.5,6.8
		c-2.6,5.7-4.6,11.6-5.8,17.7c-0.5,2.8-0.9,5.4-1.2,7.5c-0.1,1.1-0.2,2.1-0.3,2.9s-0.1,1.6-0.1,2.2s-0.1,1-0.1,1.4
		C344.4,334.8,344.3,334.9,344.3,335.1z"/>
	<path class="st2" d="M112.1,370.7c0.2,0,0.3,0,0.5,0c0.3,0.1,0.8,0.1,1.3,0.3c1.6,0.4,3.2,0.9,4.8,1.5c5.2,2.1,9.8,5.3,13.5,9.5
		c2.1,2.2,3.9,4.7,5.5,7.3c1.3,2.1,2.4,4.3,3.4,6.6c0.9,1.9,1.5,3.5,1.9,4.6l0.5,1.3c0.1,0.1,0.1,0.3,0.1,0.5
		c-0.1-0.1-0.2-0.3-0.2-0.4c-0.2-0.3-0.3-0.8-0.6-1.2c-0.5-1.1-1.2-2.6-2.1-4.5c-1-2.2-2.2-4.4-3.5-6.5c-1.6-2.6-3.4-5-5.5-7.2
		c-3.7-4-8.2-7.2-13.3-9.4c-1.5-0.6-3.1-1.2-4.7-1.7C113.2,371.1,112.6,370.9,112.1,370.7z"/>
	<g class="st4">
		<path d="M142.9,406.7c-3.6-10.9-16.4-18.7-24.2-25.2c-4.7-3.8-10.5-7.1-16.5-6c-2.2,0.4-4.5,1.5-5.3,3.6s0.8,4.9,3,4.7
			c-4.9,2.6-9,4.6-14,7.3c-1.2,0.4-2,1.4-2.3,2.5c-0.2,0.9-0.5,1.6,0.3,1.3c10.6-3.3,18.7-1.8,18.7-1.8s2.3-0.7,10.6-0.4
			C122.2,393.1,127.8,393.2,142.9,406.7"/>
	</g>
	<g class="st4">
		<path d="M374.5,396.6c4.2-9.3,11.2-15.6,20.6-19.4c5.5-2.2,12.1-2.9,17,0.3c2.5,1.7,4.7,4.7,3.1,8.5c-2.1,4.8-8.9,3.9-10.7,4.1
			c0,0-7.4-1.5-14-0.2s-8.3,2.7-15.8,6.8"/>
	</g>
	<path class="st2" d="M156.8,416.1c0,0,0.1-0.3,0.2-1c0-0.2,0-0.4,0-0.5c0-0.1,0-0.2,0-0.3l-0.1-0.3c-0.3-0.4-0.7-0.8-1.2-1
		c-1.4-0.5-2.9-1-4.4-1.3c-0.9-0.2-1.8-0.6-2.7-0.9c-1-0.4-1.9-0.9-2.8-1.5c-2-1.4-4-2.9-5.7-4.6c-2-1.9-4.2-3.7-6.4-5.3
		c-5.4-3.5-11.5-5.7-17.9-6.3c-6.4-0.7-12.8-0.1-19,1.7c-5,1.5-9.8,3.6-14.3,6.2c-3,1.8-6,3.8-8.8,5.9c-1,0.8-1.8,1.4-2.3,1.8
		l-0.6,0.5c-0.1,0.1-0.2,0.1-0.2,0.1l0.2-0.2l0.6-0.5c0.5-0.4,1.2-1.1,2.2-1.9c2.7-2.2,5.7-4.3,8.7-6.1c4.5-2.7,9.3-4.9,14.4-6.4
		c6.2-1.9,12.7-2.5,19.2-1.8c6.5,0.7,12.6,2.9,18.1,6.5c2.3,1.6,4.5,3.4,6.5,5.4c1.8,1.7,3.7,3.3,5.7,4.6c3.7,2.5,7.5,2.7,9.8,3.8
		c0.5,0.2,1,0.6,1.2,1.1l0.1,0.3v0.3c0,0.2,0,0.4,0,0.6c0,0.2-0.1,0.5-0.2,0.7L156.8,416.1z"/>
	<g class="st4">
		<path d="M139.9,414c-7.1,2.9-13,9.3-16.4,16.1c-1.2,2.5-1.8,5.3-1.8,8c0.1,2,0.5,3.6,2.3,4.8c1.6,1,3.2,1.8,4.9,2.5
			c3.9-0.1,16.4,0.1,20.3,0c5.1-0.1,7.4-2.8,7.4-3.2c0.2-2.5,3.8-8.9,4.4-13.7c0-0.2,0.1-0.5,0.1-0.8c1.1-7.3-4-14.1-11.4-15.2
			c-1.1-0.2-2.2-0.2-3.3-0.1C144.1,412.7,141.9,413.2,139.9,414z"/>
	</g>
	<path class="st5" d="M139.9,414l16.9,2.1c0,0,29.8-7.5,35.6-5.9c5.2,1.4,23.4,16.3,27,19.3c0.4,0.3,0.7,0.8,0.8,1.3l0,0
		c0.6,2.2-0.7,4.4-2.9,5.1l-0.4,0.1l0.1,0.6c0.2,0.8,0.2,1.6,0.1,2.4c-0.3,1.5-1.7,2.6-3.3,2.3c-0.9-0.2-1.7-0.8-2.1-1.6l0.6,1.4
		c0.2,0.6,0.3,1.2,0.2,1.8l-0.2,1.2c-0.2,1.3-1.2,2.4-2.5,2.6l0,0c-1.2,0.3-2.5-0.2-3.3-1.2c-2.2-3-7-8.9-10.5-9.9
		c-3.9-0.9-7.8-1.5-11.7-1.8c-1.7-0.2-3.3,0.7-4,2.2l0,0c2.1,0.4,16.3,9.7,21.3,13c1.6,1,2.6,2.7,2.6,4.6c0,1.7-1,3.3-4.2,2.2
		c-6.9-2.4-18.9-9.4-18.9-9.4s-6.3-2.5-10.9,0c-6.4,3.6-9.2,4.9-14.2,2.6c-3-1.3-5.8-3-8.4-5l-21.6-1.1c-2.6-0.1-4.7-2.4-4.5-5
		c0,0,0-0.1,0-0.1C122.1,431.5,125.3,421.1,139.9,414z"/>
	<path class="st6" d="M182,424.3c0,0.1,2.1-0.3,5.5-0.2c8.9,0.3,17.2,4.8,22.2,12.2c1.9,2.8,2.6,4.8,2.8,4.7
		c-0.1-0.5-0.3-0.9-0.5-1.4c-0.5-1.2-1.2-2.4-1.9-3.6c-5-7.7-13.4-12.3-22.5-12.4c-1.3,0-2.7,0.1-4,0.3
		C183,424,182.5,424.1,182,424.3z"/>
	<path class="st6" d="M185.7,417.6c1.9-0.4,3.8-0.5,5.7-0.4c4.6,0.4,9,2.2,12.7,5c3.6,2.9,6.9,6.3,9.6,10c1.1,1.4,1.9,2.5,2.6,3.4
		c0.3,0.4,0.6,0.8,1,1.2c-0.2-0.5-0.5-0.9-0.8-1.3c-0.6-0.8-1.4-2-2.4-3.5c-2.7-3.8-5.9-7.3-9.6-10.2c-3.7-2.9-8.3-4.7-13-5
		c-1.4-0.1-2.9,0-4.2,0.3c-0.4,0.1-0.7,0.2-1.1,0.3L185.7,417.6z"/>
	<path class="st2" d="M156.4,416c-0.5-0.6-1.1-1.1-1.8-1.5c-1.8-1.2-3.9-1.9-6-2c-3.2-0.1-6.3,0.6-9.1,2.1
		c-7,3.4-12.8,9.1-16.2,16.1c-0.8,1.5-1.3,3.1-1.6,4.8c-0.1,0.8-0.1,1.5,0,2.3c0.1,0.7,0.2,1.4,0.4,2.1c0.4,1.2,1.1,2.2,2,3
		c0.7,0.6,1.5,1.1,2.3,1.5l1.6,0.8c0.2,0.1,0.4,0.2,0.5,0.3c-0.2-0.1-0.4-0.1-0.6-0.2c-0.4-0.2-0.9-0.4-1.6-0.7
		c-0.8-0.4-1.6-0.9-2.4-1.5c-1-0.8-1.7-1.9-2.1-3.1c-0.2-0.7-0.4-1.4-0.4-2.1c-0.1-0.8-0.1-1.6,0-2.4c0.2-1.7,0.7-3.4,1.6-4.9
		c3.5-7.2,9.3-12.9,16.4-16.4c2.9-1.5,6.1-2.2,9.4-2c2.2,0.1,4.3,0.9,6.1,2.2c0.5,0.4,0.9,0.8,1.3,1.2
		C156.3,415.7,156.4,415.8,156.4,416z"/>
	<path class="st2" d="M104.9,393c-0.5,0.1-1,0.1-1.4,0c-0.9-0.1-2.2-0.1-3.9-0.1s-3.6,0.1-5.7,0.3c-4.7,0.5-9.2,1.6-13.6,3.2
		c-2,0.8-3.8,1.5-5.3,2.3s-2.6,1.4-3.4,1.8c-0.4,0.3-0.8,0.5-1.3,0.7c0.4-0.3,0.7-0.6,1.2-0.8c1.1-0.7,2.2-1.4,3.4-2
		c1.7-0.9,3.5-1.7,5.3-2.4c2.2-0.8,4.5-1.5,6.8-2.1c2.3-0.5,4.6-0.9,7-1.2c1.9-0.2,3.9-0.3,5.8-0.2c1.6,0,3,0.1,3.9,0.2
		C104,392.8,104.5,392.9,104.9,393z"/>
	<path class="st2" d="M108.8,442.9c-0.1-0.2-0.1-0.3-0.2-0.5c-0.2-0.5-0.3-1-0.4-1.5c-0.4-1.8-0.6-3.7-0.6-5.5
		c0.1-2.8,0.6-5.5,1.6-8.1c1.2-3.2,2.8-6.2,5-8.8c4-4.7,9.1-8.4,14.8-10.8c1.7-0.8,3.4-1.4,5.2-2c0.6-0.2,1.1-0.4,1.4-0.5
		c0.2-0.1,0.3-0.1,0.5-0.1c-0.2,0.1-0.3,0.2-0.5,0.2l-1.4,0.5c-1.2,0.5-3,1.2-5.1,2.2c-5.6,2.5-10.5,6.2-14.5,10.8
		c-2.1,2.6-3.8,5.5-5,8.6c-1,2.6-1.5,5.3-1.7,8C107.9,437.9,108.2,440.4,108.8,442.9z"/>
	<path class="st2" d="M357.1,409c-0.1-0.3-0.2-0.5-0.3-0.8c0-0.2,0-0.3,0-0.5v-0.3l0.1-0.3c0.3-0.4,0.7-0.8,1.1-1
		c2-0.9,5.4-1,8.7-3.1c1.8-1.2,3.4-2.5,5-3.9c1.8-1.7,3.7-3.2,5.8-4.6c4.8-3,10.3-4.8,16-5.2c5.6-0.5,11.3,0.2,16.7,2
		c4.4,1.5,8.6,3.5,12.4,6c2.6,1.7,5.1,3.5,7.4,5.6c0.8,0.7,1.5,1.3,1.9,1.7c0.2,0.2,0.4,0.4,0.6,0.6c-0.2-0.2-0.5-0.4-0.7-0.5
		c-0.4-0.4-1.1-0.9-1.9-1.6c-2.4-2-4.9-3.8-7.5-5.4c-3.9-2.4-8-4.4-12.4-5.8c-5.3-1.8-10.9-2.4-16.5-2c-5.6,0.5-11,2.2-15.8,5.2
		c-2,1.3-4,2.8-5.8,4.5c-1.6,1.4-3.3,2.7-5.1,3.9c-3.4,2.1-6.8,2.1-8.8,3c-0.4,0.2-0.8,0.5-1.1,0.9l-0.1,0.3v0.3c0,0.2,0,0.3,0,0.5
		C357,408.7,357.1,409,357.1,409z"/>
	<g class="st4">
		<path d="M371.9,407.6c6.1,2.7,11.1,8.4,14,14.5c1,2.2,1.4,4.7,1.4,7.1c0.1,1.7-0.7,3.2-2.1,4.1c-1.8,1.1-4.9,2.3-7,2.2
			c-3.4-0.2-5.9-1.7-9.3-1.9c-4.4-0.3-12.2-1.5-12.2-1.8c-0.1-2.2-3.1-7.9-3.5-12.1c0-0.2,0-0.4-0.1-0.7c-0.8-6.4,3.8-12.3,10.3-13
			c1-0.1,2-0.1,3,0C368.3,406.3,370.1,406.9,371.9,407.6z"/>
	</g>
	<path class="st5" d="M371.9,407.6l-14.8,1.4c0,0-25.9-7.3-31-6.1c-4.6,1.1-20.9,13.7-24.1,16.2c-0.4,0.3-0.6,0.7-0.7,1.1l0,0
		c-0.6,1.9,0.5,3.9,2.4,4.5l0.4,0.1l-0.1,0.5c-0.1,0.7-0.2,1.4-0.1,2.1c0.2,1.4,1.4,2.3,2.8,2.1c0.8-0.1,1.5-0.6,1.9-1.4l-0.6,1.2
		c-0.2,0.5-0.3,1-0.2,1.6l0.1,1c0.1,1.2,1,2.1,2.1,2.4l0,0c1.1,0.3,2.2-0.1,2.9-1c2-2.5,6.3-7.6,9.5-8.4c3.4-0.7,6.8-1.1,10.3-1.2
		c1.4-0.1,2.8,0.7,3.4,2l0,0c-1.9,0.3-14.5,8-18.9,10.8c-1.4,0.8-2.3,2.3-2.4,3.9c-0.1,1.5,0.8,2.9,3.6,2c6.1-1.9,16.8-7.8,16.8-7.8
		s5.6-2,9.5,0.3c5.5,3.3,8,4.5,12.3,2.7c2.7-1.1,5.2-2.5,7.5-4.2l18.9-0.4c2.3,0,4.1-1.9,4.1-4.2c0,0,0-0.1,0-0.1
		C387,423.4,384.5,414.2,371.9,407.6z"/>
	<path class="st6" d="M334.8,415.5c0,0.1-1.8-0.3-4.8-0.3c-7.8,0-15.2,3.8-19.8,10.1c-1.7,2.4-2.4,4.1-2.5,4.1
		c0.1-0.4,0.3-0.8,0.5-1.2c0.5-1.1,1.1-2.1,1.8-3.1c4.5-6.6,12-10.4,20-10.3c1.2,0,2.4,0.1,3.5,0.3
		C333.9,415.3,334.4,415.4,334.8,415.5z"/>
	<path class="st6" d="M331.7,409.6c-1.6-0.4-3.3-0.5-5-0.5c-4.1,0.3-7.9,1.7-11.2,4.1c-3.3,2.4-6.2,5.3-8.7,8.5l-2.3,2.9
		c-0.3,0.4-0.6,0.7-0.9,1c0.2-0.4,0.5-0.8,0.8-1.1c0.5-0.7,1.3-1.7,2.2-3c2.5-3.3,5.4-6.2,8.7-8.6c3.4-2.4,7.4-3.8,11.5-4
		c1.2,0,2.5,0.1,3.7,0.4c0.3,0.1,0.7,0.2,1,0.3C331.6,409.5,331.7,409.6,331.7,409.6z"/>
	<path class="st2" d="M357.4,408.9c0.1-0.2,0.2-0.3,0.3-0.4c0.4-0.4,0.7-0.7,1.1-1c1.6-1.1,3.4-1.7,5.3-1.8c2.8-0.1,5.6,0.6,8.1,2
		c3.1,1.6,5.8,3.6,8.2,6.1c2.4,2.5,4.3,5.3,5.8,8.5c0.7,1.3,1.1,2.8,1.4,4.3c0.2,1.3-0.1,2.7-0.8,3.9c-0.5,0.9-1.2,1.8-2.1,2.5
		c-0.6,0.5-1.3,1-2,1.5c-0.6,0.4-1,0.6-1.3,0.8c-0.1,0.1-0.3,0.2-0.5,0.2c0,0,0.6-0.4,1.7-1.2c0.7-0.5,1.3-1,1.9-1.5
		c0.8-0.7,1.4-1.5,1.9-2.5c0.6-1.1,0.8-2.4,0.6-3.6c-0.2-1.4-0.7-2.8-1.4-4.1c-2.9-6.2-7.7-11.2-13.7-14.4c-2.4-1.3-5.1-2-7.9-2
		c-1.9,0.1-3.7,0.6-5.2,1.6C358.4,408.1,357.9,408.5,357.4,408.9z"/>
	<path class="st2" d="M403,390.1c0.4-0.1,0.8-0.2,1.2-0.2c1.1-0.1,2.3-0.2,3.4-0.1c3.8,0,7.5,0.6,11.1,1.5c3.6,1,7.1,2.4,10.4,4.2
		c1,0.6,2,1.2,2.9,1.8c0.4,0.2,0.7,0.5,1,0.8c0,0.1-1.5-0.9-4.1-2.3c-3.3-1.7-6.8-3.1-10.4-4.1c-3.6-1-7.3-1.5-11-1.7
		C404.8,390,403,390.2,403,390.1z"/>
	<path class="st2" d="M398.3,433.6c2.1-7.4,0.4-15.3-4.5-21.2c-3.4-4.1-7.6-7.5-12.4-9.8c-1.8-0.9-3.4-1.6-4.4-2
		c-0.6-0.2-1.1-0.4-1.6-0.7c0.2,0,0.3,0.1,0.5,0.1c0.3,0.1,0.7,0.2,1.3,0.4c1.5,0.6,3,1.2,4.5,1.9c4.9,2.3,9.2,5.6,12.6,9.8
		c1.8,2.4,3.2,5,4.2,7.8c0.8,2.3,1.2,4.7,1.2,7.1c0,1.6-0.2,3.3-0.6,4.9c-0.1,0.4-0.3,0.8-0.4,1.3
		C398.4,433.4,398.4,433.5,398.3,433.6z"/>
	<path class="st7" d="M169,338.9c-0.1-0.5-0.2-0.9-0.2-1.4c-0.1-1-0.3-2.3-0.5-3.9c-0.4-3.2-1-7.7-1.9-12.6s-1.9-9.3-2.7-12.5
		l-0.9-3.8c-0.1-0.5-0.2-0.9-0.3-1.4c0.2,0.4,0.4,0.9,0.5,1.4c0.3,0.9,0.7,2.1,1.1,3.7c0.9,3.2,1.9,7.6,2.8,12.5s1.5,9.4,1.8,12.7
		c0.2,1.6,0.3,3,0.3,3.9C169,337.9,169,338.4,169,338.9z"/>
	<path class="st7" d="M411,395.2c0,0-0.6-0.2-1.6-0.7c-1.5-0.6-3-1.1-4.5-1.5c-10.2-2.9-21.2-1.1-29.9,4.9c-1.3,0.9-2.6,1.9-3.8,2.9
		c-0.4,0.4-0.9,0.8-1.3,1.1c0.1-0.1,0.2-0.2,0.3-0.4c0.2-0.2,0.5-0.5,0.9-0.9c1.2-1.1,2.4-2.1,3.7-3c8.8-6.3,19.9-8.1,30.2-5
		c1.5,0.5,3,1,4.5,1.7c0.5,0.2,0.9,0.5,1.1,0.6S411,395.1,411,395.2z"/>
	<path class="st7" d="M373.7,394.1c0,0-0.1-0.1-0.3-0.4s-0.4-0.7-0.7-1.1l-2.6-4.2c-2.2-3.5-5.2-8.5-9.1-13.5
		c-1.9-2.5-3.8-4.9-5.4-7.2c-1.5-2-2.8-4.1-3.9-6.3c-0.8-1.5-1.4-3-1.8-4.6c-0.2-0.6-0.2-1-0.3-1.3c0-0.2-0.1-0.3-0.1-0.5
		c0.2,0.6,0.4,1.1,0.6,1.7c0.5,1.6,1.2,3.1,2,4.5c1.2,2.1,2.5,4.2,3.9,6.1c1.6,2.2,3.5,4.6,5.5,7.1c3.3,4.4,6.3,8.9,9,13.7
		c1,1.8,1.9,3.3,2.5,4.3l0.6,1.2C373.6,393.8,373.7,394,373.7,394.1z"/>
	<path class="st7" d="M165.7,383.5c-0.9,1-1.9,1.9-3,2.7c-1.9,1.5-4.7,3.6-7.7,5.9s-5.8,4.3-7.8,5.8l-2.4,1.7
		c-0.3,0.2-0.6,0.4-0.9,0.6c0.2-0.3,0.5-0.5,0.8-0.7c0.5-0.5,1.3-1.1,2.3-1.9c1.9-1.5,4.7-3.6,7.7-5.9l7.8-5.8l2.4-1.8
		C165.1,383.9,165.4,383.7,165.7,383.5z"/>
	<path class="st7" d="M144.4,411c0,0-0.6-0.6-1.5-1.8c-1.4-1.6-2.9-3.1-4.6-4.4c-5.4-4.4-11.9-7.4-18.9-8.6
		c-6.9-1.1-14-0.8-20.8,1.1c-2,0.6-4,1.2-6,2c-0.7,0.3-1.2,0.5-1.6,0.6c-0.2,0.1-0.4,0.1-0.6,0.2c0.2-0.1,0.3-0.2,0.5-0.3
		c0.4-0.2,0.9-0.4,1.6-0.7c2-0.8,4-1.6,6-2.2c6.8-2,14-2.4,21-1.3c7,1.2,13.6,4.3,19,8.9c1.6,1.4,3.1,2.9,4.5,4.6
		c0.5,0.6,0.8,1.1,1,1.4C144.2,410.7,144.3,410.8,144.4,411z"/>
	<path class="st7" d="M141,397.9c-0.1-0.1-0.2-0.3-0.3-0.5l-0.8-1.4l-0.6-1c-0.2-0.4-0.5-0.7-0.8-1.1c-0.6-0.8-1.1-1.8-1.9-2.7
		l-1.2-1.5c-0.4-0.5-0.9-1-1.4-1.6c-0.9-1.1-2-2.2-3.2-3.4c-2.6-2.4-5.4-4.6-8.4-6.5c-3-1.9-6.2-3.4-9.5-4.7c-1.5-0.5-3-1.1-4.4-1.4
		c-0.7-0.2-1.4-0.4-2-0.5l-1.9-0.4c-1.2-0.3-2.3-0.4-3.3-0.5c-0.5-0.1-0.9-0.1-1.4-0.2l-1.2-0.1l-1.6-0.1c-0.2,0-0.4,0-0.6-0.1
		c0.2,0,0.4,0,0.6,0h1.6h1.2c0.4,0,0.9,0.1,1.4,0.1c1.1,0.1,2.2,0.3,3.3,0.5l1.9,0.4c0.7,0.1,1.3,0.4,2.1,0.5
		c1.4,0.3,2.9,0.9,4.5,1.4c6.7,2.5,12.9,6.3,18.1,11.3c1.1,1.2,2.3,2.3,3.2,3.4c0.5,0.6,0.9,1.1,1.4,1.6l1.2,1.6
		c0.8,1,1.3,2,1.9,2.8c0.3,0.4,0.5,0.8,0.7,1.2s0.4,0.7,0.5,1l0.7,1.4C140.9,397.6,141,397.7,141,397.9z"/>
	<path class="st7" d="M362.7,290.1c-0.1,0.2-0.1,0.4-0.3,0.5l-0.8,1.4c-0.4,0.6-0.8,1.4-1.3,2.2s-1.1,1.9-1.6,3
		c-1.2,2.3-2.5,5-3.8,8.1s-2.5,6.6-3.6,10.3s-1.9,7.4-2.5,10.7s-1,6.3-1.2,8.9c-0.1,1.3-0.2,2.4-0.3,3.4s-0.1,1.9-0.1,2.6
		s0,1.2-0.1,1.6c0,0.2,0,0.4-0.1,0.6c0-0.2,0-0.4,0-0.6c0-0.4,0-1,0-1.6c0-0.7,0-1.6,0-2.6s0.1-2.2,0.2-3.5c0.2-2.6,0.5-5.6,1.1-8.9
		c1.2-7.2,3.3-14.3,6.2-21.1c1.3-3.1,2.7-5.9,3.9-8.1c0.6-1.1,1.2-2.1,1.7-3s1-1.6,1.4-2.2l0.9-1.4
		C362.5,290.3,362.6,290.2,362.7,290.1z"/>
	<path class="st3" d="M179,251.4c0,0-8.2-12.8,0-22.8s58.8-20,62.4-20.7s22.1-3.2,24.2-2.5s30,14.3,40.3,21s26.5,17.5,16.3,30.7
		c-10.5,13.5-43.8,49.8-43.8,49.8L255.2,333c0,0-23.5-29.9-28.9-34.6S179,251.4,179,251.4z"/>
	<path class="st8" d="M179,251.4c0,0-8.2-12.8,0-22.8s58.8-20,62.4-20.7s22.1-3.2,24.2-2.5s30,14.3,40.3,21s25.6,18.6,17.2,29.7
		c-10.3,13.7-43,48.9-43,48.9L255.2,333c0,0-23.5-29.9-28.9-34.6S179,251.4,179,251.4z"/>
	<path class="st3" d="M197.1,218.1c0,0-0.9,17.7,0.3,23.9s22.4,41.4,34.5,49.8s13.1,11.8,23.4,9c10.3-2.8,15.4-11.5,20.8-17.9
		s17.7-17.4,20.9-27.3s6.2-30.9,6.2-30.9l-40.6-20.5C242.5,205,220.1,210.8,197.1,218.1z"/>
	<path class="st9" d="M197.1,218.1c0,0-0.9,17.7,0.3,23.9s22.4,41.4,34.5,49.8s13.1,11.8,23.4,9c10.3-2.8,15.4-11.5,20.8-17.9
		s17.7-17.4,20.9-27.3s6.2-30.9,6.2-30.9l-40.6-20.5C242.5,205,220.1,210.8,197.1,218.1z"/>
	<path class="st5" d="M249.6,147.1L249.6,147.1c-24.4,0.4-44.2,19.4-44.6,43.1c-0.4,21.1-0.5,44.4,0.4,55.6
		c1.8,23.3,26.2,25.5,26.2,25.5l0.2,14.3c0,2.4-0.2,6-0.2,6c11.2,7.9,13.6,11.9,23.7,9.2c10.3-2.7,15.4-11.5,20.7-17.9
		c4.4-5.2,13.4-13.5,18.3-21.7l0.3-69.8C295.1,167,274.8,147,249.6,147.1z"/>
	<path class="st6" d="M204.6,222c0,0,23.6-7.7,38.3-8.1c9-0.2,51.5,12.1,51.5,12.1v-4c0,0-31.9-16.6-53.2-14.1
		c-12.5,1.4-24.8,4.4-36.6,8.9L204.6,222z"/>
	<path class="st6" d="M231.6,271.4c0,0,15.4,0.3,30.9-10.6c0,0-6.6,17.5-30.8,16.9L231.6,271.4z"/>
	<path class="st2" d="M212.6,203.6c0.4,0.4,3-1.5,6.7-1.6s6.5,1.7,6.9,1.2c0.2-0.2-0.3-1-1.5-1.8c-1.6-1.1-3.6-1.6-5.5-1.5
		c-1.9,0-3.8,0.7-5.4,1.8C212.8,202.6,212.4,203.4,212.6,203.6z"/>
	<path class="st2" d="M249.4,202.3c0.4,0.4,3-1.6,6.7-1.7c3.7-0.1,6.5,1.6,6.9,1.1c0.2-0.2-0.3-1-1.5-1.8c-1.7-1-3.6-1.5-5.5-1.4
		c-1.9,0.1-3.8,0.7-5.3,1.9C249.6,201.3,249.2,202.1,249.4,202.3z"/>
	<path class="st2" d="M235.8,227.4c0-0.2-2.3-0.4-6.1-0.7c-1,0-1.9-0.2-2.1-0.8c-0.1-0.9,0-1.9,0.5-2.8c0.7-2.3,1.5-4.6,2.4-7.1
		c3.2-10.2,5.5-18.5,5.1-18.6s-3.4,8-6.6,18.2l-2.2,7.2c-0.3,1.1-0.8,2.3-0.3,3.6c0.3,0.6,0.9,1.1,1.6,1.2c0.5,0.1,1.1,0.1,1.6,0.1
		C233.5,227.8,235.8,227.6,235.8,227.4z"/>
	<path class="st2" d="M246.9,194.1c0.6,0.9,4.1-0.4,8.5-0.9s8.1-0.2,8.4-1.2c0.1-0.5-0.7-1.2-2.3-1.8c-2.1-0.7-4.4-0.9-6.6-0.6
		c-2.2,0.2-4.4,1-6.2,2.2C247.2,192.7,246.6,193.6,246.9,194.1z"/>
	<path class="st2" d="M211.2,194.5c0.5,1,3.4,0.8,6.6,1.5s5.8,1.9,6.7,1.2c0.4-0.3,0.1-1.2-0.9-2.3c-1.4-1.3-3.2-2.2-5.1-2.6
		c-1.9-0.4-3.9-0.3-5.7,0.4C211.6,193.3,211,194,211.2,194.5z"/>
	<path class="st2" d="M250.2,234.9c-0.1,0.2-1-0.3-2.5-0.6c-1.9-0.5-3.8-0.5-5.6,0.1c-1.8,0.6-3.4,1.6-4.7,3c-1,1.1-1.4,2-1.7,1.9
		s-0.1-1.1,0.7-2.5c1.2-1.9,3-3.3,5.2-3.9c2.2-0.6,4.5-0.5,6.6,0.4C249.7,233.9,250.4,234.8,250.2,234.9z"/>
	<path class="st2" d="M216.1,206.7c0.1,1.8,1.7,3.2,3.5,3.1c1.8,0.1,3.3-1.3,3.3-3.1c0,0,0,0,0-0.1c-0.1-1.8-1.7-3.2-3.5-3.1
		C217.6,203.5,216.1,204.9,216.1,206.7C216.1,206.7,216.1,206.7,216.1,206.7z"/>
	<path class="st2" d="M252.9,205.1c0.1,1.8,1.7,3.2,3.5,3.1c1.8,0.1,3.3-1.3,3.3-3.1c0,0,0-0.1,0-0.1c-0.1-1.8-1.7-3.2-3.5-3.1
		c-1.8-0.1-3.3,1.3-3.3,3.1C252.9,205,252.9,205.1,252.9,205.1z"/>
	<path class="st6" d="M231.6,271.4c0,0,15.4,0.3,30.9-10.6c0,0-6.6,17.5-30.8,16.9L231.6,271.4z"/>
	<path class="st2" d="M212.6,203.6c0.4,0.4,3-1.5,6.7-1.6s6.5,1.7,6.9,1.2c0.2-0.2-0.3-1-1.5-1.8c-1.6-1.1-3.6-1.6-5.5-1.5
		c-1.9,0-3.8,0.7-5.4,1.8C212.8,202.6,212.4,203.4,212.6,203.6z"/>
	<path class="st2" d="M249.4,202.3c0.4,0.4,3-1.6,6.7-1.7c3.7-0.1,6.5,1.6,6.9,1.1c0.2-0.2-0.3-1-1.5-1.8c-1.7-1-3.6-1.5-5.5-1.4
		c-1.9,0.1-3.8,0.7-5.3,1.9C249.6,201.3,249.2,202.1,249.4,202.3z"/>
	<path class="st2" d="M235.8,227.4c0-0.2-2.3-0.4-6.1-0.7c-1,0-1.9-0.2-2.1-0.8c-0.1-0.9,0-1.9,0.5-2.8c0.7-2.3,1.5-4.6,2.4-7.1
		c3.2-10.2,5.5-18.5,5.1-18.6s-3.4,8-6.6,18.2l-2.2,7.2c-0.3,1.1-0.8,2.3-0.3,3.6c0.3,0.6,0.9,1.1,1.6,1.2c0.5,0.1,1.1,0.1,1.6,0.1
		C233.5,227.8,235.8,227.6,235.8,227.4z"/>
	<path class="st2" d="M246.9,194.1c0.6,0.9,4.1-0.4,8.5-0.9s8.1-0.2,8.4-1.2c0.1-0.5-0.7-1.2-2.3-1.8c-2.1-0.7-4.4-0.9-6.6-0.6
		c-2.2,0.2-4.4,1-6.2,2.2C247.2,192.7,246.6,193.6,246.9,194.1z"/>
	<path class="st2" d="M211.2,194.5c0.5,1,3.4,0.8,6.6,1.5s5.8,1.9,6.7,1.2c0.4-0.3,0.1-1.2-0.9-2.3c-1.4-1.3-3.2-2.2-5.1-2.6
		c-1.9-0.4-3.9-0.3-5.7,0.4C211.6,193.3,211,194,211.2,194.5z"/>
	<path class="st2" d="M250.2,234.9c-0.1,0.2-1-0.3-2.5-0.6c-1.9-0.5-3.8-0.5-5.6,0.1c-1.8,0.6-3.4,1.6-4.7,3c-1,1.1-1.4,2-1.7,1.9
		s-0.1-1.1,0.7-2.5c1.2-1.9,3-3.3,5.2-3.9c2.2-0.6,4.5-0.5,6.6,0.4C249.7,233.9,250.4,234.8,250.2,234.9z"/>
	<path class="st2" d="M216.1,206.7c0.1,1.8,1.7,3.2,3.5,3.1c1.8,0.1,3.3-1.3,3.3-3.1c0,0,0,0,0-0.1c-0.1-1.8-1.7-3.2-3.5-3.1
		C217.6,203.5,216.1,204.9,216.1,206.7C216.1,206.7,216.1,206.7,216.1,206.7z"/>
	<path class="st2" d="M252.9,205.1c0.1,1.8,1.7,3.2,3.5,3.1c1.8,0.1,3.3-1.3,3.3-3.1c0,0,0-0.1,0-0.1c-0.1-1.8-1.7-3.2-3.5-3.1
		c-1.8-0.1-3.3,1.3-3.3,3.1C252.9,205,252.9,205.1,252.9,205.1z"/>
	<path class="st3" d="M323.9,237.9c-3.4-5-6.6-13.6-6.6-13.6l-4.3-29.5c0,0-20.9-35.5-23.4-40.1s-14.6-17.5-14.6-17.5
		s-7.7-7.7-16.4-11.2c-3.6-1.4-7.7-1.1-11,0.9c-8.6,5.1-27.4,16.8-31.7,22.8c-5.7,7.8-18.9,33.2-18.9,33.2s-3.6,11.9-7.2,16.1
		s-15.1,27.1-15.1,34.2c0,1.4,0.7,4.2,0.8,5.6c0.4-2.7,0.8-6.9,2.9-9.5c8.2-10,58.8-20,62.4-20.7s19.5,1.7,21.7,2.4
		s32.1,9.4,42.8,15.6c8,4.6,17.4,11,20,19.4l-0.4-1.1C324.7,245,327.3,242.9,323.9,237.9z"/>
	<path class="st2" d="M322.2,257.1c0.1-0.1,0.2-0.3,0.3-0.4c0.2-0.2,0.5-0.6,0.8-1.2c1-1.5,1.6-3.3,1.9-5.1c0.2-1.3,0.1-2.6-0.2-3.9
		c-0.5-1.5-1.1-2.9-2-4.2c-0.9-1.6-2-3-3.1-4.4c-0.7-0.7-1.4-1.4-2.1-2.1c-0.8-0.7-1.5-1.4-2.4-2c-6.6-5.4-15.7-10.2-26.3-13.9
		c-5.3-1.9-11-3.6-16.9-5.3c-6-1.9-12.2-3.5-18.4-4.6c-6.2-1.1-12.6-1.1-18.8,0c-6,1-11.8,2.6-17.2,4c-10.9,2.8-20.7,5.6-28.6,8.8
		c-3.6,1.3-6.9,3.4-9.6,6.1c-2,2.1-3.4,4.7-4,7.5c-0.4,1.8-0.3,3.6,0.2,5.4c0.4,1.2,0.8,1.8,0.7,1.8s-0.1-0.1-0.2-0.4
		c-0.2-0.4-0.4-0.9-0.6-1.3c-0.6-1.8-0.7-3.6-0.3-5.5c0.5-2.9,1.9-5.6,3.9-7.7c2.8-2.7,6-4.8,9.7-6.2c7.9-3.3,17.7-6.1,28.6-8.9
		c5.5-1.4,11.2-3,17.3-4c3.1-0.5,6.2-0.8,9.4-0.8c3.2,0,6.5,0.3,9.6,0.8c6.2,1.2,12.4,2.7,18.5,4.6c5.9,1.7,11.6,3.4,16.9,5.4
		c10.6,3.8,19.8,8.6,26.4,14.1c0.8,0.7,1.6,1.4,2.4,2.1c0.8,0.7,1.5,1.3,2.1,2.1c1.2,1.4,2.2,2.9,3.1,4.4c0.9,1.3,1.5,2.8,2,4.3
		c0.3,1.3,0.4,2.7,0.2,4c-0.3,1.8-1,3.6-2,5.1C323,256.1,322.6,256.6,322.2,257.1z"/>
	<path class="st2" d="M250.3,164.8c-0.2,0.1-0.4,0.1-0.5,0.2l-1.6,0.3c-0.7,0.1-1.5,0.3-2.5,0.6s-2.1,0.5-3.2,0.8
		c-2.4,0.6-5.2,1.5-8.3,2.7c-6.7,2.5-13,5.7-19,9.6c-2.7,1.8-5.1,3.5-7.1,5.1c-1,0.8-1.8,1.5-2.6,2.1s-1.4,1.2-1.9,1.6l-1.2,1
		c-0.1,0.1-0.3,0.2-0.4,0.3c0.1-0.2,0.2-0.3,0.4-0.4l1.1-1.1c0.5-0.5,1.1-1.1,1.9-1.7s1.6-1.4,2.6-2.2c2.2-1.8,4.6-3.6,7-5.2
		c3-2,6.1-3.8,9.3-5.4c3.2-1.6,6.5-3,9.9-4.2c2.7-1,5.5-1.9,8.4-2.6c1.2-0.3,2.3-0.6,3.3-0.8s1.8-0.4,2.5-0.5l1.6-0.2
		C249.9,164.8,250.1,164.8,250.3,164.8z"/>
	<path class="st2" d="M269.6,153.4c-0.3,0.2-0.7,0.3-1,0.4c-0.7,0.2-1.7,0.5-2.9,0.8c-2.5,0.6-5.9,1.4-9.7,2.2s-7.3,1.3-9.8,1.7
		c-1.2,0.2-2.3,0.3-3,0.4c-0.4,0.1-0.7,0.1-1.1,0.1c0.3-0.1,0.7-0.2,1.1-0.3l3-0.6c2.5-0.4,5.9-1.1,9.7-1.8s7.2-1.5,9.7-2l2.9-0.6
		C268.9,153.4,269.2,153.4,269.6,153.4z"/>
	<path class="st2" d="M303.8,234.4c0,0,0,0.1,0,0.2s0,0.4,0,0.7c0,0.6,0,1.5-0.1,2.6c-0.2,3.2-0.9,6.3-1.9,9.3
		c-1.5,4.4-3.6,8.7-6.3,12.6c-3.2,4.8-6.7,9.3-10.5,13.6l-20.2,23.8l-6.2,7.2l-1.7,1.9l-0.5,0.5c0,0.1-0.1,0.1-0.2,0.2
		c0,0,0-0.1,0.1-0.2l0.4-0.5l1.6-2l6.1-7.3l20.2-23.9c3.8-4.3,7.3-8.8,10.5-13.5c2.6-3.9,4.7-8.1,6.3-12.5c1-3,1.7-6.1,2-9.2
		c0.1-1.1,0.1-2,0.1-2.6c0-0.3,0-0.5,0-0.7C303.7,234.5,303.8,234.4,303.8,234.4z"/>
	<path class="st2" d="M259.1,303.2c-0.1,0-0.2,0-0.2,0h-0.7c-0.9,0-1.8,0-2.7-0.1c-3.3-0.3-6.5-1-9.6-2.2c-4.6-1.8-8.9-4.2-12.7-7.2
		c-4.7-3.7-8.9-8-12.5-12.8c-3.9-5-7.3-10-10.3-14.6s-5.6-8.8-7.6-12.5c-1.6-2.9-3-5.9-4.2-8.9c-0.4-1.1-0.7-1.9-0.9-2.5l-0.2-0.7
		c0-0.1-0.1-0.2-0.1-0.2c0,0.1,0.1,0.1,0.1,0.2l0.3,0.6c0.2,0.6,0.6,1.4,1,2.5c1.3,3,2.7,6,4.3,8.8c2,3.6,4.6,7.8,7.7,12.4
		s6.4,9.6,10.3,14.6c3.6,4.7,7.8,9,12.4,12.7c3.8,3,8,5.5,12.5,7.2c3,1.2,6.2,2,9.5,2.3c1.1,0.1,2,0.2,2.7,0.2h0.7
		C259,303.1,259.1,303.1,259.1,303.2z"/>
	<path class="st2" d="M248.7,323.1c-0.1,0-0.1-0.1-0.2-0.2l-0.5-0.5l-1.8-2.1l-6.8-7.6c-5.7-6.4-13.8-15.1-22.9-24.4
		s-17.7-17.5-24-23.4l-7.4-6.9l-2-1.9c-0.2-0.2-0.4-0.4-0.5-0.5c-0.1-0.1-0.1-0.1-0.2-0.2c0,0,0.1,0,0.2,0.1l0.6,0.5l2.1,1.8
		c1.8,1.6,4.4,3.9,7.6,6.8c6.3,5.8,14.9,14,24.1,23.3s17.2,18.1,22.8,24.5c2.8,3.2,5.1,5.9,6.6,7.7l1.8,2.1l0.4,0.6
		C248.7,323,248.7,323.1,248.7,323.1z"/>
	<path class="st2" d="M323.1,256.1c0.1,0.1-12.6,14.7-28.4,32.6S266.1,321,266,320.9s12.6-14.7,28.4-32.6S323,256,323.1,256.1z"/>
	<g class="st4">
		<path d="M200.7,189.2c7-7.7,15.2-14.2,23.4-20.6c2.6-2.2,5.5-4.1,8.5-5.8c5.2-2.5,11.1-3,16.8-3.4c4.7-0.3,9.4-0.6,14.1-0.8
			c1.3-0.2,2.6,0,3.8,0.5c1.2,0.6,1.8,2,1.2,3.3c-0.6,1.1-2.1,1.2-3.4,1.2c-22.9,0.5-44.9,8.7-62.5,23.2"/>
	</g>
	<path class="st7" d="M253.9,332c-0.1,0.1-8.6-9.5-19-21.5s-18.7-21.8-18.6-21.9s8.6,9.5,19,21.5S254,331.9,253.9,332z"/>
	<path class="st7" d="M281,306.5c-0.8,0.9-1.6,1.7-2.5,2.5c-1.6,1.5-3.7,3.7-6,6.1s-4.4,4.6-5.8,6.3c-0.8,0.9-1.6,1.8-2.4,2.6
		c0.1-0.3,0.3-0.6,0.5-0.8c0.4-0.5,0.9-1.2,1.6-2c1.4-1.7,3.4-4,5.7-6.4s4.5-4.5,6.2-6c0.8-0.7,1.5-1.3,2-1.7
		C280.6,306.9,280.8,306.7,281,306.5z"/>
	<path class="st7" d="M273.9,292.6c-0.6,0.8-1.2,1.5-1.9,2.1l-4.6,5l-4.6,5.1c-0.6,0.7-1.3,1.4-2,2c0.5-0.8,1.1-1.6,1.7-2.3
		c1.1-1.4,2.7-3.2,4.5-5.2s3.5-3.7,4.8-4.9C272.5,293.7,273.2,293.1,273.9,292.6z"/>
	<path class="st7" d="M262,257.5c0,0-0.1,0.1-0.3,0.4l-1,1l-0.7,0.7c-0.3,0.2-0.6,0.5-0.9,0.8c-0.7,0.6-1.5,1.2-2.3,1.8l-1.4,1
		c-0.5,0.3-1,0.6-1.6,0.9c-1.1,0.7-2.3,1.2-3.6,1.8c-5.7,2.5-11.9,3.6-18.2,3.3c-1.3-0.1-2.7-0.2-4-0.4c-0.6-0.1-1.2-0.2-1.8-0.3
		l-1.6-0.4c-0.9-0.2-1.9-0.5-2.8-0.9c-0.4-0.1-0.8-0.3-1.1-0.4l-0.9-0.4l-1.3-0.6c-0.3-0.1-0.4-0.2-0.4-0.2c0.2,0,0.3,0.1,0.5,0.1
		l1.3,0.5l0.9,0.4c0.3,0.1,0.7,0.2,1.1,0.4c0.9,0.3,1.8,0.6,2.8,0.8l1.6,0.4c0.6,0.1,1.2,0.2,1.8,0.3c1.3,0.2,2.7,0.3,4,0.4
		c6.1,0.3,12.3-0.8,17.9-3.2c1.3-0.6,2.5-1.1,3.6-1.8c0.5-0.3,1.1-0.6,1.6-0.9l1.4-0.9c0.8-0.5,1.6-1.1,2.3-1.7
		c0.3-0.3,0.7-0.5,0.9-0.7l0.7-0.7l1-0.9C261.7,257.7,261.9,257.6,262,257.5z"/>
	<path class="st7" d="M288.4,217.8c-0.1,0-0.2,0-0.2,0l-0.7-0.2c-0.6-0.2-1.5-0.4-2.7-0.8c-2.3-0.7-5.7-1.9-9.8-3.4
		c-4.8-1.8-9.7-3.3-14.6-4.5c-2.9-0.7-5.9-1.2-8.9-1.5c-3.2-0.3-6.5-0.4-9.7-0.2c-3.2,0.1-6.4,0.6-9.6,1.4l-8.8,2.3
		c-5.6,1.5-10.6,2.9-14.8,4.1l-9.9,2.9l-2.7,0.8l-0.7,0.2c-0.1,0-0.2,0-0.2,0l0.2-0.1l0.7-0.2l2.7-0.9c2.3-0.8,5.7-1.8,9.9-3.1
		s9.2-2.7,14.8-4.2l8.8-2.3c3.1-0.9,6.4-1.4,9.7-1.5c3.3-0.1,6.5,0,9.8,0.3c3,0.3,6,0.9,9,1.6c5,1.3,9.8,2.8,14.6,4.7
		c4.1,1.5,7.4,2.8,9.7,3.5c1.1,0.4,2.1,0.7,2.7,0.9l0.7,0.2L288.4,217.8z"/>
</g>
<g id="freepik--Device--inject-38">
	<path class="st10" d="M166.6,357l10,100H342l5.1-101.7c0.1-4.6-3.5-8.4-8.1-8.5c-0.2,0-0.3,0-0.5,0L175,348.1
		c-4.6-0.1-8.4,3.6-8.5,8.1C166.5,356.5,166.5,356.8,166.6,357z"/>
	<ellipse class="st1" cx="260.4" cy="398.2" rx="9.1" ry="8.7"/>
	<path class="st11" d="M223.5,390c-0.8-2.6-1.9-5.1-3.5-7.4c-3.7-4.6-8.2-7.2-14.4-6.3c-1.8,0.2-3.5,0.8-5.1,1.5l0,0l-0.2,0.1
		c-0.4,0.2-0.8,0.4-1.2,0.6l0,0c-1.5,0.9-2.9,2-4.1,3.2c-4.1,4.5-4.3,9.5-2.3,15c1.2,2.5,2.7,4.8,4.6,6.8c0.8,0.8,1.9,1.4,1.9,1.7
		s-0.6,1.1,1,3.6c1.3,1.9,5.1,0.7,6.8,0c0.5-0.2,1,0,1.2,0.4l2.2,3.8c0.3,0.5,0.9,0.6,1.4,0.4l0.5-0.2c0.5-0.2,0.6-0.8,0.4-1.2
		c0,0,0,0,0,0l-0.5-0.9c-0.2-0.5-0.1-1,0.4-1.3c0,0,0,0,0,0c0.5-0.3,1.1-0.1,1.4,0.4l0.7,1.2c0.3,0.5,0.9,0.6,1.4,0.4l0.5-0.2
		c0.5-0.2,0.6-0.8,0.4-1.2c0,0,0,0,0-0.1l-0.7-1.1c-0.2-0.5-0.1-1,0.4-1.3c0,0,0,0,0,0l0.1-0.1l0,0c0.5-0.3,1.1-0.1,1.4,0.4l0.6,1.1
		c0.3,0.5,0.9,0.7,1.4,0.4l0.5-0.2c0.5-0.2,0.7-0.8,0.4-1.2c0,0,0,0,0-0.1l-0.7-1.2c-0.2-0.4-0.1-1,0.4-1.3c0,0,0,0,0.1,0
		c0.5-0.3,1.1-0.1,1.3,0.4l0.5,0.9c0.3,0.5,0.9,0.6,1.3,0.4l0.5-0.2c0.5-0.2,0.6-0.8,0.4-1.2c0,0,0,0,0-0.1l-2.1-3.8
		c-0.2-0.4-0.1-1,0.3-1.2c1.5-1,4.7-3.4,3.7-5.4c-1.3-2.7-2.3-2.6-2.6-2.8C223.7,391.6,223.6,390.8,223.5,390z"/>
	<path class="st2" d="M223.5,390c0.1,0.2,0.1,0.4,0.1,0.6c0,0.2,0.1,0.5,0.1,0.8c0,0.3,0.1,0.7,0.2,1c0.4,0.1,0.8,0.4,1.2,0.7
		c0.4,0.4,0.7,0.8,1,1.3c0.1,0.2,0.3,0.5,0.4,0.8c0.1,0.3,0.2,0.7,0.2,1c-0.1,0.7-0.4,1.4-0.9,2c-0.5,0.6-1.1,1.2-1.7,1.7
		c-0.3,0.3-0.7,0.5-1.1,0.8c-0.4,0.1-0.6,0.5-0.5,0.9c0.1,0.2,0.2,0.4,0.3,0.6l0.4,0.6l0.7,1.2l0.8,1.3c0.2,0.2,0.3,0.5,0.3,0.8
		c0,0.3-0.2,0.6-0.4,0.8c-0.2,0.2-0.5,0.3-0.7,0.4c-0.6,0.3-1.3,0-1.6-0.6l-0.4-0.7c-0.2-0.4-0.7-0.5-1.1-0.3c0,0,0,0-0.1,0
		c-0.2,0.1-0.3,0.4-0.3,0.6c0,0.1,0,0.2,0.1,0.3l0.2,0.4l0.4,0.8c0.2,0.3,0.2,0.7,0.1,1c-0.1,0.3-0.4,0.6-0.8,0.7
		c-0.3,0.2-0.6,0.3-1,0.3c-0.4,0-0.7-0.3-0.9-0.6l-0.5-0.8c-0.2-0.3-0.3-0.5-0.5-0.6c-0.2-0.1-0.5-0.1-0.7,0l0.1-0.3l0,0l0.1,0.2
		l-0.2,0.1c-0.4,0.1-0.6,0.5-0.5,0.9c0,0.1,0,0.1,0.1,0.2l0.4,0.8l0.2,0.4c0.1,0.2,0.1,0.4,0.1,0.5c0,0.4-0.2,0.7-0.5,0.9
		c-0.3,0.2-0.6,0.3-0.9,0.4c-0.6,0.1-1.1-0.1-1.4-0.6l-0.2-0.4l-0.5-0.8c-0.1-0.2-0.3-0.3-0.6-0.4c-0.4-0.1-0.8,0.2-0.8,0.6
		c0,0.1,0,0.2,0,0.2c0.1,0.3,0.3,0.5,0.4,0.8c0.2,0.3,0.3,0.7,0.2,1.1c-0.1,0.4-0.4,0.7-0.8,0.9l-0.4,0.2c-0.2,0.1-0.4,0.1-0.6,0.1
		c-0.4,0-0.8-0.3-1-0.6l-0.5-0.9l-1-1.7l-0.5-0.9c-0.2-0.3-0.3-0.5-0.5-0.6c-0.2-0.1-0.5-0.1-0.8,0c-0.3,0.1-0.6,0.2-1,0.4
		c-1.3,0.5-2.7,0.7-4.1,0.5c-0.8-0.1-1.5-0.5-1.9-1.2c-0.4-0.6-0.8-1.2-1-1.9c-0.1-0.4-0.2-0.8-0.1-1.2c0-0.1,0-0.2,0-0.3
		c0-0.1,0-0.2,0-0.1c-0.1-0.1-0.2-0.2-0.3-0.3c-0.6-0.5-1.2-1-1.8-1.5c-1.1-1.1-2-2.3-2.8-3.6c-0.4-0.7-0.8-1.3-1.1-2
		c-0.2-0.3-0.3-0.7-0.5-1l-0.4-1.1c-0.5-1.4-0.8-2.8-0.9-4.3c-0.2-2.8,0.5-5.6,2.1-8c1.5-2.2,3.4-3.9,5.7-5.2l-0.1,0.3l0,0l-0.1-0.2
		l0.2-0.1l1.4-0.7l0.2-0.1l0.1,0.2l0,0l-0.3-0.1c3.8-1.9,8.2-2.2,12.2-0.9c3,1.2,5.6,3.2,7.5,5.8c1.2,1.7,2.1,3.5,2.8,5.4
		c0.3,0.7,0.5,1.4,0.6,2.1c-0.1-0.2-0.1-0.3-0.2-0.5c-0.1-0.3-0.3-0.9-0.5-1.5c-0.8-1.9-1.8-3.7-2.9-5.3c-1.9-2.5-4.5-4.4-7.4-5.6
		c-3.9-1.3-8.2-0.9-11.9,0.9l-0.2,0.1l-0.1-0.2l0,0l0.3,0.1l-1.4,0.7l0.1-0.3l0,0l0.1,0.2l-0.2,0.1c-2.2,1.2-4.1,3-5.5,5.1
		c-1.5,2.3-2.2,5-2,7.7c0.1,1.4,0.4,2.8,0.9,4.2l0.4,1c0.1,0.3,0.3,0.7,0.5,1c0.3,0.6,0.7,1.3,1.1,1.9c0.8,1.3,1.7,2.5,2.7,3.5
		c0.5,0.5,1.1,1,1.7,1.5c0.2,0.1,0.4,0.3,0.5,0.5c0,0.1,0,0.3,0,0.4c0,0.1,0,0.2-0.1,0.3c0,0.3,0,0.7,0.1,1c0.2,0.6,0.5,1.2,0.9,1.8
		c0.3,0.5,0.9,0.9,1.5,0.9c1.3,0.1,2.7-0.1,3.9-0.5c0.3-0.1,0.6-0.2,0.9-0.3c0.4-0.2,0.8-0.2,1.2,0c0.2,0.1,0.4,0.2,0.5,0.4
		c0.1,0.2,0.2,0.3,0.3,0.5l0.5,0.9c0.3,0.6,0.7,1.1,1,1.7l0.5,0.9c0.1,0.2,0.3,0.3,0.6,0.4c0.3,0,0.5-0.1,0.8-0.3
		c0.2-0.1,0.4-0.3,0.5-0.5c0.1-0.2,0-0.4-0.2-0.7l-0.2-0.4c-0.1-0.2-0.2-0.3-0.2-0.5c-0.1-0.4,0-0.8,0.3-1.1c0.5-0.5,1.3-0.5,1.8,0
		c0.1,0.1,0.1,0.2,0.2,0.3l0.5,0.8l0.2,0.4c0.1,0.1,0.1,0.2,0.2,0.3c0.2,0.1,0.4,0.2,0.7,0.1c0.2-0.1,0.5-0.2,0.7-0.4
		c0.2-0.1,0.3-0.3,0.3-0.6c0-0.1,0-0.2-0.1-0.3l-0.2-0.4l-0.4-0.8c-0.2-0.3-0.2-0.7-0.1-1c0.1-0.3,0.4-0.6,0.7-0.7l-0.1,0.3l0,0
		l-0.1-0.2l0.2-0.1c0.4-0.2,0.8-0.2,1.1,0c0.2,0.1,0.3,0.2,0.4,0.4c0.1,0.2,0.2,0.3,0.3,0.4l0.5,0.8c0.1,0.2,0.3,0.4,0.6,0.4
		c0.3,0,0.5-0.1,0.8-0.2c0.2-0.1,0.4-0.3,0.5-0.5c0.1-0.2,0.1-0.5-0.1-0.7l-0.4-0.8l-0.2-0.4c-0.1-0.2-0.1-0.3-0.1-0.5
		c0-0.4,0.2-0.7,0.5-0.9c0.6-0.4,1.3-0.3,1.7,0.3c0,0,0,0.1,0.1,0.1l0.4,0.7c0.1,0.2,0.3,0.4,0.5,0.5c0.2,0.1,0.4,0.1,0.6,0
		c0.2-0.1,0.4-0.2,0.7-0.4c0.2-0.1,0.3-0.3,0.3-0.5c0-0.2-0.1-0.4-0.2-0.6l-0.7-1.3c-0.2-0.4-0.5-0.9-0.7-1.3l-0.3-0.6
		c-0.1-0.2-0.2-0.4-0.3-0.7c0-0.3,0-0.5,0.1-0.8c0.1-0.2,0.3-0.4,0.5-0.5c0.4-0.2,0.7-0.5,1-0.8c0.7-0.5,1.4-1,2-1.6
		c0.5-0.5,0.8-1.2,0.9-1.9c0-0.6-0.2-1.2-0.6-1.7c-0.3-0.5-0.6-0.9-1-1.3c-0.3-0.3-0.7-0.5-1.2-0.7c-0.2-0.2-0.2-0.4-0.2-0.6
		l-0.1-0.5l-0.1-0.8C223.5,390.4,223.5,390.2,223.5,390z"/>
	<path class="st12" d="M207.1,395.5c1.2,2.1,0.4,4.7-1.7,5.9c-0.1,0-0.1,0.1-0.2,0.1c-2.2,1.2-5,0.4-6.3-1.8
		c-1.2-2.1-0.4-4.7,1.6-5.9c0.1,0,0.1-0.1,0.2-0.1C203,392.6,205.8,393.3,207.1,395.5z"/>
	<path class="st2" d="M207.1,395.5c-0.1,0-0.2-0.3-0.8-0.8c-0.7-0.7-1.6-1.1-2.6-1.2c-1.5-0.2-2.9,0.3-3.9,1.4
		c-1.3,1.3-1.5,3.3-0.6,4.8c0.9,1.5,2.7,2.4,4.5,2.1c1.5-0.2,2.7-1.1,3.4-2.4c0.5-0.9,0.6-1.9,0.4-2.9
		C207.2,395.9,207,395.6,207.1,395.5s0.1,0.1,0.2,0.2c0.2,0.2,0.3,0.5,0.4,0.8c0.3,1,0.2,2.1-0.2,3.1c-0.7,1.5-2.1,2.5-3.7,2.7
		c-2,0.3-4-0.6-5-2.4c-0.5-0.9-0.7-1.9-0.5-2.9c0.1-0.9,0.6-1.8,1.2-2.5c1.1-1.1,2.8-1.6,4.3-1.4c1,0.2,2,0.7,2.7,1.5
		c0.2,0.2,0.4,0.4,0.5,0.7C207,395.3,207,395.4,207.1,395.5z"/>
	<path class="st12" d="M220,388.8c1.2,2.1,0.4,4.7-1.6,5.9c-0.1,0-0.1,0.1-0.2,0.1c-2.2,1.2-5,0.4-6.3-1.8c-1.2-2.1-0.5-4.7,1.6-5.9
		c0.1,0,0.2-0.1,0.2-0.1C215.9,385.8,218.7,386.6,220,388.8z"/>
	<path class="st2" d="M220,388.8c0,0-0.2-0.3-0.8-0.8c-0.7-0.7-1.6-1.1-2.6-1.2c-1.5-0.2-2.9,0.3-3.9,1.4c-1.2,1.3-1.5,3.3-0.6,4.8
		c0.9,1.5,2.7,2.4,4.5,2.1c1.5-0.2,2.7-1.1,3.4-2.4c0.4-0.9,0.6-1.9,0.4-2.9C220.2,389.1,220,388.8,220,388.8c0-0.1,0.1,0.1,0.2,0.2
		c0.1,0.2,0.3,0.5,0.3,0.8c0.3,1,0.2,2.1-0.2,3.1c-0.7,1.4-2.1,2.4-3.7,2.6c-2,0.3-4-0.6-5-2.4c-0.5-0.9-0.7-1.9-0.6-2.9
		c0.2-0.9,0.6-1.8,1.3-2.5c1.1-1.1,2.8-1.7,4.3-1.4c1,0.2,2,0.7,2.7,1.5c0.2,0.2,0.4,0.4,0.5,0.7C220,388.7,220,388.8,220,388.8z"/>
	<path class="st12" d="M210.9,397.2c-0.1,0.1-1.2,3.8,0.1,5.9c0.6,1,1.8,1.3,2.7,0.7c0,0,0,0,0,0c0.3-0.2,0.5-0.5,0.4-0.9
		c0.6,0.4,1.3,0.2,1.7-0.4c0.1-0.1,0.1-0.2,0.1-0.4C217,399.7,210.9,397.2,210.9,397.2z"/>
	<path class="st2" d="M210.9,397.2c1,0.2,1.9,0.6,2.7,1.2c1,0.5,1.8,1.2,2.4,2.1c0.1,0.1,0.2,0.3,0.2,0.5c0.1,0.2,0.1,0.3,0.1,0.5
		c0,0.2,0,0.4,0,0.5c0,0.2-0.1,0.4-0.2,0.5c-0.2,0.4-0.5,0.6-0.9,0.8c-0.4,0.1-0.8,0.1-1.2-0.1l0.4-0.3c0,0,0,0.1,0.1,0.2
		c0,0.2,0,0.5-0.2,0.7c-0.1,0.2-0.3,0.3-0.5,0.4c-0.3,0.2-0.7,0.3-1.1,0.2c-0.7,0-1.4-0.4-1.8-1c-0.6-1-0.8-2.1-0.7-3.2
		C210.2,399.1,210.5,398.1,210.9,397.2c0,0,0,0.3-0.1,0.8c-0.1,0.7-0.2,1.4-0.2,2.1c0,1,0.2,2.1,0.7,3c0.3,0.5,0.9,0.7,1.4,0.8
		c0.3,0,0.6-0.1,0.8-0.2c0.3-0.1,0.4-0.3,0.4-0.5c0,0,0-0.1,0-0.1l-0.2-0.6l0.6,0.3c0.2,0.1,0.5,0.2,0.8,0.1
		c0.2-0.1,0.4-0.3,0.6-0.5c0.3-0.5,0.3-1.1,0-1.5c-0.6-0.8-1.3-1.5-2.2-2.1C211.9,397.7,210.9,397.3,210.9,397.2z"/>
</g>
<g id="freepik--Padlock--inject-38">
	<path class="st3" d="M383.3,116.3c-6.3-9.7-19.2-12.5-28.9-6.2c-9.7,6.3-12.5,19.2-6.2,28.9l18.5,28.7l5.3-3.4l-18.5-28.7
		c-4.4-6.8-2.4-15.8,4.4-20.2l0,0c6.8-4.4,15.8-2.4,20.2,4.3l4.1,6.4l5.6-2.9L383.3,116.3z"/>
	<path class="st3" d="M383.3,116.3c-6.3-9.7-19.2-12.5-28.9-6.2c-9.7,6.3-12.5,19.2-6.2,28.9l18.5,28.7l5.3-3.4l-18.5-28.7
		c-4.4-6.8-2.4-15.8,4.4-20.2l0,0c6.8-4.4,15.8-2.4,20.2,4.3l4.1,6.4l5.6-2.9L383.3,116.3z"/>
	<path class="st13" d="M383.3,116.3c-6.3-9.7-19.2-12.5-28.9-6.2c-9.7,6.3-12.5,19.2-6.2,28.9l18.5,28.7l5.3-3.4l-18.5-28.7
		c-4.4-6.8-2.4-15.8,4.4-20.2l0,0c6.8-4.4,15.8-2.4,20.2,4.3l4.1,6.4l5.6-2.9L383.3,116.3z"/>
	<path class="st10" d="M357.7,155.4l36.7-23.7c2.9-1.9,6.8-1,8.7,1.9l12.8,19.8c1.9,2.9,1,6.8-1.9,8.7l-36.7,23.7
		c-2.9,1.9-6.8,1-8.7-1.9l-12.8-19.8C353.9,161.2,354.7,157.3,357.7,155.4z"/>
	<path class="st2" d="M414,162.1c0.5-0.4,0.9-0.8,1.3-1.2c1.1-1.3,1.6-3,1.5-4.6c-0.1-0.6-0.2-1.1-0.4-1.6c-0.3-0.6-0.6-1.1-0.9-1.6
		c-0.7-1.1-1.5-2.4-2.4-3.6l-5.8-8.9l-3.4-5.2c-0.5-0.9-1.2-1.8-1.9-2.6c-1.7-1.6-4.1-2.1-6.2-1.2c-1.1,0.5-2.1,1.1-3.1,1.8
		l-6.4,4.1l-28.4,18.4c-2.5,1.6-3.4,4.8-2.2,7.5c0.3,0.6,0.7,1.3,1.1,1.8l1.2,1.8l2.3,3.6c3.1,4.8,6,9.3,8.8,13.7
		c1.5,2,4.1,2.9,6.5,2.2c1.1-0.4,2.2-1,3.1-1.7c1-0.6,2-1.3,3-1.9l10.8-7l15.7-10l4.3-2.7l1.1-0.7
		C413.8,162.2,413.9,162.1,414,162.1c-0.1,0.1-0.2,0.2-0.3,0.3l-1.1,0.7l-4.2,2.8L392.7,176l-10.8,7l-3,1.9l-1.5,1
		c-0.5,0.3-1.1,0.6-1.7,0.8c-2.6,0.8-5.4-0.2-7.1-2.3c-2.9-4.4-5.8-9-8.9-13.7l-2.3-3.6l-1.2-1.8c-0.4-0.6-0.8-1.2-1.1-1.9
		c-0.6-1.4-0.7-3-0.3-4.5c0.4-1.5,1.4-2.8,2.7-3.7l28.5-18.3l6.4-4.1l1.5-1c0.5-0.3,1.1-0.6,1.6-0.9c1.2-0.4,2.4-0.5,3.6-0.2
		c1.2,0.2,2.2,0.8,3.1,1.6c0.8,0.8,1.4,1.7,2,2.7c1.2,1.8,2.3,3.5,3.3,5.2c2.1,3.3,4,6.3,5.7,8.9c0.8,1.3,1.6,2.5,2.4,3.7
		c0.4,0.5,0.7,1.1,0.9,1.7c0.2,0.6,0.3,1.1,0.4,1.7c0.1,1.7-0.4,3.4-1.6,4.7C415,161.4,414.5,161.8,414,162.1z"/>
	<g class="st14">
		<path d="M387.2,152.3c-1.4-2.2-4.3-2.9-6.5-1.5c-2.2,1.4-2.9,4.3-1.5,6.5c1.1,1.8,3.3,2.6,5.4,2l3.8,5.9l2.1-1.4l-3.8-5.9
			C388.2,156.3,388.3,154,387.2,152.3z"/>
	</g>
	<path class="st1" d="M372.6,184.7c-0.1,0.1-3.5-4.9-7.5-11.2s-7.2-11.4-7.1-11.4s3.5,4.9,7.5,11.2S372.7,184.6,372.6,184.7z"/>
	<path class="st1" d="M383.4,161.9c-0.2,0-0.4,0-0.6,0c-0.6,0-1.1-0.2-1.7-0.4c-3.4-1.2-5.2-5-3.9-8.5c0.1-0.4,0.3-0.8,0.5-1.1
		c0.3-0.5,0.6-1,1.1-1.4c0.3-0.3,0.5-0.4,0.5-0.4c-0.5,0.6-0.9,1.2-1.3,1.9c-1.7,3.2-0.5,7.1,2.7,8.8c0.2,0.1,0.4,0.2,0.6,0.3
		C382,161.5,382.7,161.7,383.4,161.9z"/>
	<path class="st2" d="M393.1,114.2c0-2.7,0.2-5.4,0.5-8.1c0.2-2.7,0.5-5.4,1-8.1c0,2.7-0.2,5.4-0.5,8.1
		C393.9,108.8,393.6,111.5,393.1,114.2z"/>
	<path class="st2" d="M418.8,96.1c0.1,0.1-4.8,5.5-10.9,12.1s-11.2,11.9-11.3,11.8s4.8-5.5,11-12.1S418.7,96,418.8,96.1z"/>
	<path class="st2" d="M423.7,122.7c-3,0-6-0.1-9-0.4c-3-0.1-6-0.4-8.9-0.9c3,0,6,0.1,9,0.4C417.7,122,420.7,122.3,423.7,122.7z"/>
</g>
</svg>
