<?xml version="1.0" encoding="UTF-8"?><svg id="Layer_2" xmlns="http://www.w3.org/2000/svg" viewBox="0 0 447.7 415.86"><defs><style>.cls-1{fill:#fff;}.cls-2{fill:#f5f5f5;}.cls-3{fill:#455a64;}.cls-4{fill:#e0e0e0;}.cls-5{fill:#007172;}.cls-6{fill:#cbdad5;}.cls-7{opacity:.3;}.cls-8{fill:#fdfcdc;}.cls-9{fill:#eb996e;}.cls-10{opacity:.6;}.cls-11{fill:#ffbe9d;}.cls-12{fill:#d94f04;}.cls-13{fill:#ffe1dd;}.cls-14{fill:#263238;}</style></defs><g id="Layer_1-2"><g><g id="freepik--background-simple--inject-59"><path class="cls-2" d="M377.95,46.79l-2-3.36C358.75,15.12,327.71-1.88,294.99,.17c-4.21,.26-8.39,.83-12.52,1.71-29.75,6.37-55.63,28.87-66.36,57.68-6.31,16.94-8.07,36.45-20,49.9-15.58,17.5-42,18-65.3,17.33s-49.74-.11-65.25,17.46c-9.71,11-12.79,26.66-12,41.4,2.07,39,29.26,73.91,63.84,91.25,34.58,17.34,75.29,18.9,113.14,11.27,53-10.69,103.43-40,133.74-85.37s37.91-107.09,13.67-156.01Z"/></g><g id="freepik--Floor--inject-59"><path class="cls-14" d="M447.7,393.77c0,.15-100.23,.26-223.84,.26s-223.86-.11-223.86-.26,100.21-.26,223.86-.26,223.84,.12,223.84,.26Z"/></g><g id="freepik--Character--inject-59"><path class="cls-11" d="M238.19,124.76c-.13-5.9-1.39-18-2.65-29-1.35-11.8-11.54-20.58-23.41-20.18h-1.18c-12.69,1.18-18.78,12.61-17.26,25.27l2.9,40.56,.1,.37,8.95,16.22,14.21,12.85,7.39-11.32-.53-11-.44-9.23s12.18-2.31,11.92-14.54Z"/><path class="cls-9" d="M226.3,139.3c-5.64,.29-11.24-1.1-16.08-4,0,0,4.06,8.67,16.22,7.15l-.14-3.15Z"/><path class="cls-14" d="M232.4,106.64c.04,.94-.68,1.75-1.62,1.82-.92,.1-1.75-.56-1.86-1.48v-.03c-.05-.95,.67-1.76,1.62-1.82,.92-.11,1.75,.55,1.85,1.46v.05Z"/><path class="cls-14" d="M233.28,101.17c-.21,.23-1.56-.7-3.44-.63s-3.22,1.05-3.44,.83,.11-.52,.69-1c.8-.59,1.75-.92,2.74-.94,.98-.04,1.94,.23,2.75,.78,.59,.44,.8,.85,.7,.96Z"/><path class="cls-14" d="M215.85,106.72c.05,.95-.67,1.76-1.62,1.82-.92,.1-1.74-.56-1.85-1.47v-.04c-.05-.95,.67-1.76,1.62-1.82,.91-.11,1.74,.54,1.84,1.45v.06Z"/><path class="cls-14" d="M214.55,101.27c-.19,.26-1.64-.52-3.5-.25s-3.08,1.4-3.32,1.2,.05-.53,.58-1c.72-.68,1.64-1.11,2.62-1.24,.97-.15,1.96,.02,2.82,.48,.63,.32,.89,.66,.8,.81Z"/><path class="cls-14" d="M221.96,116.49c.97-.34,1.98-.57,3-.66,.48-.06,.93-.17,1-.5,.02-.5-.11-.99-.37-1.41l-1.54-3.61c-2.15-5.13-3.72-9.36-3.51-9.44s2.11,4,4.26,9.14c.52,1.26,1,2.47,1.48,3.63,.32,.57,.44,1.23,.32,1.87-.13,.35-.42,.62-.77,.73-.26,.08-.54,.13-.81,.14-1.01,.16-2.04,.2-3.06,.11Z"/><path class="cls-14" d="M214.53,93.12c-.17,.52-2.05,.34-4.25,.68s-4,1-4.26,.55c-.14-.21,.15-.7,.86-1.22,.93-.65,2-1.07,3.13-1.22,1.12-.18,2.27-.08,3.35,.28,.82,.34,1.24,.73,1.17,.93Z"/><path class="cls-14" d="M232.73,93.91c-.32,.44-1.63,0-3.19,.07s-2.86,.39-3.18-.05c-.14-.21,.06-.65,.62-1.07,1.55-1.05,3.58-1.05,5.13,0,.56,.41,.74,.84,.62,1.05Z"/><path class="cls-11" d="M195,109.89c-.21-.08-8.48-2.2-7.93,6.15s8.78,6.08,8.78,5.83-.85-11.98-.85-11.98Z"/><path class="cls-9" d="M193.13,118.88s-.14,.11-.38,.24c-.34,.17-.73,.2-1.09,.09-.9-.26-1.73-1.61-1.87-3.11-.07-.71,.02-1.44,.27-2.11,.12-.54,.49-.98,1-1.19,.34-.11,.71,.03,.88,.34,.13,.23,.08,.4,.13,.41s.17-.15,.08-.49c-.06-.2-.19-.38-.36-.51-.24-.16-.54-.21-.82-.15-.69,.18-1.23,.71-1.43,1.39-.31,.74-.43,1.56-.35,2.36,.16,1.68,1.12,3.19,2.35,3.46,.46,.11,.95,0,1.32-.31,.26-.18,.3-.41,.27-.42Z"/><path class="cls-14" d="M236.41,81.44c-.35-1.66-1.65-2.96-3.32-3.3,.78-1.96-.18-4.17-2.13-4.95-1.35-.54-2.89-.26-3.97,.72-.16-2.15-2.03-3.77-4.18-3.62-.43,.03-.86,.13-1.26,.31,.04-1.82-1.4-3.33-3.23-3.37-1.26-.03-2.43,.66-3,1.78-1.84-2.54-5.39-3.11-7.93-1.27-.34,.25-.66,.54-.94,.85-3.54-1-7.26,.8-8.68,4.19-2.8,.31-5.14,2.29-5.91,5-2.75,.29-4.74,2.75-4.45,5.49,.1,.91,.44,1.78,.99,2.51-1.75,1.08-2.3,3.38-1.22,5.13,.18,.29,.4,.56,.65,.79-1.79,.95-2.47,3.18-1.51,4.96,.4,.75,1.05,1.34,1.83,1.67-1.23,.19-1.66,1.83-1.26,3,.56,1.1,1.18,2.17,1.86,3.21,.43,.93,.58,2,.95,2.91,.73,1.81,2.23,3.2,4.08,3.81l-.21,.25c-.18,1.08,1.33,1.77,2.33,1.31,.92-.59,1.65-1.45,2.08-2.46,.71-1.03,1.27-2.16,1.64-3.36,.35-1.24-.17-2.57-1.26-3.25,1.41-.64,2.38-1.99,2.53-3.53,.13-1.52,0-3.05-.41-4.52l-1.41-6.58c3.1-.23,5.81-2.15,7.05-5,2.22,1.43,5.18,.78,6.6-1.44,.1-.16,.19-.32,.28-.49,1.23,3.03,4.59,4.6,7.7,3.59-.27,1.74,2.89,3.24,4.61,3.64,1.33,.13,2.66-.17,3.8-.87,0,0,3,1.63,4.57,.94s3.6-2.77,2.51-4.39c.37-1.18,.44-2.44,.22-3.66Z"/><path class="cls-3" d="M187.4,91.65c.08,0,.15,.57,.87,1.05,.4,.28,.91,.35,1.37,.2,.58-.19,1.01-.68,1.13-1.27l.08-.5,.4,.33c.94,.76,2.31,.61,3.07-.32,.38-.47,.55-1.08,.46-1.68l-.08-.49,.46,.17c.54,.22,1.15,.21,1.69-.02,.42-.2,.77-.52,1-.93,.17-.4,.3-.81,.38-1.24,.05,0,.27,.52-.06,1.39-.22,.52-.61,.95-1.1,1.22-.65,.34-1.4,.41-2.1,.18l.38-.32c.18,1.2-.44,2.39-1.53,2.92-.98,.44-2.12,.28-2.95-.4l.48-.18c-.18,.8-.78,1.43-1.57,1.65-.6,.15-1.24,0-1.73-.38-.78-.71-.7-1.41-.65-1.38Z"/><path class="cls-3" d="M186.41,99.7c.29,.13,.59,.24,.9,.32,.83,.14,1.66-.26,2.07-1l.16-.3,.24,.24c.57,.54,1.39,.74,2.15,.53,.87-.29,1.47-1.08,1.5-2v-.55l.48,.29c.12,.07,.25,.13,.39,.16,.63,.17,1.3-.08,1.67-.62,.31-.51,.31-1.15,0-1.66l-.33-.51,.59,.07c.69,.08,1.37-.12,1.92-.54,.42-.33,.73-.79,.89-1.3,.11-.48,.16-.98,.15-1.47,.28,.47,.34,1.03,.18,1.55-.12,.62-.45,1.18-.93,1.59-.63,.54-1.45,.8-2.27,.73l.27-.44c.44,.7,.44,1.6,0,2.3-.5,.78-1.45,1.15-2.35,.91-.2-.05-.39-.13-.56-.24l.48-.26c-.04,1.2-.85,2.23-2,2.56-.96,.26-1.98-.03-2.66-.75l.39-.06c-.29,.5-.77,.86-1.33,1-.41,.11-.83,.11-1.24,0-.58-.13-.79-.54-.76-.55Z"/><path class="cls-3" d="M220.45,70.4c-.3-.23-.64-.4-1-.51-.41-.11-.84-.08-1.22,.11-.51,.23-.88,.69-1,1.24l-.1,.48-.27-.42c-.58-.87-1.57-1.39-2.62-1.36-1.27,.09-2.35,.96-2.69,2.19l-.14,.56-.36-.44c-.73-.86-1.81-1.33-2.94-1.3-1.21,.06-2.3,.72-2.91,1.76-.24,.42-.41,.89-.48,1.37v.34l-.34-.07c-1.61-.31-3.23,.51-3.92,2-.54,1.32-.26,2.84,.72,3.88l.33,.34-.45,.09c-1.01,.22-1.89,.83-2.46,1.69-.43,.66-.65,1.44-.62,2.23,.05,.69,.23,1.37,.51,2,0,0-.16-.13-.34-.46-.26-.47-.42-1-.46-1.54-.08-.86,.12-1.73,.57-2.47,.59-1.01,1.56-1.73,2.69-2l-.12,.42c-1.65-1.47-1.79-4-.32-5.65,1-1.12,2.55-1.59,4.01-1.2l-.38,.27c.07-.57,.26-1.13,.56-1.62,.72-1.22,2.01-2,3.43-2.05,1.31-.04,2.57,.53,3.41,1.54l-.51,.11c.47-1.82,2.33-2.91,4.14-2.44,.87,.22,1.61,.78,2.07,1.55l-.36,.06c.16-.65,.62-1.19,1.24-1.44,.45-.17,.95-.17,1.4,0,.28,.09,.53,.26,.73,.47,.17,.17,.21,.26,.2,.27Z"/><path class="cls-9" d="M221.85,119.84c-.79-.41-1.74-.32-2.44,.22-.59,.47-.97,1.16-1.06,1.91-.14,.55,.05,1.14,.5,1.5,.82,.42,1.78,.47,2.64,.14,1.11-.75,1.66-2.88,.36-3.77"/><path class="cls-14" d="M221.61,123.59s-.09,.14-.32,.29c-.34,.23-.75,.36-1.16,.37-.28,0-.56-.04-.83-.11-.16-.04-.31-.09-.46-.16-.17-.09-.32-.2-.44-.34-.14-.14-.25-.31-.32-.5-.05-.18-.09-.36-.12-.55-.05-.39-.03-.79,.06-1.17,.18-.75,.67-1.4,1.35-1.77,.55-.31,1.2-.39,1.81-.21,1,.33,1.29,1,1.23,1-.39-.31-.83-.55-1.31-.68-.51-.1-1.05,0-1.49,.27-.55,.33-.94,.86-1.08,1.48-.09,.33-.11,.67-.06,1,.01,.16,.04,.31,.09,.46,.04,.13,.1,.24,.2,.33,.08,.1,.17,.18,.28,.25,.12,.06,.25,.11,.38,.15,.23,.08,.47,.14,.72,.16,.36,.02,.72-.04,1.06-.18,.25-.07,.39-.12,.41-.09Z"/><path class="cls-9" d="M293.39,247.12c2.34,.12,4.69,0,7-.37,1.65-.44,3.21-1.15,4.64-2.09,0,0,5.06,.71,5.87-.43,.5-.71,.76-1.55,.76-2.42l3.72-.46,3.37,.64,1.86,2.26s1.39,0,1.45-.84c0,0,1.86-.84,1.68-1.42s-1.2-3.37-1.2-3.37l-1.41-3s-9.18-.59-9.53-.35-12,5.63-12,5.63l-4.3,1-1.91,5.22Z"/><path class="cls-11" d="M298.16,232.12l14.55-3.27,10.14-.53s8.66,4,8.42,7.62l1.81,1s-.15,2.69-2.31,2.1c-1.05-.31-2.08-.69-3.08-1.15l2.32,3.55c-.99,.56-2.2,.58-3.21,.06-.72-.34-5.84-4.21-5.84-4.21l-4.32-.12s-8,5.51-11.75,6.11-10.07-.68-10.07-.68l3.34-10.48Z"/><path class="cls-9" d="M330.79,239.01c0-.06,.37,.06,1,0,.34-.08,.64-.29,.81-.6,.2-.43,.29-.91,.24-1.38l.09,.14-6.28-4.14-1.89-1.24c-.59-.38-1.25-.81-1.72-1.07h-3.46c-1.1,.06-2.2,.03-3.3-.09,1.08-.18,2.17-.28,3.26-.29l1.65-.08h1.77c.07,0,.15,0,.22,0,.64,.33,1.27,.7,1.87,1.11l1.9,1.23c2.43,1.61,4.61,3.12,6.21,4.27l.08,.05v.09c.03,.55-.1,1.1-.37,1.58-.23,.36-.62,.6-1.05,.65-.25,.03-.51,0-.75-.07-.22-.11-.29-.14-.28-.16Z"/><path class="cls-9" d="M329.85,241.18c-.57-.53-1.08-1.12-1.52-1.77-.89-1.13-2.09-2.72-3.39-4.5h0l-.17-.14c-.44-.34-.88-.66-1.32-.95-.21-.14-.43-.28-.65-.4-.19-.11-.41-.18-.63-.21-.84-.14-1.7-.22-2.55-.25-.8,0-1.61-.05-2.4-.19,.79-.17,1.6-.23,2.41-.19,.88-.02,1.76,.03,2.63,.14,.28,.04,.54,.12,.79,.25,.23,.12,.46,.26,.69,.41,.45,.29,.91,.62,1.36,1l.18,.14h0c1.3,1.79,2.45,3.41,3.26,4.6,.52,.63,.96,1.32,1.31,2.06Z"/><path class="cls-12" d="M386.85,350.06l.34,26.93s27.37,6.75,27.91,11.72l-52.07,4.48-2.25-41.94,26.07-1.19Z"/><g class="cls-10"><path class="cls-13" d="M370.91,375.51c-1.02,.37-1.6,1.45-1.35,2.51,.31,1.06,1.41,1.66,2.47,1.36,1.08-.4,1.69-1.54,1.42-2.66-.46-1.05-1.66-1.55-2.73-1.13"/></g><g class="cls-10"><path class="cls-13" d="M363,393.19l-.23-4.22,50.44-2.58c1.13,.47,1.94,1.48,2.16,2.68l-52.37,4.12Z"/></g><path class="cls-14" d="M388,376.68c0,.26-1.27,.44-2.48,1.32s-1.83,2-2.07,1.89,.06-1.58,1.55-2.62,3.04-.82,3-.59Z"/><path class="cls-14" d="M393.58,378.68c.07,.25-1,.73-1.83,1.85s-1,2.28-1.26,2.28-.49-1.43,.55-2.81,2.52-1.56,2.54-1.32Z"/><path class="cls-14" d="M397.01,385.12c-.23,.06-.65-1.2-.06-2.62s1.75-2,1.87-1.84-.59,1-1.05,2.17-.51,2.22-.76,2.29Z"/><path class="cls-14" d="M387.24,370.56c-.1,.23-1.28-.06-2.72,.11s-2.54,.67-2.68,.46,.89-1.17,2.59-1.35,2.92,.57,2.81,.78Z"/><g class="cls-7"><polygon points="386.89 355.39 386.95 360.19 361.38 362.93 361.04 356.89 386.89 355.39"/></g><path class="cls-14" d="M387.07,365.12c-.85,.28-1.75,.32-2.62,.12-.95-.12-1.88-.36-2.77-.71-.53-.21-1.04-.45-1.54-.73-.3-.14-.58-.34-.82-.57-.36-.35-.44-.91-.18-1.35,.24-.37,.65-.61,1.09-.64,.34-.02,.67,0,1,.09,1.52,.29,2.94,.96,4.14,1.94,1.27,1.07,1.73,2,1.64,2.05s-.74-.68-2-1.54c-.75-.5-1.55-.9-2.4-1.2-.49-.17-1-.3-1.52-.39-.56-.12-1-.1-1.16,.15-.05,.09-.05,.13,.07,.29,.18,.17,.38,.31,.6,.42,.46,.27,.93,.51,1.42,.72,.83,.36,1.69,.65,2.57,.85,.84,.11,1.67,.27,2.48,.5Z"/><path class="cls-14" d="M386.75,365.5c-.53-.72-.81-1.6-.81-2.49-.09-.97-.01-1.94,.22-2.88,.14-.56,.34-1.1,.59-1.62,.25-.71,.86-1.24,1.6-1.4,.48-.01,.92,.25,1.13,.68,.15,.3,.26,.61,.32,.94,.12,.58,.14,1.18,.08,1.77-.1,.98-.45,1.93-1,2.75-1,1.4-2,1.76-2,1.67s.77-.66,1.49-2c.41-.77,.65-1.63,.71-2.5,.02-.51-.02-1.01-.12-1.51-.11-.55-.34-1-.55-.92s-.68,.45-.87,.9c-.24,.46-.43,.95-.58,1.45-.25,.85-.38,1.74-.38,2.63-.01,1.55,.27,2.49,.17,2.53Z"/><path class="cls-14" d="M256.4,257.66s84.78-14.07,88.56-14.66c14.53-2.24,31.12-.46,36.65,10,0,0,4.1,9.64,4.89,24.08,.7,12.81,5.79,88.75,5.79,88.75l-35,5.83-11.51-84h0l-19.75,3.7c1.11-.13-51.26,9.28-67.14,10.89-12.23,1.24-26.31-5.35-29.13-16.25-1.85-7.12-5.86-26.95-5.86-26.95l32.5-1.39Z"/><path class="cls-3" d="M354.08,275.99c-3.52,3.12-6.29,7.01-8.07,11.36,.07-.69,.26-1.37,.55-2,1.23-3.15,3.23-5.96,5.8-8.16,.5-.49,1.08-.9,1.72-1.2Z"/><path class="cls-2" d="M195.42,135l-1.48,6.37,34.35,21.35-1.53-10.6c-3.13-3.2-6.65-6-10.48-8.32-6.6-3.71-13.6-6.66-20.86-8.8Z"/><path class="cls-12" d="M192.66,143.29s-10.57,22.4-11.33,30.91,2.17,36.78,2.17,36.78l47.68,54.4,47.6,3.16s-22.53-47.42-27.57-56.62-22-51.1-22-51.1c-1.33-3.48-3.37-6.64-6-9.27-6.45-6.84-19-11.06-30.24-13.32l-.31,5.06Z"/><path class="cls-12" d="M210.85,152.81c7.07,.82,16.15,6.16,19.3,18.58l3,15.35,15.24,30.94,49.93,14.25-6.47,19.56s-49.46-3.89-55.88-5.57-33-39.49-33-39.49c0,0-13.31-23-9.91-39.95,1.65-8.49,9.03-14.7,17.79-13.67Z"/><path class="cls-14" d="M210.85,152.81l-1.2-.05c-1.17-.04-2.33,.05-3.48,.26-1.85,.35-3.62,1.03-5.23,2-2.18,1.35-4.02,3.19-5.36,5.38-.81,1.28-1.45,2.67-1.89,4.12-.13,.38-.24,.77-.32,1.16-.11,.4-.2,.8-.25,1.21-.11,.83-.23,1.67-.35,2.54-.24,3.77,0,7.56,.73,11.27,.82,4.25,2.02,8.42,3.58,12.46,1.7,4.51,3.72,8.89,6.05,13.11h0c3.87,5.43,8.06,11.15,12.58,17.07,4.65,6.23,9.62,12.22,14.89,17.94,1.36,1.49,2.9,2.82,4.58,3.94,.91,.43,1.89,.7,2.89,.79,1,.15,2.05,.32,3.09,.44,4.15,.54,8.38,1,12.68,1.4,8.58,.85,17.41,1.62,26.41,2.38l11.65,1-.28,.18c2.21-6.67,4.37-13.19,6.49-19.56l.18,.33-49.93-14.28h-.09l-.05-.1c-5.66-11.53-10.76-21.92-15.19-31h0c-.66-3.38-1.28-6.58-1.88-9.61-.46-2.86-1.13-5.69-2-8.46-1.46-4.4-4.14-8.3-7.72-11.24-2.26-1.83-4.86-3.18-7.65-4-.72-.22-1.45-.39-2.19-.51l-.76-.14s.26,0,.76,.09c.75,.1,1.49,.26,2.22,.46,2.83,.79,5.46,2.15,7.74,4,3.64,2.94,6.37,6.86,7.87,11.29,.87,2.78,1.54,5.62,2,8.49,.61,3.03,1.25,6.23,1.92,9.61v-.05l15.27,30.92-.14-.12,49.94,14.22,.26,.07-.08,.26c-2.12,6.38-4.28,12.9-6.48,19.57l-.07,.2h-.21l-11.64-.95c-9-.76-17.84-1.54-26.43-2.39-4.29-.43-8.53-.87-12.69-1.41-1-.12-2.08-.3-3.11-.45-.51-.07-1-.19-1.54-.29-.53-.09-1.05-.28-1.51-.56-1.72-1.14-3.3-2.48-4.69-4-5.28-5.74-10.25-11.75-14.91-18-4.51-5.93-8.69-11.66-12.55-17.11h0c-2.31-4.25-4.32-8.66-6-13.2-1.55-4.06-2.74-8.25-3.55-12.52-.72-3.74-.95-7.57-.68-11.37,.12-.87,.24-1.73,.36-2.56,.06-.42,.14-.83,.26-1.23,.08-.4,.19-.79,.33-1.18,.47-1.47,1.12-2.87,1.94-4.17,1.38-2.2,3.25-4.05,5.47-5.4,1.64-.98,3.43-1.66,5.31-2,1.16-.19,2.33-.26,3.5-.2,.72-.1,1.15-.05,1.15-.05Z"/><path class="cls-14" d="M239.85,229.67c.16-.72,.42-1.42,.78-2.06,.77-1.6,1.68-3.13,2.73-4.56,1.05-1.44,2.23-2.78,3.52-4,.5-.54,1.08-1,1.72-1.37,.11,.12-2.39,2.35-4.81,5.67s-3.82,6.39-3.94,6.32Z"/><path class="cls-14" d="M231.07,164.78c-.44-.39-.84-.81-1.21-1.27-.37-.42-.83-.94-1.4-1.5s-1.17-1.25-1.92-1.92c-1.7-1.62-3.5-3.14-5.39-4.55-2.33-1.69-4.78-3.23-7.31-4.6-4.65-2.41-9.52-4.36-14.55-5.82-1.93-.58-3.51-1-4.6-1.29-.57-.12-1.13-.28-1.68-.49,.58,.05,1.16,.15,1.73,.29,1.11,.21,2.7,.59,4.65,1.12,5.1,1.38,10.03,3.31,14.7,5.77,2.56,1.38,5.02,2.94,7.35,4.68,1.91,1.41,3.72,2.96,5.41,4.62,.74,.69,1.33,1.39,1.87,2s1,1.13,1.34,1.57c.37,.44,.7,.91,1.01,1.39Z"/><path class="cls-4" d="M377.35,178.64c-.91-.27-1.87,.25-2.14,1.16h0l-17.36,58.07-58.17,9.07c-1.88,.3-3.16,2.06-2.87,3.94l63.71-9.94h0l18-60.12c.29-.91-.22-1.88-1.13-2.17h-.04Z"/><path class="cls-14" d="M377.35,178.64c.41,.09,.77,.34,1,.69,.29,.42,.38,.95,.24,1.45-.16,.56-.35,1.22-.57,2-.87,3-2.13,7.29-3.74,12.77-3.27,11-7.92,26.69-13.5,45.47v.16h-.23l.18-.16h0l-.06,.22-.23-.06h.1l-62.52,9.79-1.17,.15h-.26l-.05-.26c-.24-1.62,.59-3.2,2.06-3.92,.36-.16,.73-.27,1.12-.33l1.08-.17,2.15-.34,8.5-1.32,16.4-2.49,30-4.64-.19,.16,13.24-44,3.75-12.3,.58-1.87c.18-.46,.54-.82,1-1,.37-.15,.78-.15,1.15,0-.37-.08-.76-.05-1.12,.09-.44,.19-.77,.55-.93,1l-.55,1.88c-.84,2.86-2.06,7-3.62,12.33-3.15,10.63-7.65,25.8-13.06,44v.14h-.14l-29.93,4.7-16.42,2.56-8.5,1.33-2.15,.34c-.7,.06-1.39,.21-2.05,.45-1.27,.61-1.98,1.97-1.77,3.36l-.31-.23,1.19-.18,62.54-9.72h.11l-.29,.16h0v-.14h.14l-.19,.27v-.09h0c5.65-18.76,10.36-34.43,13.67-45.42l3.85-12.78,.59-1.94c.14-.47,.07-.97-.19-1.38-.22-.33-.53-.58-.9-.73Z"/><path class="cls-3" d="M360.54,240.94c-.13,.08-.74-.63-1.5-1.5s-1.37-1.59-1.27-1.7,.9,.45,1.67,1.35,1.22,1.77,1.1,1.85Z"/><path class="cls-3" d="M350.94,240.12c0-.07,.26-.26,.66,0,.27,.13,.43,.41,.42,.71-.03,.38-.29,.69-.65,.8-.36,.09-.74-.05-.95-.35-.18-.24-.21-.56-.07-.82,.25-.43,.61-.37,.59-.3s-.19,.17-.24,.44c-.03,.13,0,.27,.1,.37,.1,.13,.27,.18,.43,.14,.15-.05,.26-.18,.3-.33,.02-.13-.03-.27-.14-.35-.22-.31-.42-.31-.45-.31Z"/><path class="cls-3" d="M354.66,239.5c-.05-.07,.25-.26,.66,0,.27,.13,.43,.41,.41,.71-.02,.38-.28,.7-.64,.8-.37,.11-.78-.03-1-.35-.17-.24-.2-.55-.07-.82,.25-.43,.62-.37,.6-.3s-.2,.17-.25,.44c-.03,.13,.01,.27,.11,.37,.14,.17,.4,.2,.58,.06,.08-.06,.13-.15,.14-.25,0-.13,0-.24-.14-.35s-.37-.25-.4-.31Z"/><polygon class="cls-14" points="211.13 315.97 187.52 393.55 196.13 393.64 228.04 315.17 211.13 315.97"/><path class="cls-14" d="M312.69,305.41c-.06,0,26.73,88,26.73,88l8.54,.12-16.51-89.89-18.76,1.77Z"/><path class="cls-5" d="M174.22,192.73c-2.63-2.44-6.44-3.11-9.74-1.71-6.61,2.83-16.3,8.62-14.12,17.77,2.72,11.41,34,86,44.12,109.93,1.89,4.46,6.28,7.34,11.12,7.31l131.16-1.08c5.35-.04,9.64-4.41,9.6-9.76,0-.4-.03-.79-.08-1.18l-4.9-37.26c-1.62-12.35-11.6-21.91-24-23l-84.84-7.53-58.32-53.49Z"/><path class="cls-14" d="M190.19,307.12c-.04-.08-.07-.17-.08-.26l-.16-.8c-.14-.74-.33-1.77-.58-3.07-.49-2.7-1.18-6.55-2-11.29s-1.84-10.46-2.95-16.75c-.55-3.16-1.13-6.47-1.73-9.9-.29-1.72-.6-3.47-.91-5.24-.42-1.82-.47-3.7-.14-5.54,.23-.94,.66-1.81,1.28-2.55,.62-.71,1.36-1.3,2.2-1.73,1.63-.78,3.38-1.28,5.18-1.48,3.49-.38,6.83-.58,10-.82,6.4-.44,12.16-.73,17-.92s8.76-.28,11.47-.32h3.13l-3.12,.13-11.46,.48c-4.84,.24-10.59,.57-17,1-3.19,.26-6.56,.47-10,.85-1.74,.19-3.43,.67-5,1.43-1.6,.77-2.78,2.22-3.21,3.94-.3,1.77-.25,3.57,.15,5.32,.3,1.77,.6,3.51,.9,5.24,.59,3.43,1.15,6.74,1.69,9.9,1.07,6.31,2,12,2.84,16.78s1.43,8.6,1.87,11.32c.21,1.31,.37,2.34,.49,3.08,0,.33,.08,.59,.11,.81,.03,.13,.04,.26,.03,.39Z"/><path class="cls-14" d="M340.36,303.64c0,.14-33.89,.26-75.68,.26s-75.68-.12-75.68-.26,33.88-.27,75.68-.27,75.68,.12,75.68,.27Z"/><path class="cls-14" d="M205.27,247.43c-.11,.09-10.48-11.82-23.14-26.61s-22.85-26.86-22.74-27,10.47,11.82,23.14,26.61,22.85,26.9,22.74,27Z"/></g><rect class="cls-6" x="32.02" y="358.45" width="42.57" height="29.49" transform="translate(-83.57 21.94) rotate(-13.16)"/><path class="cls-14" d="M77.41,382.7s-.06-.19-.15-.53-.22-.88-.38-1.53c-.33-1.36-.81-3.31-1.41-5.79-1.2-5-2.91-12.14-5-20.82l.25,.16-41.44,9.74c0,.07,.37-.59,.19-.31h0v.21l.06,.24,.11,.48,.22,1,.45,1.91c.29,1.26,.59,2.52,.88,3.77l1.71,7.35c1.12,4.8,2.19,9.42,3.21,13.78l-.29-.18,29.85-6.86,8.56-1.93,2.29-.51,.59-.12h.22l-.18,.06-.57,.14-2.23,.55-8.47,2.05-29.95,7.13-.23,.05-.06-.23c-1-4.36-2.1-9-3.23-13.78-.57-2.4-1.14-4.85-1.73-7.35-.29-1.24-.58-2.5-.88-3.77l-.45-1.9-.22-1-.11-.48-.06-.24v-.21h0c-.18,.28,.23-.39,.19-.32l41.46-9.64,.21-.05v.2l4.79,21c.56,2.47,1,4.42,1.3,5.77,.14,.64,.24,1.13,.32,1.5s.19,.47,.18,.46Z"/><path class="cls-14" d="M70.38,355.27c-.08,.17-.18,.32-.29,.47-.24,.34-.54,.77-.9,1.3l-3.4,4.7-11.37,15.38c-.66,.16-.19,0-.34,.07h-.07l-.16-.08-.31-.16-.62-.31-1.22-.63-2.4-1.22-4.52-2.32-7.64-4-5.13-2.7-1.38-.76c-.17-.08-.33-.18-.47-.3,.18,.04,.35,.11,.51,.2l1.43,.67,5.14,2.54,7.69,3.86,4.53,2.29,2.4,1.22,1.23,.62,.62,.32,.31,.16,.15,.08h.08c-.14,0,.33-.07-.32,.08l11.49-15.3,3.54-4.61c.39-.5,.72-.9,1-1.23s.4-.35,.42-.34Z"/><path class="cls-14" d="M46.37,372.98c-1.54,3.06-3.24,6.04-5.08,8.93-2.93,4.86-5.4,8.74-5.52,8.67,1.54-3.06,3.24-6.05,5.08-8.94,1.69-2.98,3.53-5.87,5.52-8.66Z"/><path class="cls-14" d="M76.48,381.41c-2.85-1.88-5.6-3.91-8.24-6.07-2.75-2.03-5.4-4.19-7.93-6.48,2.85,1.88,5.6,3.91,8.25,6.07,2.75,2.02,5.39,4.19,7.92,6.48Z"/><rect class="cls-8" x="157.67" y="165.42" width="37.86" height="26.23" transform="translate(-11.47 12.13) rotate(-3.81)"/><path class="cls-14" d="M196.34,190.38s0-.18-.05-.49l-.12-1.4c-.09-1.25-.23-3-.4-5.29-.33-4.56-.81-11.07-1.38-19l.23,.2-37.77,2.58c-.06,.06,.45-.52,.24-.27h0v.84l.06,.88,.12,1.73c.07,1.16,.15,2.3,.22,3.44,.15,2.27,.3,4.51,.45,6.7,.28,4.38,.56,8.58,.81,12.56l-.25-.23,27.18-1.69,7.79-.45,2.09-.11h.57l-.52,.05-2,.16-7.73,.58-27.3,1.95h-.23v-.23c-.27-4-.55-8.18-.85-12.56-.15-2.19-.3-4.43-.45-6.7-.08-1.13-.15-2.28-.23-3.43l-.12-1.74-.06-.87v-.85h0l.24-.28,37.78-2.46h.21v.21c.48,8,.88,14.53,1.16,19.13,.13,2.24,.23,4,.3,5.25,0,.57,.05,1,.07,1.36,0,.14-.03,.29-.06,.43Z"/><path class="cls-14" d="M194.14,165.29c-.09,.14-.2,.27-.32,.38l-1,1-3.66,3.64c-3.1,3.05-7.41,7.25-12.19,11.87h-.35l-.06-.05-.13-.09-.25-.19-.5-.36-1-.73-1.92-1.42-3.63-2.69-6.13-4.58-4.15-3.13-1.1-.88c-.25-.2-.37-.31-.36-.33,.15,.07,.29,.15,.42,.25l1.16,.79,4.2,3c1.79,1.3,3.88,2.82,6.2,4.49l3.65,2.67c.63,.46,1.27,.94,1.93,1.41l1,.73,.5,.36,.25,.19,.12,.09h-.26c4.79-4.61,9.14-8.77,12.31-11.76l3.77-3.52,1-.94c.16-.09,.32-.16,.5-.2Z"/><path class="cls-14" d="M170.51,177.36c-1.77,2.48-3.68,4.86-5.72,7.12-1.91,2.38-3.95,4.64-6.12,6.79,1.77-2.48,3.68-4.86,5.72-7.12,1.91-2.38,3.95-4.64,6.12-6.79Z"/><path class="cls-14" d="M195.72,189.12c-2.25-2.04-4.38-4.21-6.38-6.5-2.13-2.17-4.13-4.45-6-6.85,2.25,2.04,4.38,4.21,6.38,6.5,2.13,2.17,4.13,4.46,6,6.85Z"/><rect class="cls-6" x="82.79" y="266.39" width="37.86" height="26.23" transform="translate(-145.93 114.77) rotate(-36.37)"/><path class="cls-14" d="M124.73,278.87l-.31-.39-.85-1.11-3.18-4.25-11.38-15.26h.29l-30.45,22.54c0,.08,.1-.69,.06-.36h0l.06,.09,.13,.18,.26,.35,.52,.71,1,1.4c.69,.93,1.37,1.85,2,2.77l4,5.41,7.45,10.14-.33-.05,22-16.05,6.33-4.58,1.69-1.21,.45-.31,.16-.1-.12,.11-.41,.31-1.63,1.24-6.2,4.64-22,16.34-.19,.14-.14-.2-7.48-10.12-4-5.4-2-2.77-1-1.4-.52-.71-.26-.35-.13-.18-.06-.09h0c0,.32,.06-.45,0-.37l30.52-22.4,.17-.13,.12,.17,11.32,15.5,3.08,4.26,.78,1.11c.1,.12,.18,.25,.25,.38Z"/><path class="cls-14" d="M109.37,258.91c0,.16-.01,.32-.06,.48-.07,.38-.17,.83-.28,1.38-.28,1.27-.66,3-1.12,5-1,4.24-2.34,10.1-3.89,16.57-.54,.4-.16,.11-.28,.19h-1.23l-1.22-.08-2.38-.16-4.51-.31-7.63-.57-5.14-.42-1.4-.14c-.16,0-.33-.03-.48-.09,.16-.02,.33-.02,.49,0l1.4,.05,5.15,.26,7.64,.45,4.51,.28,2.39,.15,1.22,.08h1.22l-.26,.19c1.55-6.46,3-12.3,4-16.53,.53-2.05,1-3.74,1.29-5,.14-.54,.27-1,.37-1.35,.05-.15,.12-.3,.2-.43Z"/><path class="cls-14" d="M95.95,281.8c-.16,3.04-.49,6.08-1,9.08-.33,3.03-.84,6.03-1.5,9,.16-3.05,.49-6.08,1-9.09,.33-3.02,.83-6.02,1.5-8.99Z"/><path class="cls-14" d="M123.52,278.12c-2.99-.51-5.95-1.17-8.87-2-2.96-.68-5.88-1.53-8.74-2.55,2.99,.51,5.95,1.2,8.87,2.05,2.96,.66,5.88,1.5,8.74,2.5Z"/><rect class="cls-8" x="31.15" y="278.47" width="26.23" height="37.86" transform="translate(-254.03 259.64) rotate(-74.32)"/><path class="cls-14" d="M58.94,315.12c.02-.16,.06-.32,.11-.48l.36-1.36c.32-1.21,.79-2.93,1.38-5.12l5-18.35,.14,.26-36.42-10.18,.32-.18h0v.18l-.06,.22-.12,.42-.24,.84c-.15,.56-.31,1.12-.47,1.67-.31,1.12-.62,2.22-.93,3.32-.61,2.19-1.22,4.35-1.81,6.46-1.26,4.3-2.35,8.3-3.48,12.13l-.17-.29,26.19,7.46,7.5,2.17,2,.59,.52,.16,.18,.07h-.16l-.51-.13-2-.52-7.47-2-26.38-7.34-.22-.07,.06-.23c1.07-3.83,2.2-7.89,3.39-12.12l1.8-6.46c.31-1.1,.62-2.2,.93-3.32,.16-.55,.32-1.11,.47-1.67l.24-.84,.12-.43,.06-.21v-.18h0c-.28,.16,.4-.23,.33-.18l36.43,10.27,.21,.06-.06,.2c-2.2,7.68-4,14-5.29,18.42-.62,2.16-1.12,3.86-1.47,5-.16,.55-.29,1-.39,1.3s-.09,.46-.09,.46Z"/><path class="cls-14" d="M65.23,290.73s-.14,.11-.42,.25l-1.26,.63-4.7,2.21c-3.94,1.85-9.41,4.37-15.46,7.12l-.33-.09h0v-.06l-.09-.13-.17-.26-.35-.51-.68-1-1.34-2-2.58-3.77c-1.59-2.38-3-4.53-4.25-6.36l-2.83-4.32-.74-1.19c-.1-.13-.18-.28-.24-.43,0,0,.13,.12,.32,.38s.5,.68,.83,1.13l3,4.22,4.34,6.3,2.57,3.7,1.35,2,.68,1,.35,.51,.17,.26,.09,.12,.05,.07h0l-.31-.09c6-2.75,11.53-5.22,15.52-7l4.73-2.07,1.29-.53c.15-.05,.3-.08,.46-.09Z"/><path class="cls-14" d="M38.93,294.23c-2.5,1.75-5.09,3.36-7.77,4.81-2.58,1.6-5.25,3.06-8,4.35,2.5-1.74,5.09-3.34,7.77-4.8,2.58-1.6,5.26-3.05,8-4.36Z"/><path class="cls-14" d="M58.77,313.72c-1.43-2.68-2.72-5.44-3.84-8.26-1.29-2.75-2.41-5.58-3.37-8.46,1.43,2.68,2.72,5.44,3.84,8.26,1.29,2.75,2.41,5.58,3.37,8.46Z"/><rect class="cls-13" x="160.38" y="257.97" width="37.86" height="26.23" transform="translate(-36.58 28.12) rotate(-8.14)"/><path class="cls-14" d="M199.92,281.38c-.04-.16-.07-.33-.1-.49-.05-.34-.13-.8-.22-1.38-.19-1.24-.46-3-.8-5.24-.68-4.53-1.64-11-2.81-18.82l.24,.17-37.47,5.42c0,.06,.42-.56,.22-.3h0v.42l.06,.44,.13,.86,.24,1.72c.17,1.15,.33,2.28,.49,3.41,.32,2.26,.64,4.47,.95,6.65,.61,4.34,1.2,8.52,1.76,12.46l-.27-.2,27-3.74,7.73-1,2.07-.26,.54-.07h.03l-.51,.08-2,.32-7.66,1.16-27.1,4h-.23v-.23c-.57-3.94-1.17-8.12-1.8-12.46-.31-2.17-.65-4.39-1-6.65-.16-1.12-.33-2.26-.49-3.4-.08-.57-.16-1.15-.25-1.72l-.12-.87-.06-.43v-.41h0c-.2,.26,.26-.36,.22-.3l37.48-5.31h.21v.21c1.08,7.9,2,14.41,2.6,19,.3,2.23,.53,4,.69,5.21,.08,.57,.13,1,.17,1.35s.06,.41,.06,.4Z"/><path class="cls-14" d="M195.85,256.53s-.08,.15-.28,.4l-.9,1.08-3.37,3.91c-2.86,3.28-6.84,7.79-11.27,12.76-.66,.09-.19,0-.34,0h-.07l-.13-.08-.26-.16-.53-.33-1-.65-2-1.27-3.82-2.41-6.46-4.1-4.33-2.81-1.16-.78c-.27-.19-.4-.29-.39-.31,.16,.05,.3,.13,.44,.22l1.22,.7,4.41,2.66,6.52,4,3.72,2.36,2,1.26,1,.65,.52,.32,.26,.17,.14,.08h.06c-.15,0,.34,0-.32,0,4.42-5,8.44-9.44,11.38-12.66l3.49-3.79c.38-.41,.7-.74,1-1,.14-.1,.3-.17,.47-.22Z"/><path class="cls-14" d="M173.17,270.35c-1.58,2.61-3.3,5.13-5.17,7.54-1.72,2.51-3.59,4.93-5.59,7.23,1.58-2.61,3.31-5.13,5.17-7.54,1.73-2.51,3.6-4.92,5.59-7.23Z"/><path class="cls-14" d="M199.2,280.17c-2.4-1.87-4.68-3.87-6.85-6-2.29-2-4.46-4.13-6.5-6.38,2.39,1.87,4.68,3.87,6.85,6,2.29,2,4.46,4.13,6.5,6.38Z"/><polygon class="cls-6" points="166.21 228.94 133.44 245.04 115.27 230.39 148.04 214.3 166.21 228.94"/><path class="cls-14" d="M166.21,228.94l-.36-.26c-.24-.2-.57-.45-1-.77l-3.7-2.92-13.26-10.53h.22l-32.74,16.15c0,.09,.09-.83,.05-.44h0l.07,.06,.15,.12,.3,.25,.61,.48,1.19,1,2.37,1.91,4.64,3.74,8.75,7.07h-.25l23.57-11.43,6.81-3.28,1.83-.87,.48-.22,.18-.08-.58,.31-1.69,.89-6.69,3.35-23.61,11.78-.14,.07-.12-.1-8.77-7-4.67-3.78-2.37-1.91-1.2-1-.6-.49-.3-.24-.16-.12-.07-.06h0c0,.39,.05-.53,.05-.44l32.75-16.06,.11-.05,.11,.08,13.23,10.82,3.59,3,.92,.77c.1,.06,.21,.13,.3,.2Z"/><path class="cls-14" d="M148.04,214.3c-.06,.42-.16,.84-.29,1.24-.25,.87-.58,2-1,3.38-.89,3-2.09,7-3.46,11.55l-.06,.18h-5.66c-6.17,0-11.75,0-15.79-.08l-4.79-.08c-.58,0-1.17-.02-1.75-.1,.58-.09,1.16-.13,1.75-.11l4.79-.08c4,0,9.62-.07,15.79-.07h5.47l-.24,.17c1.45-4.56,2.71-8.55,3.64-11.49,.45-1.37,.83-2.49,1.11-3.34,.13-.4,.29-.8,.49-1.17Z"/><path class="cls-14" d="M135.92,231.04c-.16,2.35-.49,4.69-1,7-.33,2.37-.83,4.71-1.5,7,.16-2.37,.5-4.73,1-7.05,.33-2.35,.83-4.67,1.5-6.95Z"/><path class="cls-14" d="M166.21,228.94c0,.14-4.92-.48-10.93-1.39s-10.87-1.76-10.85-1.9,4.92,.48,10.93,1.39,10.87,1.76,10.85,1.9Z"/><polygon class="cls-4" points="58.81 392.36 59.67 366.52 86.47 357.71 86.47 332.91 108.59 327.27 116.18 306.89 137.4 302.58 176.27 302.58 195.19 336.43 236.55 335.73 236.55 360.06 286.63 364.54 307.9 382.11 352.7 393.19 58.81 392.36"/><rect class="cls-13" x="164.49" y="306.19" width="45.11" height="31.26" transform="translate(-54.03 38.21) rotate(-10.2)"/><path class="cls-14" d="M212,333.22s-.05-.2-.13-.57l-.31-1.63c-.28-1.46-.67-3.55-1.17-6.21l-4.13-22.31,.24,.17-44.39,8c0,.07,.4-.57,.21-.29h0v.5l.09,.52,.19,1c.12,.69,.24,1.37,.37,2,.24,1.36,.48,2.71,.72,4l1.41,7.87c.92,5.15,1.81,10.1,2.64,14.77l-.27-.19,32-5.64,9.16-1.58,2.45-.41,.63-.1h.04l-.61,.13-2.39,.46-9.08,1.69-32.09,5.89-.23,.05-.05-.24c-.84-4.66-1.74-9.61-2.67-14.76-.46-2.57-.94-5.2-1.42-7.87-.24-1.33-.48-2.68-.73-4l-.36-2.05-.19-1-.09-.51-.05-.26v-.23h0c-.19,.27,.25-.37,.21-.31l44.41-7.93h.21v.2c1.64,9.38,3,17.09,3.94,22.49,.45,2.65,.8,4.72,1.05,6.17,.11,.69,.2,1.22,.27,1.61s.12,.57,.12,.57Z"/><path class="cls-14" d="M206.06,303.81c-.09,.17-.2,.33-.33,.48l-1,1.32-3.88,4.78-12.89,15.67c-.66,.12-.19,0-.34,.05h-.08l-.16-.1-.32-.18-.64-.37-1.26-.73-2.46-1.42-4.66-2.7-7.87-4.61-5.32-3.22-1.42-.88c-.17-.09-.33-.2-.48-.33,.19,.06,.36,.14,.53,.24l1.47,.8,5.37,3,7.93,4.51,4.67,2.68,2.47,1.42,1.26,.72,.64,.37,.32,.18,.16,.1h.08c-.14,0,.34-.05-.32,.07l13-15.57,4-4.68,1.1-1.26c.28-.21,.42-.36,.43-.34Z"/><path class="cls-14" d="M179.68,321.24c.12,.08-2.51,4.18-5.87,9.16s-6.19,9-6.31,8.88,2.51-4.19,5.87-9.17,6.19-8.99,6.31-8.87Z"/><path class="cls-14" d="M211.09,331.81c-.09,.11-3.85-3-8.38-6.89s-8.14-7.17-8-7.28,3.84,3,8.38,6.89,8.1,7.17,8,7.28Z"/><rect class="cls-8" x="188.99" y="339.68" width="39.98" height="27.7" transform="translate(-59.3 42.59) rotate(-10.2)"/><path class="cls-14" d="M231.08,363.64c-.05-.17-.09-.34-.11-.51-.07-.35-.17-.83-.29-1.45-.24-1.29-.59-3.14-1-5.5-.88-4.75-2.14-11.53-3.67-19.76l.25,.17-39.41,7.12,.2-.29h0v.44l.09,.46,.16,.91c.11,.6,.22,1.21,.32,1.81,.22,1.2,.43,2.39,.65,3.57,.42,2.37,.84,4.71,1.25,7,.81,4.57,1.6,8.95,2.33,13.09l-.27-.19,28.33-5,8.12-1.4,2.17-.36,.57-.09h.2s-.05,0-.17,.05l-.53,.11-2.12,.41-8,1.51-28.45,5.23-.23,.05v-.24c-.75-4.13-1.55-8.51-2.37-13.08-.42-2.28-.84-4.61-1.26-7-.22-1.19-.43-2.38-.65-3.58-.11-.6-.21-1.2-.32-1.81l-.17-.91-.08-.45v-.45h0c-.19,.26,.26-.38,.21-.31l39.36-7h.21v.2c1.45,8.31,2.64,15.14,3.48,19.94,.4,2.34,.71,4.18,.93,5.47,.1,.6,.17,1.07,.23,1.42,.02,.14,.04,.28,.04,.42Z"/><path class="cls-14" d="M225.85,337.57s-.08,.16-.29,.43l-.9,1.17-3.42,4.25c-2.9,3.57-6.93,8.49-11.41,13.89l-.34,.06h-.07l-.14-.08-.29-.17-.56-.32-1.12-.65-2.19-1.26-4.12-2.4-7-4.08-4.67-2.8-1.26-.78c-.15-.08-.29-.18-.42-.3,.17,.05,.32,.12,.47,.21l1.31,.7,4.76,2.65,7,4,4.14,2.37,2.19,1.25,1.12,.65,.56,.32,.29,.17,.14,.08h.07l-.32,.06c4.48-5.41,8.56-10.28,11.53-13.79l3.54-4.15,1-1.11c.12-.14,.25-.27,.4-.37Z"/><path class="cls-14" d="M202.44,353.02c-1.58,2.8-3.31,5.52-5.18,8.14-1.73,2.71-3.61,5.33-5.62,7.85,1.58-2.81,3.31-5.52,5.19-8.14,1.73-2.72,3.6-5.34,5.61-7.85Z"/><path class="cls-14" d="M230.28,362.39c-2.59-1.89-5.08-3.92-7.45-6.08-2.48-2.03-4.86-4.19-7.11-6.48,2.59,1.89,5.08,3.92,7.45,6.08,2.48,2.03,4.86,4.19,7.11,6.48Z"/><rect class="cls-13" x="119.69" y="288.72" width="39.98" height="27.7" transform="translate(-51.37 29.52) rotate(-10.2)"/><path class="cls-14" d="M161.79,312.68c-.05-.17-.09-.34-.12-.51-.07-.36-.16-.84-.28-1.45-.25-1.3-.6-3.15-1-5.5-.89-4.76-2.14-11.53-3.67-19.77l.24,.17-39.34,7.13c0,.06,.4-.57,.21-.3h0v.43l.08,.45,.17,.91c.1,.61,.21,1.21,.32,1.81,.22,1.2,.43,2.4,.64,3.58,.43,2.37,.84,4.69,1.25,7,.82,4.56,1.6,8.94,2.34,13.08l-.28-.19,28.34-5,8.16-1.4,2.17-.36,.57-.09c.07-.01,.13-.01,.2,0h-.17l-.54,.11-2.11,.41-8.05,1.51-28.44,5.24h-.23l-.05-.23c-.75-4.14-1.54-8.52-2.37-13.08-.41-2.29-.83-4.61-1.26-7-.21-1.18-.42-2.38-.64-3.58l-.33-1.81-.16-.9-.08-.46v-.43h0c-.19,.27,.25-.37,.21-.31l39.36-7h.21v.21c1.45,8.3,2.64,15.14,3.48,19.93,.39,2.34,.71,4.18,.92,5.47l.24,1.42c.02,.17,.02,.34,0,.51Z"/><path class="cls-14" d="M156.53,286.6c-.08,.16-.18,.31-.29,.44l-.91,1.17-3.41,4.25c-2.9,3.57-6.93,8.48-11.41,13.89-.66,.12-.19,0-.34,0h0l-.07-.05-.15-.08-.28-.16-.56-.33-1.12-.64-2.19-1.27-4.13-2.39-7-4.09-4.68-2.79-1.26-.78c-.28-.19-.43-.29-.42-.31,.17,.06,.33,.13,.48,.22l1.3,.69,4.76,2.65,7,4,4.15,2.37,2.19,1.26,1.11,.64,.57,.33,.28,.16,.15,.08h.07c-.14,0,.34-.05-.32,.06,4.48-5.4,8.55-10.28,11.53-13.79l3.54-4.14,1-1.11c.27-.16,.39-.29,.41-.28Z"/><path class="cls-14" d="M133.15,302.05c-1.59,2.8-3.32,5.52-5.19,8.14-1.73,2.72-3.6,5.34-5.61,7.85,1.58-2.8,3.31-5.52,5.18-8.14,1.73-2.72,3.61-5.34,5.62-7.85Z"/><path class="cls-14" d="M160.98,311.42c-2.59-1.89-5.07-3.92-7.44-6.08-2.49-2.03-4.86-4.19-7.11-6.48,2.59,1.9,5.07,3.93,7.45,6.09,2.48,2.02,4.85,4.18,7.1,6.47Z"/><rect class="cls-6" x="147.7" y="316.78" width="32.1" height="46.34" transform="translate(-200.95 436.78) rotate(-79.15)"/><path class="cls-14" d="M183.48,360.06s0-.21,.09-.59,.17-1,.3-1.69c.27-1.49,.66-3.64,1.16-6.37,1-5.5,2.5-13.36,4.28-22.92l.17,.25-45.51-8.62,.3-.2h0v.25l-.05,.27-.1,.52-.2,1c-.14,.7-.27,1.4-.41,2.09-.26,1.39-.53,2.77-.79,4.14-.53,2.74-1,5.43-1.55,8.07-1,5.28-2,10.34-2.92,15.12l-.18-.27,32.72,6.39,9.37,1.86,2.49,.5,.65,.14,.23,.06h-.21l-.62-.11-2.47-.44-9.38-1.75-32.92-6.19h-.24v-.23c.91-4.79,1.87-9.86,2.88-15.14,.5-2.64,1-5.33,1.54-8.07,.26-1.36,.53-2.74,.79-4.13,.14-.7,.27-1.4,.4-2.09l.21-1.06,.1-.52,.05-.27v-.23h0l.31-.21,45.49,8.77h.21v.2c-1.89,9.59-3.44,17.48-4.52,23-.55,2.71-1,4.83-1.27,6.31l-.33,1.64c-.02,.35-.07,.52-.07,.52Z"/><path class="cls-14" d="M188.64,329.67c-.15,.13-.32,.25-.5,.34l-1.47,.88-5.47,3.17-18.12,10.26c-.67-.12-.19,0-.34-.07h0l-.06-.08-.12-.15-.24-.29-.48-.59-.99-1.22-1.84-2.28-3.46-4.31c-2.2-2.74-4.18-5.21-5.85-7.31s-2.95-3.73-3.91-5l-1-1.36c-.13-.15-.24-.32-.34-.5,.15,.13,.29,.27,.42,.43l1.12,1.3,4,4.86,5.94,7.24,3.49,4.29,1.84,2.27,.95,1.16,.47,.59,.24,.3,.12,.14,.06,.08h0c-.14,0,.34,.07-.32-.05l18.2-10.13,5.55-3,1.52-.8c.19-.08,.39-.13,.59-.17Z"/><path class="cls-14" d="M156.92,336.65c.08,.12-3.95,3.08-9,6.61s-9.23,6.31-9.31,6.19,3.95-3.08,9-6.61,9.24-6.31,9.31-6.19Z"/><path class="cls-14" d="M183.13,358.37c-.13,.07-2.58-4.28-5.49-9.7s-5.16-9.87-5-9.94,2.58,4.27,5.49,9.7,5.13,9.87,5,9.94Z"/><rect class="cls-6" x="244.2" y="344.27" width="32.1" height="46.34" transform="translate(-149.61 553.88) rotate(-79.15)"/><path class="cls-14" d="M279.97,387.56s0-.21,.09-.6,.17-1,.3-1.68c.28-1.49,.67-3.64,1.17-6.38,1-5.5,2.49-13.36,4.28-22.91l.16,.25-45.51-8.67,.3-.21h0v.25l-.05,.26-.1,.53-.2,1-.4,2.09c-.27,1.39-.53,2.77-.79,4.14-.53,2.73-1.05,5.43-1.56,8.07-1,5.27-2,10.34-2.91,15.12l-.19-.28,32.73,6.4,9.36,1.85,2.5,.51,.65,.14,.22,.06h-.2l-.63-.1-2.46-.45-9.33-1.72-32.98-6.11h-.23v-.24c.91-4.78,1.88-9.85,2.89-15.13,.5-2.67,1.01-5.36,1.54-8.07,.26-1.37,.52-2.75,.79-4.14,.13-.69,.27-1.39,.4-2.09l.2-1.05,.1-.53,.05-.26v-.25h0c-.27,.18,.37-.26,.31-.22l45.49,8.77h.21v.21c-1.88,9.59-3.43,17.48-4.52,23-.54,2.71-1,4.83-1.26,6.31-.15,.7-.26,1.24-.34,1.64s-.08,.49-.08,.49Z"/><path class="cls-14" d="M285.13,357.17c-.15,.13-.31,.25-.49,.34l-1.48,.88-5.46,3.16-18.13,10.27-.34-.07h0l-.06-.07-.12-.15-.24-.29-.47-.59-.94-1.16-1.89-2.37-3.47-4.31-5.85-7.31c-1.62-2.06-2.94-3.74-3.91-5l-1-1.37c-.13-.15-.25-.32-.34-.5,.16,.13,.3,.28,.42,.44l1.12,1.3,4,4.85,5.93,7.25,3.5,4.29,1.84,2.36,.94,1.16,.48,.59,.24,.29,.12,.15,.06,.08h0l-.32-.06,18.2-10.13,5.54-3,1.53-.79c.18-.11,.38-.19,.59-.24Z"/><path class="cls-14" d="M253.41,364.12c.09,.11-3.95,3.08-9,6.61s-9.23,6.31-9.32,6.19,4-3.08,9-6.62,9.24-6.27,9.32-6.18Z"/><path class="cls-14" d="M279.62,385.87c-.12,.06-2.58-4.28-5.48-9.7s-5.16-9.88-5-9.95,2.58,4.28,5.48,9.7,5.13,9.88,5,9.95Z"/><rect class="cls-8" x="116.2" y="177.17" width="26.23" height="37.86" transform="translate(-82.36 297.93) rotate(-82.29)"/><path class="cls-14" d="M146.3,211.62s0-.17,.05-.49,.09-.81,.16-1.39c.16-1.24,.38-3,.66-5.26,.59-4.54,1.43-11,2.44-18.88l.18,.24-37.52-5,.29-.22h0v.41l-.05,.43-.12,.87-.24,1.73c-.15,1.14-.31,2.28-.46,3.41-.31,2.25-.61,4.47-.9,6.65-.6,4.35-1.17,8.52-1.71,12.47l-.2-.27,27,3.77,7.72,1.11,2.07,.31,.53,.08h.03l-.52-.05-2-.25-7.69-1-27.15-3.56h-.24v-.24c.53-3.94,1.09-8.12,1.67-12.47,.3-2.18,.59-4.4,.9-6.65,.15-1.13,.3-2.27,.46-3.41,.08-.58,.15-1.15,.23-1.73l.12-.86,.06-.44v-.41h0l.29-.22,37.49,5.12h.21v.21c-1.12,7.9-2,14.41-2.68,19-.32,2.23-.58,4-.76,5.2-.08,.57-.15,1-.2,1.35-.02,.15-.06,.3-.12,.44Z"/><path class="cls-14" d="M149.15,186.6c-.11,.12-.24,.22-.38,.31l-1.16,.79-4.31,2.84c-3.65,2.38-8.71,5.63-14.32,9.2l-.34-.05h0l-.06-.05-.1-.12-.21-.23-.41-.46-.82-.9-1.6-1.78-3-3.36-5.1-5.71c-1.49-1.65-2.6-2.96-3.49-3.96l-.9-1.08c-.11-.12-.21-.25-.29-.39,0,0,.14,.1,.37,.32l1,1,3.53,3.77,5.17,5.64,3,3.34,1.61,1.77,.82,.9,.42,.46,.21,.23,.1,.12v.06h-.33c5.61-3.57,10.7-6.77,14.41-9.07l4.39-2.7,1.21-.71c.42-.12,.57-.2,.58-.18Z"/><path class="cls-14" d="M123.59,193.71c-2.22,2.08-4.56,4.03-7,5.84-2.35,1.95-4.8,3.76-7.35,5.43,2.22-2.08,4.56-4.03,7-5.84,2.35-1.95,4.8-3.76,7.35-5.43Z"/><path class="cls-14" d="M145.94,210.26c-1.81-2.45-3.48-5-5-7.64-1.65-2.55-3.15-5.19-4.51-7.91,1.82,2.45,3.49,5,5,7.64,1.66,2.54,3.17,5.19,4.51,7.91Z"/><rect class="cls-13" x="60.31" y="213.7" width="26.23" height="37.86" transform="translate(-166.96 274.19) rotate(-82.29)"/><path class="cls-14" d="M90.42,248.12c0-.16,0-.33,0-.49,0-.34,.1-.81,.17-1.39,.15-1.24,.38-3,.66-5.26,.58-4.54,1.42-11,2.44-18.88l.18,.24-37.52-5,.29-.22h0v.41l-.06,.44-.12,.86c-.07,.58-.15,1.15-.23,1.73-.15,1.14-.31,2.28-.46,3.41-.31,2.25-.62,4.47-.91,6.65-.59,4.35-1.16,8.52-1.7,12.47l-.2-.27,27,3.77,7.72,1.11,2.06,.31,.54,.08h-.49l-2-.25-7.69-1-27.25-3.52h-.23v-.24c.53-3.94,1.09-8.12,1.67-12.47,.29-2.18,.59-4.4,.9-6.65,.15-1.13,.3-2.27,.46-3.41,.07-.58,.15-1.15,.23-1.73l.12-.86v-.84h0l.3-.22,37.51,5.12h.21v.21c-1.12,7.9-2,14.41-2.68,19-.33,2.22-.58,4-.76,5.19l-.21,1.35c.03,.11,.04,.23,.05,.35Z"/><path class="cls-14" d="M93.27,223.12s-.12,.12-.38,.31l-1.16,.79-4.31,2.9c-3.65,2.38-8.71,5.63-14.32,9.2l-.34-.05h0v-.05l-.1-.12-.21-.23-.42-.46-.82-.9-1.6-1.78-3-3.36-5.09-5.71c-1.39-1.59-2.54-2.91-3.4-3.88-.36-.43-.66-.78-.9-1.08s-.31-.38-.29-.39,.14,.1,.36,.32l1,1,3.52,3.77,5.04,5.55,3,3.34,1.61,1.77,.82,.9,.41,.46,.21,.23,.11,.12v.06h-.32c5.61-3.57,10.7-6.77,14.4-9.07l4.4-2.7,1.21-.71c.41-.15,.56-.23,.57-.23Z"/><path class="cls-14" d="M67.71,230.25c-2.22,2.08-4.56,4.03-7,5.84-2.35,1.95-4.81,3.76-7.36,5.43,2.22-2.08,4.56-4.03,7-5.84,2.35-1.95,4.81-3.76,7.36-5.43Z"/><path class="cls-14" d="M90.06,246.8c-1.79-2.45-3.44-5-4.95-7.64-1.65-2.55-3.16-5.19-4.51-7.91,1.81,2.45,3.48,5,5,7.64,1.64,2.55,3.13,5.19,4.46,7.91Z"/><rect class="cls-8" x="100.52" y="309.99" width="46.13" height="31.96" transform="translate(-55.77 27.04) rotate(-10.2)"/><path class="cls-14" d="M149.09,337.62s-.05-.21-.12-.59l-.33-1.67c-.28-1.48-.68-3.62-1.19-6.34-1-5.48-2.46-13.3-4.22-22.82l.24,.17-45.38,8.22c0,.06,.39-.57,.21-.3h0v.24l.05,.26,.09,.52,.19,1.05c.13,.7,.25,1.4,.38,2.09,.25,1.39,.49,2.76,.74,4.13,.49,2.73,.97,5.39,1.44,8,.94,5.26,1.85,10.32,2.7,15.09l-.28-.19,32.7-5.76,9.36-1.62,2.5-.42,.65-.1c.08,0,.15,0,.23,0l-.19,.05-.63,.12-2.44,.47-9.29,1.74-32.8,6h-.24v-.23c-.86-4.78-1.78-9.83-2.73-15.09-.47-2.64-1-5.32-1.45-8.05-.25-1.37-.5-2.74-.75-4.13-.12-.69-.25-1.39-.37-2.09l-.19-1-.09-.53v-.51h0l.22-.31,45.4-8.11h.21v.21c1.68,9.58,3.06,17.47,4,23,.46,2.7,.82,4.83,1.08,6.31,.11,.7,.2,1.24,.27,1.64s.03,.55,.03,.55Z"/><path class="cls-14" d="M143.03,307.54c-.1,.17-.21,.34-.34,.49l-1.06,1.35-3.94,4.89-13.18,16c-.66,.12-.19,0-.34,.05h-.08l-.24-.2-.33-.19-.65-.37-1.29-.75-2.53-1.46-4.76-2.76-8-4.7-5.44-3.17-1.46-.9c-.17-.1-.34-.21-.49-.34,.19,.06,.37,.14,.54,.25l1.51,.81,5.49,3.07,8.1,4.6,4.78,2.74,2.52,1.45,1.3,.75,.65,.37,.33,.19,.16,.09,.08,.05h0c-.14,0,.34,0-.32,.07l13.29-15.92,4.08-4.79,1.13-1.28c.15-.15,.31-.28,.49-.39Z"/><path class="cls-14" d="M116.05,325.36c.12,.08-2.57,4.28-6,9.37s-6.33,9.16-6.45,9.08,2.58-4.28,6-9.37,6.33-9.16,6.45-9.08Z"/><path class="cls-14" d="M148.17,336.17c-.1,.11-3.93-3.05-8.57-7.05s-8.32-7.33-8.23-7.44,3.93,3.05,8.57,7.05,8.32,7.33,8.23,7.44Z"/><rect class="cls-6" x="96.63" y="334.67" width="42.57" height="29.49" transform="translate(-6.5 2.26) rotate(-1.07)"/><path class="cls-14" d="M139.45,363.76v-2.12c0-1.4-.1-3.41-.17-6-.12-5.14-.29-12.48-.51-21.4l.22,.2-42.56,.85c-.06,.05,.48-.5,.25-.26h0v3.95c0,1.3,0,2.59,.07,3.87,0,2.56,.09,5.08,.13,7.55,.09,4.94,.17,9.67,.25,14.15l-.24-.23,30.62-.46,8.77-.1h2.4l-2.29,.07-8.72,.23-30.77,.69h-.24v-.24c-.08-4.48-.18-9.21-.28-14.15-.04-2.47-.09-4.99-.14-7.55,0-1.28,0-2.57-.07-3.87v-3.95h0l.26-.27,42.56-.75h.21v.21c.13,9,.23,16.36,.3,21.54,0,2.53,0,4.52,.05,5.91v1.53c0,.2-.04,.4-.1,.6Z"/><path class="cls-14" d="M138.33,335.47c-.11,.15-.24,.28-.38,.4l-1.1,1.07-4.31,3.89-14.35,12.67h-.37l-.07-.05-.13-.11-.28-.22-.53-.44-1.07-.87c-.71-.57-1.4-1.14-2.08-1.7l-3.94-3.21-6.64-5.47-4.45-3.72-1.19-1c-.14-.11-.28-.24-.4-.38,.17,.08,.32,.18,.46,.3l1.26,1,4.55,3.59,6.71,5.38,4,3.2,2.09,1.69,1.06,.86,.54,.44,.27,.22,.14,.11,.07,.06h0c-.15,0,.34,0-.33,0l14.44-12.56,4.42-3.76,1.22-1c.22-.3,.38-.41,.39-.39Z"/><path class="cls-14" d="M111.14,347.75c-2.15,2.67-4.43,5.23-6.84,7.67-3.88,4.14-7.11,7.42-7.21,7.32,2.14-2.67,4.42-5.23,6.83-7.67,2.28-2.56,4.69-5,7.22-7.32Z"/><path class="cls-14" d="M138.85,362.31c-2.39-2.44-4.66-5-6.79-7.67-2.26-2.56-4.4-5.23-6.39-8,2.4,2.43,4.66,4.99,6.79,7.66,2.27,2.56,4.4,5.23,6.39,8.01Z"/><rect class="cls-13" x="148.18" y="347.58" width="27.7" height="39.98" transform="translate(-223.95 478.83) rotate(-82.29)"/><path class="cls-14" d="M179.99,383.95c0-.17,.02-.35,.05-.52,0-.36,.1-.84,.17-1.47,.17-1.3,.4-3.17,.7-5.55,.62-4.79,1.51-11.63,2.59-19.94l.18,.24-39.63-5.31,.29-.22h0v.43l-.06,.46-.13,.92-.24,1.82c-.17,1.21-.33,2.41-.49,3.6-.33,2.38-.64,4.72-1,7-.62,4.6-1.23,9-1.8,13.17l-.2-.26,28.49,4,8.16,1.17,2.17,.32,.57,.09h.04l-.54-.06-2.14-.26-8.12-1-28.67-3.76h-.24v-.24c.56-4.17,1.15-8.58,1.77-13.18,.31-2.29,.62-4.64,.94-7,.17-1.19,.33-2.39,.49-3.6,.08-.61,.16-1.22,.25-1.82l.12-.92,.06-.46v-.48h0l.3-.23,39.61,5.41h.21v.21c-1.17,8.35-2.14,15.22-2.82,20-.34,2.35-.61,4.2-.8,5.49-.09,.6-.16,1.07-.21,1.42,0,.18-.03,.36-.07,.53Z"/><path class="cls-14" d="M183,357.53c-.12,.12-.26,.23-.41,.32l-1.22,.83-4.55,3c-3.86,2.51-9.21,5.94-15.13,9.71h-.34l-.06-.06-.11-.12-.22-.24-.43-.49-.87-1-1.69-1.87-3.19-3.55-5.38-6-3.59-4.1-1-1.13c-.12-.12-.23-.26-.31-.42,.14,.1,.27,.22,.39,.35l1,1.07,3.71,4,5.47,6,3.21,3.53,1.7,1.87,.86,.95,.44,.49,.22,.24,.11,.12,.06,.06h-.32c5.92-3.77,11.3-7.15,15.21-9.58l4.64-2.86,1.28-.75c.37-.31,.51-.39,.52-.37Z"/><path class="cls-14" d="M156,365.04c-2.36,2.18-4.84,4.23-7.43,6.15-2.48,2.06-5.07,3.97-7.76,5.74,2.37-2.18,4.85-4.23,7.44-6.15,2.48-2.05,5.06-3.97,7.75-5.74Z"/><path class="cls-14" d="M179.61,382.51c-1.89-2.6-3.63-5.29-5.22-8.08-1.74-2.69-3.33-5.48-4.77-8.34,1.89,2.58,3.63,5.26,5.23,8.03,1.74,2.71,3.32,5.51,4.76,8.39Z"/><rect class="cls-13" x="113.46" y="356.38" width="29.49" height="42.57" transform="translate(-263.24 454.05) rotate(-82.29)"/><path class="cls-14" d="M147.32,395.12s0-.2,.05-.55,.11-.9,.19-1.56c.17-1.39,.42-3.38,.74-5.91,.67-5.1,1.61-12.39,2.76-21.23l.18,.23-42.19-5.66c-.06,.05,.56-.42,.29-.21h0v.48l-.07,.48-.13,1c-.09,.65-.17,1.29-.26,1.94-.18,1.29-.35,2.56-.52,3.83-.35,2.54-.69,5-1,7.48-.67,4.89-1.31,9.59-1.91,14l-.21-.26,30.34,4.22,8.68,1.24,2.32,.34,.6,.1h.03l-.58-.07-2.28-.27-8.65-1.11-30.52-4h-.24v-.24c.59-4.44,1.22-9.13,1.88-14,.33-2.44,.66-4.94,1-7.48,.18-1.27,.35-2.54,.52-3.83,.09-.65,.18-1.29,.26-1.94l.14-1,.06-.49v-.53h0c-.26,.19,.36-.28,.29-.23l42.18,5.76h.21v.2l-3,21.33c-.36,2.51-.64,4.48-.84,5.85-.1,.65-.18,1.15-.23,1.52l-.09,.57Z"/><path class="cls-14" d="M150.52,366.97s-.14,.14-.44,.34l-1.3,.89-4.85,3.18-16.08,10.34-.34-.05h0l-.06-.07-.12-.13-.23-.25-.47-.52-.92-1-1.8-2-3.4-3.77c-2.14-2.41-4.08-4.58-5.73-6.42l-3.93-4.39-1-1.2c-.13-.13-.24-.28-.33-.44,0,0,.15,.11,.41,.37l1.09,1.14,4,4.24,5.81,6.34,3.42,3.76c.59,.66,1.19,1.32,1.81,2l.92,1,.46,.52,.24,.26,.12,.13,.05,.06h0c-.15,0,.33,.05-.33,0l16.21-10.18,4.94-3,1.36-.8c.15-.13,.32-.25,.49-.35Z"/><path class="cls-14" d="M121.77,374.97c.09,.11-3.46,3-7.92,6.54-2.65,2.18-5.4,4.23-8.25,6.13,2.53-2.31,5.18-4.49,7.93-6.54,4.46-3.5,8.16-6.24,8.24-6.13Z"/><path class="cls-14" d="M146.91,393.58c-.12,.07-2.6-3.78-5.54-8.61s-5.22-8.81-5.1-8.88c2,2.77,3.85,5.64,5.55,8.61,1.84,2.87,3.54,5.84,5.09,8.88Z"/><rect class="cls-8" x="158.81" y="363.04" width="39.98" height="27.7" transform="translate(-63.92 37.62) rotate(-10.2)"/><path class="cls-14" d="M200.91,387c-.05-.17-.09-.34-.12-.51-.07-.35-.16-.84-.28-1.45-.25-1.29-.6-3.14-1-5.5-.88-4.75-2.14-11.53-3.66-19.76l.24,.16-39.39,7.18c0,.07,.39-.57,.21-.3h0v.44l.08,.46,.16,.91,.33,1.81c.21,1.2,.43,2.39,.64,3.57,.42,2.37,.84,4.71,1.25,7,.82,4.57,1.6,8.95,2.34,13.09l-.28-.19,28.33-5,8.12-1.4,2.18-.36,.56-.09h.21l-.17,.05-.54,.11-2.12,.41-8,1.51-28.44,5.23-.24,.05v-.24c-.75-4.13-1.54-8.51-2.37-13.08-.41-2.28-.83-4.61-1.26-7-.21-1.19-.43-2.38-.64-3.58l-.33-1.81-.16-.91-.09-.45v-.45h0c-.18,.26,.26-.38,.22-.31l39.35-7h.21v.21c1.45,8.31,2.64,15.14,3.47,19.94,.4,2.34,.71,4.18,.93,5.47,.1,.6,.18,1.07,.23,1.42s.03,.38,.03,.37Z"/><path class="cls-14" d="M195.65,360.93c-.08,.15-.18,.3-.29,.43l-.91,1.17-3.41,4.25c-2.9,3.57-6.94,8.49-11.41,13.89l-.34,.06h-.07l-.14-.08-.28-.17-.57-.32-1.12-.65-2.26-1.34-4.13-2.4-7-4.08-4.68-2.8-1.19-.77c-.15-.08-.29-.18-.42-.3,.17,.05,.32,.12,.47,.21l1.31,.7,4.76,2.65,7,4c1.32,.75,2.71,1.54,4.14,2.37l2.19,1.25,1.12,.65,.57,.32,.28,.17,.14,.08h.07l-.33,.06c4.48-5.41,8.56-10.28,11.53-13.79l3.54-4.15,1-1.11c.28-.19,.41-.31,.43-.3Z"/><path class="cls-14" d="M172.26,376.38c-1.58,2.8-3.31,5.52-5.18,8.14-1.73,2.71-3.6,5.33-5.61,7.85,1.58-2.81,3.31-5.52,5.18-8.14,1.73-2.72,3.6-5.34,5.61-7.85Z"/><path class="cls-14" d="M200.1,385.75c-2.59-1.9-5.08-3.93-7.45-6.09-2.49-2.03-4.86-4.19-7.11-6.47,2.59,1.89,5.08,3.92,7.45,6.08,2.48,2.03,4.86,4.19,7.11,6.48Z"/><rect class="cls-13" x="68.78" y="338.72" width="24.87" height="35.9" transform="translate(-283.13 389.31) rotate(-82.29)"/><path class="cls-14" d="M97.34,371.38c0-.16,0-.31,0-.47,0-.33,.09-.77,.16-1.32,.14-1.19,.35-2.86,.62-5,.55-4.31,1.35-10.45,2.31-17.9l.18,.24-35.58-4.77,.29-.22h0v.8l-.12,.82c-.07,.55-.14,1.09-.22,1.64-.14,1.08-.29,2.16-.44,3.23-.29,2.14-.58,4.24-.85,6.31-.57,4.12-1.11,8.08-1.62,11.82l-.2-.26,25.57,3.58,7.32,1,2,.29,.51,.09h.18l-.64-.06-1.92-.23-7.29-.93-25.76-3.36h-.23v-.24c.5-3.74,1-7.7,1.58-11.83,.28-2.06,.56-4.17,.85-6.31,.15-1.07,.29-2.15,.44-3.23,.07-.55,.14-1.09,.22-1.64l.11-.82,.06-.41v-.39h0l.3-.22,35.56,4.86h.21v.21c-1.06,7.49-1.93,13.66-2.54,18-.31,2.11-.55,3.76-.72,4.93-.09,.54-.15,1-.2,1.28-.03,.17-.08,.34-.14,.51Z"/><path class="cls-14" d="M100.04,347.65c-.46,.39-.95,.74-1.46,1.05l-4.08,2.69c-3.46,2.26-8.26,5.34-13.58,8.73-.67-.09-.19,0-.34-.06h0v-.06l-.1-.11-.2-.22-.39-.43-.78-.86-1.52-1.68-2.86-3.19c-1.8-2-3.43-3.86-4.83-5.42s-2.4-2.75-3.22-3.68c-.41-.44-.78-.9-1.12-1.4,.46,.38,.88,.81,1.27,1.26l3.35,3.57,4.91,5.35,2.88,3.16,1.53,1.68c.25,.29,.51,.57,.78,.86l.39,.44,.2,.21,.09,.11v.06h-.33c5.32-3.39,10.15-6.42,13.66-8.6l4.17-2.56c.5-.34,1.03-.64,1.58-.9Z"/><path class="cls-14" d="M75.85,354.39c-2.11,1.98-4.33,3.84-6.66,5.55-2.23,1.85-4.56,3.57-7,5.13,2.11-1.98,4.33-3.83,6.66-5.54,2.23-1.85,4.57-3.57,7-5.14Z"/><path class="cls-14" d="M97,370.12c-1.72-2.32-3.29-4.73-4.71-7.24-1.58-2.41-3-4.92-4.26-7.51,1.71,2.32,3.28,4.74,4.71,7.24,1.57,2.42,2.99,4.93,4.26,7.51Z"/><rect class="cls-13" x="349.23" y="195.4" width="18.62" height="18.1" transform="translate(64.8 494.39) rotate(-74.32)"/><path class="cls-14" d="M364.72,215.85c.01-.12,.04-.24,.07-.36,.07-.26,.15-.59,.25-1l1-3.68c.86-3.19,2.07-7.64,3.51-13l.16,.28-17.44-4.86,.32-.18h0v.13l-.05,.16-.08,.3-.17,.62c-.12,.41-.23,.81-.35,1.21-.22,.81-.45,1.61-.67,2.4-.45,1.59-.88,3.13-1.31,4.64-.85,3-1.66,5.84-2.4,8.44l-.15-.28,12.44,3.71,3.55,1.06,.94,.29,.34,.12-.31-.06-.91-.23-3.53-.93-12.74-3.46-.22-.05,.06-.22c.73-2.61,1.51-5.45,2.35-8.46,.42-1.5,.85-3.05,1.29-4.64,.22-.79,.45-1.59,.67-2.4,.12-.4,.23-.81,.35-1.21l.17-.62,.08-.3,.05-.16v-.13h0l.32-.18,17.54,4.9,.22,.07-.06,.21-3.78,13c-.45,1.51-.81,2.71-1.07,3.6l-.29,.93c-.04,.12-.09,.23-.15,.34Z"/><path class="cls-14" d="M367.93,205.36c-.49,.34-1.02,.63-1.57,.85-1,.5-2.45,1.19-4.19,2l-.17,.08-.15-.17-3-4.4c-1.83-2.69-3.45-5.13-4.61-6.92-.67-.95-1.26-1.96-1.78-3,.77,.86,1.46,1.78,2.09,2.75,1.23,1.73,2.9,4.14,4.73,6.83l3,4.43-.29-.08c1.75-.76,3.23-1.39,4.27-1.82,.54-.24,1.1-.43,1.67-.55Z"/><path class="cls-14" d="M358.96,203.39c-1.73,1.31-3.56,2.47-5.48,3.48-1.83,1.15-3.75,2.15-5.74,3,1.73-1.31,3.56-2.47,5.48-3.48,1.83-1.15,3.75-2.15,5.74-3Z"/><polygon class="cls-8" points="347.86 200.95 316.53 194.33 311.9 174.39 343.24 181.01 347.86 200.95"/><path class="cls-14" d="M347.85,200.95s0-.13-.1-.38l-.27-1.06c-.23-1-.56-2.31-1-4-.84-3.47-2-8.41-3.47-14.43l.16,.15-31.32-6.58c-.07,.06,.58-.6,.31-.32h0v.31l.08,.33,.15,.66,.31,1.32,.6,2.6c.4,1.72,.79,3.42,1.18,5.09,.76,3.34,1.51,6.55,2.21,9.62l-.18-.18,22.45,4.88,6.47,1.43,1.74,.39,.62,.15-.56-.09-1.69-.34-6.43-1.29-22.7-4.66h-.15v-.15c-.71-3.07-1.45-6.28-2.24-9.62-.39-1.66-.78-3.36-1.18-5.08-.2-.86-.41-1.73-.61-2.61l-.3-1.31-.08-.66-.07-.33v-.31h0c-.27,.28,.37-.38,.31-.31l31.32,6.67h.13v.12c1.36,6.11,2.48,11.12,3.27,14.65,.37,1.69,.66,3,.87,4,.09,.43,.17,.76,.22,1,0,.11-.02,.23-.05,.34Z"/><path class="cls-14" d="M343.24,181.01c-.27,.26-.56,.5-.87,.71l-2.52,1.82c-2.13,1.53-5.15,3.67-8.64,6.11l-.15,.1-.14-.11-3.79-3c-4.26-3.34-8.1-6.38-10.86-8.61l-3.25-2.65c-.41-.3-.79-.64-1.15-1,.45,.25,.88,.54,1.28,.87l3.35,2.52c2.82,2.15,6.69,5.15,10.95,8.49l3.78,3h-.3c3.5-2.41,6.55-4.49,8.74-6l2.58-1.7c.31-.22,.64-.41,.99-.55Z"/><path class="cls-14" d="M325.85,186.01c-1.37,1.57-2.86,3.03-4.47,4.36-1.49,1.47-3.1,2.8-4.82,4,2.86-3.03,5.97-5.81,9.29-8.32v-.04Z"/><path class="cls-14" d="M347.85,200.95c-2.38-2.16-4.65-4.44-6.8-6.83-2.27-2.29-4.42-4.69-6.44-7.21,2.39,2.16,4.67,4.45,6.82,6.85,2.27,2.28,4.41,4.68,6.42,7.19Z"/><polygon class="cls-2" points="338.31 227.95 313 222.6 309.27 206.49 334.58 211.84 338.31 227.95"/><path class="cls-4" d="M334.58,211.84c-.21,.22-.44,.42-.69,.58l-2,1.49c-1.72,1.25-4.16,3-7,4.95l-.15,.1-.15-.11-3.06-2.39c-3.44-2.7-6.53-5.16-8.76-7l-2.61-2.16c-.34-.25-.65-.53-.92-.85,.36,.19,.69,.43,1,.69l2.72,2c2.28,1.73,5.41,4.14,8.85,6.84l3.05,2.4h-.3c2.83-1.95,5.3-3.62,7.07-4.8,.83-.53,1.52-1,2.09-1.36,.27-.17,.56-.3,.86-.38Z"/><path class="cls-4" d="M320.51,215.88c-1.07,1.3-2.27,2.5-3.58,3.56-1.2,1.19-2.51,2.25-3.93,3.16,1.07-1.3,2.27-2.49,3.58-3.55,1.2-1.19,2.51-2.25,3.93-3.17Z"/><path class="cls-4" d="M338.32,227.95c-1.97-1.7-3.83-3.54-5.55-5.5-1.84-1.84-3.57-3.8-5.16-5.86,1.97,1.71,3.82,3.54,5.54,5.5,1.85,1.84,3.58,3.8,5.17,5.86Z"/><polygon class="cls-13" points="306.3 223.94 274.97 217.32 270.35 197.37 301.68 203.99 306.3 223.94"/><path class="cls-14" d="M306.3,223.94s0-.14-.1-.38l-.27-1.07c-.23-1-.56-2.31-1-4-.83-3.48-2-8.42-3.47-14.44l.16,.15-31.35-6.56c-.06,.06,.58-.6,.31-.31h0v.31l.07,.33,.16,.66,.3,1.32,.6,2.6c.4,1.73,.79,3.42,1.18,5.09,.77,3.34,1.51,6.56,2.21,9.62l-.18-.18,22.45,4.88,6.48,1.43,1.74,.39c.21,.04,.41,.1,.61,.16l-.56-.1-1.69-.33-6.43-1.3-22.7-4.66h-.15v-.15c-.72-3.06-1.47-6.28-2.25-9.61-.39-1.67-.78-3.36-1.18-5.09-.2-.86-.4-1.73-.61-2.6l-.3-1.32-.15-.66-.08-.33v-.31h0l.31-.31,31.32,6.67h.13v.13c1.37,6.1,2.49,11.11,3.27,14.64,.37,1.7,.67,3,.88,4,.09,.43,.16,.77,.21,1,.04,.11,.07,.22,.08,.33Z"/><path class="cls-14" d="M301.68,203.99c-.26,.27-.55,.5-.86,.71l-2.5,1.82c-2.13,1.54-5.15,3.67-8.63,6.11l-.16,.11-.14-.12-3.79-3c-4.26-3.34-8.09-6.38-10.85-8.6l-3.26-2.66c-.41-.29-.8-.63-1.14-1,.45,.25,.87,.54,1.27,.87,.87,.65,2,1.5,3.35,2.53,2.82,2.15,6.69,5.14,10.95,8.48l3.78,3h-.3c3.5-2.41,6.55-4.49,8.74-5.95l2.58-1.7c.3-.23,.62-.43,.96-.6Z"/><path class="cls-14" d="M284.26,209c-1.37,1.57-2.87,3.02-4.47,4.35-1.49,1.46-3.11,2.8-4.82,4,1.36-1.58,2.86-3.04,4.47-4.36,1.49-1.46,3.1-2.8,4.82-3.99Z"/><path class="cls-14" d="M306.3,223.94c-2.39-2.17-4.66-4.46-6.81-6.86-2.27-2.29-4.42-4.69-6.44-7.2,2.4,2.15,4.68,4.44,6.82,6.85,2.28,2.28,4.42,4.69,6.43,7.21Z"/><polygon class="cls-8" points="334.88 217.11 294.77 208.63 288.86 183.11 328.96 191.58 334.88 217.11"/><path class="cls-14" d="M334.85,217.12s0-.17-.13-.48l-.33-1.36c-.3-1.21-.71-2.94-1.24-5.14-1.06-4.43-2.57-10.77-4.42-18.5l.16,.15-40.04-8.43,.3-.31h0v.18l.05,.21,.1,.42,.19,.85,.39,1.68c.26,1.12,.52,2.23,.77,3.33,.51,2.21,1,4.38,1.51,6.52,1,4.27,1.93,8.39,2.84,12.31l-.19-.18,28.77,6.21,8.27,1.84,2.22,.5,.57,.13c.07,.01,.14,.03,.21,.06h-.18l-.55-.11-2.17-.43-8.24-1.68-29-6h-.14v-.15c-.91-3.92-1.87-8-2.87-12.31-.49-2.13-1-4.3-1.51-6.51-.26-1.1-.51-2.21-.77-3.33l-.39-1.68-.2-.85-.1-.42-.05-.21v-.16h0l.31-.32,40.09,8.53h.13v.12c1.76,7.82,3.21,14.23,4.22,18.72,.48,2.18,.86,3.9,1.13,5.1,.12,.56,.22,1,.29,1.32,0,.13,0,.25,0,.38Z"/><path class="cls-14" d="M328.96,191.58c-.35,.32-.73,.61-1.12,.88l-3.2,2.32-11.07,7.8-.15,.1-.15-.11c-1.53-1.2-3.16-2.48-4.85-3.79-5.44-4.27-10.36-8.16-13.9-11l-4.18-3.38-1.11-.94c-.14-.1-.27-.21-.38-.34,0,0,.16,.08,.43,.27l1.18,.86,4.28,3.25c3.6,2.76,8.55,6.61,14,10.88l4.83,3.8h-.3l11.18-7.65,3.28-2.19c.39-.29,.8-.54,1.23-.76Z"/><path class="cls-14" d="M306.66,197.99c-1.8,1.96-3.73,3.8-5.77,5.51-1.92,1.84-3.97,3.56-6.12,5.13,1.81-1.96,3.74-3.8,5.77-5.52,1.93-1.83,3.97-3.54,6.12-5.12Z"/><path class="cls-14" d="M334.85,217.12c-.11,.09-4-3.85-8.67-8.82s-8.4-9.08-8.29-9.18,4,3.85,8.67,8.82,8.42,9.07,8.29,9.18Z"/><polygon class="cls-8" points="260.84 201.15 225.12 193.61 219.85 170.87 255.57 178.42 260.84 201.15"/><path class="cls-14" d="M260.85,201.12c-.05-.14-.09-.28-.12-.42-.07-.31-.17-.71-.3-1.21-.26-1.09-.64-2.63-1.11-4.58-.95-4-2.3-9.6-3.94-16.47l.15,.15-35.68-7.47,.3-.31h0v.18l.05,.19,.09,.38,.17,.75,.35,1.5c.23,1,.46,2,.68,3,.46,2,.91,3.9,1.35,5.8,.87,3.8,1.72,7.47,2.52,11l-.18-.18,25.61,5.55,7.38,1.62,2,.44,.51,.12h.19l-.65-.11-1.93-.38-7.34-1.49-25.85-5.33h-.15v-.15c-.81-3.49-1.67-7.16-2.55-11l-1.35-5.8-.69-3-.35-1.5-.17-.75-.09-.38v-.29h0l.31-.32,35.71,7.6h.13v.12c1.56,7,2.84,12.68,3.74,16.68,.43,1.94,.76,3.47,1,4.55l.26,1.17c-.05,.25-.05,.34-.05,.34Z"/><path class="cls-14" d="M255.57,178.42c-.31,.29-.65,.56-1,.8l-2.84,2.06-9.86,7-.15,.1-.15-.11-4.31-3.38c-4.85-3.8-9.23-7.27-12.38-9.8l-3.71-3c-.47-.35-.91-.74-1.32-1.17,.5,.3,.98,.63,1.44,1l3.82,2.88c3.21,2.46,7.62,5.88,12.47,9.68l4.31,3.39h-.3l9.95-6.8,2.94-2c.35-.25,.71-.46,1.09-.65Z"/><path class="cls-14" d="M235.71,184.12c-1.59,1.76-3.3,3.41-5.12,4.93-1.71,1.65-3.54,3.17-5.47,4.55,3.29-3.42,6.83-6.59,10.59-9.48Z"/><path class="cls-14" d="M260.85,201.12c-.11,.1-3.57-3.41-7.75-7.83s-7.46-8.09-7.36-8.19,3.57,3.41,7.74,7.83c4.17,4.42,7.46,8.13,7.37,8.19Z"/><polygon class="cls-8" points="211.35 230.57 185.18 256.03 163.36 247.74 189.53 222.28 211.35 230.57"/><path class="cls-14" d="M211.35,230.57l-.42-.14-1.18-.43-4.42-1.62-15.87-5.91h.22l-26.13,25.45c0,.1-.17-.81-.09-.42h.09l.18,.07,.36,.14,.72,.27,1.44,.55,2.85,1.08,5.56,2.12,10.52,4-.26,.05c7.69-7.39,14.23-13.69,18.88-18.17l5.45-5.23,1.47-1.39,.39-.37,.15-.12s-.15,.16-.46,.47l-1.39,1.39-5.32,5.27-18.83,18.5-.11,.11-.14-.06-10.53-4-5.48-2.06-2.84-1-1.44-.55-.72-.27-.37-.14-.18-.07h-.17c.07,.39-.12-.52-.09-.43l26.2-25.54,.09-.09,.13,.05,15.93,6.18,4.33,1.7,1.12,.44,.36,.17Z"/><path class="cls-14" d="M189.53,222.28c.08,.42,.11,.84,.11,1.27,0,.9,.08,2.08,.13,3.51,.07,3.09,.17,7.27,.29,12.06v.19l-.18,.05-5.21,1.76c-5.86,1.91-11.17,3.61-15,4.82l-4.58,1.4c-.55,.19-1.12,.34-1.69,.45,.52-.26,1.07-.47,1.63-.64l4.53-1.56c3.82-1.3,9.12-3.06,15-5l5.22-1.69-.18,.25c0-4.79-.08-9-.1-12.06v-3.52c-.03-.43-.02-.86,.03-1.29Z"/><path class="cls-14" d="M183.2,241.95c.59,2.3,1.01,4.64,1.25,7,.42,2.34,.66,4.71,.73,7.08-.58-2.3-1-4.64-1.25-7-.41-2.34-.65-4.71-.73-7.08Z"/><path class="cls-14" d="M211.35,230.57c0,.14-4.82,1.07-10.82,2.06s-10.88,1.7-10.91,1.55,4.82-1.06,10.82-2.06,10.88-1.69,10.91-1.55Z"/><polygon class="cls-8" points="154.93 261.8 128.76 287.26 106.95 278.97 133.11 253.51 154.93 261.8"/><path class="cls-14" d="M154.93,261.8l-.42-.14-1.17-.43-4.42-1.62-15.88-5.91h.22l-26.13,25.42c0,.1-.17-.81-.09-.42h.14l.18,.07,.36,.14,.72,.27,1.44,.55,2.85,1.08,5.56,2.12,10.52,4-.25,.06,18.87-18.18,5.46-5.23,1.47-1.39,.38-.36c.04-.05,.09-.09,.15-.13-.14,.17-.3,.32-.46,.47l-1.39,1.39-5.32,5.27-18.83,18.5-.11,.11-.14-.06-10.53-4-5.56-2.11-2.85-1.08-1.44-.55-.72-.27-.37-.14-.18-.07h-.14c.07,.39-.11-.52-.09-.43l26.2-25.42,.1-.09,.12,.05,15.94,6.18,4.32,1.7,1.12,.44c.13,.06,.25,.13,.37,.21Z"/><path class="cls-14" d="M133.11,253.51c.08,.42,.11,.84,.11,1.27,0,.9,.08,2.08,.13,3.51,.08,3.09,.17,7.27,.29,12.06v.19l-.18,.05-5.2,1.71c-5.87,1.91-11.18,3.61-15,4.82l-4.57,1.4c-.56,.19-1.12,.34-1.7,.45,.52-.26,1.07-.47,1.63-.64l4.53-1.56c3.82-1.3,9.12-3.06,15-5l5.21-1.69-.18,.25c0-4.79-.07-9-.1-12.06v-3.52c-.03-.41-.02-.83,.03-1.24Z"/><path class="cls-14" d="M126.79,273.18c.58,2.3,1,4.64,1.24,7,.42,2.34,.66,4.71,.73,7.08-.58-2.3-1-4.64-1.24-7-.42-2.34-.67-4.7-.73-7.08Z"/><path class="cls-14" d="M154.93,261.8c0,.14-4.82,1.07-10.82,2.06s-10.88,1.7-10.91,1.55,4.82-1.06,10.82-2.06,10.89-1.69,10.91-1.55Z"/><polygon class="cls-13" points="278.9 186.96 242.98 179.37 237.69 156.51 273.6 164.1 278.9 186.96"/><path class="cls-14" d="M278.9,186.96c-.05-.14-.09-.28-.12-.43-.07-.31-.17-.71-.3-1.22-.27-1.09-.64-2.64-1.12-4.6-.95-4-2.31-9.65-4-16.56l.16,.15-35.93-7.53c-.07,.06,.58-.6,.31-.31h0v.17l.05,.19,.08,.38,.18,.76,.35,1.5c.23,1,.46,2,.69,3,.46,2,.91,3.92,1.35,5.83l2.54,11-.19-.18,25.75,5.57,7.42,1.63,2,.45,.52,.12,.19,.05-.65-.12-1.94-.38-7.38-1.5-26-5.36h-.15v-.15l-2.57-11c-.44-1.92-.9-3.86-1.35-5.84-.23-1-.47-2-.7-3l-.35-1.51-.17-.75-.09-.38v-.36h0c-.27,.28,.38-.38,.31-.31l35.9,7.64h.13v.12l3.76,16.77,1,4.57c.11,.49,.19,.88,.26,1.18,.03,.14,.05,.27,.06,.41Z"/><path class="cls-14" d="M273.6,164.12c-.31,.29-.65,.56-1,.8l-2.86,2.08-9.91,7-.15,.11-.15-.12-4.34-3.39c-4.88-3.83-9.28-7.31-12.44-9.86l-3.74-3c-.47-.35-.92-.74-1.32-1.17,.51,.3,.99,.63,1.45,1l3.83,2.9c3.23,2.47,7.66,5.91,12.54,9.74l4.33,3.4h-.3l10-6.84,2.95-2c.35-.25,.72-.47,1.11-.65Z"/><path class="cls-14" d="M253.63,169.84c-1.6,1.79-3.32,3.46-5.15,5-1.72,1.66-3.56,3.18-5.5,4.57,1.59-1.79,3.31-3.46,5.15-5,1.72-1.66,3.56-3.18,5.5-4.57Z"/><path class="cls-14" d="M278.9,186.96c-.11,.1-3.59-3.43-7.79-7.88s-7.51-8.14-7.4-8.24,3.59,3.43,7.78,7.88,7.51,8.14,7.41,8.24Z"/><polygon class="cls-6" points="359.76 227.61 329.36 226.61 321.74 208.73 352.13 209.73 359.76 227.61"/><path class="cls-6" d="M359.76,227.61c-.07-.11-.12-.22-.17-.33l-.42-1c-.38-.87-.92-2.07-1.59-3.6l-5.64-12.92,.18,.13-30.39-.95,.25-.36h0v.08l.07,.15,.12,.29,.25,.6,.51,1.17,1,2.34c.66,1.54,1.31,3.07,1.94,4.56l3.67,8.63-.22-.15,21.79,.85,6.3,.27,1.69,.08h.61c-.18,.01-.36,.01-.54,0h-1.64l-6.23-.15-22-.59h-.16l-.06-.14c-1.17-2.75-2.41-5.63-3.69-8.62l-2-4.56-1-2.33-.5-1.18-.26-.59-.12-.3-.07-.15v-.13h0l.25-.37,30.39,1.06h.13l.05,.12c2.28,5.49,4.16,10,5.48,13.16,.63,1.52,1.12,2.72,1.47,3.58l.38,.92,.17,.43Z"/><path class="cls-14" d="M352.13,209.73c-.2,.3-.43,.57-.69,.81l-2,2.12c-1.74,1.79-4.21,4.29-7.06,7.14l-.13,.14-.17-.09-4-2.14c-4.53-2.42-8.62-4.63-11.57-6.25l-3.48-1.95c-.44-.22-.85-.48-1.24-.78,.46,.16,.91,.36,1.34,.6l3.55,1.8c3,1.54,7.11,3.7,11.64,6.12l4,2.15-.3,.05c2.88-2.84,5.39-5.29,7.19-7l2.13-2c.24-.27,.5-.51,.79-.72Z"/><path class="cls-14" d="M336.67,217.3c-1.01,1.7-2.16,3.32-3.45,4.82-1.15,1.61-2.44,3.11-3.86,4.49,1.01-1.7,2.17-3.31,3.45-4.82,1.15-1.61,2.45-3.11,3.86-4.49Z"/><path class="cls-14" d="M359.76,227.61c-2.61-1.61-5.12-3.36-7.52-5.26-2.51-1.76-4.91-3.66-7.2-5.69,2.6,1.62,5.1,3.38,7.51,5.27,2.51,1.76,4.91,3.65,7.21,5.68Z"/><polygon class="cls-6" points="261.59 229.12 231.2 228.12 223.57 210.24 253.96 211.24 261.59 229.12"/><path class="cls-14" d="M261.59,229.12c-.06-.11-.11-.22-.16-.33l-.43-.95-1.59-3.6c-1.36-3.11-3.28-7.53-5.64-12.92l.19,.13-30.39-.95c-.06,.08,.46-.68,.24-.36h0v.08l.07,.15,.12,.29,.26,.6,.5,1.17,1,2.34,1.95,4.56,3.66,8.63-.21-.15,21.79,.85,6.29,.27,1.69,.08h.61c-.18,.01-.36,.01-.54,0h-1.64l-6.22-.14-22-.6h-.15l-.06-.14-3.69-8.62-1.95-4.56c-.33-.77-.66-1.55-1-2.33l-.5-1.18-.25-.59-.13-.3-.06-.15v-.13h0l.25-.37,30.39,1.06h.13l.05,.12,5.48,13.16c.63,1.52,1.12,2.72,1.48,3.58l.37,.92c.04,.12,.07,.25,.09,.38Z"/><path class="cls-14" d="M253.96,211.24s-.22,.31-.68,.81l-2,2.12c-1.74,1.79-4.21,4.29-7.06,7.14l-.13,.14-.17-.09-4-2.14c-4.53-2.42-8.62-4.63-11.57-6.25l-3.48-2c-.44-.22-.85-.48-1.24-.78,.46,.16,.91,.36,1.34,.6l3.56,1.8c3,1.54,7.1,3.7,11.64,6.12l4,2.15h-.3c2.88-2.84,5.39-5.29,7.19-7l2.13-2c.24-.23,.49-.44,.77-.62Z"/><path class="cls-14" d="M238.5,218.81c-2.15,3.32-4.59,6.43-7.3,9.31,1.01-1.7,2.16-3.31,3.45-4.81,1.15-1.61,2.44-3.12,3.85-4.5Z"/><path class="cls-14" d="M261.59,229.12c-2.6-1.61-5.11-3.36-7.51-5.26-2.51-1.76-4.92-3.66-7.21-5.69,2.6,1.62,5.11,3.38,7.52,5.27,2.5,1.76,4.91,3.66,7.2,5.68Z"/><polygon class="cls-13" points="214.3 224.45 175.01 227.06 162.88 205 202.18 202.38 214.3 224.45"/><path class="cls-14" d="M214.3,224.45s-.09-.14-.24-.41l-.66-1.17-2.49-4.42-8.91-16,.19,.11-39.29,2.67c-.05,.08,.4-.73,.21-.38h0l.05,.1,.1,.18,.2,.37,.4,.73,.8,1.45c.53,.97,1.06,1.93,1.59,2.88l3.08,5.63c2,3.69,4,7.26,5.84,10.65l-.23-.13,28.27-1.59,8.14-.48,2.18-.12h.07l-2.12,.16-8.06,.6-28.4,2h-.17l-.07-.13-5.86-10.63-3.07-5.6-1.58-2.88-.8-1.45-.4-.73-.2-.37-.11-.18-.05-.1h0c-.19,.34,.25-.47,.21-.39l39.3-2.56h.13l.06,.12c3.67,6.77,6.67,12.32,8.77,16.21l2.38,4.42c.25,.49,.45,.86,.6,1.15,.05,.09,.1,.19,.14,.29Z"/><path class="cls-14" d="M202.18,202.39c-.24,.39-.51,.76-.8,1.11l-2.36,3-8.2,10.1-.12,.15-.17-.07-5.47-2.25c-6.15-2.53-11.71-4.84-15.72-6.55l-4.74-2-1.28-.58c-.16-.06-.3-.13-.44-.23,.17,.02,.33,.07,.48,.14l1.31,.49,4.81,1.88c4.05,1.62,9.63,3.88,15.78,6.41l5.46,2.26-.29,.07,8.34-10,2.47-2.88c.28-.38,.6-.73,.94-1.05Z"/><path class="cls-14" d="M183.23,214.12c-1.14,2.29-2.44,4.5-3.89,6.61-1.3,2.21-2.74,4.32-4.33,6.33,1.15-2.29,2.45-4.49,3.89-6.61,1.3-2.21,2.74-4.32,4.33-6.33Z"/><path class="cls-14" d="M214.3,224.45c-.07,.12-4.69-2.51-10.32-5.89s-10.12-6.21-10-6.33,4.69,2.51,10.32,5.89,10.08,6.21,10,6.33Z"/><rect class="cls-6" x="198.78" y="357.39" width="27.7" height="39.98" transform="translate(-167.69 584.73) rotate(-89.2)"/><path class="cls-14" d="M232.41,391.48v-7.59c0-4.84,.1-11.73,.17-20.11l.21,.21-40-.5c-.06,.05,.49-.49,.26-.25h0v3.65c0,1.22,0,2.43-.05,3.63,0,2.4-.07,4.77-.11,7.09-.07,4.64-.14,9.09-.2,13.29l-.23-.24,28.76,.52,8.24,.17,2.2,.06h-2.1l-8.19-.05-28.94-.24h-.24v-.24c.05-4.2,.11-8.65,.16-13.29,0-2.32,.07-4.68,.1-7.09v-7.29h0c-.24,.23,.32-.32,.27-.26l40,.6h.21v.21c-.17,8.43-.3,15.36-.39,20.23-.06,2.37-.1,4.24-.13,5.55,0,.6,0,1.08-.05,1.44,.03,.16,.05,.33,.05,.5Z"/><path class="cls-14" d="M232.22,364.88s-.11,.14-.36,.37l-1.12,1-4.16,3.52c-3.53,2.95-8.42,7-13.85,11.46h-.43l-.12-.11-.25-.21-.49-.43-1-.85-1.9-1.66c-1.25-1.08-2.45-2.13-3.6-3.14-2.27-2-4.32-3.8-6.06-5.34l-4.03-3.76-1.09-1c-.24-.23-.37-.36-.36-.38,.16,.08,.3,.18,.43,.3l1.15,.94,4.17,3.51,6.14,5.25,3.61,3.12,1.91,1.65,1,.85,.49,.42,.25,.22,.12,.1,.06,.06h-.31c5.43-4.46,10.36-8.46,13.95-11.35l4.26-3.39,1.18-.9c.13-.1,.27-.18,.41-.25Z"/><path class="cls-14" d="M206.32,375.59c-2.09,2.45-4.3,4.79-6.64,7-2.21,2.34-4.55,4.56-7,6.64,2.09-2.45,4.3-4.79,6.64-7,2.21-2.34,4.55-4.55,7-6.64Z"/><path class="cls-14" d="M231.85,390.12c-2.18-2.35-4.23-4.82-6.15-7.39-2.06-2.46-3.97-5.04-5.74-7.72,2.18,2.35,4.23,4.82,6.15,7.39,2.05,2.47,3.97,5.04,5.74,7.72Z"/><rect class="cls-6" x="195.34" y="386.82" width="13.88" height="39.98" transform="translate(-207.32 603.4) rotate(-89.2)"/><path class="cls-14" d="M222.16,414v-3.74c0-2.41,0-5.85,.05-10.14l.17,.17-40-.47,.26-.25h0v7.09c0,2.32-.06,4.58-.1,6.76l-.24-.25,28.55,.51,8.36,.19,2.26,.06h.59c.07-.01,.14-.01,.21,0h-11.26l-28.72-.28h-.25v-.25c0-2.19,.03-4.45,.09-6.77v-7.1h0l.27-.26,40,.64h.17v.21c-.1,4.34-.18,7.81-.24,10.25,0,1.15-.06,2.06-.08,2.71v.69c-.02,.08-.05,.16-.09,.23Z"/><path class="cls-14" d="M221.78,400.67c-.48,.27-.98,.51-1.49,.71l-4.16,1.74c-3.52,1.48-8.39,3.5-13.79,5.69h-.3l-.12-.05-.25-.11-.5-.22-1-.43-1.92-.88-3.62-1.6-6.12-2.75-4.11-1.89c-.51-.21-1-.47-1.47-.76,.54,.14,1.06,.33,1.56,.57l4.17,1.74,6.19,2.69,3.63,1.58,1.92,.84,1,.43,.5,.21,.25,.11,.12,.06h-.07c5.39-2.19,10.29-4.15,13.84-5.55l4.22-1.62c.49-.22,1-.39,1.52-.51Z"/><path class="cls-14" d="M195.96,405.85c-2.13,1.35-4.36,2.56-6.66,3.6-2.22,1.21-4.52,2.26-6.89,3.14,2.14-1.35,4.36-2.55,6.66-3.6,2.22-1.2,4.52-2.25,6.89-3.14Z"/><path class="cls-14" d="M221.6,413.3c-2.13-1.05-4.18-2.26-6.14-3.61-2.05-1.19-4.01-2.53-5.86-4,2.13,1.05,4.18,2.25,6.14,3.6,2.05,1.2,4,2.54,5.86,4.01Z"/><rect class="cls-8" x="78.41" y="388.66" width="13.86" height="39.98" transform="translate(-324.46 488.27) rotate(-89.2)"/><path class="cls-14" d="M105.22,415.83v-13.85l.17,.17-40-.47c-.24,.23,.31-.31,.26-.25h0v7.09c-.04,2.32-.07,4.58-.1,6.77l-.25-.26,28.55,.51,8.36,.19,2.26,.06h.8c-.25,.02-.49,.02-.74,0h-10.51l-28.73-.29h-.25v-.25c0-2.19,.03-4.44,.09-6.77v-7.1h0l.26-.26,40,.65h.17v.17c-.1,4.34-.18,7.81-.24,10.25,0,1.15-.06,2.06-.08,2.71v.69c0,.17,0,.24-.02,.24Z"/><path class="cls-14" d="M104.85,402.5c-.48,.27-.98,.51-1.5,.72l-4.16,1.77c-3.52,1.49-8.39,3.5-13.79,5.69h-.29l-.13-.06-.25-.11-.49-.22-1-.43-1.92-.84-3.62-1.61-6.12-2.75-4.1-1.89c-.51-.22-1.01-.47-1.48-.76,.54,.14,1.06,.33,1.56,.57l4.17,1.74,6.12,2.6,3.64,1.58,1.91,.84,1,.43,.49,.21,.25,.11,.13,.06h-.08c5.39-2.19,10.29-4.15,13.84-5.55l4.22-1.62c.52-.21,1.05-.37,1.6-.48Z"/><path class="cls-14" d="M79.02,407.68c-2.13,1.36-4.36,2.56-6.66,3.61-2.22,1.2-4.52,2.25-6.89,3.13,2.14-1.35,4.36-2.55,6.66-3.6,2.22-1.2,4.52-2.25,6.89-3.14Z"/><path class="cls-14" d="M104.66,415.12c-2.13-1.05-4.18-2.26-6.14-3.61-2.05-1.19-4-2.53-5.86-4,2.15,1.05,4.22,2.26,6.19,3.61,2.03,1.19,3.97,2.53,5.81,4Z"/><rect class="cls-13" x="227.15" y="368.78" width="33.72" height="23.36" transform="translate(-80.21 65.54) rotate(-13.16)"/><path class="cls-14" d="M263.1,387.98c-.05-.14-.09-.28-.12-.42l-.31-1.21-1.13-4.59c-1-4-2.32-9.62-4-16.48l.26,.16-32.82,7.73c0,.07,.36-.59,.19-.31h0v.16l.05,.19,.08,.38,.18,.76c.12,.51,.24,1,.35,1.51,.24,1,.47,2,.7,3,.46,2,.91,3.94,1.36,5.82,.88,3.81,1.73,7.47,2.54,10.92l-.29-.18,23.64-5.4,6.78-1.53,1.82-.39,.65-.13c-.19,.07-.38,.13-.58,.17l-1.76,.44-6.71,1.63-23.73,5.67-.23,.06-.06-.23c-.81-3.45-1.67-7.11-2.57-10.91-.44-1.91-.9-3.85-1.36-5.83-.23-1-.47-2-.7-3-.12-.5-.24-1-.35-1.51l-.18-.76-.09-.38-.05-.19v-.18h0l.2-.32,32.84-7.63,.21-.05v.21c1.58,6.93,2.87,12.64,3.78,16.65,.44,1.95,.78,3.48,1,4.57l.25,1.18c.06,.14,.11,.28,.16,.42Z"/><path class="cls-14" d="M257.53,366.26c-.27,.49-.58,.97-.92,1.41-.69,.95-1.59,2.21-2.68,3.73-2.28,3.14-5.46,7.46-9,12.21-.65,.15-.18,0-.33,.07h-.06l-.12-.06-.25-.13-.49-.25-1-.49-1.89-1-3.58-1.84-6.05-3.15-4.06-2.16c-.5-.24-.99-.53-1.45-.85,.53,.19,1.05,.41,1.55,.67l4.13,2,6.1,3.05,3.59,1.81,1.9,1,1,.49,.49,.25,.25,.12,.12,.07h.07l-.32,.07c3.54-4.74,6.77-9,9.12-12.11,1.15-1.48,2.09-2.71,2.81-3.63,.32-.46,.68-.89,1.07-1.28Z"/><path class="cls-14" d="M238.51,380.29c-1.19,2.45-2.52,4.82-4,7.1-1.33,2.37-2.8,4.65-4.42,6.83,1.18-2.45,2.51-4.82,4-7.1,1.33-2.37,2.8-4.65,4.42-6.83Z"/><path class="cls-14" d="M262.37,386.96c-2.29-1.44-4.49-3.03-6.57-4.76-2.19-1.59-4.27-3.32-6.24-5.18,2.28,1.45,4.47,3.05,6.56,4.77,2.19,1.59,4.28,3.32,6.25,5.17Z"/><rect class="cls-8" x="66.73" y="365.15" width="42.57" height="29.49" transform="translate(-84.18 30.01) rotate(-13.16)"/><path class="cls-14" d="M112.11,389.41s-.06-.19-.15-.54-.22-.87-.38-1.52c-.33-1.36-.8-3.31-1.41-5.79-1.19-5-2.9-12.14-5-20.82l.25,.16-41.43,9.74c0,.07,.36-.59,.19-.31h0v.21l.06,.24,.11,.48,.23,1c.14,.64,.29,1.27,.44,1.9,.3,1.27,.59,2.53,.88,3.77l1.71,7.35c1.24,4.84,2.24,9.41,3.24,13.77l-.28-.18,29.85-6.86,8.55-1.93,2.29-.51,.6-.13h.21l-.18,.06-.56,.14-2.23,.55-8.48,2-29.95,7.12-.23,.06v-.23c-1-4.36-2.11-9-3.24-13.78-.56-2.4-1.14-4.86-1.72-7.35-.3-1.24-.59-2.5-.89-3.77-.14-.63-.29-1.26-.44-1.9l-.23-1-.07-.42v-.42h0v-.38l41.46-9.64,.2-.05,.05,.2c2,8.76,3.64,16,4.8,21,.55,2.47,1,4.41,1.29,5.77l.33,1.5c.06,.17,.1,.34,.13,.51Z"/><path class="cls-14" d="M105.08,361.98c-.07,.17-.16,.33-.28,.47l-.91,1.29c-.84,1.17-2,2.77-3.4,4.71l-11.37,15.39c-.65,.15-.18,0-.33,.07h-.08l-.16-.08-.31-.16-.62-.32-1.22-.62-2.39-1.22-4.59-2.39-7.65-4-5.13-2.71-1.38-.76c-.17-.08-.32-.18-.47-.29,.18,.04,.36,.11,.52,.2l1.43,.67,5.2,2.56,7.69,3.86,4.54,2.29,2.4,1.22,1.22,.62,.62,.32,.31,.15,.16,.08h.07c-.14,0,.34-.07-.31,.08,4.46-6,8.51-11.33,11.49-15.3l3.53-4.61,1-1.23c.13-.11,.27-.21,.42-.29Z"/><path class="cls-14" d="M81.07,379.69c.12,.07-2.15,4.07-5.08,8.93-1.69,2.98-3.53,5.88-5.52,8.67,1.54-3.06,3.24-6.05,5.08-8.94,1.69-2.98,3.53-5.87,5.52-8.66Z"/><path class="cls-14" d="M111.19,388.12c-.09,.11-3.78-2.61-8.25-6.07s-8-6.37-7.92-6.48c2.85,1.88,5.6,3.91,8.24,6.07,2.75,2.02,5.4,4.18,7.93,6.48Z"/><rect class="cls-8" x="197.25" y="272.17" width="26.75" height="38.62" transform="translate(-115.62 442.78) rotate(-79.03)"/><path class="cls-14" d="M227.43,307.12c0-.17,.03-.34,.07-.5l.24-1.41c.23-1.26,.56-3.05,1-5.33,.86-4.6,2.07-11.16,3.55-19.13l.17,.25-38-7.23,.3-.2h0v.43l-.09,.44-.16,.88c-.12,.58-.23,1.16-.34,1.74l-.66,3.46c-.44,2.28-.87,4.53-1.3,6.73-.85,4.41-1.66,8.64-2.43,12.63l-.19-.28,27.31,5.36,7.81,1.56,2.09,.43,.54,.12c.07,0,.14,.02,.2,.05h-.17l-.53-.09-2-.36-7.99-1.41-27.46-5.14h-.24v-.24c.76-4,1.56-8.23,2.4-12.63,.42-2.21,.85-4.45,1.29-6.74,.22-1.14,.44-2.29,.66-3.45l.33-1.75,.17-.88,.09-.44v-.43h0l.31-.21,38,7.33h.21v.2c-1.58,8-2.88,14.59-3.8,19.21-.45,2.25-.81,4-1.06,5.27-.12,.57-.21,1-.29,1.36s-.03,.45-.03,.4Z"/><path class="cls-14" d="M231.73,281.79c-.13,.11-.26,.21-.41,.29l-1.22,.74-4.56,2.65c-3.86,2.22-9.2,5.26-15.13,8.58-.66-.12-.18,0-.33-.07h0l-.05-.06-.1-.13-.2-.24-.39-.49-.79-1-1.58-1.94-2.9-3.59-4.87-6.12-3.25-4.14-.87-1.15c-.19-.26-.29-.41-.27-.42,.13,.1,.25,.22,.35,.35l.94,1.09,3.38,4c1.43,1.74,3.11,3.79,5,6l2.91,3.58,1.54,1.9c.27,.32,.53,.64,.79,1l.4,.49,.2,.25,.1,.12,.05,.06h0l-.32-.06c5.92-3.33,11.3-6.31,15.2-8.45l4.64-2.51,1.27-.66c.15-.04,.31-.07,.47-.07Z"/><path class="cls-14" d="M205.25,287.61c-2.39,1.99-4.9,3.85-7.5,5.56-2.5,1.85-5.11,3.56-7.8,5.13,2.39-1.99,4.9-3.85,7.5-5.56,2.5-1.85,5.11-3.56,7.8-5.13Z"/><path class="cls-14" d="M227.13,305.74c-1.69-2.6-3.23-5.3-4.62-8.07-1.53-2.7-2.92-5.48-4.16-8.32,1.69,2.6,3.24,5.29,4.62,8.07,1.54,2.69,2.93,5.47,4.16,8.32Z"/><g id="freepik--speech-bubble-2--inject-59"><path class="cls-1" d="M392.08,95h-72.68c-1.24,0-2.24,1-2.24,2.24v54.14c0,1.24,1,2.24,2.24,2.24h51c.69,0,1.35,.32,1.77,.87l5.32,6.89c.27,.37,.79,.46,1.16,.19,.07-.05,.14-.12,.19-.19l4.68-6.76c.41-.62,1.1-.99,1.84-1h6.7c1.24,0,2.24-1,2.24-2.24v-54.14c0-1.23-.99-2.23-2.22-2.24Z"/><path class="cls-14" d="M392.08,95c.24-.02,.48,0,.7,.09,.69,.21,1.24,.74,1.47,1.42,.13,.51,.17,1.03,.13,1.55v6.48c0,7,.05,17.07,.08,29.52v17.69c-.17,1-.94,1.8-1.93,2-.47,.05-.95,.07-1.42,.06h-5.63c-.44-.03-.88,.09-1.24,.34-.37,.26-.67,.61-.89,1l-.83,1.2-3.37,4.88c-.14,.27-.37,.47-.65,.59-.31,.11-.65,.08-.93-.09-.22-.18-.41-.39-.57-.62l-.46-.6-1.84-2.39-1.91-2.46c-.31-.4-.64-.86-.95-1.21-.33-.34-.77-.55-1.24-.59h-50.88c-.65,.05-1.3-.13-1.83-.51-.54-.39-.9-.99-1-1.65-.05-2.42,0-4.7,0-7v-47.15c-.04-.54,.08-1.08,.34-1.55,.28-.46,.71-.81,1.21-1,.49-.16,1.01-.23,1.53-.18h31.74l29.52,.09h0l-29.52,.08h-31.74c-.46-.05-.92,0-1.36,.15-.42,.16-.77,.46-1,.85-.22,.4-.31,.86-.27,1.32v54.14c.07,.52,.34,.99,.76,1.31,.44,.31,.98,.46,1.52,.4h50.92c.59,.06,1.14,.32,1.55,.74,.38,.44,.66,.84,1,1.25,.63,.83,1.27,1.65,1.9,2.46l1.87,2.44,.47,.6c.12,.19,.27,.36,.44,.51,.16,.09,.35,.11,.52,.05,.18-.06,.27-.18,.42-.42,1.15-1.65,2.28-3.27,3.39-4.88l.83-1.19c.25-.45,.59-.84,1-1.14,.44-.29,.96-.43,1.49-.41h5.63c.44,.03,.89,.03,1.33,0,.83-.16,1.48-.83,1.6-1.67v-17.63c0-12.45,.07-22.53,.09-29.52v-6.48c.05-.51,.01-1.02-.1-1.51-.21-.66-.72-1.18-1.38-1.41-.17,0-.34,.02-.51,.05Z"/><rect class="cls-6" x="333.96" y="114.96" width="37.55" height="26.01" transform="translate(-.97 2.71) rotate(-.44)"/><path class="cls-14" d="M371.62,140.82c-.01-.16-.01-.33,0-.49v-1.39c0-1.24-.06-3-.1-5.26-.06-4.54-.15-11-.25-18.87l.21,.2-37.54,.35c-.06,0,.48-.5,.25-.26h0v6.87c0,2.25,0,4.48,.05,6.65,0,4.36,.05,8.54,.08,12.49l-.24-.24,27-.09h9.89l-2,.05-7.68,.12-27.17,.33h-.27v-.16c0-4-.07-8.13-.11-12.48,0-2.18-.02-4.4-.05-6.66v-6.86h0c-.23,.23,.32-.32,.26-.27l37.55-.23h.21v25.77c-.02,.15-.05,.29-.09,.43Z"/><path class="cls-14" d="M370.9,115.85c-.09,.14-.21,.26-.34,.36l-1,.94-3.83,3.39c-3.25,2.85-7.76,6.76-12.77,11h-.41l-.12-.1-.24-.19-.47-.4-.93-.77-1.82-1.52-3.44-2.88-5.8-4.89-3.89-3.33-1-.93c-.24-.21-.35-.33-.34-.35,.14,.07,.28,.16,.4,.27l1.1,.85,4,3.21,5.88,4.81,3.45,2.85,1.83,1.51,.93,.77,.47,.39,.24,.2,.12,.1,.06,.05h0c-.15,0,.34,0-.33,0,5-4.29,9.56-8.15,12.87-10.93l3.94-3.27,1.09-.86c.1-.11,.22-.2,.35-.28Z"/><path class="cls-14" d="M346.85,126.43c-1.9,2.35-3.93,4.6-6.08,6.72-2.03,2.24-4.18,4.37-6.46,6.36,1.9-2.35,3.93-4.6,6.08-6.72,2.03-2.24,4.19-4.36,6.46-6.36Z"/><path class="cls-14" d="M371.07,139.53c-2.11-2.15-4.09-4.43-5.93-6.81-1.98-2.27-3.83-4.65-5.54-7.13,2.11,2.15,4.09,4.42,5.94,6.8,1.98,2.27,3.83,4.65,5.53,7.14Z"/></g><g id="freepik--Number--inject-59"><rect class="cls-12" x="347.72" y="103.8" width="39.95" height="19.44" rx="9.47" ry="9.47"/><path class="cls-1" d="M357.96,114.05h-1.33v1.31h-1v-1.31h-1.32v-.93h1.32v-1.31h1v1.31h1.33v.93Z"/><path class="cls-1" d="M365.33,114.57c-.03,1.02-.88,1.83-1.9,1.8-.03,0-.06,0-.1,0-1.48,0-2.4-.93-2.4-2.66-.16-1.43,.88-2.72,2.31-2.88,.14-.02,.29-.02,.43-.01,.52-.01,1.04,.11,1.49,.37l-.46,.91c-.3-.19-.65-.28-1-.27-.79-.05-1.47,.54-1.52,1.33,0,.08,0,.15,0,.23,.36-.33,.84-.51,1.33-.48,.94-.07,1.75,.64,1.82,1.58,0,.03,0,.06,0,.09Zm-1.2,.07c0-.45-.37-.82-.82-.82-.03,0-.06,0-.1,0-.46-.04-.87,.29-.92,.76,0,.02,0,.04,0,.05,0,.46,.34,.79,.94,.79,.44,.06,.84-.26,.89-.69,0-.03,0-.06,0-.1Z"/><path class="cls-1" d="M367.31,115.58c0,.27-.08,.53-.21,.77l-.43,1.1h-.76l.33-1.22c-.26-.11-.43-.37-.41-.65,0-.41,.33-.74,.74-.74s.74,.33,.74,.74h0Z"/><path class="cls-1" d="M372.16,113.47c.16,1.43-.88,2.72-2.31,2.88-.14,.02-.29,.02-.43,.01-.52,.01-1.04-.11-1.49-.37l.46-.91c.3,.19,.65,.28,1,.27,.79,.05,1.47-.55,1.51-1.34,0-.08,0-.15,0-.23-.36,.34-.85,.51-1.34,.49-.94,.08-1.77-.62-1.84-1.56,0-.04,0-.08,0-.12,.04-1.02,.89-1.82,1.91-1.79,.03,0,.06,0,.09,0,1.54,0,2.45,.93,2.45,2.66Zm-1.39-.94c0-.46-.35-.79-.94-.79-.43-.06-.83,.25-.88,.68,0,.04,0,.07,0,.11,0,.45,.36,.81,.8,.82,.04,0,.07,0,.11,0,.46,.04,.87-.29,.92-.76,0-.02,0-.04,0-.05h0Z"/><path class="cls-1" d="M377.04,113.47c.16,1.43-.88,2.72-2.31,2.88-.14,.02-.29,.02-.43,.01-.52,.01-1.03-.11-1.48-.37l.46-.91c.3,.19,.65,.29,1,.27,.79,.05,1.47-.55,1.51-1.34,0-.08,0-.15,0-.23-.36,.34-.84,.52-1.33,.49-.94,.08-1.76-.61-1.84-1.54,0-.05,0-.09,0-.14,.03-1.02,.88-1.82,1.89-1.79,.04,0,.07,0,.11,0,1.52,0,2.43,.93,2.43,2.66Zm-1.38-.94c0-.46-.35-.79-.94-.79-.44-.06-.84,.26-.89,.69,0,.03,0,.06,0,.1,0,.45,.36,.81,.8,.82,.04,0,.07,0,.11,0,.46,.05,.88-.28,.93-.74,0-.02,0-.04,0-.07Z"/><path class="cls-1" d="M381.93,113.47c.16,1.43-.88,2.72-2.31,2.88-.14,.02-.29,.02-.43,.01-.52,.01-1.04-.11-1.49-.37l.46-.91c.3,.19,.65,.28,1,.27,.79,.05,1.47-.55,1.51-1.34,0-.08,0-.15,0-.23-.36,.34-.85,.52-1.34,.49-.94,.08-1.76-.62-1.83-1.55,0-.04,0-.08,0-.13,.03-1.02,.88-1.82,1.89-1.79,.04,0,.07,0,.11,0,1.53,0,2.44,.93,2.44,2.66Zm-1.39-.94c0-.46-.34-.79-.93-.79-.44-.06-.84,.26-.89,.69,0,.03,0,.06,0,.1,0,.45,.36,.81,.8,.82,.04,0,.07,0,.11,0,.46,.05,.87-.28,.92-.73,0-.02,0-.05,0-.08h0Z"/></g><g id="freepik--speech-bubble-1--inject-59"><polygon class="cls-1" points="111.32 63.01 126.69 47.08 130.52 72.27 151.12 71.57 138.23 88.5 151.2 105.52 129.72 101.29 126.61 122.9 109.25 109.74 87.35 121.21 92.14 99.09 67.29 95.18 86.62 83.77 75.35 64.34 94.66 71.89 97.01 47.93 111.32 63.01"/><path class="cls-14" d="M111.32,63.01l-.95-1-2.77-2.88-10.68-11.16,.22-.07c-.63,6.51-1.4,14.61-2.3,24v.23l-.22-.08-19.32-7.53,.25-.29,11.3,19.43,.11,.19-.19,.12-19.35,11.42-.09-.46,24.85,3.9h.27l-.06,.27c-1.52,7-3.14,14.51-4.78,22.13l-.39-.3,19-9.93,2.93-1.53,.15-.08,.14,.1,17.36,13.16-.42,.17c1.06-7.37,2.1-14.58,3.11-21.61v-.27h.27l21.47,4.25-.24,.39-13-17-.11-.14,.11-.14,12.91-16.92,.17,.34-20.6,.67h-.16v-.15c-1.49-9.92-2.75-18.36-3.77-25.2l.22,.07-11.52,11.82-2.95,3-1,1s.34-.38,1-1.07l2.94-3.08,11.35-11.86,.18-.19v.25c1.05,6.84,2.35,15.27,3.87,25.18l-.18-.15,20.6-.73h.44l-.27,.35-12.87,16.94v-.28l13,17,.4,.52-.64-.13-21.48-4.22,.3-.22c-1.01,7.03-2.04,14.24-3.1,21.62l-.06,.44-.36-.27-17.37-13.15h.29l-2.93,1.53-19,9.93-.5,.27,.12-.56,4.8-22.12,.21,.31-24.77-3.82-.68-.11,.59-.35,19.33-11.39-.08,.32-11.24-19.45-.3-.51,.55,.22,19.3,7.58-.24,.15c.94-9.36,1.75-17.46,2.4-24v-.28l.18,.2,10.53,11.2,2.75,2.94,.97,1.07Z"/><path class="cls-1" d="M152.56,89.58c0,2.53,2.06,4.59,4.59,4.59,2.53,0,4.59-2.06,4.59-4.59,0-2.53-2.06-4.59-4.59-4.59h0c-2.53,0-4.58,2.04-4.59,4.57,0,0,0,.01,0,.02Z"/><path class="cls-14" d="M152.56,89.58s0-.41,.2-1.1c.27-.98,.86-1.84,1.68-2.45,.56-.42,1.2-.7,1.89-.82,.78-.14,1.58-.07,2.33,.2,2.3,.85,3.48,3.4,2.63,5.7-.14,.39-.34,.76-.58,1.09-.51,.71-1.22,1.25-2.05,1.55-.75,.28-1.56,.35-2.34,.21-1.71-.32-3.1-1.59-3.56-3.27-.18-.7-.17-1.11-.2-1.11-.02,.1-.02,.2,0,.3,0,.28,.03,.57,.1,.84,.42,1.78,1.84,3.15,3.63,3.5,1.79,.36,3.62-.36,4.7-1.83,1.24-1.67,1.24-3.95,0-5.62-.55-.76-1.33-1.33-2.21-1.64-.79-.28-1.65-.35-2.48-.19-1.8,.35-3.23,1.72-3.64,3.51-.07,.27-.1,.56-.1,.84-.01,.1-.01,.19,0,.29Z"/><path class="cls-12" d="M109.04,72.89l.93,14.68c.08,1.2,1.04,2.16,2.24,2.23h0c1.27,.08,2.37-.86,2.51-2.12l1.63-14.75c.12-1.03-.62-1.95-1.65-2.07-.08,0-.15-.01-.23-.01l-3.59,.05c-1.04,.02-1.86,.88-1.84,1.92,0,.02,0,.05,0,.07Z"/><path class="cls-12" d="M116.1,98.06c-.63,1.88-2.65,2.89-4.53,2.26-1.88-.63-2.89-2.65-2.26-4.53,.62-1.87,2.65-2.89,4.52-2.27,1.88,.62,2.89,2.65,2.27,4.52h0Z"/></g></g></g></svg>