<?xml version="1.0" encoding="utf-8"?>
<!-- Generator: Adobe Illustrator 26.2.1, SVG Export Plug-In . SVG Version: 6.00 Build 0)  -->
<svg version="1.1" id="Layer_1" xmlns="http://www.w3.org/2000/svg" xmlns:xlink="http://www.w3.org/1999/xlink" x="0px" y="0px"
	 viewBox="0 0 500 500" style="enable-background:new 0 0 500 500;" xml:space="preserve">
<style type="text/css">
	.st0{fill:#D94F04;}
	.st1{opacity:0.7;fill:#FFFFFF;enable-background:new    ;}
	.st2{opacity:0.5;fill:#FFFFFF;enable-background:new    ;}
	.st3{fill:none;stroke:#263238;stroke-linecap:round;stroke-linejoin:round;}
	.st4{fill:#007172;}
	.st5{fill:none;stroke:#FFFFFF;stroke-linecap:round;stroke-linejoin:round;}
	.st6{fill:#FFFFFF;}
	.st7{clip-path:url(#SVGID_00000072976381878102889920000000641187753556029372_);}
	.st8{fill:#263238;}
	.st9{fill:#007172;stroke:#007172;stroke-linecap:round;stroke-linejoin:round;}
	.st10{fill:#FFFFFF;stroke:#263238;stroke-linecap:round;stroke-linejoin:round;}
	.st11{clip-path:url(#SVGID_00000114757131594632730360000000220895905278691509_);}
	.st12{fill:#263238;stroke:#263238;stroke-linecap:round;stroke-linejoin:round;}
	.st13{fill:#595959;stroke:#263238;stroke-linecap:round;stroke-linejoin:round;}
	.st14{fill:#919191;stroke:#263238;stroke-linecap:round;stroke-linejoin:round;}
	.st15{fill:none;stroke:#5C5C5C;stroke-linecap:round;stroke-linejoin:round;}
	.st16{fill:#424242;stroke:#263238;stroke-linecap:round;stroke-linejoin:round;}
	.st17{fill:#BDBDBD;}
	.st18{fill:none;stroke:#263238;stroke-miterlimit:10;}
	.st19{fill:#D94F04;stroke:#263238;stroke-miterlimit:10;}
	.st20{fill:#8F8F8F;}
	.st21{fill:#D94F04;stroke:#263238;stroke-linecap:round;stroke-linejoin:round;}
	.st22{fill:none;stroke:#000000;stroke-miterlimit:10;}
	.st23{clip-path:url(#SVGID_00000083805021028440735840000015312519594207925149_);}
	.st24{fill:#263238;stroke:#263238;stroke-width:1.0954;stroke-linecap:round;stroke-linejoin:round;}
	.st25{fill:#FFFFFF;stroke:#263238;stroke-width:1.0954;stroke-linecap:round;stroke-linejoin:round;}
</style>
<g id="freepik--background-simple--inject-107">
	<path class="st0" d="M255.7,392.2c0,0,73.9,17.9,127.1-30.3s62.2-91.8,71.3-159.7s-26.6-132-85.2-156.3s-79.4,23.8-148.5,34
		S129.3,81.4,84,130.8s-26,110.4,41.7,179.8S255.7,392.2,255.7,392.2z"/>
	<path class="st1" d="M255.7,392.2c0,0,73.9,17.9,127.1-30.3s62.2-91.8,71.3-159.7s-26.6-132-85.2-156.3s-79.4,23.8-148.5,34
		S129.3,81.4,84,130.8s-26,110.4,41.7,179.8S255.7,392.2,255.7,392.2z"/>
</g>
<g id="freepik--Floor--inject-107">
	<ellipse class="st0" cx="256.3" cy="412.6" rx="211.3" ry="16.8"/>
	<ellipse class="st2" cx="256.3" cy="412.6" rx="211.3" ry="16.8"/>
	<path class="st0" d="M459.7,431.4c0,7.4-17.6,13.5-39.3,13.5s-39.3-6-39.3-13.5s17.6-13.4,39.3-13.4S459.7,424,459.7,431.4z"/>
	<path class="st2" d="M459.7,431.4c0,7.4-17.6,13.5-39.3,13.5s-39.3-6-39.3-13.5s17.6-13.4,39.3-13.4S459.7,424,459.7,431.4z"/>
</g>
<g id="freepik--Plants--inject-107">
	<path class="st0" d="M99.6,202.1c0,0,0-5.6-7.9-13.5s-12.9-12.4-12.9-12.4s-3.9,12.9,3.4,20.8c5.4,5.5,11.2,10.6,17.4,15.2
		L99.6,202.1z"/>
	<path class="st0" d="M88.2,237.2c0,0,0-5.6-7.9-13.5s-12.9-12.4-12.9-12.4s-3.9,12.9,3.4,20.8c5.4,5.5,11.2,10.6,17.4,15.2
		L88.2,237.2z"/>
	<path class="st0" d="M99.1,211.7c0,0,0.6-5.6,9.2-12.6s14.2-10.9,14.2-10.9s2.5,13.3-5.6,20.3c-5.9,4.9-12.3,9.4-18.9,13.2
		L99.1,211.7z"/>
	<path class="st0" d="M85.3,253.1c0,0,1.2-5.5,10.5-11.5s15.2-9.4,15.2-9.4s1.1,13.5-7.7,19.6c-6.4,4.3-13.2,8-20.2,11.2L85.3,253.1
		z"/>
	<path class="st0" d="M87.9,298.3c0,0,0-5.6,7.9-13.5s12.9-12.4,12.9-12.4s3.9,12.9-3.4,20.8c-5.4,5.5-11.2,10.6-17.4,15.2V298.3z"
		/>
	<path class="st0" d="M87.8,309.3c0,0,0.8-5.6-5.9-14.5s-11-14.1-11-14.1s-5.7,12.2,0.4,21c4.5,6.2,9.6,12.1,15.1,17.5L87.8,309.3z"
		/>
	<path class="st0" d="M80.1,342c0,0,0-5.6,7.9-13.5s12.9-12.4,12.9-12.4s3.9,12.9-3.4,20.8c-5.4,5.5-11.2,10.6-17.4,15.2V342z"/>
	<path class="st0" d="M85.3,371.6c0,0-1.4-5.4,4.2-15s9.4-15.2,9.4-15.2s7.1,11.5,2,21c-3.8,6.7-8.1,13.1-13,19.1L85.3,371.6z"/>
	<path class="st3" d="M100.3,200.7c-0.4,5.8-1.1,11.7-2.2,17.4c-3.1,16.1-10.9,26.4-14,40.9c-3.1,14.5,5.8,33.2,3.4,51.8
		s-9.6,29-7.6,41.4s13,46.1,13,46.1"/>
	<line class="st3" x1="99.1" y1="215.4" x2="107.5" y2="208.9"/>
	<line class="st3" x1="99.4" y1="207.9" x2="95.9" y2="201.6"/>
	<path class="st3" d="M84.7,258.4c0,0,7.1-5.3,14.4-10.6"/>
	<path class="st3" d="M88.2,247.3c0,0-5.9-11.6-12.6-19.3"/>
	<path class="st3" d="M88.2,306.2c4-7.4,9.2-14.3,15.2-20.2"/>
	<path class="st3" d="M86.8,314.1c-2.2-5.1-4.7-9.9-7.7-14.6c-4.1-6.1-4.7-6.9-4.7-6.9"/>
	<path class="st3" d="M80.1,352.3c1.8-4.5,3.9-8.8,6.4-12.9c2.5-3.8,5.2-7.5,8.3-10.8"/>
	<path class="st3" d="M87.9,381.4c0,0-0.9-6.7,2.1-12.4s6.3-13.2,7.7-16.2"/>
	<path class="st0" d="M48.1,277.1c0,0-0.6-3.5,3.5-9.3s6.8-9.1,6.8-9.1s3.9,7.7,0.1,13.4c-2.8,4.1-5.9,7.9-9.3,11.4L48.1,277.1z"/>
	<path class="st0" d="M59.1,297.9c0,0-0.6-3.5,3.5-9.3s6.8-9.2,6.8-9.2s3.9,7.7,0.1,13.4c-2.8,4.1-5.9,7.9-9.3,11.4L59.1,297.9z"/>
	<path class="st0" d="M49.5,283.1c0,0-1-3.4-7.2-6.9s-10.1-5.3-10.1-5.3s-0.1,8.6,5.7,12.1c4.2,2.5,8.7,4.5,13.3,6.2L49.5,283.1z"/>
	<path class="st0" d="M62.6,307.6c0,0-1.3-3.3-7.8-6.1s-10.6-4.2-10.6-4.2s0.8,8.6,6.9,11.5c4.5,2,9.1,3.6,13.9,4.8L62.6,307.6z"/>
	<path class="st0" d="M65.9,336.2c0,0-0.6-3.5-6.4-7.6s-9.4-6.4-9.4-6.4s-1.1,8.5,4.4,12.7c4,2.9,8.2,5.4,12.6,7.6L65.9,336.2z"/>
	<path class="st0" d="M67.2,343.1c0,0-1.1-3.4,2.1-9.7s5.4-10,5.4-10s4.9,7,2,13.2c-2.2,4.4-4.7,8.6-7.6,12.6L67.2,343.1z"/>
	<path class="st0" d="M77.1,371.5c0,0,0.4-3.5,6-8s9.1-6.9,9.1-6.9s1.6,8.5-3.6,12.9c-3.8,3.1-7.8,5.9-12.1,8.3L77.1,371.5z"/>
	<path class="st0" d="M75.6,362.7c0,0-0.6-3.5-6.4-7.6s-9.4-6.3-9.4-6.3s-1.1,8.5,4.4,12.7c4,2.9,8.2,5.4,12.6,7.6L75.6,362.7z"/>
	<path class="st0" d="M75.5,381.9c0,0,0.3-3.6-4.3-9s-7.5-8.5-7.5-8.5s-3.2,8,1,13.4c3.1,3.8,6.6,7.4,10.3,10.6L75.5,381.9z"/>
	<path class="st3" d="M47.5,276.3c0.9,3.6,2,7.2,3.2,10.7c3.7,9.7,9.7,15.4,13.2,24.1c3.5,8.8,0,21.5,3.5,32.9s9.2,17.1,9.2,25.1
		s-3.1,30.4-3.1,30.4"/>
	<line class="st3" x1="49.9" y1="285.4" x2="43.9" y2="282.2"/>
	<line class="st3" x1="48.9" y1="280.8" x2="50.4" y2="276.4"/>
	<path class="st3" d="M63.6,310.8c0,0-5-2.6-10.2-5.1"/>
	<path class="st3" d="M60.2,304.2c1.5-4.7,3.4-9.2,5.8-13.5"/>
	<path class="st3" d="M66.6,341.2c-3.4-4.2-7.3-8-11.7-11.1"/>
	<path class="st3" d="M68.3,346c0.8-3.4,1.9-6.8,3.2-10c1.9-4.3,2.2-4.8,2.2-4.8"/>
	<path class="st3" d="M76.4,375.3c0,0,4-4.9,6.5-6.7c1.5-1.1,2.9-2.3,4.2-3.7"/>
	<path class="st3" d="M76.7,369.2c-1.6-2.6-3.4-5.1-5.4-7.4c-2-2.1-4.1-4.1-6.4-5.9"/>
	<path class="st3" d="M75,388.3c-0.2-2.7-1.1-5.3-2.7-7.6c-2.5-3.3-5.4-7.6-6.6-9.3"/>
	<path class="st4" d="M57.5,395.6H109l0,0v18c0,1.9-1.6,3.5-3.5,3.5H61c-1.9,0-3.5-1.6-3.5-3.5L57.5,395.6L57.5,395.6z"/>
	<path class="st4" d="M108.5,402.3h-51c-2.2,0-4-1.8-4-4l0,0c0-2.2,1.8-4,4-4h51c2.2,0,4,1.8,4,4l0,0
		C112.5,400.5,110.7,402.3,108.5,402.3z"/>
	<line class="st5" x1="59.5" y1="402.5" x2="96.6" y2="402.5"/>
	<line class="st5" x1="100.1" y1="402.5" x2="106.2" y2="402.5"/>
</g>
<g id="freepik--Device--inject-107">
	<path class="st6" d="M307.3,378.8V351h-83.5v27.8c0,9.1-3.1,17.9-8.9,25l-3.7,4.5h108.6l-3.7-4.5
		C310.5,396.7,307.3,387.9,307.3,378.8z"/>
	<g>
		<defs>
			<path id="SVGID_1_" d="M307.3,378.8V351h-83.5v27.8c0,9.1-3.1,17.9-8.9,25l-3.7,4.5h108.6l-3.7-4.5
				C310.5,396.7,307.3,387.9,307.3,378.8z"/>
		</defs>
		<clipPath id="SVGID_00000127036605613096083090000006678279451801919892_">
			<use xlink:href="#SVGID_1_"  style="overflow:visible;"/>
		</clipPath>
		<g style="clip-path:url(#SVGID_00000127036605613096083090000006678279451801919892_);">
			<path class="st8" d="M218.7,368.9h93.8c-3.4-5.9-5.1-12.6-5.1-19.4v-27.8h-83.5v27.8C223.8,356.3,222,363,218.7,368.9z"/>
		</g>
	</g>
	<path class="st3" d="M307.3,378.8V351h-83.5v27.8c0,9.1-3.1,17.9-8.9,25l-3.7,4.5h108.6l-3.7-4.5
		C310.5,396.7,307.3,387.9,307.3,378.8z"/>
	<path class="st9" d="M106.2,113.3h318.7c4.7,0,8.5,3.8,8.5,8.5v229.5c0,4.7-3.8,8.5-8.5,8.5H106.2c-4.7,0-8.5-3.8-8.5-8.5V121.8
		C97.7,117.1,101.5,113.3,106.2,113.3z"/>
	<path class="st10" d="M97.7,321.4h335.7l0,0v29.8c0,4.7-3.8,8.5-8.5,8.5c0,0,0,0,0,0H106.2c-4.7,0-8.5-3.8-8.5-8.5l0,0L97.7,321.4
		C97.7,321.4,97.7,321.4,97.7,321.4z"/>
	<rect x="211.3" y="408.2" class="st10" width="108.6" height="5"/>
	<g>
		<defs>
			<rect id="SVGID_00000148618853755563268570000002236687713251297421_" x="114.6" y="128.6" width="301.9" height="174.1"/>
		</defs>
		<clipPath id="SVGID_00000132804351338203271670000006243031707486184589_">
			<use xlink:href="#SVGID_00000148618853755563268570000002236687713251297421_"  style="overflow:visible;"/>
		</clipPath>
		<g style="clip-path:url(#SVGID_00000132804351338203271670000006243031707486184589_);">
			<path class="st12" d="M110,172.4c0,0,76.3-58.4,152.1-53.6s147.6,50.5,160.3,58.9v155.8H107.7L110,172.4z"/>
			<path class="st13" d="M312.1,162.1c0,30.7-21.5,55.6-47.9,55.6s-47.9-24.9-47.9-55.6s21.5-47,47.9-47S312.1,131.4,312.1,162.1z"
				/>
			<path class="st14" d="M223,156.6c2.1,8.8,5.1,17.4,8.9,25.6c6.2,13.2,18.9,26.9,32,26.9s25.6-14.8,30.4-22.1s6.5-26.7,6.5-26.7
				L223,156.6z"/>
			<path class="st14" d="M211.6,111.6c-2,2.3-2.5,5.3-2.3,8.5c0.4,7,2.8,16,8.7,19.2s2.1-22.3,2.8-27.2c0.6-4.4-4.5-3.8-7-2.3
				C213,110.2,212.2,110.8,211.6,111.6z"/>
			<path class="st14" d="M318.2,111.5c1.6,2.6,2.4,5.5,2.2,8.5c-0.4,7-2.8,16-8.7,19.2s-2.1-22.3-2.8-27.2c-0.4-2.7,1.9-3.7,4.2-3.5
				C315.1,108.6,317,109.7,318.2,111.5z"/>
			<path class="st13" d="M214.2,89.7c0,0-0.7-12.9,2.8-21.6s17.4-22.3,29.3-27.2s26.5-4.9,38.7,3.8s18.5,13.6,21.6,20.9
				s5.9,22,5.9,31s-8,18.1-22.6,24.1s-51.6,3.5-64.5-4.2S214.2,89.7,214.2,89.7z"/>
			<path class="st14" d="M216.3,108.9c0,0,1.8,36.3,4.2,46s18.1,29.3,21.3,34.9s14.6,13.9,27.9,11.1s18.8-19.2,26.8-26.5
				s10.1-21.6,12.6-35.2s4.5-33.1,4.5-33.1s-19.2,13.9-49.9,10.8s-47.1-14.6-47.1-14.6L216.3,108.9z"/>
			<path class="st12" d="M263.7,116.9c-30.7-3.1-47.1-14.6-47.1-14.6l-0.4,6.6c0,0,0.9,19,2.3,33.2c3.3,6.3,8.7,13.8,16.5,17.8
				c15,7.7,33.8,8.7,51.9,2.4c12.3-4.2,18-11.4,20.8-16.7c0.4-2.1,0.8-4.2,1.1-6.3c2.4-13.6,4.5-33.1,4.5-33.1
				S294.4,120,263.7,116.9z"/>
			<path class="st3" d="M237.5,168.1c0,0,10.5,14.6,26.8,15s24.8-15,24.8-15"/>
			<line class="st3" x1="240.7" y1="166.7" x2="235.1" y2="169.5"/>
			<line class="st3" x1="287.4" y1="166.7" x2="290.9" y2="169.2"/>
			
				<ellipse transform="matrix(0.4594 -0.8882 0.8882 0.4594 2.1298 296.834)" class="st14" cx="244.9" cy="146.7" rx="12" ry="15.2"/>
			<path class="st14" d="M273.8,153.6c3.1,5.9,11.6,7.6,19,3.7s11-11.8,7.9-17.6s-11.6-7.6-19-3.7S270.8,147.7,273.8,153.6z"/>
			<path class="st3" d="M268.8,163.1c0,0.6,0,1.3,0.1,1.9c0.7,8.7,2.8,13.6-0.4,13.6s-10.5-1-13.6-10.8"/>
			<path class="st15" d="M271.7,144.8c0,0-3,9.9-2.9,18.3"/>
			<line class="st3" x1="290.9" y1="141.3" x2="280.1" y2="147.6"/>
			<path class="st8" d="M287.3,143.4l-4,2.2c0,0.2,0,0.4,0,0.6c0,2.2,1,4,2.3,4s2.3-2.2,2.3-4.5C288,144.9,287.7,144.1,287.3,143.4z
				"/>
			<line class="st3" x1="240.8" y1="141.3" x2="251.6" y2="147.6"/>
			<path class="st8" d="M244.4,143.4l4,2.2c0,0.2,0,0.4,0,0.6c0,2.2-1,4-2.3,4s-2.3-2.2-2.3-4.5
				C243.7,144.9,243.9,144.1,244.4,143.4z"/>
			<path class="st13" d="M212.3,90.7c0,0-0.9,18.5-0.5,20.9s6.3,11.5,29.3,18.8s56.1,1,65.5-4.9s8-10.1,8.4-16.4s0.7-12.9,0.4-14.6
				s-3.1-2.4-4.2,1s-19.9,15-47.8,13.9s-43.9-15.3-46-20.2S211.5,87.9,212.3,90.7z"/>
			<path class="st3" d="M218.7,92.6c-1.3,0-2.3,1.1-2.2,2.4c0,0.1,0,0.1,0,0.2v22.4"/>
			<path class="st3" d="M223.4,115.6v6.4"/>
			<path class="st3" d="M225,98c0,0-1.7,2-1.7,3.5v6.2"/>
			<path class="st3" d="M232.6,102c0,0-2,1.8-2,3.5v20.9"/>
			<path class="st3" d="M240.5,121.8c0,4.2-0.1,8-0.1,8"/>
			<path class="st3" d="M242.8,106.7c0,0-2.6,3.7-2.4,5.2c0.1,0.5,0.1,3,0.1,6"/>
			<path class="st3" d="M253.2,108.9c-0.6,2.3-0.9,4.6-1.1,7c0,2.4-0.2,16.5-0.2,16.5"/>
			<line class="st3" x1="265.8" y1="110.2" x2="265.8" y2="133.3"/>
			<path class="st3" d="M277.5,109.6c0,0,2.2,2.2,2,6.9s-0.5,16.1-0.5,16.1"/>
			<path class="st3" d="M292.7,126c0,2.4,0,4.2,0,4.2"/>
			<path class="st3" d="M290.1,107.2c0,0,2.2,3,2.4,5.8c0.1,0.9,0.1,3.1,0.1,5.5"/>
			<path class="st3" d="M301.6,102.6c0,0,3,1.7,3.7,4.3s-0.7,19.6-0.7,19.6"/>
			<path class="st3" d="M310.6,96.7c0,0,3.2-1.1,2.8,5.4s-1.5,19.3-1.5,19.3"/>
			<path class="st16" d="M360.9,247.2c0,0,0.9,5.3,16.4,12c15.5,6.7,36.7-1.8,46-7.1s10.7-53.6,5.8-65.1s-16.8-7.1-28.8-0.4
				S383,199,373.7,204.7S346.7,227.3,360.9,247.2z"/>
			<ellipse class="st16" cx="376.6" cy="226.2" rx="25.9" ry="28.1"/>
			<path class="st13" d="M380.7,207.9c-4.8-7.8-27.1-17-34.5-18c-0.5,0-1,0-1.4,0l2,5.6c0,0,3.5,4.9,2.2,10.6
				c-1.3,5.4-0.8,10.6-5.8,8c0,0.6-5.8-2.8-5.8-2.2c0.5,4.8,2.1,9.4,4.7,13.4c0,0,1.7,17.7,21.4,23.4s23.3-7.3,23.9-14.6
				C388,224.9,385.7,215.7,380.7,207.9z"/>
			<path class="st13" d="M364.4,233.1c0,0,3.1,15-6.6,12.4s-15-15.4-17.3-15.4s-12.4,2.7-17.3-5.8s-8-15.9-4.9-23.9s9.7-5.8,13.7,0
				s11.5,11.5,11.5,11.5s1.8-1.8,9.7-1.8s8-1.3,8-1.3"/>
			<path class="st16" d="M166.6,247.2c0,0-0.9,5.3-16.4,12c-15.5,6.7-36.7-1.8-46-7.1s-10.7-53.6-5.8-65.1s16.8-7.1,28.8-0.4
				s17.3,12.4,26.6,18.2S180.8,227.3,166.6,247.2z"/>
			<ellipse class="st16" cx="150.9" cy="226.2" rx="25.9" ry="28.1"/>
			<path class="st13" d="M146.8,207.9c4.8-7.8,27.1-17,34.6-18c0.5,0,1,0,1.4,0l-2,5.6c0,0-3.5,4.9-2.2,10.6c1.2,5.4,0.8,10.6,5.8,8
				c0,0.6,5.8-2.8,5.8-2.2c-0.5,4.8-2.1,9.4-4.7,13.4c0,0-1.7,17.7-21.4,23.4s-23.3-7.3-23.9-14.6
				C139.5,224.9,141.8,215.7,146.8,207.9z"/>
			<path class="st13" d="M163.1,233.1c0,0-3.1,15,6.6,12.4S184.8,230,187,230s12.4,2.7,17.3-5.8s8-15.9,4.9-23.9s-9.7-5.8-13.7,0
				s-11.5,11.5-11.5,11.5s-1.8-1.8-9.7-1.8s-8-1.3-8-1.3"/>
			<rect x="187.8" y="193.7" class="st10" width="150.5" height="92.1"/>
			
				<ellipse transform="matrix(0.3154 -0.9489 0.9489 0.3154 -30.3727 402.4624)" class="st17" cx="263.8" cy="222.3" rx="17.3" ry="17.3"/>
			
				<ellipse transform="matrix(0.1633 -0.9866 0.9866 0.1633 5.3231 442.8851)" class="st8" cx="263.8" cy="218.3" rx="7.5" ry="7.5"/>
			<path class="st8" d="M251.4,234.3c6.6,6.8,17.6,7,24.4,0.4c0.1-0.1,0.3-0.3,0.4-0.4v-0.5c0-3.7-3-6.6-6.6-6.6l0,0H258
				c-3.7,0-6.6,3-6.6,6.6V234.3z"/>
			<rect x="211.4" y="244.1" class="st18" width="104.1" height="12.7"/>
			<rect x="211.4" y="263.1" class="st19" width="104.1" height="12.7"/>
			<path class="st20" d="M215.5,252.5c-0.1-0.1-0.1-0.2-0.1-0.2v-4.4c0-0.1,0-0.2,0.1-0.2c0.1-0.1,0.1-0.1,0.2-0.1h2.6
				c0.1,0,0.1,0,0.2,0.1c0,0.1,0.1,0.1,0.1,0.2c0,0.1,0,0.2-0.1,0.2c-0.1,0.1-0.1,0.1-0.2,0.1h-2.2v1.6h2.1c0.1,0,0.2,0,0.2,0.1
				c0,0.1,0.1,0.1,0.1,0.2c0,0.1-0.1,0.3-0.2,0.3c0,0,0,0-0.1,0h-2.1v1.8h2.3c0.1,0,0.2,0,0.2,0.1c0,0.1,0.1,0.1,0.1,0.2
				c0,0.1-0.1,0.3-0.2,0.3c0,0,0,0,0,0h-2.7C215.7,252.6,215.6,252.5,215.5,252.5z"/>
			<path class="st20" d="M219.8,252.5c-0.1-0.1-0.1-0.1-0.1-0.2v-2.9c0-0.1,0-0.2,0.1-0.2c0.1-0.1,0.1-0.1,0.2-0.1
				c0.1,0,0.2,0,0.2,0.1c0.1,0.1,0.1,0.1,0.1,0.2v0.3c0.1-0.2,0.2-0.4,0.4-0.5c0.2-0.1,0.5-0.2,0.7-0.2c0.3,0,0.7,0.1,0.9,0.3
				c0.2,0.3,0.4,0.6,0.3,1v1.9c0,0.1,0,0.2-0.1,0.2c-0.1,0.1-0.1,0.1-0.2,0.1c-0.1,0-0.2,0-0.2-0.1c-0.1-0.1-0.1-0.1-0.1-0.2v-1.9
				c0-0.2-0.1-0.5-0.2-0.7c-0.2-0.2-0.4-0.3-0.6-0.2c-0.3,0-0.5,0.1-0.7,0.3c-0.2,0.2-0.3,0.5-0.3,0.8v1.8c0,0.1,0,0.2-0.1,0.2
				c-0.1,0.1-0.1,0.1-0.2,0.1C220,252.5,219.9,252.5,219.8,252.5z"/>
			<path class="st20" d="M224.4,252.4c-0.2-0.2-0.3-0.5-0.2-0.8v-2h-0.4c-0.1,0-0.1,0-0.2-0.1c-0.1-0.1-0.1-0.2,0-0.3
				c0,0,0.1-0.1,0.2-0.1h0.4l0.1-1c0-0.1,0-0.1,0.1-0.2c0.1-0.1,0.1-0.1,0.2-0.1c0.1,0,0.1,0,0.2,0.1c0.1,0,0.1,0.1,0.1,0.2v1h0.7
				c0.1,0,0.1,0,0.2,0.1c0,0,0.1,0.1,0.1,0.2c0,0.1-0.1,0.2-0.2,0.2h-0.7v1.9c0,0.2,0,0.4,0.1,0.5c0.1,0.1,0.2,0.2,0.3,0.2h0.3
				c0.1,0,0.1,0,0.2,0.1c0.1,0.1,0.1,0.2,0,0.3c0,0-0.1,0.1-0.1,0.1h-0.2H225C224.8,252.6,224.5,252.5,224.4,252.4z"/>
			<path class="st20" d="M227.1,252.4c-0.3-0.2-0.5-0.4-0.6-0.6c-0.3-0.6-0.3-1.3,0-1.9c0.1-0.3,0.3-0.5,0.6-0.7
				c0.3-0.2,0.6-0.2,0.9-0.2c0.3,0,0.5,0,0.7,0.1c0.2,0.1,0.4,0.2,0.5,0.4c0.1,0.2,0.2,0.3,0.3,0.5c0.1,0.2,0.1,0.4,0.1,0.7
				c0,0.1,0,0.1-0.1,0.2c0,0-0.1,0.1-0.2,0.1H227c0,0.3,0.1,0.7,0.3,0.9c0.2,0.2,0.5,0.3,0.8,0.3c0.2,0,0.4,0,0.6-0.1
				c0.2-0.1,0.4-0.2,0.5-0.3c0,0,0.1,0,0.1-0.1c0.1,0,0.1,0,0.1,0.1c0,0,0.1,0.1,0.1,0.1c0,0.1,0,0.2-0.1,0.2
				C228.8,252.7,227.9,252.8,227.1,252.4L227.1,252.4z M229,250.5c0-0.3-0.1-0.6-0.3-0.8c-0.2-0.2-0.4-0.3-0.7-0.3
				c-0.2,0-0.3,0-0.4,0.1c-0.1,0.1-0.2,0.1-0.3,0.3c-0.1,0.1-0.2,0.2-0.2,0.4c0,0.1-0.1,0.3-0.1,0.4H229z"/>
			<path class="st20" d="M230.6,252.5c-0.1-0.1-0.1-0.1-0.1-0.2v-2.9c0-0.1,0-0.2,0.1-0.2c0.1-0.1,0.1-0.1,0.2-0.1
				c0.1,0,0.2,0,0.2,0.1c0.1,0.1,0.1,0.1,0.1,0.2v0.4c0.1-0.2,0.2-0.4,0.4-0.6c0.2-0.1,0.4-0.2,0.6-0.2c0.1,0,0.1,0,0.2,0.1
				c0,0.1,0.1,0.1,0.1,0.2c0,0.1,0,0.1-0.1,0.2c0,0.1-0.1,0.1-0.2,0.1c-0.3,0-0.5,0.1-0.7,0.2c-0.2,0.2-0.3,0.4-0.3,0.7v1.8
				c0,0.1,0,0.2-0.1,0.2c-0.1,0.1-0.1,0.1-0.2,0.1C230.7,252.6,230.6,252.5,230.6,252.5z"/>
			<path class="st20" d="M235.8,254c-0.1,0-0.2,0-0.2-0.1c-0.1,0-0.1-0.1-0.1-0.2c0,0,0-0.1,0-0.1l0.6-1.4l-1.3-2.7c0,0,0-0.1,0-0.1
				c0-0.1,0-0.2,0.1-0.2c0.1-0.1,0.1-0.1,0.2-0.1c0.1,0,0.2,0.1,0.3,0.2l1.1,2.3l1.1-2.3c0-0.1,0.2-0.2,0.3-0.2c0.1,0,0.2,0,0.2,0.1
				c0.1,0.1,0.1,0.1,0.1,0.2c0,0,0,0.1,0,0.1l-2.1,4.3C236.1,253.9,236,254,235.8,254z"/>
			<path class="st20" d="M239.1,252.1c-0.7-0.8-0.7-1.9,0-2.6c0.7-0.7,1.9-0.7,2.6,0c0.7,0.8,0.7,1.9,0,2.6
				C240.9,252.8,239.8,252.8,239.1,252.1z M241.2,251.8c0.4-0.6,0.4-1.4,0-2c-0.4-0.5-1.1-0.5-1.6-0.1c0,0-0.1,0.1-0.1,0.1
				c-0.4,0.6-0.4,1.4,0,2c0.2,0.3,0.5,0.4,0.8,0.4C240.7,252.2,241,252.1,241.2,251.8L241.2,251.8z"/>
			<path class="st20" d="M243.2,252.3c-0.2-0.3-0.4-0.6-0.4-1v-1.9c0-0.1,0-0.2,0.1-0.2c0.1-0.1,0.3-0.1,0.5,0
				c0.1,0.1,0.1,0.1,0.1,0.2v1.9c0,0.2,0.1,0.5,0.2,0.7c0.1,0.2,0.4,0.3,0.6,0.2c0.3,0,0.5-0.1,0.7-0.3c0.2-0.2,0.3-0.5,0.3-0.8
				v-1.8c0-0.1,0-0.2,0.1-0.2c0.1-0.1,0.1-0.1,0.2-0.1c0.1,0,0.2,0,0.2,0.1c0.1,0.1,0.1,0.1,0.1,0.2v2.9c0,0.1,0,0.2-0.1,0.2
				c-0.1,0.1-0.1,0.1-0.2,0.1c-0.1,0-0.2,0-0.2-0.1c-0.1-0.1-0.1-0.1-0.1-0.2V252c-0.1,0.2-0.2,0.4-0.4,0.5
				c-0.2,0.1-0.5,0.2-0.7,0.2C243.8,252.7,243.5,252.5,243.2,252.3z"/>
			<path class="st20" d="M247.1,252.5c-0.1-0.1-0.1-0.1-0.1-0.2v-2.9c0-0.1,0-0.2,0.1-0.2c0.1-0.1,0.1-0.1,0.2-0.1
				c0.1,0,0.2,0,0.2,0.1c0.1,0,0.1,0.1,0.1,0.2v0.4c0.1-0.2,0.2-0.4,0.4-0.6c0.2-0.1,0.4-0.2,0.6-0.2c0.1,0,0.1,0,0.2,0.1
				c0,0.1,0.1,0.1,0.1,0.2c0,0.1,0,0.1-0.1,0.2c0,0-0.1,0.1-0.2,0.1c-0.3,0-0.5,0.1-0.8,0.2c-0.2,0.2-0.3,0.4-0.3,0.7v1.8
				c0,0.1,0,0.2-0.1,0.2c-0.1,0.1-0.1,0.1-0.2,0.1C247.3,252.6,247.2,252.5,247.1,252.5z"/>
			<path class="st20" d="M252.3,252.4c-0.3-0.1-0.5-0.4-0.6-0.6c-0.2-0.3-0.2-0.7-0.2-1c0-0.3,0.1-0.6,0.2-0.9
				c0.1-0.3,0.3-0.5,0.6-0.7c0.3-0.2,0.6-0.3,0.9-0.2c0.3,0,0.5,0,0.7,0.1c0.2,0.1,0.4,0.2,0.5,0.4c0.1,0.2,0.2,0.3,0.3,0.5
				c0.1,0.2,0.1,0.4,0.1,0.7c0,0.1,0,0.1-0.1,0.2c0,0-0.1,0.1-0.2,0.1h-2.4c0,0.3,0.1,0.7,0.3,0.9c0.2,0.2,0.5,0.3,0.8,0.3
				c0.2,0,0.4,0,0.6-0.1c0.2-0.1,0.4-0.2,0.5-0.3c0,0,0.1,0,0.1-0.1c0.1,0,0.1,0,0.1,0.1c0,0,0.1,0.1,0.1,0.1c0,0.1,0,0.2-0.1,0.2
				c-0.4,0.3-0.9,0.5-1.4,0.5C252.9,252.6,252.6,252.5,252.3,252.4z M254.2,250.5c0-0.3-0.1-0.6-0.3-0.8c-0.2-0.2-0.4-0.3-0.7-0.3
				c-0.2,0-0.3,0-0.4,0.1c-0.1,0.1-0.2,0.1-0.3,0.3c-0.1,0.1-0.2,0.2-0.2,0.4c-0.1,0.1-0.1,0.3-0.1,0.4H254.2z"/>
			<path class="st20" d="M255.8,252.5c-0.1-0.1-0.1-0.1-0.1-0.2v-2.9c0-0.1,0-0.2,0.1-0.2c0.1-0.1,0.2-0.1,0.2-0.1
				c0.1,0,0.2,0,0.2,0.1c0.1,0,0.1,0.1,0.1,0.2v0.3c0.1-0.2,0.3-0.4,0.5-0.5c0.2-0.1,0.4-0.2,0.7-0.2c0.3,0,0.5,0.1,0.7,0.2
				c0.2,0.1,0.4,0.4,0.4,0.6c0.1-0.3,0.3-0.5,0.5-0.6c0.2-0.1,0.5-0.2,0.8-0.2c0.2,0,0.3,0,0.5,0.1c0.1,0.1,0.3,0.1,0.4,0.2
				c0.1,0.1,0.2,0.3,0.3,0.4c0.1,0.2,0.1,0.4,0.1,0.6v1.9c0,0.1,0,0.2-0.1,0.2c-0.1,0.1-0.1,0.1-0.2,0.1c-0.1,0-0.2,0-0.2-0.1
				c-0.1-0.1-0.1-0.1-0.1-0.2v-2c0-0.2-0.1-0.5-0.2-0.7c-0.1-0.2-0.4-0.2-0.6-0.2c-0.3,0-0.5,0.1-0.7,0.3c-0.2,0.2-0.3,0.5-0.3,0.9
				v1.7c0,0.1,0,0.2-0.1,0.2c-0.1,0.1-0.1,0.1-0.2,0.1c-0.1,0-0.2,0-0.2-0.1c-0.1-0.1-0.1-0.1-0.1-0.2v-1.9c0-0.6-0.3-1-0.8-1
				c-0.3,0-0.5,0.1-0.7,0.3c-0.2,0.2-0.3,0.5-0.3,0.8v1.7c0,0.1,0,0.2-0.1,0.2c-0.1,0.1-0.1,0.1-0.2,0.1
				C255.9,252.5,255.8,252.5,255.8,252.5z"/>
			<path class="st20" d="M262.3,252.4c-0.2-0.2-0.4-0.5-0.4-0.8c0-0.1,0-0.2,0-0.4c0-0.1,0.1-0.2,0.1-0.3c0.1-0.1,0.1-0.1,0.2-0.2
				c0.1-0.1,0.2-0.1,0.3-0.1c0.1,0,0.3-0.1,0.4-0.1h0.5h0.7v-0.4c0-0.2-0.1-0.4-0.2-0.6c-0.2-0.1-0.4-0.2-0.6-0.2
				c-0.1,0-0.3,0-0.4,0l-0.3,0.1l-0.3,0.1h-0.1c-0.1,0-0.1,0-0.2-0.1c0,0-0.1-0.1-0.1-0.2c0-0.1,0-0.1,0.1-0.2
				c0.4-0.2,0.9-0.3,1.3-0.3c0.4,0,0.7,0.1,1,0.3c0.3,0.2,0.4,0.6,0.4,0.9v2.1c0,0.1,0,0.2-0.1,0.2c-0.1,0.1-0.1,0.1-0.2,0.1
				c-0.1,0-0.2,0-0.2-0.1c-0.1-0.1-0.1-0.1-0.1-0.2v-0.3c-0.2,0.4-0.6,0.7-1.1,0.7C262.8,252.6,262.5,252.5,262.3,252.4z M264,251.9
				c0.2-0.2,0.3-0.5,0.3-0.9v-0.1h-0.7c-0.2,0-0.3,0-0.5,0.1c-0.1,0-0.2,0.1-0.3,0.1c-0.1,0-0.1,0.1-0.2,0.2c0,0.1-0.1,0.2,0,0.3
				c0,0.2,0.1,0.4,0.2,0.5c0.2,0.1,0.3,0.2,0.5,0.1C263.5,252.2,263.8,252.1,264,251.9L264,251.9z"/>
			<path class="st20" d="M266,248.1c-0.1-0.1-0.1-0.2-0.1-0.3c0-0.1,0-0.2,0.1-0.3c0.1-0.1,0.2-0.1,0.3-0.1c0.1,0,0.2,0,0.3,0.1
				c0.1,0.1,0.1,0.2,0.1,0.3c0,0.1,0,0.2-0.1,0.3c-0.1,0.1-0.2,0.1-0.3,0.1C266.2,248.2,266.1,248.2,266,248.1z M266.1,252.5
				c-0.1-0.1-0.1-0.2-0.1-0.2v-2.9c0-0.1,0-0.2,0.1-0.2c0.1-0.1,0.1-0.1,0.2-0.1c0.1,0,0.2,0,0.2,0.1c0.1,0.1,0.1,0.1,0.1,0.2v2.9
				c0,0.1,0,0.2-0.1,0.2c-0.1,0.1-0.1,0.1-0.2,0.1C266.2,252.6,266.1,252.5,266.1,252.5L266.1,252.5z"/>
			<path class="st20" d="M267.8,252.5c-0.1-0.1-0.1-0.2-0.1-0.2v-4.4c0-0.1,0-0.2,0.1-0.2c0.1-0.1,0.1-0.1,0.2-0.1
				c0.1,0,0.2,0,0.2,0.1c0.1,0.1,0.1,0.1,0.1,0.2v4.4c0,0.1,0,0.2-0.1,0.2c-0.1,0.1-0.1,0.1-0.2,0.1
				C267.9,252.6,267.9,252.5,267.8,252.5z"/>
			<path class="st8" d="M256.6,271.5c-0.1-0.1-0.1-0.1-0.1-0.2v-4.3c0-0.1,0-0.2,0.1-0.3c0.1-0.1,0.2-0.1,0.3-0.1
				c0.1,0,0.2,0,0.3,0.1c0.1,0,0.2,0.1,0.2,0.2l2.6,3.8v-3.7c0-0.1,0-0.2,0.1-0.2c0.1-0.1,0.2-0.1,0.2-0.1c0.1,0,0.2,0,0.2,0.1
				c0.1,0.1,0.1,0.1,0.1,0.2v4.3c0,0.1,0,0.2-0.1,0.3c-0.1,0.1-0.2,0.1-0.3,0.1c-0.1,0-0.2,0-0.2-0.1c-0.1,0-0.2-0.1-0.2-0.2
				l-2.6-3.8v3.7c0,0.1,0,0.2-0.1,0.2c-0.1,0.1-0.2,0.1-0.2,0.1C256.8,271.5,256.7,271.5,256.6,271.5z"/>
			<path class="st8" d="M262.5,271.4c-0.3-0.1-0.5-0.4-0.6-0.6c-0.3-0.6-0.3-1.3,0-1.9c0.1-0.3,0.3-0.5,0.6-0.7
				c0.3-0.2,0.6-0.3,0.9-0.3c0.3,0,0.5,0,0.7,0.1c0.2,0.1,0.4,0.2,0.5,0.4c0.1,0.2,0.2,0.4,0.3,0.5c0.1,0.2,0.1,0.4,0.1,0.6
				c0,0.1,0,0.1-0.1,0.2c0,0.1-0.1,0.1-0.2,0.1h-2.4c0,0.3,0.1,0.7,0.3,0.9c0.2,0.2,0.5,0.3,0.8,0.3c0.2,0,0.4-0.1,0.6-0.2
				c0.2-0.1,0.4-0.2,0.5-0.3c0,0,0.1-0.1,0.1,0c0.1,0,0.1,0,0.1,0.1c0,0,0.1,0.1,0,0.2c0,0.1,0,0.1-0.1,0.2
				c-0.4,0.3-0.9,0.5-1.4,0.5C263.1,271.6,262.8,271.5,262.5,271.4z M264.4,269.5c0-0.3-0.1-0.6-0.3-0.8c-0.2-0.2-0.5-0.3-0.7-0.3
				c-0.2,0-0.3,0-0.5,0.1c-0.1,0.1-0.2,0.1-0.3,0.2c-0.1,0.1-0.2,0.2-0.2,0.4c-0.1,0.1-0.1,0.3-0.1,0.4H264.4z"/>
			<path class="st8" d="M268,271.4l-1-1.2l-1,1.3c0,0.1-0.1,0.1-0.2,0.1c-0.1,0-0.2,0-0.2-0.1c-0.1,0-0.1-0.1-0.1-0.2
				c0-0.1,0-0.1,0.1-0.1l1.1-1.4l-1-1.2c-0.1-0.1-0.1-0.3,0-0.4c0,0,0,0,0,0c0.1-0.1,0.1-0.1,0.2-0.1c0.1,0,0.2,0.1,0.2,0.1l0.9,1.1
				l0.9-1.1c0-0.1,0.1-0.1,0.2-0.1c0.1,0,0.1,0,0.2,0.1c0.1,0,0.1,0.1,0.1,0.2c0,0.1,0,0.1-0.1,0.2l-1,1.3l1.1,1.4
				c0,0,0.1,0.1,0.1,0.2c0,0.1,0,0.2-0.1,0.2c-0.1,0.1-0.1,0.1-0.2,0.1C268.2,271.5,268.1,271.5,268,271.4z"/>
			<path class="st8" d="M269.9,271.3c-0.2-0.2-0.3-0.5-0.2-0.8v-2h-0.4c-0.1,0-0.1,0-0.2,0c0,0-0.1-0.1-0.1-0.2c0-0.1,0-0.1,0.1-0.1
				c0.1,0,0.1-0.1,0.2,0h0.4l0.1-1c0-0.1,0-0.2,0.1-0.2c0.1-0.1,0.1-0.1,0.2-0.1c0.1,0,0.1,0,0.2,0.1c0.1,0,0.1,0.1,0.1,0.2v1h0.7
				c0.1,0,0.1,0,0.2,0.1c0,0,0.1,0.1,0.1,0.1c0,0.1-0.1,0.2-0.2,0.2h-0.6v1.9c0,0.2,0,0.4,0.1,0.5c0.1,0.1,0.2,0.2,0.3,0.2h0.2
				c0.1,0,0.1,0,0.2,0.1c0,0,0.1,0.1,0.1,0.2c0,0,0,0.1,0,0.1c0,0-0.1,0.1-0.1,0.1c-0.1,0-0.1,0-0.2,0h-0.4
				C270.3,271.6,270.1,271.5,269.9,271.3z"/>
			<rect x="187.8" y="193.7" class="st21" width="150.5" height="6.1"/>
			<path class="st13" d="M176.8,200.3c0,0,3.6-6.1,7-6.4s7.1,7.5,12.9,10.5s13.2,6.1,15.3,0.7s-6.8-17.7-18-24.1s-15.3-7.5-20-3.7
				S159.1,199,159.1,199"/>
			<path class="st13" d="M167.4,196.7c0,0-2.7-12.2,0.7-20.7s9.5-9.9,13.6-14.3s0-13.2-10.2-11.2s-16.6,17.3-20.4,27.2
				s-0.3,24.5,0.7,27.5"/>
			<path class="st13" d="M156.5,202.4c0,0-3.4-9.5-2.4-16.3s7.8-14.6,7.8-21.4s-9.5-6.5-16,2.4s-6.4,16.3-6.8,26.2
				s4.8,17.3,4.8,23.4c-0.1,3.4,1.3,6.8,3.7,9.2"/>
			<path class="st13" d="M142.4,219.1c0.5-4.6,2.3-8.9,4.2-13c1.5-3.1,2.7-7.2,5.4-9.4c5.7-4.7,14.2-0.7,19.4,2.7
				c11.5,7.5,15.6,12.6,9.5,16.6c-5.4,3.6-18.6-4-21.3-5c3.4,9.4,10.7,27.1,2.6,35.6c-5.1,5.4-14.6,1.2-18.6-3.6"/>
			<path class="st13" d="M350.7,200.3c0,0-3.6-6.1-7-6.4s-7.1,7.5-12.9,10.5s-13.2,6.1-15.3,0.7s6.8-17.7,18-24.1s15.3-7.5,20-3.7
				s14.9,21.8,14.9,21.8"/>
			<path class="st13" d="M360.1,196.7c0,0,2.7-12.2-0.7-20.7s-9.5-9.9-13.6-14.3s0-13.2,10.2-11.2s16.6,17.3,20.4,27.2
				s0.3,24.5-0.7,27.5"/>
			<path class="st13" d="M371,202.4c0,0,3.4-9.5,2.4-16.3s-7.8-14.6-7.8-21.4s9.5-6.5,16,2.4s6.5,16.3,6.8,26.2s-4.8,17.3-4.8,23.4
				c0.1,3.4-1.3,6.8-3.7,9.2"/>
			<path class="st13" d="M385.1,219.1c-0.5-4.6-2.3-8.9-4.2-13c-1.5-3.1-2.7-7.2-5.4-9.4c-5.7-4.7-14.2-0.7-19.4,2.7
				c-11.5,7.5-15.6,12.6-9.5,16.6c5.4,3.6,18.6-4,21.3-5c-3.4,9.4-10.7,27.1-2.5,35.6c5.1,5.4,14.6,1.2,18.6-3.6"/>
		</g>
	</g>
	<rect x="114.6" y="128.6" class="st22" width="301.9" height="174.1"/>
</g>
<g id="freepik--Keyboard--inject-107">
	<path class="st10" d="M451.2,428.1c0,0-5-5.5-19.4-10.3s-35.4,1.9-40.6,5.8s-5.5,6.1,1.1,8.2s16.8,4.1,28.3,10.4s19.9,9.3,30.1,3.5
		S455.5,432.3,451.2,428.1z"/>
	<path class="st6" d="M418,436.4c-10.3-5.6-23-5.7-28.1-5.5c0.7,0.3,1.5,0.6,2.3,0.9c6.6,2.1,16.8,4.1,28.3,10.4
		c8,4.4,14.5,7.2,21.2,6.5C426.5,445.4,428.2,442,418,436.4z"/>
	<g>
		<defs>
			<path id="SVGID_00000065757562241215175100000006451277624405503668_" d="M418,436.4c-10.3-5.6-23-5.7-28.1-5.5
				c0.7,0.3,1.5,0.6,2.3,0.9c6.6,2.1,16.8,4.1,28.3,10.4c8,4.4,14.5,7.2,21.2,6.5C426.5,445.4,428.2,442,418,436.4z"/>
		</defs>
		<clipPath id="SVGID_00000041980503761952876200000018030961985672461245_">
			<use xlink:href="#SVGID_00000065757562241215175100000006451277624405503668_"  style="overflow:visible;"/>
		</clipPath>
		<g style="clip-path:url(#SVGID_00000041980503761952876200000018030961985672461245_);">
			<path class="st12" d="M418,436.4c-10.3-5.6-23-5.7-28.1-5.5c0.7,0.3,1.5,0.6,2.3,0.9c6.6,2.1,16.8,4.1,28.3,10.4
				c8,4.4,14.5,7.2,21.2,6.5C426.5,445.4,428.2,442,418,436.4z"/>
		</g>
	</g>
	<path class="st3" d="M418,436.4c-10.3-5.6-23-5.7-28.1-5.5c0.7,0.3,1.5,0.6,2.3,0.9c6.6,2.1,16.8,4.1,28.3,10.4
		c8,4.4,14.5,7.2,21.2,6.5C426.5,445.4,428.2,442,418,436.4z"/>
	<path class="st24" d="M397.8,458.1h-268c-2.8,0-4.3-0.9-3.3-2l28.5-33.2c0.6-0.7,2.8-1.2,5-1.2h207.8c2.2,0,4.4,0.6,5,1.2
		l28.5,33.1C402.1,457.1,400.7,458.1,397.8,458.1z"/>
	<polygon class="st25" points="266,422.3 253.7,422.3 253.4,426.6 266.1,426.6 	"/>
	<polygon class="st25" points="236.4,422.3 224.1,422.3 222.7,426.6 235.4,426.6 	"/>
	<polygon class="st25" points="280.9,422.3 268.6,422.3 268.8,426.6 281.5,426.6 	"/>
	<polygon class="st25" points="206.7,422.3 194.4,422.3 192,426.6 204.7,426.6 	"/>
	<polygon class="st25" points="221.5,422.3 209.2,422.3 207.3,426.6 220.1,426.6 	"/>
	<polygon class="st25" points="176.6,426.6 189.4,426.6 191.8,422.3 179.5,422.3 	"/>
	<polygon class="st25" points="251.2,422.3 238.9,422.3 238,426.6 250.8,426.6 	"/>
	<polygon class="st25" points="295.7,422.3 283.4,422.3 284.1,426.6 296.8,426.6 	"/>
	<polygon class="st25" points="177,422.3 158.2,422.3 154.6,426.6 174,426.6 	"/>
	<polygon class="st25" points="357.6,422.3 360.9,426.6 374,426.6 370.4,422.3 	"/>
	<polygon class="st25" points="355.1,422.3 342.8,422.3 345.5,426.6 358.2,426.6 	"/>
	<polygon class="st25" points="340.3,422.3 328,422.3 330.2,426.6 342.9,426.6 	"/>
	<polygon class="st25" points="310.6,422.3 298.3,422.3 299.5,426.6 312.2,426.6 	"/>
	<polygon class="st25" points="325.4,422.3 313.1,422.3 314.8,426.6 327.5,426.6 	"/>
	<polygon class="st25" points="227.5,427.1 214.7,427.1 213,431.8 226.2,431.8 	"/>
	<polygon class="st25" points="243,427.1 230.2,427.1 229,431.8 242.2,431.8 	"/>
	<polygon class="st25" points="258.4,427.1 245.6,427.1 244.9,431.8 258.2,431.8 	"/>
	<polygon class="st25" points="196.7,427.1 183.9,427.1 181,431.8 194.3,431.8 	"/>
	<polygon class="st25" points="165,431.8 178.3,431.8 181.2,427.1 168.4,427.1 	"/>
	<polygon class="st25" points="273.8,427.1 261,427.1 260.9,431.8 274.2,431.8 	"/>
	<polygon class="st25" points="212.1,427.1 199.3,427.1 197,431.8 210.2,431.8 	"/>
	<polygon class="st25" points="351,427.1 338.2,427.1 340.8,431.8 354.1,431.8 	"/>
	<polygon class="st25" points="165.8,427.1 154.3,427.1 150.4,431.8 162.3,431.8 	"/>
	<polygon class="st25" points="353.6,427.1 356.8,431.8 378.3,431.8 374.4,427.1 	"/>
	<polygon class="st25" points="335.5,427.1 322.8,427.1 324.9,431.8 338.1,431.8 	"/>
	<polygon class="st25" points="289.2,427.1 276.5,427.1 276.9,431.8 290.2,431.8 	"/>
	<polygon class="st25" points="304.7,427.1 291.9,427.1 292.9,431.8 306.1,431.8 	"/>
	<polygon class="st25" points="320.1,427.1 307.3,427.1 308.9,431.8 322.1,431.8 	"/>
	<polygon class="st25" points="298.9,450.4 211.1,450.4 208.9,456.9 300.4,456.9 	"/>
	<polygon class="st25" points="208,450.4 188.4,450.4 185.2,456.9 205.7,456.9 	"/>
	<polygon class="st25" points="318.1,450.4 302,450.4 303.6,456.9 320.4,456.9 	"/>
	<polygon class="st25" points="148,456.9 163.9,456.9 167.9,450.4 152.7,450.4 	"/>
	<polygon class="st25" points="185.3,450.4 171.1,450.4 167.1,456.9 182,456.9 	"/>
	<polygon class="st25" points="149.6,450.4 134.8,450.4 129.4,456.9 144.8,456.9 	"/>
	<polygon class="st25" points="337.3,450.4 321.2,450.4 323.6,456.9 340.4,456.9 	"/>
	<polygon class="st25" points="378.8,450.4 383.6,456.9 399.5,456.9 394,450.4 	"/>
	<polygon class="st25" points="356.5,450.4 340.4,450.4 343.6,456.9 360.4,456.9 	"/>
	<polygon class="st25" points="375.7,450.4 359.6,450.4 363.6,456.9 380.4,456.9 	"/>
	<polygon class="st25" points="245.2,443.8 230.8,443.8 229.5,449.8 244.4,449.8 	"/>
	<polygon class="st25" points="279.9,443.8 265.5,443.8 265.6,449.8 280.5,449.8 	"/>
	<polygon class="st25" points="227.9,443.8 213.5,443.8 211.5,449.8 226.4,449.8 	"/>
	<polygon class="st25" points="193.2,443.8 178.8,443.8 175.4,449.8 190.3,449.8 	"/>
	<polygon class="st25" points="157.4,449.8 172.3,449.8 175.9,443.8 161.5,443.8 	"/>
	<polygon class="st25" points="210.5,443.8 196.2,443.8 193.4,449.8 208.4,449.8 	"/>
	<polygon class="st25" points="262.5,443.8 248.2,443.8 247.5,449.8 262.5,449.8 	"/>
	<polygon class="st25" points="158.5,443.8 140.3,443.8 135.3,449.8 154.3,449.8 	"/>
	<polygon class="st25" points="349.2,443.8 334.8,443.8 337.7,449.8 352.6,449.8 	"/>
	<polygon class="st25" points="352.2,443.8 355.8,449.8 393.5,449.8 388.5,443.8 	"/>
	<polygon class="st25" points="297.2,443.8 282.8,443.8 283.6,449.8 298.5,449.8 	"/>
	<polygon class="st25" points="314.5,443.8 300.2,443.8 301.6,449.8 316.6,449.8 	"/>
	<polygon class="st25" points="331.9,443.8 317.5,443.8 319.7,449.8 334.6,449.8 	"/>
	<polygon class="st25" points="254.3,437.8 240.5,437.8 239.6,443.3 253.9,443.3 	"/>
	<polygon class="st25" points="271,437.8 257.1,437.8 256.9,443.3 271.2,443.3 	"/>
	<polygon class="st25" points="237.6,437.8 223.8,437.8 222.3,443.3 236.6,443.3 	"/>
	<polygon class="st25" points="221,437.8 207.1,437.8 204.9,443.3 219.3,443.3 	"/>
	<polygon class="st25" points="204.3,437.8 190.5,437.8 187.6,443.3 202,443.3 	"/>
	<polygon class="st25" points="170.3,443.3 184.7,443.3 187.6,437.8 173.8,437.8 	"/>
	<polygon class="st25" points="287.6,437.8 273.8,437.8 274.2,443.3 288.6,443.3 	"/>
	<polygon class="st25" points="170.9,437.8 145.3,437.8 140.7,443.3 167.4,443.3 	"/>
	<polygon class="st25" points="371,437.8 357.2,437.8 360.8,443.3 375.1,443.3 	"/>
	<polygon class="st25" points="304.3,437.8 290.5,437.8 291.5,443.3 305.9,443.3 	"/>
	<polygon class="st25" points="354.3,437.8 340.5,437.8 343.5,443.3 357.8,443.3 	"/>
	<polygon class="st25" points="321,437.8 307.2,437.8 308.8,443.3 323.2,443.3 	"/>
	<polygon class="st25" points="337.6,437.8 323.8,437.8 326.1,443.3 340.5,443.3 	"/>
	<polygon class="st25" points="235.2,437.3 248.7,437.3 249.3,432.2 236.3,432.2 	"/>
	<polygon class="st25" points="218.9,437.3 232.4,437.3 233.5,432.2 220.5,432.2 	"/>
	<polygon class="st25" points="251.6,437.3 265.1,437.3 265,432.2 252,432.2 	"/>
	<polygon class="st25" points="169.9,437.3 183.4,437.3 186.3,432.2 173.2,432.2 	"/>
	<polygon class="st25" points="186.2,437.3 199.7,437.3 202,432.2 189,432.2 	"/>
	<polygon class="st25" points="267.9,437.3 281.4,437.3 280.8,432.2 267.8,432.2 	"/>
	<polygon class="st25" points="202.6,437.3 216.1,437.3 217.8,432.2 204.8,432.2 	"/>
	<path class="st25" d="M378.7,432.2H365l3.8,5.1h3.3c0.4,0,0.9,0.1,1.2,0.4l4.4,5.7h10.1L378.7,432.2z"/>
	<polygon class="st25" points="333.2,437.3 346.8,437.3 343.8,432.2 330.8,432.2 	"/>
	<polygon class="st25" points="349.6,437.3 365.9,437.3 362.3,432.2 346.5,432.2 	"/>
	<polygon class="st25" points="145.8,437.3 167.1,437.3 170.5,432.2 150,432.2 	"/>
	<polygon class="st25" points="284.2,437.3 297.7,437.3 296.5,432.2 283.5,432.2 	"/>
	<polygon class="st25" points="316.9,437.3 330.4,437.3 328,432.2 315,432.2 	"/>
	<polygon class="st25" points="300.6,437.3 314.1,437.3 312.3,432.2 299.3,432.2 	"/>
</g>
</svg>
