<?xml version="1.0" encoding="utf-8"?>
<!-- Generator: Adobe Illustrator 26.2.1, SVG Export Plug-In . SVG Version: 6.00 Build 0)  -->
<svg version="1.1" id="Layer_1" xmlns="http://www.w3.org/2000/svg" xmlns:xlink="http://www.w3.org/1999/xlink" x="0px" y="0px"
	 viewBox="0 0 500 500" style="enable-background:new 0 0 500 500;" xml:space="preserve">
<style type="text/css">
	.st0{fill:#D94F04;}
	.st1{opacity:0.7;fill:#FFFFFF;enable-background:new    ;}
	.st2{fill:none;stroke:#B2B2B2;stroke-linecap:round;stroke-linejoin:round;}
	.st3{fill:#FDFCDC;stroke:#263238;stroke-linecap:round;stroke-linejoin:round;}
	.st4{fill:#FFFFFF;stroke:#263238;stroke-linecap:round;stroke-linejoin:round;}
	.st5{fill:#707070;stroke:#263238;stroke-linecap:round;stroke-linejoin:round;}
	.st6{fill:#263238;stroke:#263238;stroke-linecap:round;stroke-linejoin:round;}
	.st7{fill:#707070;}
	.st8{fill:#263238;}
	.st9{opacity:0.3;fill:none;stroke:#000000;stroke-linecap:round;stroke-linejoin:round;enable-background:new    ;}
	.st10{fill:none;stroke:#263238;stroke-linecap:round;stroke-linejoin:round;}
	.st11{fill:#CBDAD5;stroke:#007172;stroke-linecap:round;stroke-linejoin:round;}
	.st12{fill:#007172;stroke:#007172;stroke-linecap:round;stroke-linejoin:round;}
	.st13{fill:#CBDAD5;stroke:#007172;stroke-miterlimit:10;}
	.st14{fill:#007172;stroke:#007172;stroke-miterlimit:10;}
	.st15{fill:none;stroke:#CBDAD5;stroke-linecap:round;stroke-linejoin:round;}
	.st16{fill:#FFE1DD;stroke:#D94F04;stroke-linecap:round;stroke-linejoin:round;}
	.st17{fill:#D94F04;stroke:#D94F04;stroke-linecap:round;stroke-linejoin:round;}
	.st18{fill:#007172;stroke:#CBDAD5;stroke-linecap:round;stroke-linejoin:round;}
	.st19{fill:none;stroke:#263238;stroke-width:3;stroke-linecap:round;stroke-linejoin:round;}
	.st20{fill:none;stroke:#263238;stroke-width:2;stroke-linecap:round;stroke-linejoin:round;}
	.st21{fill:none;stroke:#263238;stroke-width:0.75;stroke-linecap:round;stroke-linejoin:round;}
	.st22{fill:#D94F04;stroke:#007172;stroke-miterlimit:10;}
	.st23{fill:#D94F04;stroke:#263238;stroke-linecap:round;stroke-linejoin:round;}
	.st24{fill:#5E5E5E;stroke:#263238;stroke-linecap:round;stroke-linejoin:round;}
	.st25{fill:#FDFCDC;stroke:#D94F04;stroke-linecap:round;stroke-linejoin:round;}
</style>
<g id="freepik--background-simple--inject-62">
	<path class="st0" d="M479.6,213.1c-1-6.2-2.2-12.3-3.5-18.2C465.5,146.8,441,95.6,393,76.2C337.8,53.8,259.4,60,210,103.7
		c-38,33.6-115,53.9-158,104.8C7.4,261.3-1.9,360.3,56,400.3c41.2,28.4,92.1,6,137.9-3.4c26.1-5.3,48.7-2.3,74.4,0
		c44.7,4,91.1,7,136.2-3c22.3-5,42.1-14.1,54.6-34.7C485.6,315.7,487.4,261,479.6,213.1z"/>
	<path class="st1" d="M479.6,213.1c-1-6.2-2.2-12.3-3.5-18.2C465.5,146.8,441,95.6,393,76.2C337.8,53.8,259.4,60,210,103.7
		c-38,33.6-115,53.9-158,104.8C7.4,261.3-1.9,360.3,56,400.3c41.2,28.4,92.1,6,137.9-3.4c26.1-5.3,48.7-2.3,74.4,0
		c44.7,4,91.1,7,136.2-3c22.3-5,42.1-14.1,54.6-34.7C485.6,315.7,487.4,261,479.6,213.1z"/>
</g>
<g id="freepik--Clouds--inject-62">
	<path class="st2" d="M212.7,25c-0.8,2-1.2,4.1-1.1,6.2c0,3.7-8.8,0-12.1,4.8s0.4,7.7-4,9.1s-4.8-2.2-10.2-1.8s-4.8,5.5-6.6,7
		s-1.8,0.7-5.9,1.1s-4.8,3.3-4.8,3.3h96.2c0,0,2.8-8.4-0.9-13.2"/>
	<path class="st2" d="M258.6,38.3c-4-1.2-4.7,2.4-9,0.5s-5-5.2-6.2-8.9c-0.1-0.4-0.3-0.8-0.4-1.2c-4.3-12-20.9-15.3-28.1-7.2"/>
	<path class="st2" d="M246.7,50.5c0,0,2-6.2-2.9-10.7s-10-2-11.4,0s-1.4,5.8-3.8,6.2s-1.8-4-6.9-2.9s-3.1,6.2-5.4,7.2
		s-2.4-2.9-5.6-1.6s-3.1,3.6-3.1,3.6"/>
	<path class="st2" d="M220.7,38.2c-2.7-1.9-6.3-2.2-9.3-0.8c-5.2,2.4-2.8,7.5-5.2,8.7s-3.6-0.2-6.6,1.2s-2.8,3.4-2.8,3.4"/>
	<path class="st2" d="M429.7,144.6h38.1c0,0,3.7-11-2.9-15s-6.6,1.5-11.7-0.7c-4.2-1.8-5-5.2-6.2-8.9c-0.1-0.4-0.3-0.8-0.4-1.2
		c-0.4-1.1-0.9-2.2-1.6-3.2"/>
	<path class="st2" d="M440.5,110.7c-9.5-7-25.3-4.4-25.3,10.5c0,3.7-8.8,0-12.1,4.8c-3.3,4.7,0.4,7.7-4,9.1s-4.8-2.2-10.2-1.8
		s-4.8,5.5-6.6,6.9s-1.8,0.7-5.9,1.1s-4.8,3.3-4.8,3.3H423"/>
	<path class="st2" d="M450.3,140.6c0,0,2-6.2-2.9-10.7s-10-2-11.4,0s-1.5,5.8-3.8,6.2s-1.8-4-6.9-2.9s-3.1,6.2-5.4,7.2
		s-2.4-2.9-5.6-1.6s-3.1,3.6-3.1,3.6"/>
	<path class="st2" d="M424.3,128.2c-2.7-1.9-6.3-2.2-9.3-0.8c-5.2,2.4-2.8,7.5-5.2,8.7s-3.6-0.2-6.6,1.2s-2.8,3.4-2.8,3.4"/>
	<path class="st2" d="M398.4,159.8c-5-5.9-16.3-5.2-16.3,4.4c0,2.1-5,0-6.9,2.7s0.2,4.4-2.3,5.2s-2.7-1.3-5.9-1.1s-2.7,3.1-3.8,4
		s-1,0.4-3.4,0.6c-1.2,0-2.3,0.7-2.7,1.9h55.2c0,0,2.1-6.3-1.7-8.6s-3.8,0.8-6.7-0.4c-2.4-1-2.9-3-3.6-5.1"/>
	<path class="st2" d="M402.2,175.2c0.6-2.2,0-4.6-1.7-6.1c-2.8-2.6-5.7-1.1-6.5,0s-0.8,3.3-2.2,3.5s-1-2.3-4-1.7s-1.8,3.5-3.1,4.2
		s-1.4-1.7-3.2-0.9s-1.8,2.1-1.8,2.1"/>
	<path class="st2" d="M387.3,168.2c-1.6-1.1-3.6-1.3-5.3-0.5c-3,1.4-1.6,4.3-3,5s-2.1-0.1-3.8,0.7s-1.6,2-1.6,2"/>
	<path class="st2" d="M56.8,122.5c-0.9-0.5-1.9-0.7-2.9-0.6c-3.2,0.2-2.7,3.2-3.8,4s-1,0.4-3.3,0.6c-1.2,0-2.3,0.7-2.7,1.9h55.2
		c0,0,1.4-4.1-0.1-6.9"/>
	<path class="st2" d="M97.6,119.8c-3.8-2.3-3.8,0.8-6.7-0.4c-2.4-1-2.9-3-3.6-5.1l-0.2-0.7c-3.2-8.9-18-9.5-18,1.4
		c0,2.1-5,0-6.9,2.7s0.2,4.4-2.3,5.2"/>
	<path class="st2" d="M89.2,126.1c0.6-2.2,0-4.6-1.7-6.1c-2.8-2.6-5.7-1.1-6.6,0s-0.8,3.3-2.2,3.5s-1-2.3-3.9-1.7s-1.8,3.5-3.1,4.1
		s-1.3-1.7-3.2-0.9s-1.8,2.1-1.8,2.1"/>
	<path class="st2" d="M74.3,119.1c-1.6-1.1-3.6-1.3-5.3-0.5c-3,1.4-1.6,4.3-3,5s-2.1-0.1-3.8,0.7s-1.6,2-1.6,2"/>
</g>
<g id="freepik--Device--inject-62">
	<path class="st3" d="M324.1,174.8V419c0,13.5-11,24.5-24.5,24.5c0,0,0,0,0,0H183.5c-13.5,0-24.5-10.9-24.5-24.4c0,0,0,0,0,0V174.8
		c0-0.4,0-0.8,0-1.1c0.6-13.1,11.4-23.4,24.4-23.4H232l0.1,0.2c1.4,5.2,4.7,8.5,8.4,8.5h2.1c3.6,0,7-3.4,8.4-8.5l0.1-0.2h48.6
		c13.1,0,23.9,10.3,24.5,23.4C324.1,174.1,324.1,174.5,324.1,174.8z"/>
	<path class="st4" d="M324.1,173.7h-165c0.6-13.1,11.4-23.4,24.4-23.4h48.6l0.1,0.2c1.4,5.2,4.7,8.5,8.4,8.5h2.1
		c3.6,0,7-3.4,8.4-8.5l0.1-0.2h48.6C312.7,150.4,323.5,160.7,324.1,173.7z"/>
	<path class="st5" d="M334.6,240v-31h-2.8v-39.8c0-13.5-11-24.5-24.5-24.5c0,0,0,0,0,0H175.8c-13.5,0-24.5,11-24.5,24.5c0,0,0,0,0,0
		v267.2c0,13.5,11,24.5,24.5,24.5c0,0,0,0,0,0h131.5c13.5,0,24.5-11,24.5-24.5c0,0,0,0,0,0v-170h2.8v-18.4h-2.8V240H334.6z
		 M324.1,419c0,13.5-11,24.5-24.5,24.5c0,0,0,0,0,0H183.5c-13.5,0-24.5-10.9-24.5-24.4c0,0,0,0,0,0V174.8c0-13.5,11-24.5,24.5-24.5
		H232l0.1,0.2c1.4,5.2,4.7,8.5,8.4,8.5h2.1c3.7,0,7-3.4,8.4-8.5l0.1-0.2h48.6c13.5,0,24.5,11,24.5,24.5l0,0L324.1,419z"/>
	<path class="st6" d="M303,148.1H180.1c-14.3,0-25.9,11.6-25.9,25.9v257.6c0,14.3,11.6,25.9,25.9,25.9H303c14.3,0,26-11.5,26-25.9
		c0,0,0,0,0-0.1V174.1C329,159.7,317.4,148.1,303,148.1C303,148.1,303,148.1,303,148.1z M324.1,419c0,13.5-11,24.5-24.5,24.5
		c0,0,0,0,0,0H183.5c-13.5,0-24.5-10.9-24.5-24.4c0,0,0,0,0,0V174.8c0-13.5,11-24.5,24.5-24.5H232l0.1,0.2c1.4,5.2,4.7,8.5,8.4,8.5
		h2.1c3.7,0,7-3.4,8.4-8.5l0.1-0.2h48.6c13.5,0,24.5,11,24.5,24.5l0,0L324.1,419z"/>
	<path class="st7" d="M243.4,151.5c0-1.3-1-2.3-2.3-2.3c-1.3,0-2.3,1-2.3,2.3c0,1.3,1,2.3,2.3,2.3S243.4,152.8,243.4,151.5
		L243.4,151.5z"/>
	<path class="st8" d="M173.7,160.3c0,2.3-2.6,3.2-2.6,4.9v0.1h2.5v0.8h-3.4v-0.7c0-2.5,2.6-3,2.6-5.1c0-0.8-0.3-1.2-0.9-1.2
		s-0.9,0.4-0.9,1.1v0.7h-0.8v-0.6c0-1.2,0.5-2,1.7-2S173.7,159.2,173.7,160.3z"/>
	<path class="st8" d="M177.9,160.3v0.2c0.1,0.7-0.3,1.3-0.9,1.6c0.6,0.3,1,0.9,0.9,1.6v0.6c0,1.2-0.6,1.9-1.7,1.9s-1.7-0.8-1.7-1.9
		v-0.5h0.8v0.6c0,0.7,0.3,1.1,0.9,1.1s0.9-0.4,0.9-1.2v-0.6c0-0.8-0.3-1.1-1-1.1h-0.5v-0.8h0.5c0.5,0,0.9-0.4,0.9-0.9
		c0,0,0-0.1,0-0.1v-0.4c0-0.8-0.3-1.2-0.9-1.2s-0.9,0.4-0.9,1.1v0.4h-0.8v-0.4c0-1.2,0.6-1.9,1.7-1.9S177.9,159.1,177.9,160.3z"/>
	<path class="st8" d="M179.6,160.9v1.1h-0.8v-1.1L179.6,160.9z M179.6,165.1v1.1h-0.8v-1.1H179.6z"/>
	<path class="st8" d="M181.3,161.6c0.2-0.4,0.7-0.7,1.1-0.6c1,0,1.4,0.7,1.4,1.8v1.5c0,1.2-0.6,1.9-1.8,1.9s-1.7-0.8-1.7-1.9v-0.5
		h0.8v0.6c0,0.7,0.3,1.1,0.9,1.1s0.9-0.4,0.9-1.1v-1.5c0-0.7-0.3-1.1-0.9-1.1c-0.5,0-0.9,0.3-0.9,0.8c0,0,0,0,0,0v0.2h-0.8l0.2-4.3
		h3v0.8h-2.3L181.3,161.6z"/>
	<path class="st8" d="M188.2,160.3v0.1h-0.8v-0.2c0-0.7-0.3-1.1-0.9-1.1s-0.9,0.4-0.9,1.2v1.7c0.2-0.5,0.7-0.9,1.2-0.8
		c1,0,1.4,0.7,1.4,1.8v1.2c0,1.2-0.6,1.9-1.8,1.9s-1.8-0.8-1.8-1.9v-3.9c0-1.2,0.6-2,1.8-2S188.2,159.1,188.2,160.3z M185.5,163.2
		v1.1c0,0.7,0.3,1.1,0.9,1.1s0.9-0.4,0.9-1.1v-1.1c0-0.7-0.3-1.1-0.9-1.1S185.5,162.5,185.5,163.2L185.5,163.2z"/>
	<rect x="270.2" y="160.7" class="st8" width="2.2" height="5.4"/>
	<rect x="273.1" y="159.6" class="st8" width="2.2" height="6.5"/>
	<rect x="276" y="158.8" class="st8" width="2.2" height="7.3"/>
	<rect x="278.9" y="157.4" class="st8" width="2.2" height="8.7"/>
	<path class="st8" d="M308.1,166H295v-8h13.1L308.1,166z M295.7,165.3h11.6v-6.5h-11.6L295.7,165.3z"/>
	<rect x="296.8" y="159.5" class="st8" width="6.9" height="4.9"/>
	<rect x="307.6" y="161" class="st8" width="1.6" height="1.9"/>
	<path class="st8" d="M290.2,164.2c-0.1,0-0.2,0-0.2-0.1c-2.7-1.6-4.4-0.1-4.5-0.1c-0.2,0.2-0.5,0.1-0.7-0.1c-0.2-0.2-0.1-0.5,0-0.7
		c0.1-0.1,2.3-2,5.6-0.1c0.2,0.1,0.3,0.4,0.2,0.7c0,0,0,0,0,0C290.5,164.1,290.4,164.2,290.2,164.2z"/>
	<path class="st8" d="M291.2,162.6c-0.1,0-0.2,0-0.2-0.1c-3.9-2.3-6.4-0.1-6.5-0.1c-0.2,0.2-0.5,0.2-0.7,0c-0.2-0.2-0.1-0.5,0-0.7
		c0,0,3.1-2.7,7.6-0.1c0.2,0.1,0.3,0.4,0.2,0.7C291.5,162.5,291.4,162.6,291.2,162.6z"/>
	<path class="st8" d="M292.1,160.7c-0.1,0-0.2,0-0.2-0.1c-4.9-2.9-8.1-0.2-8.2-0.1c-0.2,0.2-0.5,0.1-0.7-0.1c-0.2-0.2-0.2-0.5,0-0.7
		c0,0,3.9-3.3,9.4,0c0.2,0.1,0.3,0.4,0.2,0.7C292.4,160.6,292.2,160.7,292.1,160.7L292.1,160.7z"/>
	<path class="st8" d="M288.8,165c0,0.7-0.5,1.2-1.2,1.2s-1.2-0.5-1.2-1.2c0-0.7,0.5-1.2,1.2-1.2c0,0,0,0,0,0
		C288.2,163.8,288.7,164.3,288.8,165z"/>
</g>
<g id="freepik--Gears--inject-62">
	<path class="st9" d="M116.5,235.8l0.9-5.7c1.4-0.4,2.7-0.9,4-1.7l6.5,4.8l5.1-5.1l-4.8-6.5c0.7-1.3,1.3-2.6,1.6-4l8-1.2v-7.2
		l-8-1.2c-0.4-1.4-0.9-2.7-1.6-4l4.8-6.6l-5.1-5.1l-6.5,4.8c-1.3-0.7-2.6-1.3-4-1.7l-1.2-8h-7.2l-1.2,8c-1.4,0.4-2.7,1-4,1.7
		l-0.9-0.7 M100.8,195l-3.7-2.7l-5.1,5.1l4.8,6.5c-0.7,1.3-1.3,2.6-1.7,4l-8,1.2v7.2l8,1.2c0.4,1.4,0.9,2.7,1.7,4l-4.8,6.5l5.1,5.1
		l6.5-4.8c1.3,0.7,2.6,1.3,4,1.7l1.2,8h7.2 M110,223.9c-6.1-1.4-10-7.5-8.6-13.6c1.4-6.1,7.5-10,13.6-8.6c6.1,1.4,10,7.5,8.6,13.6
		c-1,4.5-4.7,8-9.3,8.7"/>
	<path class="st9" d="M90.7,238.4v-4.8l-5.3-0.8c-0.3-0.9-0.6-1.8-1.1-2.7l3.2-4.4l-3.5-3.4l-4.4,3.2c-0.8-0.5-1.7-0.8-2.6-1.1
		l-0.8-5.4h-4.8l-0.8,5.4c-0.9,0.3-1.8,0.6-2.7,1.1l-4.4-3.2l-3.4,3.4l3.2,4.4c-0.5,0.8-0.8,1.8-1.1,2.7l-5.3,0.8v4.8l5.3,0.8
		c0.3,0.9,0.6,1.8,1.1,2.7l-3.2,4.4l3.4,3.4l4.4-3.2c0.9,0.5,1.8,0.8,2.7,1.1l0.8,5.4h4.8l0.8-5.4c0.9-0.3,1.8-0.6,2.7-1.1l4.4,3.2
		l3.4-3.4l-3.2-4.3c0.5-0.8,0.8-1.7,1.1-2.7L90.7,238.4z M76.7,229c3.9,1.6,5.7,6.1,4.1,10s-6.1,5.7-10,4.1s-5.7-6.1-4.1-10
		c0.8-1.8,2.2-3.3,4.1-4.1"/>
	<path class="st9" d="M367.6,366.1l2.7-7.6L364,355l-4.9,6.4c-1.4-0.3-2.9-0.5-4.3-0.5l-3.5-7.3l-6.9,2l1.1,8
		c-1.2,0.8-2.4,1.7-3.4,2.7l-7.6-2.7L331,370l6.4,4.9c-0.3,1.4-0.5,2.9-0.5,4.3l-7.3,3.5l2,6.9l8-1.1c0.8,1.2,1.7,2.4,2.7,3.4
		l-2.7,7.6l6.4,3.5l4.9-6.4c1.4,0.3,2.9,0.5,4.3,0.5l3.4,7.3l6.9-2l-1.1-8c1.2-0.8,2.4-1.7,3.4-2.7l7.6,2.7l3.5-6.4l-6.4-4.9
		c0.3-1.4,0.5-2.9,0.5-4.3l7.3-3.5l-2-6.9l-8,1.1c-0.2-0.3-0.4-0.6-0.6-0.9 M346.5,386.6c-4.2-4.7-3.7-11.9,1-16.1
		c4.7-4.2,11.9-3.7,16.1,1c4.2,4.7,3.7,11.9-1,16.1c-3.1,2.7-7.4,3.6-11.3,2.2"/>
	<path class="st9" d="M342.9,347.6l4.2,2.3l3.3-4.3c0.9,0.2,1.9,0.3,2.9,0.3l2.3,4.9l4.6-1.4l-0.7-5.4c0.8-0.5,1.6-1.1,2.2-1.8
		l5.1,1.8l2.3-4.2l-4.3-3.3c0.2-0.9,0.3-1.9,0.3-2.9l4.9-2.3l-1.4-4.6l-5.4,0.7c-0.5-0.8-1.1-1.6-1.8-2.2l1.8-5.1l-4.2-2.3l-3.3,4.3
		c-0.9-0.2-1.9-0.3-2.9-0.3l-2.3-4.9l-4.6,1.4l0.7,5.4c-0.8,0.5-1.6,1.1-2.3,1.8l-5.1-1.8l-2.3,4.2l4.3,3.3
		c-0.2,0.9-0.3,1.9-0.3,2.9l-4.9,2.3l1.4,4.6l5.4-0.7c0.5,0.8,1.1,1.6,1.8,2.3L342.9,347.6z M355.4,341.1c-4,1.2-8.3-1-9.5-5.1
		s1-8.3,5.1-9.5s8.3,1,9.5,5.1c0.6,2,0.4,4.1-0.6,5.9c-0.2,0.4-0.5,0.8-0.7,1.1"/>
</g>
<g id="freepik--Floor--inject-62">
	<line class="st10" x1="27" y1="461" x2="474" y2="461"/>
</g>
<g id="freepik--Apps--inject-62">
	<path class="st11" d="M178.5,191.2H202c3,0,5.4,2.4,5.4,5.4v23.5c0,3-2.4,5.4-5.4,5.4h-23.5c-3,0-5.4-2.4-5.4-5.4v-23.5
		C173.1,193.6,175.5,191.2,178.5,191.2z"/>
	<path class="st12" d="M189.9,198.4V214c0,0-11.2-8.6-9.8,1.1c0.7,4.6,11,2.6,11,2.6v-13.4c1.6-0.2,3.2-0.6,4.7-1.1
		c2.9-1,6.2-4.8,6.2-4.8L189.9,198.4z"/>
	<path class="st13" d="M228.9,300.9h23.5c3,0,5.4,2.4,5.4,5.4v23.5c0,3-2.4,5.4-5.4,5.4h-23.5c-3,0-5.4-2.4-5.4-5.4v-23.5
		C223.6,303.3,226,300.9,228.9,300.9z"/>
	<rect x="228.5" y="309.9" class="st14" width="23.9" height="15.4"/>
	<polyline class="st15" points="228.5,309.9 240.3,319.9 252.3,310 	"/>
	<line class="st15" x1="228.5" y1="325.2" x2="237.1" y2="317.5"/>
	<line class="st15" x1="252.4" y1="325.2" x2="243.5" y2="317.5"/>
	<path class="st16" d="M278.7,191.2h23.5c3,0,5.4,2.4,5.4,5.4v23.5c0,3-2.4,5.4-5.4,5.4h-23.5c-3,0-5.4-2.4-5.4-5.4v-23.5
		C273.3,193.6,275.7,191.2,278.7,191.2z"/>
	
		<ellipse transform="matrix(0.7335 -0.6797 0.6797 0.7335 -64.2134 252.9389)" class="st16" cx="290.4" cy="208.4" rx="11" ry="11"/>
	<circle class="st17" cx="290.4" cy="208.3" r="9.2"/>
	<path class="st16" d="M290.5,203.4c0,1.9-1.6,3.5-3.5,3.5s-3.5-1.6-3.5-3.5s1.6-3.5,3.5-3.5C289,200,290.5,201.5,290.5,203.4
		L290.5,203.4z"/>
	<path class="st11" d="M178.5,247.7H202c3,0,5.4,2.4,5.4,5.4v23.5c0,3-2.4,5.4-5.4,5.4h-23.5c-3,0-5.4-2.4-5.4-5.4v-23.5
		C173.1,250.1,175.5,247.7,178.5,247.7z"/>
	<polygon class="st18" points="202.6,264.9 182.4,253.2 182.4,276.6 	"/>
	<path class="st11" d="M278.7,357.4h23.5c3,0,5.4,2.4,5.4,5.4v23.5c0,3-2.4,5.4-5.4,5.4h-23.5c-3,0-5.4-2.4-5.4-5.4v-23.5
		C273.3,359.8,275.7,357.4,278.7,357.4z"/>
	<path class="st18" d="M290.6,363.7c-6.9,0-12.6,4.5-12.6,10c0,3.6,2.4,6.7,5.9,8.5l-2.1,5.3l6.7-3.9c0.7,0.1,1.4,0.1,2.1,0.1
		c6.9,0,12.6-4.5,12.6-10S297.5,363.7,290.6,363.7z"/>
	<path class="st11" d="M278.7,247.7h23.5c3,0,5.4,2.4,5.4,5.4v23.5c0,3-2.4,5.4-5.4,5.4h-23.5c-3,0-5.4-2.4-5.4-5.4v-23.5
		C273.3,250.1,275.7,247.7,278.7,247.7z"/>
	<circle class="st18" cx="290.4" cy="264.9" r="11.8"/>
	<polyline class="st15" points="286.7,269.7 290.4,264.9 290.4,256.2 	"/>
	<path class="st16" d="M178.5,299.6H202c3,0,5.4,2.4,5.4,5.4v23.5c0,3-2.4,5.4-5.4,5.4h-23.5c-3,0-5.4-2.4-5.4-5.4V305
		C173.1,302,175.5,299.6,178.5,299.6z"/>
	<path class="st0" d="M186.7,315.6c0.1-0.1,0.3-0.2,0.5-0.1l5,2.5l4.9-6.9c0.1-0.2,0.4-0.2,0.6-0.1l3.9,2.2v-6.2h-22.8v16.1
		L186.7,315.6z M183.3,308.1c1.5,0,2.7,1.2,2.7,2.7s-1.2,2.7-2.7,2.7c-1.5,0-2.7-1.2-2.7-2.7l0,0
		C180.6,309.3,181.8,308.1,183.3,308.1z"/>
	<path class="st0" d="M201.6,314.3l-4-2.3l-4.9,6.9c-0.1,0.2-0.4,0.2-0.6,0.1l-5.1-2.5l-8.3,7.9v2.7h22.8L201.6,314.3L201.6,314.3z"
		/>
</g>
<g id="freepik--crane-2--inject-62">
	<polyline class="st10" points="278.9,191.2 290.7,180.2 290.7,93 	"/>
	<line class="st10" x1="290.7" y1="180.2" x2="303.5" y2="191.2"/>
	<path class="st19" d="M293.5,80.6v5.8l2.3,4.1c0,2.7-2.2,4.9-4.9,4.9l0,0c-2.7,0-4.9-2.2-4.9-4.9v-4.1"/>
	<rect x="288.8" y="69.4" class="st4" width="9.8" height="10.8"/>
	<rect x="285.2" y="54.9" class="st4" width="17" height="21.8"/>
	<rect x="280.3" y="65.8" class="st4" width="26.9" height="6.7"/>
	<polygon class="st8" points="293.7,65.8 289.8,65.8 284.4,72 285,72.5 287.8,72.5 	"/>
	<polygon class="st8" points="282.4,65.8 280.3,68.2 280.3,72.5 280.4,72.5 286.3,65.8 	"/>
	<polygon class="st8" points="301.1,65.8 297.2,65.8 291.8,72 292.4,72.5 295.2,72.5 	"/>
	<polygon class="st8" points="307.2,67.3 307.2,65.8 304.6,65.8 299.2,72 299.8,72.5 302.6,72.5 	"/>
	<line class="st20" x1="293.3" y1="54.5" x2="293.3" y2="41.4"/>
	<polyline class="st20" points="494.6,41.1 286.5,41.1 286.5,33.2 322.1,18.1 494.6,18.1 	"/>
	<polygon class="st20" points="322.1,41.1 322.1,18.1 345.6,41.1 345.6,18.1 	"/>
	<polygon class="st20" points="345.6,41.1 345.6,18.1 369.1,41.1 369.1,18.1 	"/>
	<polygon class="st20" points="369.1,41.1 369.1,18.1 392.7,41.1 392.7,18.1 	"/>
	<polygon class="st20" points="392.6,41.1 392.6,18.1 416.2,41.1 416.2,18.1 	"/>
	<polygon class="st20" points="416.1,41.1 416.1,18.1 439.7,41.1 439.7,18.1 	"/>
	<polygon class="st20" points="439.6,41.1 439.6,18.1 463.2,41.1 463.2,18.1 	"/>
	<polygon class="st20" points="463.1,41.1 463.1,18.1 486.7,41.1 486.7,18.1 	"/>
</g>
<g id="freepik--crane-1--inject-62">
	<polyline class="st21" points="202,299.4 190.2,288.4 190.2,132.3 	"/>
	<line class="st10" x1="190.2" y1="288.4" x2="177.5" y2="299.4"/>
	<path class="st19" d="M187.4,120.6v5.8l-2.3,4c0,2.7,2.2,4.9,4.9,4.9c0,0,0,0,0,0l0,0c2.7,0,4.9-2.2,4.9-4.9v-4"/>
	<rect x="182.4" y="109.5" class="st4" width="9.8" height="10.8"/>
	<rect x="178.8" y="94.9" class="st4" width="17" height="21.8"/>
	<rect x="173.7" y="105.8" class="st4" width="26.9" height="6.7"/>
	<polygon class="st8" points="187.3,105.8 191.1,105.8 196.6,112 196,112.5 193.2,112.5 	"/>
	<polygon class="st8" points="198.5,105.8 200.6,108.2 200.6,112.5 200.6,112.5 194.7,105.8 	"/>
	<polygon class="st8" points="179.9,105.8 183.7,105.8 189.2,112 188.6,112.5 185.8,112.5 	"/>
	<polygon class="st8" points="173.7,107.3 173.7,105.8 176.3,105.8 181.8,112 181.2,112.5 178.3,112.5 	"/>
	<line class="st20" x1="187.6" y1="94.5" x2="187.6" y2="81.4"/>
	<polyline class="st20" points="10.4,81.1 194.4,81.1 194.4,73.2 158.8,58.2 10.4,58.2 	"/>
	<polygon class="st20" points="158.8,81.1 158.8,58.2 135.3,81.1 135.3,58.2 	"/>
	<polygon class="st20" points="135.3,81.1 135.3,58.2 111.8,81.1 111.8,58.2 	"/>
	<polygon class="st20" points="111.8,81.1 111.8,58.2 88.3,81.1 88.3,58.2 	"/>
	<polygon class="st20" points="88.3,81.1 88.3,58.2 64.8,81.1 64.8,58.2 	"/>
	<polygon class="st20" points="64.8,81.1 64.8,58.2 41.3,81.1 41.3,58.2 	"/>
	<polygon class="st20" points="41.3,81.1 41.3,58.2 17.8,81.1 17.8,58.2 	"/>
</g>
<g id="freepik--Plant--inject-62">
	<path class="st22" d="M53.6,390.2c2.4,1,8.1,0.9,8.1,0.9s-1.2-3.8-1.3-4c-1.3-2.6-5.3-7-8.5-6.6c-2.1,0.4-3.6,2.4-3.2,4.5
		c0,0.1,0.1,0.3,0.1,0.4C49.2,387.6,51.6,389.3,53.6,390.2z"/>
	<path class="st22" d="M55.6,406.9c2.5,0.4,7.6-1.1,8-1.3c0.9,3,1.9,5.8,3.1,8.7c0.7,1.6,1.5,3.3,2.3,4.9c-0.5-0.7-0.9-1.3-1-1.4
		c-1.9-2.2-7-5.4-10-4.1c-2,0.9-2.8,3.2-1.9,5.1c0.1,0.1,0.1,0.3,0.2,0.4c1.1,2,3.8,3,6,3.4s6.6-0.9,7.8-1.2
		c0.3,0.6,0.6,1.2,0.9,1.9c1.5,3,3,5.9,4.4,8.9c0.5,1,0.9,2.1,1.4,3.1c-0.4-0.6-0.8-1.1-0.8-1.2c-1.9-2.2-6.9-5.4-10-4.1
		c-2,0.9-2.8,3.2-1.9,5.2c0.1,0.1,0.1,0.2,0.2,0.4c1.1,2,3.8,3,6,3.4s6.2-0.8,7.6-1.1c0.4,1.1,0.9,2.2,1.2,3.2
		c0.2,0.7,0.5,1.4,0.7,2.2s0.4,1.5,0.6,2.2c0.3,1.4,0.7,2.9,1,4.2c0.2,1,0.4,1.9,0.6,2.8c-0.5-1-1.4-3.1-1.5-3.2
		c-1.6-2.5-6-6.4-9.2-5.6c-2.1,0.6-3.3,2.7-2.7,4.8c0,0.1,0.1,0.3,0.1,0.4c0.8,2.2,3.3,3.6,5.4,4.2c2.3,0.7,7.4,0.1,8.1,0
		c0.3,1.5,0.6,3,0.8,4.4c0.2,1,0.3,2,0.5,3h2.1c-0.2-1.1-0.4-2.2-0.6-3.4c-0.3-1.5-0.7-3.2-1-4.9c1.5-0.6,3-1.3,4.5-2.1
		c1.7,1.8,6,4,6.6,4.2c-0.6,1.5-1.2,2.8-1.8,4.2l-0.9,2h2.2l0.5-1.2c0.6-1.5,1.2-3,1.8-4.7c0.6,0.1,5.7,1.2,8.1,0.6
		c2.1-0.5,4.7-1.7,5.7-3.8c1-1.9,0.2-4.3-1.8-5.2c-0.1-0.1-0.3-0.1-0.4-0.2c-3.1-1-7.9,2.5-9.6,4.9c-0.1,0.1-1,1.8-1.6,2.8
		c0.2-0.7,0.5-1.3,0.8-2c0.5-1.4,1-2.7,1.4-4.2c0.2-0.7,0.4-1.5,0.7-2.2s0.4-1.5,0.6-2.3c0.4-1.8,0.8-3.6,1.1-5.5
		c1.2,0.4,5.4,1.9,7.6,1.8s4.9-1,6.2-2.9c1.2-1.8,0.8-4.2-1-5.4c-0.1-0.1-0.2-0.1-0.3-0.2c-2.9-1.5-8.2,1.3-10.2,3.4
		c-0.1,0.1-1.5,1.8-2.2,2.7c0.2-1.1,0.3-2.2,0.5-3.4c0.4-3.3,0.7-6.6,1-9.9c0.1-1,0.2-2,0.3-3c0.4,0.2,5.4,2,7.9,1.9
		c2.2-0.1,4.9-1,6.2-2.9c1.2-1.8,0.8-4.2-1-5.4c-0.1-0.1-0.2-0.2-0.4-0.2c-2.9-1.5-8.2,1.3-10.2,3.3c-0.2,0.2-2.1,2.5-2.5,3.2
		c0.2-2.2,0.5-4.4,0.8-6.6c0.4-2.9,1.1-5.8,1.9-8.7c0.2,0.1,5.4,2,7.9,1.9c2.2-0.2,4.9-1,6.2-2.9c1.2-1.8,0.8-4.2-1-5.4
		c-0.1-0.1-0.2-0.2-0.4-0.2c-2.9-1.5-8.2,1.3-10.2,3.4c-0.2,0.2-2.2,2.7-2.6,3.2c0-0.2,0.1-0.3,0.1-0.5c0.9-2.8,2.1-5.6,3.4-8.2
		c0.8-1.5,1.6-2.8,2.3-4.1c0.9,0.5,5.2,2.5,7.5,2.6s5-0.4,6.5-2.2c1.4-1.6,1.3-4.1-0.3-5.5c-0.1-0.1-0.2-0.2-0.3-0.3
		c-2.7-1.8-8.2,0.4-10.6,2.2c-0.1,0.1-1.3,1.2-2.1,2.1c0.4-0.6,0.8-1.2,1.1-1.7c1.4-2.1,2.8-3.9,4-5.5c0.7-0.9,1.4-1.7,2-2.5
		c1.2,0,5.8-0.2,7.8-1.1s4.3-2.7,4.7-4.9c0.5-2.1-0.8-4.2-2.9-4.7c-0.1,0-0.3-0.1-0.4-0.1c-3.3-0.4-7.2,4.1-8.3,6.8
		c-0.1,0.2-1.3,4-1.2,4h0.1c-0.6,0.7-1.3,1.5-2,2.3c-1.3,1.6-2.7,3.4-4.1,5.4c-1.6,2.2-3,4.5-4.3,6.8c-1.5,2.6-2.7,5.4-3.7,8.2v0.1
		c0-1,0-3.7,0-3.9c-0.4-2.9-2.8-8.3-6.1-8.9c-2.1-0.3-4.1,1.1-4.5,3.2c0,0.1,0,0.3,0,0.4c-0.2,2.3,1.5,4.6,3.1,6.1
		c1.8,1.6,7,3.2,7.4,3.4c-0.9,2.9-1.6,5.9-2.2,8.9c-0.3,1.8-0.6,3.5-0.8,5.3c0-0.8,0-1.6,0-1.7c-0.4-2.9-2.8-8.3-6-8.9
		c-2.1-0.4-4.1,1-4.5,3.1c0,0.2-0.1,0.4-0.1,0.6c-0.2,2.3,1.5,4.6,3.1,6.1s6,2.9,7.2,3.3c-0.1,0.7-0.2,1.4-0.3,2.1
		c-0.4,3.3-0.8,6.6-1.2,9.8c-0.2,1.1-0.4,2.2-0.6,3.4c0-0.7,0-1.4,0-1.5c-0.4-2.9-2.8-8.3-6-8.9c-2.1-0.3-4.1,1.1-4.4,3.2
		c0,0.1,0,0.3,0,0.4c-0.2,2.3,1.5,4.6,3.1,6.1s5.6,2.8,6.9,3.2c-0.2,1.1-0.5,2.3-0.8,3.4c-0.2,0.7-0.4,1.5-0.6,2.2l-0.7,2.2
		c-0.5,1.4-1,2.8-1.5,4.1c-0.3,0.9-0.7,1.8-1.1,2.6c0.2-1.1,0.5-3.3,0.5-3.5c0-2.6-0.7-5.1-2-7.4c0-0.3,0-0.6,0-0.9
		c-0.3-2.1-2.2-3.6-4.3-3.4c-0.1,0-0.3,0-0.4,0.1c-3.2,0.8-5.2,6.4-5.3,9.4c0,0.2,0.1,2.1,0.2,3.2c-0.2-0.7-0.3-1.4-0.5-2.1
		c-0.3-1.4-0.7-2.8-1.1-4.3l-0.7-2.2c-0.2-0.7-0.5-1.5-0.8-2.2c-0.6-1.7-1.3-3.4-2.1-5.1c1.2-0.3,5.6-1.4,7.3-2.8s3.6-3.5,3.6-5.9
		c0.1-2.1-1.6-3.9-3.8-4c-0.1,0-0.3,0-0.4,0c-3.3,0.4-6.1,5.6-6.7,8.4c0,0.2-0.2,2.3-0.3,3.5c-0.5-1-0.9-2-1.4-3.1
		c-1.5-3-3-5.9-4.6-8.8c-0.5-0.9-0.9-1.8-1.4-2.7c0.4-0.1,5.6-1.3,7.6-2.8c1.7-1.3,3.6-3.5,3.6-5.8c0.1-2.1-1.6-3.9-3.7-4
		c-0.2,0-0.3,0-0.5,0c-3.3,0.4-6.1,5.6-6.7,8.5c0,0.2-0.3,3.2-0.3,4c-1-2-2-4-3-6c-1.3-2.7-2.3-5.5-3.2-8.3c0.2,0,5.6-1.3,7.7-2.8
		c1.7-1.3,3.6-3.5,3.6-5.8c0.1-2.2-1.6-4-3.8-4c-0.1,0-0.3,0-0.4,0c-3.3,0.4-6.1,5.6-6.7,8.5c0,0.2-0.3,3.5-0.3,4.1
		c0-0.2-0.1-0.3-0.2-0.5c-0.8-2.9-1.4-5.8-1.7-8.8c-0.2-1.6-0.3-3.2-0.3-4.7c1-0.1,5.8-0.8,7.7-1.9s4-3.1,4.2-5.4
		c0.3-2.1-1.2-4.1-3.3-4.4c-0.1,0-0.3,0-0.4,0c-3.3,0-6.7,4.9-7.6,7.6c0,0.2-0.4,1.8-0.6,2.9c0-0.7,0-1.4,0-2.1
		c0-2.5,0.2-4.8,0.3-6.8c0.1-1.1,0.2-2.2,0.3-3.1c1-0.7,4.8-3.3,5.9-5.3s2.1-4.6,1.2-6.7c-0.7-2-3-3.1-5-2.4c-0.1,0-0.3,0.1-0.4,0.2
		c-2.9,1.5-3.7,7.4-3.2,10.3c0,0.2,1.2,4.1,1.2,4.1h0.1c-0.1,0.9-0.3,1.9-0.4,3c-0.2,2-0.4,4.3-0.5,6.8c-0.1,2.7,0,5.4,0.2,8.1
		c0.2,3,0.7,6,1.5,8.9c0,0,0,0.1,0,0.1c-0.5-0.8-2-3-2.2-3.2c-1.9-2.2-6.9-5.4-10-4.1c-2,0.9-2.8,3.2-1.9,5.2
		c0.1,0.1,0.1,0.3,0.2,0.4C50.7,405.6,53.4,406.6,55.6,406.9z"/>
	<path class="st22" d="M112,391.5c0.1,0,1.1-3.8,1.1-4.1c0.4-2.9-0.5-8.8-3.5-10.2c-2-0.9-4.3,0-5.2,2c-0.1,0.1-0.1,0.3-0.1,0.4
		c-0.8,2.2,0.2,4.9,1.4,6.7C107.1,388.4,112,391.5,112,391.5z"/>
</g>
<g id="freepik--Character--inject-62">
	<path class="st4" d="M410.3,257.6c0,0-4.5,6.5-4.3,7.4s1.2,0.9,0.2,2.1s-3.2,3.4-3.3,4.6c0.1,1,0.5,1.9,1.1,2.6
		c0,0-1.1,5.2-0.7,6.4s4.3,2,4.3,2l-1,3.8l11.3,3.2l1.9-6.8l6.7-20.7L410.3,257.6z"/>
	<path class="st6" d="M425.5,256.8c-0.7-0.1-3.7-2.3-8.1-3.1s-6.1,1-6.6,2.8c-0.5,1.8-1.5,0.9-0.2,2.1s-1,2.4-1,2.4
		c0.1,0.7-0.1,1.4-0.5,2c-0.6,1.3,1.3,3.7,1.3,3.7c-0.4,0.9-0.7,1.8-0.9,2.8c0,0.8,0.7,1.2,1.3,0.8s1.8-2.9,1.9-1.7
		s-1.3,10.1-0.5,11.5s5.9,2.6,7.4,2.8s6.2-4.7,8.6-7.7s4.1-9.3,3.3-12.7C430.8,259.7,428.5,257.5,425.5,256.8z"/>
	<path class="st4" d="M411.6,268.1c-0.3,1.4-0.6,2.7-1,4c-0.5,1.5-1.9,2-1.4,2.9s1.1,0.8,2-0.2c1-1.2,1.8-2.6,2.2-4.1
		C413.6,269.4,414.4,266.8,411.6,268.1z"/>
	<path class="st23" d="M412.6,273c1.8,1.4,3.8,2.6,6,3.5c3,1.1,6.3,1.5,9.5,1.1c1-0.1,1.9-0.5,2.7-1.2c0.8-1,0.8-3.1,0.8-3.7
		s3.4-6.6,0.5-12.6s-15.3-9.8-17.6-9.4s-6.4,6.6-6.4,6.6s-4.7,0.9-4.7,2.9c0,2.5,2.6,3.3,3.5,5.7C408.1,268.7,410.1,271.2,412.6,273
		z"/>
	<path class="st10" d="M410.6,258.7c0,0,4.7-5.2,5.7-5.7c0.7-0.3,3.6-0.1,6.7,1.7"/>
	<path class="st4" d="M405.2,286.4l-3.2,5.9c0,0,8.1-2.4,12.5-2.4c3.1,0.1,6.2,0.4,9.2,0.9l-2.1-5.7
		C421.7,285.1,410.5,283.9,405.2,286.4z"/>
	<path class="st4" d="M435.6,363.8c0,2.5-0.1,4.9-0.4,7.3c-0.4,2.2-3.4,5.6-4.5,6.2s-2.6,0.7-2.9,0s-0.7-0.4-0.3-4.3
		s2.1-11.2,2.1-11.2L435.6,363.8z"/>
	<path class="st11" d="M436.6,359.1l-1,4.7c-1.3,0.3-2.5,0.3-3.8,0.1c-1.1-0.2-2-1-2.4-2l0.4-4.1L436.6,359.1z"/>
	<path class="st11" d="M435.9,295.9c0,0,2.1,12.5,3.4,21.7c1.1,7.4,1.6,15,1.3,22.5c-0.3,4.4-2.1,18.6-2.6,19.6s-4.5,1.5-6.2,0.7
		s-2.4-1.6-2.4-4.4s1.5-28.8,1.5-28.8L435.9,295.9z"/>
	<path class="st6" d="M404.2,457.2c-0.6,0-1.1,0.1-1.7,0.4c-0.9,0.5-4.6,1.5-7.1,2.4c-3.8,1.4-6.8,0.6-6.5,1.6s6.2,3,9.7,3
		s5.1-0.8,6.7-0.8s0.4,0.8,3.1,1.1s3.6,0.3,4.6-1.2s1.5-1.9,1.2-3.8v0c-0.3-1.7-1.8-2.9-3.5-2.9L404.2,457.2z"/>
	<path class="st6" d="M425.4,455.4c-0.5,0-1,0.1-1.4,0.4c-0.8,0.5-4,1.5-6.1,2.3c-3.3,1.3-5.9,0.4-5.6,1.5s3.8,2.5,6.8,2.7
		c1.6,0.1,3.2,0,4.8-0.2c3.2-0.2,1.2,1,2.3,1.4c0.8,0.3,1.7,0.4,2.5,0.4c3.4,0.2,3.8,0.5,4.6-1.1s1.2-2,0.9-4v-0.1
		c-0.2-1.7-1.5-3-3.1-3.2L425.4,455.4z"/>
	<path class="st24" d="M394.9,348.9c0,0,0.6,20.6,0.6,27.5s1.8,38.1,4.1,49.4c1.8,9.7,3.1,19.5,3.7,29.3c0,1.8-0.6,2.2,0.6,3.4
		s5.6,3.4,7.2,2.6s2.5-3.5,2.5-3.5s0-15.3,0.5-25.3s-0.3-23-0.3-23s5.7,26.4,7.3,31.7s2.9,14.9,3.2,16.8s1.6,2,3.2,2
		c2,0,4.4-0.3,5.3-1.7s-1-16.9-1-23s-4.8-44.5-4.4-53.9s3.2-25.7,2.4-30.5c-0.5-2.9-0.8-5.8-0.9-8.7
		C428.9,341.7,398.6,338.3,394.9,348.9z"/>
	<path class="st4" d="M362.1,253c0,0,0.6-1,1.4-2.7c0.6-1.6,0.8-3.3,0.7-4.9c0-1.1,1.3-1.6,1.3-2.8s-1.8-1.1-2.8-0.3
		s-1.3,3.4-1.3,3.4s-1.6-2.6-2.4-4.5c-0.8-1.7-1.8-4.6-3.2-5s-1.4,1.3-1.2,1.7c0.2,0.8,0.5,1.6,0.9,2.4c0.3,0.6,1,2.6,1,2.6
		s-2-1.6-2.7-1.6c-0.6,0-1,0.4-1,1c0,0.2,0.1,0.4,0.2,0.6c0,0-1.7,0.7-1.3,1.8s0.6,1.6,0.6,1.6s-0.4,0.6,0,2s2.3,3.8,3,5
		c0.4,0.7,0.9,1.2,1.6,1.7L362.1,253z"/>
	<path class="st10" d="M353,242.8c0.5,0.7,1,1.3,1.6,1.9"/>
	<path class="st10" d="M352.2,246.2c0.3,0.5,0.6,0.9,1,1.3"/>
	<path class="st11" d="M357.8,260.3l-2.5-5.4c1-1.4,2.5-2.4,4.3-2.6c3.1-0.6,3.5,0,3.5,0l1.6,5.6
		C364.7,257.8,359.4,258.2,357.8,260.3z"/>
	<path class="st11" d="M392.3,289.2l-19.6-18.9c0,0-4.5-7.8-5.7-10.6s-2.8-3.5-5.4-3.2s-5,3.1-5,5.1c0,1.2,3,8.2,5.7,14.3
		c0.1,0.4,4,12.4,6.2,13.2s25.1,24.7,25.1,24.7l8.4-21.6L392.3,289.2z"/>
	<path class="st25" d="M390,309.7c1.2,11.6,0.7,42,0.7,44.1c0,2.5-0.1,2.6,0.7,3.4s9.2,1,17.3,0.9s18.2-1.8,18.9-1.8
		c1.2-0.1,2.3-0.7,2.9-1.8c0.5-0.7,5.3-30.7,6.7-44.5c1.2-11.4-1.5-13.8-1.4-14.1c0.1-0.6-11.6-4.9-12.6-5.1s-6.9-4.3-20.1,0.7
		c0,0-5.4-1.7-7.4-0.9c0,0,3.8,7.6,1,14.9S390,309.7,390,309.7z"/>
	<path class="st17" d="M390.9,338.3c0,1.9,0,3.6,0,5.3c5.4-0.5,22.3-2.1,42.1-2.1c0.3-1.7,0.5-3.4,0.8-5.3
		C414,336.2,397,337.7,390.9,338.3z"/>
	<path class="st17" d="M390.8,330.4c6.3-0.6,26.2-2.4,44.1-1.4c1-7,2-14.1,2.5-19c1.2-11.4-1.5-13.8-1.4-14.1s-3.1-1.6-6.3-2.8
		c1.2,2.1,3.4,7.1,3.2,15.7c-0.1,5.8-0.6,11-1.1,14.8c-7.7-0.3-15.4-0.2-22.3,0.1c0.1-3,0.1-6.6,0.1-10.6
		c-0.1-7.6-1.7-15.2-4.5-22.3c-0.6,0.2-1.2,0.4-1.8,0.6c-1.3-0.4-2.7-0.7-4.1-1c3.2,7.1,5,14.9,5.2,22.7c0.1,4.1,0,7.7-0.1,10.8
		c-5.9,0.4-10.6,0.8-13.4,1.1C390.8,326.9,390.8,328.6,390.8,330.4z"/>
	<path class="st10" d="M426.2,321.5c-4.2,6-10.8,14.8-16,18.2"/>
	<path class="st10" d="M430.3,315.3c0,0-0.8,1.2-2,3.1"/>
	<path class="st10" d="M418.2,336.2c-3.3,3-6.8,5.6-10.6,7.9"/>
	<path class="st6" d="M426.4,432c1.6,1.6,3.4,3,5.5,4c0-0.4,0-0.8,0-1.2c0-6.2-4.9-44.4-4.4-53.8c0.1-1.7,0.2-3.6,0.4-5.7
		c-0.2-0.4-0.4-0.8-0.6-1.2c-2.4-3.7-4.6-7.6-6.5-11.6l7.6,7.3c0.1-0.5,0.1-1.1,0.2-1.7c-2-3.6-4.7-8.7-4.9-10.2l-9,4.9
		c0,0-1.2,34.9-1,46.3c0,0,0.9,4,2,9.2C418.5,424.6,423.5,429,426.4,432z"/>
	<path class="st10" d="M406.2,452.7c0.2,2.3,0.2,4.5-0.1,6.8"/>
	<path class="st10" d="M405.5,444.3c0.1,2,0.3,3.7,0.4,5.1"/>
	<path class="st10" d="M401.7,367.9c0.4,14.7,1.2,47,2,54.3c0.6,5.2,1.1,12.4,1.5,18.6"/>
</g>
</svg>
