<?xml version="1.0" encoding="utf-8"?>
<!-- Generator: Adobe Illustrator 26.2.1, SVG Export Plug-In . SVG Version: 6.00 Build 0)  -->
<svg version="1.1" id="Layer_1" xmlns="http://www.w3.org/2000/svg" xmlns:xlink="http://www.w3.org/1999/xlink" x="0px" y="0px"
	 viewBox="0 0 500 500" style="enable-background:new 0 0 500 500;" xml:space="preserve">
<style type="text/css">
	.st0{fill:#F07167;}
	.st1{opacity:0.7;fill:#FFE1DD;stroke:#FFE1DD;stroke-miterlimit:10;enable-background:new    ;}
	.st2{opacity:0.3;}
	.st3{fill:none;stroke:#000000;stroke-linecap:round;stroke-linejoin:round;}
	.st4{opacity:0.3;fill:none;stroke:#000000;stroke-linecap:round;stroke-linejoin:round;enable-background:new    ;}
	.st5{fill:none;stroke:#263238;stroke-linecap:round;stroke-linejoin:round;}
	.st6{fill:#FFFFFF;}
	.st7{fill:#FDFCDC;}
	.st8{fill:#263238;}
	.st9{fill:none;stroke:#263238;stroke-width:3;stroke-linecap:round;stroke-linejoin:round;}
	.st10{fill:#D94F04;stroke:#263238;stroke-linecap:round;stroke-linejoin:round;}
	.st11{fill:#FFFFFF;stroke:#263238;stroke-linecap:round;stroke-linejoin:round;}
	.st12{fill:#263238;stroke:#263238;stroke-linecap:round;stroke-linejoin:round;}
	.st13{fill:#007172;stroke:#263238;stroke-linecap:round;stroke-linejoin:round;}
	.st14{fill:none;stroke:#FFFFFF;stroke-linecap:round;stroke-linejoin:round;}
	.st15{fill:none;stroke:#007172;stroke-width:2;stroke-miterlimit:10;}
	.st16{fill:#D94F04;stroke:#007172;stroke-miterlimit:10;}
	.st17{fill:none;stroke:#007172;stroke-width:0.5;stroke-miterlimit:10;}
	.st18{fill:#007172;stroke:#007172;stroke-width:2;stroke-miterlimit:10;}
	.st19{fill:#CBDAD5;}
	.st20{fill:#CBDAD5;stroke:#263238;stroke-linecap:round;stroke-linejoin:round;}
</style>
<g id="freepik--background-simple--inject-67">
	<path class="st0" d="M438.6,430.1c5.1-3.2,9.6-7.2,13.4-11.8c28.6-34.7,28.3-83.6,26.4-125.7c-2.3-49.7-11.1-99.5-36.6-143.4
		c-24.5-42.3-61.4-78.2-107.7-97.4c-12.8-5.3-26.1-9.3-39.7-11.8c-25.2-4.9-51.2-3.7-75.8,3.5c-9.3,2.8-18.5,6.3-27.4,10.3
		c-60.8,27.2-69.3,83-92.9,139c-16.8,39.6-56.1,65.5-72.8,105.1C6.8,342.3,36.8,390.9,75,414.7c8.8,5.4,18.1,10,27.8,13.5
		c90.9,33.5,193.5,43.7,288.1,19.4C406.9,443.5,424.5,439.1,438.6,430.1z"/>
	<path class="st1" d="M438.6,430.1c5.1-3.2,9.6-7.2,13.4-11.8c28.6-34.7,28.3-83.6,26.4-125.7c-2.3-49.7-11.1-99.5-36.6-143.4
		c-24.5-42.3-61.4-78.2-107.7-97.4c-12.8-5.3-26.1-9.3-39.7-11.8c-25.2-4.9-51.2-3.7-75.8,3.5c-9.3,2.8-18.5,6.3-27.4,10.3
		c-60.8,27.2-69.3,83-92.9,139c-16.8,39.6-56.1,65.5-72.8,105.1C6.8,342.3,36.8,390.9,75,414.7c8.8,5.4,18.1,10,27.8,13.5
		c90.9,33.5,193.5,43.7,288.1,19.4C406.9,443.5,424.5,439.1,438.6,430.1z"/>
</g>
<g id="freepik--Graphics--inject-67">
	<g class="st2">
		<circle class="st3" cx="380.8" cy="115.3" r="3.8"/>
		<circle class="st3" cx="45.6" cy="180.2" r="3.8"/>
		<circle class="st3" cx="333.1" cy="377.9" r="3.8"/>
		<circle class="st3" cx="52.3" cy="346.4" r="3.8"/>
		<line class="st3" x1="311.3" y1="181.9" x2="303.2" y2="190"/>
		<line class="st3" x1="311.3" y1="190" x2="303.2" y2="181.9"/>
		<line class="st3" x1="282.2" y1="414.9" x2="290.3" y2="423"/>
		<line class="st3" x1="290.3" y1="414.9" x2="282.2" y2="423"/>
		<line class="st3" x1="27.2" y1="232.5" x2="35.3" y2="240.6"/>
		<line class="st3" x1="35.3" y1="232.5" x2="27.2" y2="240.6"/>
		<line class="st3" x1="326.1" y1="43.5" x2="334.2" y2="51.6"/>
		<line class="st3" x1="334.2" y1="43.5" x2="326.1" y2="51.6"/>
		<line class="st3" x1="129.4" y1="50.1" x2="137.5" y2="58.2"/>
		<line class="st3" x1="137.5" y1="50.1" x2="129.4" y2="58.2"/>
	</g>
</g>
<g id="freepik--Gears--inject-67">
	<path class="st4" d="M72.9,405.7l2.6-7.3l-6-3.3l-4.7,6.1c-1.3-0.3-2.7-0.5-4.1-0.4l-3.3-7l-6.6,1.9l1,7.7
		c-1.2,0.7-2.3,1.6-3.2,2.6l-7.3-2.6l-3.3,6l6.1,4.7c-0.3,1.3-0.5,2.7-0.5,4.1l-7,3.3l1.9,6.6l7.7-1c0.7,1.2,1.6,2.3,2.6,3.2
		l-2.6,7.3l6,3.3l4.7-6.1c1.3,0.3,2.7,0.5,4.1,0.5l3.3,7l6.6-1.9l-1-7.7c1.2-0.7,2.3-1.6,3.2-2.6l7.3,2.6l3.3-6l-6.1-4.7
		c0.3-1.3,0.5-2.7,0.4-4.1l7-3.3l-1.9-6.6l-7.7,1c-0.2-0.3-0.4-0.6-0.6-0.9 M52.7,425.2c-4-4.5-3.5-11.4,1-15.4s11.4-3.5,15.4,1
		s3.5,11.4-1,15.4c-3,2.6-7.1,3.4-10.8,2.1"/>
	<path class="st4" d="M49.4,388l4,2.2l3.2-4.1c0.9,0.2,1.8,0.3,2.8,0.3l2.2,4.7l4.4-1.3l-0.7-5.1c0.8-0.5,1.5-1.1,2.2-1.7l4.9,1.8
		l2.2-4l-4.1-3.1c0.2-0.9,0.3-1.8,0.3-2.8l4.7-2.2l-1.3-4.4l-5.1,0.7c-0.5-0.8-1.1-1.5-1.7-2.2l1.8-4.8l-4-2.2l-3.1,4.1
		c-0.9-0.2-1.8-0.3-2.8-0.3l-2.2-4.7l-4.5,1.3l0.7,5.1c-0.8,0.5-1.5,1.1-2.2,1.7l-4.9-1.8l-2.2,4l4.1,3.1c-0.2,0.9-0.3,1.8-0.3,2.8
		l-4.6,2.2l1.3,4.4l5.1-0.7c0.5,0.8,1.1,1.5,1.8,2.2L49.4,388z M61.3,381.8c-3.8,1.2-7.9-1-9.1-4.9s1-7.9,4.9-9.1
		c3.8-1.2,7.9,1,9.1,4.9c0.6,1.9,0.4,3.9-0.6,5.6c-0.2,0.4-0.4,0.7-0.7,1.1"/>
	<path class="st4" d="M321.2,124.9l2.6-7.3l-6-3.3l-4.7,6.1c-1.3-0.3-2.7-0.5-4.1-0.4l-3.3-7L299,115l1,7.7
		c-1.2,0.7-2.3,1.6-3.2,2.6l-7.3-2.6l-3.3,6l6.1,4.7c-0.3,1.3-0.5,2.7-0.5,4.1l-7,3.3l2,6.6l7.6-1c0.7,1.2,1.6,2.3,2.6,3.2l-2.6,7.3
		l6,3.3l4.7-6.1c1.3,0.3,2.7,0.5,4.1,0.4l3.3,7l6.6-1.9l-1-7.7c1.2-0.7,2.3-1.6,3.2-2.6l7.3,2.6l3.3-6l-6.1-4.7
		c0.3-1.4,0.5-2.7,0.4-4.1l7-3.3l-1.9-6.6l-7.7,1c-0.2-0.3-0.4-0.6-0.6-0.8 M301,144.5c-4-4.5-3.5-11.4,1-15.3
		c4.5-4,11.4-3.5,15.3,1c4,4.5,3.5,11.4-1,15.3c-3,2.6-7.1,3.4-10.8,2.1"/>
	<path class="st4" d="M297.6,107.3l4,2.2l3.1-4.1c0.9,0.2,1.8,0.3,2.8,0.3l2.2,4.7l4.4-1.3l-0.7-5.1c0.8-0.5,1.5-1.1,2.1-1.7
		l4.9,1.8l2.2-4.1l-4.1-3.1c0.2-0.9,0.3-1.8,0.3-2.7l4.7-2.2l-1.3-4.4l-5.1,0.7c-0.5-0.8-1.1-1.5-1.8-2.2l1.7-4.9l-4-2.2l-3.2,4.1
		c-0.9-0.2-1.8-0.3-2.8-0.3l-2.2-4.7l-4.4,1.3l0.7,5.1c-0.8,0.5-1.5,1.1-2.1,1.8l-4.9-1.8l-2.2,4l4.1,3.1c-0.2,0.9-0.3,1.8-0.3,2.8
		l-4.7,2.2l1.3,4.4l5.1-0.7c0.5,0.8,1.1,1.5,1.7,2.2L297.6,107.3z M309.6,101.1c-3.9,1.2-7.9-1-9.1-4.8s1-7.9,4.8-9.1
		c3.9-1.2,7.9,1,9.1,4.8c0.6,1.9,0.4,3.9-0.6,5.6c-0.2,0.4-0.4,0.7-0.7,1.1"/>
</g>
<g id="freepik--Floor--inject-67">
	<line class="st5" x1="31.2" y1="453.1" x2="469.4" y2="453.1"/>
</g>
<g id="freepik--Device--inject-67">
	<path class="st6" d="M70.7,427V104.9c0-11.3,9.2-20.5,20.5-20.5h146.3c11.3,0,20.5,9.2,20.5,20.5V427c0,11.3-9.2,20.5-20.5,20.5
		H91.2C79.9,447.5,70.7,438.4,70.7,427z"/>
	<path class="st7" d="M258,103.9c0-4.5-1.5-8.9-4.4-12.3c-9.4,4.5-22.8,14.2-40.1,34.4c-37.3,43.4-48.7,148.4-92.9,194
		c-18.9,19.5-36.2,31.6-49.9,38.9v69c0,10.8,8.8,19.6,19.6,19.6h137.3c0.9-1.1,1.8-2.3,2.6-3.5c10.3-14.2,19.8-26.2,27.8-35.7V103.9
		z"/>
	<path class="st7" d="M70.7,103.9v83.8c15.2-6.8,33.7-19.7,46.9-44.3c13.4-24.8,30.6-45.1,44.4-59.1H90.3
		C79.5,84.4,70.7,93.1,70.7,103.9z"/>
	<path class="st8" d="M85.2,92.2c0,2.2-2.5,3-2.5,4.7v0.1h2.4v0.7h-3.2v-0.6c0-2.4,2.5-2.8,2.5-4.9c0-0.8-0.3-1.2-0.9-1.2
		s-0.9,0.4-0.9,1.1v0.7h-0.8v-0.6c0-1.1,0.5-1.9,1.7-1.9S85.2,91.1,85.2,92.2z"/>
	<path class="st8" d="M89.2,92.2v0.2c0.1,0.6-0.3,1.3-0.9,1.5c0.6,0.3,1,0.9,0.9,1.5V96c0,1.1-0.5,1.9-1.7,1.9s-1.7-0.7-1.7-1.9
		v-0.5h0.8v0.6c0,0.7,0.3,1.1,0.9,1.1s0.9-0.4,0.9-1.1v-0.6c0-0.7-0.3-1.1-0.9-1.1H87v-0.7h0.5c0.5,0,0.9-0.4,0.9-0.9
		c0,0,0-0.1,0-0.1v-0.3c0-0.8-0.3-1.2-0.9-1.2s-0.9,0.4-0.9,1.1v0.4h-0.8v-0.3c0-1.1,0.5-1.8,1.7-1.8S89.2,91.1,89.2,92.2z"/>
	<path class="st8" d="M90.8,92.8v1H90v-1H90.8z M90.8,96.8v1H90v-1H90.8z"/>
	<path class="st8" d="M92.4,93.4c0.2-0.4,0.6-0.6,1.1-0.6c0.9,0,1.4,0.7,1.4,1.7V96c0,1.1-0.5,1.9-1.7,1.9s-1.6-0.7-1.6-1.9v-0.5
		h0.8v0.6c0,0.7,0.3,1.1,0.9,1.1s0.9-0.4,0.9-1.1v-1.4c0-0.7-0.3-1.1-0.9-1.1c-0.4,0-0.8,0.3-0.8,0.7c0,0,0,0,0,0v0.2h-0.8l0.2-4.1
		h2.9v0.7h-2.2L92.4,93.4z"/>
	<path class="st8" d="M99,92.2v0.1h-0.8v-0.2c0-0.7-0.3-1.1-0.9-1.1s-0.9,0.4-0.9,1.2v1.7c0.2-0.5,0.7-0.8,1.2-0.8
		c1,0,1.4,0.7,1.4,1.8V96c0,1.1-0.6,1.9-1.7,1.9s-1.7-0.7-1.7-1.9v-3.7c0-1.2,0.5-1.9,1.7-1.9S99,91.1,99,92.2z M96.5,95v1.1
		c0,0.7,0.3,1.1,0.9,1.1s0.9-0.4,0.9-1.1V95c0-0.7-0.3-1.1-0.9-1.1S96.5,94.3,96.5,95z"/>
	<rect x="211.9" y="92.5" class="st8" width="2.1" height="5.2"/>
	<rect x="214.7" y="91.5" class="st8" width="2.1" height="6.2"/>
	<rect x="217.5" y="90.8" class="st8" width="2.1" height="7"/>
	<rect x="220.2" y="89.5" class="st8" width="2.1" height="8.3"/>
	<path class="st8" d="M248.1,97.6h-12.5V90h12.5L248.1,97.6z M236.3,96.9h11.1v-6.2h-11.1V96.9z"/>
	<rect x="237.3" y="91.4" class="st8" width="6.6" height="4.7"/>
	<rect x="247.6" y="92.9" class="st8" width="1.6" height="1.8"/>
	<path class="st8" d="M231,95.9c-0.1,0-0.2,0-0.2-0.1c-2.5-1.5-4.2-0.1-4.3,0c-0.2,0.2-0.5,0.1-0.7-0.1c-0.1-0.2-0.1-0.4,0-0.6
		c0.1-0.1,2.2-1.9,5.4,0c0.2,0.1,0.3,0.4,0.2,0.6c0,0,0,0,0,0C231.3,95.9,231.1,96,231,95.9z"/>
	<path class="st8" d="M232,94.4c-0.1,0-0.2,0-0.2-0.1c-3.7-2.2-6.1-0.1-6.2-0.1c-0.2,0.2-0.5,0.2-0.7,0c-0.2-0.2-0.2-0.5,0-0.7
		c0,0,0,0,0.1-0.1c0,0,3-2.6,7.3-0.1c0.2,0.1,0.3,0.4,0.2,0.6c0,0,0,0,0,0C232.3,94.3,232.2,94.4,232,94.4z"/>
	<path class="st8" d="M232.8,92.6c-0.1,0-0.2,0-0.2-0.1c-4.6-2.8-7.8-0.2-7.9,0c-0.2,0.2-0.5,0.2-0.6,0c-0.2-0.2-0.2-0.5,0-0.7
		c0,0,3.7-3.2,9,0c0.2,0.1,0.3,0.4,0.2,0.6c0,0,0,0,0,0C233.1,92.5,233,92.6,232.8,92.6z"/>
	<path class="st8" d="M229.6,96.7c0,0.6-0.5,1.2-1.2,1.2c-0.6,0-1.2-0.5-1.2-1.2c0-0.6,0.5-1.2,1.2-1.2l0,0
		C229.1,95.5,229.6,96.1,229.6,96.7z"/>
	<path class="st8" d="M263,97.3v11.2h3.5v31.7H263v7.2h3.5V179H263v7.2h3.5V218H263v216.6c0,11.4-9.2,20.6-20.6,20.6H86.3
		c-11.4,0-20.6-9.2-20.6-20.6c0,0,0,0,0,0V165.5h-2.5v-31.7h2.5V97.3c0-11.4,9.2-20.6,20.6-20.6h156.1C253.8,76.7,263,85.9,263,97.3
		z M209,84.4l-6,9.1c-1.8,2.7-4.9,4.4-8.2,4.3h-60.9c-3.3,0-6.3-1.6-8.2-4.3l-6.1-9.1H91.3c-11.4,0-20.6,9.2-20.6,20.6v321.9
		c0,11.4,9.2,20.6,20.7,20.6h146c11.4,0,20.6-9.2,20.7-20.6c0,0,0,0,0,0V105c0-11.4-9.2-20.6-20.6-20.6L209,84.4z"/>
</g>
<g id="freepik--Cables--inject-67">
	<path class="st5" d="M241.8,186h1.4c2.9,0,5.2,2.4,5.2,5.2l0,0v100.3c0,16.3,13.2,29.5,29.5,29.5l0,0c16.3,0,29.5-13.2,29.5-29.5
		v-36.8"/>
	<line class="st9" x1="237.4" y1="186" x2="241.8" y2="186"/>
	<path class="st5" d="M133.1,247.5c1.7,0,3.1,1.4,3.1,3.1v41.1c0,46.4,37.6,84.1,84.1,84.1c0,0,0,0,0,0l0,0
		c44.1,0,79.9-35.8,79.9-79.9V255"/>
	<line class="st9" x1="128.2" y1="247.5" x2="133.1" y2="247.5"/>
	<path class="st5" d="M244.4,312c2.9,0,5.3,2.4,5.3,5.3v48c0,18.2,14.8,33,33,33l0,0c18.2,0,33-14.8,33-33l0,0V256.1"/>
	<line class="st9" x1="238.1" y1="312" x2="244.4" y2="312"/>
</g>
<g id="freepik--Apps--inject-67">
	<path class="st10" d="M199.8,164.2h32.9c2.8,0,5.1,2.3,5.1,5.1v32.9c0,2.8-2.3,5.1-5.1,5.1h-32.9c-2.8,0-5.1-2.3-5.1-5.1v-32.9
		C194.6,166.5,196.9,164.2,199.8,164.2z"/>
	<path class="st11" d="M230.1,184.9v-3.3l-3.3-0.6c-0.3-1.3-0.8-2.6-1.6-3.8l2-2.8l-2.3-2.3l-2.7,2c-1.1-0.7-2.4-1.3-3.7-1.6
		l-0.6-3.4h-3.3l-0.6,3.4c-1.3,0.3-2.6,0.8-3.7,1.5l-2.8-2l-2.3,2.3l2,2.8c-0.7,1.1-1.3,2.4-1.5,3.7l-3.4,0.6v3.3l3.4,0.6
		c0.3,1.3,0.8,2.5,1.5,3.6l-2,2.8l2.3,2.3l2.8-2c1.1,0.8,2.4,1.3,3.7,1.6l0.6,3.4h3.3l0.6-3.3c1.3-0.3,2.6-0.8,3.8-1.5l2.8,2
		l2.3-2.3l-1.9-2.7c0.8-1.1,1.3-2.4,1.6-3.8L230.1,184.9z M216.3,191.2c-4.4,0-8-3.6-8-8s3.6-8,8-8s8,3.6,8,8
		S220.7,191.2,216.3,191.2L216.3,191.2z"/>
	<rect x="202.2" y="200.5" class="st11" width="27" height="2.2"/>
	<rect x="202.2" y="200.5" class="st12" width="13.5" height="2.2"/>
	<path class="st11" d="M145.2,164.3h32.3c3,0,5.4,2.4,5.4,5.4v32.3c0,3-2.4,5.4-5.4,5.4h-32.3c-3,0-5.4-2.4-5.4-5.4v-32.3
		C139.8,166.7,142.2,164.3,145.2,164.3z"/>
	<circle class="st13" cx="161.3" cy="185.8" r="14.8"/>
	<polyline class="st14" points="156.6,191.8 161.3,185.8 161.3,174.9 	"/>
	<path class="st11" d="M90.3,164.3h32.3c3,0,5.4,2.4,5.4,5.4v32.3c0,3-2.4,5.4-5.4,5.4H90.3c-3,0-5.4-2.4-5.4-5.4v-32.3
		C84.9,166.7,87.3,164.3,90.3,164.3z"/>
	<polyline class="st14" points="101.8,191.8 106.4,185.8 106.4,174.9 	"/>
	<polygon class="st13" points="118.5,184.8 98.9,173.5 98.9,196.1 	"/>
	<path class="st11" d="M199.8,227.5h32.9c2.8,0,5.1,2.3,5.1,5.1v32.9c0,2.8-2.3,5.1-5.1,5.1h-32.9c-2.8,0-5.1-2.3-5.1-5.1v-32.9
		C194.6,229.8,196.9,227.5,199.8,227.5z"/>
	<path class="st13" d="M215.6,236.2c-7.7,0-13.9,5-13.9,11.1c0,4,2.6,7.4,6.5,9.4l-2.4,5.9l7.4-4.3c0.8,0.1,1.5,0.2,2.3,0.2
		c7.7,0,13.9-5,13.9-11.1S223.3,236.2,215.6,236.2z"/>
	<path class="st10" d="M199.8,290.7h32.9c2.8,0,5.1,2.3,5.1,5.1v32.9c0,2.8-2.3,5.1-5.1,5.1h-32.9c-2.8,0-5.1-2.3-5.1-5.1v-32.9
		C194.6,293,196.9,290.7,199.8,290.7z"/>
	<path class="st11" d="M230.1,311.3v-3.3l-3.3-0.5c-0.3-1.3-0.8-2.6-1.6-3.8l2-2.8l-2.3-2.3l-2.7,2c-1.1-0.8-2.4-1.3-3.7-1.6
		l-0.6-3.4h-3.3l-0.6,3.4c-1.3,0.3-2.6,0.8-3.7,1.5l-2.8-2l-2.3,2.3l2,2.8c-0.7,1.1-1.3,2.4-1.5,3.7l-3.4,0.6v3.3l3.4,0.6
		c0.3,1.3,0.8,2.6,1.5,3.7l-2,2.8l2.3,2.3l2.8-2c1.1,0.7,2.4,1.3,3.7,1.6l0.6,3.4h3.3l0.6-3.3c1.3-0.3,2.6-0.8,3.8-1.5l2.8,2
		l2.3-2.3l-1.9-2.7c0.8-1.1,1.3-2.4,1.6-3.8L230.1,311.3z M216.3,317.7c-4.4,0-8-3.6-8-8s3.6-8,8-8s8,3.6,8,8
		S220.7,317.7,216.3,317.7L216.3,317.7z"/>
	<rect x="202.2" y="326.9" class="st11" width="27" height="2.2"/>
	<rect x="202.2" y="326.9" class="st12" width="4.5" height="2.2"/>
	<path class="st10" d="M90.3,227.5h32.3c3,0,5.4,2.4,5.4,5.4v32.3c0,3-2.4,5.4-5.4,5.4H90.3c-3,0-5.4-2.4-5.4-5.4v-32.3
		C84.9,229.9,87.3,227.5,90.3,227.5z"/>
	<path class="st11" d="M120.7,248.1v-3.3l-3.3-0.6c-0.3-1.3-0.8-2.6-1.6-3.8l2-2.8l-2.3-2.3l-2.7,2c-1.1-0.7-2.4-1.3-3.7-1.6
		l-0.6-3.4h-3.3l-0.6,3.4c-1.3,0.3-2.6,0.8-3.7,1.5l-2.8-2l-2.3,2.3l2,2.8c-0.7,1.1-1.3,2.4-1.5,3.7l-3.4,0.6v3.2l3.4,0.6
		c0.3,1.3,0.8,2.6,1.5,3.7l-2,2.8l2.2,2.3l2.8-2c1.1,0.7,2.4,1.3,3.7,1.6l0.6,3.4h3.3l0.6-3.3c1.3-0.3,2.6-0.8,3.8-1.5l2.8,2
		l2.3-2.3l-1.9-2.7c0.8-1.1,1.3-2.4,1.6-3.8L120.7,248.1z M106.8,254.4c-4.4,0-8-3.6-8-8s3.6-8,8-8s8,3.6,8,8
		S111.2,254.4,106.8,254.4z"/>
	<rect x="92.7" y="263.7" class="st11" width="27" height="2.2"/>
	<rect x="92.7" y="263.7" class="st12" width="24.4" height="2.2"/>
	<path class="st11" d="M90.3,290.7h32.3c3,0,5.4,2.4,5.4,5.4v32.3c0,3-2.4,5.4-5.4,5.4H90.3c-3,0-5.4-2.4-5.4-5.4v-32.3
		C84.9,293.1,87.3,290.7,90.3,290.7z"/>
	<polyline class="st14" points="101.8,318.3 106.4,312.2 106.4,301.4 	"/>
	<rect x="91.9" y="302.9" class="st13" width="29" height="18.6"/>
	<polyline class="st14" points="91.9,302.9 106.2,315 120.7,303.1 	"/>
	<line class="st14" x1="91.9" y1="321.5" x2="102.3" y2="312.1"/>
	<line class="st14" x1="120.9" y1="321.5" x2="110.1" y2="312.1"/>
</g>
<g id="freepik--Plant--inject-67">
	<line class="st15" x1="426" y1="307.8" x2="437.5" y2="417.6"/>
	<line class="st15" x1="435.6" y1="396.6" x2="430.4" y2="391.1"/>
	<path class="st16" d="M432,392.7c0-1.7-0.8-3.3-2.1-4.4c-1.3-1.2-8.4-4.1-9-1.7C420.2,389.4,427.4,394.6,432,392.7z"/>
	<line class="st17" x1="432" y1="392.7" x2="425.3" y2="388.6"/>
	<line class="st15" x1="436.9" y1="409.1" x2="431.7" y2="403.6"/>
	<path class="st16" d="M433.3,405.2c0-1.7-0.8-3.3-2.1-4.4c-1.3-1.2-8.4-4.1-9-1.7C421.5,401.8,428.7,407.1,433.3,405.2z"/>
	<line class="st17" x1="433.3" y1="405.2" x2="426.6" y2="401.1"/>
	<line class="st15" x1="432.4" y1="366.1" x2="427.2" y2="360.6"/>
	<path class="st16" d="M428.8,362.3c0-1.7-0.8-3.3-2.1-4.4c-1.3-1.2-8.4-4.1-9-1.7C417,358.9,424.2,364.2,428.8,362.3z"/>
	<line class="st17" x1="428.8" y1="362.3" x2="422.1" y2="358.1"/>
	<line class="st15" x1="433.7" y1="378.6" x2="428.5" y2="373.1"/>
	<path class="st16" d="M430.1,374.8c0-1.7-0.8-3.3-2.1-4.4c-1.3-1.2-8.4-4.1-9-1.7C418.3,371.4,425.5,376.6,430.1,374.8z"/>
	<line class="st17" x1="430.1" y1="374.8" x2="423.4" y2="370.6"/>
	<line class="st15" x1="430.3" y1="345.8" x2="425.1" y2="340.4"/>
	<path class="st16" d="M426.7,342c0-1.7-0.8-3.3-2.1-4.4c-1.3-1.2-8.4-4.1-9-1.7C414.9,338.6,422.1,343.9,426.7,342z"/>
	<line class="st17" x1="426.7" y1="342" x2="420" y2="337.8"/>
	<line class="st15" x1="428.2" y1="325.5" x2="423" y2="320"/>
	<path class="st16" d="M424.6,321.6c0-1.7-0.8-3.3-2.1-4.4c-1.3-1.2-8.4-4.1-9-1.7C412.8,318.2,420,323.5,424.6,321.6z"/>
	<line class="st17" x1="424.6" y1="321.6" x2="417.9" y2="317.5"/>
	<line class="st15" x1="434.7" y1="389.2" x2="438.7" y2="382.8"/>
	<path class="st16" d="M437.5,384.7c-0.3-1.7,0.1-3.4,1.1-4.7c1.1-1.4,7.3-5.8,8.5-3.5C448.3,378.9,442.4,385.6,437.5,384.7z"/>
	<line class="st17" x1="437.5" y1="384.7" x2="443.5" y2="378.9"/>
	<line class="st15" x1="431.3" y1="356.3" x2="435.3" y2="349.9"/>
	<path class="st16" d="M434.1,351.8c-0.3-1.7,0.1-3.4,1.1-4.7c1.1-1.4,7.3-5.8,8.5-3.5C444.9,346.1,439,352.7,434.1,351.8z"/>
	<line class="st17" x1="434.1" y1="351.8" x2="440.1" y2="346.1"/>
	<line class="st15" x1="429.8" y1="341.9" x2="433.8" y2="335.5"/>
	<path class="st16" d="M432.5,337.4c-0.3-1.7,0.1-3.4,1.1-4.7c1-1.4,7.3-5.8,8.5-3.5C443.4,331.6,437.5,338.3,432.5,337.4z"/>
	<line class="st17" x1="432.5" y1="337.4" x2="438.6" y2="331.6"/>
	<line class="st15" x1="427.6" y1="320.7" x2="431.5" y2="314.3"/>
	<path class="st16" d="M430.3,316.2c-0.3-1.7,0.1-3.4,1.1-4.7c1-1.4,7.3-5.8,8.5-3.5C441.2,310.5,435.3,317.1,430.3,316.2z"/>
	<line class="st17" x1="430.3" y1="316.2" x2="436.4" y2="310.5"/>
	<path class="st16" d="M425.9,307.2c-0.3-1.7,0.1-3.4,1.1-4.7c1.1-1.4,7.3-5.8,8.5-3.5C436.8,301.4,430.8,308.1,425.9,307.2z"/>
	<line class="st17" x1="425.9" y1="307.2" x2="431.9" y2="301.5"/>
	<path class="st16" d="M426.3,307.5c-1.7,0.1-3.4-0.4-4.6-1.6c-1.3-1.2-5-7.9-2.6-8.8C421.7,296,427.7,302.6,426.3,307.5z"/>
	<line class="st17" x1="426.3" y1="307.5" x2="421.2" y2="300.9"/>
	<line class="st18" x1="456.2" y1="322.9" x2="444.8" y2="432.7"/>
	<line class="st15" x1="447.4" y1="411.8" x2="443.4" y2="405.3"/>
	<path class="st16" d="M444.6,407.3c0.3-1.7-0.1-3.4-1.1-4.7c-1.1-1.4-7.3-5.8-8.5-3.5C433.8,401.5,439.7,408.2,444.6,407.3z"/>
	<line class="st17" x1="444.6" y1="407.3" x2="438.9" y2="401.8"/>
	<line class="st15" x1="450.5" y1="381.3" x2="446.6" y2="374.9"/>
	<path class="st16" d="M447.8,376.8c0.3-1.7-0.1-3.4-1.1-4.7c-1.1-1.4-7.3-5.8-8.5-3.5C436.9,371.1,442.9,377.7,447.8,376.8z"/>
	<line class="st17" x1="447.8" y1="376.8" x2="442.1" y2="371.4"/>
	<line class="st15" x1="449.2" y1="393.8" x2="445.3" y2="387.4"/>
	<path class="st16" d="M446.5,389.3c0.3-1.7-0.1-3.4-1.1-4.7c-1.1-1.4-7.3-5.8-8.5-3.5C435.6,383.5,441.5,390.2,446.5,389.3z"/>
	<line class="st17" x1="446.5" y1="389.3" x2="440.8" y2="383.9"/>
	<line class="st15" x1="452.6" y1="361" x2="448.7" y2="354.6"/>
	<path class="st16" d="M449.9,356.5c0.3-1.7-0.1-3.4-1.1-4.7c-1.1-1.4-7.3-5.8-8.5-3.5C439,350.8,445,357.4,449.9,356.5z"/>
	<line class="st17" x1="449.9" y1="356.5" x2="444.2" y2="351.1"/>
	<line class="st15" x1="454.7" y1="340.7" x2="450.8" y2="334.2"/>
	<path class="st16" d="M452,336.1c0.3-1.7-0.1-3.4-1.1-4.7c-1.1-1.4-7.3-5.8-8.5-3.5C441.1,330.4,447.1,337,452,336.1z"/>
	<line class="st17" x1="452" y1="336.1" x2="446.3" y2="330.7"/>
	<line class="st15" x1="448" y1="404.4" x2="453.2" y2="398.9"/>
	<path class="st16" d="M451.6,400.5c0-1.7,0.8-3.3,2.1-4.4c1.3-1.2,8.3-4.1,9-1.7C463.4,397.1,456.3,402.4,451.6,400.5z"/>
	<line class="st17" x1="451.6" y1="400.5" x2="458.7" y2="396.1"/>
	<line class="st15" x1="451.4" y1="371.5" x2="456.6" y2="366"/>
	<path class="st16" d="M455,367.7c0-1.7,0.8-3.3,2.1-4.4c1.3-1.2,8.3-4.1,9-1.7C466.9,364.3,459.7,369.6,455,367.7z"/>
	<line class="st17" x1="455" y1="367.7" x2="462.1" y2="363.3"/>
	<line class="st15" x1="452.9" y1="357.1" x2="458.1" y2="351.6"/>
	<path class="st16" d="M456.5,353.2c0-1.7,0.8-3.3,2.1-4.4c1.3-1.2,8.4-4.1,9-1.7C468.4,349.8,461.2,355.1,456.5,353.2z"/>
	<line class="st17" x1="456.5" y1="353.2" x2="463.6" y2="348.8"/>
	<line class="st15" x1="455.1" y1="335.9" x2="460.3" y2="330.4"/>
	<path class="st16" d="M458.7,332.1c0-1.7,0.8-3.3,2.1-4.4c1.3-1.2,8.4-4.1,9-1.7C470.5,328.7,463.4,334,458.7,332.1z"/>
	<line class="st17" x1="458.7" y1="332.1" x2="465.8" y2="327.7"/>
	<path class="st16" d="M456.3,322.3c0-1.7,0.8-3.3,2.1-4.4c1.3-1.2,8.4-4.1,9-1.7C468.1,318.9,460.9,324.2,456.3,322.3z"/>
	<line class="st17" x1="456.3" y1="322.3" x2="463.3" y2="317.9"/>
	<path class="st16" d="M456.5,322.6c-1.7-0.2-3.2-1.1-4.2-2.5c-1-1.5-3.2-8.7-0.7-9.1C454.4,310.5,458.9,318.2,456.5,322.6z"/>
	<line class="st17" x1="456.5" y1="322.6" x2="452.9" y2="315.1"/>
	<line class="st15" x1="443.2" y1="278.2" x2="443.2" y2="417.1"/>
	<line class="st15" x1="443.3" y1="396.2" x2="438.7" y2="390.2"/>
	<path class="st16" d="M440.1,392c0.2-1.7-0.4-3.4-1.6-4.6c-1.2-1.3-7.9-5-8.8-2.6C428.7,387.4,435.3,393.4,440.1,392z"/>
	<line class="st17" x1="440.1" y1="392" x2="433.9" y2="387.2"/>
	<line class="st15" x1="443.3" y1="370.1" x2="438.7" y2="364.1"/>
	<path class="st16" d="M440.1,365.9c0.2-1.7-0.4-3.4-1.6-4.6c-1.2-1.3-7.9-5-8.8-2.6C428.7,361.3,435.3,367.3,440.1,365.9z"/>
	<line class="st17" x1="440.1" y1="365.9" x2="433.9" y2="361.1"/>
	<line class="st15" x1="443.3" y1="339.5" x2="438.7" y2="333.5"/>
	<path class="st16" d="M440.1,335.3c0.2-1.7-0.4-3.4-1.6-4.6c-1.2-1.3-7.9-5-8.8-2.6C428.7,330.7,435.3,336.7,440.1,335.3z"/>
	<line class="st17" x1="440.1" y1="335.3" x2="433.9" y2="330.4"/>
	<line class="st15" x1="443.3" y1="319.1" x2="438.7" y2="313.1"/>
	<path class="st16" d="M440.1,314.9c0.2-1.7-0.4-3.4-1.6-4.6c-1.2-1.3-7.9-5-8.8-2.6C428.7,310.3,435.3,316.3,440.1,314.9z"/>
	<line class="st17" x1="440.1" y1="314.9" x2="433.9" y2="310"/>
	<line class="st15" x1="443.3" y1="298.6" x2="438.7" y2="292.6"/>
	<path class="st16" d="M440.1,294.4c0.2-1.7-0.4-3.4-1.6-4.6c-1.2-1.3-7.9-5-8.8-2.6C428.7,289.8,435.3,295.8,440.1,294.4z"/>
	<line class="st17" x1="440.1" y1="294.4" x2="433.9" y2="289.5"/>
	<line class="st15" x1="443.2" y1="404.1" x2="447.8" y2="398.2"/>
	<path class="st16" d="M446.4,400c-0.2-1.7,0.4-3.4,1.6-4.6c1.2-1.3,7.9-5,8.8-2.6C457.8,395.4,451.2,401.4,446.4,400z"/>
	<line class="st17" x1="446.4" y1="400" x2="453" y2="394.9"/>
	<line class="st15" x1="443.2" y1="362.7" x2="447.8" y2="356.7"/>
	<path class="st16" d="M446.2,358.2c-0.2-1.7,0.4-3.4,1.6-4.6c1.2-1.3,7.9-5,8.8-2.6C457.6,353.6,451,359.6,446.2,358.2z"/>
	<line class="st17" x1="446.4" y1="358.5" x2="453" y2="353.4"/>
	<line class="st15" x1="443.2" y1="342.2" x2="447.8" y2="336.2"/>
	<path class="st16" d="M446.4,338c-0.2-1.7,0.4-3.4,1.6-4.6c1.2-1.3,7.9-5,8.8-2.6C457.8,333.4,451.2,339.4,446.4,338z"/>
	<line class="st17" x1="446.4" y1="338" x2="453" y2="332.9"/>
	<line class="st15" x1="443.2" y1="315.1" x2="447.8" y2="309.1"/>
	<path class="st16" d="M446.4,310.9c-0.2-1.7,0.4-3.4,1.6-4.6c1.2-1.3,7.9-5,8.8-2.6C457.8,306.3,451.2,312.3,446.4,310.9z"/>
	<line class="st17" x1="446.4" y1="310.9" x2="453" y2="305.8"/>
	<line class="st15" x1="443.2" y1="293.8" x2="447.8" y2="287.8"/>
	<path class="st16" d="M446.4,289.6c-0.2-1.7,0.4-3.4,1.6-4.6c1.2-1.3,7.9-5,8.8-2.6C457.8,285,451.2,291,446.4,289.6z"/>
	<line class="st17" x1="446.4" y1="289.6" x2="453" y2="284.5"/>
	<path class="st16" d="M442.9,280.2c-0.2-1.7,0.4-3.4,1.6-4.6c1.2-1.3,7.9-5,8.8-2.6C454.3,275.6,447.7,281.6,442.9,280.2z"/>
	<line class="st17" x1="442.9" y1="280.2" x2="449.5" y2="275.1"/>
	<path class="st16" d="M443.2,280.5c-1.7,0-3.3-0.8-4.4-2.1c-1.2-1.3-4.1-8.4-1.7-9C439.9,268.6,445.1,275.8,443.2,280.5z"/>
	<line class="st17" x1="443.2" y1="280.5" x2="438.9" y2="273.4"/>
	<polygon class="st19" points="448.9,453.1 434.2,453.1 432.3,415.9 450.7,415.9 	"/>
</g>
<g id="freepik--Character--inject-67">
	<path class="st12" d="M413.4,183.3c-6-5.1-4.9-13.2-4.9-13.2s-24.7,22.4-26,29.8s17.2,33.7,20,37.9c0.4,0.5,0.8,0.9,1.4,1.2
		c-0.9,2.2-1.3,4.5-1.3,6.9c0.1,8.1,9.2,5.2,12.9,2.8c2.2-1.5,3.3-4.2,2.8-6.8c0,0-4.6,1.9-4.6-0.3s4.4-5.5,4.4-5.5l-0.1-0.1
		c0.9-0.7,1.7-1.5,2.5-2.3c4.8-5.7-3.2-12.1-4.8-15.6s1.3-6.7,7-11.5S419.4,188.4,413.4,183.3z"/>
	<path class="st11" d="M322.7,232.6c0.1,2.8,0,5.6-0.2,8.4c-0.2,3.3,1.1,6.6,3.5,8.9c1.3,1,7.9,3.1,7.9,3.1l1.1-5.7l-1-2.4l1.3-8.7
		c-0.6-1.6-1.3-3.2-2.1-4.6c-1.2-1.9-4.4-3.9-4.7-4.3s-4.2,0.5-4.5,0.5c-0.7,0.2-1.4,0.4-2.1,0.7L322.7,232.6z"/>
	<path class="st11" d="M320.6,226.7c0,0-2,0.2-2.3,1s0.6,5.5,1.1,5.9s1.9,0,1.9-1.9S321.2,227.5,320.6,226.7z"/>
	<path class="st11" d="M323,226.2c0,0-2.2,0-2.6,0.9s0.2,6,0.7,6.5s2.1,0.2,2.2-1.9S323.5,227,323,226.2z"/>
	<path class="st11" d="M325.4,225.3c0,0-2.5,0-2.9,1s0.2,6.8,0.8,7.4s2.3,0.2,2.5-2.1S325.9,226.3,325.4,225.3z"/>
	<path class="st11" d="M327.6,225.3c0,0-2.5,0-2.9,1s0.2,6.8,0.8,7.4s2.3,0.2,2.5-2.1S328.2,226.3,327.6,225.3z"/>
	<path class="st11" d="M334,243c0,0,1-5,1.2-7.8s-2.9-6-3.7-7s-0.8-4.4-2.1-4.4s-1.7,1.6-1.7,1.6s-0.8,2.5,0.6,3.9
		c1,1.1,1.9,2.2,2.7,3.5c0,0-4.1,7.8-4.1,9.9s3.9,4.6,3.9,4.6"/>
	<polygon class="st10" points="334.6,246.8 333.5,256.1 359.1,264.4 358.8,250.5 	"/>
	<path class="st10" d="M376.8,202.9c0,0-14.2,4.3-15.2,8.7s-3.9,18-3.9,18s-3.5,9.2-3.2,14s3.2,14.3,1.6,20.7s-7,25.5-8.3,31.8
		s-1.9,10.2-1.9,10.2l5.1,1l7,1c0,0,2.9-19.1,5.1-35.6s-3.5-28,1.9-38.8s18.5-21.6,17.5-26.1S376.8,202.9,376.8,202.9z"/>
	<path class="st12" d="M351,294.8c0,0-1.9,23.2,1.9,40.4c2.1,9.8,4.9,19.5,8.3,29c0,0,4.5,28,7.6,37.9c2.9,8.7,4.1,17.9,3.5,27.1
		c-0.6,7.6-6,17.5-8.6,19.4s-7.6,6.4-1.3,8s14.6-2.1,18.5-2.2c7.6-0.3,8.6-5.4,8.6-10.2s-4.5-21-3.2-29.3s1.6-35.6,0.3-43
		s-1.9-14-1.9-14l-1-59.5l-31.5-4.5L351,294.8z"/>
	<path class="st11" d="M386.1,419.8c-7.4,3.2-11.5,2.6-13.7,1.3c0.2,2.7,0.1,5.4-0.1,8c-0.6,7.6-6,17.5-8.6,19.4s-7.6,6.4-1.3,8
		s14.6-2.1,18.5-2.2c7.6-0.3,8.6-5.4,8.6-10.2C389.5,440.2,386.5,428.5,386.1,419.8z"/>
	<path class="st10" d="M389.5,443.4c0,0,0-0.1,0-0.1c0-0.3,0-0.6-0.1-0.9c0-0.1,0-0.1,0-0.2c0-0.3-0.1-0.6-0.1-0.9
		c-0.1-0.5,0-0.1,0-0.1c0-0.3-0.1-0.7-0.2-1.1l-0.1-0.4c-0.1-0.3-0.1-0.7-0.2-1.1c0-0.2-0.1-0.4-0.1-0.6v-0.1
		c-0.4,0.5-0.9,0.9-1.4,1.5c-5.1,5.4-12.1,11.5-19.4,11.5c-3.5,0-4.4-1-4.3-2.1c-2.6,2-7.3,6.2-1.1,7.8c6.4,1.6,14.6-2.1,18.5-2.2
		c7.6-0.3,8.6-5.4,8.6-10.2C389.5,443.9,389.5,443.7,389.5,443.4z"/>
	<path class="st11" d="M383.1,449.9c-6,4.8-12.4,5.4-17.8,5.4c-4.2,0-5.3-1.7-5.6-2.5c-0.7,1.5-0.4,3,2.8,3.8
		c6.4,1.6,14.6-2.1,18.5-2.2c7.2-0.3,8.5-4.8,8.6-9.4C387.9,446.1,385.8,447.7,383.1,449.9z"/>
	<path class="st12" d="M371.3,330.2c0,0,3.2,40.4,5.7,51.2s8,48.4,8,53.5s-3.5,12.4-5.4,15.6s-7,3.8-7,6.7s10.2,2.9,12.1,3.2
		s15-3.2,15.3-4.8s0.3-8.3,0.3-8.3c0.2-1.8,0.2-3.6,0-5.4c-0.3-2.2-4.1-8.9-4.1-8.9s3.5-31.2,4.5-36.3s0.6-15.6,0.3-20.4
		s-3.2-14.3-3.2-14.3l6.4-50.6l-0.6-16.2c0,0-8.9,1-18.8,1h-16.9l0.6,12.1"/>
	<path class="st11" d="M400,455.6c0.3-1.6,0.3-8.3,0.3-8.3c0.2-1.8,0.2-3.6,0-5.4c-0.3-2.2-4.1-8.9-4.1-8.9s0.5-4.6,1.2-10.6
		c-4.5,1.8-9.6,1.4-13.8-1c0.9,6.6,1.5,11.8,1.5,13.5c0,5.1-3.5,12.4-5.4,15.6s-7,3.8-7,6.7s10.2,2.9,12.1,3.2
		S399.7,457.2,400,455.6z"/>
	<path class="st10" d="M400,455.6c0.3-1.6,0.3-8.3,0.3-8.3c0.2-1.8,0.2-3.6,0-5.4c-0.2-1.3-1.5-4.1-2.6-6.2
		c-0.1,0.1-0.1,0.3-0.2,0.4c-1.9,3.8-10.1,13.8-13.9,16s-4.9-0.4-4.9-0.4h-0.1c-2.3,2.1-5.7,3-6,5.4c-0.4,4.5,12,4.2,13.9,3.6
		S399.7,457.2,400,455.6z"/>
	<path class="st11" d="M400,455.6c0.2-2.1,0.3-4.2,0.3-6.3c-6.3,4.9-13.9,7.9-21.9,8.5c-3.7,0.2-5.2-1.4-5.4-1.7
		c-0.2,0.3-0.3,0.7-0.4,1.1c-0.4,4.5,12,4.2,13.9,3.6S399.7,457.2,400,455.6z"/>
	<path class="st13" d="M374.8,204.4c0,0-12.4,24.2-15.3,30.9s-1.6,17.5-1.6,21.3s-7,38.2-7,38.2s6.4,6.7,23.2,6s27.1-4.8,27.1-4.8
		s-3.8-31.5-3.8-38.2s8.3-35.3,7.3-43s-12.4-7-15.3-7.6S374.8,204.4,374.8,204.4z"/>
	<path class="st11" d="M360.6,159.3c0,0-3.6,12.2-2.3,13.7c1.1,1.6,1.9,3.3,2.5,5.1c0,0-3.8,7.4-2.8,8.4c1,0.8,2.1,1.4,3.3,1.8
		c0,0,2.3,11,4.3,11.5s14-2.8,14-2.8s7.1-6.4,4.3-17.8s-14-19.6-16-20.6S360.6,159.3,360.6,159.3z"/>
	<path class="st5" d="M367,177.6v2.8c0,0,3.2,0.2,4.7-0.8"/>
	<path class="st5" d="M365.9,176.3c1.7-0.9,3.8-0.9,5.5,0.1"/>
	<path class="st5" d="M363.1,176.3c0,0,1.1-2.4,5.5-2.4s6.9,1.4,7.2,2.1c0.2,0.4,0.2,1-0.1,1.4c0,0,0,4.6-1.2,5.9s-5.7,2.5-8,1.5
		s-3.5-5.4-3.5-6.4S363.1,176.3,363.1,176.3z"/>
	<line class="st5" x1="375.8" y1="176.1" x2="377.6" y2="176.1"/>
	<path class="st5" d="M363.1,176.3c0,0-1.9-1.6-2.7,0.3"/>
	<path class="st5" d="M359.6,176.3c-1.1-0.3-2.3-0.4-3.5-0.4c-1.9,0-2.5,0.8-2.4,1.1c0.4,1.1,0.6,2.2,0.7,3.3c0,1.2,0.1,3.1,1.2,3.7
		c0.8,0.4,1.6,0.6,2.5,0.7"/>
	<path class="st10" d="M385.3,206.4c0,0-8.6,21.6-10.8,33.7s-1.3,74.8-1.3,74.8c5.8,2.7,12.1,3.9,18.5,3.5c10.8-0.6,22-7.6,22-7.6
		s-2.5-18.5-6.7-31.5s-5.7-19.1-5.7-19.1s8.3-42.3,7.6-46.8S385.3,206.4,385.3,206.4z"/>
	<path class="st12" d="M369,147.3c0,0-12.5,3.6-12.5,5.6s-0.5,4.8,7.9,10.7s14.5,11.2,15,18.3s-6.6,26-8.1,32.1s-0.8,15,4.1,16.3
		s3.3,0.5,2.8-2.3s2.3-14.5,10.7-18.3s17.5-9.9,19.4-21.4c1.9-11.9,1.1-29.2-11.2-38.7S369,147.3,369,147.3z"/>
	<path class="st10" d="M392,229.9l-3.2,29.3l-1.9,0.6v1.6l-1.9,1l-1,1.3l-44.2-4.1c0,0-10.2-1.3-12.1-1.3s-9.2-1-9.2-1
		s1,2.9,2.5,3.2s9.9,3.2,9.9,3.2s5.4,2.9,8.9,2.9s8.9,0.3,8.9,0.3s23.2,6.4,30.6,7.6s13.4,4.1,15.9,3.2c3.2-1.2,5.6-3.8,6.7-7
		c1-3.5,5.1-25.1,5.1-25.1s5.1-22,5.1-27.4s-7.3-8.3-14-4.8"/>
	<path class="st11" d="M385.1,275.8l-3.4-12.4l-41.9-3.9c0,0-10.2-1.3-12.1-1.3s-9.2-1-9.2-1s1,2.9,2.5,3.2s9.9,3.2,9.9,3.2
		s5.4,2.9,8.9,2.9s8.9,0.3,8.9,0.3s23.2,6.4,30.6,7.6C381.3,274.8,383.3,275.3,385.1,275.8z"/>
	<line class="st5" x1="389.8" y1="272" x2="390.8" y2="273.5"/>
	<line class="st5" x1="384.1" y1="263.6" x2="388.5" y2="270.3"/>
	<line class="st5" x1="386.9" y1="261.4" x2="393.3" y2="265.9"/>
	<path class="st5" d="M320.4,257.8c0.3,0.9,1.1,1.6,2.1,1.8c1.6,0.1,6.3,2.8,6.8,2.8"/>
	<path class="st5" d="M325.7,258.2c0.8,0.7,1.8,1.3,2.8,1.6c1.9,0.6,3.8,1.4,5.6,2.2"/>
	<path class="st11" d="M348.1,260.8c0,0-6.6-2.2-7.1-2.1c-1.6,0.2-3.1,0.1-4.7-0.1c-2.2-0.3-3.5,2.2-1.8,3c1.2,0.5,2.5,0.6,3.8,0.4
		c0.6,0,2.4,0.6,2.8,0.6"/>
	<polygon class="st11" points="296.4,254 358.5,261 358.3,258.9 296,252.3 	"/>
	<polygon class="st20" points="296,252.3 283.8,220.1 318.7,223 330.2,256.1 	"/>
	<polygon class="st12" points="330.2,256.1 330.2,257.8 358.5,261 358.3,258.9 330.1,255.9 	"/>
</g>
</svg>
