<?xml version="1.0" encoding="utf-8"?>
<!-- Generator: Adobe Illustrator 26.2.1, SVG Export Plug-In . SVG Version: 6.00 Build 0)  -->
<svg version="1.1" id="undraw_hacker_mind_-6-y85" xmlns="http://www.w3.org/2000/svg" xmlns:xlink="http://www.w3.org/1999/xlink"
	 x="0px" y="0px" viewBox="0 0 406.9 276.9" style="enable-background:new 0 0 406.9 276.9;" xml:space="preserve">
<style type="text/css">
	.st0{fill:#007172;}
	.st1{fill:#D94F04;}
	.st2{fill:#F07167;}
	.st3{fill:#2F2E41;}
	.st4{fill:#CBDAD5;}
	.st5{opacity:0.1;enable-background:new    ;}
	.st6{fill:#F2F2F2;}
	.st7{fill:#3F3D56;}
	.st8{fill:#FFB8B8;}
	.st9{fill:#FDFCDC;}
</style>
<rect id="Rectangle_20" class="st0" width="341.7" height="183.8"/>
<rect id="Rectangle_21" x="61.8" y="25.9" class="st1" width="3" height="4.8"/>
<rect id="Rectangle_22" x="72" y="24.7" class="st1" width="3" height="4.8"/>
<rect id="Rectangle_23" x="77.4" y="24.7" class="st1" width="3" height="4.8"/>
<rect id="Rectangle_24" x="77.4" y="39.2" class="st1" width="3" height="4.8"/>
<rect id="Rectangle_25" x="83.5" y="31.9" class="st1" width="3" height="4.8"/>
<rect id="Rectangle_26" x="83.5" y="39.8" class="st1" width="3" height="4.8"/>
<rect id="Rectangle_27" x="77.4" y="54.8" class="st1" width="3" height="4.8"/>
<rect id="Rectangle_28" x="83.5" y="62.7" class="st1" width="3" height="4.8"/>
<rect id="Rectangle_29" x="77.4" y="92.2" class="st1" width="3" height="4.8"/>
<rect id="Rectangle_30" x="72" y="62.7" class="st1" width="3" height="4.8"/>
<rect id="Rectangle_31" x="61.8" y="33.7" class="st1" width="3" height="4.8"/>
<rect id="Rectangle_32" x="61.8" y="109.1" class="st1" width="3" height="4.8"/>
<rect id="Rectangle_33" x="61.8" y="124.7" class="st1" width="3" height="4.8"/>
<rect id="Rectangle_34" x="61.8" y="132.6" class="st1" width="3" height="4.8"/>
<rect id="Rectangle_35" x="60.6" y="42.2" class="st1" width="4.2" height="0.6"/>
<rect id="Rectangle_36" x="76.8" y="49.4" class="st1" width="4.2" height="0.6"/>
<rect id="Rectangle_37" x="60.6" y="80.8" class="st1" width="4.2" height="0.6"/>
<rect id="Rectangle_38" x="60.6" y="87.4" class="st1" width="4.2" height="0.6"/>
<rect id="Rectangle_39" x="76.8" y="125.9" class="st1" width="4.2" height="0.6"/>
<rect id="Rectangle_40" x="72" y="140.4" class="st1" width="4.2" height="0.6"/>
<path id="Path_48" class="st1" d="M61.8,47.6v1.2H63v2.4h-1.2v1.2h3v-4.8L61.8,47.6z"/>
<path id="Path_49" class="st1" d="M72,39.2v1.2h1.2v2.4H72V44h3v-4.8L72,39.2z"/>
<path id="Path_50" class="st1" d="M83.5,47v1.2h1.2v2.4h-1.2v1.2h3V47H83.5z"/>
<path id="Path_51" class="st1" d="M83.5,70.5v1.2h1.2v2.4h-1.2v1.2h3v-4.8H83.5z"/>
<path id="Path_52" class="st1" d="M83.5,78.3v1.2h1.2V82h-1.2v1.2h3v-4.8H83.5z"/>
<path id="Path_53" class="st1" d="M83.5,54.2v1.2h1.2v2.4h-1.2v1.2h3v-4.8L83.5,54.2z"/>
<path id="Path_54" class="st1" d="M77.4,31.9v1.2h1.2v2.4h-1.2v1.2h3v-4.8H77.4z"/>
<rect id="Rectangle_41" x="77.4" y="70.5" class="st1" width="3" height="4.8"/>
<rect id="Rectangle_42" x="77.4" y="85" class="st1" width="3" height="4.8"/>
<path id="Path_55" class="st1" d="M77.4,77.7v1.2h1.2v2.4h-1.2v1.2h3v-4.8L77.4,77.7z"/>
<path id="Path_56" class="st1" d="M72,47v1.2h1.2v2.4H72v1.2h3V47H72z"/>
<path id="Path_57" class="st1" d="M72,54.8V56h1.2v2.4H72v1.2h3v-4.8L72,54.8z"/>
<rect id="Rectangle_43" x="72" y="78.3" class="st1" width="3" height="4.8"/>
<path id="Path_58" class="st1" d="M72,70.5v1.2h1.2v2.4H72v1.2h3v-4.8H72z"/>
<rect id="Rectangle_44" x="72" y="94" class="st1" width="3" height="4.8"/>
<path id="Path_59" class="st1" d="M72,86.2v1.2h1.2v2.4H72V91h3v-4.8H72z"/>
<rect id="Rectangle_45" x="72" y="109.7" class="st1" width="3" height="4.8"/>
<rect id="Rectangle_46" x="77.4" y="108.5" class="st1" width="3" height="4.8"/>
<path id="Path_60" class="st1" d="M72,101.8v1.2h1.2v2.4H72v1.2h3v-4.8H72z"/>
<path id="Path_61" class="st1" d="M83.5,101.8v1.2h1.2v2.4h-1.2v1.2h3v-4.8H83.5z"/>
<rect id="Rectangle_47" x="114.2" y="31.9" class="st1" width="3" height="4.8"/>
<rect id="Rectangle_48" x="114.2" y="39.8" class="st1" width="3" height="4.8"/>
<rect id="Rectangle_49" x="114.2" y="62.7" class="st1" width="3" height="4.8"/>
<path id="Path_62" class="st1" d="M114.2,47v1.2h1.2v2.4h-1.2v1.2h3V47H114.2z"/>
<path id="Path_63" class="st1" d="M114.2,70.5v1.2h1.2v2.4h-1.2v1.2h3v-4.8H114.2z"/>
<path id="Path_64" class="st1" d="M114.2,78.3v1.2h1.2V82h-1.2v1.2h3v-4.8H114.2z"/>
<path id="Path_65" class="st1" d="M114.2,54.2v1.2h1.2v2.4h-1.2v1.2h3v-4.8L114.2,54.2z"/>
<path id="Path_66" class="st1" d="M114.2,101.8v1.2h1.2v2.4h-1.2v1.2h3v-4.8H114.2z"/>
<rect id="Rectangle_50" x="72" y="125.3" class="st1" width="3" height="4.8"/>
<rect id="Rectangle_51" x="77.4" y="116.3" class="st1" width="3" height="4.8"/>
<rect id="Rectangle_52" x="72" y="145.8" class="st1" width="3" height="4.8"/>
<rect id="Rectangle_53" x="77.4" y="131.4" class="st1" width="3" height="4.8"/>
<path id="Path_67" class="st1" d="M72,117.5v1.2h1.2v2.4H72v1.2h3v-4.8L72,117.5z"/>
<path id="Path_68" class="st1" d="M72,154.3v1.2h1.2v2.4H72v1.2h3v-4.8L72,154.3z"/>
<rect id="Rectangle_54" x="105.2" y="24.7" class="st1" width="3" height="4.8"/>
<rect id="Rectangle_55" x="105.2" y="62.7" class="st1" width="3" height="4.8"/>
<rect id="Rectangle_56" x="105.2" y="140.4" class="st1" width="4.2" height="0.6"/>
<path id="Path_69" class="st1" d="M105.2,39.2v1.2h1.2v2.4h-1.2V44h3v-4.8L105.2,39.2z"/>
<path id="Path_70" class="st1" d="M105.2,47v1.2h1.2v2.4h-1.2v1.2h3V47H105.2z"/>
<path id="Path_71" class="st1" d="M105.2,54.8V56h1.2v2.4h-1.2v1.2h3v-4.8L105.2,54.8z"/>
<rect id="Rectangle_57" x="105.2" y="78.3" class="st1" width="3" height="4.8"/>
<path id="Path_72" class="st1" d="M105.2,70.5v1.2h1.2v2.4h-1.2v1.2h3v-4.8H105.2z"/>
<rect id="Rectangle_58" x="105.2" y="94" class="st1" width="3" height="4.8"/>
<path id="Path_73" class="st1" d="M105.2,86.2v1.2h1.2v2.4h-1.2V91h3v-4.8H105.2z"/>
<rect id="Rectangle_59" x="105.2" y="109.7" class="st1" width="3" height="4.8"/>
<path id="Path_74" class="st1" d="M105.2,101.8v1.2h1.2v2.4h-1.2v1.2h3v-4.8H105.2z"/>
<rect id="Rectangle_60" x="105.2" y="125.3" class="st1" width="3" height="4.8"/>
<rect id="Rectangle_61" x="105.2" y="145.8" class="st1" width="3" height="4.8"/>
<path id="Path_75" class="st1" d="M105.2,117.5v1.2h1.2v2.4h-1.2v1.2h3v-4.8L105.2,117.5z"/>
<path id="Path_76" class="st1" d="M105.2,154.3v1.2h1.2v2.4h-1.2v1.2h3v-4.8L105.2,154.3z"/>
<rect id="Rectangle_62" x="119.6" y="24.7" class="st1" width="3" height="4.8"/>
<rect id="Rectangle_63" x="119.6" y="62.7" class="st1" width="3" height="4.8"/>
<rect id="Rectangle_64" x="119.6" y="140.4" class="st1" width="4.2" height="0.6"/>
<path id="Path_77" class="st1" d="M119.6,39.2v1.2h1.2v2.4h-1.2V44h3v-4.8L119.6,39.2z"/>
<path id="Path_78" class="st1" d="M119.6,47v1.2h1.2v2.4h-1.2v1.2h3V47H119.6z"/>
<path id="Path_79" class="st1" d="M119.6,54.8V56h1.2v2.4h-1.2v1.2h3v-4.8L119.6,54.8z"/>
<rect id="Rectangle_65" x="119.6" y="78.3" class="st1" width="3" height="4.8"/>
<path id="Path_80" class="st1" d="M119.6,70.5v1.2h1.2v2.4h-1.2v1.2h3v-4.8H119.6z"/>
<rect id="Rectangle_66" x="119.6" y="94" class="st1" width="3" height="4.8"/>
<path id="Path_81" class="st1" d="M119.6,86.2v1.2h1.2v2.4h-1.2V91h3v-4.8H119.6z"/>
<rect id="Rectangle_67" x="119.6" y="109.7" class="st1" width="3" height="4.8"/>
<path id="Path_82" class="st1" d="M119.6,101.8v1.2h1.2v2.4h-1.2v1.2h3v-4.8H119.6z"/>
<rect id="Rectangle_68" x="119.6" y="125.3" class="st1" width="3" height="4.8"/>
<rect id="Rectangle_69" x="119.6" y="145.8" class="st1" width="3" height="4.8"/>
<path id="Path_83" class="st1" d="M119.6,117.5v1.2h1.2v2.4h-1.2v1.2h3v-4.8L119.6,117.5z"/>
<path id="Path_84" class="st1" d="M119.6,154.3v1.2h1.2v2.4h-1.2v1.2h3v-4.8L119.6,154.3z"/>
<path id="Path_85" class="st1" d="M77.4,145.8v1.2h1.2v2.4h-1.2v1.2h3v-4.8L77.4,145.8z"/>
<path id="Path_86" class="st1" d="M77.4,153.7v1.2h1.2v2.4h-1.2v1.2h3v-4.8L77.4,153.7z"/>
<path id="Path_87" class="st1" d="M61.8,62.7v1.2H63v2.4h-1.2v1.2h3v-4.8L61.8,62.7z"/>
<path id="Path_88" class="st1" d="M61.8,93.4v1.2H63V97h-1.2v1.2h3v-4.8H61.8z"/>
<path id="Path_89" class="st1" d="M61.8,101.2v1.2H63v2.4h-1.2v1.2h3v-4.8L61.8,101.2z"/>
<path id="Path_90" class="st1" d="M61.8,116.9v1.2H63v2.4h-1.2v1.2h3v-4.8L61.8,116.9z"/>
<path id="Path_91" class="st1" d="M61.8,139.2v1.2H63v2.4h-1.2v1.2h3v-4.8L61.8,139.2z"/>
<path id="Path_92" class="st1" d="M61.8,145.8v1.2H63v2.4h-1.2v1.2h3v-4.8L61.8,145.8z"/>
<rect id="Rectangle_70" x="93.1" y="25.9" class="st1" width="3" height="4.8"/>
<rect id="Rectangle_71" x="93.1" y="33.7" class="st1" width="3" height="4.8"/>
<rect id="Rectangle_72" x="91.9" y="42.2" class="st1" width="4.2" height="0.6"/>
<rect id="Rectangle_73" x="91.9" y="80.8" class="st1" width="4.2" height="0.6"/>
<rect id="Rectangle_74" x="91.9" y="87.4" class="st1" width="4.2" height="0.6"/>
<path id="Path_93" class="st1" d="M93.1,47.6v1.2h1.2v2.4h-1.2v1.2h3v-4.8L93.1,47.6z"/>
<path id="Path_94" class="st1" d="M93.1,62.7v1.2h1.2v2.4h-1.2v1.2h3v-4.8L93.1,62.7z"/>
<path id="Path_95" class="st1" d="M93.1,93.4v1.2h1.2V97h-1.2v1.2h3v-4.8H93.1z"/>
<rect id="Rectangle_75" x="127.5" y="78.3" class="st1" width="3" height="4.8"/>
<rect id="Rectangle_76" x="127.5" y="86.2" class="st1" width="3" height="4.8"/>
<rect id="Rectangle_77" x="126.2" y="94.6" class="st1" width="4.2" height="0.6"/>
<rect id="Rectangle_78" x="126.2" y="133.2" class="st1" width="4.2" height="0.6"/>
<rect id="Rectangle_79" x="126.2" y="139.8" class="st1" width="4.2" height="0.6"/>
<path id="Path_96" class="st1" d="M127.5,100v1.2h1.2v2.4h-1.2v1.2h3V100L127.5,100z"/>
<path id="Path_97" class="st1" d="M127.5,115.1v1.2h1.2v2.4h-1.2v1.2h3v-4.8L127.5,115.1z"/>
<path id="Path_98" class="st1" d="M127.5,145.8v1.2h1.2v2.4h-1.2v1.2h3v-4.8L127.5,145.8z"/>
<rect id="Rectangle_80" x="137.1" y="25.9" class="st1" width="3" height="4.8"/>
<rect id="Rectangle_81" x="147.3" y="24.7" class="st1" width="3" height="4.8"/>
<rect id="Rectangle_82" x="152.8" y="24.7" class="st1" width="3" height="4.8"/>
<rect id="Rectangle_83" x="152.8" y="39.2" class="st1" width="3" height="4.8"/>
<rect id="Rectangle_84" x="158.8" y="31.9" class="st1" width="3" height="4.8"/>
<rect id="Rectangle_85" x="158.8" y="39.8" class="st1" width="3" height="4.8"/>
<rect id="Rectangle_86" x="152.8" y="54.8" class="st1" width="3" height="4.8"/>
<rect id="Rectangle_87" x="158.8" y="62.7" class="st1" width="3" height="4.8"/>
<rect id="Rectangle_88" x="152.8" y="92.2" class="st1" width="3" height="4.8"/>
<rect id="Rectangle_89" x="147.3" y="62.7" class="st1" width="3" height="4.8"/>
<rect id="Rectangle_90" x="137.1" y="33.7" class="st1" width="3" height="4.8"/>
<rect id="Rectangle_91" x="137.1" y="109.1" class="st1" width="3" height="4.8"/>
<rect id="Rectangle_92" x="137.1" y="124.7" class="st1" width="3" height="4.8"/>
<rect id="Rectangle_93" x="137.1" y="132.6" class="st1" width="3" height="4.8"/>
<rect id="Rectangle_94" x="135.9" y="42.2" class="st1" width="4.2" height="0.6"/>
<rect id="Rectangle_95" x="152.2" y="49.4" class="st1" width="4.2" height="0.6"/>
<rect id="Rectangle_96" x="135.9" y="80.8" class="st1" width="4.2" height="0.6"/>
<rect id="Rectangle_97" x="135.9" y="87.4" class="st1" width="4.2" height="0.6"/>
<rect id="Rectangle_98" x="152.2" y="125.9" class="st2" width="4.2" height="0.6"/>
<rect id="Rectangle_99" x="147.3" y="140.4" class="st2" width="4.2" height="0.6"/>
<path id="Path_99" class="st1" d="M137.1,47.6v1.2h1.2v2.4h-1.2v1.2h3v-4.8L137.1,47.6z"/>
<path id="Path_100" class="st1" d="M147.3,39.2v1.2h1.2v2.4h-1.2V44h3v-4.8L147.3,39.2z"/>
<path id="Path_101" class="st1" d="M158.8,47v1.2h1.2v2.4h-1.2v1.2h3V47H158.8z"/>
<path id="Path_102" class="st1" d="M158.8,70.5v1.2h1.2v2.4h-1.2v1.2h3v-4.8H158.8z"/>
<path id="Path_103" class="st1" d="M158.8,78.3v1.2h1.2V82h-1.2v1.2h3v-4.8H158.8z"/>
<path id="Path_104" class="st1" d="M158.8,54.2v1.2h1.2v2.4h-1.2v1.2h3v-4.8L158.8,54.2z"/>
<path id="Path_105" class="st1" d="M152.8,31.9v1.2h1.2v2.4h-1.2v1.2h3v-4.8H152.8z"/>
<rect id="Rectangle_100" x="152.8" y="70.5" class="st1" width="3" height="4.8"/>
<rect id="Rectangle_101" x="152.8" y="85" class="st1" width="3" height="4.8"/>
<path id="Path_106" class="st1" d="M152.8,77.7v1.2h1.2v2.4h-1.2v1.2h3v-4.8L152.8,77.7z"/>
<path id="Path_107" class="st1" d="M147.3,47v1.2h1.2v2.4h-1.2v1.2h3V47H147.3z"/>
<path id="Path_108" class="st1" d="M147.3,54.8V56h1.2v2.4h-1.2v1.2h3v-4.8L147.3,54.8z"/>
<rect id="Rectangle_102" x="147.3" y="78.3" class="st1" width="3" height="4.8"/>
<path id="Path_109" class="st1" d="M147.3,70.5v1.2h1.2v2.4h-1.2v1.2h3v-4.8H147.3z"/>
<rect id="Rectangle_103" x="147.3" y="94" class="st1" width="3" height="4.8"/>
<path id="Path_110" class="st1" d="M147.3,86.2v1.2h1.2v2.4h-1.2V91h3v-4.8H147.3z"/>
<rect id="Rectangle_104" x="147.3" y="109.7" class="st2" width="3" height="4.8"/>
<rect id="Rectangle_105" x="152.8" y="108.5" class="st2" width="3" height="4.8"/>
<path id="Path_111" class="st1" d="M147.3,101.8v1.2h1.2v2.4h-1.2v1.2h3v-4.8H147.3z"/>
<path id="Path_112" class="st1" d="M158.8,101.8v1.2h1.2v2.4h-1.2v1.2h3v-4.8H158.8z"/>
<rect id="Rectangle_106" x="189.5" y="31.9" class="st1" width="3" height="4.8"/>
<rect id="Rectangle_107" x="189.5" y="39.8" class="st1" width="3" height="4.8"/>
<rect id="Rectangle_108" x="189.5" y="62.7" class="st1" width="3" height="4.8"/>
<path id="Path_113" class="st1" d="M189.5,47v1.2h1.2v2.4h-1.2v1.2h3V47H189.5z"/>
<path id="Path_114" class="st1" d="M189.5,70.5v1.2h1.2v2.4h-1.2v1.2h3v-4.8H189.5z"/>
<path id="Path_115" class="st1" d="M189.5,78.3v1.2h1.2V82h-1.2v1.2h3v-4.8H189.5z"/>
<path id="Path_116" class="st1" d="M189.5,54.2v1.2h1.2v2.4h-1.2v1.2h3v-4.8L189.5,54.2z"/>
<path id="Path_117" class="st1" d="M189.5,101.8v1.2h1.2v2.4h-1.2v1.2h3v-4.8H189.5z"/>
<rect id="Rectangle_109" x="147.3" y="125.3" class="st2" width="3" height="4.8"/>
<rect id="Rectangle_110" x="152.8" y="116.3" class="st2" width="3" height="4.8"/>
<rect id="Rectangle_111" x="147.3" y="145.8" class="st2" width="3" height="4.8"/>
<rect id="Rectangle_112" x="152.8" y="131.4" class="st2" width="3" height="4.8"/>
<path id="Path_118" class="st2" d="M147.3,117.5v1.2h1.2v2.4h-1.2v1.2h3v-4.8L147.3,117.5z"/>
<path id="Path_119" class="st2" d="M147.3,154.3v1.2h1.2v2.4h-1.2v1.2h3v-4.8L147.3,154.3z"/>
<rect id="Rectangle_113" x="180.5" y="24.7" class="st1" width="3" height="4.8"/>
<rect id="Rectangle_114" x="180.5" y="62.7" class="st2" width="3" height="4.8"/>
<rect id="Rectangle_115" x="180.5" y="140.4" class="st2" width="4.2" height="0.6"/>
<path id="Path_120" class="st1" d="M180.5,39.2v1.2h1.2v2.4h-1.2V44h3v-4.8L180.5,39.2z"/>
<path id="Path_121" class="st1" d="M180.5,47v1.2h1.2v2.4h-1.2v1.2h3V47H180.5z"/>
<path id="Path_122" class="st1" d="M180.5,54.8V56h1.2v2.4h-1.2v1.2h3v-4.8L180.5,54.8z"/>
<rect id="Rectangle_116" x="180.5" y="78.3" class="st2" width="3" height="4.8"/>
<path id="Path_123" class="st2" d="M180.5,70.5v1.2h1.2v2.4h-1.2v1.2h3v-4.8H180.5z"/>
<rect id="Rectangle_117" x="180.5" y="94" class="st2" width="3" height="4.8"/>
<path id="Path_124" class="st2" d="M180.5,86.2v1.2h1.2v2.4h-1.2V91h3v-4.8H180.5z"/>
<rect id="Rectangle_118" x="180.5" y="109.7" class="st2" width="3" height="4.8"/>
<path id="Path_125" class="st2" d="M180.5,101.8v1.2h1.2v2.4h-1.2v1.2h3v-4.8H180.5z"/>
<rect id="Rectangle_119" x="180.5" y="125.3" class="st2" width="3" height="4.8"/>
<rect id="Rectangle_120" x="180.5" y="145.8" class="st2" width="3" height="4.8"/>
<path id="Path_126" class="st2" d="M180.5,117.5v1.2h1.2v2.4h-1.2v1.2h3v-4.8L180.5,117.5z"/>
<path id="Path_127" class="st2" d="M180.5,154.3v1.2h1.2v2.4h-1.2v1.2h3v-4.8L180.5,154.3z"/>
<rect id="Rectangle_121" x="194.9" y="24.7" class="st1" width="3" height="4.8"/>
<rect id="Rectangle_122" x="194.9" y="62.7" class="st1" width="3" height="4.8"/>
<rect id="Rectangle_123" x="194.9" y="140.4" class="st1" width="4.2" height="0.6"/>
<path id="Path_128" class="st1" d="M194.9,39.2v1.2h1.2v2.4h-1.2V44h3v-4.8L194.9,39.2z"/>
<path id="Path_129" class="st1" d="M194.9,47v1.2h1.2v2.4h-1.2v1.2h3V47H194.9z"/>
<path id="Path_130" class="st1" d="M194.9,54.8V56h1.2v2.4h-1.2v1.2h3v-4.8L194.9,54.8z"/>
<rect id="Rectangle_124" x="194.9" y="78.3" class="st1" width="3" height="4.8"/>
<path id="Path_131" class="st1" d="M194.9,70.5v1.2h1.2v2.4h-1.2v1.2h3v-4.8H194.9z"/>
<rect id="Rectangle_125" x="194.9" y="94" class="st1" width="3" height="4.8"/>
<path id="Path_132" class="st1" d="M194.9,86.2v1.2h1.2v2.4h-1.2V91h3v-4.8H194.9z"/>
<rect id="Rectangle_126" x="194.9" y="109.7" class="st1" width="3" height="4.8"/>
<path id="Path_133" class="st1" d="M194.9,101.8v1.2h1.2v2.4h-1.2v1.2h3v-4.8H194.9z"/>
<rect id="Rectangle_127" x="194.9" y="125.3" class="st1" width="3" height="4.8"/>
<rect id="Rectangle_128" x="194.9" y="145.8" class="st1" width="3" height="4.8"/>
<path id="Path_134" class="st1" d="M194.9,117.5v1.2h1.2v2.4h-1.2v1.2h3v-4.8L194.9,117.5z"/>
<path id="Path_135" class="st1" d="M194.9,154.3v1.2h1.2v2.4h-1.2v1.2h3v-4.8L194.9,154.3z"/>
<path id="Path_136" class="st2" d="M152.8,145.8v1.2h1.2v2.4h-1.2v1.2h3v-4.8L152.8,145.8z"/>
<path id="Path_137" class="st2" d="M152.8,153.7v1.2h1.2v2.4h-1.2v1.2h3v-4.8L152.8,153.7z"/>
<path id="Path_138" class="st1" d="M137.1,62.7v1.2h1.2v2.4h-1.2v1.2h3v-4.8L137.1,62.7z"/>
<path id="Path_139" class="st1" d="M137.1,93.4v1.2h1.2V97h-1.2v1.2h3v-4.8H137.1z"/>
<path id="Path_140" class="st1" d="M137.1,101.2v1.2h1.2v2.4h-1.2v1.2h3v-4.8L137.1,101.2z"/>
<path id="Path_141" class="st1" d="M137.1,116.9v1.2h1.2v2.4h-1.2v1.2h3v-4.8L137.1,116.9z"/>
<path id="Path_142" class="st1" d="M137.1,139.2v1.2h1.2v2.4h-1.2v1.2h3v-4.8L137.1,139.2z"/>
<path id="Path_143" class="st1" d="M137.1,145.8v1.2h1.2v2.4h-1.2v1.2h3v-4.8L137.1,145.8z"/>
<rect id="Rectangle_129" x="168.4" y="25.9" class="st1" width="3" height="4.8"/>
<rect id="Rectangle_130" x="168.4" y="33.7" class="st1" width="3" height="4.8"/>
<rect id="Rectangle_131" x="167.2" y="42.2" class="st1" width="4.2" height="0.6"/>
<rect id="Rectangle_132" x="167.2" y="80.8" class="st2" width="4.2" height="0.6"/>
<rect id="Rectangle_133" x="167.2" y="87.4" class="st2" width="4.2" height="0.6"/>
<path id="Path_144" class="st1" d="M168.4,47.6v1.2h1.2v2.4h-1.2v1.2h3v-4.8L168.4,47.6z"/>
<path id="Path_145" class="st2" d="M168.4,62.7v1.2h1.2v2.4h-1.2v1.2h3v-4.8L168.4,62.7z"/>
<path id="Path_146" class="st2" d="M168.4,93.4v1.2h1.2V97h-1.2v1.2h3v-4.8H168.4z"/>
<rect id="Rectangle_134" x="202.8" y="78.3" class="st1" width="3" height="4.8"/>
<rect id="Rectangle_135" x="202.8" y="86.2" class="st1" width="3" height="4.8"/>
<rect id="Rectangle_136" x="201.6" y="94.6" class="st1" width="4.2" height="0.6"/>
<rect id="Rectangle_137" x="201.6" y="133.2" class="st1" width="4.2" height="0.6"/>
<rect id="Rectangle_138" x="201.6" y="139.8" class="st1" width="4.2" height="0.6"/>
<path id="Path_147" class="st1" d="M202.8,100v1.2h1.2v2.4h-1.2v1.2h3V100L202.8,100z"/>
<path id="Path_148" class="st1" d="M202.8,115.1v1.2h1.2v2.4h-1.2v1.2h3v-4.8L202.8,115.1z"/>
<path id="Path_149" class="st1" d="M202.8,145.8v1.2h1.2v2.4h-1.2v1.2h3v-4.8L202.8,145.8z"/>
<rect id="Rectangle_139" x="212.4" y="25.9" class="st1" width="3" height="4.8"/>
<rect id="Rectangle_140" x="222.7" y="24.7" class="st1" width="3" height="4.8"/>
<rect id="Rectangle_141" x="228.1" y="24.7" class="st1" width="3" height="4.8"/>
<rect id="Rectangle_142" x="228.1" y="39.2" class="st1" width="3" height="4.8"/>
<rect id="Rectangle_143" x="234.1" y="31.9" class="st1" width="3" height="4.8"/>
<rect id="Rectangle_144" x="234.1" y="39.8" class="st1" width="3" height="4.8"/>
<rect id="Rectangle_145" x="228.1" y="54.8" class="st1" width="3" height="4.8"/>
<rect id="Rectangle_146" x="234.1" y="62.7" class="st1" width="3" height="4.8"/>
<rect id="Rectangle_147" x="228.1" y="92.2" class="st1" width="3" height="4.8"/>
<rect id="Rectangle_148" x="222.7" y="62.7" class="st1" width="3" height="4.8"/>
<rect id="Rectangle_149" x="212.4" y="33.7" class="st1" width="3" height="4.8"/>
<rect id="Rectangle_150" x="212.4" y="109.1" class="st1" width="3" height="4.8"/>
<rect id="Rectangle_151" x="212.4" y="124.7" class="st1" width="3" height="4.8"/>
<rect id="Rectangle_152" x="212.4" y="132.6" class="st1" width="3" height="4.8"/>
<rect id="Rectangle_153" x="211.2" y="42.2" class="st1" width="4.2" height="0.6"/>
<rect id="Rectangle_154" x="227.5" y="49.4" class="st1" width="4.2" height="0.6"/>
<rect id="Rectangle_155" x="211.2" y="80.8" class="st1" width="4.2" height="0.6"/>
<rect id="Rectangle_156" x="211.2" y="87.4" class="st1" width="4.2" height="0.6"/>
<rect id="Rectangle_157" x="227.5" y="125.9" class="st1" width="4.2" height="0.6"/>
<rect id="Rectangle_158" x="222.7" y="140.4" class="st1" width="4.2" height="0.6"/>
<path id="Path_150" class="st1" d="M212.4,47.6v1.2h1.2v2.4h-1.2v1.2h3v-4.8L212.4,47.6z"/>
<path id="Path_151" class="st1" d="M222.7,39.2v1.2h1.2v2.4h-1.2V44h3v-4.8L222.7,39.2z"/>
<path id="Path_152" class="st1" d="M234.1,47v1.2h1.2v2.4h-1.2v1.2h3V47H234.1z"/>
<path id="Path_153" class="st1" d="M234.1,70.5v1.2h1.2v2.4h-1.2v1.2h3v-4.8H234.1z"/>
<path id="Path_154" class="st1" d="M234.1,78.3v1.2h1.2V82h-1.2v1.2h3v-4.8H234.1z"/>
<path id="Path_155" class="st1" d="M234.1,54.2v1.2h1.2v2.4h-1.2v1.2h3v-4.8L234.1,54.2z"/>
<path id="Path_156" class="st1" d="M228.1,31.9v1.2h1.2v2.4h-1.2v1.2h3v-4.8H228.1z"/>
<rect id="Rectangle_159" x="228.1" y="70.5" class="st1" width="3" height="4.8"/>
<rect id="Rectangle_160" x="228.1" y="85" class="st1" width="3" height="4.8"/>
<path id="Path_157" class="st1" d="M228.1,77.7v1.2h1.2v2.4h-1.2v1.2h3v-4.8L228.1,77.7z"/>
<path id="Path_158" class="st1" d="M222.7,47v1.2h1.2v2.4h-1.2v1.2h3V47H222.7z"/>
<path id="Path_159" class="st1" d="M222.7,54.8V56h1.2v2.4h-1.2v1.2h3v-4.8L222.7,54.8z"/>
<rect id="Rectangle_161" x="222.7" y="78.3" class="st1" width="3" height="4.8"/>
<path id="Path_160" class="st1" d="M222.7,70.5v1.2h1.2v2.4h-1.2v1.2h3v-4.8H222.7z"/>
<rect id="Rectangle_162" x="222.7" y="94" class="st1" width="3" height="4.8"/>
<path id="Path_161" class="st1" d="M222.7,86.2v1.2h1.2v2.4h-1.2V91h3v-4.8H222.7z"/>
<rect id="Rectangle_163" x="222.7" y="109.7" class="st1" width="3" height="4.8"/>
<rect id="Rectangle_164" x="228.1" y="108.5" class="st1" width="3" height="4.8"/>
<path id="Path_162" class="st1" d="M222.7,101.8v1.2h1.2v2.4h-1.2v1.2h3v-4.8H222.7z"/>
<path id="Path_163" class="st1" d="M234.1,101.8v1.2h1.2v2.4h-1.2v1.2h3v-4.8H234.1z"/>
<rect id="Rectangle_165" x="264.9" y="31.9" class="st1" width="3" height="4.8"/>
<rect id="Rectangle_166" x="264.9" y="39.8" class="st1" width="3" height="4.8"/>
<rect id="Rectangle_167" x="264.9" y="62.7" class="st1" width="3" height="4.8"/>
<path id="Path_164" class="st1" d="M264.9,47v1.2h1.2v2.4h-1.2v1.2h3V47H264.9z"/>
<path id="Path_165" class="st1" d="M264.9,70.5v1.2h1.2v2.4h-1.2v1.2h3v-4.8H264.9z"/>
<path id="Path_166" class="st1" d="M264.9,78.3v1.2h1.2V82h-1.2v1.2h3v-4.8H264.9z"/>
<path id="Path_167" class="st1" d="M264.9,54.2v1.2h1.2v2.4h-1.2v1.2h3v-4.8L264.9,54.2z"/>
<path id="Path_168" class="st1" d="M264.9,101.8v1.2h1.2v2.4h-1.2v1.2h3v-4.8H264.9z"/>
<rect id="Rectangle_168" x="222.7" y="125.3" class="st1" width="3" height="4.8"/>
<rect id="Rectangle_169" x="228.1" y="116.3" class="st1" width="3" height="4.8"/>
<rect id="Rectangle_170" x="222.7" y="145.8" class="st1" width="3" height="4.8"/>
<rect id="Rectangle_171" x="228.1" y="131.4" class="st1" width="3" height="4.8"/>
<path id="Path_169" class="st1" d="M222.7,117.5v1.2h1.2v2.4h-1.2v1.2h3v-4.8L222.7,117.5z"/>
<path id="Path_170" class="st1" d="M222.7,154.3v1.2h1.2v2.4h-1.2v1.2h3v-4.8L222.7,154.3z"/>
<rect id="Rectangle_172" x="255.8" y="24.7" class="st1" width="3" height="4.8"/>
<rect id="Rectangle_173" x="255.8" y="62.7" class="st1" width="3" height="4.8"/>
<rect id="Rectangle_174" x="255.8" y="140.4" class="st1" width="4.2" height="0.6"/>
<path id="Path_171" class="st1" d="M255.8,39.2v1.2h1.2v2.4h-1.2V44h3v-4.8L255.8,39.2z"/>
<path id="Path_172" class="st1" d="M255.8,47v1.2h1.2v2.4h-1.2v1.2h3V47H255.8z"/>
<path id="Path_173" class="st1" d="M255.8,54.8V56h1.2v2.4h-1.2v1.2h3v-4.8L255.8,54.8z"/>
<rect id="Rectangle_175" x="255.8" y="78.3" class="st1" width="3" height="4.8"/>
<path id="Path_174" class="st1" d="M255.8,70.5v1.2h1.2v2.4h-1.2v1.2h3v-4.8H255.8z"/>
<rect id="Rectangle_176" x="255.8" y="94" class="st1" width="3" height="4.8"/>
<path id="Path_175" class="st1" d="M255.8,86.2v1.2h1.2v2.4h-1.2V91h3v-4.8H255.8z"/>
<rect id="Rectangle_177" x="255.8" y="109.7" class="st1" width="3" height="4.8"/>
<path id="Path_176" class="st1" d="M255.8,101.8v1.2h1.2v2.4h-1.2v1.2h3v-4.8H255.8z"/>
<rect id="Rectangle_178" x="255.8" y="125.3" class="st1" width="3" height="4.8"/>
<rect id="Rectangle_179" x="255.8" y="145.8" class="st1" width="3" height="4.8"/>
<path id="Path_177" class="st1" d="M255.8,117.5v1.2h1.2v2.4h-1.2v1.2h3v-4.8L255.8,117.5z"/>
<path id="Path_178" class="st1" d="M255.8,154.3v1.2h1.2v2.4h-1.2v1.2h3v-4.8L255.8,154.3z"/>
<rect id="Rectangle_180" x="270.3" y="24.7" class="st1" width="3" height="4.8"/>
<rect id="Rectangle_181" x="270.3" y="62.7" class="st1" width="3" height="4.8"/>
<rect id="Rectangle_182" x="270.3" y="140.4" class="st1" width="4.2" height="0.6"/>
<path id="Path_179" class="st1" d="M270.3,39.2v1.2h1.2v2.4h-1.2V44h3v-4.8L270.3,39.2z"/>
<path id="Path_180" class="st1" d="M270.3,47v1.2h1.2v2.4h-1.2v1.2h3V47H270.3z"/>
<path id="Path_181" class="st1" d="M270.3,54.8V56h1.2v2.4h-1.2v1.2h3v-4.8L270.3,54.8z"/>
<rect id="Rectangle_183" x="270.3" y="78.3" class="st1" width="3" height="4.8"/>
<path id="Path_182" class="st1" d="M270.3,70.5v1.2h1.2v2.4h-1.2v1.2h3v-4.8H270.3z"/>
<rect id="Rectangle_184" x="270.3" y="94" class="st1" width="3" height="4.8"/>
<path id="Path_183" class="st1" d="M270.3,86.2v1.2h1.2v2.4h-1.2V91h3v-4.8H270.3z"/>
<rect id="Rectangle_185" x="270.3" y="109.7" class="st1" width="3" height="4.8"/>
<path id="Path_184" class="st1" d="M270.3,101.8v1.2h1.2v2.4h-1.2v1.2h3v-4.8H270.3z"/>
<rect id="Rectangle_186" x="270.3" y="125.3" class="st1" width="3" height="4.8"/>
<rect id="Rectangle_187" x="270.3" y="145.8" class="st1" width="3" height="4.8"/>
<path id="Path_185" class="st1" d="M270.3,117.5v1.2h1.2v2.4h-1.2v1.2h3v-4.8L270.3,117.5z"/>
<path id="Path_186" class="st1" d="M270.3,154.3v1.2h1.2v2.4h-1.2v1.2h3v-4.8L270.3,154.3z"/>
<path id="Path_187" class="st1" d="M228.1,145.8v1.2h1.2v2.4h-1.2v1.2h3v-4.8L228.1,145.8z"/>
<path id="Path_188" class="st1" d="M228.1,153.7v1.2h1.2v2.4h-1.2v1.2h3v-4.8L228.1,153.7z"/>
<path id="Path_189" class="st1" d="M212.4,62.7v1.2h1.2v2.4h-1.2v1.2h3v-4.8L212.4,62.7z"/>
<path id="Path_190" class="st1" d="M212.4,93.4v1.2h1.2V97h-1.2v1.2h3v-4.8H212.4z"/>
<path id="Path_191" class="st1" d="M212.4,101.2v1.2h1.2v2.4h-1.2v1.2h3v-4.8L212.4,101.2z"/>
<path id="Path_192" class="st1" d="M212.4,116.9v1.2h1.2v2.4h-1.2v1.2h3v-4.8L212.4,116.9z"/>
<path id="Path_193" class="st1" d="M212.4,139.2v1.2h1.2v2.4h-1.2v1.2h3v-4.8L212.4,139.2z"/>
<path id="Path_194" class="st1" d="M212.4,145.8v1.2h1.2v2.4h-1.2v1.2h3v-4.8L212.4,145.8z"/>
<rect id="Rectangle_188" x="243.8" y="25.9" class="st1" width="3" height="4.8"/>
<rect id="Rectangle_189" x="243.8" y="33.7" class="st1" width="3" height="4.8"/>
<rect id="Rectangle_190" x="242.6" y="42.2" class="st1" width="4.2" height="0.6"/>
<rect id="Rectangle_191" x="242.6" y="80.8" class="st1" width="4.2" height="0.6"/>
<rect id="Rectangle_192" x="242.6" y="87.4" class="st1" width="4.2" height="0.6"/>
<path id="Path_195" class="st1" d="M243.8,47.6v1.2h1.2v2.4h-1.2v1.2h3v-4.8L243.8,47.6z"/>
<path id="Path_196" class="st1" d="M243.8,62.7v1.2h1.2v2.4h-1.2v1.2h3v-4.8L243.8,62.7z"/>
<path id="Path_197" class="st1" d="M243.8,93.4v1.2h1.2V97h-1.2v1.2h3v-4.8H243.8z"/>
<rect id="Rectangle_193" x="278.1" y="78.3" class="st1" width="3" height="4.8"/>
<rect id="Rectangle_194" x="278.1" y="86.2" class="st1" width="3" height="4.8"/>
<rect id="Rectangle_195" x="276.9" y="94.6" class="st1" width="4.2" height="0.6"/>
<rect id="Rectangle_196" x="276.9" y="133.2" class="st1" width="4.2" height="0.6"/>
<rect id="Rectangle_197" x="276.9" y="139.8" class="st1" width="4.2" height="0.6"/>
<path id="Path_198" class="st1" d="M278.1,100v1.2h1.2v2.4h-1.2v1.2h3V100L278.1,100z"/>
<path id="Path_199" class="st1" d="M278.1,115.1v1.2h1.2v2.4h-1.2v1.2h3v-4.8L278.1,115.1z"/>
<path id="Path_200" class="st1" d="M278.1,145.8v1.2h1.2v2.4h-1.2v1.2h3v-4.8L278.1,145.8z"/>
<rect id="Rectangle_198" x="83.7" y="275.9" class="st3" width="323.2" height="1"/>
<path id="Path_201" class="st3" d="M150.5,157.9v20.3l2.7,12.5c0,0-0.4,7.8,0,10.2s-0.4,6.2-2.7,6.2S147,213,147,213
	s-0.8,2.3-2.7,2.7s-2,0-2,0l-1.6,3.9l-32.4,21.5l6.2,15.6c0,0,9.8-3.5,10.5-4.7s7.4,1.6,7.4-1.2s1.2-9.8,3.5-10.2s21.9-9.4,21.9-9.4
	s10.2-11.3,10.9-15.6s4.3-16.4,4.3-16.4l9.8,16.4v32.8l-1.6,17.6l17.2-2.3c0,0-1.6-10.9,0-12.5s3.9-20.3,2.3-22.6s0.8-12.9,0-14.4
	s-0.4-12.9-2.3-16S184.9,163,184.9,163L150.5,157.9z"/>
<path id="Path_202" class="st3" d="M183.7,265.3c0,0-5.9,9.8-2,10.9s11.3,0,12.1,0s14.8,0.4,14.8,0.4s9.4-2,9.4-4.7
	s-5.9-2.7-7.8-3.1s-14.1-5.1-14.1-5.1L183.7,265.3z"/>
<path id="Path_203" class="st3" d="M110.2,241.5c0,0-11.3-1.5-10.8,2.6s4.5,10.4,4.8,11.1c0.2,0.5,2.7,6.6,4.2,10.5
	c1.1,2.9,2.8,5.5,5,7.7c1.5,1.5,3.2,2.8,4.3,2.3c2.5-1.1,0.2-6.5-0.2-8.4s-0.9-14.9-0.9-14.9L110.2,241.5z"/>
<path id="Path_204" class="st4" d="M188.6,93.3l12.5-28.9c0,0-1.2-2.7-3.9-2.3c0,0-3.7-9.6-10.7-9.6c0,0-10.5-5.9-13.7,0
	c0,0-6.6,5.9-6.2,11.3s0.8,9.4,0.8,9.4s-6.2,0.8-5.1,3.9s1.6,3.1,0,4.3l-1.6,1.2c0,0-32.4,29.3-14.4,72.2l1.6,6.6v6.2
	c0,0,39.4,0.4,39.4,0s-0.8-2.7,0.8-4.3c1-1.1,1.5-2.5,1.6-3.9c0,0-1.6-7.8-0.8-10.2s1.2-12.5-0.4-14.8s-0.8-21.1-0.8-21.1l3.5-6.6
	l-1.2-3.9l-1.2-3.9L188.6,93.3z"/>
<path id="Path_205" class="st5" d="M185.3,171.6c0,0-4.7-12.9-4.3-15.2s-0.8-7-0.8-7l-1.6-31.6c0,0,6.6-28.1-8.2-32.8
	c0,0-3.8,1.6-6.8,6.9c-3,1.4-6.7,4.8-7.6,13.4c-1.6,15.2,5.5,54.3,9,60.9s5.9,11.3,5.9,11.3l3.7-1.6l0.2,0.5L185.3,171.6z"/>
<circle id="Ellipse_17" class="st6" cx="187.4" cy="88.6" r="1.2"/>
<rect id="Rectangle_199" x="187.1" y="88.6" class="st7" width="0.8" height="18.4"/>
<path id="Path_206" class="st8" d="M173.4,172.9l3.1,6.6c0,0,7-2.3,7-3.5s-3.1-6.2-3.1-6.2L173.4,172.9z"/>
<path id="Path_207" class="st9" d="M168.9,84.9c0,0-9,3.9-10.5,19.1s5.5,54.3,9,60.9s5.9,11.3,5.9,11.3l10.5-4.7
	c0,0-4.7-12.9-4.3-15.2s-0.8-7-0.8-7l-1.6-31.6C177.1,117.7,183.7,89.6,168.9,84.9z"/>
</svg>
