<?xml version="1.0" encoding="utf-8"?>
<!-- Generator: Adobe Illustrator 26.2.1, SVG Export Plug-In . SVG Version: 6.00 Build 0)  -->
<svg version="1.1" id="Layer_1" xmlns="http://www.w3.org/2000/svg" xmlns:xlink="http://www.w3.org/1999/xlink" x="0px" y="0px"
	 viewBox="0 0 500 500" style="enable-background:new 0 0 500 500;" xml:space="preserve">
<style type="text/css">
	.st0{fill:#D94F04;}
	.st1{opacity:0.7;fill:#FFFFFF;enable-background:new    ;}
	.st2{fill:none;stroke:#263238;stroke-linecap:round;stroke-linejoin:round;}
	.st3{fill:none;stroke:#263238;stroke-linecap:round;stroke-linejoin:round;stroke-dasharray:4.8034,2.8821;}
	.st4{fill:none;stroke:#263238;stroke-linecap:round;stroke-linejoin:round;stroke-dasharray:4.5763,2.7458;}
	.st5{fill:none;stroke:#263238;stroke-linecap:round;stroke-linejoin:round;stroke-dasharray:4.5756,2.7454;}
	.st6{fill:none;stroke:#263238;stroke-linecap:round;stroke-linejoin:round;stroke-dasharray:4.8027,2.8816;}
	.st7{fill:none;stroke:#263238;stroke-linecap:round;stroke-linejoin:round;stroke-dasharray:5.2271,3.1363;}
	.st8{fill:none;stroke:#263238;stroke-linecap:round;stroke-linejoin:round;stroke-dasharray:5.2933,3.176;}
	.st9{fill:none;stroke:#263238;stroke-linecap:round;stroke-linejoin:round;stroke-dasharray:4.3927,2.6356;}
	.st10{fill:none;stroke:#263238;stroke-linecap:round;stroke-linejoin:round;stroke-dasharray:6.3748,3.8249;}
	.st11{fill:#CBDAD5;}
	.st12{opacity:0.3;fill:#007172;fill-opacity:0.7;enable-background:new    ;}
	.st13{opacity:0.5;fill:#FFFFFF;enable-background:new    ;}
	.st14{fill:none;stroke:#263238;stroke-linecap:round;stroke-linejoin:round;stroke-dasharray:5,3;}
	.st15{fill:#263238;stroke:#263238;stroke-miterlimit:10;}
	.st16{fill:#263238;}
	.st17{clip-path:url(#SVGID_00000016076762064994083630000002143428258115681697_);}
	.st18{opacity:0.2;fill:#FFE1DD;enable-background:new    ;}
	.st19{fill:none;stroke:#263238;stroke-miterlimit:10;}
	.st20{fill:#757575;}
	.st21{clip-path:url(#SVGID_00000027577611205092680040000016332738278939385487_);}
	.st22{opacity:0.3;fill-opacity:0.7;enable-background:new    ;}
	.st23{fill:#FFFFFF;stroke:#263238;stroke-linecap:round;stroke-linejoin:round;}
	.st24{fill:#007172;}
	.st25{clip-path:url(#SVGID_00000096049408135258631250000008976787559987604917_);}
	.st26{opacity:0.2;fill-opacity:0.7;enable-background:new    ;}
	.st27{clip-path:url(#SVGID_00000129884025781502964410000007210873652242760879_);}
	.st28{clip-path:url(#SVGID_00000098178919276338354780000010956323199189239696_);}
	.st29{clip-path:url(#SVGID_00000098943287512191935510000006774522631019669376_);}
	.st30{opacity:0.5;fill-opacity:0.7;enable-background:new    ;}
	.st31{fill:#D94F04;stroke:#263238;stroke-linecap:round;stroke-linejoin:round;}
</style>
<g id="freepik--background-simple--inject-285">
	<path class="st0" d="M85.3,453.6c0,0-89.4-122.4-34-216.5s165.4-29.5,186.4-117.3s97.4-102.2,169.9,7.6s55.2,262.5,16.8,326.2H85.3
		z"/>
	<path class="st1" d="M85,453.6c0,0-89.4-122.4-34-216.5s165.4-29.5,186.3-117.3s97.4-102.2,169.9,7.6s55.2,262.5,16.8,326.2H85z"/>
</g>
<g id="freepik--Files--inject-285">
	<polyline class="st2" points="337.2,120.8 334.7,120.8 334.7,118.3 	"/>
	<line class="st3" x1="334.7" y1="115.5" x2="334.7" y2="101.5"/>
	<polyline class="st2" points="334.7,100.1 334.7,97.6 337.2,97.6 	"/>
	<line class="st4" x1="340" y1="97.6" x2="360.6" y2="97.6"/>
	<polyline class="st2" points="361.9,97.6 364.4,97.6 364.4,100.4 	"/>
	<polyline class="st2" points="366.9,121.2 366.9,123.7 364.4,123.7 	"/>
	<line class="st5" x1="361.7" y1="123.7" x2="341.1" y2="123.7"/>
	<polyline class="st2" points="339.7,123.7 337.2,123.7 337.2,121.2 	"/>
	<line class="st6" x1="337.2" y1="118.3" x2="337.2" y2="104.4"/>
	<polyline class="st2" points="337.2,102.9 337.2,100.4 339.7,100.4 	"/>
	<line class="st5" x1="342.5" y1="100.4" x2="363.1" y2="100.4"/>
	<polyline class="st2" points="364.4,100.4 366.9,100.4 366.9,102.9 	"/>
	<line class="st6" x1="366.9" y1="105.8" x2="366.9" y2="119.7"/>
	<polyline class="st2" points="78.3,412.5 75.8,412.5 75.8,410 	"/>
	<line class="st3" x1="75.8" y1="407.1" x2="75.8" y2="393.2"/>
	<polyline class="st2" points="75.8,391.8 75.8,389.2 78.3,389.2 	"/>
	<line class="st4" x1="81.1" y1="389.3" x2="101.6" y2="389.3"/>
	<polyline class="st2" points="103,389.2 105.5,389.2 105.5,392.1 	"/>
	<polyline class="st2" points="108,412.9 108,415.4 105.5,415.4 	"/>
	<line class="st5" x1="102.8" y1="415.4" x2="82.2" y2="415.4"/>
	<polyline class="st2" points="80.8,415.4 78.3,415.4 78.3,412.9 	"/>
	<line class="st6" x1="78.3" y1="410" x2="78.3" y2="396"/>
	<polyline class="st2" points="78.3,394.6 78.3,392.1 80.8,392.1 	"/>
	<line class="st5" x1="83.5" y1="392.1" x2="104.1" y2="392.1"/>
	<polyline class="st2" points="105.5,392.1 108,392.1 108,394.6 	"/>
	<line class="st6" x1="108" y1="397.5" x2="108" y2="411.4"/>
	<polyline class="st2" points="403.5,403.3 401,403.3 401,400.8 	"/>
	<line class="st3" x1="401" y1="397.9" x2="401" y2="384"/>
	<polyline class="st2" points="401,382.5 401,380 403.5,380 	"/>
	<line class="st4" x1="406.3" y1="380" x2="426.9" y2="380"/>
	<polyline class="st2" points="428.2,380 430.7,380 430.7,382.9 	"/>
	<polyline class="st2" points="433.2,403.6 433.2,406.1 430.7,406.1 	"/>
	<line class="st5" x1="428" y1="406.1" x2="407.4" y2="406.1"/>
	<polyline class="st2" points="406,406.1 403.5,406.1 403.5,403.6 	"/>
	<line class="st6" x1="403.5" y1="400.7" x2="403.5" y2="386.8"/>
	<polyline class="st2" points="403.5,385.4 403.5,382.9 406,382.9 	"/>
	<line class="st5" x1="408.8" y1="382.9" x2="429.3" y2="382.9"/>
	<polyline class="st2" points="430.7,382.9 433.2,382.9 433.2,385.4 	"/>
	<line class="st6" x1="433.2" y1="388.2" x2="433.2" y2="402.2"/>
	<polyline class="st2" points="94.9,114.2 92.4,114.2 92.4,111.7 	"/>
	<line class="st3" x1="92.4" y1="108.8" x2="92.4" y2="94.9"/>
	<polyline class="st2" points="92.4,93.4 92.4,90.9 94.9,90.9 	"/>
	<line class="st4" x1="97.6" y1="90.9" x2="118.2" y2="90.9"/>
	<polyline class="st2" points="119.6,90.9 122.1,90.9 122.1,93.8 	"/>
	<polyline class="st2" points="124.6,114.5 124.6,117 122.1,117 	"/>
	<line class="st5" x1="119.3" y1="117" x2="98.8" y2="117"/>
	<polyline class="st2" points="97.4,117 94.9,117 94.9,114.5 	"/>
	<line class="st6" x1="94.9" y1="111.6" x2="94.9" y2="97.7"/>
	<polyline class="st2" points="94.9,96.3 94.9,93.8 97.4,93.8 	"/>
	<line class="st5" x1="100.1" y1="93.8" x2="120.7" y2="93.8"/>
	<polyline class="st2" points="122.1,93.8 124.6,93.8 124.6,96.3 	"/>
	<line class="st6" x1="124.6" y1="99.2" x2="124.6" y2="113.1"/>
	<polyline class="st2" points="251,90 247.2,90 247.2,87.5 	"/>
	<line class="st7" x1="247.2" y1="84.3" x2="247.2" y2="60.8"/>
	<polyline class="st2" points="247.2,59.3 247.2,56.8 249.7,56.8 	"/>
	<line class="st8" x1="252.9" y1="56.8" x2="268.2" y2="56.8"/>
	<polyline class="st2" points="269.8,56.8 272.3,56.8 272.3,59.8 	"/>
	<polyline class="st2" points="273.6,59.8 276.1,59.8 276.1,62.3 	"/>
	<polyline class="st9" points="276.1,64.9 276.1,86.9 272.8,90.3 	"/>
	<polyline class="st2" points="271.8,91.3 270.1,93 267.6,93 	"/>
	<line class="st10" x1="263.7" y1="93" x2="255.4" y2="93"/>
	<polyline class="st2" points="253.5,93 251,93 251,90.5 	"/>
	<line class="st7" x1="251" y1="87.4" x2="251" y2="63.9"/>
	<polyline class="st2" points="251,62.3 251,59.8 253.5,59.8 	"/>
	<line class="st8" x1="256.7" y1="59.8" x2="272.1" y2="59.8"/>
	<polyline class="st2" points="273.6,86.9 276.1,86.9 274.4,88.7 	"/>
	<polyline class="st2" points="271.8,91.3 270.1,93 270.1,90.5 	"/>
	<polyline class="st2" points="270.1,89.4 270.1,86.9 272.6,86.9 	"/>
	<polyline class="st2" points="58.6,269 54.8,269 54.8,266.5 	"/>
	<line class="st7" x1="54.8" y1="263.4" x2="54.8" y2="239.9"/>
	<polyline class="st2" points="54.8,238.3 54.8,235.8 57.3,235.8 	"/>
	<line class="st8" x1="60.5" y1="235.8" x2="75.8" y2="235.8"/>
	<polyline class="st2" points="77.4,235.8 79.9,235.8 79.9,238.8 	"/>
	<polyline class="st2" points="81.2,238.8 83.7,238.8 83.7,241.3 	"/>
	<polyline class="st9" points="83.7,244 83.7,266 80.3,269.4 	"/>
	<polyline class="st2" points="79.4,270.3 77.6,272.1 75.1,272.1 	"/>
	<line class="st10" x1="71.3" y1="272.1" x2="63" y2="272.1"/>
	<polyline class="st2" points="61.1,272.1 58.6,272.1 58.6,269.6 	"/>
	<line class="st7" x1="58.6" y1="266.4" x2="58.6" y2="242.9"/>
	<polyline class="st2" points="58.6,241.3 58.6,238.8 61.1,238.8 	"/>
	<line class="st8" x1="64.3" y1="238.8" x2="79.6" y2="238.8"/>
	<polyline class="st2" points="81.2,266 83.7,266 81.9,267.7 	"/>
	<polyline class="st2" points="79.4,270.3 77.6,272.1 77.6,269.6 	"/>
	<polyline class="st2" points="77.6,268.5 77.6,266 80.1,266 	"/>
	<polyline class="st2" points="304.5,347.3 300.7,347.3 300.7,344.8 	"/>
	<line class="st7" x1="300.7" y1="341.6" x2="300.7" y2="318.1"/>
	<polyline class="st2" points="300.7,316.5 300.7,314 303.2,314 	"/>
	<line class="st8" x1="306.4" y1="314" x2="321.8" y2="314"/>
	<polyline class="st2" points="323.4,314 325.9,314 325.9,317.1 	"/>
	<polyline class="st2" points="327.2,317.1 329.7,317.1 329.7,319.6 	"/>
	<polyline class="st9" points="329.7,322.2 329.7,344.2 326.3,347.6 	"/>
	<polyline class="st2" points="325.3,348.5 323.6,350.3 321.1,350.3 	"/>
	<line class="st10" x1="317.2" y1="350.3" x2="309" y2="350.3"/>
	<polyline class="st2" points="307,350.3 304.5,350.3 304.5,347.8 	"/>
	<line class="st7" x1="304.5" y1="344.7" x2="304.5" y2="321.2"/>
	<polyline class="st2" points="304.5,319.6 304.5,317.1 307,317.1 	"/>
	<line class="st8" x1="310.2" y1="317.1" x2="325.6" y2="317.1"/>
	<polyline class="st2" points="327.2,344.2 329.7,344.2 327.9,346 	"/>
	<polyline class="st2" points="325.3,348.5 323.6,350.3 323.6,347.8 	"/>
	<polyline class="st2" points="323.6,346.7 323.6,344.2 326.1,344.2 	"/>
</g>
<g id="freepik--filing-cabinet--inject-285">
	<rect x="108.5" y="114.3" class="st11" width="199.4" height="339.2"/>
	<rect x="242.4" y="119.8" class="st12" width="59.9" height="61.2"/>
	<path class="st0" d="M291.9,133.2h-0.5v-1.1c0-0.8-0.5-1.4-1.3-1.4h-24.8c-0.7,0-1.2-0.6-1.3-1.3l-0.2-1.4c0-0.7-0.6-1.2-1.3-1.3
		h-6.5c-0.7,0-1.2,0.6-1.3,1.3l-0.1,1.4c0,0.7-0.6,1.2-1.3,1.3h-1.2c-0.8,0-1.3,0.7-1.3,1.4v37.5c0,0.8,0.5,1.4,1.3,1.4h37.9
		c0.1,0,0.3,0,0.4-0.1h1.4c0.9,0,1.6-0.7,1.6-1.6v-34.5C293.5,133.9,292.8,133.2,291.9,133.2L291.9,133.2z"/>
	<path class="st13" d="M253,169.3v-34.5c0-0.9,0.7-1.6,1.6-1.6c0,0,0,0,0,0h36.7v-1.1c0-0.8-0.5-1.4-1.3-1.4h-24.8
		c-0.7,0-1.2-0.6-1.3-1.3l-0.2-1.4c0-0.7-0.6-1.2-1.3-1.3h-6.5c-0.7,0-1.2,0.6-1.3,1.3l-0.1,1.4c0,0.7-0.6,1.2-1.3,1.3h-1.2
		c-0.8,0-1.3,0.7-1.3,1.4v37.5c0,0.8,0.5,1.4,1.3,1.4h37.9c0.1,0,0.3,0,0.4-0.1h-35.9C253.7,171,253,170.2,253,169.3
		C253,169.3,253,169.3,253,169.3z"/>
	<path class="st1" d="M291.9,133.2h-37.2c-0.9,0-1.6,0.7-1.6,1.6c0,0,0,0,0,0v34.5c0,0.9,0.7,1.6,1.6,1.6h37.2
		c0.9,0,1.6-0.7,1.6-1.6v-34.5C293.5,133.9,292.8,133.2,291.9,133.2z"/>
	<path class="st0" d="M272.8,161.2c-5.2,0-9.7-7.4-10.6-9.2c1.4-2.5,3.2-4.8,5.3-6.8l-0.6-0.9c-2.2,2.1-4.1,4.6-5.6,7.3
		c-0.1,0.2-0.1,0.5,0,0.8c0.2,0.4,5.2,10,11.5,10c1.7-0.1,3.3-0.7,4.7-1.7l-0.6-0.9C275.7,160.7,274.3,161.2,272.8,161.2z"/>
	<path class="st0" d="M284.3,151.7c-0.2-0.4-5.2-10-11.5-10c-1.7,0.1-3.3,0.7-4.7,1.7l0.6,0.9c1.2-0.9,2.6-1.4,4.1-1.4
		c5.2,0,9.7,7.4,10.7,9.2c-1.4,2.5-3.2,4.8-5.3,6.8l0.6,0.9c2.2-2.1,4.1-4.6,5.6-7.3C284.4,152.2,284.4,151.9,284.3,151.7z"/>
	<path class="st0" d="M272.8,157.3c0.7,0,1.4-0.3,1.9-0.9l-0.6-0.9c-0.4,0.3-0.8,0.5-1.3,0.6c-1.4,0-2.6-1.8-2.6-4
		c0-0.7,0.1-1.4,0.4-2l-0.6-0.9c-0.4,0.9-0.6,1.9-0.6,2.9C269.4,154.9,270.9,157.3,272.8,157.3z"/>
	<path class="st0" d="M272.8,146.9c-0.7,0-1.4,0.3-1.9,0.9l0.6,0.9c0.3-0.3,0.8-0.5,1.3-0.6c1.4,0,2.6,1.8,2.6,4
		c0,0.7-0.1,1.4-0.4,2l0.6,0.9c0.4-0.9,0.6-1.9,0.6-2.9C276.1,149.2,274.6,146.9,272.8,146.9z"/>
	<path class="st0" d="M265.3,139.8c-0.1,0-0.2,0.1-0.3,0.2c-0.2,0.3-0.2,0.6,0,0.9l15,23.3c0.1,0.1,0.2,0.2,0.3,0.2
		c0.1,0,0.2-0.1,0.3-0.2c0.1-0.3,0.1-0.6,0-0.9l-15-23.3C265.5,139.9,265.4,139.8,265.3,139.8z"/>
	<path class="st14" d="M291.4,133.2v-1.1c0-0.8-0.5-1.4-1.3-1.4h-24.8c-0.7,0-1.2-0.6-1.3-1.3l-0.2-1.4c0-0.7-0.6-1.2-1.3-1.3h-6.5
		c-0.7,0-1.2,0.6-1.3,1.3l-0.1,1.4c0,0.7-0.6,1.2-1.3,1.3h-1.2c-0.8,0-1.3,0.7-1.3,1.4v37.5c0,0.8,0.5,1.4,1.3,1.4"/>
	<path class="st14" d="M291.9,133.2h-37.2c-0.9,0-1.6,0.7-1.6,1.6c0,0,0,0,0,0v34.5c0,0.9,0.7,1.6,1.6,1.6h37.2
		c0.9,0,1.6-0.7,1.6-1.6v-34.5C293.5,133.9,292.8,133.2,291.9,133.2z"/>
	<rect x="177.9" y="119.8" class="st12" width="59.9" height="61.2"/>
	<path class="st14" d="M185.4,126.7h-6.5c-0.7,0-1.2,0.6-1.3,1.3l-0.1,1.4c0,0.7-0.6,1.2-1.3,1.3H175c-0.8,0-1.3,0.7-1.3,1.4v37.5
		c0,0.7,0.6,1.4,1.3,1.4"/>
	<path class="st14" d="M171.3,127h-6.5c-0.7,0-1.2,0.6-1.3,1.3l-0.1,1.4c0,0.7-0.6,1.2-1.3,1.3h-1.2c-0.8,0-1.3,0.7-1.3,1.4v37.4
		c0,0.8,0.5,1.4,1.3,1.5"/>
	<path class="st14" d="M157.2,127.3h-6.5c-0.7,0-1.2,0.6-1.3,1.3l-0.2,1.4c0,0.7-0.6,1.2-1.3,1.3h-1.2c-0.8,0-1.3,0.7-1.3,1.5v37.4
		c0,0.8,0.5,1.4,1.3,1.4"/>
	<path class="st14" d="M143.1,127.6h-6.5c-0.7,0-1.2,0.6-1.3,1.3l-0.1,1.4c0,0.7-0.6,1.2-1.3,1.3h-1.2c-0.8,0-1.3,0.7-1.3,1.5
		c0,0,0,0,0,0v37.4c0,0.8,0.5,1.4,1.3,1.5"/>
	<path class="st0" d="M227.3,133.2h-0.5v-1.1c0-0.8-0.5-1.4-1.3-1.4h-24.8c-0.7,0-1.2-0.6-1.3-1.3l-0.1-1.4c0-0.7-0.6-1.2-1.3-1.3
		h-6.5c-0.7,0-1.2,0.6-1.3,1.3l-0.2,1.4c0,0.7-0.6,1.2-1.3,1.3h-1.2c-0.8,0-1.3,0.7-1.3,1.4v37.5c0,0.8,0.5,1.4,1.3,1.4h37.9
		c0.1,0,0.3,0,0.4-0.1h1.4c0.9,0,1.6-0.7,1.6-1.6v-34.5C228.9,134,228.2,133.2,227.3,133.2z"/>
	<path class="st13" d="M188.4,169.3v-34.5c0-0.9,0.7-1.6,1.6-1.6c0,0,0,0,0,0h36.7v-1.1c0-0.8-0.5-1.4-1.3-1.4h-24.8
		c-0.7,0-1.2-0.6-1.3-1.3l-0.1-1.4c0-0.7-0.6-1.2-1.3-1.3h-6.5c-0.7,0-1.2,0.6-1.3,1.3l-0.2,1.4c0,0.7-0.6,1.2-1.3,1.3h-1.2
		c-0.8,0-1.3,0.7-1.3,1.4v37.5c0,0.8,0.5,1.4,1.3,1.4h37.9c0.1,0,0.3,0,0.4-0.1h-35.9C189.2,171,188.4,170.2,188.4,169.3z"/>
	<path class="st1" d="M227.3,133.2h-37.2c-0.9,0-1.6,0.7-1.6,1.6c0,0,0,0,0,0v34.5c0,0.9,0.7,1.6,1.6,1.6h37.2
		c0.9,0,1.6-0.7,1.6-1.6v-34.5C228.9,134,228.2,133.2,227.3,133.2z"/>
	<path class="st0" d="M208.2,161.2c-5.2,0-9.7-7.4-10.6-9.2c1.4-2.5,3.2-4.8,5.3-6.8l-0.6-0.9c-2.2,2.1-4.1,4.6-5.6,7.3
		c-0.1,0.2-0.1,0.5,0,0.8c0.2,0.4,5.2,10,11.5,10c1.7-0.1,3.3-0.7,4.7-1.7l-0.6-0.9C211.1,160.7,209.7,161.2,208.2,161.2z"/>
	<path class="st0" d="M219.6,151.7c-0.2-0.4-5.2-10-11.5-10c-1.7,0.1-3.3,0.7-4.7,1.7l0.6,0.9c1.2-0.9,2.6-1.4,4.1-1.4
		c5.2,0,9.7,7.4,10.6,9.2c-1.4,2.5-3.2,4.8-5.3,6.8l0.6,0.9c2.2-2.1,4.1-4.6,5.6-7.3C219.8,152.2,219.8,151.9,219.6,151.7z"/>
	<path class="st0" d="M208.2,157.3c0.7,0,1.4-0.3,1.9-0.9l-0.6-0.9c-0.3,0.3-0.8,0.5-1.3,0.6c-1.4,0-2.6-1.8-2.6-4
		c0-0.7,0.1-1.4,0.4-2l-0.6-0.9c-0.4,0.9-0.6,1.9-0.6,2.9C204.8,154.9,206.3,157.3,208.2,157.3z"/>
	<path class="st0" d="M208.2,146.9c-0.7,0-1.4,0.3-1.9,0.9l0.6,0.9c0.3-0.3,0.8-0.5,1.3-0.6c1.4,0,2.6,1.8,2.6,4
		c0,0.7-0.1,1.4-0.4,2l0.6,0.9c0.4-0.9,0.6-1.9,0.6-2.9C211.5,149.2,210,146.9,208.2,146.9z"/>
	<path class="st0" d="M200.7,139.8c-0.1,0-0.2,0.1-0.3,0.2c-0.1,0.3-0.1,0.6,0,0.9l15,23.3c0.1,0.2,0.3,0.2,0.4,0.1
		c0.1,0,0.1-0.1,0.1-0.1c0.1-0.3,0.1-0.6,0-0.9L201,140C200.9,139.9,200.8,139.8,200.7,139.8z"/>
	<path class="st14" d="M226.8,133.2v-1.1c0-0.8-0.5-1.4-1.3-1.4h-24.8c-0.7,0-1.2-0.6-1.3-1.3l-0.1-1.4c0-0.7-0.6-1.2-1.3-1.3h-6.5
		c-0.7,0-1.2,0.6-1.3,1.3l-0.2,1.4c0,0.7-0.6,1.2-1.3,1.3h-1.2c-0.8,0-1.3,0.7-1.3,1.4v37.5c0,0.8,0.5,1.4,1.3,1.4"/>
	<path class="st14" d="M227.3,133.2h-37.2c-0.9,0-1.6,0.7-1.6,1.6c0,0,0,0,0,0v34.5c0,0.9,0.7,1.6,1.6,1.6h37.2
		c0.9,0,1.6-0.7,1.6-1.6v-34.5C228.9,134,228.2,133.2,227.3,133.2z"/>
	<path class="st14" d="M129.1,127.6h-6.5c-0.7,0-1.2,0.6-1.3,1.3l-0.2,1.4c0,0.7-0.6,1.2-1.3,1.3h-1.2c-0.8,0-1.3,0.7-1.3,1.4
		c0,0,0,0,0,0v37.4c0,0.8,0.5,1.4,1.3,1.5"/>
	<rect x="242.6" y="185.7" class="st12" width="59.9" height="61.2"/>
	<path class="st0" d="M292,199.1h-0.5V198c0-0.8-0.5-1.4-1.3-1.4c0,0,0,0,0,0h-24.8c-0.7,0-1.2-0.6-1.3-1.3l-0.1-1.4
		c0-0.7-0.6-1.2-1.3-1.3h-6.5c-0.7,0-1.2,0.6-1.3,1.3l-0.2,1.4c0,0.7-0.6,1.2-1.3,1.3h-1.2c-0.8,0-1.4,0.7-1.3,1.4c0,0,0,0,0,0v37.4
		c0,0.8,0.5,1.4,1.3,1.5h37.9c0.1,0,0.3,0,0.4-0.1h1.4c0.9,0,1.6-0.7,1.6-1.6c0,0,0,0,0,0v-34.5C293.6,199.8,292.9,199.1,292,199.1
		L292,199.1z"/>
	<path class="st13" d="M253.2,235.2v-34.5c0-0.9,0.7-1.6,1.6-1.6h36.7V198c0-0.8-0.5-1.4-1.3-1.4c0,0,0,0,0,0h-24.8
		c-0.7,0-1.2-0.6-1.3-1.3l-0.1-1.4c0-0.7-0.6-1.2-1.3-1.3h-6.5c-0.7,0-1.2,0.6-1.3,1.3l-0.2,1.4c0,0.7-0.6,1.2-1.3,1.3h-1.2
		c-0.8,0-1.4,0.7-1.3,1.4c0,0,0,0,0,0v37.4c0,0.8,0.5,1.4,1.3,1.5h37.9c0.1,0,0.3,0,0.4-0.1h-35.8
		C253.9,236.8,253.2,236.1,253.2,235.2C253.2,235.2,253.2,235.2,253.2,235.2z"/>
	<path class="st1" d="M292,199.1h-37.2c-0.9,0-1.6,0.7-1.6,1.6v34.5c0,0.9,0.7,1.6,1.6,1.6H292c0.9,0,1.6-0.7,1.6-1.6c0,0,0,0,0,0
		v-34.5C293.6,199.8,292.9,199.1,292,199.1L292,199.1z"/>
	<path class="st0" d="M272.9,227.1c-5.2,0-9.7-7.4-10.7-9.2c1.4-2.5,3.2-4.8,5.3-6.8l-0.6-0.9c-2.2,2.1-4.1,4.6-5.6,7.3
		c-0.1,0.2-0.1,0.5,0,0.8c0.2,0.4,5.2,10,11.5,10c1.7-0.1,3.3-0.7,4.7-1.7l-0.6-0.9C275.8,226.5,274.4,227,272.9,227.1z"/>
	<path class="st0" d="M284.4,217.5c-0.2-0.4-5.2-10-11.5-10c-1.7,0.1-3.3,0.7-4.7,1.7l0.6,0.9c1.2-0.9,2.6-1.4,4.1-1.4
		c5.2,0,9.7,7.4,10.6,9.2c-1.4,2.5-3.2,4.8-5.3,6.8l0.6,0.9c2.2-2.1,4.1-4.6,5.6-7.3C284.5,218,284.5,217.8,284.4,217.5z"/>
	<path class="st0" d="M272.9,223.1c0.7,0,1.4-0.3,1.9-0.9l-0.6-0.9c-0.3,0.3-0.8,0.5-1.3,0.6c-1.4,0-2.6-1.8-2.6-4
		c0-0.7,0.1-1.4,0.4-2l-0.6-0.9c-0.4,0.9-0.6,1.9-0.6,2.9C269.5,220.8,271.1,223.1,272.9,223.1z"/>
	<path class="st0" d="M272.9,212.7c-0.7,0-1.4,0.3-1.9,0.9l0.6,0.9c0.3-0.3,0.8-0.5,1.3-0.6c1.4,0,2.6,1.8,2.6,4
		c0,0.7-0.1,1.4-0.4,2l0.6,0.9c0.4-0.9,0.6-1.9,0.6-2.9C276.3,215,274.8,212.7,272.9,212.7z"/>
	<path class="st0" d="M265.4,205.7c-0.1,0-0.2,0.1-0.3,0.2c-0.1,0.3-0.1,0.6,0,0.9l15,23.3c0.1,0.1,0.2,0.2,0.3,0.2
		c0.1,0,0.2-0.1,0.3-0.2c0.2-0.3,0.2-0.6,0-0.9l-15-23.3C265.6,205.7,265.5,205.7,265.4,205.7z"/>
	<path class="st14" d="M291.5,199.1V198c0-0.8-0.5-1.4-1.3-1.4c0,0,0,0,0,0h-24.8c-0.7,0-1.2-0.6-1.3-1.3l-0.1-1.4
		c0-0.7-0.6-1.2-1.3-1.3h-6.5c-0.7,0-1.2,0.6-1.3,1.3l-0.2,1.4c0,0.7-0.6,1.2-1.3,1.3h-1.2c-0.8,0-1.4,0.7-1.3,1.4c0,0,0,0,0,0v37.4
		c0,0.8,0.5,1.4,1.3,1.5"/>
	<path class="st14" d="M292,199.1h-37.2c-0.9,0-1.6,0.7-1.6,1.6v34.5c0,0.9,0.7,1.6,1.6,1.6H292c0.9,0,1.6-0.7,1.6-1.6c0,0,0,0,0,0
		v-34.5C293.6,199.8,292.9,199.1,292,199.1L292,199.1z"/>
	<rect x="178" y="185.7" class="st12" width="59.9" height="61.2"/>
	<path class="st14" d="M185.5,192.6H179c-0.7,0-1.2,0.6-1.3,1.3l-0.1,1.4c0,0.7-0.6,1.2-1.3,1.3h-1.2c-0.8,0-1.3,0.7-1.3,1.4v37.4
		c0,0.8,0.5,1.4,1.3,1.5"/>
	<path class="st14" d="M171.4,192.8H165c-0.7,0-1.2,0.6-1.3,1.3l-0.2,1.4c0,0.7-0.6,1.2-1.3,1.3h-1.2c-0.8,0-1.3,0.7-1.3,1.5v37.4
		c0,0.8,0.5,1.4,1.3,1.4c0,0,0,0,0,0"/>
	<path class="st14" d="M157.4,193.1h-6.5c-0.7,0-1.2,0.6-1.3,1.3l-0.1,1.4c0,0.7-0.6,1.2-1.3,1.3H147c-0.8,0-1.3,0.7-1.3,1.4V236
		c0,0.8,0.5,1.4,1.3,1.5"/>
	<path class="st14" d="M143.3,193.4h-6.5c-0.7,0-1.2,0.6-1.3,1.3l-0.2,1.4c0,0.7-0.6,1.2-1.3,1.3h-1.2c-0.8,0-1.3,0.7-1.3,1.4v37.4
		c0,0.8,0.5,1.4,1.3,1.4"/>
	<path class="st0" d="M227.4,199.1h-0.5V198c0-0.8-0.5-1.4-1.3-1.4h-24.8c-0.7,0-1.2-0.6-1.3-1.3l-0.2-1.4c0-0.7-0.6-1.2-1.3-1.3
		h-6.5c-0.7,0-1.2,0.6-1.3,1.3l-0.1,1.4c0,0.7-0.6,1.2-1.3,1.3h-1.2c-0.8,0-1.3,0.7-1.3,1.4v37.4c0,0.8,0.5,1.4,1.3,1.5h37.9
		c0.1,0,0.3,0,0.4-0.1h1.4c0.9,0,1.6-0.7,1.6-1.6c0,0,0,0,0,0v-34.5C229.1,199.8,228.3,199.1,227.4,199.1
		C227.4,199.1,227.4,199.1,227.4,199.1z"/>
	<path class="st13" d="M188.6,235.2v-34.5c0-0.9,0.7-1.6,1.6-1.6c0,0,0,0,0,0h36.7V198c0-0.8-0.5-1.4-1.3-1.4h-24.8
		c-0.7,0-1.2-0.6-1.3-1.3l-0.2-1.4c0-0.7-0.6-1.2-1.3-1.3h-6.5c-0.7,0-1.2,0.6-1.3,1.3l-0.1,1.4c0,0.7-0.6,1.2-1.3,1.3h-1.2
		c-0.8,0-1.3,0.7-1.3,1.4v37.4c0,0.8,0.5,1.4,1.3,1.5h37.9c0.1,0,0.3,0,0.4-0.1h-35.9C189.3,236.8,188.5,236.1,188.6,235.2
		C188.5,235.2,188.5,235.2,188.6,235.2z"/>
	<path class="st1" d="M227.4,199.1h-37.2c-0.9,0-1.6,0.7-1.6,1.6c0,0,0,0,0,0v34.5c0,0.9,0.7,1.6,1.6,1.6c0,0,0,0,0,0h37.2
		c0.9,0,1.6-0.7,1.6-1.6c0,0,0,0,0,0v-34.5C229.1,199.8,228.3,199.1,227.4,199.1C227.4,199.1,227.4,199.1,227.4,199.1z"/>
	<path class="st0" d="M208.3,227.1c-5.2,0-9.7-7.4-10.6-9.2c1.4-2.5,3.2-4.8,5.3-6.8l-0.6-0.9c-2.2,2.1-4.1,4.6-5.6,7.3
		c-0.1,0.2-0.1,0.5,0,0.8c0.2,0.4,5.2,10,11.5,10c1.7-0.1,3.3-0.7,4.7-1.7l-0.6-0.9C211.2,226.5,209.8,227,208.3,227.1z"/>
	<path class="st0" d="M219.8,217.5c-0.2-0.4-5.2-10-11.5-10c-1.7,0.1-3.3,0.7-4.7,1.7l0.6,0.9c1.2-0.9,2.6-1.4,4.1-1.4
		c5.2,0,9.7,7.4,10.6,9.2c-1.4,2.5-3.2,4.8-5.3,6.8l0.6,0.9c2.2-2.1,4.1-4.6,5.6-7.3C219.9,218,219.9,217.8,219.8,217.5z"/>
	<path class="st0" d="M208.3,223.1c0.7,0,1.4-0.3,1.9-0.9l-0.6-0.9c-0.3,0.3-0.8,0.5-1.3,0.6c-1.4,0-2.6-1.8-2.6-4
		c0-0.7,0.1-1.4,0.4-2l-0.6-0.9c-0.4,0.9-0.6,1.9-0.6,2.9C205,220.8,206.5,223.1,208.3,223.1z"/>
	<path class="st0" d="M208.3,212.7c-0.7,0-1.4,0.3-1.9,0.9l0.6,0.9c0.3-0.3,0.8-0.5,1.3-0.6c1.4,0,2.6,1.8,2.6,4
		c0,0.7-0.1,1.4-0.4,2l0.6,0.9c0.4-0.9,0.6-1.9,0.6-2.9C211.7,215,210.2,212.7,208.3,212.7z"/>
	<path class="st0" d="M200.8,205.7c-0.1,0-0.2,0.1-0.3,0.2c-0.2,0.3-0.2,0.6,0,0.9l15,23.3c0.1,0.2,0.3,0.2,0.4,0.1
		c0.1,0,0.1-0.1,0.1-0.1c0.1-0.3,0.1-0.6,0-0.9l-15-23.3C201,205.7,200.9,205.7,200.8,205.7z"/>
	<path class="st14" d="M226.9,199.1V198c0-0.8-0.5-1.4-1.3-1.4h-24.8c-0.7,0-1.2-0.6-1.3-1.3l-0.2-1.4c0-0.7-0.6-1.2-1.3-1.3h-6.5
		c-0.7,0-1.2,0.6-1.3,1.3l-0.1,1.4c0,0.7-0.6,1.2-1.3,1.3h-1.2c-0.8,0-1.3,0.7-1.3,1.4v37.4c0,0.8,0.5,1.4,1.3,1.5"/>
	<path class="st14" d="M227.4,199.1h-37.2c-0.9,0-1.6,0.7-1.6,1.6c0,0,0,0,0,0v34.5c0,0.9,0.7,1.6,1.6,1.6c0,0,0,0,0,0h37.2
		c0.9,0,1.6-0.7,1.6-1.6c0,0,0,0,0,0v-34.5C229.1,199.8,228.3,199.1,227.4,199.1C227.4,199.1,227.4,199.1,227.4,199.1z"/>
	<path class="st14" d="M129.2,193.4h-6.5c-0.7,0-1.2,0.6-1.3,1.3l-0.2,1.4c0,0.7-0.6,1.2-1.3,1.3h-1.2c-0.8,0-1.3,0.7-1.3,1.4v37.4
		c0,0.8,0.5,1.4,1.3,1.4"/>
	<rect x="242.7" y="251.5" class="st12" width="60" height="61.2"/>
	<path class="st0" d="M292.2,264.9h-0.5v-1.1c0-0.8-0.5-1.4-1.3-1.5h-24.8c-0.7,0-1.2-0.6-1.3-1.3l-0.1-1.4c0-0.7-0.6-1.2-1.3-1.3
		h-6.5c-0.7,0-1.2,0.6-1.3,1.3l-0.1,1.4c0,0.7-0.6,1.2-1.3,1.3h-1.2c-0.8,0-1.3,0.7-1.3,1.5v37.5c0,0.8,0.5,1.4,1.3,1.5h37.9
		c0.1,0,0.3,0,0.4-0.1h1.4c0.9,0,1.6-0.7,1.6-1.6c0,0,0,0,0,0v-34.5C293.8,265.6,293.1,264.9,292.2,264.9
		C292.2,264.9,292.2,264.9,292.2,264.9z"/>
	<path class="st13" d="M253.3,301v-34.5c0-0.9,0.7-1.6,1.6-1.6c0,0,0,0,0,0h36.7v-1.1c0-0.8-0.5-1.4-1.3-1.5h-24.8
		c-0.7,0-1.2-0.6-1.3-1.3l-0.1-1.4c0-0.7-0.6-1.2-1.3-1.3h-6.5c-0.7,0-1.2,0.6-1.3,1.3l-0.1,1.4c0,0.7-0.6,1.2-1.3,1.3h-1.2
		c-0.8,0-1.3,0.7-1.3,1.5v37.5c0,0.8,0.5,1.4,1.3,1.5h37.9c0.1,0,0.3,0,0.4-0.1h-35.9C254,302.6,253.3,301.9,253.3,301L253.3,301z"
		/>
	<path class="st1" d="M292.2,264.9h-37.2c-0.9,0-1.6,0.7-1.6,1.6l0,0V301c0,0.9,0.7,1.6,1.6,1.6c0,0,0,0,0,0h37.2
		c0.9,0,1.6-0.7,1.6-1.6c0,0,0,0,0,0v-34.5C293.8,265.6,293.1,264.9,292.2,264.9C292.2,264.9,292.2,264.9,292.2,264.9z"/>
	<path class="st0" d="M273,292.9c-5.2,0-9.7-7.4-10.6-9.2c1.4-2.5,3.2-4.8,5.3-6.8l-0.6-0.9c-2.2,2.1-4.1,4.6-5.6,7.3
		c-0.1,0.2-0.1,0.5,0,0.8c0.2,0.4,5.2,10,11.5,10c1.7-0.1,3.3-0.7,4.7-1.7l-0.6-0.9C275.9,292.4,274.5,292.8,273,292.9z"/>
	<path class="st0" d="M284.5,283.4c-0.2-0.4-5.2-10-11.5-10c-1.7,0.1-3.3,0.7-4.7,1.7l0.6,0.9c1.2-0.9,2.6-1.4,4.1-1.4
		c5.2,0,9.7,7.4,10.6,9.2c-1.4,2.5-3.2,4.8-5.3,6.8l0.6,0.9c2.2-2.1,4.1-4.6,5.6-7.3C284.6,283.9,284.6,283.6,284.5,283.4z"/>
	<path class="st0" d="M273,288.9c0.7,0,1.4-0.3,1.9-0.9l-0.6-0.9c-0.3,0.3-0.8,0.5-1.3,0.5c-1.4,0-2.6-1.8-2.6-4
		c0-0.7,0.1-1.4,0.4-2l-0.6-0.9c-0.4,0.9-0.6,1.9-0.6,2.9C269.7,286.6,271.2,288.9,273,288.9z"/>
	<path class="st0" d="M273,278.5c-0.7,0-1.4,0.3-1.9,0.9l0.6,0.9c0.3-0.3,0.8-0.5,1.3-0.6c1.4,0,2.6,1.8,2.6,4c0,0.7-0.1,1.4-0.4,2
		l0.6,0.9c0.4-0.9,0.6-1.9,0.6-2.9C276.4,280.9,274.9,278.5,273,278.5z"/>
	<path class="st0" d="M265.5,271.5c-0.1,0-0.2,0.1-0.3,0.2c-0.1,0.3-0.1,0.6,0,0.9l15,23.3c0.1,0.2,0.3,0.2,0.4,0.1
		c0.1,0,0.1-0.1,0.1-0.1c0.1-0.3,0.1-0.6,0-0.9l-15-23.3C265.8,271.6,265.7,271.5,265.5,271.5z"/>
	<path class="st14" d="M291.6,264.9v-1.1c0-0.8-0.5-1.4-1.3-1.5h-24.8c-0.7,0-1.2-0.6-1.3-1.3l-0.1-1.4c0-0.7-0.6-1.2-1.3-1.3h-6.5
		c-0.7,0-1.2,0.6-1.3,1.3l-0.1,1.4c0,0.7-0.6,1.2-1.3,1.3h-1.2c-0.8,0-1.3,0.7-1.3,1.5v37.5c0,0.8,0.5,1.4,1.3,1.5"/>
	<path class="st14" d="M292.2,264.9h-37.2c-0.9,0-1.6,0.7-1.6,1.6l0,0V301c0,0.9,0.7,1.6,1.6,1.6c0,0,0,0,0,0h37.2
		c0.9,0,1.6-0.7,1.6-1.6c0,0,0,0,0,0v-34.5C293.8,265.6,293.1,264.9,292.2,264.9C292.2,264.9,292.2,264.9,292.2,264.9z"/>
	<rect x="178.1" y="251.5" class="st12" width="59.9" height="61.2"/>
	<path class="st14" d="M185.6,258.4h-6.4c-0.7,0-1.2,0.6-1.3,1.3l-0.2,1.4c0,0.7-0.6,1.2-1.3,1.3h-1.2c-0.8,0-1.3,0.7-1.3,1.5v37.5
		c0,0.8,0.5,1.4,1.3,1.5"/>
	<path class="st14" d="M171.6,258.7h-6.5c-0.7,0-1.2,0.6-1.3,1.3l-0.1,1.4c0,0.7-0.6,1.2-1.3,1.3h-1.2c-0.8,0-1.3,0.7-1.3,1.5v37.5
		c0,0.8,0.5,1.4,1.3,1.5"/>
	<path class="st14" d="M157.5,259H151c-0.7,0-1.2,0.6-1.3,1.3l-0.1,1.4c0,0.7-0.6,1.2-1.3,1.3h-1.2c-0.8,0-1.3,0.7-1.3,1.5v37.5
		c0,0.8,0.5,1.4,1.3,1.5"/>
	<path class="st14" d="M143.4,259.2H137c-0.7,0-1.2,0.6-1.3,1.3l-0.2,1.4c0,0.7-0.6,1.2-1.3,1.3h-1.2c-0.8,0-1.3,0.7-1.3,1.5v37.5
		c0,0.8,0.5,1.4,1.3,1.4c0,0,0,0,0,0"/>
	<path class="st0" d="M227.6,264.9H227v-1.1c0-0.8-0.5-1.4-1.3-1.5h-24.8c-0.7,0-1.2-0.6-1.3-1.3l-0.2-1.4c0-0.7-0.6-1.2-1.3-1.3
		h-6.5c-0.7,0-1.2,0.6-1.3,1.3l-0.1,1.4c0,0.7-0.6,1.2-1.3,1.3h-1.2c-0.8,0-1.3,0.7-1.3,1.5v37.5c0,0.8,0.5,1.4,1.3,1.5h37.9
		c0.1,0,0.3,0,0.4-0.1h1.4c0.9,0,1.6-0.7,1.6-1.6l0,0v-34.5C229.2,265.6,228.5,264.9,227.6,264.9
		C227.6,264.9,227.6,264.9,227.6,264.9z"/>
	<path class="st13" d="M188.7,301v-34.5c0-0.9,0.7-1.6,1.6-1.6c0,0,0,0,0,0H227v-1.1c0-0.8-0.5-1.4-1.3-1.5h-24.8
		c-0.7,0-1.2-0.6-1.3-1.3l-0.2-1.4c0-0.7-0.6-1.2-1.3-1.3h-6.5c-0.7,0-1.2,0.6-1.3,1.3l-0.1,1.4c0,0.7-0.6,1.2-1.3,1.3h-1.2
		c-0.8,0-1.3,0.7-1.3,1.5v37.5c0,0.8,0.5,1.4,1.3,1.5h37.9c0.1,0,0.3,0,0.4-0.1h-35.9C189.4,302.6,188.7,301.9,188.7,301L188.7,301z
		"/>
	<path class="st1" d="M227.6,264.9h-37.2c-0.9,0-1.6,0.7-1.6,1.6l0,0V301c0,0.9,0.7,1.6,1.6,1.6c0,0,0,0,0,0h37.2
		c0.9,0,1.6-0.7,1.6-1.6l0,0v-34.5C229.2,265.6,228.5,264.9,227.6,264.9C227.6,264.9,227.6,264.9,227.6,264.9z"/>
	<path class="st0" d="M208.4,292.9c-5.2,0-9.7-7.4-10.6-9.2c1.4-2.5,3.2-4.8,5.3-6.8l-0.6-0.9c-2.2,2.1-4.1,4.6-5.6,7.3
		c-0.1,0.2-0.1,0.5,0,0.8c0.2,0.4,5.2,10,11.5,10c1.7-0.1,3.3-0.7,4.7-1.7l-0.6-0.9C211.3,292.4,209.9,292.8,208.4,292.9z"/>
	<path class="st0" d="M219.9,283.4c-0.2-0.4-5.2-10-11.5-10c-1.7,0.1-3.3,0.7-4.7,1.7l0.6,0.9c1.2-0.9,2.6-1.4,4.1-1.4
		c5.2,0,9.7,7.4,10.7,9.2c-1.4,2.5-3.2,4.8-5.3,6.8l0.6,0.9c2.2-2.1,4.1-4.6,5.6-7.3C220,283.9,220,283.6,219.9,283.4z"/>
	<path class="st0" d="M208.4,288.9c0.7,0,1.4-0.3,1.9-0.9l-0.6-0.9c-0.4,0.3-0.8,0.5-1.3,0.5c-1.4,0-2.6-1.8-2.6-4
		c0-0.7,0.1-1.4,0.4-2l-0.6-0.9c-0.4,0.9-0.6,1.9-0.6,2.9C205.1,286.6,206.6,288.9,208.4,288.9z"/>
	<path class="st0" d="M208.4,278.5c-0.7,0-1.4,0.3-1.9,0.9l0.6,0.9c0.4-0.3,0.8-0.5,1.3-0.6c1.4,0,2.6,1.8,2.6,4
		c0,0.7-0.1,1.4-0.4,2l0.6,0.9c0.4-0.9,0.6-1.9,0.6-2.9C211.8,280.9,210.3,278.5,208.4,278.5z"/>
	<path class="st0" d="M200.9,271.5c-0.1,0-0.2,0.1-0.3,0.2c-0.2,0.3-0.2,0.6,0,0.9l15,23.3c0.1,0.1,0.2,0.2,0.3,0.2
		c0.1,0,0.2-0.1,0.3-0.2c0.1-0.3,0.1-0.6,0-0.9l-15-23.3C201.2,271.6,201,271.5,200.9,271.5z"/>
	<path class="st14" d="M227,264.9v-1.1c0-0.8-0.5-1.4-1.3-1.5h-24.8c-0.7,0-1.2-0.6-1.3-1.3l-0.2-1.4c0-0.7-0.6-1.2-1.3-1.3h-6.5
		c-0.7,0-1.2,0.6-1.3,1.3l-0.1,1.4c0,0.7-0.6,1.2-1.3,1.3h-1.2c-0.8,0-1.3,0.7-1.3,1.5v37.5c0,0.8,0.5,1.4,1.3,1.5"/>
	<path class="st14" d="M227.6,264.9h-37.2c-0.9,0-1.6,0.7-1.6,1.6l0,0V301c0,0.9,0.7,1.6,1.6,1.6c0,0,0,0,0,0h37.2
		c0.9,0,1.6-0.7,1.6-1.6l0,0v-34.5C229.2,265.6,228.5,264.9,227.6,264.9C227.6,264.9,227.6,264.9,227.6,264.9z"/>
	<path class="st14" d="M129.4,259.2h-6.5c-0.7,0-1.2,0.6-1.3,1.3l-0.2,1.4c0,0.7-0.6,1.2-1.3,1.3H119c-0.8,0-1.3,0.7-1.3,1.5v37.5
		c0,0.8,0.5,1.4,1.3,1.5"/>
	<rect x="242.9" y="317.4" class="st12" width="60" height="61.2"/>
	<path class="st0" d="M292.3,330.7h-0.5v-1.1c0-0.8-0.5-1.4-1.3-1.5h-24.8c-0.7,0-1.2-0.6-1.3-1.3l-0.2-1.4c0-0.7-0.6-1.2-1.3-1.3
		h-6.5c-0.7,0-1.2,0.6-1.3,1.3l-0.1,1.4c0,0.7-0.6,1.2-1.3,1.3h-1.2c-0.8,0-1.3,0.7-1.3,1.5v37.4c0,0.8,0.5,1.4,1.3,1.5h37.9
		c0.1,0,0.3,0,0.4-0.1h1.4c0.9,0,1.6-0.7,1.6-1.6l0,0v-34.5C293.9,331.5,293.2,330.7,292.3,330.7L292.3,330.7z"/>
	<path class="st13" d="M253.4,366.8v-34.5c0-0.9,0.7-1.6,1.6-1.6c0,0,0,0,0,0h36.7v-1.1c0-0.8-0.5-1.4-1.3-1.5h-24.8
		c-0.7,0-1.2-0.6-1.3-1.3l-0.2-1.4c0-0.7-0.6-1.2-1.3-1.3h-6.5c-0.7,0-1.2,0.6-1.3,1.3l-0.1,1.4c0,0.7-0.6,1.2-1.3,1.3h-1.2
		c-0.8,0-1.3,0.7-1.3,1.5v37.5c0,0.8,0.5,1.4,1.3,1.5h37.9c0.1,0,0.3,0,0.4-0.1h-35.9C254.1,368.5,253.4,367.7,253.4,366.8
		L253.4,366.8z"/>
	<path class="st1" d="M292.3,330.7h-37.2c-0.9,0-1.6,0.7-1.6,1.6l0,0v34.5c0,0.9,0.7,1.6,1.6,1.6c0,0,0,0,0,0h37.2
		c0.9,0,1.6-0.7,1.6-1.6l0,0v-34.5C293.9,331.5,293.2,330.7,292.3,330.7z"/>
	<path class="st0" d="M273.2,358.7c-5.2,0-9.7-7.4-10.6-9.2c1.4-2.5,3.2-4.8,5.3-6.8l-0.6-0.9c-2.2,2.1-4.1,4.6-5.6,7.3
		c-0.1,0.2-0.1,0.5,0,0.8c0.2,0.4,5.2,10,11.5,10c1.7-0.1,3.3-0.7,4.7-1.7l-0.6-0.9C276.1,358.2,274.7,358.7,273.2,358.7z"/>
	<path class="st0" d="M284.6,349.2c-0.2-0.4-5.2-10-11.5-10c-1.7,0.1-3.3,0.7-4.7,1.7l0.6,0.9c1.2-0.9,2.6-1.4,4.1-1.4
		c5.2,0,9.7,7.4,10.6,9.2c-1.4,2.5-3.2,4.8-5.3,6.8l0.6,0.9c2.2-2.1,4.1-4.6,5.6-7.3C284.8,349.7,284.8,349.4,284.6,349.2z"/>
	<path class="st0" d="M273.2,354.8c0.7,0,1.4-0.3,1.9-0.9l-0.6-0.9c-0.4,0.3-0.8,0.5-1.3,0.5c-1.4,0-2.6-1.8-2.6-4
		c0-0.7,0.1-1.4,0.4-2l-0.6-0.9c-0.4,0.9-0.6,1.9-0.6,2.9C269.8,352.4,271.3,354.8,273.2,354.8z"/>
	<path class="st0" d="M273.2,344.4c-0.7,0-1.4,0.3-1.9,0.9l0.6,0.9c0.3-0.3,0.8-0.5,1.3-0.5c1.4,0,2.6,1.8,2.6,4
		c0,0.7-0.1,1.4-0.4,2l0.6,0.9c0.4-0.9,0.6-1.9,0.6-2.9C276.5,346.7,275,344.4,273.2,344.4z"/>
	<path class="st0" d="M265.7,337.3c-0.1,0-0.2,0.1-0.3,0.2c-0.2,0.3-0.2,0.6,0,0.9l15,23.3c0.1,0.2,0.3,0.2,0.4,0.1
		c0.1,0,0.1-0.1,0.1-0.1c0.1-0.3,0.1-0.6,0-0.9l-15-23.3C265.9,337.4,265.8,337.3,265.7,337.3z"/>
	<path class="st14" d="M291.8,330.7v-1.1c0-0.8-0.5-1.4-1.3-1.5h-24.8c-0.7,0-1.2-0.6-1.3-1.3l-0.2-1.4c0-0.7-0.6-1.2-1.3-1.3h-6.5
		c-0.7,0-1.2,0.6-1.3,1.3l-0.1,1.4c0,0.7-0.6,1.2-1.3,1.3h-1.2c-0.8,0-1.3,0.7-1.3,1.5v37.4c0,0.8,0.5,1.4,1.3,1.5"/>
	<path class="st14" d="M292.3,330.7h-37.2c-0.9,0-1.6,0.7-1.6,1.6l0,0v34.5c0,0.9,0.7,1.6,1.6,1.6c0,0,0,0,0,0h37.2
		c0.9,0,1.6-0.7,1.6-1.6l0,0v-34.5C293.9,331.5,293.2,330.7,292.3,330.7z"/>
	<rect x="178.2" y="317.4" class="st12" width="59.9" height="61.2"/>
	<path class="st14" d="M185.8,324.2h-6.5c-0.7,0-1.2,0.6-1.3,1.3l-0.2,1.4c0,0.7-0.6,1.2-1.3,1.3h-1.2c-0.8,0-1.3,0.7-1.3,1.5v37.5
		c0,0.8,0.5,1.4,1.3,1.4c0,0,0,0,0,0"/>
	<path class="st14" d="M171.7,324.5h-6.5c-0.7,0-1.2,0.6-1.3,1.3l-0.1,1.4c0,0.7-0.6,1.2-1.3,1.3h-1.2c-0.8,0-1.3,0.7-1.3,1.5v37.5
		c0,0.8,0.5,1.4,1.3,1.5"/>
	<path class="st14" d="M157.6,324.8h-6.5c-0.7,0-1.2,0.6-1.3,1.3l-0.2,1.4c0,0.7-0.6,1.2-1.3,1.3h-1.2c-0.7,0.1-1.3,0.7-1.3,1.5
		v37.5c0,0.8,0.5,1.4,1.3,1.4c0,0,0,0,0,0"/>
	<path class="st14" d="M143.6,325.1h-6.5c-0.7,0-1.2,0.6-1.3,1.3l-0.1,1.4c0,0.7-0.6,1.2-1.3,1.3h-1.2c-0.8,0-1.3,0.7-1.3,1.5v37.5
		c0,0.8,0.5,1.4,1.3,1.5"/>
	<path class="st0" d="M227.7,330.7h-0.5v-1.1c0-0.8-0.5-1.4-1.3-1.5h-24.8c-0.7,0-1.2-0.6-1.3-1.3l-0.1-1.4c0-0.7-0.6-1.2-1.3-1.3
		h-6.5c-0.7,0-1.2,0.6-1.3,1.3l-0.2,1.4c0,0.7-0.6,1.2-1.3,1.3H188c-0.8,0-1.3,0.7-1.3,1.5v37.4c0,0.8,0.5,1.4,1.3,1.4c0,0,0,0,0,0
		h37.9c0.1,0,0.3,0,0.4-0.1h1.4c0.9,0,1.6-0.7,1.6-1.6l0,0v-34.5C229.3,331.5,228.6,330.7,227.7,330.7
		C227.7,330.7,227.7,330.7,227.7,330.7z"/>
	<path class="st13" d="M188.8,366.8v-34.5c0-0.9,0.7-1.6,1.6-1.6h36.7v-1.1c0-0.8-0.5-1.4-1.3-1.5h-24.8c-0.7,0-1.2-0.6-1.3-1.3
		l-0.1-1.4c0-0.7-0.6-1.2-1.3-1.3h-6.5c-0.7,0-1.2,0.6-1.3,1.3l-0.2,1.4c0,0.7-0.6,1.2-1.3,1.3H188c-0.8,0-1.3,0.7-1.3,1.5v37.5
		c0,0.8,0.5,1.4,1.3,1.4c0,0,0,0,0,0h37.9c0.1,0,0.3,0,0.4-0.1h-35.9C189.5,368.5,188.8,367.7,188.8,366.8z"/>
	<path class="st1" d="M227.7,330.7h-37.2c-0.9,0-1.6,0.7-1.6,1.6v34.5c0,0.9,0.7,1.6,1.6,1.6h37.2c0.9,0,1.6-0.7,1.6-1.6l0,0v-34.5
		C229.3,331.5,228.6,330.7,227.7,330.7z"/>
	<path class="st0" d="M208.6,358.7c-5.2,0-9.7-7.4-10.7-9.2c1.4-2.5,3.2-4.8,5.3-6.8l-0.6-0.9c-2.2,2.1-4.1,4.6-5.6,7.3
		c-0.1,0.2-0.1,0.5,0,0.8c0.2,0.4,5.2,10,11.5,10c1.7-0.1,3.3-0.7,4.7-1.7l-0.6-0.9C211.5,358.2,210.1,358.7,208.6,358.7z"/>
	<path class="st0" d="M220.1,349.2c-0.2-0.4-5.2-10-11.5-10c-1.7,0.1-3.3,0.7-4.7,1.7l0.6,0.9c1.2-0.9,2.6-1.4,4.1-1.4
		c5.2,0,9.7,7.4,10.6,9.2c-1.4,2.5-3.2,4.8-5.3,6.8l0.6,0.9c2.2-2.1,4.1-4.6,5.6-7.3C220.2,349.7,220.2,349.4,220.1,349.2z"/>
	<path class="st0" d="M208.6,354.8c0.7,0,1.4-0.3,1.9-0.9l-0.6-0.9c-0.4,0.3-0.8,0.5-1.3,0.5c-1.4,0-2.6-1.8-2.6-4
		c0-0.7,0.1-1.4,0.4-2l-0.6-0.9c-0.4,0.9-0.6,1.9-0.6,2.9C205.2,352.4,206.7,354.8,208.6,354.8z"/>
	<path class="st0" d="M208.6,344.4c-0.7,0-1.4,0.3-1.9,0.9l0.6,0.9c0.3-0.3,0.8-0.5,1.3-0.5c1.4,0,2.6,1.8,2.6,4
		c0,0.7-0.1,1.4-0.4,2l0.6,0.9c0.4-0.9,0.6-1.9,0.6-2.9C211.9,346.7,210.4,344.4,208.6,344.4z"/>
	<path class="st0" d="M201.1,337.3c-0.1,0-0.2,0.1-0.3,0.2c-0.1,0.3-0.1,0.6,0,0.9l15,23.3c0.1,0.1,0.2,0.2,0.3,0.2
		c0.1,0,0.2-0.1,0.3-0.2c0.2-0.3,0.2-0.6,0-0.9l-15-23.3C201.3,337.4,201.2,337.3,201.1,337.3z"/>
	<path class="st14" d="M227.2,330.7v-1.1c0-0.8-0.5-1.4-1.3-1.5h-24.8c-0.7,0-1.2-0.6-1.3-1.3l-0.1-1.4c0-0.7-0.6-1.2-1.3-1.3h-6.5
		c-0.7,0-1.2,0.6-1.3,1.3l-0.2,1.4c0,0.7-0.6,1.2-1.3,1.3H188c-0.8,0-1.3,0.7-1.3,1.5v37.4c0,0.8,0.5,1.4,1.3,1.4c0,0,0,0,0,0"/>
	<path class="st14" d="M227.7,330.7h-37.2c-0.9,0-1.6,0.7-1.6,1.6v34.5c0,0.9,0.7,1.6,1.6,1.6h37.2c0.9,0,1.6-0.7,1.6-1.6l0,0v-34.5
		C229.3,331.5,228.6,330.7,227.7,330.7z"/>
	<path class="st14" d="M129.5,325.1H123c-0.7,0-1.2,0.6-1.3,1.3l-0.2,1.4c0,0.7-0.6,1.2-1.3,1.3h-1.2c-0.8,0-1.3,0.7-1.3,1.5v37.5
		c0,0.8,0.5,1.4,1.3,1.5"/>
	<rect x="243" y="383.2" class="st12" width="59.9" height="61.2"/>
	<path class="st0" d="M292.4,396.6h-0.5v-1.1c0-0.8-0.5-1.4-1.3-1.5h-24.8c-0.7,0-1.2-0.6-1.3-1.3l-0.2-1.4c0-0.7-0.6-1.2-1.3-1.3
		h-6.5c-0.7,0-1.2,0.6-1.3,1.3l-0.1,1.4c0,0.7-0.6,1.2-1.3,1.3h-1.2c-0.8,0-1.3,0.7-1.3,1.5v37.5c0,0.8,0.5,1.4,1.3,1.5h37.9
		c0.1,0,0.3,0,0.4-0.1h1.4c0.9,0,1.6-0.7,1.6-1.6l0,0v-34.5C294.1,397.3,293.3,396.6,292.4,396.6L292.4,396.6z"/>
	<path class="st13" d="M253.6,432.7v-34.5c0-0.9,0.7-1.6,1.6-1.6c0,0,0,0,0,0h36.7v-1.1c0-0.8-0.5-1.4-1.3-1.5h-24.8
		c-0.7,0-1.2-0.6-1.3-1.3l-0.2-1.4c0-0.7-0.6-1.2-1.3-1.3h-6.5c-0.7,0-1.2,0.6-1.3,1.3l-0.1,1.4c0,0.7-0.6,1.2-1.3,1.3h-1.2
		c-0.8,0-1.3,0.7-1.3,1.5v37.5c0,0.8,0.5,1.4,1.3,1.5h37.9c0.1,0,0.3,0,0.4-0.1h-35.9C254.3,434.3,253.6,433.6,253.6,432.7z"/>
	<path class="st1" d="M292.4,396.6h-37.2c-0.9,0-1.6,0.7-1.6,1.6l0,0v34.5c0,0.9,0.7,1.6,1.6,1.6c0,0,0,0,0,0h37.2
		c0.9,0,1.6-0.7,1.6-1.6l0,0v-34.5C294,397.3,293.3,396.6,292.4,396.6z"/>
	<path class="st0" d="M273.3,424.6c-5.2,0-9.7-7.4-10.6-9.2c1.4-2.5,3.2-4.8,5.3-6.8l-0.6-0.9c-2.2,2.1-4.1,4.6-5.6,7.3
		c-0.1,0.2-0.1,0.5,0,0.8c0.2,0.4,5.2,10,11.5,10c1.7-0.1,3.3-0.7,4.7-1.7l-0.6-0.9C276.2,424,274.8,424.5,273.3,424.6z"/>
	<path class="st0" d="M284.8,415c-0.2-0.4-5.2-10-11.5-10c-1.7,0.1-3.3,0.7-4.7,1.7l0.6,0.9c1.2-0.9,2.6-1.4,4.1-1.4
		c5.2,0,9.7,7.4,10.7,9.2c-1.4,2.5-3.2,4.8-5.3,6.8l0.6,0.9c2.2-2.1,4.1-4.6,5.6-7.3C284.9,415.5,284.9,415.2,284.8,415z"/>
	<path class="st0" d="M273.3,420.6c0.7,0,1.4-0.3,1.9-0.9l-0.6-0.9c-0.4,0.3-0.8,0.5-1.3,0.5c-1.4,0-2.6-1.8-2.6-4
		c0-0.7,0.1-1.4,0.4-2l-0.6-0.9c-0.4,0.9-0.6,1.9-0.6,2.9C270,418.3,271.5,420.6,273.3,420.6z"/>
	<path class="st0" d="M273.3,410.2c-0.7,0-1.4,0.3-1.9,0.9l0.6,0.9c0.3-0.3,0.8-0.5,1.3-0.5c1.4,0,2.6,1.8,2.6,4
		c0,0.7-0.1,1.4-0.4,2l0.6,0.9c0.4-0.9,0.6-1.9,0.6-2.9C276.7,412.5,275.2,410.2,273.3,410.2z"/>
	<path class="st0" d="M265.8,403.2c-0.1,0-0.2,0.1-0.3,0.2c-0.2,0.3-0.2,0.6,0,0.9l15,23.3c0.1,0.1,0.2,0.2,0.3,0.2
		c0.1,0,0.2-0.1,0.3-0.2c0.1-0.3,0.1-0.6,0-0.9l-15-23.3C266,403.2,265.9,403.2,265.8,403.2z"/>
	<path class="st14" d="M291.9,396.6v-1.1c0-0.8-0.5-1.4-1.3-1.5h-24.8c-0.7,0-1.2-0.6-1.3-1.3l-0.2-1.4c0-0.7-0.6-1.2-1.3-1.3h-6.5
		c-0.7,0-1.2,0.6-1.3,1.3l-0.1,1.4c0,0.7-0.6,1.2-1.3,1.3h-1.2c-0.8,0-1.3,0.7-1.3,1.5v37.5c0,0.8,0.5,1.4,1.3,1.5"/>
	<path class="st14" d="M292.4,396.6h-37.2c-0.9,0-1.6,0.7-1.6,1.6l0,0v34.5c0,0.9,0.7,1.6,1.6,1.6c0,0,0,0,0,0h37.2
		c0.9,0,1.6-0.7,1.6-1.6l0,0v-34.5C294,397.3,293.3,396.6,292.4,396.6z"/>
	<rect x="178.4" y="383.2" class="st12" width="59.9" height="61.2"/>
	<path class="st14" d="M185.9,390.1h-6.5c-0.7,0-1.2,0.6-1.3,1.3l-0.1,1.4c0,0.7-0.6,1.2-1.3,1.3h-1.2c-0.8,0-1.3,0.7-1.3,1.5v37.5
		c0,0.8,0.5,1.4,1.3,1.5"/>
	<path class="st14" d="M171.8,390.4h-6.4c-0.7,0-1.2,0.6-1.3,1.3l-0.1,1.4c0,0.7-0.6,1.2-1.3,1.3h-1.2c-0.8,0-1.3,0.7-1.3,1.5v37.5
		c0,0.8,0.5,1.4,1.3,1.5"/>
	<path class="st14" d="M157.8,390.6h-6.5c-0.7,0-1.2,0.6-1.3,1.3l-0.1,1.4c0,0.7-0.6,1.2-1.3,1.3h-1.2c-0.7,0.1-1.3,0.7-1.3,1.4
		v37.5c0,0.8,0.5,1.4,1.3,1.5"/>
	<path class="st14" d="M143.7,390.9h-6.5c-0.7,0-1.2,0.6-1.3,1.3l-0.1,1.4c0,0.7-0.6,1.2-1.3,1.3h-1.2c-0.8,0-1.3,0.7-1.3,1.5v37.5
		c0,0.8,0.5,1.4,1.3,1.5"/>
	<path class="st0" d="M227.8,396.6h-0.5v-1.1c0.1-0.8-0.5-1.4-1.3-1.5c0,0,0,0,0,0h-24.8c-0.7,0-1.2-0.6-1.3-1.3l-0.1-1.4
		c0-0.7-0.6-1.2-1.3-1.3H192c-0.7,0-1.2,0.6-1.3,1.3l-0.1,1.4c0,0.7-0.6,1.2-1.3,1.3h-1.2c-0.8,0-1.3,0.7-1.3,1.5v37.5
		c0,0.8,0.5,1.4,1.3,1.5H226c0.1,0,0.3,0,0.4-0.1h1.4c0.9,0,1.6-0.7,1.6-1.6c0,0,0,0,0,0v-34.4C229.4,397.3,228.7,396.6,227.8,396.6
		z"/>
	<path class="st13" d="M189,432.7v-34.5c0-0.9,0.7-1.6,1.6-1.6c0,0,0,0,0,0h36.7v-1.1c0.1-0.8-0.5-1.4-1.3-1.5c0,0-0.1,0-0.1,0
		h-24.8c-0.7,0-1.2-0.6-1.3-1.3l-0.1-1.4c0-0.7-0.6-1.2-1.3-1.3H192c-0.7,0-1.2,0.6-1.3,1.3l-0.1,1.4c0,0.7-0.6,1.2-1.3,1.3h-1.2
		c-0.8,0-1.3,0.7-1.3,1.5v37.5c0,0.8,0.5,1.4,1.3,1.5H226c0.1,0,0.3,0,0.4-0.1h-35.8C189.7,434.2,189,433.5,189,432.7z"/>
	<path class="st1" d="M227.8,396.6h-37.2c-0.9,0-1.6,0.7-1.6,1.6v34.5c0,0.9,0.7,1.6,1.6,1.6c0,0,0,0,0,0h37.2
		c0.9,0,1.6-0.7,1.6-1.6c0,0,0,0,0,0v-34.5C229.5,397.3,228.8,396.6,227.8,396.6C227.9,396.6,227.8,396.6,227.8,396.6z"/>
	<path class="st0" d="M208.7,424.6c-5.2,0-9.7-7.4-10.6-9.2c1.4-2.5,3.2-4.8,5.3-6.8l-0.6-0.9c-2.2,2.1-4.1,4.6-5.6,7.3
		c-0.1,0.2-0.1,0.5,0,0.8c0.2,0.4,5.2,10,11.5,10c1.7-0.1,3.3-0.7,4.7-1.7l-0.6-0.9C211.6,424,210.2,424.5,208.7,424.6z"/>
	<path class="st0" d="M220.2,415c-0.2-0.4-5.2-10-11.5-10c-1.7,0.1-3.3,0.7-4.7,1.7l0.6,0.9c1.2-0.9,2.6-1.4,4.1-1.4
		c5.2,0,9.7,7.4,10.6,9.2c-1.4,2.5-3.2,4.8-5.3,6.8l0.6,0.9c2.2-2.1,4.1-4.6,5.6-7.3C220.3,415.5,220.3,415.2,220.2,415z"/>
	<path class="st0" d="M208.7,420.6c0.7,0,1.4-0.3,1.9-0.9l-0.6-0.9c-0.3,0.3-0.8,0.5-1.3,0.5c-1.4,0-2.6-1.8-2.6-4
		c0-0.7,0.1-1.4,0.4-2l-0.6-0.9c-0.4,0.9-0.6,1.9-0.6,2.9C205.3,418.3,206.9,420.6,208.7,420.6z"/>
	<path class="st0" d="M208.7,410.2c-0.7,0-1.4,0.3-1.9,0.9l0.6,0.9c0.3-0.3,0.8-0.5,1.3-0.5c1.4,0,2.6,1.8,2.6,4
		c0,0.7-0.1,1.4-0.4,2l0.6,0.9c0.4-0.9,0.6-1.9,0.6-2.9C212.1,412.5,210.6,410.2,208.7,410.2z"/>
	<path class="st0" d="M201.2,403.2c-0.1,0-0.2,0.1-0.3,0.2c-0.1,0.3-0.1,0.6,0,0.9l15,23.3c0.1,0.2,0.3,0.2,0.4,0.1
		c0.1,0,0.1-0.1,0.1-0.1c0.1-0.3,0.1-0.6,0-0.9l-15-23.3C201.4,403.2,201.3,403.2,201.2,403.2z"/>
	<path class="st14" d="M227.3,396.6v-1.1c0.1-0.8-0.5-1.4-1.3-1.5c0,0,0,0,0,0h-24.8c-0.7,0-1.2-0.6-1.3-1.3l-0.1-1.4
		c0-0.7-0.6-1.2-1.3-1.3H192c-0.7,0-1.2,0.6-1.3,1.3l-0.1,1.4c0,0.7-0.6,1.2-1.3,1.3h-1.2c-0.8,0-1.3,0.7-1.3,1.5v37.5
		c0,0.8,0.5,1.4,1.3,1.5"/>
	<path class="st14" d="M227.8,396.6h-37.2c-0.9,0-1.6,0.7-1.6,1.6v34.5c0,0.9,0.7,1.6,1.6,1.6c0,0,0,0,0,0h37.2
		c0.9,0,1.6-0.7,1.6-1.6c0,0,0,0,0,0v-34.5C229.5,397.3,228.8,396.6,227.8,396.6C227.9,396.6,227.8,396.6,227.8,396.6z"/>
	<path class="st14" d="M129.6,390.9h-6.5c-0.7,0-1.2,0.6-1.3,1.3l-0.2,1.4c0,0.7-0.6,1.2-1.3,1.3h-1.2c-0.8,0-1.3,0.7-1.3,1.4
		c0,0,0,0,0,0v37.5c0,0.8,0.5,1.4,1.3,1.5"/>
	<rect x="108.5" y="114.3" class="st13" width="63.8" height="339.2"/>
	<rect x="108.5" y="114.3" class="st14" width="199.4" height="339.2"/>
</g>
<g id="freepik--Padlock--inject-285">
	<path class="st15" d="M236.4,164.3h58.1c3.1,0,5.6,2.5,5.6,5.6v52.7c0,3.1-2.5,5.6-5.6,5.6h-58.1c-3.1,0-5.6-2.5-5.6-5.6v-52.7
		C230.7,166.8,233.2,164.3,236.4,164.3z"/>
	<path class="st16" d="M247.8,164.3h46.7c3.1,0,5.6,2.5,5.6,5.6v52.7c0,3.1-2.5,5.6-5.6,5.6h-46.7c-3.1,0-5.6-2.5-5.6-5.6v-52.7
		C242.1,166.8,244.6,164.3,247.8,164.3z"/>
	<g>
		<defs>
			<path id="SVGID_1_" d="M247.8,164.3h46.7c3.1,0,5.6,2.5,5.6,5.6v52.7c0,3.1-2.5,5.6-5.6,5.6h-46.7c-3.1,0-5.6-2.5-5.6-5.6v-52.7
				C242.1,166.8,244.6,164.3,247.8,164.3z"/>
		</defs>
		<clipPath id="SVGID_00000100372519458623065040000008381424551123371904_">
			<use xlink:href="#SVGID_1_"  style="overflow:visible;"/>
		</clipPath>
		<g style="clip-path:url(#SVGID_00000100372519458623065040000008381424551123371904_);">
			<path class="st18" d="M247.8,164.3h46.7c3.1,0,5.6,2.5,5.6,5.6v52.7c0,3.1-2.5,5.6-5.6,5.6h-46.7c-3.1,0-5.6-2.5-5.6-5.6v-52.7
				C242.1,166.8,244.6,164.3,247.8,164.3z"/>
		</g>
	</g>
	<path class="st19" d="M247.8,164.3h46.7c3.1,0,5.6,2.5,5.6,5.6v52.7c0,3.1-2.5,5.6-5.6,5.6h-46.7c-3.1,0-5.6-2.5-5.6-5.6v-52.7
		C242.1,166.8,244.6,164.3,247.8,164.3z"/>
	<path class="st0" d="M271.1,212c-9,0-16.6-12.7-18.3-15.7c2.4-4.4,5.5-8.3,9.2-11.7l-1-1.6c-3.9,3.6-7.1,7.9-9.6,12.6
		c-0.2,0.4-0.2,0.9,0,1.3c0.4,0.7,8.9,17.2,19.7,17.2c2.9-0.1,5.7-1.1,8-2.9l-1-1.6C276.1,211.1,273.7,211.9,271.1,212z"/>
	<path class="st0" d="M290.8,195.6c-0.4-0.7-8.9-17.2-19.7-17.2c-2.9,0.1-5.7,1.1-8,2.9l1,1.6c2-1.5,4.5-2.3,7-2.4
		c9,0,16.6,12.7,18.3,15.7c-2.4,4.4-5.5,8.3-9.2,11.7l1,1.6c3.9-3.6,7.1-7.9,9.6-12.6C291,196.5,291,196,290.8,195.6z"/>
	<path class="st0" d="M271.1,205.2c1.2,0,2.4-0.6,3.2-1.5l-1-1.5c-0.6,0.6-1.4,0.9-2.2,0.9c-2.4,0-4.4-3.1-4.4-6.9
		c0-1.2,0.2-2.4,0.6-3.5l-1-1.5c-0.7,1.6-1,3.3-1,5C265.4,201.2,267.9,205.2,271.1,205.2z"/>
	<path class="st0" d="M271.1,187.3c-1.2,0-2.4,0.6-3.2,1.5l1,1.5c0.6-0.6,1.4-0.9,2.2-0.9c2.5,0,4.4,3.1,4.4,6.9
		c0,1.2-0.2,2.4-0.6,3.5l1,1.5c0.7-1.6,1-3.3,1-5C276.9,191.3,274.3,187.3,271.1,187.3z"/>
	<path class="st0" d="M258.2,175.2c-0.2,0-0.4,0.1-0.5,0.3c-0.3,0.5-0.3,1,0,1.5l25.8,40c0.1,0.3,0.4,0.4,0.7,0.2
		c0.1-0.1,0.2-0.1,0.2-0.2c0.3-0.5,0.3-1,0-1.5l-25.8-39.9C258.6,175.4,258.4,175.3,258.2,175.2z"/>
	<path class="st20" d="M286.8,151.6v9.8h-7.1v-9.8c0-8-6.3-14.5-14.3-14.8H265c-8.1,0-14.7,6.6-14.8,14.8v9.8h-7.1v-9.8
		c0-12.1,9.8-21.8,21.9-21.8C277.1,129.8,286.8,139.5,286.8,151.6L286.8,151.6z"/>
	<g>
		<defs>
			<path id="SVGID_00000070809590799691923550000002733796570822379448_" d="M286.8,151.6v9.8h-7.1v-9.8c0-8-6.3-14.5-14.3-14.8H265
				c-8.1,0-14.7,6.6-14.8,14.8v9.8h-7.1v-9.8c0-12.1,9.8-21.8,21.9-21.8C277.1,129.8,286.8,139.5,286.8,151.6L286.8,151.6z"/>
		</defs>
		<clipPath id="SVGID_00000084529524759628673430000018140322959959663008_">
			<use xlink:href="#SVGID_00000070809590799691923550000002733796570822379448_"  style="overflow:visible;"/>
		</clipPath>
		<g style="clip-path:url(#SVGID_00000084529524759628673430000018140322959959663008_);">
			<path class="st13" d="M245.4,151.2c-0.5,0-1.4-0.8-0.9-3.8c1-5.9,7.6-16.6,20.4-16.6c12.6,0,17.3,11.3,17.3,11.3
				c-3.8-5.7-10.2-9-17-8.9C249.9,133.2,248.4,151.2,245.4,151.2z"/>
			<path class="st22" d="M279.7,161.4v-9.8c0-8-6.3-14.5-14.3-14.8c0,0,5.7-1.6,11.6,3.6s5.2,19.6,5.2,19.6h0.8v-8.9l1.2,10.2
				L279.7,161.4z"/>
		</g>
	</g>
	<path class="st2" d="M286.8,151.6v9.8h-7.1v-9.8c0-8-6.3-14.5-14.3-14.8H265c-8.1,0-14.7,6.6-14.8,14.8v9.8h-7.1v-9.8
		c0-12.1,9.8-21.8,21.9-21.8C277.1,129.8,286.8,139.5,286.8,151.6L286.8,151.6z"/>
</g>
<g id="freepik--Character--inject-285">
	<path class="st23" d="M317.4,213.6l-16.8-11.5c0,0-1.6-1.8-3.1-3.2c-1.4-1.3-3.1-2.3-4.9-2.7c-6.6,0-19.5-2-19.5-2
		s-0.6,1.4,1.4,2.1s8.7,2,8.7,2s-2.8,2.1-1.3,3.5c0,0-1.6,1.4,1.3,3.6c0.1,0.6,0.2,1.1,0.5,1.6c0.8,0.9,2.7,1.7,3.6,0.8
		c0,0,5.3,1.9,9.2,1.6l17,12.2L317.4,213.6z"/>
	<path class="st2" d="M285.1,199c0.2,0.4,0.2,0.9,0,1.3"/>
	<path class="st2" d="M284,200c0.8,0.1,1.5,0.5,2,1.1"/>
	<path class="st2" d="M281.9,201.8c0.6,1,3.5,2.4,4.7,2"/>
	<path class="st2" d="M283.1,205.4c0.4,0.3,0.9,0.5,1.4,0.7c2.9,1.1,2.9-0.8,2.9-0.8"/>
	<path class="st2" d="M287.3,207.8c0.5-0.4,0.9-0.8,1.2-1.3c0.3-0.8-0.8-1.4-0.8-1.4"/>
	<path class="st23" d="M292,197.5c-0.5,0.5-1.1,0.9-1.7,1.1c-1,0.2-4,0.9-4.3,2s1.4,4.6,1.4,4.6s2,0.2,1.4-2.7
		c1,0.3,1.9,0.9,2.5,1.7c1.4,1.6,3.2,2.8,4.2,2.2"/>
	<path class="st16" d="M393.2,429.5c0,0,0.6,10.7-1.2,12.8s-6.9,6.2-6.8,7.9c0.1,1.2,0.4,2.3,0.8,3.4c0,0,8.9-0.5,11.8-1.3
		c6.1-1.6,11-7.6,11-7.6l8-3.3l1.6-2.7c0,0-5.5-9.4-10.8-12.8S393.2,429.5,393.2,429.5z"/>
	<path class="st24" d="M355.2,288.9c0,0,35.5,142.4,36.5,142.2s16.5,0.3,16.5,0.3l3.6-3l-2-2.3l0.7-6.4l-6.6-28.8
		c0,0-6.3-28.7-6.3-34s-3.3-43.5-1.6-52.4S355.2,288.9,355.2,288.9z"/>
	<path class="st0" d="M390.7,451.9l-2.7,1.6h-7.5l-2.6-0.7l-4,0.7h-12.2c-1.6,0-7.4-1.6-7.4-1.6s0.3-1,0.6-2.2c0.3-1,0.6-2,1-3
		c0.7-1.5,7.1-2.8,9.7-3.8c0.7-0.4,1.3-0.9,1.6-1.6c1-2.1,1.6-4.3,1.9-6.6c0,0,14.8-4.5,18,1c1.5,2.9,2.4,6.1,2.9,9.3
		c0.3,1.8,0.5,3.4,0.6,4.7C390.7,451,390.7,451.9,390.7,451.9z"/>
	<g>
		<defs>
			<path id="SVGID_00000071561252982526569540000001519196200725608365_" d="M390.7,451.9l-2.7,1.6h-7.5l-2.6-0.7l-4,0.7h-12.2
				c-1.6,0-7.4-1.6-7.4-1.6s0.3-1,0.6-2.2c0.3-1,0.6-2,1-3c0.7-1.5,7.1-2.8,9.7-3.8c0.7-0.4,1.3-0.9,1.6-1.6c1-2.1,1.6-4.3,1.9-6.6
				c0,0,14.8-4.5,18,1c1.5,2.9,2.4,6.1,2.9,9.3c0.3,1.8,0.5,3.4,0.6,4.7C390.7,451,390.7,451.9,390.7,451.9z"/>
		</defs>
		<clipPath id="SVGID_00000117641866713164810170000000239273964352597412_">
			<use xlink:href="#SVGID_00000071561252982526569540000001519196200725608365_"  style="overflow:visible;"/>
		</clipPath>
		<g style="clip-path:url(#SVGID_00000117641866713164810170000000239273964352597412_);">
			<path class="st26" d="M389.9,444.9h-17.4c0,0-1-1.3-1.7-2c-1.1-0.7-2.3-1.2-3.6-1.6c1-2.1,1.6-4.3,1.9-6.6c0,0,14.8-4.5,18,1
				C388.6,438.5,389.5,441.6,389.9,444.9z"/>
			<path class="st1" d="M390.7,451.9l-2.7,1.6h-7.5l-2.6-0.7l-4,0.7h-12.2c-1.6,0-7.4-1.6-7.4-1.6s0.3-1,0.6-2.2l11.1,2.4l8.9-0.7
				l2.8-1.3l5,1c0,0,4.6-0.8,7.8-1.5C390.7,451,390.7,451.9,390.7,451.9z"/>
		</g>
	</g>
	<path class="st2" d="M390.7,451.9l-2.7,1.6h-7.5l-2.6-0.7l-4,0.7h-12.2c-1.6,0-7.4-1.6-7.4-1.6s0.3-1,0.6-2.2c0.3-1,0.6-2,1-3
		c0.7-1.5,7.1-2.8,9.7-3.8c0.7-0.4,1.3-0.9,1.6-1.6c1-2.1,1.6-4.3,1.9-6.6c0,0,14.8-4.5,18,1c1.5,2.9,2.4,6.1,2.9,9.3
		c0.3,1.8,0.5,3.4,0.6,4.7C390.7,451,390.7,451.9,390.7,451.9z"/>
	<path class="st2" d="M361.1,444.2c0,0,5.1,0.2,5.7,1.4s6.9-2.4,6.9-2.4l2.5-5.3"/>
	<path class="st2" d="M365.6,442.9c1.3,0.1,2.5,0.4,3.6,1"/>
	<path class="st2" d="M367.4,440.8c0,0,3.8-0.2,5.1,1.1"/>
	<path class="st2" d="M358.2,446.6c0,0,4.9,1.7,7.4,1.8s3.3-0.1,4.3,3"/>
	<path class="st2" d="M354.8,450c0,0,10.9,2,11.3,2s8.9-0.7,8.9-0.7l2.8-1.3c0,0,4.1,0.9,5,1c1.9-0.2,3.9-0.5,5.8-1"/>
	<path class="st2" d="M382.7,448.6c0,0,2.5-3.5,2.4-3.8s3.4-1,3.4-1"/>
	<path class="st24" d="M397.6,284.7v18.4l-5.1,19.4l-1.9,39.3l-2.2,7.6l2.9,25.9l-0.6,35.9l1.9,4.4l-1.8,5.6l-23.6-2.5l2-6.2
		l-2.6-5.1l0.7-9.5l-2.2-49.6l-2-39c0,0-4.9-21.1-8.4-42.8L397.6,284.7z"/>
	<g>
		<defs>
			<path id="SVGID_00000103959599297656988200000005777221127467512992_" d="M397.6,284.7v18.4l-5.1,19.4l-1.9,39.3l-2.2,7.6
				l2.9,25.9l-0.6,35.9l1.9,4.4l-1.8,5.6l-23.6-2.5l2-6.2l-2.6-5.1l0.7-9.5l-2.2-49.6l-2-39c0,0-4.9-21.1-8.4-42.8L397.6,284.7z"/>
		</defs>
		<clipPath id="SVGID_00000176005428725433204790000006937148279251291326_">
			<use xlink:href="#SVGID_00000103959599297656988200000005777221127467512992_"  style="overflow:visible;"/>
		</clipPath>
		<g style="clip-path:url(#SVGID_00000176005428725433204790000006937148279251291326_);">
			<path class="st22" d="M397.6,290.9v2.8l-8.1,0.8l-1.3,6.3c0,0-6.8-3.7-7.4-5l-19.2,1.7l1.5,5.1l9-1.8l-6.4,3.4l7.6,1.9l-10.1,1.7
				l1.1,4l-1.3,16.7c-0.9-3.8-4-18.1-6.9-34.2c6.7-1,13.8-2.1,14-2.3S386.4,291.2,397.6,290.9z"/>
		</g>
	</g>
	<path class="st2" d="M397.6,284.7v18.4l-5.1,19.4l-1.9,39.3l-2.2,7.6l2.9,25.9l-0.6,35.9l1.9,4.4l-1.8,5.6l-23.6-2.5l2-6.2
		l-2.6-5.1l0.7-9.5l-2.2-49.6l-2-39c0,0-4.9-21.1-8.4-42.8L397.6,284.7z"/>
	<polyline class="st2" points="363.2,329.4 361.7,305.4 358.3,300.8 	"/>
	<path class="st2" d="M377.9,284.7c0,0,0.8,10.1,4.8,13.2c1.7,1.2,3.3,2.6,4.8,4.1"/>
	<path class="st2" d="M389.6,287.4l-1.2,15.7l-3,19.4c0,0-1,11.7-1.9,14.5s-0.9,9.6-0.9,10.9s1.9,12.2,0.9,15.1s-1.9,3.2-0.9,5.4
		s-0.4,10.5-0.4,10.5"/>
	<path class="st2" d="M382.2,385.1c-0.3,4.1-0.3,8.2,0,12.2c0.3,3.7,0.2,7.4-0.3,11c-0.3,2.6,1.6,11.5,1.6,11.5v6.8"/>
	<polyline class="st2" points="370.8,432.9 389.6,435.6 379,432.5 	"/>
	<polyline class="st2" points="394.2,294.5 394.2,302.1 393,305.4 396,305.4 	"/>
	<line class="st2" x1="363.2" y1="304.2" x2="369.8" y2="302.1"/>
	<line class="st2" x1="361.7" y1="305.4" x2="369.8" y2="306.8"/>
	<polyline class="st2" points="358.3,295.5 359.9,300.8 360.8,303.1 	"/>
	<path class="st0" d="M390.4,194.5c0,0,16.8,11.7,17.5,15.9s10.9,45.5,9.6,48.7s-15,14.2-15,14.2l1.6,12.2l-2.3,2.3l0.3,3.6
		l-47.5,4.3l-2.7-5.8l-1.8-1c0,0,1.1-23.3,2.8-28.2s0.7-24.6,0.7-24.6s-22,6.8-26.7,4.8s-24.8-23.2-25.1-23.9
		c-0.3-0.7-0.5-1.5-0.7-2.2l-2-2.3c1.3-1.6,2.3-3.4,2.8-5.4c1-3.6,2.1-4.8,2.1-4.8l3.6,2.9c0,0,0.4-0.5,3.4-0.1s20,13.1,21,14.4
		S352.8,198.3,390.4,194.5z"/>
	<g>
		<defs>
			<path id="SVGID_00000137093041468236230770000012737249231475118726_" d="M390.4,194.5c0,0,16.8,11.7,17.5,15.9
				s10.9,45.5,9.6,48.7s-15,14.2-15,14.2l1.6,12.2l-2.3,2.3l0.3,3.6l-47.5,4.3l-2.7-5.8l-1.8-1c0,0,1.1-23.3,2.8-28.2
				s0.7-24.6,0.7-24.6s-22,6.8-26.7,4.8s-24.8-23.2-25.1-23.9c-0.3-0.7-0.5-1.5-0.7-2.2l-2-2.3c1.3-1.6,2.3-3.4,2.8-5.4
				c1-3.6,2.1-4.8,2.1-4.8l3.6,2.9c0,0,0.4-0.5,3.4-0.1s20,13.1,21,14.4S352.8,198.3,390.4,194.5z"/>
		</defs>
		<clipPath id="SVGID_00000143608313537673780850000004014458107731106982_">
			<use xlink:href="#SVGID_00000137093041468236230770000012737249231475118726_"  style="overflow:visible;"/>
		</clipPath>
		<g style="clip-path:url(#SVGID_00000143608313537673780850000004014458107731106982_);">
			<path class="st26" d="M338.8,240l6.6-5c0,0-0.8-14.4,0-14.2s4.3,7.5,4.3,7.5l1.6-8.8l1.1,10.9l0.5,5.9
				C351,236.9,344.8,238.7,338.8,240z"/>
			<polygon class="st26" points="401.6,287.9 402,291.5 377.3,293.7 384.6,290.6 381.9,288.9 			"/>
			<path class="st26" d="M402.4,273.4l1.4,11c-3-0.3-7-0.7-7.8-0.6c-1.3,0.1-13.9-12.5-14.1-13.5s0.8-11.3,0.8-11.3l2.4-0.6
				l7.4-13.4c0,0-4.4,1-5,0.2s5-9.1,5-9.1c-0.7-1.6-1.1-8.1-1.1-8.1l3.8,8.1l3.6,12.9l-4.6,7.8l-6.7,4.2l4,17.6
				c6.3-3.2,12.4-6.9,18-11.1C405.8,270.6,402.4,273.4,402.4,273.4z"/>
			<path class="st26" d="M377.6,209.9c0,0-6.9,3.5-9.1,1.5s-3.6-5.7-3.9-4.6c-0.2,1-0.2,2,0,2.9c0,0,0.1,0.7-2.3-2.9
				c-0.9-1.4-1.3-3.1-1.3-4.8c1.1-0.5,2.3-0.9,3.5-1.4c0.3,2.4,5.9,8.1,7.4,8.9S377.6,209.9,377.6,209.9z"/>
			<path class="st26" d="M396.8,199.3c-5.3,3.2-13.5,2.2-13.5,2.2c2.6-1.8,4.8-4.2,6.5-6.9l0.6-0.1
				C390.4,194.5,393.3,196.6,396.8,199.3z"/>
			<path class="st26" d="M307.3,206.7c0,0-1.4,5.3-4.3,7.3l-2.5,0.2l-1.4-1.6c0,0,0.1-0.1,0.4-0.4c1.4-0.7,2.6-1.6,3.7-2.7
				C304.3,207.8,307.3,206.7,307.3,206.7z"/>
			<path class="st26" d="M359.5,248.2c0,0,20.7-9.5,20.5-9.2s-16.9,14-20.4,14S359.5,248.2,359.5,248.2z"/>
			<path class="st26" d="M386.1,283.9l-34.3,6.1l-1.8-1c0,0,0.2-3.4,0.5-7.8l0,0l19.3-6l6.4-11.3v7.6c0,0,7.4,7.2,8.9,9.1
				L386.1,283.9z"/>
		</g>
	</g>
	<path class="st2" d="M390.4,194.5c0,0,16.8,11.7,17.5,15.9s10.9,45.5,9.6,48.7s-15,14.2-15,14.2l1.6,12.2l-2.3,2.3l0.3,3.6
		l-47.5,4.3l-2.7-5.8l-1.8-1c0,0,1.1-23.3,2.8-28.2s0.7-24.6,0.7-24.6s-22,6.8-26.7,4.8s-24.8-23.2-25.1-23.9
		c-0.3-0.7-0.5-1.5-0.7-2.2l-2-2.3c1.3-1.6,2.3-3.4,2.8-5.4c1-3.6,2.1-4.8,2.1-4.8l3.6,2.9c0,0,0.4-0.5,3.4-0.1s20,13.1,21,14.4
		S352.8,198.3,390.4,194.5z"/>
	<path class="st0" d="M364,180c-0.8,4.8-0.5,9.8,0.8,14.5c2.1,8.5,6.4,12.2,6.4,12.2s6.4-2.2,7.4-5.8s0-20,0-20L364,180z"/>
	<g>
		<defs>
			<path id="SVGID_00000132785032390559644630000002296546483195138734_" d="M364,180c-0.8,4.8-0.5,9.8,0.8,14.5
				c2.1,8.5,6.4,12.2,6.4,12.2s6.4-2.2,7.4-5.8s0-20,0-20L364,180z"/>
		</defs>
		<clipPath id="SVGID_00000068652662828041120960000016922899441990155393_">
			<use xlink:href="#SVGID_00000132785032390559644630000002296546483195138734_"  style="overflow:visible;"/>
		</clipPath>
		<g style="clip-path:url(#SVGID_00000068652662828041120960000016922899441990155393_);">
			<path class="st30" d="M364,180c-0.8,4.8-0.5,9.8,0.8,14.5c2.1,8.5,6.4,12.2,6.4,12.2s6.4-2.2,7.4-5.8s0-20,0-20L364,180z"/>
		</g>
	</g>
	<path class="st2" d="M364,180c-0.8,4.8-0.5,9.8,0.8,14.5c2.1,8.5,6.4,12.2,6.4,12.2s6.4-2.2,7.4-5.8s0-20,0-20L364,180z"/>
	<path class="st23" d="M388.3,192.6c0,0-2.4,7.9-6.4,10.1s-11.5,4.7-8.8,0.2c1.2-2.1,0.9-5.4,0.2-8.4c-0.5-2.2-1.2-4.3-2.1-6.4
		l0.5-0.5l10.2-9.2L388.3,192.6z"/>
	<path class="st16" d="M380,184.1c0,0-2.2,8.9-6.7,10.4c-0.5-2.2-1.2-4.3-2.1-6.4l0.5-0.5L380,184.1z"/>
	<path class="st23" d="M374,154.2c9.1,0.7,11.7,9.4,10.9,15.5c-1.6,12.7-7.1,22-14.3,21.5s-10.5-14.8-9.4-24.6
		C362.1,159.5,367,153.7,374,154.2z"/>
	<path class="st2" d="M373.9,168c0,0,3.6-1.1,6,1.6"/>
	<path class="st2" d="M365.8,202.7c0,0-1.8,5.1-1,7.7"/>
	<path class="st16" d="M377.6,173.2c0,0.6-0.3,1.1-0.7,1.1s-0.7-0.5-0.7-1.1s0.3-1.1,0.7-1.1S377.6,172.6,377.6,173.2z"/>
	<path class="st16" d="M367.2,172.7c0,0.6-0.3,1.1-0.7,1.1s-0.7-0.5-0.7-1.1s0.3-1.1,0.7-1.1S367.2,172.1,367.2,172.7z"/>
	<path class="st2" d="M367.2,167.8c0,0-2.9-1.7-4.9,0"/>
	<path class="st2" d="M368.1,172.5c-0.3,1.6-0.9,3.2-1.6,4.7c-0.8,1.1,1.6,2.1,1.6,2.1"/>
	<path class="st2" d="M367.8,182.9c0,0,4-0.4,4.1,0.8s-3.2,1.1-3.9,0"/>
	<path class="st16" d="M382.5,157c0,0-8.2-5.1-12.6-5.3s-10,6.8-10,6.8h2.4c0,0-3.4,3.3-3.4,6.4l3.4-3.6l1.7,3c0,0,1.3-3.6,7.9-4.1
		v2.3c0,0,5.9-2.1,9.1-1.1l-1,2.1l4.4-0.7C384.4,162.7,385.6,160.2,382.5,157z"/>
	<path class="st31" d="M390.4,194.5c0,0,6.5-27.2,3.2-34.2s-9-6.9-9-6.9s-13.1-4-14.2-3.9s-5.8,5.2-4.6,4.6
		c7.4-4.3,18.8,7.9,18.8,7.9c-1.3,4.1-5.4,30.3-7,33.4s-5.3,9.3-5.3,9.3c-1.8-1.2-3.5-2.6-5.2-4.1c-1.5-1.5-3.2-13.4-3.2-13.4
		s0,13,0.8,15.2s7.2,7.9,7.2,7.9c2.7-0.1,5.4-0.4,8-0.9"/>
	<path class="st2" d="M353.5,236.1c0,0-4.1-17.8-1.1-24.2"/>
	<path class="st2" d="M332,219.5c0,0,0.8,5.8-1.1,8.5"/>
	<path class="st2" d="M390.4,194.5c0,0-5.5,6.5-8.5,8.1"/>
	<path class="st2" d="M402.4,273.4l-12,5.8c0,0-8.5-8.4-8.5-10s0-5.5,0-5.5s11.3-4.9,13.2-7.9s4-5.6,4-5.6s6.6,1.6,7.5,2.5"/>
	<path class="st2" d="M405.5,247.2c-0.9,0.3-6.4,2.9-6.4,2.9s-4.2-15.5-4.9-17.3s3.3-15.8,5.6-17.4"/>
	<path class="st2" d="M394.5,233.9c-4.3-2.9-4.1-11.2-4.1-11.2"/>
	<polyline class="st2" points="394.5,280.8 394.1,282 390.4,279.1 381.9,269.2 381.9,263.7 382.6,259 383.5,260.7 	"/>
	<polyline class="st2" points="355.2,259 365.2,259 381.9,256.6 	"/>
	<path class="st2" d="M387.4,236.1c0,0-20.7,17.8-25.7,17.8"/>
	<path class="st2" d="M391.4,284.7c0,0-33.2,5.5-36.1,5.9"/>
	<line class="st2" x1="394.2" y1="245.2" x2="388.3" y2="257.8"/>
	<path class="st2" d="M352.4,232.9c0,0-4.3-7.3-5.4-10.1"/>
	<path class="st2" d="M307.6,205.2c0,0-0.2,5.9-3.1,7.3"/>
</g>
<g id="freepik--Floor--inject-285">
	<line class="st2" x1="39.6" y1="453.6" x2="456.9" y2="453.6"/>
</g>
</svg>
