<?xml version="1.0" encoding="utf-8"?>
<!-- Generator: Adobe Illustrator 26.2.1, SVG Export Plug-In . SVG Version: 6.00 Build 0)  -->
<svg version="1.1" id="Layer_1" xmlns="http://www.w3.org/2000/svg" xmlns:xlink="http://www.w3.org/1999/xlink" x="0px" y="0px"
	 viewBox="0 0 500 500" style="enable-background:new 0 0 500 500;" xml:space="preserve">
<style type="text/css">
	.st0{fill:#007172;}
	.st1{opacity:0.7;fill:#FFFFFF;enable-background:new    ;}
	.st2{opacity:0.3;fill:none;stroke:#000000;stroke-miterlimit:10;enable-background:new    ;}
	.st3{opacity:0.3;}
	.st4{opacity:0.2;}
	.st5{fill:#CBDAD5;stroke:#263238;stroke-linecap:round;stroke-linejoin:round;}
	.st6{fill:#FFFFFF;stroke:#263238;stroke-linecap:round;stroke-linejoin:round;}
	.st7{fill:#007172;stroke:#263238;stroke-linecap:round;stroke-linejoin:round;}
	.st8{fill:#007172;stroke:#007172;stroke-linecap:round;stroke-linejoin:round;}
	.st9{fill:#707070;}
	.st10{fill:#263238;}
	.st11{fill:#D94F04;stroke:#263238;stroke-miterlimit:10;}
	.st12{fill:#CBDAD5;}
	.st13{fill:none;stroke:#263238;stroke-miterlimit:10;}
	.st14{fill:#FDFCDC;}
	.st15{fill:#D94F04;stroke:#007172;stroke-miterlimit:10;}
	.st16{fill:#B2B2B2;}
	.st17{fill:#FDFCDC;stroke:#007172;stroke-miterlimit:10;}
	.st18{fill:#FDFCDC;stroke:#263238;stroke-miterlimit:10;}
	.st19{fill:#FFFFFF;stroke:#263238;stroke-miterlimit:10;}
	.st20{fill:#263238;stroke:#263238;stroke-miterlimit:10;}
	.st21{fill:none;stroke:#FFFFFF;stroke-miterlimit:10;}
</style>
<g id="freepik--background-simple--inject-54">
	<path class="st0" d="M471.2,262.7c-10.7,39.9-36.1,84.4-76.2,100.7c-60.7,24.6-63.3,75.7-175.7,81.8c-16.4,1-32.9,0.1-49.1-2.5
		c-7.9-1.3-15.8-3.1-23.5-5.4C78.8,417,39.1,362,30.5,301.3C19.1,221.5,71.3,177.9,105.6,152S175.3,35.3,285.7,28.5
		c16.9-1.1,33.8-0.2,50.4,2.5c38,6.5,77.7,25,102.7,55.3c1.9,2.3,3.7,4.6,5.4,7C478.3,140.2,485.8,208.3,471.2,262.7z"/>
	<path class="st1" d="M471.2,262.7c-10.7,39.9-36.1,84.4-76.2,100.7c-60.7,24.6-63.3,75.7-175.7,81.8c-16.4,1-32.9,0.1-49.1-2.5
		c-7.9-1.3-15.8-3.1-23.5-5.4C78.8,417,39.1,362,30.5,301.3C19.1,221.5,71.3,177.9,105.6,152S175.3,35.3,285.7,28.5
		c16.9-1.1,33.8-0.2,50.4,2.5c38,6.5,77.7,25,102.7,55.3c1.9,2.3,3.7,4.6,5.4,7C478.3,140.2,485.8,208.3,471.2,262.7z"/>
</g>
<g id="freepik--Graphics--inject-54">
	<path class="st2" d="M88.4,110.7v-5.7c0-11.2-7.4-15.1-15-15.1c-8.1-0.1-14.7,6.3-14.9,14.4c0,0.3,0,0.5,0,0.8v5.7h-2.2v31.4h34
		v-31.4H88.4z M74.3,128v5.7h-3.2V128c-2.2-0.9-3.3-3.4-2.4-5.6c0.9-2.2,3.4-3.3,5.6-2.4c2.2,0.9,3.3,3.4,2.4,5.6
		C76.3,126.7,75.4,127.6,74.3,128z M83.7,110.8H63v-5.7c0-5.7,4.6-10.3,10.3-10.4c5.7,0,10.3,3.9,10.3,10.3L83.7,110.8z"/>
	<path class="st2" d="M111.9,51.6h96.3c7.4,0,13.5,6,13.5,13.5l0,0c0,7.4-6,13.5-13.5,13.5h-96.3c-7.4,0-13.5-6-13.5-13.5l0,0
		C98.5,57.7,104.5,51.6,111.9,51.6z"/>
	<g class="st3">
		<path d="M124.1,63.8l2.8,3.1l-1.3,1l-2.1-3.7l-2.1,3.7l-1.3-1l2.8-3.1l-4.1-0.9l0.5-1.6l3.9,1.7l-0.5-4.2h1.7l-0.4,4.2l3.9-1.7
			l0.5,1.6L124.1,63.8z"/>
		<path d="M134.6,63.8l2.8,3.1L136,68l-2.1-3.7l-2,3.7l-1.4-1l2.8-3.1l-4.1-0.9l0.5-1.6l3.9,1.7l-0.5-4.2h1.7l-0.4,4.2l3.9-1.7
			l0.5,1.6L134.6,63.8z"/>
		<path d="M145,63.8l2.8,3.1l-1.4,1l-2.1-3.7l-2,3.7l-1.3-1l2.8-3.1l-4.1-0.9l0.5-1.6l3.9,1.7l-0.5-4.2h1.7l-0.4,4.2l3.9-1.7
			l0.5,1.6L145,63.8z"/>
		<path d="M155.5,63.8l2.8,3.1L157,68l-2.1-3.7l-2.1,3.7l-1.4-1l2.8-3.1l-4.1-0.9l0.5-1.6l3.9,1.7l-0.5-4.2h1.7l-0.4,4.2l3.9-1.7
			l0.5,1.6L155.5,63.8z"/>
		<path d="M166,63.8l2.8,3.1l-1.4,1l-2.1-3.7l-2.1,3.7l-1.4-1l2.8-3.1l-4.1-0.9l0.5-1.6l3.9,1.7l-0.5-4.2h1.7l-0.4,4.2l3.9-1.7
			l0.5,1.6L166,63.8z"/>
		<path d="M176.4,63.8l2.8,3.1l-1.4,1l-2.1-3.7l-2.1,3.7l-1.4-1l2.8-3.1l-4.1-0.9l0.5-1.6l3.9,1.7l-0.4-4.2h1.7l-0.4,4.2l3.9-1.7
			l0.5,1.6L176.4,63.8z"/>
		<path d="M186.9,63.8l2.8,3.1l-1.4,1l-2.1-3.7l-2.1,3.7l-1.4-1l2.8-3.1l-4.1-0.9l0.5-1.6l3.9,1.7l-0.5-4.2h1.7l-0.4,4.2l3.9-1.7
			L191,63L186.9,63.8z"/>
		<path d="M197.4,63.8l2.8,3.1l-1.4,1l-2.1-3.7l-2.1,3.7l-1.4-1l2.8-3.1L192,63l0.5-1.6l3.9,1.7l-0.5-4.2h1.7l-0.4,4.2l3.9-1.7
			l0.5,1.6L197.4,63.8z"/>
	</g>
	<path class="st2" d="M83.7,235.4c-0.6-1.4-1.9-2.3-3.4-2.4H78v-2c1.8-2.2,2.7-5,2.7-7.8c0-5.1-3.1-9.2-6.9-9.2s-6.8,4.1-6.8,9.2
		c0,2.7,0.8,5.4,2.5,7.6v2.2h-3c-1.5,0.1-2.9,1-3.5,2.4l-4.1,6.9h28.9L83.7,235.4z"/>
	<circle class="st2" cx="73.4" cy="230.2" r="21.5"/>
</g>
<g id="freepik--Arrows--inject-54">
	<g class="st4">
		<path d="M234.3,323.8c-58.7-32.6-79.8-106.6-47.2-165.3c25.8-46.4,78.7-70.7,130.7-60l-3.1,10.4l34.6-8.2l-24.4-25.8l-3,9.9
			c-9.4-2-18.9-3-28.5-3c-74.9,0-135.9,60.9-135.9,135.9c0,50.8,28.4,97.4,73.6,120.7l-8.6-14.2L234.3,323.8z"/>
		<path d="M343.6,91.2l10.7,11.3l-13.1,3.1c61.8,26.3,90.5,97.7,64.2,159.5c-24.3,57.1-87.7,86.7-147.1,68.7l4.2-7.6l-35.5,0.7
			l18.4,30.4l5.9-10.7c13.6,4.5,27.9,6.7,42.2,6.7c74.9,0,135.9-60.9,135.9-135.9C429.2,161.8,395.3,111.8,343.6,91.2z"/>
	</g>
</g>
<g id="freepik--device-2--inject-54">
	<path class="st5" d="M454,69.2l-22.9-4.4v0.1c-1.1,2.3-3,3.6-4.7,3.3l-1-0.2c-1.7-0.3-3-2.2-3.2-4.8v-0.1l-22.9-4.4
		c-6.4-1.2-12.5,2.9-13.7,9.3c0,0,0,0,0,0l-29.7,150.7c-0.7,3.7,1.7,7.2,5.4,7.9l64.6,12.3c3.7,0.7,7.2-1.7,7.9-5.4c0,0,0,0,0,0
		L463.4,83C464.6,76.6,460.4,70.5,454,69.2C454,69.2,454,69.2,454,69.2z"/>
	<path class="st6" d="M462.7,86.3l0.6-3.4c1.2-6.4-3-12.5-9.3-13.7c0,0,0,0,0,0l-22.9-4.4v0.1c-1.1,2.3-3,3.6-4.7,3.3l-1-0.2
		c-1.7-0.3-3-2.2-3.2-4.8v-0.1l-22.9-4.4c-6.4-1.2-12.5,2.9-13.7,9.3c0,0,0,0,0,0l-0.6,3.4L462.7,86.3z"/>
	<path class="st7" d="M457.7,134.6l2.8-14.6l-1.3-0.2l8.3-38.8c1.2-6.4-3-12.5-9.4-13.8l-62-11.8c-6.4-1.2-12.5,3-13.8,9.4
		l-30.6,155.1c-1.2,6.4,2.9,12.5,9.3,13.7c0,0,0,0,0,0l62,11.8c6.4,1.2,12.6-2.9,13.8-9.3c0,0,0,0,0-0.1l17-89.3l1.3,0.3l1.6-8.6
		l-1.3-0.2l0.7-3.8L457.7,134.6z M434.9,227.2c-1.2,6.4-7.4,10.6-13.8,9.3l-54.8-10.4c-6.4-1.2-10.6-7.4-9.3-13.8l28.5-144.2
		c1.2-6.4,7.4-10.6,13.7-9.3c0,0,0,0,0,0l22.9,4.4v0.1c0.2,2.6,1.5,4.5,3.2,4.8l1,0.2c1.7,0.3,3.6-1,4.7-3.3v-0.1l22.9,4.4
		c6.4,1.2,10.6,7.3,9.4,13.7c0,0,0,0,0,0.1L434.9,227.2z"/>
	<path class="st8" d="M455.8,68.5l-58-11.1c-6.8-1.3-13.3,3.1-14.6,9.9l-29.6,150.5c-1.3,6.8,3.1,13.3,9.9,14.6c0,0,0,0,0,0l58,11.1
		c6.8,1.3,13.3-3.1,14.6-9.9c0,0,0,0,0,0l29.6-150.5C467,76.3,462.6,69.8,455.8,68.5z M434.9,227.2c-1.2,6.4-7.4,10.6-13.8,9.3
		l-54.8-10.4c-6.4-1.2-10.6-7.4-9.3-13.8l28.5-144.2c1.2-6.4,7.4-10.6,13.7-9.3c0,0,0,0,0,0l22.9,4.4v0.1c0.2,2.6,1.5,4.5,3.2,4.8
		l1,0.2c1.7,0.3,3.6-1,4.7-3.3v-0.1l22.9,4.4c6.4,1.2,10.6,7.3,9.4,13.7c0,0,0,0,0,0.1L434.9,227.2z"/>
	<path class="st9" d="M427.4,64.7c0.1-0.6-0.3-1.2-0.9-1.3s-1.2,0.3-1.3,0.9c-0.1,0.6,0.3,1.2,0.9,1.3
		C426.7,65.7,427.3,65.3,427.4,64.7C427.4,64.7,427.4,64.7,427.4,64.7z"/>
	<path class="st10" d="M393.7,62.6c-0.2,1.1-1.5,1.3-1.7,2.1v0.1l1.2,0.2l-0.1,0.4l-1.6-0.3l0.1-0.3c0.2-1.2,1.5-1.2,1.7-2.2
		c0.1-0.4,0-0.6-0.3-0.7s-0.5,0.1-0.5,0.5l-0.1,0.3l-0.4-0.1v-0.3c0.1-0.5,0.4-0.9,1-0.8c0.4,0,0.8,0.4,0.8,0.9
		C393.8,62.4,393.8,62.5,393.7,62.6z"/>
	<path class="st10" d="M395.7,63L395.7,63c0,0.4-0.3,0.7-0.6,0.8c0.3,0.2,0.4,0.5,0.3,0.8l0,0.3c-0.1,0.6-0.4,0.9-1,0.8
		s-0.8-0.5-0.6-1.1v-0.2l0.4,0.1l-0.1,0.3c-0.1,0.3,0,0.6,0.3,0.6s0.5-0.1,0.5-0.5l0.1-0.3c0.1-0.3,0-0.5-0.4-0.6h-0.2l0.1-0.4h0.2
		c0.2,0,0.5-0.1,0.5-0.4c0,0,0,0,0-0.1v-0.2c0.1-0.4,0-0.6-0.3-0.6s-0.5,0.1-0.5,0.5v0.2l-0.4-0.1v-0.2c0.1-0.5,0.4-0.9,1-0.8
		S395.8,62.4,395.7,63z"/>
	<path class="st10" d="M396.5,63.4l-0.1,0.5l-0.4-0.1l0.1-0.5L396.5,63.4z M396.1,65.4l-0.1,0.5l-0.4-0.1l0.1-0.5L396.1,65.4z"/>
	<path class="st10" d="M397.2,63.9c0.1-0.2,0.4-0.3,0.6-0.2c0.5,0.1,0.6,0.5,0.5,1l-0.1,0.7c-0.1,0.6-0.4,0.9-1,0.8
		s-0.7-0.5-0.6-1.1l0-0.2l0.4,0.1l0,0.3c-0.1,0.3,0,0.6,0.3,0.6s0.5-0.1,0.5-0.4l0.1-0.7c0.1-0.3,0-0.6-0.3-0.6
		c-0.2-0.1-0.4,0.1-0.5,0.3c0,0,0,0,0,0v0.1l-0.4-0.1l0.5-2l1.4,0.3l-0.1,0.4l-1.1-0.2L397.2,63.9z"/>
	<path class="st10" d="M400.6,63.9L400.6,63.9l-0.4,0v-0.1c0.1-0.3,0-0.5-0.3-0.6s-0.5,0.1-0.5,0.5l-0.2,0.8
		c0.1-0.2,0.4-0.3,0.7-0.3c0.5,0.1,0.6,0.5,0.5,1l-0.1,0.6c0,0.4-0.4,0.8-0.8,0.8c-0.1,0-0.1,0-0.2,0c-0.4-0.1-0.8-0.5-0.7-0.9
		c0-0.1,0-0.1,0-0.2l0.4-1.8c0.1-0.6,0.4-0.9,1-0.8c0.4,0.1,0.7,0.5,0.7,0.9C400.6,63.8,400.6,63.9,400.6,63.9z M399.1,65l-0.1,0.5
		c-0.1,0.3,0,0.6,0.3,0.6s0.5-0.1,0.5-0.4l0.1-0.6c0.1-0.3,0-0.6-0.3-0.6S399.1,64.7,399.1,65z"/>
	
		<rect x="438.2" y="72.3" transform="matrix(0.1876 -0.9823 0.9823 0.1876 285.5291 490.8732)" class="st10" width="2.6" height="1"/>
	
		<rect x="439.4" y="72.3" transform="matrix(0.1874 -0.9823 0.9823 0.1874 286.7751 492.2937)" class="st10" width="3.1" height="1"/>
	
		<rect x="440.6" y="72.4" transform="matrix(0.1874 -0.9823 0.9823 0.1874 287.8489 493.7237)" class="st10" width="3.5" height="1"/>
	
		<rect x="441.7" y="72.3" transform="matrix(0.1874 -0.9823 0.9823 0.1874 289.0664 495.107)" class="st10" width="4.2" height="1"/>
	<path class="st10" d="M456.6,77.3l-6.2-1.2l0.7-3.8l6.2,1.2L456.6,77.3z M450.8,75.9l5.5,1l0.6-3.1l-5.5-1L450.8,75.9z"/>
	
		<rect x="452.1" y="73.1" transform="matrix(0.1874 -0.9823 0.9823 0.1874 294.9488 505.9977)" class="st10" width="2.4" height="3.3"/>
	
		<rect x="455.4" y="76.1" transform="matrix(0.1903 -0.9817 0.9817 0.1903 294.0072 509.5188)" class="st10" width="0.9" height="0.8"/>
	<path class="st10" d="M448.3,74.9c0,0-0.1,0-0.1-0.1c-0.5-0.6-1.4-0.8-2.1-0.4c-0.1,0.1-0.2,0-0.3-0.1c0,0,0,0,0,0
		c-0.1-0.1,0-0.2,0.1-0.3c0,0,0,0,0,0c0.9-0.4,2-0.2,2.7,0.5c0.1,0.1,0.1,0.2,0,0.3c0,0,0,0,0,0C448.5,74.9,448.4,74.9,448.3,74.9z"
		/>
	<path class="st10" d="M449,74.2c0,0-0.1,0-0.1,0c-0.8-0.8-2-1.1-3-0.6c-0.1,0.1-0.3,0-0.3-0.1c-0.1-0.1,0-0.3,0.1-0.3
		c1.2-0.6,2.7-0.3,3.6,0.7c0.1,0.1,0.1,0.2,0,0.3c0,0,0,0,0,0C449.2,74.3,449.1,74.3,449,74.2z"/>
	<path class="st10" d="M449.5,73.4c0,0-0.1,0-0.1-0.1c-1-1.1-2.6-1.4-3.9-0.8c-0.1,0.1-0.3,0-0.3-0.1c-0.1-0.1,0-0.2,0.1-0.3
		c0,0,0,0,0,0c1.5-0.7,3.3-0.4,4.4,0.8c0.1,0.1,0.1,0.2,0,0.3c0,0,0,0,0,0C449.7,73.4,449.6,73.4,449.5,73.4z"/>
	<path class="st10" d="M447.6,75.2c-0.1,0.3-0.4,0.5-0.7,0.5c0,0,0,0,0,0c-0.3-0.1-0.5-0.4-0.5-0.7s0.4-0.5,0.7-0.5
		C447.4,74.5,447.6,74.8,447.6,75.2C447.6,75.2,447.6,75.2,447.6,75.2z"/>
	<path class="st11" d="M388.2,117.6l54.3,10.4c2.9,0.6,4.8,3.3,4.2,6.2l-8.7,45.5c-0.6,2.9-3.3,4.8-6.2,4.2l-54.3-10.4
		c-2.9-0.6-4.8-3.3-4.2-6.2l8.7-45.5C382.5,118.9,385.3,117,388.2,117.6z"/>
	<path class="st10" d="M398.2,110.8l-0.7-5.3l0.9,0.2l0.5,4.1l2-3.6l0.8,0.2l-2.7,4.8l-0.5,2.8l-0.9-0.2L398.2,110.8z"/>
	<path class="st10" d="M401.8,108.2c0.1-1,1-1.8,2-1.7c1,0.1,1.8,1,1.7,2c0,0.1,0,0.3-0.1,0.4l-0.8,4c-0.1,1-1,1.8-2,1.7
		c-1-0.1-1.8-1-1.7-2c0-0.1,0-0.3,0.1-0.4L401.8,108.2z M401.8,112.5c-0.1,0.7,0.1,1.2,0.7,1.3s1-0.2,1.1-1l0.8-4.1
		c0.1-0.7-0.1-1.2-0.7-1.3s-1,0.2-1.1,1L401.8,112.5z"/>
	<path class="st10" d="M406.2,113.3c-0.1,0.7,0.1,1.2,0.7,1.3s1-0.3,1.1-1l1.1-6l0.8,0.2l-1.1,5.9c-0.2,1.2-0.9,1.9-2.1,1.6
		s-1.6-1.1-1.4-2.3l1.1-5.9l0.9,0.2L406.2,113.3z"/>
	<path class="st10" d="M412.6,108.3c0.9,0,1.5,0.8,1.5,1.7c0,0.2,0,0.3-0.1,0.5l-0.1,0.6c-0.2,0.9-0.6,1.3-1.3,1.4
		c0.6,0.4,0.9,1.1,0.7,1.8l-0.2,1.2c-0.1,0.3-0.1,0.7,0,1l-0.9-0.2c-0.1-0.3-0.1-0.7,0-1l0.2-1.2c0.2-0.9-0.2-1.2-0.9-1.4l-0.6-0.1
		l-0.6,3.3l-0.9-0.2l1.5-7.8L412.6,108.3z M411.7,112c0.7,0.1,1.1,0,1.3-0.9l0.1-0.8c0.1-0.7,0-1.1-0.7-1.2l-0.9-0.2l-0.5,2.9
		L411.7,112z"/>
	<path class="st10" d="M420.1,111.7l-0.1,0.7l-0.8-0.2l0.1-0.8c0.1-0.7-0.1-1.2-0.7-1.3s-1,0.2-1.1,1l-0.8,4.1
		c-0.1,0.7,0.1,1.2,0.7,1.3s1-0.2,1.1-1l0.2-1l0.8,0.2l-0.2,1c-0.2,1.2-0.9,1.9-2.1,1.6s-1.6-1.1-1.4-2.3l0.8-4
		c0.2-1.2,0.9-1.9,2.1-1.6c0.9,0.1,1.6,1,1.4,2C420.2,111.6,420.1,111.6,420.1,111.7z"/>
	<path class="st10" d="M420.9,111.8c0.1-1,1-1.7,2-1.6c1,0.1,1.7,1,1.6,2c0,0.1,0,0.2-0.1,0.3l-0.8,4c-0.1,1-1,1.7-2.1,1.6
		c-1-0.1-1.7-1-1.6-2.1c0-0.1,0-0.1,0-0.2L420.9,111.8z M420.9,116.1c-0.1,0.7,0.1,1.2,0.7,1.3s1-0.2,1.1-1l0.8-4.1
		c0.1-0.7-0.1-1.2-0.7-1.3s-1,0.2-1.1,1L420.9,116.1z"/>
	<path class="st10" d="M427.5,111.2c0.9,0.1,1.6,0.9,1.5,1.9c0,0.1,0,0.3-0.1,0.4l-0.8,4c-0.2,1.2-0.9,1.8-2.1,1.6l-1.8-0.3l1.5-7.8
		L427.5,111.2z M426.1,118.2c0.6,0.1,1-0.2,1.1-0.9l0.8-4c0.1-0.7-0.1-1.2-0.7-1.3l-0.9-0.2l-1.2,6.2L426.1,118.2z"/>
	<path class="st10" d="M432.2,115.7l-0.1,0.8l-1.9-0.4l-0.5,2.8l2.4,0.4l-0.1,0.8l-3.2-0.6l1.5-7.8l3.2,0.6l-0.2,0.8l-2.4-0.4
		l-0.5,2.7L432.2,115.7z"/>
	<path class="st12" d="M392.2,142.5c0.6-0.7,1.5-1,2.4-0.8c1.9,0.4,2.5,1.9,2.1,4l-0.5,2.9c-0.4,2.3-1.8,3.5-4,3.1s-3-2.1-2.6-4.4
		l0.2-1l1.5,0.3l-0.2,1.1c-0.2,1.3,0.1,2.2,1.3,2.5s1.9-0.5,2.1-1.8l0.5-2.9c0.3-1.3-0.1-2.2-1.3-2.5c-0.9-0.2-1.7,0.3-2,1.1
		c0,0,0,0.1,0,0.1l-0.1,0.3l-1.5-0.3l2-8.1l5.8,1.1l-0.3,1.5l-4.4-0.8L392.2,142.5z"/>
	<path class="st12" d="M405.8,142.6v0.3l-1.5-0.3l0.1-0.4c0.3-1.3-0.1-2.2-1.4-2.4s-2,0.5-2.2,2l-0.6,3.3c0.5-0.9,1.6-1.4,2.7-1.1
		c1.9,0.4,2.5,1.9,2.1,4l-0.4,2.2c-0.4,2.3-1.8,3.5-4.1,3.1s-3.1-2.1-2.7-4.4l1.4-7.5c0.4-2.3,1.8-3.6,4.1-3.1
		S406.3,140.3,405.8,142.6z M399.7,147.1l-0.4,2.2c-0.3,1.3,0.1,2.2,1.3,2.5s1.9-0.5,2.2-1.8l0.4-2.2c0.3-1.3-0.2-2.2-1.3-2.5
		S400,145.8,399.7,147.1L399.7,147.1z"/>
	<path class="st12" d="M414.1,144.1l0,0.3l-1.5-0.3l0.1-0.4c0.2-1.3-0.1-2.2-1.4-2.4s-2,0.5-2.2,2l-0.6,3.3c0.5-0.9,1.6-1.4,2.7-1.1
		c1.9,0.4,2.5,1.9,2.1,4l-0.4,2.2c-0.4,2.3-1.8,3.5-4.1,3.1s-3.1-2.1-2.7-4.4l1.4-7.4c0.5-2.3,1.8-3.6,4.1-3.1
		S414.5,141.9,414.1,144.1z M407.9,148.7l-0.4,2.2c-0.2,1.3,0.1,2.2,1.4,2.5s1.9-0.5,2.2-1.8l0.4-2.2c0.2-1.3-0.2-2.2-1.4-2.5
		S408.2,147.4,407.9,148.7z"/>
	<path class="st12" d="M422.3,145.7l-1.4,7.5c-0.5,2.3-1.8,3.6-4.1,3.2s-3.1-2.1-2.6-4.4l0.1-0.3l1.5,0.3l-0.1,0.4
		c-0.2,1.3,0.2,2.2,1.4,2.4s2-0.4,2.3-2l0.6-3.3c-0.5,0.9-1.6,1.4-2.7,1.1c-1.9-0.4-2.5-1.9-2.1-4l0.4-2.3c0.4-2.3,1.8-3.5,4.1-3.1
		S422.7,143.5,422.3,145.7z M417.1,144.7l-0.4,2.2c-0.2,1.3,0.2,2.2,1.4,2.5s1.9-0.5,2.1-1.8l0.4-2.2c0.3-1.4-0.1-2.2-1.4-2.5
		S417.4,143.3,417.1,144.7L417.1,144.7z"/>
	<path class="st12" d="M430.6,147.3l-0.1,0.5c-0.3,1.5-1,2.5-2.3,2.7c1.1,0.7,1.4,2,1.1,3.4l-0.2,1.1c-0.4,2.3-1.9,3.5-4.2,3
		s-3.2-2.1-2.8-4.4l0.2-1.1c0.3-1.5,1-2.5,2.3-2.8c-1.1-0.7-1.4-1.9-1.1-3.4l0.1-0.5c0.4-2.3,1.9-3.4,4.2-3S431.1,145,430.6,147.3z
		 M425.3,146.3l-0.1,0.7c-0.3,1.4,0.3,2.2,1.5,2.4s2-0.3,2.2-1.7l0.1-0.7c0.3-1.5-0.3-2.4-1.4-2.6S425.6,144.8,425.3,146.3
		L425.3,146.3z M424.1,152.6l-0.2,1.2c-0.3,1.5,0.2,2.4,1.4,2.6s2-0.4,2.3-1.9l0.2-1.2c0.3-1.4-0.2-2.2-1.5-2.5
		S424.4,151.2,424.1,152.6L424.1,152.6z"/>
	<line class="st13" x1="377.4" y1="186.5" x2="428.4" y2="196.2"/>
	<line class="st13" x1="375.5" y1="196.5" x2="426.5" y2="206.2"/>
	<line class="st13" x1="460.2" y1="149" x2="472.5" y2="147.1"/>
	<line class="st13" x1="458.3" y1="163.2" x2="464.9" y2="165.1"/>
	<line class="st13" x1="454.5" y1="175.6" x2="466.8" y2="184.1"/>
</g>
<g id="freepik--device-1--inject-54">
	<path class="st0" d="M341.8,172.7c1.3,0,2.4-1.1,2.4-2.4c0,0,0,0,0,0v-20c0-1.3-1.1-2.4-2.4-2.4l0,0h-0.1V140
		c0-5.3-4.3-9.6-9.7-9.6c0,0,0,0,0,0H121c-5.3,0-9.7,4.3-9.7,9.6v145.8c0,5.3,4.3,9.6,9.7,9.6h211c5.3,0,9.6-4.3,9.6-9.6v-52.3h0.1
		c1.3,0,2.4-1.1,2.4-2.4c0,0,0,0,0,0v-20c0-1.3-1.1-2.4-2.4-2.4l0,0h-0.1v-2.5h0.1c1.3,0,2.4-1.1,2.4-2.4c0,0,0,0,0,0v-20
		c0-1.3-1.1-2.4-2.4-2.4l0,0h-0.1v-8.6H341.8z"/>
	<rect x="120" y="136.8" class="st14" width="213.1" height="152.2"/>
	<rect x="167.3" y="156.4" class="st15" width="119.2" height="95.7"/>
	<path class="st16" d="M212.1,225.6v0.6h-1.5v2.1h1.8v0.6H210v-6h2.5v0.6h-1.8v2.1L212.1,225.6z"/>
	<path class="st16" d="M213.7,228.9h-0.6v-6h0.8l1.4,4.3v-4.3h0.6v6h-0.7l-1.5-4.8L213.7,228.9z"/>
	<path class="st16" d="M217.4,228.9v-5.4h-1.1v-0.6h2.9v0.6h-1.1v5.4H217.4z"/>
	<path class="st16" d="M221.8,225.6v0.6h-1.5v2.1h1.8v0.6h-2.5v-6h2.5v0.6h-1.8v2.1L221.8,225.6z"/>
	<path class="st16" d="M224.1,222.9c0.9,0,1.3,0.5,1.3,1.4v0.5c0,0.7-0.2,1.1-0.8,1.2c0.6,0.2,0.8,0.6,0.8,1.2v0.9
		c0,0.2,0,0.5,0.1,0.7h-0.7c-0.1-0.2-0.1-0.5-0.1-0.7v-0.9c0-0.7-0.3-0.9-0.9-0.9h-0.5v2.6h-0.7v-6L224.1,222.9z M223.9,225.8
		c0.5,0,0.9-0.2,0.9-0.8v-0.6c0-0.5-0.2-0.8-0.7-0.8h-0.6v2.2L223.9,225.8z"/>
	<path class="st16" d="M230.1,224.4v0.5h-0.6v-0.6c0-0.5-0.2-0.9-0.7-0.9s-0.7,0.3-0.7,0.9v3.2c0,0.5,0.2,0.9,0.7,0.9
		s0.7-0.3,0.7-0.9v-0.8h0.6v0.8c0,0.9-0.4,1.5-1.4,1.5s-1.3-0.6-1.3-1.5v-3.1c0-0.9,0.4-1.5,1.3-1.5S230.1,223.5,230.1,224.4z"/>
	<path class="st16" d="M230.6,224.4c0-0.9,0.4-1.5,1.4-1.5c0.7,0,1.3,0.5,1.4,1.2c0,0.1,0,0.2,0,0.3v3.1c0.1,0.7-0.4,1.4-1.1,1.5
		c-0.1,0-0.2,0-0.3,0c-0.9,0-1.4-0.6-1.4-1.5L230.6,224.4z M231.3,227.5c0,0.6,0.2,0.9,0.7,0.9s0.7-0.3,0.7-0.9v-3.2
		c0-0.5-0.2-0.9-0.7-0.9s-0.7,0.3-0.7,0.9V227.5z"/>
	<path class="st16" d="M235.4,222.9c0.9,0,1.4,0.6,1.4,1.5v3c0,0.9-0.4,1.5-1.4,1.5H234v-6L235.4,222.9z M235.4,228.3
		c0.5,0,0.7-0.3,0.7-0.9v-3.1c0-0.6-0.2-0.9-0.7-0.9h-0.7v4.8L235.4,228.3z"/>
	<path class="st16" d="M239.5,225.6v0.6H238v2.1h1.8v0.6h-2.5v-6h2.5v0.6H238v2.1L239.5,225.6z"/>
	<rect x="176.5" y="188" class="st17" width="100.6" height="11.4"/>
	<rect x="176.5" y="206" class="st17" width="100.6" height="11.4"/>
	<rect x="231.5" y="231.6" class="st17" width="9.5" height="11.4"/>
	<rect x="219.4" y="231.6" class="st17" width="9.5" height="11.4"/>
	<rect x="207.3" y="231.6" class="st17" width="9.5" height="11.4"/>
	<rect x="195.7" y="231.6" class="st17" width="9.1" height="11.4"/>
	<rect x="243.6" y="231.6" class="st17" width="9.8" height="11.4"/>
	<path class="st0" d="M229.7,168.1v-1.8c-0.1-3-2.6-5.3-5.6-5.2c-2.8,0.1-5.1,2.4-5.2,5.2v1.8h-0.1v10.1h11v-10.1H229.7z
		 M224.6,173.6v1.8h-1.1v-1.8c-0.7-0.3-1.1-1.1-0.8-1.8c0.3-0.7,1.1-1.1,1.8-0.8s1.1,1.1,0.8,1.8
		C225.2,173.2,224.9,173.5,224.6,173.6L224.6,173.6z M227.6,168.1h-6.7v-1.8c0.2-1.8,1.9-3.2,3.7-3c1.6,0.2,2.8,1.4,3,3V168.1z"/>
	<path class="st16" d="M211.2,195.1c0,0.5,0.2,0.9,0.7,0.9s0.7-0.3,0.7-0.9v-4.6h0.6v4.5c0,0.9-0.4,1.5-1.4,1.5s-1.3-0.6-1.3-1.5
		v-4.5h0.7V195.1z"/>
	<path class="st16" d="M216.5,191.9v0.2h-0.6v-0.2c0-0.5-0.2-0.9-0.7-0.9s-0.7,0.3-0.7,0.9c0,1.3,2,1.5,2,3.1c0,0.9-0.4,1.5-1.4,1.5
		s-1.3-0.6-1.3-1.5v-0.3h0.6v0.4c0,0.5,0.2,0.9,0.7,0.9s0.7-0.3,0.7-0.9c0-1.3-2-1.5-2-3.1c0-0.9,0.4-1.5,1.3-1.5
		S216.5,191,216.5,191.9z"/>
	<path class="st16" d="M219.2,193.1v0.6h-1.5v2.1h1.8v0.6h-2.5v-6h2.5v0.6h-1.8v2L219.2,193.1z"/>
	<path class="st16" d="M221.5,190.5c0.9,0,1.3,0.5,1.3,1.4v0.5c0,0.7-0.2,1.1-0.7,1.2c0.6,0.2,0.8,0.6,0.8,1.2v0.9
		c0,0.2,0,0.5,0.1,0.7h-0.7c-0.1-0.2-0.1-0.5-0.1-0.7v-0.9c0-0.7-0.3-0.9-0.9-0.9h-0.5v2.6h-0.7v-6L221.5,190.5z M221.3,193.3
		c0.5,0,0.8-0.2,0.8-0.8v-0.6c0-0.5-0.2-0.8-0.7-0.8h-0.6v2.2L221.3,193.3z"/>
	<path class="st16" d="M225.4,196.5h-0.6v-6h0.9l1.4,4.3v-4.3h0.6v6H227l-1.5-4.8L225.4,196.5z"/>
	<path class="st16" d="M229,195.3l-0.2,1.2h-0.6l1.1-6h1l1.1,6h-0.7l-0.2-1.2H229z M229.1,194.7h1.3l-0.7-3.5L229.1,194.7z"/>
	<path class="st16" d="M234.1,196.5h-0.6l-1-4.8v4.8h-0.6v-6h0.9l1,4.8l0.9-4.8h0.9v6h-0.6v-4.8L234.1,196.5z"/>
	<path class="st16" d="M238.5,193.1v0.6h-1.5v2.1h1.8v0.6h-2.5v-6h2.5v0.6h-1.8v2L238.5,193.1z"/>
	<path class="st16" d="M212.1,211.1l0.9,1l-0.4,0.3l-0.7-1.2l-0.7,1.2l-0.4-0.3l0.9-1l-1.3-0.3l0.2-0.5l1.2,0.6l-0.1-1.4h0.5
		l-0.1,1.4l1.2-0.5l0.2,0.5L212.1,211.1z"/>
	<path class="st16" d="M215.5,211.1l0.9,1l-0.4,0.3l-0.7-1.2l-0.7,1.2l-0.4-0.3l0.9-1l-1.3-0.3l0.2-0.5l1.2,0.6l-0.2-1.4h0.6
		l-0.1,1.4l1.2-0.5l0.2,0.5L215.5,211.1z"/>
	<path class="st16" d="M218.9,211.1l0.9,1l-0.4,0.3l-0.7-1.2l-0.7,1.2l-0.4-0.3l0.9-1l-1.3-0.3l0.2-0.5l1.2,0.6l-0.1-1.4h0.6
		l-0.1,1.4l1.2-0.5l0.2,0.5L218.9,211.1z"/>
	<path class="st16" d="M222.2,211.1l0.9,1l-0.4,0.3l-0.7-1.2l-0.7,1.2l-0.4-0.3l0.9-1l-1.3-0.3l0.2-0.5l1.2,0.6l-0.1-1.4h0.5
		l-0.1,1.4l1.2-0.5l0.2,0.5L222.2,211.1z"/>
	<path class="st16" d="M225.6,211.1l0.9,1l-0.4,0.3l-0.7-1.2l-0.7,1.2l-0.4-0.3l0.9-1l-1.3-0.3l0.2-0.5l1.2,0.6l-0.2-1.4h0.6
		l-0.1,1.4l1.2-0.5l0.2,0.5L225.6,211.1z"/>
	<path class="st16" d="M229,211.1l0.9,1l-0.4,0.3l-0.7-1.2l-0.7,1.2l-0.4-0.3l0.9-1l-1.3-0.3l0.2-0.5l1.2,0.6l-0.2-1.4h0.6l-0.1,1.4
		l1.2-0.5l0.2,0.5L229,211.1z"/>
	<path class="st16" d="M232.4,211.1l0.9,1l-0.4,0.3l-0.7-1.2l-0.7,1.2l-0.4-0.3l0.9-1l-1.3-0.3l0.2-0.5l1.2,0.6l-0.1-1.4h0.6
		l-0.1,1.4l1.2-0.5l0.2,0.5L232.4,211.1z"/>
	<path class="st16" d="M235.8,211.1l0.9,1l-0.4,0.3l-0.7-1.2l-0.7,1.2l-0.4-0.3l0.9-1l-1.3-0.3l0.2-0.5l1.2,0.6l-0.1-1.4h0.5
		l-0.1,1.4l1.2-0.5l0.2,0.5L235.8,211.1z"/>
</g>
<g id="freepik--Mug--inject-54">
	<ellipse class="st10" cx="237" cy="423.6" rx="64" ry="60.1"/>
	<ellipse class="st18" cx="235.6" cy="420.5" rx="64" ry="60.1"/>
	<ellipse class="st12" cx="235.6" cy="420.5" rx="55.2" ry="51.9"/>
	<path class="st10" d="M250.9,385.5c-22.2,0-40.1,22.6-40.1,50.4c0,18,7.5,33.7,18.7,42.6c1.9,0.2,3.7,0.2,5.6,0.2
		c23.3,0,43.6-11.9,54.5-29.6c0.9-4.4,1.4-8.8,1.4-13.2C291,408.1,273.1,385.5,250.9,385.5z"/>
	<rect x="185.1" y="413.2" class="st19" width="26.1" height="6.2"/>
	<ellipse class="st19" cx="244.8" cy="416" rx="39.9" ry="37.5"/>
	<ellipse class="st20" cx="244.8" cy="416" rx="33.3" ry="31.3"/>
	<path class="st13" d="M230.9,387.3c-0.2-0.5-0.5-1-0.7-1.5c-3.4-5.9-3-13.4-0.4-20.4"/>
	<path class="st21" d="M231.4,399.8c0,0,1.8-6.8-0.5-12.4"/>
	<path class="st13" d="M243.3,385.8c-3.4-5.9-3-13.4-0.4-20.4"/>
	<path class="st21" d="M244.6,399.8c0,0,2.1-8-1.3-14"/>
	<path class="st13" d="M256.9,386.6c-0.1-0.3-0.3-0.5-0.4-0.8c-3.4-5.9-3-13.4-0.4-20.4"/>
	<path class="st21" d="M257.7,399.8c0,0,1.9-7.4-0.9-13.2"/>
</g>
<g id="freepik--right-hand--inject-54">
	<path class="st20" d="M384.1,360.2c0,0-1,0.1-2.9,0.3c-1.8-6-7.1-23.7-10.5-32.9c-4.2-11.1-10-26.9-13.8-33.4s-3.5-10.4-10.8-16.5
		s-13.8-3.5-13.8-3.5s-1.1-4.6-8.5-6.9s-17.3,2.3-17.3,2.3s-1.5-2.7-8.8-1.9c-4.4,0.5-8.2,3.3-10,7.3c0,0-15-30-20.7-32.3
		s-11.5,3.5-9.2,8.8s19.6,35.3,21.9,42.2s7.3,18.4,7.3,18.4s-16.5-11.9-21.5-13.1s-12.3-1.9-16.5,2.7s5.8,5.8,13.8,13.1
		s21.1,24.2,27.3,35s19.2,12.7,25,18.8c4,4.3,9.8,10.4,12.9,13.6c-1,1-2,2.2-2.9,3.3l12.7,31.1c0,0,2.7-4.2,13.5-12.7
		s44.2-18.8,44.2-18.8L384.1,360.2z"/>
	<path class="st19" d="M329.5,376.4c0,0-9.2-9.6-15-15.7s-18.8-8.1-25-18.8s-19.2-27.6-27.3-35s-18.1-8.5-13.8-13.1
		s11.6-3.8,16.6-2.7s21.5,13.1,21.5,13.1s-5-11.5-7.3-18.4s-19.6-36.9-21.9-42.3s3.5-11.1,9.2-8.8s20.8,32.3,20.8,32.3
		c1.8-4,5.6-6.8,10-7.3c7.3-0.8,8.8,1.9,8.8,1.9s10-4.6,17.3-2.3s8.5,6.9,8.5,6.9s6.5-2.7,13.8,3.5s6.9,10,10.8,16.5
		s9.6,22.3,13.8,33.4s11.1,35,11.1,35l-49.6,26.9L329.5,376.4z"/>
	<line class="st13" x1="287.3" y1="266.9" x2="300.7" y2="286.9"/>
	<line class="st13" x1="306.1" y1="261.6" x2="318.4" y2="280.8"/>
	<line class="st13" x1="331.8" y1="266.2" x2="340.3" y2="281.1"/>
	<line class="st13" x1="292.4" y1="321.4" x2="294.2" y2="326.5"/>
	<line class="st13" x1="286.5" y1="304.2" x2="291.2" y2="317.8"/>
	<line class="st13" x1="308" y1="291.5" x2="311.1" y2="295.7"/>
	<line class="st13" x1="322.2" y1="287.3" x2="325.7" y2="291.9"/>
	<line class="st13" x1="341" y1="285" x2="343.3" y2="292.3"/>
	<path class="st19" d="M324.5,377.6c0,0,8.8-12.3,26.9-18.4c10.4-3.6,21.3-6,32.3-6.9l11.1,25c0,0-33.4,10.3-44.2,18.8
		s-13.4,12.7-13.4,12.7L324.5,377.6z"/>
	<path class="st19" d="M354.9,460.5c0,0-14.6-36.5-18.4-44.2s2.3-11.5,2.3-11.5s8.8-11.9,31.9-21.1s25-9.6,30.7-3.1s43.6,80,43.6,80
		"/>
</g>
<g id="freepik--left-hand--inject-54">
	<path class="st20" d="M115.1,422.1c4-7.5,10.1-13.6,17.7-17.5c12.4-6.3,20.5-9.1,32.4-20.8s31.5-22.2,39.6-23.7s10.8-4.9,7.3-8.9
		s-13-4.2-21.4-1.3s-16.3,6.4-16.3,6.4c4.3-8.4,7.1-18.6,11.4-27.1c3-6,7.9-15.9,10.8-22c1.9-4,7.6-10.5,5-14.9s-8.6-1.5-11.7,2.7
		c-4.9,6.6-28.8,42.5-28.8,42.5l13.6-28.8c6.9-14.6,10.2-21.5,9.2-19.5c2-4.3,5.9-10,3.5-14.9c-1.7-3.5-5.9-5-9.4-3.3
		c-1.2,0.6-2.2,1.5-2.9,2.6c-3.3,5.4-28.7,53.4-28.7,53.4s15.9-41.2,17.9-45.9c2.5-5.8,1-10.8-2.6-10.8c-5.3,0-7.8,5.9-9.9,9.9
		l1.2-1.7c-5,6.6-8.3,15.3-12.5,22.5c-4.8,8.4-9.8,16.7-15,24.9c1-8.5,4.4-16.5,8.7-23.8c2.6-4.4,13.2-15.4,11.3-20.7
		c-1.6-4.6-13.2,4.1-20,13.5c-3.7,5.2-13.3,19.2-16,29.1s-21.3,43.6-26.2,53s-10.9,26-10.9,26L115.1,422.1z"/>
	<path class="st20" d="M129.3,413.1c0,0-9.6-11.7-28-16.7c-10.6-3-21.6-4.6-32.6-4.9L59.1,417c0,0,34,8.3,45.2,16.1
		s14.2,11.8,14.2,11.8L129.3,413.1z"/>
	<path class="st19" d="M113.8,417.7c4-7.5,10.1-13.6,17.7-17.5c12.4-6.4,20.5-9.1,32.4-20.8s31.5-22.2,39.6-23.7s10.8-4.9,7.3-8.9
		s-13-4.2-21.4-1.3s-16.3,6.4-16.3,6.4c4.3-8.4,7.1-18.6,11.4-27.1c3-6,7.9-15.9,10.8-22c1.9-4,7.6-10.5,5-14.8s-8.6-1.5-11.6,2.7
		c-4.9,6.6-28.8,42.5-28.8,42.5c4.5-9.6,9.1-19.2,13.6-28.8c6.9-14.6,10.2-21.5,9.2-19.5c2-4.2,5.9-10,3.5-14.9
		c-1.7-3.5-5.9-5-9.4-3.3c-1.2,0.6-2.2,1.5-2.9,2.6c-3.3,5.4-28.7,53.4-28.7,53.4s15.9-41.2,17.9-45.9c2.5-5.8,1-10.8-2.6-10.8
		c-5.3,0-7.8,5.9-9.9,9.9l1.2-1.7c-5,6.6-8.3,15.3-12.5,22.5c-4.9,8.4-9.9,16.7-15.1,24.9c1-8.5,4.4-16.4,8.6-23.8
		c2.6-4.4,13.2-15.4,11.4-20.7c-1.6-4.6-13.2,4.1-20,13.5c-3.7,5.2-13.3,19.2-16,29.1s-21.3,43.6-26.2,53s-10.9,26-10.9,26
		L113.8,417.7z"/>
	<line class="st13" x1="145.2" y1="322.6" x2="140.6" y2="331.9"/>
	<line class="st13" x1="159.9" y1="333.1" x2="156.3" y2="337.8"/>
	<line class="st13" x1="173" y1="351.8" x2="168.4" y2="358.5"/>
	<line class="st13" x1="149.2" y1="347.4" x2="148.9" y2="351.4"/>
	<line class="st13" x1="137.8" y1="340.1" x2="137.8" y2="344"/>
	<line class="st13" x1="120.9" y1="332.1" x2="121.8" y2="338.7"/>
	<path class="st19" d="M128,408.6c0,0-9.6-11.7-28-16.7c-10.6-3-21.6-4.6-32.6-4.9l-9.6,25.6c0,0,34,8.3,45.2,16.1
		s14.2,11.8,14.2,11.8L128,408.6z"/>
	<path class="st19" d="M112.8,464c0,0,2.4-8,5.8-15.9s-3-11.4-3-11.4s-9.6-11.3-33.1-19.1s-25.5-8-30.9-1.2S29,464.6,29,464.6"/>
</g>
</svg>
