<?xml version="1.0" encoding="UTF-8"?><svg id="Layer_2" xmlns="http://www.w3.org/2000/svg" viewBox="0 0 482.62 307.78"><defs><style>.cls-1{fill:none;stroke:#263238;stroke-miterlimit:10;stroke-width:.94px;}.cls-1,.cls-2,.cls-3,.cls-4,.cls-5,.cls-6{isolation:isolate;}.cls-1,.cls-3,.cls-6{opacity:.4;}.cls-7{fill:#fff;}.cls-8{fill:#ba4d3c;}.cls-2,.cls-4,.cls-5{opacity:.2;}.cls-2,.cls-9,.cls-6{fill:#cbdad5;}.cls-3,.cls-4,.cls-10{fill:#007172;}.cls-11{fill:#ce7a63;}.cls-12{fill:#fdfcdc;}.cls-13{fill:#d94f04;}.cls-14{fill:#ebebeb;}.cls-15{fill:#ffe1dd;}.cls-16{fill:#263238;}</style></defs><g id="Layer_1-2"><g><rect class="cls-14" y="307.53" width="43.19" height=".25"/><g><path class="cls-9" d="M15.38,157.75L2.14,115.75c-.48-1.59,.43-3.26,2.01-3.74,.06-.02,.11-.03,.17-.04l1.69-.37c5.18-1.23,10.15-3.25,14.71-6,4.58-2.86,8.52-6.64,11.56-11.1,.89-1.3,2.64-1.69,4-.89,4.67,2.72,9.84,4.46,15.21,5.09,5.3,.54,10.66,.26,15.87-.84l1.7-.38c1.58-.36,3.16,.63,3.52,2.21,.02,.09,.04,.18,.05,.27l6,43.66c.13,.91-.18,1.83-.83,2.48l-24.63,24.79c-.81,.81-2.02,1.08-3.1,.7l-32.88-11.91c-.87-.33-1.54-1.04-1.81-1.93Z"/><path class="cls-12" d="M43.09,120.53l-.45,11.6,6.1,21.56-8.64-21.7-1.1-10.24-5.75-6.23,1.59-20.55c.05-.73,.69-1.28,1.42-1.23,.2,.01,.4,.08,.58,.18,1.4,.8,2.86,1.5,4.35,2.11,.44,.19,.69,.67,.58,1.14l-3.94,15.68,5.26,7.68Z"/></g><g><path class="cls-15" d="M216.54,40.43l-55.48,18c-2.28,.74-3.53,3.19-2.8,5.48l12.37,38.16c.74,2.28,3.19,3.54,5.48,2.8l55.48-18c2.28-.74,3.53-3.19,2.8-5.48l-12.37-38.16c-.74-2.28-3.19-3.54-5.48-2.8Z"/><path class="cls-12" d="M199.33,71.09l6.16,13.74-9.43,3.06-3.08-14.74c-4.01-.64-6.74-4.4-6.1-8.41,.64-4.01,4.4-6.74,8.41-6.1s6.74,4.4,6.1,8.41c-.24,1.53-.97,2.95-2.06,4.04h0Z"/><path class="cls-9" d="M150.21,11.76c-8.57,12.06-5.59,28.88,5.88,38.23l2.73,2.23c1.66,1.35,4.09,1.1,5.44-.56s1.1-4.09-.56-5.44l-3.49-2.86c-8.6-7.03-9.87-19.71-2.84-28.31,.55-.67,1.15-1.31,1.78-1.91,7.41-7,19.1-6.93,27-.48l4.34-6.42c-11.93-9.7-29.47-7.88-39.16,4.05-.39,.48-.76,.97-1.12,1.47Z"/></g><rect class="cls-14" x="393.67" y="298.63" width="8.69" height=".25"/><rect class="cls-14" x="287.19" y="302.73" width="45.72" height=".25"/><g id="freepik--Character--inject-35"><path class="cls-13" d="M381.08,197.38c-3.62,5.17-13.88,17.51-22.9,20.84-14.22,28.21,5.42,68.56,24.42,81.73,0,0,53.1-27.56,61.56-95l-63.08-7.57Z"/><path class="cls-16" d="M448.81,34.36c-10.78-2-35.77-3.07-37.64,26-1.87,29.07-11.3,48.21,12.65,53.32l1.68-7.9,23.31-71.42Z"/><path class="cls-2" d="M448.81,34.36c-10.78-2-35.77-3.07-37.64,26-1.87,29.07-11.3,48.21,12.65,53.32l1.68-7.9,23.31-71.42Z"/><path class="cls-16" d="M408.22,105.16c-5.57-2.43-12.05,.11-14.48,5.68l-.05,.12-4.73,10.83c-1.58,3.63-3.21,7.23-4.83,10.79-.81,1.78-1.64,3.54-2.5,5.26s-1.67,3.46-2.54,5.11-1.77,3.25-2.64,4.76c-.36,.6-.72,1.18-1.07,1.73l-1.7,.25c-2.01,.22-4.03,.34-6.05,.34-2.11,0-4.27-.08-6.47-.2s-4.42-.36-6.66-.59c-4.48-.47-9-1.13-13.58-1.88-2.27-.37-4.56-.75-6.84-1.18l-6.79-1.23h-.19c-2.98-.53-5.84,1.45-6.37,4.44-.43,2.39,.77,4.78,2.94,5.87,4.44,2.16,8.98,4.1,13.61,5.8,2.31,.84,4.63,1.67,7,2.41s4.75,1.44,7.17,2.09c4.95,1.33,9.99,2.3,15.08,2.91,2.72,.3,5.45,.46,8.18,.45,3.03-.01,6.04-.35,9-1,1.66-.37,3.17-1.21,4.36-2.43l.46-.47c1.76-1.84,3.4-3.8,4.9-5.86,1.4-1.88,2.61-3.78,3.79-5.65,2.37-3.74,4.46-7.48,6.43-11.25,1-1.88,1.95-3.77,2.86-5.67s1.84-3.8,2.69-5.72,1.72-3.82,2.52-5.77,1.58-3.84,2.36-5.92c2.11-5.49-.47-11.66-5.86-14.02Z"/><path class="cls-4" d="M408.22,105.16c-5.57-2.43-12.05,.11-14.48,5.68l-.05,.12-4.73,10.83c-1.58,3.63-3.21,7.23-4.83,10.79-.81,1.78-1.64,3.54-2.5,5.26s-1.67,3.46-2.54,5.11-1.77,3.25-2.64,4.76c-.36,.6-.72,1.18-1.07,1.73l-1.7,.25c-2.01,.22-4.03,.34-6.05,.34-2.11,0-4.27-.08-6.47-.2s-4.42-.36-6.66-.59c-4.48-.47-9-1.13-13.58-1.88-2.27-.37-4.56-.75-6.84-1.18l-6.79-1.23h-.19c-2.98-.53-5.84,1.45-6.37,4.44-.43,2.39,.77,4.78,2.94,5.87,4.44,2.16,8.98,4.1,13.61,5.8,2.31,.84,4.63,1.67,7,2.41s4.75,1.44,7.17,2.09c4.95,1.33,9.99,2.3,15.08,2.91,2.72,.3,5.45,.46,8.18,.45,3.03-.01,6.04-.35,9-1,1.66-.37,3.17-1.21,4.36-2.43l.46-.47c1.76-1.84,3.4-3.8,4.9-5.86,1.4-1.88,2.61-3.78,3.79-5.65,2.37-3.74,4.46-7.48,6.43-11.25,1-1.88,1.95-3.77,2.86-5.67s1.84-3.8,2.69-5.72,1.72-3.82,2.52-5.77,1.58-3.84,2.36-5.92c2.11-5.49-.47-11.66-5.86-14.02Z"/><path class="cls-11" d="M325.33,144.32l-8.22-2.44-.07,14.27s5.25,.89,9-.47c2.27-.89,3.59-3.26,3.17-5.66l-.22-1.46c-.3-2-1.73-3.65-3.66-4.24Z"/><path class="cls-11" d="M306.2,147.68l.82,5c.32,1.99,2.04,3.46,4.06,3.46h6l.07-14.27-7.42,1c-2.26,.29-3.85,2.36-3.56,4.61,0,.07,.02,.13,.03,.2Z"/><path class="cls-16" d="M451.6,101.75c-15.03-2.2-30.25-2.73-45.39-1.57-7.12,.61-12.7,6.38-13.06,13.52-1.22,30.08-5.81,59.94-13.68,89,6.39,7.29,28.31,20.73,63.94,12.19,11.54-19.49,19.59-48.73,27.29-85.89,2.69-12.18-5.01-24.23-17.19-26.91-.63-.14-1.27-.25-1.91-.34Z"/><path class="cls-6" d="M450.05,101.87c-15.03-2.2-30.25-2.73-45.39-1.57-7.12,.61-12.7,6.38-13.06,13.52-1.22,30.08-5.81,59.94-13.68,89,6.39,7.29,28.31,20.73,63.94,12.19,11.54-19.49,19.59-48.73,27.29-85.89,2.69-12.18-5.01-24.23-17.19-26.91-.63-.14-1.27-.25-1.91-.34Z"/><path class="cls-1" d="M420.43,108.33c-6.95,19.5-6.4,32.24-8,46.07s-8.76,45.63-16.68,54.73"/><path class="cls-16" d="M209.26,66.38c10.24,4.47,20.39,9.1,30.46,13.91s20.09,9.69,30.08,14.66c19.94,10,39.65,20.48,59.12,31.44,19.47,10.96,38.58,22.54,57.33,34.75,18.67,12.32,36.89,25.37,54.41,39.41,1.5,1.21,1.75,3.41,.54,4.91s-3.41,1.75-4.91,.54h-.06c-17-14.15-34.83-27.42-53.14-40-18.43-12.41-37.23-24.29-56.39-35.62-19.16-11.33-38.63-22.17-58.4-32.5-9.86-5.18-19.78-10.24-29.75-15.19-9.97-4.95-20.01-9.76-30.11-14.43h0c-.52-.23-.75-.84-.51-1.35s.84-.75,1.35-.51h-.02Z"/><path class="cls-16" d="M411.9,188.86c-15.79-11.73-31.99-22.88-48.6-33.46-8.28-5.33-16.63-10.53-25.05-15.59-8.42-5.06-16.9-10.06-25.43-15-17.07-9.79-34.33-19.21-51.8-28.28-17.46-9.06-35.06-17.86-52.91-26.12h.15c-5.95-.57-11.95-.61-17.91-.11-5.96,.46-11.88,1.39-17.7,2.78-2.9,.7-5.75,1.57-8.55,2.61-2.79,1-5.44,2.34-7.89,4-1.2,.82-2.25,1.84-3.12,3-.86,1.1-1.31,2.46-1.27,3.86,.13,1.4,.67,2.74,1.55,3.84,.89,1.15,1.92,2.18,3.07,3.08,2.36,1.8,4.89,3.36,7.57,4.64,2.65,1.33,5.48,2.41,8.14,3.9,2.74,1.4,5.21,3.28,7.29,5.55,1.04,1.2,1.82,2.6,2.29,4.11,.41,1.54,.46,3.17,.12,4.73-.8,2.99-2.2,5.78-4.12,8.2-1.79,2.46-3.76,4.74-5.66,7.05-1.94,2.26-3.73,4.65-5.38,7.13-1.66,2.44-2.72,5.24-3.09,8.17-.22,2.88,.65,5.73,2.44,8,1.8,2.32,3.98,4.32,6.44,5.92,4.85,3.35,10.9,4.49,16.79,4.35,5.95-.23,11.84-1.24,17.53-3,5.71-1.74,11.32-3.81,16.8-6.2,11-4.67,21.7-10.18,32.52-15.43,5.39-2.72,10.93-5.12,16.6-7.19,1.44-.5,2.92-.92,4.41-1.25,1.53-.36,3.1-.51,4.67-.45,.83,.04,1.65,.23,2.42,.55,.82,.34,1.53,.89,2.06,1.6,.92,1.39,1.36,3.04,1.28,4.71,0,.41-.32,.74-.73,.75h0c-.4,0-.73-.33-.74-.73h0c.08-1.35-.27-2.69-1-3.83-.85-1-2.1-1.58-3.41-1.58-1.44-.06-2.87,.08-4.27,.41-1.44,.32-2.86,.72-4.25,1.2-5.61,2.05-11.11,4.41-16.45,7.09-10.8,5.22-21.5,10.73-32.61,15.4-5.54,2.38-11.22,4.44-17,6.17-5.8,1.79-11.81,2.82-17.88,3.05-3.06,.08-6.12-.23-9.1-.92-3.01-.7-5.86-1.95-8.41-3.68-2.57-1.69-4.85-3.79-6.74-6.22-.93-1.26-1.66-2.67-2.15-4.16-.47-1.51-.64-3.1-.5-4.68,.42-3.08,1.56-6.03,3.33-8.59,1.67-2.52,3.5-4.94,5.47-7.23,1.92-2.32,3.88-4.59,5.63-7,1.84-2.29,3.21-4.92,4-7.75,.3-1.38,.27-2.82-.09-4.19-.43-1.36-1.13-2.62-2.07-3.7-1.99-2.18-4.37-3.98-7-5.31-2.58-1.45-5.38-2.53-8.09-3.9-2.74-1.32-5.34-2.91-7.75-4.77-1.22-.96-2.32-2.06-3.26-3.29-1-1.26-1.61-2.79-1.74-4.4-.05-1.63,.47-3.24,1.47-4.53,.95-1.25,2.09-2.33,3.38-3.22,2.53-1.71,5.26-3.09,8.13-4.12,2.83-1.05,5.73-1.93,8.67-2.63,5.87-1.4,11.84-2.32,17.86-2.77,6.02-.5,12.06-.45,18.07,.14,.05,0,.1,0,.15,0,17.85,8.31,35.44,17.15,52.89,26.25s34.71,18.57,51.76,28.4c8.54,4.91,17.01,9.91,25.42,15,8.41,5.09,16.76,10.33,25.05,15.73,16.55,10.67,32.74,21.86,48.56,33.59,.09,.07,.11,.21,.04,.3-.07,.09-.21,.11-.3,.04h0v-.02Z"/><path class="cls-16" d="M223.95,75.27l-1.1,2c-.35,.61-1.12,.83-1.73,.49h0c-.61-.35-.83-1.12-.49-1.73l1.11-2c.35-.61,1.12-.83,1.73-.49h0c.61,.34,.83,1.11,.49,1.71v.02Z"/><path class="cls-16" d="M282.17,105.14l-1.11,2c-.34,.61-1.11,.83-1.71,.49h-.02c-.61-.35-.83-1.11-.49-1.72v-.02l1.11-2c.34-.61,1.11-.83,1.71-.49h.02c.61,.35,.83,1.13,.49,1.74Z"/><path class="cls-16" d="M342.83,139.12l-1.11,2c-.35,.61-1.12,.83-1.73,.49h0c-.61-.35-.83-1.12-.49-1.73l1.11-2c.35-.61,1.12-.83,1.73-.49h0c.61,.35,.83,1.12,.49,1.73Z"/><path class="cls-16" d="M400.95,177.63l-1.11,2c-.35,.61-1.12,.83-1.73,.49h0c-.61-.35-.83-1.12-.49-1.73l1.11-2c.35-.61,1.12-.83,1.73-.49h0c.61,.35,.83,1.12,.49,1.73Z"/><path class="cls-16" d="M431.48,188.72l-8.41,15c-.42,.76-1.37,1.03-2.13,.61-.05-.03-.09-.05-.14-.08l-21.56-15c-.67-.46-.87-1.36-.47-2.06l8.41-15c.42-.76,1.37-1.03,2.13-.61,.05,.03,.09,.05,.14,.08l21.56,15c.67,.46,.87,1.36,.47,2.06Z"/><path class="cls-16" d="M411.6,204.81c-1.79,0-3.53-.54-5-1.56l-1.49-1c-3.7-2.55-4.84-7.51-2.63-11.43l1.81-3.22c.36-.64,.97-1.1,1.68-1.27,.71-.16,1.46-.01,2.06,.4l11.61,8.07c1.1,.76,1.44,2.24,.78,3.4l-1.23,2.19c-1.2,2.14-3.25,3.68-5.65,4.24-.64,.13-1.29,.19-1.94,.18Zm-4.74-14.68l-1.26,2.36c-1.34,2.35-.65,5.33,1.58,6.85l1.48,1c1.21,.85,2.73,1.14,4.17,.8,1.44-.32,2.67-1.25,3.38-2.54l.83-1.48-10.18-6.99Z"/><path class="cls-16" d="M430.31,183.5l-2.15,3.84c-.18,.33-.6,.45-.94,.27-.02-.01-.04-.02-.06-.04l-14.35-10c-.35-.25-.46-.73-.25-1.11l2.15-3.84c.18-.33,.6-.45,.94-.27,.02,.01,.04,.02,.06,.04l14.35,10c.35,.25,.46,.73,.25,1.11Z"/><path class="cls-11" d="M443.72,72.36l-18.2,12.74c1.45,6.45,1.5,13.2-7.42,15.19,.74,3,3.11,4.91,7.4,5.46,5.63,1.1,9.92,1.6,14.61-1.7,1.84-1.29,4.06-2.49,3.07-4.64-3.37-7.31-1.31-19.8,.54-27.05Z"/><path class="cls-5" d="M436.3,77.56l-10.77,7.53c.38,1.57,.61,3.18,.69,4.8,3.9,.78,9.74-2.91,10.31-6.7,.24-1.88,.17-3.78-.23-5.63Z"/><path class="cls-11" d="M449.41,61.29c-2.71,11.34-3.73,18.12-10.55,22.93-10.26,7.25-23.49-.61-24.22-12.56-.66-10.76,3.89-27.49,15.91-30,8.69-1.81,17.2,3.77,19,12.46,.49,2.37,.44,4.82-.14,7.17Z"/><path class="cls-7" d="M416.93,69.89s4.59-.46,17.17,.84c-1.89,3.21-5,5.67-11.4,4.95s-5.77-5.79-5.77-5.79Z"/><path class="cls-16" d="M447.71,39.67c-11.42-7-26.69-3.32-29.36,4.28,1.62-1,3.53-1.41,5.42-1.18-2.3,1.14-5.42,3.93-4.27,7.56,2.77-3.25,5.67-3.34,5.67-3.34,0,0,2.12,4,8.94,4.89-.32-1.19-.59-2.39-.79-3.61,2.08,4.05,5.94,6.9,10.43,7.68-2,2.18-2.61,10.09,2.31,13.19,7-.45,12.79-2.79,12.4-7.09,.5,1.06,.94,2.14,1.31,3.25,0,0,4.44-5.92-.82-12.67,2.52-3.2-2.84-7.8-11.24-12.96Z"/><path class="cls-10" d="M416.6,54.15s-2.41,4.85-2,8.48c2.69,0,9.11-1,9.11-1,2.31,2.02,5.01,3.54,7.94,4.45,4.28,1.11,18.21,.18,18.21,.18l.58-4s-18.7-6.13-25.92-7.4-7.92-.71-7.92-.71Z"/><path class="cls-11" d="M452.87,73.52c-1.82,2.29-4.47,3.77-7.38,4.1-3.86,.41-5.18-3.21-3.6-6.52,1.43-3,5.16-6.79,8.8-5.66,3.64,1.13,4.37,5.25,2.18,8.08Z"/><path class="cls-7" d="M431.77,60.4c-.17,.93-.79,1.6-1.4,1.49s-1-1-.81-1.9,.79-1.6,1.4-1.48,.97,.96,.81,1.89Z"/><path class="cls-7" d="M420.6,58.23c-.16,.93-.79,1.6-1.4,1.49s-1-1-.81-1.9,.79-1.6,1.4-1.48,.96,.96,.81,1.89Z"/><path class="cls-8" d="M424.7,58.23s-3.07,5-5.86,7.16c1.38,1.85,4.31,1.66,4.31,1.66l1.55-8.82Z"/><path class="cls-16" d="M430.68,53c-.07,.06-.13,.14-.17,.23-.11,.29,.03,.61,.32,.72,1.66,.69,3.56,.54,5.09-.4,.25-.18,.31-.52,.13-.77h0c-.18-.25-.53-.31-.78-.13h0c-1.22,.71-2.7,.81-4,.27-.2-.09-.42-.06-.59,.08Z"/><path class="cls-16" d="M420.42,52.25c-.04-.18-.17-.34-.34-.41-1.33-.49-2.34-1.58-2.72-2.94-.06-.3-.35-.5-.65-.44-.3,.07-.5,.36-.44,.66,.44,1.73,1.71,3.14,3.39,3.76,.29,.12,.61-.02,.73-.31h0c.04-.1,.05-.21,.03-.32Z"/><path class="cls-16" d="M468.1,112.4c1,2,1.83,3.86,2.66,5.81s1.64,3.86,2.42,5.81c1.57,3.89,3,7.86,4.31,11.91s2.5,8.2,3.44,12.57c.47,2.19,.89,4.43,1.21,6.79,.37,2.54,.52,5.1,.46,7.66-.03,1.56-.19,3.12-.48,4.66-.18,.94-.41,1.86-.71,2.77l-.26,.75-.32,.79c-.2,.47-.42,.93-.67,1.38l-.49,.88c-.22,.36-.44,.73-.67,1.08-.45,.69-.93,1.35-1.41,2-.91,1.15-1.92,2.22-3,3.2-3.69,3.26-7.87,5.92-12.38,7.89-2.06,1-4.13,1.75-6.2,2.48s-4.14,1.37-6.22,1.93-4.16,1.05-6.25,1.48c-2.09,.43-4.14,.75-6.41,1-3.02,.35-5.76-1.82-6.11-4.84-.26-2.26,.89-4.45,2.91-5.51l.28-.14c6.77-3.51,13.81-7.22,19.62-11.35,2.65-1.77,5.04-3.9,7.12-6.31,.34-.44,.65-.91,.92-1.39,.1-.18,.19-.37,.27-.56l.08-.23,.19-.47s0-.08,0,0c0,.03,0,.06,0,.09h0v-.18c0-.13,0-.77-.06-1.36-.13-1.46-.35-2.91-.66-4.35-.33-1.62-.77-3.32-1.27-5-1-3.46-2.18-7-3.51-10.6s-2.73-7.16-4.16-10.75l-2.37-5.34-2.21-5.25-.1-.23c-2.05-5.72,.93-12.02,6.65-14.07,5.09-1.82,10.75,.32,13.35,5.07l.03-.07Z"/><path class="cls-4" d="M468.1,112.4c1,2,1.83,3.86,2.66,5.81s1.64,3.86,2.42,5.81c1.57,3.89,3,7.86,4.31,11.91s2.5,8.2,3.44,12.57c.47,2.19,.89,4.43,1.21,6.79,.37,2.54,.52,5.1,.46,7.66-.03,1.56-.19,3.12-.48,4.66-.18,.94-.41,1.86-.71,2.77l-.26,.75-.32,.79c-.2,.47-.42,.93-.67,1.38l-.49,.88c-.22,.36-.44,.73-.67,1.08-.45,.69-.93,1.35-1.41,2-.91,1.15-1.92,2.22-3,3.2-3.69,3.26-7.87,5.92-12.38,7.89-2.06,1-4.13,1.75-6.2,2.48s-4.14,1.37-6.22,1.93-4.16,1.05-6.25,1.48c-2.09,.43-4.14,.75-6.41,1-3.02,.35-5.76-1.82-6.11-4.84-.26-2.26,.89-4.45,2.91-5.51l.28-.14c6.77-3.51,13.81-7.22,19.62-11.35,2.65-1.77,5.04-3.9,7.12-6.31,.34-.44,.65-.91,.92-1.39,.1-.18,.19-.37,.27-.56l.08-.23,.19-.47s0-.08,0,0c0,.03,0,.06,0,.09h0v-.18c0-.13,0-.77-.06-1.36-.13-1.46-.35-2.91-.66-4.35-.33-1.62-.77-3.32-1.27-5-1-3.46-2.18-7-3.51-10.6s-2.73-7.16-4.16-10.75l-2.37-5.34-2.21-5.25-.1-.23c-2.05-5.72,.93-12.02,6.65-14.07,5.09-1.82,10.75,.32,13.35,5.07l.03-.07Z"/><path class="cls-11" d="M433.85,184.13l-8.13,.14,4.24,13.68c2.5-.39,4.93-1.18,7.18-2.34,2.71-1.57,3.73-4.98,2.32-7.78l-.17-.34c-1-2.08-3.13-3.39-5.44-3.36Z"/><path class="cls-11" d="M417.06,193.1l2.3,4.53c.91,1.8,3,2.68,4.92,2.06l5.68-1.79-4.24-13.63-6.76,3.25c-2.05,.98-2.92,3.44-1.94,5.49,.01,.03,.03,.06,.04,.09Z"/><path class="cls-5" d="M451.09,38.77c-8.94-3.28-16.1-3.2-20.76-2.44-.93,.17-1.54,1.06-1.37,1.99,.11,.59,.51,1.08,1.07,1.29,6.94,2.54,12.62,10.12,11.23,21.76-2.78,23.17-15.83,44.72-15.83,44.72l16.63,.14s12.2-6.09,19.62-21.85,5.81-39.59-10.59-45.61Z"/><path class="cls-16" d="M425.5,105.75s20.17-26.23,20.83-47.09-21.6-22.08-21.6-22.08c0,0,6.94-5.45,24.08-2.22s22.66,26.47,17.93,43.24c-2.99,10.32-8.07,19.91-14.94,28.18l-28,7.87,1.7-7.9Z"/><path class="cls-3" d="M425.5,105.75s20.17-26.23,20.83-47.09-21.6-22.08-21.6-22.08c0,0,6.94-5.45,24.08-2.22s22.66,26.47,17.93,43.24c-2.99,10.32-8.07,19.91-14.94,28.18l-28,7.87,1.7-7.9Z"/></g><g><path class="cls-16" d="M287.19,175.99c-.41,0-.74-.33-.74-.74h0v-33.27c0-.41,.33-.74,.74-.74,.41,0,.74,.33,.74,.74v33.27c0,.41-.33,.74-.74,.74Z"/><path class="cls-16" d="M287.19,141.45c-1.66,0-3-1.06-3-2.36,0-1.31,1.34-2.36,3-2.36,1.64,0,2.97,1.03,3,2.32,.03,1.31-1.29,2.38-2.95,2.4h-.05Zm0-3.64c-.87,0-1.57,.55-1.57,1.24s.7,1.24,1.57,1.24,1.57-.55,1.57-1.24-.7-1.24-1.57-1.24h0Z"/></g><path class="cls-16" d="M279.88,179.81c-3.77-.02-7.01-2.66-7.79-6.35l-.78,.78c-.36,.19-.81,.05-1-.31-.11-.22-.11-.48,0-.69l1.87-1.88c.29-.29,.76-.28,1.05,0,.14,.14,.21,.32,.21,.51,0,3.56,2.88,6.46,6.44,6.49,.41,0,.74,.33,.74,.74,0,.41-.33,.74-.74,.74v-.04Z"/></g></g></svg>