<?xml version="1.0" encoding="utf-8"?>
<!-- Generator: Adobe Illustrator 26.3.1, SVG Export Plug-In . SVG Version: 6.00 Build 0)  -->
<svg version="1.1" id="Layer_1" xmlns="http://www.w3.org/2000/svg" xmlns:xlink="http://www.w3.org/1999/xlink" x="0px" y="0px"
	 viewBox="0 0 500 500" style="enable-background:new 0 0 500 500;" xml:space="preserve">
<style type="text/css">
	.st0{fill:#9BD2A5;}
	.st1{opacity:0.7;fill:#FFCCCC;enable-background:new    ;}
	.st2{fill:#FFFFFF;stroke:#263238;stroke-linecap:round;stroke-linejoin:round;}
	.st3{opacity:0.5;fill:#CBDAD5;enable-background:new    ;}
	.st4{fill:#263238;stroke:#263238;stroke-linecap:round;stroke-linejoin:round;}
	.st5{fill:none;stroke:#263238;stroke-miterlimit:10;}
	.st6{fill:#FFFFFF;}
	.st7{clip-path:url(#SVGID_00000092430604254818370390000017281200944248587154_);}
	.st8{fill:#CBDAD5;}
	.st9{opacity:0.3;fill:#CBDAD5;enable-background:new    ;}
	.st10{fill:none;stroke:#263238;stroke-linecap:round;stroke-linejoin:round;}
	.st11{fill:#007172;stroke:#263238;stroke-linecap:round;stroke-linejoin:round;}
	.st12{fill:#D94F04;stroke:#263238;stroke-linecap:round;stroke-linejoin:round;}
	.st13{fill:#263238;}
	.st14{opacity:0.5;fill:#FFCCCC;enable-background:new    ;}
	.st15{fill:#007172;stroke:#263238;stroke-miterlimit:10;}
	.st16{fill:#263238;stroke:#263238;stroke-miterlimit:10;}
	.st17{fill:#007172;stroke:#000000;stroke-miterlimit:10;}
	.st18{fill:#CBDAD5;stroke:#CBDAD5;stroke-miterlimit:10;}
	.st19{fill:#FFFFFF;stroke:#263238;stroke-miterlimit:10;}
</style>
<g id="freepik--background-simple--inject-106">
	<path class="st0" d="M394.5,162c0,0,3.8-50.6-48.7-84.3s-127.4-27.2-177.9-0.9s-43.1,86.1-59.9,124.5s-55.2,45-52.4,97.4
		s35.6,77.7,73,86.1s72.1-1.9,105.8,3.7s80.5,16.9,134.8-4.7s64.6-80.5,57.1-127.4S394.5,192.9,394.5,162z"/>
	<path class="st1" d="M394.5,162c0,0,3.8-50.6-48.7-84.3s-127.4-27.2-177.9-0.9s-43.1,86.1-59.9,124.5s-55.2,45-52.4,97.4
		s35.6,77.7,73,86.1s72.1-1.9,105.8,3.7s80.5,16.9,134.8-4.7s64.6-80.5,57.1-127.4S394.5,192.9,394.5,162z"/>
</g>
<g id="freepik--Device--inject-106">
	<polygon class="st2" points="344.1,361.1 151.3,361.1 166.5,346.4 328.9,346.4 	"/>
	<path class="st0" d="M322.7,352.1c0,3-34.9,5.5-78,5.5s-78-2.5-78-5.5s34.9-5.5,78-5.5S322.7,349.1,322.7,352.1z"/>
	<path class="st3" d="M322.7,352.1c0,3-34.9,5.5-78,5.5s-78-2.5-78-5.5s34.9-5.5,78-5.5S322.7,349.1,322.7,352.1z"/>
	<rect x="151.3" y="361.1" class="st4" width="192.8" height="13.6"/>
	<polygon class="st2" points="357.7,389.4 137.7,389.4 151.3,374.7 344.1,374.7 	"/>
	<rect x="137.7" y="389.4" class="st4" width="220" height="14.3"/>
	<polyline class="st5" points="245.6,215.9 245.6,124.4 280.4,124.4 280.4,85.9 	"/>
	<line class="st5" x1="259.2" y1="124" x2="259.2" y2="85.9"/>
	<polyline class="st5" points="248.2,230.5 408.5,230.5 408.5,207.7 439.2,207.7 	"/>
	<polyline class="st5" points="240.3,229.7 87.8,229.7 87.8,205.4 54.8,205.4 	"/>
	<polyline class="st5" points="214.4,61.5 214.4,96.1 194.7,96.1 194.7,118.1 219.1,118.1 219.1,192 	"/>
	<polyline class="st5" points="322.1,163.7 322.1,114.2 335.4,114.2 335.4,93 346.4,93 	"/>
	<polyline class="st5" points="160.1,159 160.1,121.3 149.1,110.2 149.1,82.7 	"/>
	<polyline class="st5" points="351.9,181 379.5,181 379.5,162.9 397.5,162.9 397.5,152.7 413.2,152.7 	"/>
	<polyline class="st5" points="132.6,187.3 103.6,187.3 103.6,164.5 62.7,164.5 	"/>
	<polyline class="st5" points="159.4,310.7 159.4,331.1 146,331.1 146,353.9 107.5,353.9 	"/>
	<polyline class="st5" points="306.4,313.8 306.4,335.1 337,335.1 337,326.4 345.6,326.4 345.6,344.5 372.4,344.5 	"/>
	<path class="st4" d="M282.6,85.9c0,1.2-1,2.2-2.2,2.2c-1.2,0-2.2-1-2.2-2.2c0-1.2,1-2.2,2.2-2.2C281.6,83.6,282.7,84.6,282.6,85.9
		C282.7,85.9,282.6,85.9,282.6,85.9z"/>
	<path class="st4" d="M261.5,85.9c0,1.2-1,2.2-2.2,2.2c-1.2,0-2.2-1-2.2-2.2c0-1.2,1-2.2,2.2-2.2C260.5,83.6,261.5,84.6,261.5,85.9
		C261.5,85.9,261.5,85.9,261.5,85.9z"/>
	<path class="st4" d="M216.6,60.9c0,1.2-1,2.2-2.3,2.2c-1.2,0-2.2-1-2.2-2.3c0-1.2,1-2.2,2.3-2.2c0,0,0,0,0,0
		C215.6,58.6,216.6,59.6,216.6,60.9C216.6,60.9,216.6,60.9,216.6,60.9z"/>
	<path class="st4" d="M151.4,81.6c0,1.2-1,2.2-2.2,2.2c-1.2,0-2.2-1-2.2-2.2c0-1.2,1-2.2,2.2-2.2C150.4,79.4,151.4,80.4,151.4,81.6
		C151.4,81.6,151.4,81.6,151.4,81.6z"/>
	<path class="st4" d="M64.9,164.5c0,1.2-1,2.3-2.2,2.3s-2.3-1-2.3-2.2c0-1.2,1-2.3,2.2-2.3c0,0,0,0,0,0
		C63.9,162.2,64.9,163.3,64.9,164.5L64.9,164.5z"/>
	<path class="st4" d="M57.1,205.3c0,1.2-1,2.2-2.2,2.2s-2.2-1-2.2-2.2s1-2.2,2.2-2.2l0,0C56.1,203.1,57.1,204.1,57.1,205.3z"/>
	<path class="st4" d="M109.9,353.5c0,1.2-1,2.2-2.3,2.2c-1.2,0-2.2-1-2.2-2.2c0-1.2,1-2.2,2.3-2.2c0,0,0,0,0,0
		C108.9,351.2,109.9,352.3,109.9,353.5C109.9,353.5,109.9,353.5,109.9,353.5z"/>
	<path class="st4" d="M375.8,344c0,1.2-1,2.3-2.2,2.3c-1.2,0-2.3-1-2.3-2.2c0-1.2,1-2.3,2.2-2.3c0,0,0,0,0,0
		C374.7,341.8,375.8,342.8,375.8,344C375.8,344,375.8,344,375.8,344z"/>
	<path class="st4" d="M442.6,207.3c0,1.2-1,2.2-2.2,2.2c-1.2,0-2.2-1-2.2-2.2c0-1.2,1-2.2,2.2-2.2l0,0
		C441.6,205,442.6,206,442.6,207.3z"/>
	<path class="st4" d="M416.5,152.2c0,1.2-1,2.2-2.2,2.2c-1.2,0-2.2-1-2.2-2.2c0-1.2,1-2.2,2.2-2.2l0,0
		C415.5,150,416.5,151,416.5,152.2z"/>
	<path class="st4" d="M350.1,92.9c0,1.2-1,2.2-2.2,2.2c-1.2,0-2.2-1-2.2-2.2c0-1.2,1-2.2,2.2-2.2l0,0
		C349.1,90.7,350.1,91.7,350.1,92.9z"/>
	<path class="st6" d="M274.9,330.5V311h-58.7v19.5c0,6.4-2.2,12.6-6.2,17.5l-2.6,3.2h76.3l-2.6-3.2
		C277.1,343.1,274.9,336.9,274.9,330.5z"/>
	<g>
		<defs>
			<path id="SVGID_1_" d="M274.9,330.5V311h-58.7v19.5c0,6.4-2.2,12.6-6.2,17.5l-2.6,3.2h76.3l-2.6-3.2
				C277.1,343.1,274.9,336.9,274.9,330.5z"/>
		</defs>
		<clipPath id="SVGID_00000135682600495343062240000000151647785096922774_">
			<use xlink:href="#SVGID_1_"  style="overflow:visible;"/>
		</clipPath>
		<g style="clip-path:url(#SVGID_00000135682600495343062240000000151647785096922774_);">
			<path class="st8" d="M212.6,344.2h65.9c-2.4-4.2-3.6-8.9-3.6-13.7V311h-58.7v19.5C216.2,335.3,215,340,212.6,344.2z"/>
			<path class="st9" d="M212.6,344.2h65.9c-2.4-4.2-3.6-8.9-3.6-13.7V311h-58.7v19.5C216.2,335.3,215,340,212.6,344.2z"/>
			<path class="st8" d="M212.6,323.6h65.9c-2.4-4.2-3.6-8.9-3.6-13.7v-19.5h-58.7v19.5C216.2,314.7,215,319.4,212.6,323.6z"/>
		</g>
	</g>
	<path class="st10" d="M274.9,330.5V311h-58.7v19.5c0,6.4-2.2,12.6-6.2,17.5l-2.6,3.2h76.3l-2.6-3.2
		C277.1,343.1,274.9,336.9,274.9,330.5z"/>
	<path class="st4" d="M136.1,144H355c4.7,0,8.5,3.8,8.5,8.5v156.2c0,4.7-3.8,8.5-8.5,8.5H136.1c-4.7,0-8.5-3.8-8.5-8.5V152.5
		C127.7,147.8,131.5,144,136.1,144z"/>
	<path class="st2" d="M127.7,290.2h235.8l0,0v18.4c0,4.7-3.8,8.5-8.5,8.5c0,0,0,0,0,0H136.1c-4.7,0-8.5-3.8-8.5-8.5l0,0V290.2
		L127.7,290.2z"/>
	<rect x="139.5" y="154.8" class="st2" width="212.1" height="122.3"/>
	<path class="st4" d="M249.9,308c0-2.4-1.9-4.4-4.3-4.4c-2.4,0-4.4,1.9-4.4,4.3c0,2.4,1.9,4.4,4.3,4.4c0,0,0.1,0,0.1,0
		C248,312.3,249.9,310.4,249.9,308z"/>
	<rect x="207.4" y="351.2" class="st2" width="76.3" height="3.5"/>
	<path class="st11" d="M245.9,148.4c-10.7,10-38,20-69.8,41.3c0,0,2,72,69.8,111.3V148.4z"/>
	<path class="st12" d="M245.9,148.4c10.7,10,38,20,69.8,41.3c0,0-2,72-69.8,111.3V148.4z"/>
	<path class="st12" d="M245.9,154.6c-12.9,8.9-35.2,17.4-64.7,37.2c0,0,1.9,66.7,64.7,103.2c62.8-36.5,64.7-103.2,64.7-103.2
		C281.1,172,258.9,163.5,245.9,154.6z"/>
	<path class="st11" d="M310.6,191.7c-29.5-19.7-51.7-28.2-64.7-37.2v140.3C308.8,258.4,310.6,191.7,310.6,191.7z"/>
	<rect x="126.9" y="227.1" class="st4" width="237.3" height="15.4"/>
	<path class="st6" d="M131.6,229.5c0,0.9-0.7,1.6-1.6,1.6c-0.9,0-1.6-0.7-1.6-1.6c0-0.9,0.7-1.6,1.6-1.6c0,0,0,0,0,0
		C130.9,227.9,131.6,228.6,131.6,229.5C131.6,229.5,131.6,229.5,131.6,229.5z"/>
	<path class="st13" d="M129.1,230.4c0.5,0.5,1.3,0.5,1.8,0c0.2-0.2,0.4-0.6,0.4-0.9c0-0.3-0.1-0.6-0.3-0.8
		C130.3,229.2,129.7,229.8,129.1,230.4z"/>
	<path class="st6" d="M137.9,229.5c0,0.9-0.7,1.6-1.6,1.6c-0.9,0-1.6-0.7-1.6-1.6s0.7-1.6,1.6-1.6c0,0,0,0,0,0
		C137.1,227.9,137.8,228.6,137.9,229.5C137.9,229.5,137.9,229.5,137.9,229.5z"/>
	<path class="st13" d="M135.3,230.4c0.5,0.5,1.3,0.5,1.8,0c0.2-0.2,0.4-0.6,0.4-0.9c0-0.3-0.1-0.6-0.3-0.8
		C136.6,229.2,135.9,229.8,135.3,230.4z"/>
	<path class="st6" d="M144.1,229.5c-0.1,0.9-0.8,1.5-1.7,1.5c-0.8-0.1-1.4-0.7-1.5-1.5c0.1-0.9,0.8-1.5,1.7-1.5
		C143.4,228.1,144,228.7,144.1,229.5z"/>
	<path class="st13" d="M141.6,230.4c0.2,0.2,0.6,0.4,0.9,0.4c0.7,0,1.3-0.6,1.3-1.2c0,0,0,0,0,0c0-0.3-0.1-0.6-0.3-0.8
		C142.8,229.2,142.2,229.8,141.6,230.4z"/>
	<path class="st6" d="M150.3,229.5c0,0.9-0.7,1.6-1.6,1.6c-0.9,0-1.6-0.7-1.6-1.6c0-0.9,0.7-1.6,1.6-1.6c0,0,0,0,0,0
		C149.6,227.9,150.3,228.6,150.3,229.5C150.3,229.5,150.3,229.5,150.3,229.5z"/>
	<path class="st13" d="M147.8,230.4c0.5,0.5,1.3,0.5,1.8,0c0.2-0.2,0.4-0.6,0.4-0.9c0-0.3-0.1-0.6-0.3-0.8
		C149,229.2,148.4,229.8,147.8,230.4z"/>
	<path class="st6" d="M156.5,229.5c0,0.9-0.7,1.6-1.6,1.6c-0.9,0-1.6-0.7-1.6-1.6c0-0.9,0.7-1.6,1.6-1.6c0,0,0,0,0,0
		C155.8,227.9,156.5,228.6,156.5,229.5C156.5,229.5,156.5,229.5,156.5,229.5z"/>
	<path class="st13" d="M154,230.4c0.2,0.2,0.6,0.4,0.9,0.4c0.7,0,1.3-0.5,1.3-1.2c0,0,0,0,0,0c0-0.3-0.1-0.6-0.3-0.8
		C155.2,229.2,154.6,229.8,154,230.4z"/>
	<path class="st6" d="M162.8,229.5c0,0.9-0.7,1.6-1.6,1.6c-0.9,0-1.6-0.7-1.6-1.6c0-0.9,0.7-1.6,1.6-1.6c0,0,0,0,0,0
		C162,227.9,162.8,228.6,162.8,229.5C162.8,229.5,162.8,229.5,162.8,229.5z"/>
	<path class="st13" d="M160.3,230.4c0.5,0.5,1.3,0.5,1.8,0c0.2-0.2,0.4-0.6,0.4-0.9c0-0.3-0.1-0.6-0.3-0.8
		C161.5,229.2,160.9,229.8,160.3,230.4z"/>
	<path class="st6" d="M169,229.5c0,0.9-0.7,1.6-1.6,1.6c-0.9,0-1.6-0.7-1.6-1.6s0.7-1.6,1.6-1.6c0,0,0,0,0,0
		C168.3,227.9,169,228.6,169,229.5C169,229.5,169,229.5,169,229.5z"/>
	<path class="st13" d="M166.5,230.4c0.5,0.5,1.3,0.5,1.8,0c0.2-0.2,0.4-0.6,0.4-0.9c0-0.3-0.1-0.6-0.3-0.8
		C167.7,229.2,167.1,229.8,166.5,230.4z"/>
	<path class="st6" d="M175.2,229.5c0,0.9-0.7,1.6-1.6,1.6c-0.9,0-1.6-0.7-1.6-1.6c0-0.9,0.7-1.6,1.6-1.6c0,0,0,0,0,0
		C174.5,227.9,175.2,228.6,175.2,229.5C175.2,229.5,175.2,229.5,175.2,229.5z"/>
	<path class="st13" d="M172.7,230.4c0.2,0.2,0.6,0.4,0.9,0.4c0.7,0,1.3-0.6,1.3-1.2c0,0,0,0,0,0c0-0.3-0.1-0.6-0.3-0.8
		C173.9,229.2,173.3,229.8,172.7,230.4z"/>
	<path class="st6" d="M181.5,229.5c0,0.9-0.7,1.6-1.6,1.6c-0.9,0-1.6-0.7-1.6-1.6c0-0.9,0.7-1.6,1.6-1.6c0,0,0,0,0,0
		C180.7,227.9,181.5,228.6,181.5,229.5C181.5,229.5,181.5,229.5,181.5,229.5z"/>
	<path class="st13" d="M179,230.4c0.5,0.5,1.3,0.5,1.8,0c0.2-0.2,0.4-0.6,0.4-0.9c0-0.3-0.1-0.6-0.3-0.8
		C180.2,229.2,179.6,229.8,179,230.4z"/>
	<path class="st6" d="M187.7,229.5c0,0.9-0.7,1.6-1.6,1.6c-0.9,0-1.6-0.7-1.6-1.6c0-0.9,0.7-1.6,1.6-1.6c0,0,0,0,0,0
		C187,227.9,187.7,228.6,187.7,229.5C187.7,229.5,187.7,229.5,187.7,229.5z"/>
	<path class="st13" d="M185.2,230.4c0.2,0.2,0.6,0.4,0.9,0.4c0.7,0,1.3-0.5,1.3-1.2c0,0,0,0,0,0c0-0.3-0.1-0.6-0.3-0.8
		C186.4,229.2,185.8,229.8,185.2,230.4z"/>
	<path class="st6" d="M193.9,229.5c0,0.9-0.7,1.6-1.6,1.6c-0.9,0-1.6-0.7-1.6-1.6c0-0.9,0.7-1.6,1.6-1.6c0,0,0,0,0,0
		C193.2,227.9,193.9,228.6,193.9,229.5C193.9,229.5,193.9,229.5,193.9,229.5z"/>
	<path class="st13" d="M191.4,230.4c0.5,0.5,1.3,0.5,1.8,0c0.2-0.2,0.4-0.6,0.4-0.9c0-0.3-0.1-0.6-0.3-0.8
		C192.6,229.2,192,229.8,191.4,230.4z"/>
	<path class="st6" d="M200.2,229.5c0,0.9-0.7,1.6-1.6,1.6c-0.9,0-1.6-0.7-1.6-1.6c0-0.9,0.7-1.6,1.6-1.6c0,0,0,0,0,0
		C199.4,227.9,200.2,228.6,200.2,229.5C200.2,229.5,200.2,229.5,200.2,229.5z"/>
	<path class="st13" d="M197.7,230.4c0.5,0.5,1.3,0.5,1.8,0c0.2-0.2,0.4-0.6,0.4-0.9c0-0.3-0.1-0.6-0.3-0.8
		C198.9,229.2,198.2,229.8,197.7,230.4z"/>
	<path class="st6" d="M206.4,229.5c0,0.9-0.7,1.6-1.6,1.6c-0.9,0-1.6-0.7-1.6-1.6c0-0.9,0.7-1.6,1.6-1.6c0,0,0,0,0,0
		C205.7,227.9,206.4,228.6,206.4,229.5C206.4,229.5,206.4,229.5,206.4,229.5z"/>
	<path class="st13" d="M203.9,230.4c0.5,0.5,1.3,0.5,1.8,0c0.2-0.2,0.4-0.6,0.4-0.9c0-0.3-0.1-0.6-0.3-0.8
		C205.1,229.2,204.5,229.8,203.9,230.4z"/>
	<path class="st6" d="M212.6,229.5c0,0.9-0.7,1.6-1.6,1.6c-0.9,0-1.6-0.7-1.6-1.6c0-0.9,0.7-1.6,1.6-1.6c0,0,0,0,0,0
		C211.9,227.9,212.6,228.6,212.6,229.5C212.6,229.5,212.6,229.5,212.6,229.5z"/>
	<path class="st13" d="M210.1,230.4c0.2,0.2,0.6,0.4,0.9,0.4c0.7,0,1.3-0.5,1.3-1.2c0,0,0,0,0,0c0-0.3-0.1-0.6-0.3-0.8
		C211.3,229.2,210.7,229.8,210.1,230.4z"/>
	<path class="st6" d="M131.6,239.4c0,0.9-0.7,1.6-1.5,1.6c-0.9,0-1.6-0.7-1.6-1.5c0-0.9,0.7-1.6,1.5-1.6c0,0,0,0,0,0
		C130.9,237.8,131.6,238.5,131.6,239.4C131.6,239.4,131.6,239.4,131.6,239.4z"/>
	<path class="st13" d="M129.1,240.3c0.2,0.2,0.6,0.4,0.9,0.4c0.7,0,1.3-0.6,1.3-1.3c0,0,0,0,0,0c0-0.3-0.1-0.6-0.3-0.8
		C130.3,239.1,129.7,239.7,129.1,240.3z"/>
	<path class="st6" d="M137.9,239.4c0,0.9-0.7,1.6-1.5,1.6s-1.6-0.7-1.6-1.5c0-0.9,0.7-1.6,1.5-1.6c0,0,0,0,0,0
		C137.1,237.8,137.8,238.5,137.9,239.4z"/>
	<path class="st13" d="M135.3,240.3c0.2,0.2,0.6,0.4,0.9,0.4c0.7,0,1.3-0.6,1.3-1.3c0,0,0,0,0,0c0-0.3-0.1-0.6-0.3-0.8
		C136.6,239.1,135.9,239.7,135.3,240.3z"/>
	<path class="st6" d="M144.1,239.4c0,0.9-0.7,1.6-1.5,1.6c-0.9,0-1.6-0.7-1.6-1.5s0.7-1.6,1.5-1.6c0,0,0,0,0.1,0
		C143.4,237.8,144.1,238.5,144.1,239.4C144.1,239.4,144.1,239.4,144.1,239.4z"/>
	<path class="st13" d="M141.6,240.3c0.5,0.5,1.3,0.5,1.8,0c0.3-0.2,0.4-0.6,0.4-0.9c0-0.3-0.1-0.6-0.3-0.8
		C142.8,239.1,142.2,239.7,141.6,240.3z"/>
	<path class="st6" d="M150.3,239.4c0,0.9-0.7,1.6-1.5,1.6c-0.9,0-1.6-0.7-1.6-1.5c0-0.9,0.7-1.6,1.5-1.6c0,0,0,0,0,0
		C149.6,237.8,150.3,238.5,150.3,239.4C150.3,239.4,150.3,239.4,150.3,239.4z"/>
	<path class="st13" d="M147.8,240.3c0.5,0.5,1.3,0.5,1.8,0c0.2-0.2,0.4-0.6,0.4-0.9c0-0.3-0.1-0.6-0.3-0.8
		C149,239.1,148.4,239.7,147.8,240.3z"/>
	<path class="st6" d="M156.5,239.4c0,0.9-0.7,1.6-1.5,1.6c-0.9,0-1.6-0.7-1.6-1.5c0-0.9,0.7-1.6,1.5-1.6c0,0,0,0,0,0
		C155.8,237.8,156.5,238.5,156.5,239.4C156.5,239.4,156.5,239.4,156.5,239.4z"/>
	<path class="st13" d="M154,240.3c0.2,0.2,0.6,0.4,0.9,0.4c0.7,0,1.3-0.6,1.3-1.3c0,0,0,0,0,0c0-0.3-0.1-0.6-0.3-0.8
		C155.2,239.1,154.6,239.7,154,240.3z"/>
	<path class="st6" d="M162.8,239.4c0,0.9-0.7,1.6-1.5,1.6c-0.9,0-1.6-0.7-1.6-1.5c0-0.9,0.7-1.6,1.5-1.6c0,0,0,0,0,0
		C162,237.8,162.8,238.5,162.8,239.4C162.8,239.4,162.8,239.4,162.8,239.4z"/>
	<path class="st13" d="M160.3,240.3c0.2,0.2,0.6,0.4,0.9,0.4c0.7,0,1.3-0.6,1.3-1.3c0,0,0,0,0,0c0-0.3-0.1-0.6-0.3-0.8
		C161.5,239.1,160.9,239.7,160.3,240.3z"/>
	<path class="st6" d="M169,239.4c0,0.9-0.7,1.6-1.5,1.6s-1.6-0.7-1.6-1.5c0-0.9,0.7-1.6,1.5-1.6c0,0,0,0,0,0
		C168.3,237.8,169,238.5,169,239.4z"/>
	<path class="st13" d="M166.5,240.3c0.2,0.2,0.6,0.4,0.9,0.4c0.7,0,1.3-0.6,1.3-1.3c0,0,0,0,0,0c0-0.3-0.1-0.6-0.3-0.8
		C167.7,239.1,167.1,239.7,166.5,240.3z"/>
	<path class="st6" d="M175.2,239.4c0,0.9-0.7,1.6-1.5,1.6c-0.9,0-1.6-0.7-1.6-1.5c0-0.9,0.7-1.6,1.5-1.6c0,0,0,0,0,0
		C174.5,237.8,175.2,238.5,175.2,239.4C175.2,239.4,175.2,239.4,175.2,239.4z"/>
	<path class="st13" d="M172.7,240.3c0.5,0.5,1.3,0.5,1.8,0c0.3-0.2,0.4-0.6,0.4-0.9c0-0.3-0.1-0.6-0.3-0.8
		C173.9,239.1,173.3,239.7,172.7,240.3z"/>
	<path class="st6" d="M181.5,239.4c0,0.9-0.7,1.6-1.5,1.6c-0.9,0-1.6-0.7-1.6-1.5c0-0.9,0.7-1.6,1.5-1.6c0,0,0,0,0,0
		C180.7,237.8,181.5,238.5,181.5,239.4C181.5,239.4,181.5,239.4,181.5,239.4z"/>
	<path class="st13" d="M179,240.3c0.5,0.5,1.3,0.5,1.8,0c0.2-0.2,0.4-0.6,0.4-0.9c0-0.3-0.1-0.6-0.3-0.8
		C180.2,239.1,179.6,239.7,179,240.3z"/>
	<path class="st6" d="M187.7,239.4c0,0.9-0.7,1.6-1.5,1.6c-0.9,0-1.6-0.7-1.6-1.5c0-0.9,0.7-1.6,1.5-1.6c0,0,0,0,0,0
		C187,237.8,187.7,238.5,187.7,239.4C187.7,239.4,187.7,239.4,187.7,239.4z"/>
	<path class="st13" d="M185.2,240.3c0.2,0.2,0.6,0.4,0.9,0.4c0.7,0,1.3-0.6,1.3-1.3c0,0,0,0,0,0c0-0.3-0.1-0.6-0.3-0.8
		C186.4,239.1,185.8,239.7,185.2,240.3z"/>
	<path class="st6" d="M193.9,239.4c0,0.9-0.7,1.6-1.5,1.6c-0.9,0-1.6-0.7-1.6-1.5c0-0.9,0.7-1.6,1.5-1.6c0,0,0,0,0,0
		C193.2,237.8,193.9,238.5,193.9,239.4C193.9,239.4,193.9,239.4,193.9,239.4z"/>
	<path class="st13" d="M191.4,240.3c0.2,0.2,0.6,0.4,0.9,0.4c0.7,0,1.3-0.6,1.3-1.3c0,0,0,0,0,0c0-0.3-0.1-0.6-0.3-0.8
		C192.6,239.1,192,239.7,191.4,240.3z"/>
	<path class="st6" d="M200.2,239.4c0,0.9-0.7,1.6-1.5,1.6c-0.9,0-1.6-0.7-1.6-1.5s0.7-1.6,1.5-1.6c0,0,0,0,0.1,0
		C199.4,237.8,200.2,238.5,200.2,239.4C200.2,239.4,200.2,239.4,200.2,239.4z"/>
	<path class="st13" d="M197.7,240.3c0.5,0.5,1.3,0.5,1.8,0c0.3-0.2,0.4-0.6,0.4-0.9c0-0.3-0.1-0.6-0.3-0.8
		C198.9,239.1,198.2,239.7,197.7,240.3z"/>
	<path class="st6" d="M206.4,239.4c0,0.9-0.7,1.6-1.5,1.6c-0.9,0-1.6-0.7-1.6-1.5c0-0.9,0.7-1.6,1.5-1.6c0,0,0,0,0,0
		C205.7,237.8,206.4,238.5,206.4,239.4C206.4,239.4,206.4,239.4,206.4,239.4z"/>
	<path class="st13" d="M203.9,240.3c0.5,0.5,1.3,0.5,1.8,0c0.2-0.2,0.4-0.6,0.4-0.9c0-0.3-0.1-0.6-0.3-0.8
		C205.1,239.1,204.5,239.7,203.9,240.3z"/>
	<path class="st6" d="M212.6,239.4c0,0.9-0.7,1.6-1.5,1.6c-0.9,0-1.6-0.7-1.6-1.5c0-0.9,0.7-1.6,1.5-1.6c0,0,0,0,0,0
		C211.9,237.8,212.6,238.5,212.6,239.4C212.6,239.4,212.6,239.4,212.6,239.4z"/>
	<path class="st13" d="M210.1,240.3c0.2,0.2,0.6,0.4,0.9,0.4c0.7,0,1.3-0.6,1.3-1.3c0,0,0,0,0,0c0-0.3-0.1-0.6-0.3-0.8
		C211.3,239.1,210.7,239.7,210.1,240.3z"/>
	<path class="st6" d="M281.7,229.5c0,0.9-0.7,1.6-1.6,1.6c-0.9,0-1.6-0.7-1.6-1.6c0-0.9,0.7-1.6,1.6-1.6c0,0,0,0,0,0
		C281,227.9,281.7,228.6,281.7,229.5C281.7,229.5,281.7,229.5,281.7,229.5z"/>
	<path class="st13" d="M279.2,230.4c0.5,0.5,1.3,0.5,1.8,0c0.2-0.2,0.4-0.6,0.4-0.9c0-0.3-0.1-0.6-0.3-0.8
		C280.4,229.2,279.8,229.8,279.2,230.4z"/>
	<path class="st6" d="M287.9,229.5c0,0.9-0.7,1.6-1.6,1.6c-0.9,0-1.6-0.7-1.6-1.6c0-0.9,0.7-1.6,1.6-1.6c0,0,0,0,0,0
		C287.2,227.9,287.9,228.6,287.9,229.5C287.9,229.5,287.9,229.5,287.9,229.5z"/>
	<path class="st13" d="M285.4,230.4c0.5,0.5,1.3,0.5,1.8,0c0.2-0.2,0.4-0.6,0.4-0.9c0-0.3-0.1-0.6-0.3-0.8
		C286.6,229.2,286,229.8,285.4,230.4z"/>
	<path class="st6" d="M294.1,229.5c0,0.9-0.7,1.6-1.6,1.6c-0.9,0-1.6-0.7-1.6-1.6c0-0.9,0.7-1.6,1.6-1.6c0,0,0,0,0,0
		C293.4,227.9,294.1,228.6,294.1,229.5C294.1,229.5,294.1,229.5,294.1,229.5z"/>
	<path class="st13" d="M291.6,230.4c0.5,0.5,1.3,0.5,1.8,0c0.2-0.2,0.4-0.6,0.4-0.9c0-0.3-0.1-0.6-0.3-0.8
		C292.9,229.2,292.2,229.8,291.6,230.4z"/>
	<path class="st6" d="M300.4,229.5c0,0.9-0.7,1.6-1.6,1.6c-0.9,0-1.6-0.7-1.6-1.6c0-0.9,0.7-1.6,1.6-1.6c0,0,0,0,0,0
		C299.7,227.9,300.4,228.6,300.4,229.5C300.4,229.5,300.4,229.5,300.4,229.5z"/>
	<path class="st13" d="M297.9,230.4c0.2,0.2,0.6,0.4,0.9,0.4c0.7,0,1.3-0.5,1.3-1.2c0,0,0,0,0,0c0-0.3-0.1-0.6-0.3-0.8
		C299.1,229.2,298.5,229.8,297.9,230.4z"/>
	<path class="st6" d="M306.6,229.5c0,0.9-0.7,1.6-1.6,1.6c-0.9,0-1.6-0.7-1.6-1.6c0-0.9,0.7-1.6,1.6-1.6c0,0,0,0,0,0
		C305.9,227.9,306.6,228.6,306.6,229.5C306.6,229.5,306.6,229.5,306.6,229.5z"/>
	<path class="st13" d="M304.1,230.4c0.5,0.5,1.3,0.5,1.8,0c0.2-0.2,0.4-0.6,0.4-0.9c0-0.3-0.1-0.6-0.3-0.8
		C305.3,229.2,304.7,229.8,304.1,230.4z"/>
	<path class="st6" d="M312.9,229.5c0,0.9-0.7,1.6-1.6,1.6c-0.9,0-1.6-0.7-1.6-1.6s0.7-1.6,1.6-1.6c0,0,0,0,0,0
		C312.1,227.9,312.8,228.6,312.9,229.5C312.9,229.5,312.9,229.5,312.9,229.5z"/>
	<path class="st13" d="M310.3,230.4c0.5,0.5,1.3,0.5,1.8,0c0.2-0.2,0.4-0.6,0.4-0.9c0-0.3-0.1-0.6-0.3-0.8
		C311.6,229.2,310.9,229.8,310.3,230.4z"/>
	<path class="st6" d="M319.1,229.5c0,0.9-0.7,1.6-1.6,1.6c-0.9,0-1.6-0.7-1.6-1.6c0-0.9,0.7-1.6,1.6-1.6c0,0,0,0,0,0
		C318.4,227.9,319.1,228.6,319.1,229.5C319.1,229.5,319.1,229.5,319.1,229.5z"/>
	<path class="st13" d="M316.6,230.4c0.5,0.5,1.3,0.5,1.8,0c0.2-0.2,0.4-0.6,0.4-0.9c0-0.3-0.1-0.6-0.3-0.8
		C317.8,229.2,317.2,229.8,316.6,230.4z"/>
	<path class="st6" d="M325.3,229.5c0,0.9-0.7,1.6-1.6,1.6c-0.9,0-1.6-0.7-1.6-1.6c0-0.9,0.7-1.6,1.6-1.6c0,0,0,0,0,0
		C324.6,227.9,325.3,228.6,325.3,229.5C325.3,229.5,325.3,229.5,325.3,229.5z"/>
	<path class="st13" d="M322.8,230.4c0.5,0.5,1.3,0.5,1.8,0c0.2-0.2,0.4-0.6,0.4-0.9c0-0.3-0.1-0.6-0.3-0.8
		C324,229.2,323.4,229.8,322.8,230.4z"/>
	<path class="st6" d="M331.5,229.5c0,0.9-0.7,1.6-1.6,1.6c-0.9,0-1.6-0.7-1.6-1.6c0-0.9,0.7-1.6,1.6-1.6c0,0,0,0,0,0
		C330.8,227.9,331.5,228.6,331.5,229.5C331.5,229.5,331.5,229.5,331.5,229.5z"/>
	<path class="st13" d="M329,230.4c0.2,0.2,0.6,0.4,0.9,0.4c0.7,0,1.3-0.5,1.3-1.2c0,0,0,0,0,0c0-0.3-0.1-0.6-0.3-0.8
		C330.2,229.2,329.6,229.8,329,230.4z"/>
	<path class="st6" d="M337.8,229.5c0,0.9-0.7,1.6-1.6,1.6c-0.9,0-1.6-0.7-1.6-1.6c0-0.9,0.7-1.6,1.6-1.6c0,0,0,0,0,0
		C337,227.9,337.8,228.6,337.8,229.5C337.8,229.5,337.8,229.5,337.8,229.5z"/>
	<path class="st13" d="M335.3,230.4c0.5,0.5,1.3,0.5,1.8,0c0.2-0.2,0.4-0.6,0.4-0.9c0-0.3-0.1-0.6-0.3-0.8
		C336.5,229.2,335.9,229.8,335.3,230.4z"/>
	<path class="st6" d="M344,229.5c0,0.9-0.7,1.6-1.6,1.6c-0.9,0-1.6-0.7-1.6-1.6s0.7-1.6,1.6-1.6c0,0,0,0,0,0
		C343.3,227.9,344,228.6,344,229.5C344,229.5,344,229.5,344,229.5z"/>
	<path class="st13" d="M341.5,230.4c0.5,0.5,1.3,0.5,1.8,0c0.2-0.2,0.4-0.6,0.4-0.9c0-0.3-0.1-0.6-0.3-0.8
		C342.7,229.2,342.1,229.8,341.5,230.4z"/>
	<path class="st6" d="M350.2,229.5c0,0.9-0.7,1.6-1.6,1.6c-0.9,0-1.6-0.7-1.6-1.6c0-0.9,0.7-1.6,1.6-1.6c0,0,0,0,0,0
		C349.5,227.9,350.2,228.6,350.2,229.5C350.2,229.5,350.2,229.5,350.2,229.5z"/>
	<path class="st13" d="M347.7,230.4c0.2,0.2,0.6,0.4,0.9,0.4c0.7,0,1.3-0.6,1.3-1.2c0,0,0,0,0,0c0-0.3-0.1-0.6-0.3-0.8
		C348.9,229.2,348.3,229.8,347.7,230.4z"/>
	<path class="st6" d="M356.5,229.5c0,0.9-0.7,1.6-1.6,1.6c-0.9,0-1.6-0.7-1.6-1.6c0-0.9,0.7-1.6,1.6-1.6c0,0,0,0,0,0
		C355.7,227.9,356.5,228.6,356.5,229.5C356.5,229.5,356.5,229.5,356.5,229.5z"/>
	<path class="st13" d="M354,230.4c0.5,0.5,1.3,0.5,1.8,0c0.2-0.2,0.4-0.6,0.4-0.9c0-0.3-0.1-0.6-0.3-0.8
		C355.2,229.2,354.6,229.8,354,230.4z"/>
	<path class="st6" d="M362.7,229.5c0,0.9-0.7,1.6-1.6,1.6c-0.9,0-1.6-0.7-1.6-1.6c0-0.9,0.7-1.6,1.6-1.6c0,0,0,0,0,0
		C362,227.9,362.7,228.6,362.7,229.5C362.7,229.5,362.7,229.5,362.7,229.5z"/>
	<path class="st13" d="M360.2,230.4c0.2,0.2,0.6,0.4,0.9,0.4c0.7,0,1.3-0.5,1.3-1.2c0,0,0,0,0,0c0-0.3-0.1-0.6-0.3-0.8
		C361.4,229.2,360.8,229.8,360.2,230.4z"/>
	<path class="st6" d="M281.7,239.4c0,0.9-0.7,1.6-1.5,1.6c-0.9,0-1.6-0.7-1.6-1.5c0-0.9,0.7-1.6,1.5-1.6c0,0,0,0,0,0
		C281,237.8,281.7,238.5,281.7,239.4C281.7,239.4,281.7,239.4,281.7,239.4z"/>
	<path class="st13" d="M279.2,240.3c0.2,0.2,0.6,0.4,0.9,0.4c0.7,0,1.3-0.6,1.3-1.3c0,0,0,0,0,0c0-0.3-0.1-0.6-0.3-0.8
		C280.4,239.1,279.8,239.7,279.2,240.3z"/>
	<path class="st6" d="M287.9,239.4c0,0.9-0.7,1.6-1.5,1.6c-0.9,0-1.6-0.7-1.6-1.5c0-0.9,0.7-1.6,1.5-1.6c0,0,0,0,0.1,0
		C287.2,237.8,287.9,238.5,287.9,239.4C287.9,239.4,287.9,239.4,287.9,239.4z"/>
	<path class="st13" d="M285.4,240.3c0.5,0.5,1.3,0.5,1.8,0c0.3-0.2,0.4-0.6,0.4-0.9c0-0.3-0.1-0.6-0.3-0.8
		C286.6,239.1,286,239.7,285.4,240.3z"/>
	<path class="st6" d="M294.1,239.4c0,0.9-0.7,1.6-1.5,1.6c-0.9,0-1.6-0.7-1.6-1.5c0-0.9,0.7-1.6,1.5-1.6c0,0,0,0,0,0
		C293.4,237.8,294.1,238.5,294.1,239.4C294.1,239.4,294.1,239.4,294.1,239.4z"/>
	<path class="st13" d="M291.6,240.3c0.5,0.5,1.3,0.5,1.8,0c0.2-0.2,0.4-0.6,0.4-0.9c0-0.3-0.1-0.6-0.3-0.8
		C292.9,239.1,292.2,239.7,291.6,240.3z"/>
	<path class="st6" d="M300.4,239.4c0,0.9-0.7,1.6-1.5,1.6c-0.9,0-1.6-0.7-1.6-1.5c0-0.9,0.7-1.6,1.5-1.6c0,0,0,0,0,0
		C299.7,237.8,300.4,238.5,300.4,239.4C300.4,239.4,300.4,239.4,300.4,239.4z"/>
	<path class="st13" d="M297.9,240.3c0.2,0.2,0.6,0.4,0.9,0.4c0.7,0,1.3-0.6,1.3-1.3c0,0,0,0,0,0c0-0.3-0.1-0.6-0.3-0.8
		C299.1,239.1,298.5,239.7,297.9,240.3z"/>
	<path class="st6" d="M306.6,239.4c0,0.9-0.7,1.6-1.5,1.6c-0.9,0-1.6-0.7-1.6-1.5c0-0.9,0.7-1.6,1.5-1.6c0,0,0,0,0,0
		C305.9,237.8,306.6,238.5,306.6,239.4C306.6,239.4,306.6,239.4,306.6,239.4z"/>
	<path class="st13" d="M304.1,240.3c0.2,0.2,0.6,0.4,0.9,0.4c0.7,0,1.3-0.6,1.3-1.3c0,0,0,0,0,0c0-0.3-0.1-0.6-0.3-0.8
		C305.3,239.1,304.7,239.7,304.1,240.3z"/>
	<path class="st6" d="M312.9,239.4c0,0.9-0.7,1.6-1.5,1.6c-0.9,0-1.6-0.7-1.6-1.5c0-0.9,0.7-1.6,1.5-1.6c0,0,0,0,0,0
		C312.1,237.8,312.8,238.5,312.9,239.4z"/>
	<path class="st13" d="M310.3,240.3c0.2,0.2,0.6,0.4,0.9,0.4c0.7,0,1.3-0.6,1.3-1.3c0,0,0,0,0,0c0-0.3-0.1-0.6-0.3-0.8
		C311.6,239.1,310.9,239.7,310.3,240.3z"/>
	<path class="st6" d="M319.1,239.4c0,0.9-0.7,1.6-1.5,1.6c-0.9,0-1.6-0.7-1.6-1.5c0-0.9,0.7-1.6,1.5-1.6c0,0,0,0,0.1,0
		C318.4,237.8,319.1,238.5,319.1,239.4C319.1,239.4,319.1,239.4,319.1,239.4z"/>
	<path class="st13" d="M316.6,240.3c0.5,0.5,1.3,0.5,1.8,0c0.3-0.2,0.4-0.6,0.4-0.9c0-0.3-0.1-0.6-0.3-0.8
		C317.8,239.1,317.2,239.7,316.6,240.3z"/>
	<path class="st6" d="M325.3,239.4c0,0.9-0.7,1.6-1.5,1.6c-0.9,0-1.6-0.7-1.6-1.5c0-0.9,0.7-1.6,1.5-1.6c0,0,0,0,0,0
		C324.6,237.8,325.3,238.5,325.3,239.4C325.3,239.4,325.3,239.4,325.3,239.4z"/>
	<path class="st13" d="M322.8,240.3c0.5,0.5,1.3,0.5,1.8,0c0.2-0.2,0.4-0.6,0.4-0.9c0-0.3-0.1-0.6-0.3-0.8
		C324,239.1,323.4,239.7,322.8,240.3z"/>
	<path class="st6" d="M331.5,239.4c0,0.9-0.7,1.6-1.5,1.6c-0.9,0-1.6-0.7-1.6-1.5c0-0.9,0.7-1.6,1.5-1.6c0,0,0,0,0,0
		C330.8,237.8,331.5,238.5,331.5,239.4C331.5,239.4,331.5,239.4,331.5,239.4z"/>
	<path class="st13" d="M329,240.3c0.2,0.2,0.6,0.4,0.9,0.4c0.7,0,1.3-0.6,1.3-1.3c0,0,0,0,0,0c0-0.3-0.1-0.6-0.3-0.8
		C330.2,239.1,329.6,239.7,329,240.3z"/>
	<path class="st6" d="M337.8,239.4c0,0.9-0.7,1.6-1.5,1.6c-0.9,0-1.6-0.7-1.6-1.5c0-0.9,0.7-1.6,1.5-1.6c0,0,0,0,0,0
		C337,237.8,337.8,238.5,337.8,239.4C337.8,239.4,337.8,239.4,337.8,239.4z"/>
	<path class="st13" d="M335.3,240.3c0.2,0.2,0.6,0.4,0.9,0.4c0.7,0,1.3-0.6,1.3-1.3c0,0,0,0,0,0c0-0.3-0.1-0.6-0.3-0.8
		C336.5,239.1,335.9,239.7,335.3,240.3z"/>
	<path class="st6" d="M344,239.4c0,0.9-0.7,1.6-1.5,1.6c-0.9,0-1.6-0.7-1.6-1.5c0-0.9,0.7-1.6,1.5-1.6c0,0,0,0,0,0
		C343.3,237.8,344,238.5,344,239.4z"/>
	<path class="st13" d="M341.5,240.3c0.2,0.2,0.6,0.4,0.9,0.4c0.7,0,1.3-0.6,1.3-1.3c0,0,0,0,0,0c0-0.3-0.1-0.6-0.3-0.8
		C342.7,239.1,342.1,239.7,341.5,240.3z"/>
	<path class="st6" d="M350.2,239.4c0,0.9-0.7,1.6-1.5,1.6c-0.9,0-1.6-0.7-1.6-1.5c0-0.9,0.7-1.6,1.5-1.6c0,0,0,0,0,0
		C349.5,237.8,350.2,238.5,350.2,239.4C350.2,239.4,350.2,239.4,350.2,239.4z"/>
	<path class="st13" d="M347.7,240.3c0.5,0.5,1.3,0.5,1.8,0c0.3-0.2,0.4-0.6,0.4-0.9c0-0.3-0.1-0.6-0.3-0.8
		C348.9,239.1,348.3,239.7,347.7,240.3z"/>
	<path class="st6" d="M356.5,239.4c0,0.9-0.7,1.6-1.5,1.6c-0.9,0-1.6-0.7-1.6-1.5c0-0.9,0.7-1.6,1.5-1.6c0,0,0,0,0,0
		C355.7,237.8,356.5,238.5,356.5,239.4C356.5,239.4,356.5,239.4,356.5,239.4z"/>
	<path class="st13" d="M354,240.3c0.5,0.5,1.3,0.5,1.8,0c0.2-0.2,0.4-0.6,0.4-0.9c0-0.3-0.1-0.6-0.3-0.8
		C355.2,239.1,354.6,239.7,354,240.3z"/>
	<path class="st6" d="M362.7,239.4c0,0.9-0.7,1.6-1.5,1.6c-0.9,0-1.6-0.7-1.6-1.5c0-0.9,0.7-1.6,1.5-1.6c0,0,0,0,0,0
		C362,237.8,362.7,238.5,362.7,239.4C362.7,239.4,362.7,239.4,362.7,239.4z"/>
	<path class="st13" d="M360.2,240.3c0.2,0.2,0.6,0.4,0.9,0.4c0.7,0,1.3-0.6,1.3-1.3c0,0,0,0,0,0c0-0.3-0.1-0.6-0.3-0.8
		C361.4,239.1,360.8,239.7,360.2,240.3z"/>
	<path class="st2" d="M270.4,221.8h-48.2c-2.2,0-4-1.7-4-3.9v-22.2c0-15.2,12.6-27.5,28.1-27.5s28.1,12.4,28.1,27.5v22.2
		C274.4,220.1,272.6,221.8,270.4,221.8z M226.2,214h40.2v-18.4c0-11.1-9-20.1-20.1-20.1c-11.1,0-20.1,9-20.1,20.1V214z"/>
	<rect x="215.2" y="211.1" class="st11" width="61.4" height="50.8"/>
	<path class="st12" d="M252.3,232.2c-0.1-3.7-3.3-6.6-6.9-6.4c-3.5,0.1-6.3,2.9-6.4,6.4c0,2.4,1.4,4.6,3.5,5.8l-1.1,11.5h8.6
		l-1.1-11.5C250.9,236.8,252.3,234.6,252.3,232.2z"/>
</g>
<g id="freepik--character-2--inject-106">
	<ellipse class="st0" cx="384.5" cy="423.9" rx="47.5" ry="10.4"/>
	<ellipse class="st14" cx="384.5" cy="423.9" rx="47.5" ry="10.4"/>
	<path class="st15" d="M359.7,413.3c0,0-11.5,6.4-11.5,9.5s7.1,1.2,11.8-1c4.7-2.2,8.3-3.8,8.3-8.1S359.7,413.3,359.7,413.3z"/>
	<path class="st15" d="M414.8,413.3c0,0,11.5,6.4,11.5,9.5s-7.1,1.2-11.8-1c-4.7-2.2-8.3-3.8-8.3-8.1S414.8,413.3,414.8,413.3z"/>
	<path class="st16" d="M364.3,308.5l-4.9,106.1c1.4,1.1,3.1,1.6,4.9,1.4c1.5-0.2,2.9-1,3.9-2.1l16.7-86.6h3.4l17.7,88.2
		c1.1,0.6,2.2,0.9,3.4,1c1.7,0,4.4-2.1,4.4-2.1l-5.6-105.7L364.3,308.5z"/>
	<polygon class="st17" points="381.5,244.2 359.2,253.2 365,304.4 407.7,304.4 415.5,251.3 391.3,243.7 	"/>
	<polygon class="st18" points="383.9,251.5 386.6,255.8 382.2,292.6 387.6,300.4 392.3,291.9 388.6,255.3 391.8,250.4 387.1,248.3 	
		"/>
	<polygon class="st15" points="387.1,248.3 383.5,254.4 377.1,246 380.7,241.8 	"/>
	<polygon class="st15" points="387.1,248.3 391.5,255 396.7,245.5 393.6,241.7 	"/>
	<polygon class="st17" points="378.5,262.7 363.4,262.7 363.4,267.7 370.9,270.6 378.5,267.4 	"/>
	<polygon class="st17" points="408.5,262.7 393.5,262.7 393.5,267.7 401,270.6 408.5,267.4 	"/>
	<rect x="364.3" y="303.5" class="st16" width="43.9" height="5"/>
	<path class="st16" d="M363.6,307.5l-7.6,3.1c-0.1,2.1,0,4.3,0.5,6.4c0.7,2.8,1.7,9,2.5,10.2c0.7,1.2,4.4,3.6,4.9,2.8
		s2.9-21.6,2.9-21.6L363.6,307.5z"/>
	<polygon class="st19" points="380.7,233.1 380.7,241.8 387.1,248.3 393.6,241.7 393.6,233 	"/>
	<path class="st19" d="M376.3,225.1c0,0-1.1-2.6-1.9-1s0.1,4.1,1.3,5.1c0.8,0.6,1.9,0.9,2.9,0.7l-0.6-3.7L376.3,225.1z"/>
	<path class="st19" d="M397.1,225.1c0,0,1.1-2.6,1.9-1s-0.1,4.1-1.3,5.1c-0.8,0.6-1.9,0.9-2.9,0.7l0.6-3.7L397.1,225.1z"/>
	<path class="st16" d="M378.4,208c0,0-5.4,2.2-5.4,5.9s0.8,7.9,2,9.5s2.3,2.7,2.3,2.7l0.3-5.3l3.7-6.3c0,0,6.1,3.8,9.2,3.8
		c1.7,0,3.4-0.1,5.1-0.4l1.1,6.3l1.7-4.6v-4.2c0,0,3.1-2.8,2.4-4.7s-11-7.7-17.4-6.2S378.4,208,378.4,208z"/>
	<path class="st19" d="M375.9,220.4c0,0,1.5,9.3,2.8,11.7c1.7,2.7,3.7,5.2,6.1,7.4c0.9,0.6,4.2,0.1,5.5,0.1s5-7.4,5.6-8.8
		c0.6-1.4,1-13,1-13l-1.1-2.1c0,0-5.5,1.4-9.8-0.4c-2.4-0.8-4.5-2.2-6.1-4.1c0,0-0.4,4.2-1.9,6.7S375.9,220.4,375.9,220.4z"/>
	<path class="st16" d="M385.7,221.4c-1.5-0.8-3.3-1.2-5-1.2c-1.5-0.1-3,0.2-4.3,0.9c0,0,0,4.2,1.4,5.8s5.5,1.1,6.6-0.2
		C385.6,225.3,385.7,221.4,385.7,221.4z"/>
	<path class="st16" d="M387.5,221.4c1.5-0.8,3.3-1.2,5-1.2c1.5-0.1,3,0.2,4.3,0.9c0,0,0,4.2-1.4,5.8s-5.5,1.1-6.6-0.2
		C387.6,225.3,387.5,221.4,387.5,221.4z"/>
	<line class="st5" x1="385.7" y1="221.4" x2="387.5" y2="221.4"/>
	<path class="st19" d="M359.4,299.7l8.1-0.2l6.1,5.5c0,0.7-0.3,1.4-0.7,1.9c-0.7,0.7-2.7,0.2-2.7,0.2s-1.5,3.6-4.2,3.6
		s-10-4.9-10-4.9L359.4,299.7z"/>
	<polygon class="st15" points="359.2,253.2 332,288.5 356,305.6 359.4,299.7 352.1,285.7 362.1,276.7 	"/>
	<line class="st10" x1="357.5" y1="295.6" x2="353.3" y2="303"/>
	<line class="st10" x1="352.1" y1="285.7" x2="348.9" y2="277.6"/>
	<path class="st19" d="M415.5,299.7l-8.1-0.2l-6.1,5.5c0,0.7,0.3,1.4,0.7,1.9c0.7,0.7,2.7,0.2,2.7,0.2s1.5,3.6,4.2,3.6
		s10-4.9,10-4.9L415.5,299.7z"/>
	<polygon class="st17" points="415.5,251.3 443,288.5 419,305.6 415.5,299.7 422.9,285.7 411.4,276.4 	"/>
	<line class="st10" x1="417.5" y1="295.6" x2="421.7" y2="303"/>
	<line class="st10" x1="422.9" y1="285.7" x2="426.1" y2="277.6"/>
</g>
<g id="freepik--character-1--inject-106">
	<ellipse class="st0" cx="106.5" cy="426.5" rx="47.5" ry="10.5"/>
	<ellipse class="st14" cx="106.5" cy="426.5" rx="47.5" ry="10.5"/>
	<path class="st15" d="M81.8,415.8c0,0-11.5,6.5-11.5,9.6s7.1,1.2,11.8-1s8.3-3.8,8.3-8.2S81.8,415.8,81.8,415.8z"/>
	<path class="st15" d="M137,415.8c0,0,11.5,6.5,11.5,9.6s-7.1,1.2-11.8-1s-8.3-3.8-8.3-8.2S137,415.8,137,415.8z"/>
	<path class="st16" d="M86.5,309.7L81.6,417c1.4,1.1,3.1,1.6,4.9,1.4c1.5-0.2,2.9-1,3.9-2.2l16.7-87.6h3.4l17.6,89.3
		c1.1,0.6,2.2,0.9,3.4,1c1.7,0,4.4-2.2,4.4-2.2l-5.6-107L86.5,309.7z"/>
	<polygon class="st15" points="103.6,244.7 81.3,253.8 87.2,305.6 129.9,305.6 137.7,251.9 113.4,244.2 	"/>
	<rect x="86.5" y="304.6" class="st16" width="43.9" height="5"/>
	<path class="st16" d="M85.7,308.7l-7.6,3.1c-0.1,2.2,0,4.4,0.5,6.5c0.7,2.9,1.7,9.1,2.5,10.3s4.4,3.6,4.9,2.9s2.9-21.8,2.9-21.8
		L85.7,308.7z"/>
	<polygon class="st19" points="102.9,233.5 102.9,242.2 109.3,248.9 115.8,242.1 115.8,233.4 	"/>
	<path class="st19" d="M98.4,225.4c0,0-1.2-2.6-1.9-1s0.1,4.1,1.3,5.1c0.8,0.6,1.9,0.9,2.9,0.8l-0.6-3.8L98.4,225.4z"/>
	<path class="st19" d="M119.2,225.4c0,0,1.2-2.6,1.9-1s-0.1,4.1-1.3,5.1c-0.8,0.6-1.9,0.9-2.9,0.8l0.6-3.8L119.2,225.4z"/>
	<path class="st16" d="M100.6,208c0,0-5.4,2.2-5.4,6s0.8,8,2,9.6s2.3,2.8,2.3,2.8l0.2-5.4l3.7-6.4c0,0,6.1,3.9,9.2,3.9
		c1.7,0,3.4-0.1,5.1-0.4l1.2,6.4l1.7-4.6v-4.2c0,0,3.1-2.9,2.4-4.8s-11-7.8-17.4-6.2S100.6,208,100.6,208z"/>
	<path class="st19" d="M98,220.6c0,0,1.5,9.4,2.8,11.9c1.7,2.8,3.8,5.3,6.2,7.5c0.9,0.6,4.2,0.1,5.5,0.1s5-7.5,5.6-8.9
		s1-13.1,1-13.1L118,216c0,0-5.5,1.4-9.8-0.4c-2.4-0.8-4.5-2.3-6.1-4.1c0,0-0.4,4.2-1.9,6.8S98,220.6,98,220.6z"/>
	<path class="st16" d="M107.9,221.6c-1.5-0.8-3.3-1.2-5-1.2c-1.5-0.1-3,0.2-4.3,0.9c0,0,0,4.2,1.4,5.9s5.5,1.1,6.6-0.2
		S107.9,221.6,107.9,221.6z"/>
	<path class="st16" d="M109.7,221.6c1.5-0.8,3.3-1.2,5-1.2c1.5-0.1,3,0.2,4.3,0.9c0,0,0,4.2-1.4,5.9s-5.5,1.1-6.6-0.2
		S109.7,221.6,109.7,221.6z"/>
	<line class="st5" x1="107.9" y1="221.6" x2="109.7" y2="221.6"/>
	<polygon class="st18" points="106.1,252.1 108.8,256.4 104.4,293.6 109.8,301.5 114.4,292.9 110.8,255.9 113.9,250.9 109.3,248.9 	
		"/>
	<polygon class="st15" points="109.3,248.9 105.7,255 99.3,246.5 102.9,242.2 	"/>
	<polygon class="st15" points="109.3,248.9 113.6,255.6 118.8,246 115.8,242.1 	"/>
	<polygon class="st15" points="81.3,253.8 54.1,289.5 78.1,306.8 81.6,300.8 74.2,286.6 84.3,277.5 	"/>
	<path class="st19" d="M81.6,300.8l8.1-0.2l6.1,5.5c0,0.7-0.3,1.4-0.7,1.9c-0.7,0.7-2.7,0.2-2.7,0.2s-1.5,3.6-4.2,3.6s-10-5-10-5
		L81.6,300.8z"/>
	<line class="st10" x1="79.6" y1="296.7" x2="75.4" y2="304.2"/>
	<line class="st10" x1="74.2" y1="286.6" x2="71" y2="278.5"/>
	<polygon class="st15" points="137.7,251.9 165.2,289.5 141.1,306.8 137.7,300.8 145.1,286.6 133.5,277.3 	"/>
	<path class="st19" d="M137.7,300.8l-8.1-0.2l-6.1,5.5c0,0.7,0.3,1.4,0.7,1.9c0.7,0.7,2.7,0.2,2.7,0.2s1.5,3.6,4.2,3.6s10-5,10-5
		L137.7,300.8z"/>
	<line class="st10" x1="139.7" y1="296.7" x2="143.8" y2="304.2"/>
	<line class="st10" x1="145.1" y1="286.6" x2="148.2" y2="278.5"/>
	<polygon class="st15" points="100.6,263.4 85.6,263.4 85.6,268.5 93.1,271.4 100.6,268.2 	"/>
	<polygon class="st15" points="130.7,263.4 115.7,263.4 115.7,268.5 123.2,271.4 130.7,268.2 	"/>
</g>
</svg>
