<?xml version="1.0" encoding="utf-8"?>
<!-- Generator: Adobe Illustrator 26.2.1, SVG Export Plug-In . SVG Version: 6.00 Build 0)  -->
<svg version="1.1" id="Layer_1" xmlns="http://www.w3.org/2000/svg" xmlns:xlink="http://www.w3.org/1999/xlink" x="0px" y="0px"
	 viewBox="0 0 750 500" style="enable-background:new 0 0 750 500;" xml:space="preserve">
<style type="text/css">
	.st0{fill:#F5F5F5;}
	.st1{fill:#E0E0E0;}
	.st2{fill:#EBEBEB;}
	.st3{fill:#263238;}
	.st4{fill:#D94F04;}
	.st5{opacity:0.2;}
	.st6{fill:#FAFAFA;}
	.st7{fill:#455A64;}
	.st8{fill:#FFFFFF;}
	.st9{fill:none;}
	.st10{fill:#007172;}
	.st11{fill:#FFBE9D;}
	.st12{fill:#EB996E;}
</style>
<g id="freepik--background-complete--inject-41">
	<rect x="165.2" y="50.3" class="st0" width="60.4" height="82.7"/>
	<rect x="149.9" y="60.7" class="st1" width="60.4" height="82.7"/>
	<path class="st2" d="M495.1,173.7h-0.4h-1.2H489l-17.1,0.1L413,174h-0.2v-0.2c-2.3-7.8,2.2-15.9,9.9-18.2c1.5-0.4,3-0.6,4.5-0.6
		l-0.2,0.3c-0.4-1.3-0.5-2.7-0.5-4c0.1-4.6,2.7-8.8,6.7-11c3.9-2,8.6-2,12.5,0.1l-0.3,0.1c2.2-5,6.3-8.9,11.4-10.6
		c4.7-1.8,10-1.5,14.5,0.7c4,2.1,7.2,5.6,9,9.8c1.6,3.7,2,7.8,1.1,11.8l-0.2-0.2c2.3-0.2,4.7,0.1,6.8,1c1.9,0.8,3.6,2,5.1,3.5
		c0.6,0.7,1.2,1.5,1.6,2.3c0.4,0.8,0.6,1.6,0.9,2.4c0.3,1.5,0.5,2.9,0.6,4.4c0.1,2.1-0.1,4.1-0.5,6.1c-0.1,0.5-0.3,1-0.4,1.6
		L495.1,173.7"/>
	<path class="st2" d="M652.1,134.4c-8.2,1.4-13.7,9.1-12.4,17.3s9.1,13.7,17.3,12.4c6.9-1.1,12-6.8,12.5-13.8l0,0l4.1-0.7l2.2-4.7
		l3.2,3.7l5.2-0.9l2.2-4.6l3.2,3.7l4.4-0.7l1.3-2.8l2,2.3l2.6-0.4l2.8-3.8l-4.9-5.4l-30.8,5.1C664.2,136.1,658.1,133.4,652.1,134.4z
		 M643.8,151.1c-0.4-2.4,1.2-4.6,3.6-5s4.6,1.2,5,3.6c0.4,2.3-1.2,4.6-3.5,5C646.4,155.1,644.2,153.5,643.8,151.1
		C643.8,151.1,643.8,151.1,643.8,151.1z"/>
	<path class="st2" d="M636.9,249.5l1.9,34.1c0.1,1.2,1.1,2.2,2.3,2.2l61.3,0.4c1.3,0,2.3-1,2.3-2.3c0,0,0,0,0,0l0.2-26.5
		c0-1.3-1-2.3-2.3-2.3c0,0,0,0,0,0h-37.7c-0.6,0-1.2-0.2-1.6-0.7l-6.5-6.5c-0.4-0.4-1-0.7-1.6-0.7l-15.9-0.1c-1.3,0-2.3,1-2.3,2.3
		C636.9,249.4,636.9,249.5,636.9,249.5z"/>
	
		<rect x="651.2" y="237.3" transform="matrix(7.330317e-03 -1 1 7.330317e-03 395.49 940.1063)" class="st0" width="40.1" height="67"/>
	<path class="st2" d="M632.5,254.1l4.8,41.8c0.1,0.7,0.7,1.3,1.5,1.3l65.3,0.5c0.8,0,1.4-0.6,1.5-1.4l3.6-41.8
		c0.1-0.8-0.5-1.5-1.3-1.6c0,0-0.1,0-0.1,0l-73.7-0.5c-0.8,0-1.5,0.6-1.5,1.5C632.5,254,632.5,254.1,632.5,254.1z"/>
	<path class="st2" d="M629.1,437.8c-15.5-10.9-19.1-31-18.5-49.2c0.1-3-0.2-6.2,1.2-8.9s4.8-4.5,7.5-3.2c2.2,1.1,3.2,3.7,4.5,5.8
		c1.7,2.9,4.1,5.2,7.1,6.8c1.9,1,4.3,1.6,6.2,0.6c2.6-1.4,2.9-5,2.9-8.1c0-5.6-0.1-11.2-0.1-16.8c-0.2-3,0.1-6,0.9-8.9
		c0.9-2.9,3-5.5,5.9-6.3s6.4,0.9,7,3.8c0.1,1.2,0.1,2.5,0.1,3.8c0.1,1.2,0.7,2.6,1.8,3s2.4-0.5,3.3-1.4c3.1-3,5.2-7,7.2-10.8
		s3.9-7.9,6.7-11.2s6.7-5.9,11-6.2s8.9,2.4,10,6.6s-1.4,8.5-4.1,12c-4,5.1-8.7,9.6-14,13.3c-1,0.6-1.8,1.5-2.3,2.5
		c-0.7,2,1.2,4,3.2,4.7c2.2,0.8,4.7,0.5,7,0.8s4.9,1.3,5.8,3.5c1.2,3.1-1.3,6.3-3.9,8.4c-5.1,4.2-10.8,7.6-17,9.8
		c-2.2,0.8-4.5,1.5-6.3,3.1s-2.9,4.3-1.8,6.4s3.8,2.8,6.2,2.4s4.4-1.7,6.6-2.5c4.1-1.6,9.5-1.3,12.1,2.3c1.6,2.5,2,5.6,1,8.4
		c-1,2.8-2.6,5.3-4.6,7.4c-6.6,7.9-15.1,13.8-24.7,17.3C647.6,440.3,638.7,441.2,629.1,437.8"/>
	<path class="st1" d="M628.9,451.2c0.8-8.4,2.5-16.7,4.9-24.8c3-9.9,6.6-19.5,10.7-29l3.2-7.5c1.1-2.5,2.1-4.9,3.3-7.2
		c2.3-4.4,4.8-8.7,7.5-12.9c2.6-4,5.2-7.7,7.6-11.1s4.8-6.6,7.1-9.4c3.6-4.4,7.5-8.6,11.7-12.4c1.5-1.3,2.7-2.3,3.5-3l0.9-0.8
		c0.1-0.1,0.2-0.2,0.3-0.2l-0.3,0.3c-0.2,0.2-0.5,0.5-0.9,0.8c-0.8,0.7-2,1.7-3.4,3.1c-4.1,3.8-8,8-11.5,12.4c-2.2,2.8-4.6,6-7,9.4
		s-5,7.1-7.6,11.1c-2.7,4.2-5.2,8.5-7.4,12.9c-1.2,2.3-2.2,4.7-3.2,7.2l-3.2,7.5c-4.1,9.5-7.7,19.1-10.7,29
		c-2.4,8.1-4.1,16.3-5,24.7"/>
	<path class="st1" d="M651.1,382.7c-0.1-0.4-0.2-0.9-0.3-1.3c-0.2-0.8-0.3-2-0.6-3.5c-0.4-3-0.9-7.1-1.3-11.7s-1-8.7-1.5-11.7
		c-0.2-1.5-0.4-2.7-0.6-3.5c-0.1-0.4-0.2-0.9-0.2-1.3c0.2,0.4,0.3,0.8,0.4,1.3c0.2,0.8,0.5,2,0.8,3.5c0.6,3,1.1,7.1,1.6,11.7
		s0.9,8.6,1.2,11.8c0.2,1.4,0.3,2.6,0.4,3.6C651.1,381.8,651.2,382.2,651.1,382.7z"/>
	<path class="st1" d="M689.8,375.4c-0.5,0.1-1,0.2-1.5,0.2c-1,0.1-2.4,0.2-4.2,0.4c-3.5,0.4-8.4,1.1-13.8,2.1s-10.2,2.1-13.6,3.1
		c-1.7,0.5-3.1,0.9-4.1,1.1c-0.5,0.2-1,0.3-1.5,0.4c0.5-0.2,0.9-0.4,1.5-0.6c0.9-0.3,2.3-0.8,4-1.3c3.4-1,8.2-2.2,13.6-3.2
		c4.6-0.9,9.2-1.5,13.8-1.9c1.8-0.2,3.2-0.2,4.2-0.2C688.8,375.4,689.3,375.4,689.8,375.4z"/>
	<path class="st1" d="M634.3,425.7c-0.1-0.1-0.2-0.3-0.3-0.5c-0.2-0.4-0.4-0.8-0.7-1.4c-0.6-1.2-1.3-3-2.3-5.2
		c-1.9-4.4-4.2-10.6-6.8-17.5s-4.9-13.1-6.6-17.6c-0.9-2.2-1.6-4-2.1-5.3l-0.6-1.4c-0.1-0.2-0.1-0.3-0.2-0.5
		c0.1,0.1,0.2,0.3,0.3,0.5l0.7,1.4c0.6,1.2,1.3,3,2.3,5.2c1.9,4.4,4.2,10.6,6.8,17.5s4.9,13.1,6.6,17.6l2.1,5.3l0.6,1.4
		C634.2,425.3,634.3,425.5,634.3,425.7z"/>
	<path class="st1" d="M685.7,409.1c-0.2,0.1-0.3,0.2-0.5,0.2l-1.5,0.5l-5.5,1.8c-4.7,1.5-11,3.7-18.1,6s-13.5,4.5-18.2,5.9
		c-2.3,0.7-4.2,1.3-5.6,1.6l-1.5,0.4c-0.2,0.1-0.4,0.1-0.5,0.1c0.2-0.1,0.3-0.2,0.5-0.2l1.5-0.5l5.5-1.8c4.7-1.5,11-3.7,18.1-6.1
		s13.5-4.5,18.2-5.9c2.3-0.7,4.2-1.3,5.6-1.6l1.5-0.4C685.3,409.1,685.5,409.1,685.7,409.1z"/>
</g>
<g id="freepik--Floor--inject-41">
	<path class="st3" d="M692.4,451.2c0,0.1-143.8,0.3-321.1,0.3s-321.1-0.1-321.1-0.3s143.7-0.2,321.1-0.2S692.4,451.1,692.4,451.2z"
		/>
</g>
<g id="freepik--Plant--inject-41">
	<path class="st4" d="M618.3,416.3c1.7,2.2,4.9,1.3,6.3-0.2s1.9-3.6,2.4-5.6c1.1-4.5,2.1-9.3,0.9-13.8c-0.3-1.4-1-2.6-2-3.7
		c-1-1-2.5-1.4-3.8-1.1c-1.6,0.5-2.5,2.1-3.1,3.6c-1.9,4.5-2.8,9.4-2.5,14.2C616.4,412.2,617.1,414.4,618.3,416.3"/>
	<g class="st5">
		<path d="M618.3,416.3c1.7,2.2,4.9,1.3,6.3-0.2s1.9-3.6,2.4-5.6c1.1-4.5,2.1-9.3,0.9-13.8c-0.3-1.4-1-2.6-2-3.7
			c-1-1-2.5-1.4-3.8-1.1c-1.6,0.5-2.5,2.1-3.1,3.6c-1.9,4.5-2.8,9.4-2.5,14.2C616.4,412.2,617.1,414.4,618.3,416.3"/>
	</g>
	<path class="st4" d="M625,427.8c2.7-1.4,5.7-2,8.7-1.5c1.6,0.1,3.2,0.7,4.4,1.7c1.2,1.1,1.5,3.2,0.3,4.3c-0.8,0.6-1.7,0.9-2.7,0.8
		c-2.3,0.1-4.9-0.2-6.7,1.3c-1,0.8-1.7,2.2-2.9,2.7c-1.3,0.4-2.7-0.2-3.4-1.3c-0.7-1.1-0.9-2.5-0.6-3.7
		C622.4,430.3,623.4,428.7,625,427.8z"/>
	<path class="st4" d="M614,419.9c1.6-2.3,1.9-5.2,0.9-7.9c-1-2.6-2.8-4.8-5-6.5c-2.5-2-5.4-3.5-8.5-4.5c-1.2-0.4-2.5-0.6-3.7-0.4
		c-1.3,0.1-2.4,0.9-3,2c-0.8,1.7,0.2,3.7,1.1,5.3c1.7,2.8,3.7,5.5,5.8,8c1.7,2,3.7,4,6.2,4.8s5.1,0.6,6.3-1.2"/>
	<path class="st3" d="M620,451.4c0.1-0.3,0.1-0.7,0.1-1.1c0-0.8,0.1-1.8,0.1-2.9s0.2-2.7,0.4-4.3c0.3-1.7,0.7-3.4,1.3-5.1
		c0.6-1.7,1.3-3.2,2.3-4.6c0.8-1.2,1.9-2.1,3.1-2.8c0.8-0.5,1.7-0.8,2.7-1c0.3,0,0.7-0.1,1-0.2c-0.4,0-0.7,0-1.1,0
		c-1,0.1-1.9,0.4-2.8,0.9c-1.3,0.7-2.4,1.7-3.3,2.9c-1,1.5-1.8,3.1-2.4,4.8c-0.6,1.7-1,3.4-1.3,5.2c-0.2,1.4-0.3,2.9-0.3,4.3
		c0,1.2,0,2.2,0,2.9C619.9,450.7,619.9,451.1,620,451.4z"/>
	<path class="st3" d="M620.1,449.2c0-0.2,0-0.3,0-0.5c0-0.4,0-0.8-0.1-1.4c-0.1-1.2-0.2-3-0.2-5.2c-0.1-4.4,0-10.4,0.3-17
		s1.1-12.6,1.7-17c0.2-1.1,0.3-2,0.5-2.9s0.3-1.6,0.4-2.2s0.2-1,0.3-1.4c0-0.2,0.1-0.3,0.1-0.5c-0.1,0.1-0.1,0.3-0.2,0.5l-0.3,1.4
		c-0.2,0.6-0.3,1.3-0.5,2.2s-0.4,1.8-0.5,2.9c-0.9,5.6-1.5,11.3-1.9,17c-0.4,6.6-0.4,12.7-0.2,17.1c0.1,2.2,0.2,4,0.3,5.2l0.2,1.4
		C620,448.9,620,449.1,620.1,449.2z"/>
	<path class="st3" d="M619.5,437.6c0-0.5,0-1-0.1-1.5c-0.2-1.3-0.4-2.6-0.7-4c-0.4-1.9-0.9-3.8-1.6-5.7c-0.8-2.3-1.7-4.6-2.8-6.7
		c-1.9-4-4.5-7.6-7.7-10.7c-0.6-0.5-1.1-1-1.8-1.5c-0.3-0.2-0.5-0.4-0.8-0.6l-0.7-0.4c-0.4-0.3-0.8-0.5-1.3-0.7
		c1.5,1.1,2.9,2.2,4.2,3.4c3.1,3.1,5.6,6.7,7.4,10.7c1.1,2.2,2,4.4,2.8,6.7c0.6,1.9,1.2,3.7,1.7,5.7c0.4,1.6,0.6,3,0.8,3.9
		C619.3,436.6,619.4,437.1,619.5,437.6z"/>
</g>
<g id="freepik--User--inject-41">
	<rect x="34.8" y="226.8" class="st6" width="113.1" height="75.7"/>
	<path class="st3" d="M117.2,272.7h-3v-18.1c-0.2-4.4-3.8-7.8-8.2-7.6c-4.1,0.1-7.5,3.5-7.6,7.6v18.1h-3v-18.1
		c0.2-6,5.2-10.8,11.2-10.6c5.8,0.2,10.4,4.8,10.6,10.6L117.2,272.7z"/>
	<path class="st3" d="M94.7,264.6h23.1c1.9,0,3.4,1.5,3.4,3.4v12.4c0,1.9-1.5,3.4-3.4,3.4H94.7c-1.9,0-3.4-1.5-3.4-3.4V268
		C91.3,266.1,92.9,264.6,94.7,264.6z"/>
	<path class="st7" d="M106.3,274.2c-1.4,0-2.5-1.1-2.5-2.5c0-1.4,1.1-2.5,2.5-2.5c1.4,0,2.5,1.1,2.5,2.5l0,0
		C108.7,273.1,107.6,274.2,106.3,274.2"/>
	<rect x="105.6" y="272.7" class="st7" width="1.4" height="5.1"/>
	<path class="st4" d="M90.6,272.5c4.4-1.9,7.2-6.3,7.2-11.2c0-6.7-5-12.1-11.3-12.1s-11.3,5.4-11.4,12c-0.1,4.9,2.7,9.3,7.2,11.3
		C65,275.1,65.7,294,65.7,294l41.2,0.2C106.9,294.2,107.9,275.1,90.6,272.5z"/>
	<path class="st3" d="M147.9,302.5c0,0,0-0.5,0-1.4s0-2.2,0-4c0-3.5,0-8.6-0.1-15.2c0-13.2-0.1-32.1-0.1-55.1l0.2,0.2h-113l0,0
		l0.3-0.3c0,27,0,52.6,0,75.7l-0.2-0.2l81.4,0.1l23.3,0.1h6.2h1.6h0.6h-2.1h-6.1l-23.2,0.1l-81.6,0.1h-0.2v-0.2
		c0-23.1,0-48.8,0-75.7v-0.3H35l113.1,0.1h0.2v0.2c0,23.1-0.1,42-0.1,55.2c0,6.6,0,11.7-0.1,15.2c0,1.7,0,3,0,4
		S147.9,302.5,147.9,302.5z"/>
	<path class="st3" d="M147.9,235.9c0,0.1-25.3,0.3-56.5,0.3s-56.5-0.1-56.5-0.3s25.3-0.3,56.5-0.3S147.9,235.7,147.9,235.9z"/>
	<path class="st3" d="M42.3,231.3c0,0.6-0.5,1.2-1.2,1.2s-1.2-0.5-1.2-1.2c0-0.6,0.5-1.2,1.2-1.2h0
		C41.7,230.1,42.3,230.7,42.3,231.3z"/>
	<path class="st3" d="M46.1,231.3c0,0.6-0.5,1.2-1.2,1.2c-0.6,0-1.2-0.5-1.2-1.2s0.5-1.2,1.2-1.2C45.6,230.1,46.1,230.7,46.1,231.3z
		"/>
	<path class="st3" d="M50.2,231.3c0,0.6-0.5,1.2-1.2,1.2c-0.6,0-1.2-0.5-1.2-1.2c0-0.6,0.5-1.2,1.1-1.2
		C49.6,230.1,50.2,230.6,50.2,231.3C50.2,231.3,50.2,231.3,50.2,231.3z"/>
	<path class="st3" d="M147.9,302.5c0,0,0-0.5,0-1.4s0-2.2,0-4c0-3.5,0-8.6-0.1-15.2c0-13.2-0.1-32.1-0.1-55.1l0.2,0.2h-113l0,0
		l0.3-0.3c0,27,0,52.6,0,75.7l-0.2-0.2l81.4,0.1l23.3,0.1h6.2h1.6h0.6h-2.1h-6.1l-23.2,0.1l-81.6,0.1h-0.2v-0.2
		c0-23.1,0-48.8,0-75.7v-0.3H35l113.1,0.1h0.2v0.2c0,23.1-0.1,42-0.1,55.2c0,6.6,0,11.7-0.1,15.2c0,1.7,0,3,0,4
		S147.9,302.5,147.9,302.5z"/>
	<path class="st3" d="M90.6,305c-0.1,0-0.3-0.6-0.3-1.2s0.1-1.2,0.3-1.2s0.3,0.6,0.3,1.2S90.8,305,90.6,305z"/>
	<path class="st3" d="M90.6,315.9c-0.3-0.9-0.3-1.8-0.3-2.7c-0.1-0.9,0-1.8,0.3-2.7c0.3,0.9,0.4,1.8,0.3,2.7
		C91,314.1,90.9,315,90.6,315.9z"/>
	<path class="st3" d="M90.6,326.9c-0.3-0.9-0.3-1.8-0.3-2.7c-0.1-0.9,0-1.8,0.3-2.7c0.3,0.9,0.4,1.8,0.3,2.7
		C91,325,90.9,326,90.6,326.9z"/>
	<path class="st3" d="M90.6,337.8c-0.3-0.9-0.3-1.8-0.3-2.7c-0.1-0.9,0-1.8,0.3-2.7c0.3,0.9,0.4,1.8,0.3,2.7
		C91,336,90.9,336.9,90.6,337.8z"/>
	<path class="st3" d="M90.6,348.7c-0.3-0.9-0.3-1.8-0.3-2.7c-0.1-0.9,0-1.8,0.3-2.7c0.3,0.9,0.4,1.8,0.3,2.7
		C91,346.9,90.9,347.9,90.6,348.7z"/>
	<path class="st3" d="M93.1,356.7c-0.8,0.3-1.7,0.3-2.5,0.3l-0.3-0.3l0,0v-0.9c0-0.3,0-0.6,0.1-0.8c0-0.5,0.1-0.7,0.2-0.7
		s0.1,0.3,0.2,0.7c0,0.2,0,0.5,0,0.8v0.5v0.5l0,0c-0.1-0.1,0.2,0.3-0.3-0.3C91.4,356.4,92.3,356.4,93.1,356.7z"/>
	<path class="st3" d="M102.9,356.7c-0.8,0.3-1.6,0.3-2.5,0.3c-0.8,0.1-1.7,0-2.4-0.3c0.8-0.3,1.6-0.3,2.4-0.3
		C101.3,356.4,102.1,356.5,102.9,356.7z"/>
	<path class="st3" d="M112.8,356.7c-0.8,0.3-1.6,0.3-2.5,0.3c-0.8,0.1-1.7,0-2.5-0.3c0.8-0.3,1.6-0.3,2.5-0.3
		C111.1,356.4,112,356.5,112.8,356.7z"/>
	<path class="st3" d="M122.6,356.7c-0.8,0.3-1.6,0.3-2.5,0.3c-0.8,0.1-1.7,0-2.5-0.3c0.8-0.3,1.6-0.3,2.5-0.3
		C121,356.4,121.8,356.5,122.6,356.7z"/>
	<path class="st3" d="M132.4,356.7c-1.6,0.3-3.3,0.3-4.9,0C129.1,356.4,130.8,356.4,132.4,356.7z"/>
	<path class="st3" d="M142.2,356.7c-1.6,0.3-3.3,0.3-4.9,0C139,356.4,140.6,356.4,142.2,356.7z"/>
	<path class="st3" d="M152.1,356.7c-1.6,0.3-3.3,0.3-4.9,0C148.8,356.4,150.5,356.4,152.1,356.7z"/>
	<path class="st3" d="M161.9,356.7c-1.6,0.3-3.3,0.3-4.9,0C158.6,356.4,160.3,356.4,161.9,356.7z"/>
	<path class="st3" d="M171.7,356.7c-1.6,0.3-3.3,0.3-4.9,0C168.4,356.4,170.1,356.4,171.7,356.7z"/>
	<path class="st3" d="M181.6,356.7c-1.6,0.3-3.3,0.3-4.9,0C178.3,356.4,179.9,356.4,181.6,356.7z"/>
	<path class="st3" d="M191.4,356.7c-1.6,0.3-3.3,0.3-4.9,0C188.1,356.4,189.8,356.4,191.4,356.7z"/>
	<path class="st3" d="M198.8,356.7c0,0.1-0.6,0.3-1.2,0.3s-1.2-0.1-1.2-0.3s0.6-0.3,1.2-0.3S198.8,356.6,198.8,356.7z"/>
</g>
<g id="freepik--Document--inject-41">
	<rect x="139.6" y="73.4" class="st8" width="60.4" height="82.7"/>
	<path class="st3" d="M200,156c0,0,0-0.1,0-0.4s0-0.7,0-1.2c0-1,0-2.6,0-4.5c0-3.9,0-9.7-0.1-17c0-14.6-0.1-35.2-0.2-59.6l0.3,0.3
		l-60.4,0.1l0,0l0.3-0.3V156l-0.2-0.2l43.9,0.1l12.2,0.1h3.2L200,156c0.1-0.1-0.3-0.1-1-0.1h-3.2l-12.2,0.1l-44,0.2h-0.2v-0.2
		c0-23.2-0.1-51.8-0.1-82.7v-0.3h0.3H200h0.3v0.3c0,24.5-0.1,45.2-0.1,59.8c0,7.2,0,13-0.1,16.9c0,1.9,0,3.4,0,4.5
		c0,0.5,0,0.9,0,1.1C200.1,155.7,200.1,155.8,200,156z"/>
	<path class="st3" d="M176.5,90c0,0.2-6.6,0.3-14.7,0.3s-14.7-0.1-14.7-0.3s6.6-0.3,14.7-0.3S176.5,89.8,176.5,90z"/>
	<path class="st3" d="M192.4,97.2c0,0.2-10.1,0.3-22.6,0.3s-22.6-0.1-22.6-0.3s10.1-0.3,22.6-0.3S192.4,97,192.4,97.2z"/>
	<path class="st3" d="M192.4,104.7c0,0.2-10.1,0.3-22.6,0.3s-22.6-0.1-22.6-0.3s10.1-0.3,22.6-0.3S192.4,104.5,192.4,104.7z"/>
	<path class="st3" d="M192.4,112.2c0,0.2-10.1,0.3-22.6,0.3s-22.6-0.1-22.6-0.3s10.1-0.3,22.6-0.3S192.4,112,192.4,112.2z"/>
	<path class="st3" d="M192.4,119.7c0,0.2-10.1,0.3-22.6,0.3s-22.6-0.1-22.6-0.3s10.1-0.3,22.6-0.3S192.4,119.5,192.4,119.7z"/>
	<path class="st3" d="M192.4,127.2c0,0.2-10.1,0.3-22.6,0.3s-22.6-0.1-22.6-0.3s10.1-0.3,22.6-0.3S192.4,127,192.4,127.2z"/>
	<path class="st3" d="M192.4,134.6c0,0.2-10.1,0.3-22.6,0.3s-22.6-0.1-22.6-0.3s10.1-0.3,22.6-0.3S192.4,134.5,192.4,134.6z"/>
	<path class="st3" d="M171.5,142.1c0,0.2-5.4,0.3-12.1,0.3s-12.2-0.1-12.2-0.3s5.4-0.3,12.2-0.3S171.5,142,171.5,142.1z"/>
	<circle class="st4" cx="194.7" cy="149.8" r="12.3"/>
	<path class="st1" d="M201.8,145.1c0.5,0.5-1.9,3.9-5.4,7.7c-0.6,0.6-1.1,1.2-1.6,1.7l-0.9,0.8l-0.9-0.7c-3.1-2.6-5.1-4.8-4.7-5.2
		s3,0.9,6.2,3.3l-1.7,0.1c0.5-0.6,1-1.2,1.6-1.8C198,147.2,201.2,144.6,201.8,145.1z"/>
	<path class="st3" d="M165.2,160.6c-0.3-1.6-0.3-3.4,0-5C165.5,157.2,165.5,158.9,165.2,160.6z"/>
	<path class="st3" d="M165.2,170.6c-0.3-1.6-0.3-3.4,0-5C165.5,167.2,165.5,168.9,165.2,170.6z"/>
	<path class="st3" d="M165.2,180.6c-0.3-1.6-0.3-3.4,0-5C165.5,177.2,165.5,178.9,165.2,180.6z"/>
	<path class="st3" d="M165.2,190.6c-0.3-1.6-0.3-3.4,0-5C165.5,187.2,165.5,188.9,165.2,190.6z"/>
	<path class="st3" d="M165.2,200.6c-0.3-1.6-0.3-3.4,0-5C165.5,197.2,165.5,198.9,165.2,200.6z"/>
	<path class="st3" d="M165.2,210.6c-0.3-1.6-0.3-3.4,0-5C165.5,207.2,165.5,208.9,165.2,210.6z"/>
	<path class="st3" d="M165.2,220.6c-0.3-1.6-0.3-3.4,0-5C165.5,217.2,165.5,218.9,165.2,220.6z"/>
	<path class="st3" d="M165.2,230.6c-0.3-1.6-0.3-3.4,0-5C165.5,227.2,165.5,228.9,165.2,230.6z"/>
	<path class="st3" d="M170,235.7c-0.8,0.3-1.7,0.3-2.5,0.3c-0.8,0-1.6,0-2.3-0.2h-0.1v-0.1c0-0.1,0.1-0.2,0.1-0.2s0.1,0.1,0.1,0.2
		l-0.1-0.1c0.8-0.1,1.5-0.2,2.3-0.2C168.3,235.4,169.2,235.5,170,235.7z"/>
	<path class="st3" d="M180,235.7c-1.6,0.3-3.4,0.3-5,0C176.6,235.4,178.4,235.4,180,235.7z"/>
	<path class="st3" d="M190,235.7c-1.6,0.3-3.4,0.3-5,0C186.6,235.4,188.4,235.4,190,235.7z"/>
	<path class="st3" d="M200,235.7c-1.6,0.3-3.4,0.3-5,0C196.6,235.4,198.4,235.4,200,235.7z"/>
	<path class="st3" d="M210,235.7c-1.6,0.3-3.4,0.3-5,0C206.6,235.4,208.4,235.4,210,235.7z"/>
</g>
<g id="freepik--Cloud--inject-41">
	<path class="st3" d="M376.6,145.3c-0.3-1.6-0.3-3.4,0-5C376.9,141.9,376.9,143.6,376.6,145.3z"/>
	<path class="st3" d="M376.6,155.3c-0.3-1.6-0.3-3.4,0-5C376.9,151.9,376.9,153.6,376.6,155.3z"/>
	<path class="st3" d="M376.6,165.3c-0.3-1.6-0.3-3.4,0-5C376.9,161.9,376.9,163.6,376.6,165.3z"/>
	<path class="st3" d="M376.6,175.3c-0.3-1.6-0.3-3.4,0-5C376.9,171.9,376.9,173.6,376.6,175.3z"/>
	<path class="st3" d="M376.6,185.3c-0.3-1.6-0.3-3.4,0-5C376.9,181.9,376.9,183.6,376.6,185.3z"/>
	<path class="st3" d="M376.6,195.3c-0.3-1.6-0.3-3.4,0-5C376.9,191.9,376.9,193.6,376.6,195.3z"/>
	<path class="st3" d="M376.6,205.3c-0.3-1.6-0.3-3.4,0-5C376.9,201.9,376.9,203.6,376.6,205.3z"/>
	<path class="st3" d="M376.6,215.3c-0.3-1.6-0.3-3.4,0-5C376.9,211.9,376.9,213.6,376.6,215.3z"/>
	<path class="st4" d="M444.5,151.7h-0.6h-1.8h-6.9l-25.8,0.1l-89.2,0.2H320l-0.1-0.2c-3.4-11.7,3.3-24.1,15.1-27.5
		c2.2-0.6,4.5-0.9,6.8-0.9l-0.3,0.4c-0.5-2-0.8-4-0.7-6c0.3-6.9,4.2-13.6,10.2-16.6c5.9-3.1,13-3.1,18.9,0.1l-0.5,0.2
		c3.3-7.5,9.5-13.4,17.3-16.1c7.4-2.7,15.5-2.3,21.9,1c6.1,3.2,10.9,8.5,13.6,14.8c2.5,5.6,3,11.8,1.7,17.8l-0.2-0.3
		c3.5-0.4,7.1,0.1,10.4,1.5c2.9,1.2,5.5,3,7.7,5.2c1,1,1.8,2.2,2.4,3.5c0.6,1.2,1,2.4,1.3,3.7c0.5,2.2,0.8,4.4,0.9,6.7
		c0.1,3.1-0.2,6.2-0.8,9.3c-0.2,0.8-0.4,1.6-0.6,2.3C444.6,151.5,444.5,151.7,444.5,151.7"/>
	<path class="st1" d="M433.2,117.4h-3.9V94.3c0-5.6-4.5-10.1-10.1-10.1s-10.1,4.5-10.1,10.1c0,0,0,0,0,0v23.2h-3.9V94.3
		c0-7.7,6.2-13.9,13.9-13.9s13.9,6.2,13.9,13.9V117.4z"/>
	<path class="st1" d="M403.6,107.1h31.3c1.9,0,3.4,1.5,3.4,3.4v17.7c0,1.9-1.5,3.4-3.4,3.4h-31.3c-1.9,0-3.4-1.5-3.4-3.4v-17.7
		C400.2,108.7,401.7,107.1,403.6,107.1z"/>
	<path class="st7" d="M419.2,119.4c-1.8,0-3.2-1.4-3.2-3.2s1.4-3.2,3.2-3.2c1.8,0,3.2,1.4,3.2,3.2c0,0,0,0,0,0
		C422.4,117.9,421,119.4,419.2,119.4"/>
	<rect x="418.4" y="117.4" class="st7" width="1.7" height="6.6"/>
</g>
<g id="freepik--Key--inject-41">
	<path class="st3" d="M653.6,109.8c8.4-7.8,8.9-21,1.1-29.5s-21-8.9-29.5-1.1c-7.1,6.6-8.7,17.1-3.9,25.5l-4.2,4l1,7l-6.6-1.8
		l-5.3,5l1,7l-6.6-1.8l-4.5,4.2l0.6,4.3l-4-1.1L590,134l-0.4,6.5l9.7,2.4l31.6-29.5C638.5,116.9,647.5,115.5,653.6,109.8z
		 M650.5,84.1c2.3,2.4,2.1,6.2-0.3,8.5c-2.4,2.3-6.2,2.1-8.5-0.3c-2.3-2.4-2.1-6.2,0.3-8.5c0,0,0,0,0,0
		C644.5,81.6,648.3,81.7,650.5,84.1L650.5,84.1z"/>
	<path class="st9" d="M653.6,109.8c8.4-7.8,8.9-21,1.1-29.5s-21-8.9-29.5-1.1c-7.1,6.6-8.7,17.1-3.9,25.5l-4.2,4l1,7l-6.6-1.8
		l-5.3,5l1,7l-6.6-1.8l-4.5,4.2l0.6,4.3l-4-1.1L590,134l-0.4,6.5l9.7,2.4l31.6-29.5C638.5,116.9,647.5,115.5,653.6,109.8z
		 M650.5,84.1c2.3,2.4,2.1,6.2-0.3,8.5c-2.4,2.3-6.2,2.1-8.5-0.3c-2.3-2.4-2.1-6.2,0.3-8.5c0,0,0,0,0,0
		C644.5,81.6,648.3,81.7,650.5,84.1L650.5,84.1z"/>
	<path class="st3" d="M650.5,84.1c0,0-0.4-0.4-1.2-0.9c-1.1-0.7-2.5-1-3.8-0.8c-3.2,0.3-5.5,3.2-5.1,6.3c0.3,3.2,3.2,5.5,6.3,5.1
		c2.5-0.3,4.6-2.2,5.1-4.7c0.2-1.3,0-2.6-0.6-3.8C650.9,84.5,650.5,84.2,650.5,84.1s0.1,0.1,0.3,0.3c0.3,0.3,0.5,0.6,0.7,0.9
		c0.7,1.2,1,2.6,0.8,4c-0.6,3.4-3.7,5.6-7.1,5.1c0,0-0.1,0-0.1,0c-2.7-0.5-4.7-2.7-5-5.4c-0.4-3.4,2-6.4,5.4-6.8c0.1,0,0.1,0,0.2,0
		c1.4-0.1,2.8,0.2,3.9,1c0.3,0.2,0.6,0.4,0.8,0.7C650.4,83.9,650.5,84,650.5,84.1z"/>
	<path class="st3" d="M653.6,109.8c-0.1,0.1-0.2,0.2-0.3,0.3l-0.9,0.8c-1.2,1-2.6,1.9-4,2.6c-5.5,2.7-12,2.7-17.6,0.2h0.2
		l-31.5,29.5l-0.1,0.1h-0.1l-9.7-2.4l-0.2-0.1v-0.2c0.1-2,0.2-4.3,0.4-6.5V134l0.1-0.1l2.7-2.5l0.1-0.1h0.1l4,1.1l-0.3,0.3
		c-0.2-1.3-0.4-2.8-0.6-4.3v-0.1l0.1-0.1l4.6-4.3l0.1-0.1h0.1l6.6,1.8l-0.3,0.3c-0.3-2.2-0.7-4.6-1-7v-0.1l0.1-0.1l1.4-1.3l3.9-3.6
		l0.1-0.1h0.1l6.6,1.8l-0.3,0.3c-0.3-2.4-0.7-4.7-1-7v-0.1l0.1-0.1l4.2-4l0,0.3c-1.6-2.9-2.6-6.2-2.7-9.5c-0.1-1.6,0-3.2,0.3-4.8
		c0.3-1.6,0.8-3.1,1.4-4.5c4.6-10.7,16.9-15.6,27.6-11c4.6,2,8.4,5.6,10.6,10.1c1.7,3.4,2.3,7.2,2,11c-0.2,2.8-1,5.5-2.3,8l-0.4,0.7
		l-0.4,0.7c-0.3,0.4-0.5,0.8-0.8,1.2c-0.6,0.7-1,1.3-1.4,1.7l-1,1L653.6,109.8l0.3-0.3l0.9-1c0.4-0.4,0.8-1,1.4-1.7
		c0.3-0.3,0.5-0.8,0.8-1.2l0.4-0.7l0.4-0.7c3-5.9,3.1-12.8,0.2-18.8c-4.5-9.1-15.1-13.6-24.8-10.5c-5.6,1.8-10.2,5.9-12.6,11.4
		c-0.6,1.4-1.1,2.9-1.3,4.4c-0.3,1.6-0.4,3.1-0.3,4.7c0.1,3.3,1.1,6.4,2.7,9.3l0.1,0.2l-0.1,0.1l-4.2,4l0.1-0.2c0.3,2.3,0.7,4.7,1,7
		l0.1,0.4l-0.4-0.1l-6.6-1.8l0.2-0.1l-3.9,3.6l-1.4,1.3l0.1-0.2c0.3,2.4,0.7,4.8,1,7l0.1,0.4l-0.4-0.1l-6.6-1.8l0.2-0.1l-4.6,4.3
		l0.1-0.2c0.2,1.5,0.4,2.9,0.6,4.3v0.4l-0.4-0.1l-4-1.1l0.2-0.1l-2.7,2.5l0.1-0.2c-0.1,2.3-0.3,4.5-0.4,6.5l-0.2-0.2l9.7,2.5h-0.2
		l31.6-29.4l0.1-0.1h0.1c5.5,2.5,11.9,2.4,17.4-0.1c1.4-0.7,2.8-1.5,4-2.5c0.4-0.3,0.7-0.6,0.9-0.8L653.6,109.8z"/>
	<path class="st1" d="M652.9,107.4c8.4-7.8,8.9-21,1.1-29.5s-21-8.9-29.5-1.1c-7.1,6.6-8.7,17.1-3.9,25.5l0,0l-4.2,4l1,7l-6.6-1.8
		l-5.3,5l1,7l-6.6-1.8l-4.5,4.3l0.6,4.3l-4-1.1l-2.7,2.5l-0.4,6.5l9.7,2.4l31.6-29.4C637.8,114.6,646.8,113.1,652.9,107.4z
		 M649.8,81.8c2.3,2.4,2.2,6.2-0.3,8.5c-2.4,2.3-6.2,2.2-8.5-0.3c-2.3-2.4-2.2-6.2,0.3-8.5c0,0,0,0,0,0
		C643.8,79.2,647.6,79.3,649.8,81.8L649.8,81.8z"/>
	<path class="st9" d="M652.9,107.4c8.4-7.8,8.9-21,1.1-29.5s-21-8.9-29.5-1.1c-7.1,6.6-8.7,17.1-3.9,25.5l0,0l-4.2,4l1,7l-6.6-1.8
		l-5.3,5l1,7l-6.6-1.8l-4.5,4.3l0.6,4.3l-4-1.1l-2.7,2.5l-0.4,6.5l9.7,2.4l31.6-29.4C637.8,114.6,646.8,113.1,652.9,107.4z
		 M649.8,81.8c2.3,2.4,2.2,6.2-0.3,8.5c-2.4,2.3-6.2,2.2-8.5-0.3c-2.3-2.4-2.2-6.2,0.3-8.5c0,0,0,0,0,0
		C643.8,79.2,647.6,79.3,649.8,81.8L649.8,81.8z"/>
	<path class="st3" d="M649.8,81.8c0,0-0.4-0.4-1.2-0.8c-1.1-0.7-2.4-1-3.8-0.8c-3.2,0.3-5.4,3.2-5.1,6.3c0.3,3.2,3.2,5.4,6.3,5.1
		c2.5-0.3,4.6-2.2,5.1-4.7c0.2-1.3,0-2.6-0.6-3.8C650.2,82.2,649.8,81.8,649.8,81.8c0,0,0.1,0.1,0.3,0.3c0.3,0.3,0.5,0.6,0.7,0.9
		c0.7,1.2,1,2.6,0.8,4c-0.5,3.4-3.7,5.7-7.1,5.1c0,0-0.1,0-0.1,0c-2.7-0.5-4.7-2.7-5-5.4c-0.1-1.2,0.1-2.5,0.7-3.6
		c1-1.9,2.8-3.1,4.9-3.3c1.4-0.1,2.8,0.2,3.9,1c0.3,0.2,0.6,0.4,0.8,0.7C649.8,81.6,649.8,81.7,649.8,81.8z"/>
	<path class="st3" d="M652.9,107.4c-0.1,0.1-0.2,0.2-0.3,0.3l-0.9,0.8c-1.2,1-2.6,1.9-4,2.6c-5.5,2.7-12,2.7-17.6,0.2h0.2
		l-31.5,29.5l-0.1,0.1h-0.1l-9.7-2.4h-0.2v-0.2c0.1-2,0.2-4.3,0.4-6.5v-0.1l0.1-0.1c0.8-0.8,1.7-1.6,2.7-2.5l0.1-0.1h0.1l4,1.1
		l-0.3,0.3c-0.2-1.3-0.4-2.8-0.6-4.3V126l0.1-0.1l4.6-4.2l0.1-0.1h0.1l6.6,1.8l-0.3,0.3c-0.3-2.2-0.7-4.6-1-7v-0.1l0.1-0.1l1.4-1.3
		l3.9-3.6l0.1-0.1h0.1l6.6,1.8l-0.3,0.3c-0.3-2.4-0.7-4.7-1-7v-0.1l0.1-0.1l4.2-4v0.3c-1.6-2.9-2.6-6.2-2.7-9.5
		c-0.1-3.2,0.5-6.4,1.7-9.4c4.6-10.7,16.9-15.6,27.6-11c4.6,2,8.4,5.6,10.6,10.1c1.7,3.4,2.4,7.2,2,10.9c-0.2,2.8-1,5.5-2.3,8
		l-0.4,0.7l-0.4,0.7c-0.3,0.4-0.5,0.8-0.8,1.2c-0.6,0.7-1,1.3-1.4,1.7l-1,1C653.1,107.3,653,107.4,652.9,107.4c0,0,0.1-0.1,0.4-0.3
		l0.9-1c0.4-0.4,0.8-1,1.4-1.7c0.3-0.3,0.5-0.8,0.8-1.2l0.4-0.7l0.4-0.7c4.9-10.3,0.6-22.7-9.7-27.6c-10.3-4.9-22.7-0.6-27.6,9.7
		c-1.2,2.9-1.8,6-1.7,9.2c0.1,3.3,1.1,6.4,2.7,9.3l0.1,0.2l-0.2,0.1l-4.2,4l0.1-0.2c0.3,2.3,0.7,4.7,1,7l0.1,0.4l-0.4-0.1l-6.6-1.8
		l0.2-0.1l-3.9,3.6l-1.4,1.3l0.1-0.2c0.3,2.4,0.7,4.8,1,7l0.1,0.4l-0.4-0.1l-6.6-1.8l0.2-0.1l-4.6,4.3l0.1-0.2
		c0.2,1.5,0.4,3,0.6,4.3l0,0.4l-0.4-0.1l-4-1.1l0.2-0.1l-2.7,2.5l0.1-0.2c-0.1,2.3-0.3,4.5-0.4,6.5l-0.2-0.2l9.7,2.5l-0.2,0.1
		l31.6-29.4l0.1-0.1h0.1c3.1,1.4,6.6,2,10,1.8c2.5-0.2,5-0.8,7.4-1.9c1.4-0.7,2.8-1.5,4-2.5l0.9-0.8L652.9,107.4z"/>
	<path class="st3" d="M651,105.8c1-1.1,2-2.3,2.8-3.5c1-1.5,1.7-3.1,2.1-4.8c0.6-2.2,0.8-4.6,0.6-6.9c-0.3-2.8-1.2-5.5-2.8-7.9
		c-1.7-2.7-4.2-4.9-7.1-6.4c-1.5-0.8-3.2-1.4-4.9-1.7c-0.9-0.2-1.8-0.3-2.7-0.3c-0.9,0-1.8,0-2.8,0.1c-7.9,0.9-14.2,6.8-15.6,14.6
		c-0.2,0.9-0.3,1.8-0.3,2.7c0,0.9,0,1.8,0.1,2.7c0.2,1.7,0.6,3.4,1.3,5c1.3,3,3.3,5.6,5.9,7.5c4.2,3.1,9.5,4.2,14.6,3.2
		c1.7-0.3,3.4-1,4.9-1.8C648.6,107.6,649.8,106.7,651,105.8c0,0-0.1,0.1-0.2,0.2l-0.7,0.6c-0.3,0.3-0.7,0.6-1.1,0.9
		c-0.5,0.4-1.1,0.7-1.6,1c-1.6,0.9-3.2,1.5-5,1.9c-5.2,1.2-10.6,0-14.9-3.1c-2.7-2-4.8-4.6-6.1-7.7c-0.7-1.6-1.2-3.3-1.3-5.1
		c-0.1-0.9-0.2-1.8-0.1-2.8c0-0.9,0.2-1.9,0.3-2.8c1.5-8,8-14.1,16.1-15c0.9-0.1,1.9-0.2,2.8-0.1c0.9,0,1.8,0.2,2.8,0.3
		c1.8,0.3,3.5,0.9,5.1,1.7c3,1.5,5.4,3.8,7.2,6.6c1.5,2.4,2.5,5.2,2.8,8.1c0.2,2.4,0,4.7-0.7,7c-0.5,1.7-1.3,3.3-2.2,4.8
		c-0.3,0.5-0.7,1.1-1.2,1.6c-0.3,0.4-0.6,0.7-1,1l-0.6,0.6C651.1,105.7,651,105.8,651,105.8z"/>
	<path class="st3" d="M650.2,91c0,0,0.4-0.4,1-1.4c1.4-2.3,1.4-5.1-0.1-7.4c-0.7-1-1.6-1.8-2.7-2.4c-1.2-0.6-2.5-0.8-3.9-0.7
		c-2.9,0.3-5.3,2.5-5.8,5.4c-0.3,1.3-0.1,2.7,0.4,3.9c1.5,3.5,5.6,5.1,9.1,3.6c0.2-0.1,0.3-0.2,0.5-0.2
		C649.7,91.4,650.1,90.9,650.2,91c0,0.1-0.1,0.1-0.3,0.3c-0.3,0.3-0.6,0.6-1,0.8c-2.4,1.4-5.4,1.2-7.7-0.4c-2.3-1.6-3.4-4.4-2.9-7.2
		c0.6-3.1,3.1-5.5,6.3-5.9c3.9-0.5,7.5,2.3,8,6.3c0,0.1,0,0.2,0,0.2c0.1,1.6-0.3,3.2-1.2,4.6c-0.2,0.4-0.5,0.7-0.8,1
		C650.4,90.8,650.3,90.9,650.2,91z"/>
	<path class="st3" d="M596,139.5c-0.1-0.1,7-6.9,15.9-15.2s16.1-14.9,16.2-14.8s-7,6.9-15.9,15.2S596.1,139.6,596,139.5z"/>
	<path class="st3" d="M565.3,229.8c-1.6,0.3-3.4,0.3-5,0C562,229.5,563.7,229.5,565.3,229.8z"/>
	<path class="st3" d="M575.3,229.8c-1.6,0.3-3.4,0.3-5,0C572,229.5,573.7,229.5,575.3,229.8z"/>
	<path class="st3" d="M585.3,229.8c-1.6,0.3-3.4,0.3-5,0C582,229.5,583.7,229.5,585.3,229.8z"/>
	<path class="st3" d="M595.3,229.8c-1.6,0.3-3.4,0.3-5,0C592,229.5,593.7,229.5,595.3,229.8z"/>
	<path class="st3" d="M605.3,229.8c-1.6,0.3-3.4,0.3-5,0C602,229.5,603.7,229.5,605.3,229.8z"/>
	<path class="st3" d="M615.3,229.8c-1.6,0.3-3.4,0.3-5,0C612,229.5,613.7,229.5,615.3,229.8z"/>
	<path class="st3" d="M623.8,228.3c0.1,0,0.2,0.6,0.2,1.5v0.2h-0.2h-1c-0.8,0.1-1.7,0-2.5-0.3c0.8-0.3,1.7-0.3,2.5-0.3h1l-0.2,0.2
		C623.6,228.9,623.7,228.3,623.8,228.3z"/>
	<path class="st3" d="M623.8,218.3c0.3,1.6,0.3,3.4,0,5C623.5,221.7,623.5,219.9,623.8,218.3z"/>
	<path class="st3" d="M623.8,208.3c0.3,1.6,0.3,3.4,0,5C623.5,211.7,623.5,209.9,623.8,208.3z"/>
	<path class="st3" d="M623.8,198.3c0.3,1.6,0.3,3.4,0,5C623.5,201.7,623.5,199.9,623.8,198.3z"/>
	<path class="st3" d="M623.8,188.3c0.3,1.6,0.3,3.4,0,5C623.5,191.7,623.5,189.9,623.8,188.3z"/>
	<path class="st3" d="M623.8,178.3c0.3,1.6,0.3,3.4,0,5C623.5,181.7,623.5,179.9,623.8,178.3z"/>
	<path class="st3" d="M623.8,168.3c0.3,1.6,0.3,3.4,0,5C623.5,171.7,623.5,169.9,623.8,168.3z"/>
	<path class="st3" d="M623.8,158.3c0.3,1.6,0.3,3.4,0,5C623.5,161.7,623.5,159.9,623.8,158.3z"/>
	<path class="st3" d="M623.8,148.3c0.3,1.6,0.3,3.4,0,5C623.5,151.7,623.5,149.9,623.8,148.3z"/>
	<path class="st3" d="M623.8,138.3c0.3,1.6,0.3,3.4,0,5C623.5,141.7,623.5,139.9,623.8,138.3z"/>
	<path class="st3" d="M623.8,128.3c0.3,1.6,0.3,3.4,0,5C623.5,131.7,623.5,129.9,623.8,128.3z"/>
</g>
<g id="freepik--Folder--inject-41">
	<path class="st3" d="M548.8,329.5c-1.6,0.3-3.4,0.3-5,0C545.5,329.1,547.2,329.1,548.8,329.5z"/>
	<path class="st3" d="M558.8,329.5c-1.6,0.3-3.4,0.3-5,0C555.5,329.1,557.2,329.1,558.8,329.5z"/>
	<path class="st3" d="M568.8,329.5c-1.6,0.3-3.4,0.3-5,0C565.5,329.1,567.2,329.1,568.8,329.5z"/>
	<path class="st3" d="M578.8,329.5c-1.6,0.3-3.4,0.3-5,0C575.5,329.1,577.2,329.1,578.8,329.5z"/>
	<path class="st3" d="M588.8,329.5c-1.6,0.3-3.4,0.3-5,0C585.5,329.1,587.2,329.1,588.8,329.5z"/>
	<path class="st3" d="M598.8,329.5c-1.6,0.3-3.4,0.3-5,0C595.5,329.1,597.2,329.1,598.8,329.5z"/>
	<path class="st3" d="M608.8,329.5c-1.6,0.3-3.4,0.3-5,0C605.5,329.1,607.2,329.1,608.8,329.5z"/>
	<path class="st3" d="M618.8,329.5c-1.6,0.3-3.4,0.3-5,0C615.5,329.1,617.2,329.1,618.8,329.5z"/>
	<path class="st3" d="M628.8,329.5c-1.6,0.3-3.4,0.3-5,0C625.5,329.1,627.2,329.1,628.8,329.5z"/>
	<path class="st3" d="M638.8,329.5c-1.6,0.3-3.4,0.3-5,0C635.5,329.1,637.2,329.1,638.8,329.5z"/>
	<path class="st3" d="M647.9,328.5c0.1,0,0.2,0.4,0.2,0.9v0.2h-0.2c-0.4,0-1,0-1.6,0c-0.8,0.1-1.7,0-2.5-0.3
		c0.8-0.3,1.7-0.3,2.5-0.3c0.6,0,1.1,0,1.6,0.1l-0.2,0.2C647.7,328.9,647.8,328.5,647.9,328.5z"/>
	<path class="st3" d="M648,318.5c0.3,0.8,0.3,1.7,0.2,2.5c0.1,0.8,0,1.7-0.3,2.5c-0.2-0.8-0.3-1.7-0.2-2.5
		C647.6,320.2,647.7,319.4,648,318.5z"/>
	<path class="st3" d="M648.1,308.5c0.2,0.8,0.3,1.7,0.2,2.5c0.1,0.8,0,1.7-0.3,2.5c-0.2-0.8-0.3-1.7-0.2-2.5
		C647.7,310.2,647.8,309.4,648.1,308.5z"/>
	<path class="st3" d="M648.2,298.5c0.2,0.8,0.3,1.7,0.2,2.5c0.1,0.8,0,1.7-0.3,2.5c-0.2-0.8-0.3-1.7-0.2-2.5
		C647.8,300.2,647.9,299.4,648.2,298.5z"/>
	<path class="st4" d="M615.1,267.2l1.8,33.8c0.1,1.2,1.1,2.2,2.3,2.2l60.8,0.5c1.3,0,2.3-1,2.3-2.3l0.2-26.3c0-1.3-1-2.3-2.3-2.3
		c0,0,0,0,0,0h-37.4c-0.6,0-1.2-0.2-1.6-0.7l-6.5-6.5c-0.4-0.4-1-0.7-1.6-0.7l-15.8-0.1C616.1,264.8,615.1,265.9,615.1,267.2
		C615.1,267.1,615.1,267.2,615.1,267.2z"/>
	
		<rect x="629.3" y="255.1" transform="matrix(7.330317e-03 -1 1 7.330317e-03 356.0519 935.4133)" class="st0" width="39.7" height="66.5"/>
	<path class="st4" d="M610.8,271.8l4.8,41.4c0.1,0.7,0.7,1.3,1.5,1.3l64.8,0.5c0.8,0,1.4-0.6,1.5-1.4l3.6-41.4
		c0.1-0.8-0.5-1.5-1.3-1.6c0,0-0.1,0-0.1,0l-73.1-0.5c-0.8,0-1.5,0.6-1.5,1.5C610.8,271.7,610.8,271.7,610.8,271.8z"/>
</g>
<g id="freepik--Device--inject-41">
	<path class="st10" d="M221.8,207.4h334.7c8,0,14.6,6.5,14.6,14.6v211.5c0,8-6.5,14.6-14.6,14.6H221.8c-8,0-14.6-6.5-14.6-14.6
		V221.9C207.3,213.9,213.8,207.4,221.8,207.4z"/>
	<path class="st3" d="M192,430.2h394.2l0,0v3.2c0,9.8-8,17.8-17.8,17.8H209.9c-9.8,0-17.8-8-17.8-17.8L192,430.2L192,430.2z"/>
	<rect x="217" y="216.9" class="st7" width="343.3" height="203.2"/>
	<polygon class="st7" points="353.3,430.2 358.2,438 427,438 431.6,430.2 	"/>
	<path class="st2" d="M227.4,223.8h323.3c1.8,0,3.3,1.5,3.3,3.3v189.1c0,1.8-1.5,3.3-3.3,3.3H227.4c-1.8,0-3.3-1.5-3.3-3.3V227.1
		C224.1,225.3,225.6,223.8,227.4,223.8z"/>
	<rect x="224.1" y="238.1" class="st6" width="329.9" height="181.3"/>
	<path class="st3" d="M251.1,231.4c0,1.5-1.2,2.6-2.6,2.6c-1.5,0-2.6-1.2-2.6-2.6c0-1.5,1.2-2.6,2.6-2.6c0,0,0,0,0,0
		C250,228.7,251.1,229.9,251.1,231.4C251.2,231.4,251.2,231.4,251.1,231.4z"/>
	<path class="st3" d="M235.2,231.4c0,1.5-1.2,2.6-2.6,2.6s-2.6-1.2-2.6-2.6c0-1.5,1.2-2.6,2.6-2.6l0,0
		C234,228.7,235.2,229.9,235.2,231.4z"/>
	<path class="st3" d="M242.9,231.4c0,1.5-1.2,2.6-2.6,2.6c-1.5,0-2.6-1.2-2.6-2.6c0-1.5,1.2-2.6,2.6-2.6c0,0,0,0,0,0
		C241.7,228.7,242.9,229.9,242.9,231.4C242.9,231.4,242.9,231.4,242.9,231.4z"/>
	<path class="st7" d="M568,430.2c0,0.1-80.8,0.2-180.3,0.2s-180.4-0.1-180.4-0.2s80.7-0.2,180.4-0.2S568,430,568,430.2z"/>
	<rect x="247" y="329.5" class="st1" width="75.3" height="5"/>
	<rect x="344.2" y="259.6" class="st1" width="75.3" height="5"/>
	<path class="st1" d="M531.4,278.3c0,0.1-41.9,0.2-93.6,0.2s-93.6-0.1-93.6-0.2s41.9-0.2,93.6-0.2S531.4,278.2,531.4,278.3z"/>
	<path class="st1" d="M531.4,289.3c0,0.1-41.9,0.2-93.6,0.2s-93.6-0.1-93.6-0.2s41.9-0.2,93.6-0.2S531.4,289.2,531.4,289.3z"/>
	<path class="st1" d="M531.4,300.3c0,0.1-41.9,0.2-93.6,0.2s-93.6-0.1-93.6-0.2s41.9-0.2,93.6-0.2S531.4,300.2,531.4,300.3z"/>
	<path class="st1" d="M531.4,311.3c0,0.1-41.9,0.2-93.6,0.2s-93.6-0.1-93.6-0.2s41.9-0.2,93.6-0.2S531.4,311.2,531.4,311.3z"/>
	<path class="st1" d="M531.4,322.3c0,0.1-41.9,0.2-93.6,0.2s-93.6-0.1-93.6-0.2s41.9-0.2,93.6-0.2S531.4,322.2,531.4,322.3z"/>
	<path class="st1" d="M417.3,333.3c0,0.1-16.4,0.2-36.5,0.2s-36.5-0.1-36.5-0.2s16.4-0.2,36.5-0.2S417.3,333.2,417.3,333.3z"/>
	<path class="st1" d="M530,354.6c0,0.1-27.5,0.2-61.5,0.2s-61.5-0.1-61.5-0.2s27.5-0.2,61.5-0.2S530,354.5,530,354.6z"/>
	<path class="st1" d="M530,366.3c0,0.1-27.5,0.2-61.5,0.2s-61.5-0.1-61.5-0.2s27.5-0.2,61.5-0.2S530,366.2,530,366.3z"/>
	<path class="st1" d="M530,378c0,0.1-27.5,0.2-61.5,0.2S407,378.1,407,378s27.5-0.2,61.5-0.2S530,377.9,530,378z"/>
	<path class="st1" d="M530,389.7c0,0.1-27.5,0.2-61.5,0.2s-61.5-0.1-61.5-0.2s27.5-0.2,61.5-0.2S530,389.5,530,389.7z"/>
	<path class="st1" d="M322.4,353.5c0,0.1-16.4,0.2-36.7,0.2s-36.7-0.1-36.7-0.2s16.4-0.2,36.7-0.2S322.4,353.4,322.4,353.5z"/>
	<path class="st1" d="M322.4,362.7c0,0.1-16.4,0.2-36.7,0.2s-36.7-0.1-36.7-0.2s16.4-0.2,36.7-0.2S322.4,362.6,322.4,362.7z"/>
	<path class="st1" d="M322.4,371.9c0,0.1-16.4,0.2-36.7,0.2s-36.7-0.1-36.7-0.2s16.4-0.2,36.7-0.2S322.4,371.7,322.4,371.9z"/>
	<path class="st1" d="M322.4,381c0,0.1-16.4,0.2-36.7,0.2s-36.7-0.1-36.7-0.2s16.4-0.2,36.7-0.2S322.4,380.9,322.4,381z"/>
	<path class="st1" d="M322.4,390.2c0,0.1-16.4,0.2-36.7,0.2s-36.7-0.1-36.7-0.2s16.4-0.2,36.7-0.2S322.4,390.1,322.4,390.2z"/>
	<rect x="344.1" y="349.1" class="st0" width="53.4" height="51.7"/>
	<polygon class="st2" points="348.3,396.3 363,369.7 375.1,386.7 382.5,377.7 393.4,396.3 	"/>
	<path class="st2" d="M380.3,364.6c0,2.1-1.7,3.9-3.8,3.9s-3.9-1.7-3.9-3.8s1.7-3.9,3.8-3.9c0,0,0,0,0,0
		C378.6,360.7,380.3,362.4,380.3,364.6z"/>
	<path class="st2" d="M393.4,396.5c0-0.1,0-0.1,0-0.2c0-0.1,0-0.4,0-0.6c0-0.5,0-1.3,0-2.3c0-2,0-5-0.1-8.8c0-7.5-0.1-18.3-0.1-31.2
		l0.2,0.2h-45.1l0.2-0.2l0,0V365c0,3.8,0,7.5,0,11.1c0,7.2,0,14.1,0,20.4l-0.2-0.2l32.6,0.1l9.2,0h2.4h0.6L393.4,396.5l-0.7,0h-2.4
		l-9.1,0l-32.8,0.1h-0.2v-0.2c0-6.3,0-13.1,0-20.4c0-3.6,0-7.3,0-11.1v-11.5l0,0l0.3-0.3h45.1h0.2v0.2c0,13-0.1,23.8-0.1,31.3
		c0,3.7,0,6.7-0.1,8.7c0,1,0,1.7,0,2.3c0,0.2,0,0.4,0,0.6C393.5,396.3,393.5,396.4,393.4,396.5z"/>
	<rect x="248.4" y="251" class="st0" width="72.4" height="70.1"/>
	<polygon class="st1" points="254,315.1 274,279 290.4,302 300.4,289.8 315.2,315.1 	"/>
	<path class="st1" d="M297.4,272c0,2.9-2.3,5.2-5.2,5.2c-2.9,0-5.2-2.3-5.2-5.2c0-2.9,2.3-5.2,5.2-5.2c0,0,0,0,0,0
		C295.1,266.8,297.4,269.1,297.4,272z"/>
	<path class="st1" d="M315.2,315.3c0,0,0-0.1,0-0.3s0-0.5,0-0.8c0-0.7,0-1.8,0-3.1c0-2.8,0-6.8-0.1-11.9c0-10.2-0.1-24.8-0.1-42.3
		l0.3,0.3l-61.2,0c-0.1,0.1,0.6-0.6,0.3-0.3l0,0v15.7c0,5.2,0,10.2,0,15.1c0,9.8,0,19.1,0,27.6l-0.3-0.3l44.3,0.1l12.5,0.1h3.3h0.9
		h0.3H315h-0.8H311l-12.4,0.1l-44.4,0.1h-0.3v-0.3c0-8.5,0-17.8,0-27.6c0-4.9,0-9.9,0-15.1v-15.6l0,0c-0.3,0.3,0.4-0.4,0.4-0.4
		l61.2,0h0.3v0.3c-0.1,17.6-0.1,32.2-0.1,42.5c0,5.1-0.1,9.1-0.1,11.8c0,1.3,0,2.4,0,3.1c0,0.3,0,0.6,0,0.8
		C315.4,315.1,315.3,315.2,315.2,315.3z"/>
	<polygon class="st4" points="330.5,277.6 334.1,284.9 342.1,286 336.3,291.7 337.7,299.6 330.5,295.9 323.4,299.6 324.7,291.7 
		318.9,286 326.9,284.9 	"/>
	<polygon class="st4" points="355.7,252.4 359.3,259.7 367.3,260.8 361.5,266.5 362.9,274.4 355.7,270.7 348.6,274.4 349.9,266.5 
		344.1,260.8 352.1,259.7 	"/>
	<polygon class="st4" points="389.4,242.5 393,249.8 401,250.9 395.2,256.6 396.6,264.5 389.4,260.8 382.2,264.5 383.6,256.6 
		377.8,250.9 385.8,249.8 	"/>
	<polygon class="st4" points="424.3,252.6 427.8,259.9 435.8,261.1 430,266.7 431.4,274.7 424.3,270.9 417.1,274.7 418.5,266.7 
		412.7,261.1 420.7,259.9 	"/>
	<polygon class="st4" points="448.3,276.7 451.9,283.9 459.9,285.1 454.1,290.7 455.4,298.7 448.3,294.9 441.1,298.7 442.5,290.7 
		436.7,285.1 444.7,283.9 	"/>
	<polygon class="st4" points="457,311.5 460.6,318.8 468.6,319.9 462.8,325.6 464.1,333.5 457,329.8 449.8,333.5 451.2,325.6 
		445.4,319.9 453.4,318.8 	"/>
	<polygon class="st4" points="448.5,346.1 452.1,353.4 460.1,354.6 454.3,360.2 455.7,368.2 448.5,364.4 441.4,368.2 442.7,360.2 
		436.9,354.6 444.9,353.4 	"/>
	<polygon class="st4" points="423,370.2 426.6,377.4 434.6,378.6 428.8,384.2 430.2,392.2 423,388.4 415.9,392.2 417.2,384.2 
		411.4,378.6 419.4,377.4 	"/>
	<polygon class="st4" points="388.7,380.1 392.3,387.3 400.3,388.5 394.5,394.1 395.9,402.1 388.7,398.3 381.6,402.1 382.9,394.1 
		377.1,388.5 385.1,387.3 	"/>
	<polygon class="st4" points="356,370.2 359.6,377.4 367.6,378.6 361.8,384.2 363.1,392.2 356,388.5 348.8,392.2 350.2,384.2 
		344.4,378.6 352.4,377.4 	"/>
	<polygon class="st4" points="330.1,345.5 333.6,352.8 341.6,353.9 335.9,359.6 337.2,367.5 330.1,363.8 322.9,367.5 324.3,359.6 
		318.5,353.9 326.5,352.8 	"/>
	<polygon class="st4" points="321.4,311.6 324.9,318.8 332.9,320 327.1,325.6 328.5,333.6 321.4,329.8 314.2,333.6 315.6,325.6 
		309.8,320 317.8,318.8 	"/>
	<path class="st3" d="M414.1,336.4h-7v-38.1c0-9-7.3-16.3-16.2-16.3c-9,0-16.3,7.3-16.3,16.2c0,0,0,0,0,0v38.1h-7v-38.1
		c0-12.8,10.4-23.3,23.2-23.3c12.8,0,23.3,10.4,23.3,23.2c0,0,0,0,0,0V336.4z"/>
	<path class="st4" d="M365.3,319.5h51.1c3.2,0,5.8,2.6,5.8,5.8v28.6c0,3.2-2.6,5.8-5.8,5.8h-51.1c-3.2,0-5.8-2.6-5.8-5.8v-28.6
		C359.5,322.1,362.1,319.5,365.3,319.5z"/>
	<path class="st3" d="M396.1,334.4c0,2.9-2.3,5.2-5.2,5.2c-2.9,0-5.2-2.3-5.2-5.2c0-2.9,2.3-5.2,5.2-5.2c0,0,0,0,0,0
		C393.7,329.1,396.1,331.5,396.1,334.4z"/>
	<rect x="389.4" y="336.4" class="st3" width="2.9" height="10.8"/>
	<path class="st6" d="M362.8,355.9c-0.1,0-0.3-6.7-0.3-15s0.1-15,0.3-15s0.3,6.7,0.3,15S363,355.9,362.8,355.9z"/>
	<path class="st6" d="M386.7,341.1c0,0-0.2-0.1-0.6-0.4c-0.5-0.4-1-0.9-1.4-1.4c-2.4-3.2-1.8-7.9,1.5-10.3c0.4-0.3,0.7-0.5,1.1-0.7
		c0.6-0.3,1.2-0.5,1.8-0.6c0.2,0,0.5,0,0.7,0c-0.8,0.3-1.6,0.6-2.4,1c-3.5,1.9-4.8,6.4-2.9,9.9c0.1,0.2,0.2,0.4,0.4,0.6
		C385.6,339.9,386.1,340.5,386.7,341.1z"/>
</g>
<g id="freepik--Character--inject-41">
	<path class="st3" d="M170.3,301.6c-0.7,2.3-0.6,4.7,0.2,7c0.8,2.2,1.9,4.4,3.2,6.4c1.6-4,3.1-8.1,4.2-12.2c0.4-0.9,0.3-1.9-0.2-2.7
		c-0.6-0.5-1.3-0.7-2-0.5c-2.1,0.1-4.2,1-5.7,2.4"/>
	<polygon class="st3" points="82.1,413.8 65.7,451.2 88.2,451.2 104.3,413.5 	"/>
	<path class="st7" d="M179.4,450.8c22.1-7.3,6.9-36.5,6.9-36.5l-96.5,9.1c-7.7,0-14,6.2-14,14l0,0c0,7.7,6.3,14,14,14L179.4,450.8"
		/>
	<path class="st7" d="M201.3,451.2c21.5-7.3,7.3-37,7.3-37l-94,8.9c-9.2,0.1-13.7,4.5-13.7,13.9l0,0c0,7.7,2.9,14.2,13.6,14
		L201.3,451.2"/>
	<path class="st3" d="M180.1,419.2h-0.3h-0.8l-3,0.1l-11.1,0.5l-36.5,2c-1.8,0.1-3.6,0.2-5.3,0.3s-3.5,0.1-5.1,0.2s-3.3,0.2-5,0.4
		c-1.6,0.1-3.2,0.5-4.7,1c-1.5,0.5-2.8,1.4-3.9,2.5c-1.1,1.1-1.9,2.4-2.4,3.8c-0.5,1.3-0.8,2.7-1,4.1c-0.2,1.3-0.3,2.6-0.3,3.9
		c0,2.2,0.4,4.5,1.2,6.5c0.7,1.5,1.7,2.9,2.9,4c0.8,0.7,1.7,1.2,2.7,1.5c0.7,0.2,0.7,0.1,0-0.1c-0.9-0.4-1.8-0.9-2.6-1.6
		c-1.2-1.1-2.2-2.4-2.8-4c-0.8-2-1.2-4.2-1.2-6.4c0-1.3,0.1-2.6,0.3-3.8c0.2-1.4,0.5-2.7,1-4c0.5-1.4,1.3-2.6,2.3-3.6
		c1.1-1.1,2.4-1.9,3.8-2.4c1.5-0.5,3-0.8,4.6-0.9c1.6-0.2,3.2-0.3,4.9-0.4s3.4-0.2,5.1-0.2s3.5-0.2,5.3-0.3l36.6-2.2l11.1-0.7l3-0.2
		l0.8-0.1C179.9,419.2,180,419.2,180.1,419.2z"/>
	<path class="st3" d="M201.4,428.4c-0.2,0.2-0.5,0.3-0.8,0.4c-0.7,0.3-1.5,0.4-2.3,0.5c-4.9,0.4-9.2-3.3-9.6-8.2c0-0.5,0-1.1,0-1.6
		c0.1-0.8,0.2-1.5,0.5-2.3c0.1-0.3,0.2-0.5,0.4-0.8c-0.3,1-0.5,2-0.6,3c-0.3,4.9,3.4,9.1,8.2,9.4c0.3,0,0.6,0,0.9,0
		C199.3,428.8,200.4,428.6,201.4,428.4z"/>
	<polygon class="st11" points="153.5,369.2 144.6,399.8 111.6,403.3 111.6,409.2 160.1,409.9 166.7,370.1 	"/>
	<path class="st4" d="M196.6,337.4c5.9,0,21.7,3,23.1,13.7c1.3,9.7,3.1,20.6,3.1,20.6l-20.9,0.6l7.1,1.9l3,45.1l-54.1-1.9l2.9-23.2
		l2.4-23.2l0,0l-11.8-1c0,0,4-20.2,11.1-26.4c4.4-3.6,9.9-5.8,15.6-6.3C184.3,337,190.4,337,196.6,337.4"/>
	<path class="st3" d="M165.2,356c0.1,0-0.7,8.2-1.8,18.2s-2.2,18.2-2.3,18.1s0.7-8.2,1.9-18.2S165.1,356,165.2,356z"/>
	<path class="st3" d="M198.2,337.4c0,0,0,0.1,0.1,0.4s0.1,0.6,0.1,1.1c0,1.4-0.2,2.7-0.6,4c-0.5,2-1.6,3.8-3.1,5.2
		c-0.9,0.9-2,1.5-3.1,1.9c-1.3,0.4-2.6,0.6-3.9,0.6c-1.3,0-2.7-0.1-4-0.3c-1.2-0.2-2.4-0.7-3.4-1.4c-1.6-1.3-2.8-3.1-3.2-5.1
		c-0.4-1.3-0.5-2.7-0.4-4c0-0.5,0.1-0.8,0.1-1.1c0-0.1,0-0.3,0.1-0.4c0,0.5,0,1,0,1.5c0,1.3,0.2,2.7,0.6,3.9
		c0.5,1.9,1.6,3.6,3.2,4.8c1,0.7,2.1,1.1,3.3,1.3c1.3,0.2,2.6,0.3,3.9,0.3c1.3,0,2.6-0.2,3.8-0.6c1.1-0.4,2.1-1,3-1.8
		c1.4-1.4,2.5-3.1,3.1-5c0.4-1.3,0.7-2.6,0.7-3.9C198.2,338,198.2,337.4,198.2,337.4z"/>
	<g class="st5">
		<path d="M201.1,356c-2,9.6-4.6,19.4-6.6,29c-0.3,2.1-1,4-2.1,5.8c-0.8,1-1.8,1.9-2.9,2.6c-3.9,3.1-8.2,5.6-12.7,7.4
			c6.7-0.6,13.3-1.7,19.8-3.5c2.3-0.1,4-2.1,3.9-4.3c0,0,0,0,0,0C201.9,380.8,201.5,368.4,201.1,356"/>
	</g>
	<path class="st3" d="M223.2,371.8c-0.5,0.1-1,0.1-1.6,0.1l-4.3,0.2c-3.6,0.1-8.6,0.2-14.1,0.4h-1.8h-0.2v-0.2
		c-0.2-5.1-0.1-9.7,0-13c0-1.6,0.1-3,0.2-3.9c0-0.5,0-0.9,0.1-1.4c0,0.5,0,0.9,0,1.4c0,1,0,2.3,0,3.9c0,3.3-0.1,7.8,0.1,12.9
		l-0.2-0.2h1.8c5.5-0.1,10.5-0.2,14.1-0.2h4.3C222.2,371.7,222.7,371.8,223.2,371.8z"/>
	<path class="st1" d="M70.2,374l18.4,36.3h58.2l-2.4-4.7l-16.8-0.5l-13.7-30.6c-0.9-1.9-2.7-3.1-4.8-3.1H71.8c-1,0-1.8,0.8-1.8,1.9
		C70,373.5,70.1,373.8,70.2,374z"/>
	<circle class="st3" cx="97.1" cy="390.3" r="2.2"/>
	<path class="st11" d="M198.5,310l-2.1,29.5c-0.3,4.8-4.4,8.5-9.2,8.5l0,0c-5.1,0-9.2-4.1-9.2-9.2c0-0.2,0-0.4,0-0.6
		c0.2-2.8,0.4-5.1,0.4-5.1s-7.1-1.1-7.2-8.2c0-3.4,0.4-10,0.9-16.3c0.6-7.3,6.7-12.9,14-13l0,0c7.3,0.4,12.9,6.7,12.5,14
		C198.5,309.7,198.5,309.9,198.5,310z"/>
	<path class="st12" d="M178.4,333.5c3.3,0.1,6.5-0.9,9.3-2.6c0,0-2.2,5.1-9.3,4.5L178.4,333.5z"/>
	<path class="st3" d="M174.3,313.3c0,0.6,0.4,1,1,1c0.5,0,1-0.4,1.1-0.9c0-0.6-0.4-1-1-1C174.8,312.3,174.3,312.7,174.3,313.3z"/>
	<path class="st3" d="M173.7,311.9c0.1,0.1,0.9-0.4,2-0.4s1.9,0.5,2,0.4s-0.1-0.3-0.4-0.6c-0.5-0.3-1-0.5-1.6-0.5
		c-0.6,0-1.1,0.2-1.6,0.5C173.7,311.6,173.6,311.8,173.7,311.9z"/>
	<path class="st3" d="M184.6,313.6c0,0.6,0.4,1,1,1c0.5,0,1-0.4,1-0.9c0-0.6-0.4-1-1-1C185.1,312.6,184.7,313,184.6,313.6z"/>
	<path class="st3" d="M184.4,312.1c0.1,0.1,0.9-0.4,2-0.4s1.9,0.5,2,0.4s-0.1-0.3-0.4-0.5c-0.5-0.3-1-0.5-1.6-0.5
		c-0.6,0-1.1,0.2-1.6,0.5C184.5,311.8,184.4,312,184.4,312.1z"/>
	<path class="st3" d="M180.5,320.2c-0.6-0.2-1.2-0.3-1.8-0.3c-0.3,0-0.6-0.1-0.6-0.3c0-0.3,0-0.6,0.2-0.8l0.8-2.1
		c0.8-1.8,1.4-3.7,1.9-5.6c-0.9,1.7-1.7,3.6-2.3,5.4c-0.3,0.8-0.5,1.5-0.8,2.1c-0.2,0.3-0.2,0.7-0.1,1.1c0.1,0.2,0.3,0.3,0.5,0.4
		c0.2,0,0.3,0.1,0.5,0.1C179.3,320.3,179.9,320.3,180.5,320.2z"/>
	<path class="st3" d="M183.7,321c-0.2,0-0.2,1.2-1.2,2s-2.3,0.7-2.3,0.9s0.3,0.2,0.8,0.2c0.7,0,1.4-0.2,1.9-0.7
		c0.5-0.4,0.9-1,0.9-1.7C183.9,321.3,183.8,321,183.7,321z"/>
	<path class="st3" d="M184.2,307.8c0.1,0.3,1.2,0.2,2.5,0.3s2.3,0.5,2.5,0.2s-0.1-0.4-0.5-0.7c-1.1-0.7-2.5-0.9-3.8-0.4
		C184.4,307.4,184.1,307.6,184.2,307.8z"/>
	<path class="st3" d="M174.1,308.7c0.2,0.2,1,0,1.9,0s1.7,0.2,1.9-0.1s0-0.4-0.4-0.6c-0.9-0.6-2.1-0.5-3,0.1
		C174.1,308.3,174,308.6,174.1,308.7z"/>
	<path class="st11" d="M196.1,315.8c0.1-0.1,4.9-1.5,4.8,3.4s-5,3.7-5,3.6S196.1,315.8,196.1,315.8z"/>
	<path class="st12" d="M197.4,321c0,0,0.1,0.1,0.2,0.1c0.2,0.1,0.4,0.1,0.6,0c0.6-0.4,1-1.1,1-1.9c0-0.4,0-0.8-0.2-1.2
		c-0.1-0.3-0.3-0.6-0.6-0.7c-0.2-0.1-0.4,0-0.5,0.2c-0.1,0.1,0,0.2-0.1,0.2s-0.1-0.1,0-0.3c0-0.1,0.1-0.2,0.2-0.3
		c0.1-0.1,0.3-0.1,0.5-0.1c0.4,0.1,0.7,0.4,0.9,0.8c0.2,0.4,0.3,0.9,0.2,1.4c0,0.9-0.5,1.7-1.3,2.1c-0.3,0.1-0.6,0-0.8-0.2
		C197.4,321.2,197.3,321,197.4,321z"/>
	<rect x="81.9" y="410.4" class="st3" width="71.1" height="3.5"/>
	<polygon class="st3" points="131.1,412.1 152.7,451.2 172.1,451.2 153,413.8 	"/>
	<path class="st7" d="M153,413.8c0,0.1-15.9,0.3-35.6,0.4s-35.6,0.1-35.6-0.1s15.9-0.3,35.6-0.4S153,413.7,153,413.8z"/>
	<path class="st3" d="M170.1,305.4c1.3,0.5,2.8,0.4,4-0.3c-0.4,0.5-0.4,1.2,0.1,1.6c0,0,0.1,0.1,0.1,0.1c0.6,0.3,1.2,0.5,1.9,0.4
		c3.6-0.1,6.9-1.6,9.5-4c0.1,1.3,1,2.3,2.2,2.7c1.2,0.4,2.5,0.4,3.6,0c-0.4,1.8-0.5,3.7-0.2,5.5c0.3,1.9,1.7,3.4,3.6,3.8
		c0.2,0.9,0.3,1.9,0.2,2.9c0.1,1,0.6,2.1,1.6,2.1s1.5-0.9,1.6-1.7s-0.4-2.6,0.2-4s0.4-1.2,1.1-2.7s1-3.5,1.5-5.1
		c0.6-1.5,0.6-3.2,0.1-4.8c-0.6-1.6-2.1-2.6-3.7-2.6c0.8-2-0.2-4.3-2.2-5.1c-1.2-0.5-2.5-0.3-3.5,0.4c0,0-5.6-3.8-11.7-1.7
		s-7.1,7.7-8.4,7.8s-5.4-2-4.7-0.6s1.9,2.7,2.4,2.8s-4.6-2.1-2.9-0.2C167.5,303.9,168.7,304.8,170.1,305.4z"/>
	<path class="st6" d="M219.1,353c-0.6-0.7-1.2-1.3-1.9-1.9c-2-1.4-4.4-2.1-6.9-2c-3.1,0-6.6,1.3-10.1,3.5s-7.1,5-11.5,6.9
		c-4.2,1.9-8.9,2.1-13.2,0.5c-1.9-0.7-3.6-1.7-5.1-2.9c-1.4-1.1-2.7-2.2-4-3.2c-1.9-1.5-4.2-2.5-6.6-2.7c-0.9,0-1.8,0.1-2.6,0.4
		c0,0,0,0,0.2-0.1c0.2-0.1,0.3-0.1,0.5-0.2c0.6-0.2,1.3-0.3,2-0.3c2.5,0.1,4.9,1.1,6.9,2.6c2.6,1.8,5.2,4.6,9,5.9
		c4.2,1.5,8.8,1.3,12.9-0.5c4.3-1.9,7.9-4.8,11.4-6.9s7.2-3.5,10.4-3.4c2.5-0.1,5,0.7,7,2.2c0.5,0.4,1,0.9,1.4,1.4
		C218.9,352.6,219,352.8,219.1,353z"/>
	<path class="st6" d="M201.3,379.3c0,0-0.5-0.3-1.4-0.8c-1.3-0.7-2.6-1.3-4.1-1.6c-2.1-0.5-4.3-0.4-6.4,0.1
		c-2.4,0.6-4.8,1.8-7.4,2.8c-1.3,0.5-2.7,0.8-4.1,1c-1.3,0.2-2.6,0.2-3.9,0.1c-2.2-0.2-4.3-0.8-6.3-1.7c-1.3-0.6-2.6-1.4-3.7-2.4
		c-0.3-0.3-0.6-0.5-0.9-0.8c-0.2-0.2-0.3-0.3-0.3-0.3s0.4,0.4,1.3,1c1.1,0.9,2.4,1.6,3.7,2.2c2,0.9,4.1,1.4,6.2,1.6
		c2.6,0.2,5.3-0.2,7.7-1.1c2.5-1.1,5-2,7.5-2.8c3.6-0.9,7.5-0.3,10.6,1.7c0.3,0.2,0.7,0.5,1,0.7
		C201.2,379.2,201.3,379.3,201.3,379.3z"/>
	<path class="st6" d="M209.2,396.1c-0.6-0.2-1.3-0.5-1.9-0.6c-1.8-0.3-3.7-0.1-5.4,0.5c-1.2,0.4-2.4,0.9-3.5,1.5
		c-1.2,0.6-2.5,1.4-3.9,2.1c-1.4,0.8-3,1.5-4.5,2c-1.7,0.5-3.5,0.6-5.3,0.2c-3.6-0.8-6.5-2.9-9.1-4.5c-2.2-1.6-4.8-2.6-7.5-3
		c-1.8-0.2-3.7,0.2-5.3,1.1c-0.6,0.4-1.1,0.8-1.6,1.3c0.1-0.2,0.2-0.3,0.3-0.4c0.3-0.4,0.7-0.7,1.1-1c1.6-1,3.5-1.5,5.4-1.3
		c2.4,0.1,5.1,1.3,7.8,2.9s5.5,3.6,9,4.4c1.7,0.3,3.4,0.3,5.1-0.2c1.5-0.5,3-1.1,4.4-1.9c1.4-0.7,2.6-1.5,3.9-2.1
		c1.2-0.6,2.4-1.1,3.6-1.5c1.8-0.6,3.7-0.7,5.6-0.3c0.5,0.1,1,0.3,1.4,0.5C209.1,396,209.2,396.1,209.2,396.1z"/>
	<path class="st6" d="M211.7,415.2c-0.2,0.1-0.3,0.2-0.5,0.2c-0.5,0.1-1,0.2-1.6,0.3c-1.9,0-3.9-0.4-5.6-1.2
		c-1.2-0.5-2.5-0.9-3.7-1.2c-1.5-0.3-3-0.4-4.4-0.3c-3.2,0.3-6.5,1.5-10,2.5c-1.7,0.5-3.5,0.9-5.3,1.1c-1.7,0.2-3.4,0.1-5.1-0.1
		c-2.8-0.4-5.6-1.1-8.2-2.2c-1.8-0.7-3.5-1.5-5.2-2.4c-0.6-0.3-1.1-0.6-1.4-0.7c-0.2-0.1-0.3-0.2-0.5-0.3c0.2,0,0.4,0.1,0.5,0.2
		l1.4,0.6c1.2,0.6,3,1.4,5.3,2.2c2.6,1,5.4,1.7,8.2,2.1c1.7,0.2,3.3,0.2,5,0c1.8-0.2,3.5-0.6,5.2-1.1c3.5-1,6.9-2.2,10.1-2.5
		c1.5-0.1,3.1,0,4.6,0.3c1.3,0.3,2.5,0.8,3.8,1.3c1.7,0.8,3.6,1.2,5.5,1.3C210.4,415.5,211.1,415.4,211.7,415.2z"/>
	<path class="st6" d="M222,366.8c-0.2,0.2-0.4,0.5-0.6,0.6c-0.6,0.5-1.3,0.9-2.1,1.3c-1.1,0.5-2.3,0.7-3.5,0.7
		c-1.5-0.1-2.9-0.4-4.3-1.1c-1.4-0.7-2.7-1.4-3.9-1.8c-1.1-0.4-2.2-0.5-3.4-0.4c-0.8,0.1-1.5,0.4-2.1,0.9c-0.4,0.4-0.6,0.6-0.6,0.6
		c0.1-0.3,0.3-0.5,0.5-0.7c0.6-0.6,1.4-0.9,2.2-1.1c1.2-0.2,2.4-0.1,3.6,0.3c1.4,0.5,2.7,1.1,4,1.8c1.2,0.7,2.6,1,4,1.1
		c1.2,0,2.3-0.2,3.4-0.5C220.2,367.9,221.1,367.4,222,366.8z"/>
	<path class="st6" d="M163.9,366.3c0,0-0.1,0.2-0.3,0.4c-0.4,0.2-0.8,0.3-1.3,0.3c-0.7,0-1.3-0.2-1.9-0.5c-0.6-0.4-1.2-0.8-1.9-1.3
		c-1.1-0.7-2.4-1-3.7-0.8c-1,0.2-1.6,0.5-1.6,0.5c0.4-0.4,0.9-0.7,1.5-0.8c1.4-0.4,2.9-0.1,4.1,0.7c0.7,0.4,1.3,0.9,1.8,1.3
		c0.5,0.3,1.1,0.5,1.6,0.6C162.9,366.6,163.4,366.5,163.9,366.3z"/>
	<path class="st11" d="M136.8,398.6l14.6-1.8l10.2,6.7l39.2-9.4l1.1-21.9l17.6-0.4l-0.4,25.7c-0.2,8.2-7,14.8-15.2,14.6
		c0,0-0.1,0-0.1,0l-57.4-1.6l-2.4-4.9l-12.3-0.4L136.8,398.6z"/>
	<path class="st12" d="M200.3,394.1c-0.2,0.1-0.5,0.2-0.7,0.2l-2.1,0.6l-7.9,2l-26,6.3l-2.4,0.6H161l-0.1-0.1l-10.2-6.7h0.1
		l-14.6,1.7h0.1l-3.8,4.9c-0.4,0.5-0.8,1-1,1.3c-0.1,0.2-0.2,0.3-0.4,0.4c0.1-0.2,0.2-0.3,0.3-0.5l1-1.3l3.7-5l0,0h0.1l14.5-1.8h0.1
		h0.1l10.3,6.7H161l2.4-0.6l26-6.2l7.9-1.8l2.1-0.5C199.8,394.2,200,394.2,200.3,394.1z"/>
	<path class="st12" d="M144.7,402.7c-1.9,0.2-3.8,0.3-5.7,0.2h-1h0.1c-1.1,1-2.4,2-3.7,2.8c1-1.1,2.2-2.2,3.4-3.2l0.1-0.1h1.1
		C141,402.5,142.8,402.5,144.7,402.7z"/>
	<path class="st12" d="M207.5,398.5c-1.4-2.5-4-4.1-6.8-4.3c0.4-0.1,0.8-0.2,1.3-0.1c1,0.1,2,0.4,2.9,1c0.9,0.6,1.6,1.3,2.1,2.2
		C207.3,397.7,207.4,398.1,207.5,398.5z"/>
</g>
</svg>
