<?xml version="1.0" encoding="utf-8"?>
<!-- Generator: Adobe Illustrator 26.2.1, SVG Export Plug-In . SVG Version: 6.00 Build 0)  -->
<svg version="1.1" id="Layer_1" xmlns="http://www.w3.org/2000/svg" xmlns:xlink="http://www.w3.org/1999/xlink" x="0px" y="0px"
	 viewBox="0 0 500 500" style="enable-background:new 0 0 500 500;" xml:space="preserve">
<style type="text/css">
	.st0{fill:#263238;}
	.st1{fill:#007172;}
	.st2{fill:#D94F04;}
	.st3{fill:#F07167;}
	.st4{opacity:0.3;}
	.st5{fill:#FDFCDC;}
	.st6{fill:#B5715A;}
	.st7{fill:#884C3B;}
	.st8{fill:#455A64;}
	.st9{fill:#E0E0E0;}
	.st10{fill:#FFFFFF;}
	.st11{fill:none;}
</style>
<g id="freepik--Table--inject-33">
	<path class="st0" d="M450.3,474.7c0,0.1-89.7,0.3-200.3,0.3s-200.3-0.1-200.3-0.3s89.7-0.3,200.3-0.3S450.3,474.6,450.3,474.7z"/>
</g>
<g id="freepik--Graphic--inject-33">
	<path class="st1" d="M395.4,93.8c0.1,0.1-12.4,10.4-27.8,23s-28.1,22.7-28.1,22.6s12.4-10.4,27.8-23S395.3,93.7,395.4,93.8z"/>
	<path class="st0" d="M415.9,261.6c0,0.1-16.2-5.6-36-12.9s-35.9-13.2-35.8-13.4s16.2,5.6,36,12.9S416,261.5,415.9,261.6z"/>
	<path class="st0" d="M82.2,123.2c0.1-0.1,17.4,9,38.8,20.5s38.6,20.8,38.5,20.9s-17.4-9-38.8-20.5S82.1,123.3,82.2,123.2z"/>
	<path class="st0" d="M88.4,271.6c0-0.1,14.2-5.6,31.9-12.2s32-11.9,32.1-11.8s-14.2,5.6-31.9,12.2
		C102.8,266.5,88.5,271.7,88.4,271.6z"/>
	<path class="st2" d="M257.7,301.7c-47.9,0-86.8-38.9-86.8-86.8s38.9-86.8,86.8-86.8s86.8,38.9,86.8,86.8c0,0,0,0,0,0
		C344.4,262.8,305.6,301.6,257.7,301.7z M257.7,129c-47.4,0-85.8,38.4-85.8,85.8s38.4,85.8,85.8,85.8s85.8-38.4,85.8-85.8
		c0,0,0,0,0,0C343.4,167.5,305,129.1,257.7,129L257.7,129z"/>
	<path class="st0" d="M367.4,213.6c0,0,0-0.6-0.1-1.8c0-0.6,0-1.3-0.1-2.2s0-1.9-0.1-3s-0.2-2.4-0.3-3.8s-0.4-2.9-0.6-4.6
		c-0.5-3.3-1.2-7.1-2.2-11.4c-1.2-4.7-2.7-9.3-4.5-13.8c-2.1-5.3-4.7-10.5-7.6-15.4c-7.2-12-16.7-22.6-27.9-31.1
		c-6.5-4.9-13.5-9.1-20.9-12.5c-8-3.7-16.5-6.4-25.2-8c-14.2-2.6-28.8-2.5-42.9,0.5c-5,1.1-9.9,2.5-14.6,4.2
		c-20.4,7.4-38.1,20.7-50.9,38.2c-3.3,4.6-6.3,9.4-8.9,14.4c-0.6,1.3-1.3,2.5-1.9,3.8l-1.8,3.9c-1.1,2.7-2.1,5.3-3,8.1
		c-1.9,5.6-3.3,11.2-4.2,17c-0.9,5.8-1.4,11.7-1.4,17.6c0,5.9,0.5,11.8,1.4,17.6c0.9,5.8,2.3,11.4,4.2,16.9c0.9,2.8,2,5.4,3,8.1
		l1.8,3.9c0.6,1.3,1.3,2.6,1.9,3.8c2.6,5,5.6,9.8,8.9,14.4c12.8,17.5,30.5,30.8,50.9,38.2c4.8,1.7,9.7,3.1,14.7,4.1
		c14.1,2.9,28.7,3.1,42.9,0.5c16.7-3.1,32.5-10.2,46.1-20.5c11.2-8.5,20.6-19.1,27.8-31.1c3-4.9,5.5-10.1,7.6-15.4
		c1.8-4.5,3.3-9.1,4.5-13.8c1-4.2,1.8-8,2.2-11.4c0.2-1.7,0.4-3.2,0.6-4.6s0.2-2.7,0.3-3.8s0.1-2.1,0.1-3s0-1.6,0.1-2.2
		C367.3,214.2,367.4,213.6,367.4,213.6c0,0,0,0.6,0,1.8c0,0.6,0,1.3,0,2.2s0,1.9-0.1,3s-0.2,2.4-0.3,3.8s-0.4,2.9-0.5,4.6
		c-0.5,3.3-1.2,7.1-2.2,11.4c-1.2,4.7-2.7,9.3-4.5,13.8c-2.1,5.4-4.7,10.6-7.6,15.5c-7.2,12.1-16.7,22.7-27.9,31.3
		c-13.6,10.4-29.5,17.5-46.3,20.6c-9.3,1.8-18.9,2.3-28.4,1.6c-5-0.3-9.9-1-14.7-2c-5-1.1-9.9-2.5-14.7-4.2
		c-20.5-7.4-38.3-20.8-51.2-38.3c-3.4-4.6-6.4-9.4-9-14.4c-0.6-1.3-1.4-2.5-1.9-3.9s-1.2-2.6-1.8-3.9c-1.1-2.7-2.2-5.4-3-8.1
		c-1.9-5.5-3.3-11.2-4.2-17c-1.9-11.7-1.9-23.7,0-35.4c0.9-5.8,2.3-11.5,4.2-17c0.9-2.8,2-5.4,3-8.1c0.6-1.3,1.2-2.6,1.8-3.9
		s1.3-2.6,1.9-3.9c2.6-5,5.6-9.9,9-14.4c12.9-17.6,30.7-30.9,51.2-38.3c4.8-1.7,9.7-3.2,14.7-4.2c14.2-2.9,28.8-3.1,43.1-0.5
		c8.7,1.6,17.2,4.3,25.3,8c7.5,3.4,14.5,7.6,21,12.6c11.2,8.6,20.7,19.2,27.9,31.3c3,5,5.5,10.1,7.6,15.5c1.8,4.5,3.3,9.1,4.5,13.8
		c1,4.2,1.7,8.1,2.2,11.4c0.2,1.7,0.4,3.2,0.5,4.6s0.2,2.7,0.3,3.9s0.1,2.1,0.1,3s0,1.6,0,2.2C367.4,213,367.4,213.6,367.4,213.6z"
		/>
	<path class="st2" d="M259,338.4v-1c69.8,0,126.3-56.6,126.3-126.4S328.7,84.7,258.9,84.7c-69.8,0-126.3,56.6-126.3,126.3h-1
		c0-70.2,57.1-127.3,127.3-127.3c70.3,0.6,126.8,58.1,126.2,128.5C384.6,281.6,328.4,337.8,259,338.4L259,338.4z"/>
	<path class="st2" d="M257.7,325.8v-5c59.2,0,107.2-48,107.2-107.2s-48-107.2-107.2-107.2v-5c62,0,112.2,50.2,112.3,112.2
		S319.7,325.8,257.7,325.8C257.7,325.8,257.7,325.8,257.7,325.8z"/>
	<path class="st2" d="M388.3,211.1h-5c-0.6-68.7-56.8-123.8-125.4-123.2c-67.8,0.6-122.6,55.4-123.2,123.2h-5
		c0-71.3,58-129.3,129.3-129.3C330.4,81.8,388.2,139.7,388.3,211.1z"/>
	<path class="st2" d="M259.9,357.6c-79.4,0-144.1-64.6-144.1-144.1S180.5,69.4,259.9,69.4v5c-76.7,0-139.1,62.4-139.1,139.1
		s62.4,139.1,139.1,139.1S399,290.2,399,213.5h5C404,293,339.4,357.6,259.9,357.6z"/>
	<path class="st3" d="M257.7,374.5h-2.5v-1h2.5L257.7,374.5z"/>
	<path class="st2" d="M245,374c-1.7-0.1-3.4-0.3-5-0.5l0.1-1c1.7,0.2,3.4,0.3,5,0.5L245,374z M230,372.1c-1.7-0.3-3.4-0.6-5-1l0.2-1
		c1.6,0.3,3.3,0.7,4.9,1L230,372.1z M215.2,368.8c-1.6-0.4-3.2-0.9-4.9-1.4l0.3-1c1.6,0.5,3.2,1,4.8,1.4L215.2,368.8z M200.7,364.1
		c-1.6-0.6-3.2-1.2-4.7-1.9l0.4-0.9c1.5,0.6,3.1,1.3,4.7,1.9L200.7,364.1z M186.7,358c-1.5-0.8-3-1.5-4.5-2.3l0.5-0.9
		c1.5,0.8,3,1.6,4.5,2.3L186.7,358z M173.4,350.6c-1.4-0.9-2.9-1.8-4.3-2.7l0.6-0.8c1.4,0.9,2.8,1.9,4.2,2.7L173.4,350.6z
		 M160.9,342c-1.3-1-2.7-2.1-4-3.1l0.6-0.8c1.3,1,2.6,2.1,3.9,3.1L160.9,342z M149.3,332.2c-1.2-1.1-2.5-2.3-3.7-3.5l0.7-0.7
		c1.2,1.2,2.4,2.3,3.6,3.5L149.3,332.2z M138.6,321.3c-1.1-1.3-2.2-2.5-3.3-3.8l0.8-0.6c1.1,1.3,2.2,2.6,3.3,3.8L138.6,321.3z
		 M129.1,309.5c-1-1.4-2-2.8-2.9-4.1l0.8-0.6c0.9,1.4,1.9,2.7,2.9,4.1L129.1,309.5z M120.6,296.9c-0.9-1.4-1.7-2.9-2.5-4.4l0.9-0.5
		c0.8,1.5,1.7,2.9,2.5,4.4L120.6,296.9z M113.5,283.5c-0.7-1.5-1.4-3.1-2.1-4.6l0.9-0.4c0.7,1.5,1.4,3.1,2.1,4.6L113.5,283.5z
		 M107.6,269.5c-0.6-1.6-1.1-3.2-1.7-4.8l1-0.3c0.5,1.6,1.1,3.2,1.7,4.8L107.6,269.5z M103.1,255c-0.4-1.6-0.8-3.3-1.2-4.9l1-0.2
		c0.4,1.6,0.8,3.3,1.2,4.9L103.1,255z M100,240.1c-0.3-1.6-0.5-3.3-0.7-5l1-0.1c0.2,1.7,0.4,3.3,0.7,5L100,240.1z M98.3,225
		c-0.1-1.7-0.2-3.4-0.2-5.1h1c0,1.7,0.1,3.4,0.2,5L98.3,225z M99,209.9h-1c0.1-1.7,0.1-3.4,0.2-5.1l1,0.1
		C99.2,206.5,99.1,208.2,99,209.9z M100.2,194.8l-1-0.1c0.2-1.7,0.4-3.4,0.7-5l1,0.2C100.7,191.5,100.4,193.2,100.2,194.8
		L100.2,194.8z M102.8,180l-1-0.2c0.4-1.6,0.8-3.3,1.2-4.9l1,0.2C103.6,176.7,103.2,178.3,102.8,180L102.8,180z M106.8,165.4
		l-0.9-0.3c0.5-1.6,1.1-3.2,1.7-4.8l0.9,0.3C107.9,162.2,107.3,163.8,106.8,165.4L106.8,165.4z M112.2,151.3l-0.9-0.4
		c0.7-1.5,1.4-3.1,2.1-4.6l0.9,0.4C113.6,148.2,112.9,149.7,112.2,151.3L112.2,151.3z M118.9,137.7l-0.9-0.5
		c0.8-1.5,1.7-2.9,2.5-4.4l0.8,0.5C120.6,134.8,119.8,136.2,118.9,137.7L118.9,137.7z M126.9,124.9l-0.8-0.6c1-1.4,2-2.8,3-4.1
		l0.8,0.6C128.9,122.1,127.9,123.5,126.9,124.9L126.9,124.9z M136.1,112.9l-0.8-0.7c1.1-1.3,2.2-2.6,3.3-3.8l0.7,0.7
		C138.3,110.3,137.1,111.6,136.1,112.9L136.1,112.9z M146.3,101.8l-0.7-0.7c1.2-1.2,2.4-2.3,3.7-3.5l0.7,0.7
		C148.7,99.4,147.5,100.6,146.3,101.8L146.3,101.8z M157.6,91.7l-0.6-0.8c1.3-1.1,2.6-2.1,4-3.1l0.6,0.8
		C160.2,89.6,158.9,90.6,157.6,91.7L157.6,91.7z M169.7,82.7l-0.6-0.8c1.4-0.9,2.8-1.8,4.2-2.7l0.5,0.8
		C172.5,80.9,171.1,81.8,169.7,82.7L169.7,82.7z M182.6,75l-0.5-0.9c1.5-0.8,3-1.6,4.5-2.3l0.4,0.9C185.6,73.4,184.1,74.2,182.6,75z
		 M196.2,68.5l-0.4-0.9c1.6-0.7,3.1-1.3,4.7-1.9l0.4,0.9C199.4,67.2,197.8,67.8,196.2,68.5L196.2,68.5z M210.4,63.3l-0.3-1
		c1.6-0.5,3.2-1,4.9-1.4l0.3,1C213.6,62.3,212,62.8,210.4,63.3L210.4,63.3z M225,59.5l-0.2-1c1.6-0.3,3.3-0.7,5-1l0.2,1
		C228.3,58.8,226.7,59.2,225,59.5z M239.9,57.1l-0.1-1c1.7-0.2,3.4-0.3,5-0.5l0.1,1C243.3,56.8,241.6,57,239.9,57.1L239.9,57.1z"/>
	<path class="st2" d="M255.2,56.2v-1h2.5v1H255.2z"/>
</g>
<g id="freepik--Email--inject-33">
	
		<rect x="413.3" y="247.3" transform="matrix(0.9998 -2.094242e-02 2.094242e-02 0.9998 -5.4668 9.2838)" class="st2" width="54.5" height="36.7"/>
	<path class="st0" d="M467.5,247.2c-0.1,0.2-0.3,0.4-0.5,0.5l-1.5,1.4L460,254l-18.4,16.2l-0.1,0.1l-0.2-0.1l-0.4-0.3l-19.7-15.2
		c-2.5-1.9-4.5-3.5-5.9-4.6c-0.7-0.5-1.2-1-1.6-1.3c-0.2-0.1-0.4-0.3-0.5-0.5c0.2,0.1,0.4,0.2,0.6,0.4l1.7,1.2l6,4.5l19.8,15
		l0.4,0.3h-0.3l18.5-16.1l5.6-4.8l1.5-1.3C467.1,247.5,467.3,247.3,467.5,247.2z"/>
	<path class="st0" d="M413.8,285c-0.1-0.1,3.9-5.2,8.9-11.4s9.2-11.2,9.3-11.1s-3.9,5.2-8.9,11.4S414,285.1,413.8,285z"/>
	<path class="st0" d="M450.1,261.6c0.1-0.1,4.2,4.8,9.3,11s9,11.2,8.9,11.3s-4.3-4.8-9.3-11S450,261.7,450.1,261.6z"/>
</g>
<g id="freepik--Signal--inject-33">
	<path class="st1" d="M417.3,97.2c0,2.5-2,4.5-4.5,4.5s-4.5-2-4.5-4.5c0-2.5,2-4.5,4.5-4.5C415.3,92.7,417.3,94.7,417.3,97.2
		C417.3,97.2,417.3,97.2,417.3,97.2z"/>
	<path class="st1" d="M403.8,91.4c4.7-5.1,12.6-5.4,17.7-0.7c0.1,0.1,0.3,0.3,0.4,0.4c2.3,2.3,5.9-1.2,3.6-3.6
		c-6.9-6.9-18-7-24.9-0.1c-0.1,0.1-0.2,0.2-0.3,0.3C397.9,90.2,401.5,93.8,403.8,91.4z"/>
	<path class="st1" d="M388.4,70.4c6.9-5.9,15-9.7,24.2-9.7c9.1-0.1,18,3.3,24.7,9.5c2.4,2.2,6-1.3,3.6-3.6
		c-7.7-7.1-17.8-11.1-28.3-11c-10.6,0-19.9,4.3-27.8,11.2C382.4,68.9,386,72.5,388.4,70.4L388.4,70.4z"/>
	<path class="st1" d="M394.5,82.1c9.2-10.2,24.9-11.1,35.1-1.9c0.5,0.4,1,0.9,1.4,1.4c2.3,2.3,5.9-1.2,3.6-3.6
		c-11.4-11.9-30.3-12.4-42.3-1c-0.5,0.5-0.9,0.9-1.4,1.4C388.7,80.9,392.3,84.5,394.5,82.1L394.5,82.1z"/>
</g>
<g id="freepik--GPS--inject-33">
	<path class="st1" d="M77.9,264.8c0-11.6-9.4-21-21-21s-21,9.4-21,21c0,3.7,1,7.4,2.9,10.6l0,0l0.1,0.1c0.8,1.4,1.8,2.3,2.8,3.8
		l12.2,16.2c1.3,1.7,3.6,2,5.3,0.7c0.3-0.2,0.5-0.5,0.7-0.7l12-15.9c1.1-1.3,2.1-2.6,3-4v-0.1l0,0C76.9,272.2,77.9,268.5,77.9,264.8
		z M56.9,273.9c-5.1,0-9.2-4.1-9.2-9.2s4.1-9.2,9.2-9.2s9.2,4.1,9.2,9.2S62,273.9,56.9,273.9C56.9,273.9,56.9,273.9,56.9,273.9
		L56.9,273.9z"/>
</g>
<g id="freepik--Money--inject-33">
	<path class="st2" d="M93.7,106.9c1,15.3-10.5,28.5-25.8,29.6S39.4,126,38.3,110.7s10.5-28.5,25.8-29.6c0,0,0,0,0.1,0
		C79.4,80.1,92.6,91.6,93.7,106.9C93.6,106.9,93.6,106.9,93.7,106.9z"/>
	<g class="st4">
		<path class="st5" d="M87,106.7c-0.3-0.8-0.6-1.6-0.7-2.5c-0.6-2.2-1.6-4.4-2.9-6.3c-0.9-1.3-1.9-2.5-3-3.7
			C79.1,93,77.6,91.9,76,91c-0.9-0.5-1.8-0.9-2.7-1.2c-1-0.4-1.9-0.7-2.9-0.9c-1-0.2-2.1-0.4-3.1-0.4c-1.1-0.1-2.2,0-3.3,0.1
			c-1.1,0.1-2.2,0.3-3.2,0.6c-1,0.3-2,0.6-3,1c-0.9,0.4-1.8,0.9-2.7,1.4c-0.8,0.5-1.6,1.1-2.4,1.7c-1.4,1.2-2.6,2.5-3.7,4
			c-0.9,1.3-1.7,2.7-2.3,4.2c-0.9,2.2-1.4,4.4-1.6,6.7c0,0.9-0.1,1.7-0.2,2.6c-0.3-0.8-0.5-1.7-0.4-2.6c-0.1-2.4,0.3-4.8,1.1-7.1
			c0.6-1.6,1.4-3.1,2.3-4.5c1.1-1.6,2.3-3.1,3.8-4.4c0.8-0.7,1.6-1.3,2.5-1.9c0.9-0.6,1.9-1.1,2.9-1.6c1-0.5,2.1-0.8,3.2-1.1
			c2.3-0.6,4.6-0.8,7-0.7c1.1,0.1,2.3,0.2,3.4,0.5c1.1,0.3,2.1,0.6,3.1,1c1,0.4,1.9,0.8,2.8,1.4c1.7,1,3.2,2.2,4.6,3.6
			c1.2,1.2,2.2,2.6,3.1,4c1.2,2.1,2.1,4.4,2.5,6.8C87.2,104.9,87.2,105.8,87,106.7z"/>
	</g>
	<g class="st4">
		<path class="st5" d="M69.2,121.1l0.3,3.7l-3.3,0.3l-0.2-3.6c-2.9,0.1-5.8-0.6-8.4-2l1.5-4.1c2,1.2,4.2,1.8,6.5,1.8l-0.4-5.5
			c-3.7-0.6-7.9-1.5-8.2-6.2c-0.3-3.5,2-6.7,7.1-7.7l-0.3-3.6L67,94l0.3,3.6c2.4-0.1,4.7,0.4,6.8,1.5l-1.3,4.2
			c-1.6-0.8-3.4-1.2-5.2-1.3l0.4,5.6c3.7,0.6,7.8,1.4,8.2,6.1C76.6,117,74.3,120.1,69.2,121.1z M64.8,106.9l-0.4-4.7
			c-1.7,0.5-2.3,1.5-2.2,2.6S63.3,106.6,64.8,106.9z M71,114.4c-0.1-1.1-1.1-1.7-2.5-2.1l0.4,4.5C70.5,116.3,71.1,115.4,71,114.4z"
			/>
	</g>
	<path class="st5" d="M44.9,110.1c0.1,0,0.1,0.9,0.5,2.6c0.5,2.3,1.3,4.5,2.5,6.5c0.8,1.4,1.8,2.7,2.9,3.9c1.3,1.3,2.8,2.5,4.3,3.4
		c1.8,1.1,3.7,1.8,5.7,2.4c2.1,0.5,4.3,0.7,6.5,0.6c2.2-0.2,4.3-0.7,6.4-1.5c1.9-0.8,3.7-1.8,5.3-3c2.7-2.2,4.9-5,6.2-8.2
		c0.9-2.2,1.5-4.5,1.7-6.9c0.1-1.7,0.1-2.6,0.1-2.6c0,0.2,0.1,0.4,0.1,0.7c0,0.6,0,1.3,0,1.9c-0.1,2.4-0.6,4.8-1.5,7
		c-0.6,1.5-1.4,3-2.4,4.3c-1.1,1.5-2.4,2.9-3.9,4.1c-1.6,1.3-3.4,2.3-5.4,3.1c-4.2,1.7-8.9,2-13.3,0.9c-2-0.5-4-1.3-5.8-2.4
		c-1.6-1-3.1-2.2-4.4-3.6c-1.1-1.2-2.1-2.6-2.9-4c-1.2-2.1-2-4.3-2.4-6.7c-0.1-0.6-0.2-1.3-0.2-1.9
		C44.9,110.6,44.9,110.4,44.9,110.1z"/>
</g>
<g id="freepik--Character--inject-33">
	<path class="st0" d="M79.2,413.1c0,0,6.7,4.3,9.8,4.2s15.3-15.3,15.3-15.3l-6.3-4.8l-15.6,2.6l-3.1,13.1"/>
	<path class="st0" d="M212.3,191.5c2.7,10.2,0,21.1-7.1,28.9c-3.2,3.5-7.3,6.3-9.3,10.6c-2.2,4.7-1.5,10.3-2.5,15.4
		s-5.4,10.6-10.4,9.4c4.7,7,11.9,12.1,19.7,15.6s16,5.6,24.2,7.6c4.6,1.1,9.5,2.2,13.9,0.5c5.7-2.3,8.5-8.5,10.8-14.2l19.8-49.4"/>
	<path class="st6" d="M280,171.8c0-3.8-3-7-6.8-7.4l-34.9-16c-12.6-1.1-25.2,21.5-25.7,34.1c-0.6,14,1.2,30.9,3.1,41.3
		c3.8,20.9,17.9,21.3,17.9,21.3l1.2,33.9l43.8-0.1L280,171.8z"/>
	<path class="st0" d="M221.9,199.2c0,1.5,1.2,2.6,2.7,2.7c1.4,0.1,2.6-1,2.7-2.4c0,0,0,0,0-0.1c0-1.5-1.2-2.6-2.6-2.7
		C223.2,196.7,221.9,197.7,221.9,199.2C221.9,199.2,221.9,199.2,221.9,199.2z"/>
	<path class="st0" d="M218.4,192.1c0.3,0.2,2.4-0.1,5.2,0.5s4.8,1.8,5.1,1.7c0.2-0.1-0.1-0.4-1-1c-1.3-0.8-2.6-1.3-4.1-1.6
		c-1.4-0.3-2.8-0.4-4.2-0.2C218.6,191.7,218.2,192,218.4,192.1z"/>
	<path class="st0" d="M249.2,197.8c0,1.5,1.2,2.6,2.7,2.7c1.4,0.1,2.6-1,2.7-2.4c0,0,0,0,0-0.1c0-1.5-1.2-2.6-2.6-2.7
		C250.5,195.3,249.3,196.4,249.2,197.8C249.2,197.8,249.2,197.8,249.2,197.8z"/>
	<path class="st0" d="M245.2,193.7c0.4,0.1,2.2-1.4,5.3-2.2s5.5-0.7,5.8-1c0.1-0.1-0.4-0.4-1.4-0.5c-1.6-0.1-3.2,0.1-4.7,0.6
		c-1.5,0.4-2.9,1.1-4.1,2C245.2,193.2,245,193.6,245.2,193.7z"/>
	<path class="st0" d="M235,213c0-0.2-1.8-0.4-4.7-0.8c-0.7-0.1-1.4-0.2-1.6-0.7c-0.1-0.8,0.1-1.5,0.4-2.2c0.7-1.8,1.4-3.7,2.1-5.7
		c2.9-8.1,4.9-14.7,4.6-14.9s-2.9,6.4-5.8,14.4c-0.7,2-1.3,3.9-2,5.7c-0.4,0.9-0.6,1.9-0.3,2.9c0.2,0.6,0.7,1,1.3,1.1
		c0.4,0.1,0.8,0.1,1.3,0.1C233.2,213.2,235,213.2,235,213z"/>
	<path class="st7" d="M233.7,245.4c9.9-0.1,19.6-2.9,28-8.1c0,0-6.2,15.5-27.2,13.9L233.7,245.4z"/>
	<path class="st7" d="M235.6,220.1c1.2-2,3.2-3.4,5.5-3.8c1.4-0.2,2.7,0.5,3.3,1.8c0.7,1.6,0.5,3.4-0.4,4.8
		c-0.9,1.5-2.6,2.4-4.3,2.2c-1.4-0.4-2.7-1.2-3.7-2.3c-0.3-0.3-0.6-0.6-0.8-1c-0.2-0.5-0.1-1.1,0.2-1.5"/>
	<path class="st0" d="M243.6,214.8c-0.5,0-0.4,3.1-3.1,5.4s-6,2-6,2.5c0,0.2,0.8,0.6,2.2,0.6c1.8,0,3.6-0.7,5-1.9
		c1.3-1.2,2.2-2.8,2.4-4.5C244.2,215.6,243.8,214.8,243.6,214.8z"/>
	<path class="st0" d="M243,179.9c0.4,0.8,3.2,0,6.6,0s6.3,0.6,6.6-0.2c0.1-0.4-0.4-1-1.6-1.7c-3.2-1.5-6.9-1.5-10.1,0.1
		C243.4,178.8,242.8,179.5,243,179.9z"/>
	<path class="st0" d="M215.8,188.6c0.6,0.6,3.1-0.1,6.1-0.2s5.5,0.3,6.1-0.4c0.2-0.3-0.2-1-1.3-1.6c-1.6-0.8-3.3-1.1-5-1
		c-1.7,0.1-3.4,0.6-4.8,1.4C215.8,187.6,215.5,188.3,215.8,188.6z"/>
	<path class="st0" d="M301.5,223.6c-1.8-9.3-7.5-39.2-15.8-54.8s-17.9-21.7-27.1-24c-7.1-1.9-14.8,0-20.2,5.1
		c-4.1,3.8-5.2,14.7-5.2,14.7s22.3,4.4,30.1,16.9c8.9,14.3,11.2,21.6,11.2,21.6l3,7.9c0,0,2.4,38.4,1.6,46l33.5,12.1
		C305.4,254.4,303.3,233,301.5,223.6z"/>
	<path class="st0" d="M234.5,164.5c0,0-14.7-0.8-19.1,13.7c-2,6.5-2.2,25.6-2.2,25.6s-3.1-15.1-2.7-23.6s4.5-19.3,10.8-25.4
		c6.2-5.9,11.5-8.8,22.8-8.4c0,0-1.6,3.2-4.4,7.6C238.4,156.1,236.2,156.4,234.5,164.5z"/>
	<path class="st6" d="M274.3,204.3c0.1-4.7,5.1-7.9,9.2-5.6c2.2,1.2,4,3.8,3.9,8.7c-0.2,13.2-13.4,10.2-13.4,9.8
		C274,217,274.2,209.8,274.3,204.3z"/>
	<path class="st7" d="M278.1,212.3c0.1,0,0.2,0.2,0.6,0.4c0.5,0.2,1.2,0.3,1.7,0.1c1.4-0.5,2.6-2.7,2.7-5c0.1-1.1-0.2-2.3-0.6-3.3
		c-0.2-0.8-0.9-1.5-1.7-1.8c-0.5-0.2-1.1,0.1-1.4,0.6c-0.2,0.4-0.1,0.6-0.2,0.6s-0.3-0.2-0.2-0.8c0.1-0.3,0.3-0.6,0.5-0.8
		c0.4-0.3,0.8-0.4,1.3-0.3c1.1,0.2,2,1,2.4,2.1c0.5,1.2,0.8,2.4,0.7,3.7c-0.1,2.6-1.5,5.1-3.5,5.6c-0.7,0.2-1.5,0-2.1-0.4
		C278.1,212.6,278.1,212.3,278.1,212.3z"/>
	<path class="st8" d="M249.4,144.5c0,0.1-1.5,0.4-3.8,1.4c-3,1.3-5.5,3.4-7.4,6.1c-1.8,2.7-3.3,5.6-4.3,8.7
		c-0.8,2.4-1.2,3.9-1.3,3.9c0-0.4,0.1-0.7,0.2-1.1c0.1-0.7,0.4-1.7,0.8-2.9c0.9-3.2,2.3-6.2,4.2-8.9c1.1-1.5,2.3-2.8,3.8-3.9
		c1.2-0.9,2.5-1.6,3.9-2.2c0.5-0.2,1.1-0.4,1.6-0.6c0.4-0.1,0.8-0.3,1.2-0.3C248.7,144.6,249.1,144.5,249.4,144.5z"/>
	<path class="st8" d="M295.6,246.5c-0.1-0.1-0.1-0.2-0.1-0.3c-0.1-0.2-0.2-0.5-0.3-0.8c-0.4-1.1-0.7-2.2-0.9-3.3
		c-0.6-4.1-0.6-8.3,0-12.5c0.3-2.6,0.6-5.5,0.9-8.6c0.3-3.3,0.3-6.6-0.2-9.8c-0.6-3.6-1.9-7-3.7-10.1c-2-3.4-4.4-6.4-7.2-9.1
		c-5.8-5.6-12.5-9.4-18.6-12.7s-11.7-6.2-16.2-9c-3.5-2.2-6.9-4.6-10.2-7.2c-1.2-0.9-2-1.7-2.6-2.2l-0.7-0.6
		c-0.1-0.1-0.2-0.2-0.2-0.2l0.2,0.2c0.2,0.1,0.4,0.3,0.7,0.5l2.7,2.1c2.3,1.8,5.8,4.3,10.3,7.1s10.1,5.6,16.2,8.9
		s12.9,7.1,18.8,12.7c2.9,2.7,5.3,5.8,7.3,9.2c1.9,3.2,3.1,6.7,3.7,10.3c0.4,3.3,0.5,6.6,0.1,9.9c-0.3,3.1-0.7,6-1,8.6
		c-0.6,4.1-0.7,8.3-0.1,12.4c0.2,1.1,0.4,2.2,0.8,3.3c0.1,0.4,0.2,0.6,0.2,0.8C295.6,246.3,295.6,246.4,295.6,246.5z"/>
	<path class="st0" d="M84.1,396.4c0.2-0.2,0.5-0.4,0.8-0.5c0.8-0.4,1.5-0.7,2.3-1c2.7-0.9,5.6-1,8.3-0.5c2.8,0.6,5.3,1.9,7.5,3.7
		c0.6,0.6,1.2,1.2,1.8,1.8c0.4,0.5,0.6,0.8,0.5,0.8s-0.9-1-2.5-2.3c-4.3-3.5-10.1-4.7-15.5-3.2C85.3,395.8,84.2,396.5,84.1,396.4z"
		/>
	<path class="st0" d="M98.6,388.9c0.7,0.3,1.3,0.8,1.8,1.4c2.7,2.5,4.6,5.7,5.5,9.3c0.2,0.7,0.3,1.5,0.3,2.2c-0.7-2.4-1.6-4.8-2.8-7
		C102,392.7,100.4,390.7,98.6,388.9z"/>
	<path class="st0" d="M174.9,474.7c0,0,10.6-51.7,33.1-61.7l89.2-2.6c0,0,29.5,19.8,34.2,64.6L174.9,474.7z"/>
	<path class="st9" d="M234.1,254.4c0,0,2.6,16.6,20.3,14.6s24.6-11.9,24.6-11.9l24.5,7.9l3.9,47.5c-14,27.3-21.8,57.2-23,87.9
		c-0.2,5.1-0.4,10.8-3.8,14.6c-2.1,2.4-5.1,3.6-8.1,4.7c-19.3,6.5-40.4,4.7-58.4-4.8c0,0-7.5-81.2-6.6-83.5s13.2-70.6,13.2-70.6
		L234.1,254.4z"/>
	<path class="st1" d="M208.1,258.2c0,0-15.6,1.1-19.8,3.2s-58.9,70.7-61,71.8c-1.7,0.9-34.3,31.1-47.7,60.4
		c-2.7,5.8-4.7,14-0.3,19.5c0,0,15.7-19.7,25.1-11l42.1-42.7l44-25.7L208.1,258.2z"/>
	<g class="st4">
		<path d="M224,392.3c18.5-35.8,18.5-87.6,9.7-135.2l-7.9,67.6L224,392.3z"/>
	</g>
	<path class="st1" d="M184.1,270.7l1.4,58c0,0,5.6,64.3,6.6,64.3s4.2,22.6,0,32.7s-17.8,23.7-17.8,23.7l17.1,18.5
		c0,0,16-25.4,20.9-41.8s18.5-41.1,20.6-87.1s1.2-90.9,1.2-90.9l-13.4,9.7l-12.9,0.3L184.1,270.7z"/>
	<path class="st0" d="M215,423c0,0,0-0.2,0.1-0.5s0.2-0.9,0.4-1.6l1.7-6.2c1.4-5.4,3.4-13.2,5.3-22.9c0.9-4.9,1.8-10.2,2.4-16
		c0.3-2.9,0.5-5.9,0.6-9c0.1-3.2-0.1-6.4-0.5-9.5c-0.2-1.6-0.6-3.2-1.1-4.8c-0.5-1.6-1-3.2-1.7-4.8l-1-2.4l-1.1-2.4
		c-0.7-1.6-1.5-3.2-2.3-4.8c-3.2-6.4-6.9-12.8-11-19.2c-3.5-5.5-7.1-10.9-10.7-15.9l-0.1-0.2l0.2-0.1l26.1-21.4l0.2,0.4l-23,2.6
		l-0.5,0l0.3-0.4c6.6-8,11.9-14.6,15.6-19.1l4.2-5.2l1.1-1.3c0.3-0.3,0.4-0.4,0.4-0.4l-0.4,0.5l-1.1,1.4l-4.2,5.1l-15.4,19.2
		l-0.2-0.3l23-2.7l0.8-0.1l-0.6,0.5L196.5,303l0.1-0.4c3.6,5,7.2,10.4,10.8,15.9c4,6.4,7.8,12.8,11,19.2c0.8,1.6,1.6,3.2,2.3,4.8
		l1.1,2.4l1,2.4c0.7,1.6,1.2,3.2,1.7,4.8c0.5,1.6,0.9,3.2,1.1,4.9c0.4,3.2,0.6,6.4,0.5,9.6c-0.1,3.1-0.3,6.1-0.6,9
		c-0.6,5.8-1.5,11.2-2.5,16.1c-1.9,9.8-4,17.5-5.5,22.9c-0.8,2.7-1.4,4.7-1.8,6.1c-0.2,0.7-0.4,1.2-0.5,1.6S215,423,215,423z"/>
	<path class="st1" d="M279,242.9c0,0,8.6,13.3,9.5,14.2c0,0,36.5,10.3,38.7,14.7c8.9,17.9,1.7,24.4,0,49
		c-2.1,30.6-12.4,73.3-12.4,73.3s14.4,55.6,16,58.7s-49.1,21.7-54.5,14.7s-9.6-31.2-9.6-31.2s-5-49.1-3.1-68.7s11-39.7,14.2-63.3
		C281.1,279.4,279,242.9,279,242.9z"/>
	<path class="st0" d="M265.5,380c0-0.2,0-0.5,0.1-0.7c0.1-0.5,0.2-1.2,0.4-2s0.4-2,0.7-3.2s0.8-2.6,1.3-4.1
		c2.8-7.9,6.6-15.5,11.3-22.4c4.7-7,10-13.5,15.9-19.5c2.2-2.3,4.1-4.1,5.5-5.3c0.7-0.6,1.2-1,1.6-1.3c0.2-0.2,0.4-0.3,0.6-0.4
		c0,0-3,2.6-7.4,7.3c-5.7,6.1-11,12.6-15.7,19.6c-4.7,6.9-8.5,14.4-11.4,22.2c-0.5,1.5-1,2.9-1.4,4.1s-0.6,2.3-0.8,3.2
		s-0.4,1.5-0.5,2C265.6,379.5,265.5,379.8,265.5,380z"/>
	<path class="st0" d="M288.5,257.8c0.1,0.2,0.3,0.4,0.4,0.7c0.2,0.5,0.6,1.2,1,2c0.8,1.8,2,4.3,3.5,7.4c0.7,1.6,1.5,3.3,2.4,5.1
		l1.3,2.9c0.4,1,0.9,2,1.3,3.1c1.6,4.3,3.4,9,5.2,13.9l4.1,11.1l0.1,0.3l-0.3,0.1l-9.8,2.1l0.1-0.3l4.9,10.8c0.5,1.3,1,2.3,1.3,3
		l0.3,0.8c0,0.1,0.1,0.2,0.1,0.3c-0.1-0.1-0.1-0.2-0.1-0.2l-0.4-0.8l-1.4-3l-5.1-10.7l-0.1-0.2l0.3-0.1l9.7-2.2l-0.2,0.3L303,293
		c-1.8-4.9-3.6-9.6-5.2-13.9c-0.4-1.1-0.9-2.1-1.3-3.1l-1.3-2.9L293,268c-1.4-3.1-2.5-5.6-3.3-7.5l-0.9-2
		C288.7,258.3,288.6,258,288.5,257.8z"/>
	<path class="st1" d="M312.5,387.9c0,0,18.7,18.7,28.3,17.6s22.1-21.9,22.1-29.1s-9-53.6-9-53.6l3.7-17.5l-35-0.7l-7,53.8
		L312.5,387.9z"/>
	<path class="st0" d="M335.2,263.2c0,0.1-0.1,0.3-0.1,0.4l-0.4,1.1l-0.7,1.8c-0.3,0.7-0.6,1.5-1,2.4c-0.8,1.8-1.9,4-3.2,6.5
		s-3,5.2-5,8.1c-4.7,6.9-10.3,13.1-16.6,18.5c-3.7,3.2-7.7,6.1-11.9,8.6c-4.5,2.7-9.5,4.7-14.6,5.9c-5.2,1.1-10.6,1-15.7-0.4
		c-2.4-0.7-4.8-1.7-6.9-3c-2.1-1.3-3.9-2.8-5.5-4.7c-2.9-3.4-5.3-7.1-7.4-11.1c-2-3.6-3.8-7.1-5.3-10.3c-1.4-2.9-2.6-5.8-3.6-8.9
		c-0.8-2.3-1.3-4.6-1.8-7c-0.4-2-0.5-4.1-0.5-6.1c0,0.1,0,0.3,0,0.4c0,0.3,0,0.7,0.1,1.2c0.1,1.5,0.3,3,0.6,4.5
		c0.4,2.4,1.1,4.7,1.8,7c1,3,2.3,5.9,3.7,8.8c1.5,3.2,3.4,6.6,5.4,10.2c2,3.9,4.5,7.6,7.3,11c1.6,1.8,3.4,3.3,5.4,4.5
		c2.1,1.3,4.4,2.3,6.8,2.9c5.1,1.3,10.4,1.5,15.5,0.4c5.1-1.1,10-3.1,14.5-5.8c4.2-2.5,8.2-5.4,11.9-8.6
		c6.3-5.4,11.8-11.6,16.6-18.4c2-2.9,3.7-5.6,5.1-8.1s2.4-4.6,3.3-6.4c0.4-0.9,0.8-1.7,1.1-2.4l0.7-1.8l0.5-1.1
		C335.1,263.5,335.2,263.3,335.2,263.2z"/>
	<path class="st0" d="M327.9,264.5c-0.2,0.2-0.4,0.5-0.6,0.6l-1.7,1.8l-6.5,6.5l-9.6,9.6c-1.9,1.9-4,3.6-6.3,5
		c-2.5,1.6-5.2,2.6-8.2,2.9c-2.9,0.3-5.9-0.2-8.5-1.6c-2.4-1.4-4.2-3.7-4.9-6.4c-0.6-2.4-0.9-4.8-0.8-7.3c0-2.3,0.1-4.4,0.1-6.3
		c0.2-3,0-6.1-0.6-9.1c-0.2-0.8-0.5-1.6-0.9-2.3c-0.1-0.3-0.2-0.5-0.4-0.8c0.2,0.2,0.3,0.5,0.4,0.8c0.4,0.7,0.7,1.5,1,2.3
		c0.7,3,1,6.1,0.8,9.1c0,1.9-0.1,4.1-0.1,6.3c0,2.4,0.3,4.8,0.9,7.1c0.7,2.6,2.4,4.7,4.7,6c2.5,1.3,5.4,1.9,8.2,1.5
		c2.8-0.3,5.5-1.3,7.9-2.8c2.2-1.4,4.3-3.1,6.3-4.9c1.9-1.7,3.5-3.5,5.2-5.1s3.2-3.1,4.5-4.4l6.6-6.4l1.8-1.7
		C327.4,264.9,327.6,264.7,327.9,264.5z"/>
	<path class="st0" d="M195.4,400.4c0-0.1-0.1-0.2-0.1-0.3l-0.1-0.8c-0.1-0.8-0.2-1.8-0.4-3.1c-0.3-2.8-0.8-6.7-1.4-11.5
		c-1.2-9.7-2.9-23.1-4.4-37.9c-0.8-7.4-1.4-14.5-2-20.9s-0.9-12.2-1.1-17.1c-0.1-2.4-0.2-4.6-0.3-6.6s-0.1-3.6-0.1-5s0-2.4,0-3.1
		v-0.8c0-0.1,0-0.2,0-0.3c0,0.1,0,0.2,0,0.3c0,0.2,0,0.5,0.1,0.8c0,0.8,0,1.8,0.1,3.1c0,1.4,0.1,3,0.2,5s0.2,4.1,0.3,6.6
		c0.3,4.9,0.7,10.7,1.2,17.1s1.2,13.5,2,20.9c1.6,14.8,3.2,28.2,4.3,37.9c0.5,4.8,1,8.8,1.2,11.5c0.1,1.3,0.2,2.4,0.3,3.1
		c0,0.3,0,0.6,0.1,0.8C195.4,400.2,195.4,400.3,195.4,400.4z"/>
	<path class="st0" d="M357.7,305.4h-2.6l-7.2-0.1l-25.3-0.4l0.2-0.2c-1.4,7.5-2.6,16.1-3.5,25.1c-1.6,16.6-2.2,31.7-3,42.6
		c-0.4,5.5-0.8,9.9-1,12.9c-0.1,1.5-0.3,2.7-0.4,3.5c0,0.4-0.1,0.7-0.1,0.9c0,0.1,0,0.2,0,0.3c0-0.1,0-0.2,0-0.3c0-0.2,0-0.5,0-0.9
		c0.1-0.8,0.2-2,0.3-3.5c0.2-3,0.5-7.5,0.9-12.9c0.7-10.9,1.3-26,2.9-42.6c0.9-9.1,2-17.6,3.5-25.2v-0.2h0.2L348,305l7.2,0.2
		l1.9,0.1h0.5C357.7,305.4,357.7,305.4,357.7,305.4z"/>
	<circle class="st9" cx="349.2" cy="315.3" r="2.7"/>
	<path class="st0" d="M351.9,315.3c-0.1-0.2-0.1-0.4-0.2-0.6c-0.2-0.6-0.5-1-1-1.4c-0.7-0.5-1.6-0.6-2.4-0.3c-1.3,0.5-2,1.9-1.5,3.2
		c0.3,0.7,0.8,1.2,1.5,1.5c0.8,0.3,1.7,0.2,2.4-0.3c0.5-0.3,0.8-0.8,1-1.4C351.8,315.7,351.8,315.5,351.9,315.3c0,0,0.1,0.2,0,0.7
		c-0.1,0.6-0.5,1.2-1,1.6c-0.8,0.6-1.8,0.8-2.8,0.5c-1.5-0.6-2.3-2.3-1.7-3.9c0.3-0.8,0.9-1.4,1.7-1.7c0.9-0.3,2-0.2,2.8,0.5
		c0.5,0.4,0.9,1,1,1.6C352,315.1,351.9,315.3,351.9,315.3z"/>
	<circle class="st9" cx="271.3" cy="399.7" r="2.7"/>
	<path class="st0" d="M274,399.7c0,0-0.1-0.2-0.2-0.6c-0.2-0.6-0.5-1-1-1.4c-1.1-0.8-2.7-0.6-3.5,0.5c-0.8,1.1-0.6,2.7,0.5,3.5
		c0.9,0.6,2.1,0.6,3,0c0.5-0.3,0.8-0.8,1-1.4C273.9,399.9,274,399.7,274,399.7c0.1,0.2,0.1,0.5,0,0.7c-0.1,0.6-0.5,1.2-1,1.6
		c-0.8,0.6-1.8,0.8-2.8,0.5c-1.5-0.6-2.3-2.3-1.7-3.9c0.3-0.8,0.9-1.4,1.7-1.7c0.9-0.3,2-0.2,2.8,0.5c0.5,0.4,0.9,1,1,1.6
		C274.1,399.2,274.1,399.4,274,399.7z"/>
	<path class="st9" d="M279.7,441.4c0,1.5-1.2,2.8-2.8,2.8s-2.8-1.2-2.8-2.8s1.2-2.8,2.8-2.8l0,0
		C278.5,438.7,279.7,439.9,279.7,441.4z"/>
	<path class="st0" d="M279.7,441.4c0,0-0.1-0.2-0.2-0.6c-0.2-0.6-0.5-1-1-1.4c-1.1-0.8-2.7-0.6-3.5,0.5c-0.8,1.1-0.6,2.7,0.5,3.5
		c0.2,0.2,0.4,0.3,0.7,0.4c0.8,0.3,1.7,0.2,2.4-0.3c0.5-0.3,0.8-0.8,1-1.4C279.6,441.6,279.6,441.4,279.7,441.4
		c0.1,0.2,0.1,0.5,0,0.7c-0.1,0.6-0.5,1.2-1,1.6c-0.8,0.6-1.8,0.8-2.8,0.5c-1.5-0.6-2.3-2.3-1.7-3.9c0.3-0.8,0.9-1.4,1.7-1.7
		c1-0.3,2-0.2,2.8,0.5c0.5,0.4,0.9,1,1,1.6C279.8,440.9,279.8,441.2,279.7,441.4z"/>
	<path class="st0" d="M354,322.9c0,0.1-7.2-0.1-16-0.5s-16-0.9-16-1s7.2,0.1,16,0.5S354,322.7,354,322.9z"/>
	<path class="st9" d="M195.8,376.4l-10.3,4.1L163,324.4c-5.3-13.3-20.3-19.7-33.6-14.4c-13.3,5.3-19.7,20.3-14.4,33.6l0,0l22.4,56.2
		l-10.3,4.1l-22.5-56.2c-7.6-18.9,1.6-40.4,20.6-48c18.9-7.6,40.4,1.6,48,20.6l0,0L195.8,376.4z"/>
	<path class="st0" d="M195.8,376.4l-0.5-1.1L194,372l-5-12.5c-2.2-5.4-4.9-12-7.9-19.7c-1.5-3.8-3.2-7.9-4.9-12.3
		c-1.8-4.3-3.3-9.1-6.1-13.5c-2.9-4.6-6.9-8.5-11.6-11.3c-0.6-0.4-1.2-0.8-1.8-1.1l-1.9-1c-1.3-0.6-2.6-1.2-4-1.6
		c-0.7-0.3-1.4-0.4-2.1-0.6s-1.4-0.4-2.2-0.5c-1.5-0.3-3-0.5-4.5-0.6c-3.1-0.2-6.2-0.1-9.3,0.4l-2.3,0.5l-1.2,0.3l-1.1,0.4l-2.3,0.8
		c-0.8,0.3-1.5,0.7-2.2,1c-6.1,2.8-11.3,7.3-15,12.9c-6,9-7.7,20.2-4.6,30.6c1.1,3.5,2.6,6.9,4,10.4l17.2,43.2l2.4,5.9l-0.3-0.1
		l10.3-4.1l-0.1,0.3c-4.5-11.2-8.8-22.1-13.1-32.7l-6.3-15.7l-3.1-7.6c-1-2.5-1.6-5.2-1.8-7.9c-0.4-5.3,0.9-10.6,3.7-15.2
		c0.3-0.6,0.6-1.1,1-1.6l1.2-1.5c1.6-1.9,3.5-3.7,5.6-5.1c0.5-0.4,1.1-0.6,1.6-1l0.8-0.5l0.8-0.4c2.2-1.1,4.6-1.8,7-2.2
		c2.4-0.4,4.8-0.4,7.1-0.2c4.6,0.5,8.9,2.3,12.6,5c3.5,2.5,6.3,5.9,8.1,9.9c0.2,0.5,0.4,0.9,0.6,1.4s0.4,1,0.6,1.4l1.1,2.8
		c0.7,1.9,1.4,3.7,2.2,5.4l7.8,19.5c4.7,11.8,8.3,21,10.7,27.1l-0.1,0l7.8-3.1l1.9-0.7L195.8,376.4l-0.5,0.2c-0.4,0.2-1,0.4-1.9,0.8
		l-7.8,3.2h-0.1v-0.1c-2.5-6.1-6.1-15.3-10.9-27c-2.4-5.9-5-12.4-7.8-19.5l-2.2-5.4c-0.4-0.9-0.8-1.9-1.1-2.8l-0.6-1.4
		c-0.2-0.5-0.4-0.9-0.6-1.4c-0.9-1.9-2-3.7-3.3-5.3c-1.4-1.7-2.9-3.1-4.7-4.4c-3.6-2.7-7.9-4.4-12.4-4.9c-2.3-0.2-4.7-0.2-7,0.2
		c-2.4,0.4-4.7,1.1-6.9,2.2l-0.8,0.4l-0.8,0.5c-0.5,0.3-1.1,0.6-1.6,1c-1,0.7-2,1.5-2.9,2.3c-0.9,0.8-1.8,1.7-2.6,2.7l-1.1,1.5
		c-0.4,0.5-0.7,1.1-1,1.6c-2.7,4.5-3.9,9.7-3.6,14.9c0.2,2.7,0.8,5.3,1.8,7.8c1,2.5,2,5.1,3.1,7.7l6.3,15.7l13.1,32.7l0.1,0.2
		l-0.2,0.1c-3.4,1.3-6.8,2.7-10.3,4.1l-0.2,0.1l-0.1-0.2l-2.4-5.9c-5.9-14.8-11.7-29.2-17.2-43.2c-1.4-3.5-2.9-6.9-4-10.5
		c-1-3.5-1.5-7.2-1.5-10.9c0.1-3.6,0.7-7.2,1.7-10.6c1.1-3.4,2.6-6.5,4.5-9.5c3.7-5.7,9-10.2,15.2-13.1c0.8-0.3,1.5-0.7,2.2-1
		l2.3-0.8c0.4-0.1,0.8-0.3,1.1-0.4l1.2-0.3l2.3-0.5c3.1-0.5,6.2-0.7,9.4-0.4c1.5,0.1,3,0.3,4.5,0.6c0.7,0.1,1.5,0.3,2.2,0.5
		c0.7,0.2,1.5,0.4,2.1,0.6c1.4,0.5,2.8,1,4.1,1.7l2,1c0.6,0.4,1.2,0.8,1.8,1.1c4.7,2.9,8.7,6.8,11.6,11.4c2.9,4.4,4.3,9.2,6.1,13.6
		l4.9,12.4c3.1,7.7,5.7,14.4,7.9,19.8l4.9,12.5l1.3,3.2C195.6,376,195.8,376.4,195.8,376.4z"/>
	<path class="st3" d="M111.8,369.2l78.4-31.4c5.1-2.1,11,0.4,13,5.6l24.2,60.5c2.1,5.1-0.4,11-5.6,13l-78.4,31.4
		c-5.1,2.1-11-0.4-13-5.6l-24.2-60.5C104.1,377.1,106.6,371.3,111.8,369.2z"/>
	<g class="st4">
		<path class="st1" d="M112.1,369.1l77.7-31.1c5.3-2.1,11.4,0.5,13.5,5.8l23.9,59.8c2.1,5.3-0.5,11.4-5.8,13.5l-77.7,31.1
			c-5.3,2.1-11.4-0.5-13.5-5.8l-23.9-59.8C104.2,377.3,106.8,371.2,112.1,369.1z"/>
	</g>
	<path class="st2" d="M107.3,371l71.5-28.6c5.1-2,10.9,0.4,13,5.6l24.2,60.5c2,5.1-0.4,10.9-5.6,13l-71.5,28.6
		c-5.1,2-10.9-0.4-13-5.6L101.8,384C99.7,378.9,102.2,373.1,107.3,371z"/>
	<g class="st4">
		<path d="M168.6,384.3c-2.4-6.1-9.3-9.1-15.4-6.7c-6.1,2.4-9.1,9.3-6.7,15.4c2,5,7,8,12.3,7.5l5.4,13.5c0.7,1.7,2.6,2.5,4.2,1.8
			l0,0c1.7-0.7,2.5-2.5,1.8-4.2c0,0,0,0,0,0l-5.4-13.5C169,394.9,170.5,389.2,168.6,384.3z"/>
	</g>
	<path class="st0" d="M216.7,410.4c-0.1,0-5.7-13.7-12.4-30.7s-12.1-30.9-11.9-30.9s5.7,13.7,12.4,30.7S216.9,410.3,216.7,410.4z"/>
	<path class="st0" d="M167.7,399.2c1.1-1.1,2-2.4,2.8-3.8c0.8-1.5,1.4-3.1,1.6-4.8c0.7-4.2-0.7-8.4-3.6-11.4c-1.2-1.2-2.6-2.2-4.1-3
		c-1.4-0.6-2.9-1.1-4.5-1.4c0.4,0,0.9,0,1.3,0.1c1.2,0.2,2.3,0.5,3.4,1c1.6,0.7,3,1.7,4.3,3c3.1,3.1,4.5,7.5,3.8,11.8
		c-0.3,1.7-0.9,3.4-1.8,4.9c-0.6,1-1.3,1.9-2.1,2.8C168.4,398.7,168.1,399,167.7,399.2z"/>
	<path class="st10" d="M168.2,349.5c0.1,0.1-11.9,5.2-26.8,11.4s-27,11.1-27,10.9s11.9-5.2,26.8-11.4S168.1,349.3,168.2,349.5z"/>
	<path class="st10" d="M148.5,399.2c-0.3-0.1-0.5-0.3-0.7-0.5c-0.6-0.5-1.2-1.1-1.7-1.8c-3.5-4.3-3.9-10.4-1-15.1
		c0.4-0.7,0.9-1.4,1.4-2c0.2-0.2,0.4-0.4,0.7-0.6c0.1,0.1-0.8,1-1.8,2.7c-2.6,4.7-2.2,10.4,0.9,14.7
		C147.6,398.4,148.6,399.1,148.5,399.2z"/>
	<path class="st10" d="M155,402.7c0,0.1-0.8,0.1-1.7,0s-1.6-0.4-1.6-0.5s0.8-0.1,1.7,0S155,402.6,155,402.7z"/>
	<path class="st10" d="M122.7,303c-0.6,0.4-1.1,0.7-1.8,1c-1.6,0.9-3.1,1.9-4.5,3.1c-11.1,9.1-14.9,24.3-9.4,37.5
		c0.5,1.2,0.8,1.9,0.8,1.9c-0.1-0.1-0.2-0.3-0.3-0.5c-0.2-0.3-0.4-0.7-0.7-1.3c-0.8-1.7-1.4-3.4-1.8-5.2c-3.1-12.2,1.3-25,11.2-32.7
		c1.4-1.1,3-2.1,4.6-3c0.6-0.3,1.1-0.5,1.4-0.6C122.4,303.1,122.5,303,122.7,303z"/>
	<path class="st10" d="M110.8,356.5c-0.6-0.9-1.1-1.8-1.4-2.8c-0.5-0.9-0.8-2-0.9-3c0.6,0.8,1.1,1.8,1.4,2.8
		C110.4,354.5,110.7,355.5,110.8,356.5z"/>
	<g class="st4">
		<path d="M185.6,297.4c-4.5,12.9-2.3,27.3,2.7,40C188.4,337.4,185.8,310.9,185.6,297.4z"/>
	</g>
	<g class="st4">
		<path d="M264.2,391.2c5-11.2,9.9-22.4,16.3-32.8s14-20.3,23.8-27.7c2.6-2,7.6-5.7,7.6-5.7s-1.3-2.5-2.6-4.6
			c-1.5-2.4-4-6.6-5.3-8.6l5.9,1.2c0,0-4-9.2-3.9-8.6c-2.6,0.7-5.3,1.2-7.9,1.6c2,4.9,4.2,9.3,6.3,14.2c-11,8.8-20,19.8-27.5,31.4
			s-12.8,25.1-12.5,39"/>
	</g>
	<path class="st9" d="M285.2,215.8c0.1-0.1,0.4,0,0.8,0.4c0.5,0.6,0.7,1.4,0.7,2.1c0,0.6-0.1,1.1-0.3,1.6c-0.3,0.6-0.7,1.1-1.2,1.6
		c-1.9,1.5-4.7,1.2-6.3-0.7c-0.5-0.6-0.8-1.3-0.9-2c-0.2-1.2,0.1-2.5,0.9-3.4c0.5-0.6,1.2-1,1.9-1.1c0.5-0.1,0.8,0.1,0.9,0.2
		c0.1,0.4-0.8,0.8-1.2,1.9c-0.3,0.6-0.3,1.2-0.1,1.8c0.4,1.2,1.6,1.9,2.8,1.6c0.2-0.1,0.4-0.2,0.6-0.3c0.5-0.3,0.9-0.8,1.1-1.4
		C285.2,216.9,284.9,216,285.2,215.8z"/>
	<path class="st6" d="M104.6,429.5c0,0,3.4,11,5.2,13.2s13.5,3.4,13.5,3.4L104.6,429.5z"/>
	<path class="st6" d="M118.7,412l6.5,5.2l19.4,14.9c0,0-0.1,3.6-4.5,2.8c-3.5-0.7-11.4-5-11.4-5s9.2,8.7,9.5,12.7v0.7
		c0,0.9-0.4,1.8-1,2.4l0,0l-10.8-7.2c0,0,2.3,4.1,4.6,8.3c0.7,1.7,0.4,3.7-0.7,5.1l0,0l-24-20.1l-0.2-15L118.7,412"/>
	<path class="st7" d="M116.1,421.4c0.3,0,0.6,0.1,0.9,0.2c0.3,0.1,0.6,0.2,1,0.4s0.8,0.4,1.2,0.7c1.8,1.1,4.1,2.8,6.7,4.8
		c2.1,1.7,4.4,3.2,6.8,4.5c1.8,1,3.1,1.4,3,1.5c-0.3,0-0.6-0.1-0.9-0.2c-0.3-0.1-0.7-0.2-1-0.4c-0.4-0.2-0.9-0.4-1.3-0.6
		c-2.4-1.3-4.7-2.8-6.9-4.5c-2.6-1.9-4.8-3.7-6.6-4.9l-1.2-0.7l-0.9-0.5C116.6,421.7,116.4,421.6,116.1,421.4z"/>
	<path class="st7" d="M113.9,428.7c0.7,0.4,1.4,0.8,2.1,1.3c1.2,0.9,2.9,2.1,4.7,3.5s3.3,2.8,4.4,3.8c0.6,0.5,1.2,1.1,1.7,1.8
		c-0.7-0.4-1.3-0.9-1.9-1.5l-4.5-3.7l-4.6-3.6C115.1,429.8,114.5,429.3,113.9,428.7z"/>
	<path class="st6" d="M81.6,410.4c-0.2,0.2,0.1,0.5,0.2,0.9c2.6,5.5,25,20.9,25,20.9l12.2-20.8c0,0,8.9,4.3,12.5,3.3
		c3-0.8,8.6-1.4,6-6.7c0,0-12.5-2.3-16.8-4.1s-6.9-2.8-6.9-2.8c-4.9,0.1-9.7-0.4-14.4-1.4C99.4,399.7,91.9,398.6,81.6,410.4z"/>
	<path class="st7" d="M129.8,451.5c-1-0.7-1.9-1.4-2.8-2.2c-1.8-1.5-4.2-3.4-6.7-5.5s-5-4.1-6.6-5.6c-0.8-0.7-1.5-1.3-1.9-1.8
		c-0.3-0.2-0.5-0.4-0.7-0.7c1,0.7,1.9,1.4,2.8,2.2l6.7,5.5c2.6,2.1,5,4.1,6.6,5.6c0.8,0.7,1.5,1.3,1.9,1.8S129.8,451.5,129.8,451.5z
		"/>
	<path class="st9" d="M339.6,229.7l7.7,1.2l0.9-5.9l-3-0.5l0.4-2.7l-2.8-0.4l0.4-2.4l3.2,0.5l0.3-2l-5.1-0.8l0.1-0.8l-0.1,0.8l0,0
		l0.1-0.8c0.1-1-0.7-1.9-1.7-2c-1-0.1-1.9,0.7-2,1.7c-1.5,9.5-3,19.1-4.5,28.6l-1.2,7.6c-5.5,0.2-9.9,4.7-9.7,10.3
		c0.1,5.5,4.7,9.9,10.3,9.7s9.9-4.7,9.7-10.3c-0.1-4.1-2.8-7.8-6.7-9.2c1.2-7.3,2.3-14.7,3.5-22l0,0L339.6,229.7z M340,263
		c-0.6,4.1-4.4,6.8-8.5,6.2c-4.1-0.6-6.8-4.4-6.2-8.5c0.6-4,4.4-6.8,8.5-6.2l0,0C337.9,255.1,340.7,258.9,340,263
		C340.1,263,340.1,263,340,263L340,263z"/>
	<path class="st11" d="M339.6,229.7l7.7,1.2l0.9-5.9l-3-0.5l0.4-2.7l-2.8-0.4l0.4-2.4l3.2,0.5l0.3-2l-5.1-0.8l0.1-0.8l-0.1,0.8l0,0
		l0.1-0.8c0.1-1-0.7-1.9-1.7-2c-1-0.1-1.9,0.7-2,1.7c-1.5,9.5-3,19.1-4.5,28.6l-1.2,7.6c-5.5,0.2-9.9,4.7-9.7,10.3
		c0.1,5.5,4.7,9.9,10.3,9.7s9.9-4.7,9.7-10.3c-0.1-4.1-2.8-7.8-6.7-9.2c1.2-7.3,2.3-14.7,3.5-22l0,0L339.6,229.7z M340,263
		c-0.6,4.1-4.4,6.8-8.5,6.2c-4.1-0.6-6.8-4.4-6.2-8.5c0.6-4,4.4-6.8,8.5-6.2l0,0C337.9,255.1,340.7,258.9,340,263
		C340.1,263,340.1,263,340,263L340,263z"/>
	<path class="st0" d="M340,263c0.1-1.1-0.1-2.1-0.3-3.1c-0.3-1.2-1-2.2-1.8-3.1c-1.1-1.1-2.5-1.8-4.1-2.1l0.1-0.4l0,0l1.5,0.7
		l-1.7-0.2c-3.9-0.6-7.6,2.1-8.2,6c-0.2,1.5,0,3,0.7,4.4c0.6,1.3,1.7,2.3,2.9,3c2.1,1.2,4.7,1.2,6.9,0.1c1.5-0.8,2.6-2,3.3-3.5
		C339.7,264.2,339.9,263.6,340,263c0,0.2,0,0.3,0,0.5c-0.1,0.5-0.2,0.9-0.4,1.3c-0.6,1.6-1.8,2.9-3.3,3.7c-3.7,2-8.3,0.7-10.4-3
		c0,0-0.1-0.1-0.1-0.2c-1.9-3.8-0.5-8.4,3.3-10.3c1.5-0.8,3.1-1,4.7-0.8l-0.1,0.4l0,0l-1.6-0.7l1.8,0.3c1.6,0.3,3.1,1.1,4.3,2.3
		c0.9,0.9,1.5,2,1.8,3.2c0.2,0.8,0.3,1.6,0.2,2.4C340.2,262.5,340.1,262.7,340,263z"/>
	<path class="st0" d="M339.6,229.7c0,0,0,0.2-0.1,0.7h-0.1l0,0h0.1c-0.3,2.2-1.5,10.2-3.3,22l-0.1-0.2c5.2,1.9,7.8,7.7,5.9,12.9
		c-1.9,5.2-7.7,7.8-12.9,5.9c-5.2-1.9-7.8-7.7-5.9-12.9c1.3-3.5,4.4-6,8.1-6.4c0.4-0.1,0.7-0.1,1.1-0.1l-0.2,0.2
		c1.3-8.1,2.5-15.9,3.7-23.2c0.6-3.6,1.1-7.2,1.7-10.6c0.1-0.9,0.3-1.7,0.4-2.5c0.1-0.9,0.9-1.7,1.9-1.8c0.9-0.1,1.8,0.5,2.1,1.3
		c0.1,0.4,0.1,0.9,0,1.3v0.3v0.1l0,0l-0.4-0.1v-0.1v-0.1l0.1-0.6l0.4,0.1l-0.1,0.8l-0.2-0.2l5.1,0.8h0.2v0.2c-0.1,0.7-0.2,1.4-0.3,2
		v0.2h-0.2l-3.2-0.5l0.2-0.1c-0.1,0.9-0.3,1.6-0.4,2.4l-0.1-0.2l2.8,0.4h0.2v0.2c-0.2,1-0.3,1.8-0.4,2.7l-0.1-0.2l3,0.5h0.1v0.1
		c-0.4,2.2-0.7,4.2-1,5.9v0.1h-0.1l-5.7-1l-1.5-0.3l-0.5-0.1h0.5l1.5,0.2l5.8,0.8l-0.1,0.1c0.3-1.7,0.5-3.6,0.9-5.9l0.1,0.2l-3-0.4
		h-0.1v-0.1l0.4-2.7l0.1,0.2l-2.8-0.4h-0.2v-0.2c0.1-0.8,0.2-1.5,0.4-2.4v-0.2h0.2l3.2,0.5l-0.2,0.2c0.1-0.6,0.2-1.3,0.3-2l0.2,0.2
		l-5.1-0.8h-0.2v-0.2l0.1-0.8l0.4,0.1l-0.1,0.6v0.1v0.1c-0.9-0.1-0.2,0-0.4-0.1l0,0v-0.1v-0.3c0.1-0.3,0.1-0.7,0-1.1
		c-0.3-0.7-0.9-1.1-1.7-1.1c-0.8,0.1-1.3,0.7-1.5,1.4l-0.4,2.5l-1.6,10.6c-1.1,7.3-2.4,15.1-3.6,23.2v0.2h-0.2c-0.3,0-0.7,0-1,0.1
		c-5.3,0.7-9.1,5.6-8.3,11c0.4,2.9,2.1,5.4,4.5,7c2.1,1.3,4.6,1.8,7.1,1.3c5.3-1.1,8.7-6.3,7.6-11.6c-0.7-3.3-3.1-6-6.3-7.2
		l-0.1-0.1v-0.1c1.9-11.8,3.2-19.8,3.6-22l0,0C339.6,229.9,339.6,229.7,339.6,229.7z"/>
	<path class="st6" d="M322.6,258.7l12.4-3.2l6.4,0.8c1.2,0.2,2.2,0.9,2.7,2l4.2,9.1c0,0,6,5,5.3,8s-6.3,29.9-6.3,29.9l-16.6-0.5
		c-2.9-3.6-4.6-8-5-12.6c-0.2-3.8,1.3-6.1,0.9-8.1c-0.2-1.4,0.6-3.8,1-5.7l0.5-1.8l-1.1,0.5c-1.7,0.8-3.7,0.1-4.5-1.5
		c-0.1-0.3-0.3-0.6-0.3-1c0-0.1,0-0.2,0-0.3l0,0c-0.1-2.2,0.7-4.3,2.2-5.8l6.2-6.1C330.8,262.4,323.9,266.3,322.6,258.7z"/>
	<path class="st7" d="M343.7,273.7c-0.4,0-0.8,0-1.1-0.1l-3.1-0.5l-4.5-0.9c-0.9-0.2-1.8-0.4-2.7-0.5c-0.9-0.1-1.8,0.1-2.5,0.8
		c-0.5,0.8-0.9,1.6-1,2.6c-0.2,0.9-0.4,1.8-0.6,2.7c-0.4,1.5-0.7,3-0.8,4.5c-0.1,1,0.4,2,1.2,2.6c0.3,0.2,0.6,0.3,1,0.4
		c-0.1,0-0.2,0-0.3,0c-0.3,0-0.6-0.1-0.8-0.3c-0.9-0.6-1.5-1.6-1.5-2.7c0.1-1.6,0.3-3.1,0.7-4.6c0.2-0.9,0.4-1.8,0.5-2.7
		c0.1-1,0.5-2,1.2-2.8c0.8-0.8,1.8-1.1,2.9-0.9c0.9,0.1,1.8,0.3,2.7,0.5l4.5,1l3,0.7C342.9,273.4,343.3,273.5,343.7,273.7z"/>
	<path class="st7" d="M337.2,287.4c0,0,0,0.5-0.6,1c-0.4,0.3-0.9,0.4-1.4,0.4c-0.6,0-1.2-0.1-1.8-0.4c-1.6-0.4-3-1.4-4-2.7
		c-1-1.8-1-4-0.1-5.8c0.4-1,0.9-1.8,1.5-2.6c0.3-0.4,0.8-0.7,1.2-0.9c0.5-0.1,1-0.2,1.5-0.1c1.6,0.3,3.1,0.8,4.5,1.5
		c1,0.4,1.9,0.9,2.9,1.4c0.4,0.2,0.7,0.4,1,0.7c0,0.1-1.5-0.8-4-1.8c-1.4-0.6-2.9-1-4.5-1.3c-0.4-0.1-0.8,0-1.2,0.1
		c-0.4,0.2-0.7,0.4-1,0.8c-0.6,0.8-1.1,1.6-1.4,2.5c-0.9,1.7-0.9,3.7,0,5.3c0.9,1.3,2.2,2.2,3.6,2.6c0.6,0.2,1.1,0.3,1.7,0.4
		c0.4,0,0.9-0.1,1.2-0.3C336.8,288,337.1,287.7,337.2,287.4z"/>
	<path class="st7" d="M337.1,285.6c0,0.1-0.3,0.2-0.9,0.3c-1.5,0.2-2.9-0.6-3.7-1.9c-0.3-0.5-0.3-0.8-0.2-0.9s0.7,1.2,2,1.9
		C335.2,285.3,336.1,285.5,337.1,285.6z"/>
	<path class="st7" d="M338.3,288.9c-0.1,0.1-0.9-0.4-1.4-1.3s-0.6-1.8-0.5-1.9s0.4,0.7,0.9,1.6S338.4,288.8,338.3,288.9z"/>
	<path class="st7" d="M337.9,298.1c-1.4-2.9-1.3-6.2,0.3-9c-0.4,1.5-0.6,3-0.7,4.5C337.5,295.1,337.7,296.6,337.9,298.1z"/>
	<path class="st7" d="M337.6,289.9c-2.9,1.2-5.3,3.4-6.5,6.4c0-0.5,0.1-1,0.3-1.4c0.4-1.1,1.1-2,1.9-2.8c0.8-0.8,1.8-1.4,2.9-1.9
		C336.7,290,337.1,289.9,337.6,289.9z"/>
	<path class="st7" d="M332.5,269.3c0.1,0,0.2,0.5,0.1,1.1s-0.5,1-0.6,0.9s0-0.5,0.1-1S332.4,269.3,332.5,269.3z"/>
	<path class="st7" d="M347.2,269.5c-0.9-0.4-1.7-0.8-2.5-1.3c-1.5-0.9-3.5-2.1-5.8-3.5c-1-0.7-2.1-1.2-3.2-1.7
		c-0.9-0.4-1.9-0.5-2.9-0.5c-0.9,0.1-1.8,0.3-2.6,0.7c0,0,0.2-0.2,0.6-0.5c0.6-0.3,1.3-0.6,2-0.6c1-0.1,2.1,0.1,3.1,0.4
		c1.2,0.4,2.3,1,3.4,1.7c2.2,1.4,4.2,2.7,5.7,3.6C345.8,268.3,346.5,268.9,347.2,269.5z"/>
	<path class="st0" d="M339.6,230c0.1-2.3,0.3-4.5,0.7-6.8c0.2-2.3,0.7-4.5,1.3-6.7c-0.1,2.3-0.3,4.5-0.7,6.8
		C340.6,225.6,340.2,227.8,339.6,230z"/>
	<g class="st4">
		<path d="M341.6,216.9c1.1,4.2,0.4,8.7-1.9,12.4C340.4,225.7,341.1,220.8,341.6,216.9"/>
	</g>
</g>
<g id="freepik--Plant--inject-33">
	<path class="st3" d="M452.3,395.2c-7.7-7.4-19.8-7.1-27.2,0.5c-1.9,2-3.4,4.4-4.3,7.1l2.3,8.8c0.9-3,2.7-5.9,5.6-7.1
		s6.5-0.5,9.5,0.6s6.1,2.6,9.3,2.8s6.9-1.3,7.9-4.4C456.3,400.4,454.5,397.3,452.3,395.2z"/>
	<g class="st4">
		<path d="M452.3,395.2c-7.7-7.4-19.8-7.1-27.2,0.5c-1.9,2-3.4,4.4-4.3,7.1l2.3,8.8c0.9-3,2.7-5.9,5.6-7.1s6.5-0.5,9.5,0.6
			s6.1,2.6,9.3,2.8s6.9-1.3,7.9-4.4C456.3,400.4,454.5,397.3,452.3,395.2z"/>
	</g>
	<path class="st2" d="M397.4,424.6c-4.8-4.5-4.5-12.4-2.1-18.5s7.6-10.8,13.4-13.9c11.5-6,25-6.5,36.9-1.2
		c-5.8,0.3-11.1,3.4-14.1,8.3c-2.6,4.3-3.2,9.6-5.4,14.2C420.9,424.2,408.3,429.1,397.4,424.6"/>
	<path class="st2" d="M395.1,397.5c-5.3-6.2-6-16.2-5.2-24.4s2.7-16.3,1.4-24.4c-0.8-4.8-2.6-9.3-3.2-14.1s0.3-10.2,4-13.3
		c4.3-3.6,11-2.7,15.4,0.6s7,8.6,8.9,13.8c4.1,11.5,5.6,24.2,2.2,36s-11.4,22.2-23,25.8"/>
	<path class="st1" d="M392.5,448.5c0-0.2,0-0.5,0-0.7c0-0.5,0-1.2,0-2.1c0.1-1.8,0.2-4.4,0.6-7.5c0.5-3.7,1.1-7.4,2-11
		c1.1-4.5,2.8-8.8,5-12.8c2.3-4,5-7.7,8.2-11c2.6-2.7,5.5-5.1,8.6-7.2c1.3-0.9,2.6-1.6,3.7-2.2s2.1-1.1,2.9-1.5l1.9-0.8
		c0.2-0.1,0.4-0.2,0.7-0.2c-0.2,0.1-0.4,0.2-0.6,0.3l-1.9,0.9c-0.8,0.4-1.8,0.9-2.9,1.5s-2.3,1.4-3.6,2.3
		c-6.9,4.7-12.6,10.9-16.7,18.1c-4.9,8.5-6.2,17.4-7.1,23.6c-0.4,3.2-0.7,5.7-0.8,7.5c0,0.9-0.1,1.5-0.1,2
		C392.5,448.1,392.6,448.3,392.5,448.5z"/>
	<path class="st3" d="M347,372.9c-9.8,5.9-9.7,11.2-8.1,16.3s7.6,8.6,12.6,6.7c2.8-1.1,4.8-3.5,6.6-6s3.4-5.1,5.8-6.8
		c1.7-1.2,3.7-1.8,5.8-1.7L347,372.9z"/>
	<g class="st4">
		<path d="M347,372.9c-9.8,5.9-9.7,11.2-8.1,16.3s7.6,8.6,12.6,6.7c2.8-1.1,4.8-3.5,6.6-6s3.4-5.1,5.8-6.8c1.7-1.2,3.7-1.8,5.8-1.7
			L347,372.9z"/>
	</g>
	<path class="st2" d="M339.6,379.6c2.5-3.5,8.9-4.5,12.8-2.8s6.9,5.2,9.5,8.7s5.1,7.2,8.8,9.6s8.7,3.3,12.3,0.9
		c2.3-1.7,3.8-4.3,4.2-7.2c0.3-2.8,0.1-5.7-0.6-8.5c-0.9-4.1-2.3-8.4-5.5-11c-3.6-2.9-8.7-3-13.4-2.9c-5.4,0.2-10.8,0.6-15.8,2.4
		S341.7,374.7,339.6,379.6"/>
	<path class="st1" d="M384.4,440.7c0,0,0-0.1,0-0.2v-0.6c0-0.6,0-1.4-0.1-2.4c-0.1-2.1-0.1-5.2-0.3-8.9s-0.3-8.2-0.5-13.2
		s-0.6-10.4-1.4-16.1c-0.3-2.8-0.9-5.5-1.6-8.2c-1.5-4.7-3.8-9.1-6.8-13.1c-1.3-1.6-2.6-3.1-4.1-4.5c-2.2-2-4.6-3.7-7.3-5
		c-0.5-0.2-0.9-0.4-1.3-0.6l-1-0.4l-0.6-0.2c-0.1-0.1-0.2-0.1-0.2-0.1l0.2,0.1l0.6,0.2l1,0.3c0.4,0.1,0.8,0.3,1.3,0.5
		c2.7,1.2,5.2,2.9,7.4,4.9c1.5,1.4,2.9,2.9,4.2,4.5c1.5,1.9,2.7,3.9,3.9,6c1.2,2.3,2.2,4.7,3,7.2c0.8,2.7,1.3,5.5,1.6,8.2
		c0.8,5.7,1.1,11.2,1.4,16.1s0.4,9.5,0.5,13.2s0.1,6.8,0.1,8.9v2.4c0,0.2,0,0.5,0,0.6C384.4,440.6,384.4,440.7,384.4,440.7z"/>
	<path class="st1" d="M387.9,445.1c-0.5-1.4-0.8-2.8-1.1-4.2c-0.7-3.9-0.8-7.8-0.4-11.8c0.6-5.8,1.8-11.6,3.7-17.1
		c2-6.3,4.7-13,7-20.2c1.1-3.5,2.1-7.1,2.8-10.7c0.7-3.4,1.1-6.8,1.4-10.2c0.4-5.8,0.5-11.6,0.3-17.4c-0.2-5-0.4-9-0.6-11.8
		c-0.1-1.4-0.1-2.4-0.2-3.2c0-0.4,0-0.6,0-0.8v-0.3c0,0.1,0,0.2,0,0.3c0,0.2,0,0.5,0.1,0.8c0.1,0.8,0.1,1.8,0.3,3.2
		c0.2,2.8,0.5,6.8,0.7,11.8c0.3,5.8,0.2,11.7-0.2,17.5c-0.3,3.4-0.7,6.9-1.4,10.2c-0.7,3.6-1.7,7.2-2.8,10.7
		c-2.3,7.2-5.1,14-7.1,20.2c-1.9,5.5-3.2,11.2-3.8,17c-0.4,3.9-0.3,7.8,0.3,11.7c0.2,1.4,0.5,2.4,0.6,3.1c0.1,0.3,0.1,0.6,0.2,0.8
		C387.9,445,387.9,445.1,387.9,445.1z"/>
	<polygon class="st1" points="418.4,442.7 360.2,442.7 358.9,431.5 418.4,431.5 	"/>
	<polygon class="st1" points="366.5,441.4 373.7,475 405.4,475 412.2,441.4 	"/>
	<path class="st8" d="M418.4,442.7c0,0.1-12.8,0.2-28.6,0.2s-28.6-0.2-28.6-0.4s12.8-0.2,28.6-0.2S418.4,442.5,418.4,442.7z"/>
	<path class="st10" d="M409,457c-1.6-1.2-3.4-2.3-5.3-3.1c-2-0.9-4.2-1.4-6.4-1.5c-2.7-0.1-5.4,0.4-7.9,1.4c-2.6,1-5.2,1.9-7.8,2.5
		c-2.2,0.4-4.5,0.4-6.7,0c-1.5-0.2-3-0.7-4.3-1.4c-0.4-0.2-0.7-0.4-1-0.7c-0.2-0.2-0.3-0.3-0.3-0.3s0.5,0.3,1.5,0.7
		c1.4,0.6,2.8,1,4.3,1.3c2.2,0.3,4.4,0.3,6.6-0.1c2.6-0.7,5.2-1.6,7.7-2.6c2.6-1,5.3-1.5,8.1-1.4c3.8,0.3,7.4,1.7,10.4,4
		c0.3,0.3,0.6,0.5,0.9,0.8C408.9,456.9,409,457,409,457z"/>
	<path class="st0" d="M418.9,442.7c0,0.2-13.1,0.3-29.2,0.3s-29.2-0.1-29.2-0.3s13.1-0.3,29.2-0.3S418.9,442.6,418.9,442.7z"/>
</g>
</svg>
